<?xml version="1.0" encoding="utf-8"?>
<!-- Generator: Adobe Illustrator 25.0.1, SVG Export Plug-In . SVG Version: 6.00 Build 0)  -->
<svg version="1.1" id="Layer_1" xmlns="http://www.w3.org/2000/svg" xmlns:xlink="http://www.w3.org/1999/xlink" x="0px" y="0px"
	 viewBox="0 0 285 55" style="enable-background:new 0 0 285 55;" xml:space="preserve">
<style type="text/css">
	.st0{fill:url(#SVGID_1_);}
	.st1{fill:url(#SVGID_2_);}
	.st2{fill:url(#SVGID_3_);}
	.st3{fill:url(#SVGID_4_);}
	.st4{fill:url(#SVGID_5_);}
	.st5{fill:url(#SVGID_6_);}
	.st6{fill:url(#SVGID_7_);}
	.st7{fill:url(#SVGID_8_);}
	.st8{fill:url(#SVGID_9_);}
	.st9{fill:url(#SVGID_10_);}
	.st10{fill:url(#SVGID_11_);}
	.st11{fill:url(#SVGID_12_);}
</style>
<g>
	<g>
		<linearGradient id="SVGID_1_" gradientUnits="userSpaceOnUse" x1="72.02" y1="47.5" x2="72.02" y2="7.5">
			<stop  offset="0" style="stop-color:#CF6B1D"/>
			<stop  offset="1" style="stop-color:#F7AF57"/>
		</linearGradient>
		<path class="st0" d="M86.37,47.5h-6.18l-2.52-9H66.44l-2.54,9h-6.23l10.15-36c0.77-2.67,2.18-4,4.25-4c2.1,0,3.52,1.33,4.25,4
			L86.37,47.5z M75.98,32.5l-3.91-13.95L68.18,32.5H75.98z"/>
		<linearGradient id="SVGID_2_" gradientUnits="userSpaceOnUse" x1="91.67" y1="47.5" x2="91.67" y2="7.5">
			<stop  offset="0" style="stop-color:#CF6B1D"/>
			<stop  offset="1" style="stop-color:#F7AF57"/>
		</linearGradient>
		<path class="st1" d="M102.67,13.5h-8v34h-6v-34h-8v-6h22V13.5z"/>
		<linearGradient id="SVGID_3_" gradientUnits="userSpaceOnUse" x1="111.27" y1="47.5" x2="111.27" y2="7.5">
			<stop  offset="0" style="stop-color:#CF6B1D"/>
			<stop  offset="1" style="stop-color:#F7AF57"/>
		</linearGradient>
		<path class="st2" d="M125.62,47.5h-6.18l-2.52-9h-11.23l-2.54,9h-6.23l10.15-36c0.77-2.67,2.18-4,4.25-4c2.1,0,3.52,1.33,4.25,4
			L125.62,47.5z M115.23,32.5l-3.91-13.95l-3.89,13.95H115.23z"/>
		<linearGradient id="SVGID_4_" gradientUnits="userSpaceOnUse" x1="138.91" y1="47.5" x2="138.91" y2="7.5">
			<stop  offset="0" style="stop-color:#CF6B1D"/>
			<stop  offset="1" style="stop-color:#F7AF57"/>
		</linearGradient>
		<path class="st3" d="M150.91,47.5h-7l-8.25-12.95c-1.17-1.83-1.75-3.23-1.75-4.2c0-1.8,0.57-3.15,1.7-4.05
			c0.07-0.07,1.38-0.8,3.95-2.2c2.9-1.6,4.35-3.47,4.35-5.6c0-1.3-0.51-2.46-1.52-3.48c-1.02-1.02-2.18-1.52-3.48-1.52h-6v34h-6v-36
			c0-1.07,0.4-2,1.2-2.8c0.8-0.8,1.73-1.2,2.8-1.2h8c2.83,0,5.38,1.04,7.62,3.13s3.38,4.54,3.38,7.38c0,2.8-0.95,5.34-2.85,7.6
			c-1.9,2.27-4.22,3.82-6.96,4.65L150.91,47.5z"/>
		<linearGradient id="SVGID_5_" gradientUnits="userSpaceOnUse" x1="157.67" y1="47.5" x2="157.67" y2="7.5">
			<stop  offset="0" style="stop-color:#CF6B1D"/>
			<stop  offset="1" style="stop-color:#F7AF57"/>
		</linearGradient>
		<path class="st4" d="M160.67,47.5h-6v-40h6V47.5z"/>
	</g>
	<g>
		<g>
			
				<linearGradient id="SVGID_6_" gradientUnits="userSpaceOnUse" x1="180.94" y1="247.06" x2="180.94" y2="207.7" gradientTransform="matrix(1 0 0 1 0 -200)">
				<stop  offset="0" style="stop-color:#CF6B1D"/>
				<stop  offset="1" style="stop-color:#F7AF57"/>
			</linearGradient>
			<path class="st5" d="M167.92,34.02c0-3.94,1.76-7.62,4.74-10.07c-1.22-1.7-1.92-3.83-1.92-5.97c0-5.7,4.58-10.28,10.23-10.28
				c5.7,0,10.28,4.58,10.28,10.28c0,2.18-0.69,4.31-1.92,6.07c2.93,2.45,4.63,6.13,4.63,9.96c0,7.24-5.75,13.05-13,13.05
				C173.72,47.07,167.92,41.27,167.92,34.02z M192.47,34.02c0-3.94-1.97-7.56-5.33-9.75c1.65-1.65,2.61-3.94,2.61-6.29
				c0-4.9-3.89-8.79-8.79-8.79c-4.79,0-8.74,3.94-8.74,8.79c0,2.34,0.91,4.58,2.61,6.29c-3.41,2.08-5.43,5.7-5.43,9.75
				c0,6.39,5.17,11.56,11.56,11.56C187.36,45.58,192.47,40.42,192.47,34.02z M173.67,34.02c0-4.05,3.25-7.3,7.3-7.3
				c3.99,0,7.3,3.3,7.3,7.3c0,4.05-3.25,7.3-7.3,7.3S173.67,38.07,173.67,34.02z M186.77,34.02c0-3.14-2.66-5.81-5.81-5.81
				c-3.2,0-5.81,2.61-5.81,5.81s2.61,5.81,5.81,5.81S186.77,37.22,186.77,34.02z M176.44,17.99c0-2.61,1.97-4.58,4.53-4.58
				c2.61,0,4.58,1.97,4.58,4.58c0,2.56-1.97,4.53-4.58,4.53C178.41,22.52,176.44,20.55,176.44,17.99z M184.05,17.99
				c0-1.76-1.33-3.09-3.09-3.09c-1.7,0-3.04,1.33-3.04,3.09c0,1.7,1.33,3.04,3.04,3.04C182.72,21.03,184.05,19.7,184.05,17.99z"/>
			
				<linearGradient id="SVGID_7_" gradientUnits="userSpaceOnUse" x1="217.26" y1="247.5" x2="217.26" y2="207.5" gradientTransform="matrix(1 0 0 1 0 -200)">
				<stop  offset="0" style="stop-color:#CF6B1D"/>
				<stop  offset="1" style="stop-color:#F7AF57"/>
			</linearGradient>
			<path class="st6" d="M197.26,27.47c0-11.02,8.95-19.97,20.03-19.97c11.03,0,19.97,8.95,19.97,19.97
				c0,11.08-8.95,20.03-19.97,20.03C206.21,47.5,197.26,38.55,197.26,27.47z M235.77,27.47c0-10.17-8.31-18.48-18.48-18.48
				c-10.23,0-18.53,8.31-18.53,18.48c0,10.23,8.31,18.54,18.53,18.54C227.46,46.01,235.77,37.7,235.77,27.47z M203.18,27.47
				c0-7.78,6.34-14.06,14.11-14.06c7.72,0,14.06,6.34,14.06,14.06c0,7.78-6.29,14.11-14.06,14.11
				C209.51,41.59,203.18,35.25,203.18,27.47z M229.86,27.47c0-6.87-5.7-12.57-12.57-12.57c-6.92,0-12.62,5.65-12.62,12.57
				s5.7,12.62,12.62,12.62C224.21,40.1,229.86,34.4,229.86,27.47z"/>
			
				<linearGradient id="SVGID_8_" gradientUnits="userSpaceOnUse" x1="260.03" y1="247.5" x2="260.03" y2="207.5" gradientTransform="matrix(1 0 0 1 0 -200)">
				<stop  offset="0" style="stop-color:#CF6B1D"/>
				<stop  offset="1" style="stop-color:#F7AF57"/>
			</linearGradient>
			<path class="st7" d="M240.03,27.47c0-11.02,8.95-19.97,20.03-19.97c11.03,0,19.97,8.95,19.97,19.97
				c0,11.08-8.95,20.03-19.97,20.03C248.98,47.5,240.03,38.55,240.03,27.47z M278.54,27.47c0-10.17-8.31-18.48-18.48-18.48
				c-10.23,0-18.53,8.31-18.53,18.48c0,10.23,8.31,18.54,18.53,18.54C270.23,46.01,278.54,37.7,278.54,27.47z M245.95,27.47
				c0-7.78,6.34-14.06,14.11-14.06c7.72,0,14.06,6.34,14.06,14.06c0,7.78-6.29,14.11-14.06,14.11
				C252.29,41.58,245.95,35.25,245.95,27.47z M272.63,27.47c0-6.87-5.7-12.57-12.57-12.57c-6.92,0-12.62,5.65-12.62,12.57
				s5.7,12.62,12.62,12.62C266.98,40.1,272.63,34.4,272.63,27.47z"/>
		</g>
	</g>
</g>
<g>
	
		<linearGradient id="SVGID_9_" gradientUnits="userSpaceOnUse" x1="21.985" y1="8.5" x2="21.985" y2="8.5" gradientTransform="matrix(1 0 0 -1 0 56)">
		<stop  offset="0" style="stop-color:#CF6B1D"/>
		<stop  offset="1" style="stop-color:#F7AF57"/>
	</linearGradient>
	<path class="st8" d="M21.98,47.5h0.01H21.98z"/>
	
		<linearGradient id="SVGID_10_" gradientUnits="userSpaceOnUse" x1="28.4" y1="8.5" x2="28.4" y2="48.5" gradientTransform="matrix(1 0 0 -1 0 56)">
		<stop  offset="0" style="stop-color:#CF6B1D"/>
		<stop  offset="1" style="stop-color:#F7AF57"/>
	</linearGradient>
	<path class="st9" d="M30.48,31.06C30.01,24.18,30,7.5,30,7.5h-3.65c0,0,0.07,16.87-0.35,23.64c-0.73,11.77-4,16.34-4.01,16.36
		h12.82C34.81,47.5,31.28,42.9,30.48,31.06z"/>
	
		<linearGradient id="SVGID_11_" gradientUnits="userSpaceOnUse" x1="14.7122" y1="8.5" x2="14.7122" y2="48.5" gradientTransform="matrix(1 0 0 -1 0 56)">
		<stop  offset="0" style="stop-color:#CF6B1D"/>
		<stop  offset="1" style="stop-color:#F7AF57"/>
	</linearGradient>
	<path class="st10" d="M24.47,7.5H21.4c0,4.51-0.04,13.48-2.9,19.63c-3.13,6.72-11.16,10.4-13.55,10.43v9.94
		c9.19-0.93,15.42-9.91,17.76-18.64C24.7,21.44,24.46,8.78,24.47,7.5z"/>
	
		<linearGradient id="SVGID_12_" gradientUnits="userSpaceOnUse" x1="41.5778" y1="8.5" x2="41.5778" y2="48.5" gradientTransform="matrix(1 0 0 -1 0 56)">
		<stop  offset="0" style="stop-color:#CF6B1D"/>
		<stop  offset="1" style="stop-color:#F7AF57"/>
	</linearGradient>
	<path class="st11" d="M37.8,27.13c-2.86-6.14-2.9-15.12-2.9-19.63h-3.08c0.01,1.28-0.23,13.94,1.76,21.36
		c2.34,8.73,8.56,17.71,17.76,18.64v-9.94C48.95,37.53,40.92,33.85,37.8,27.13z"/>
</g>
</svg>
