<?xml version="1.0" encoding="utf-8"?>
<!-- Generator: Adobe Illustrator 25.0.1, SVG Export Plug-In . SVG Version: 6.00 Build 0)  -->
<svg version="1.1" id="Layer_2" xmlns="http://www.w3.org/2000/svg" xmlns:xlink="http://www.w3.org/1999/xlink" x="0px" y="0px"
	 viewBox="0 0 236.12 198.43" style="enable-background:new 0 0 236.12 198.43;" xml:space="preserve">
<style type="text/css">
	.st0{fill:#777AFF;}
	.st1{fill:#010101;}
	.st2{fill:#4F50A8;}
	.st3{fill:#AFAFFF;}
	.st4{fill:#C9C9FF;}
	.st5{fill:#9193FF;}
	.st6{fill:#C7C7C7;}
	.st7{fill:#B8B8B8;}
	.st8{fill:#DEDEDE;}
	.st9{fill:#F0F0F0;}
	.st10{fill:#FFFFFF;}
</style>
<path class="st0" d="M211.99,120.13c-1.64-4.21-10.13-12.31-10.86-12.8c3.58-3.55,6.72-7.28,7.65-10.15
	c1.9-5.76,1.34-20.22,0.67-23.3c-1.08-5.26-3.92-10.31-8.49-15.07c-3.87-3.95-8.71-7.42-14.41-10.33
	c-5.13-2.6-10.68-4.66-16.59-6.16c0,0-14.54-3.63-36.89-1.16c-22.35,2.47-36.96,8.18-36.96,8.18c-5.7,2.31-11.42,5.07-17.11,8.23
	L62.89,67.72c0,0-14.3,10.09-15.42,11.01c0,0,1.76-3.55-0.11-7.1c-1.87-3.55-16.13-3.57-19.22-1.47
	c-3.09,2.1-10.14,25.65-7.67,32.21s12.91,8.41,12.91,8.41c3.43,12.89,13.99,20.57,13.99,20.57c-2.17,2.38-8.72,3.59-9.6,7.06
	c-0.88,3.47,1.59,8.26,6.97,8.26c13.01,0,17.2-7.65,17.2-7.65s9.79,3.42,14.71,4.25c7.12,1.28,21.16,1.58,21.22,1.58
	c0.35,0,2.83,4.17,4.49,6.62c4.49,6.62,11.12,10.76,17.89,8.12c6.77-2.65,7.7-9,4.38-11.12c-1.89-1.21-4.24-4.29-5.91-6.73
	c6.21-1.33,11.69-2.76,13.52-3.6c3.86-1.81,10-4.41,10.14-4.41c13.15,5.14,16.63-3.15,16.63-3.15s8.11,1.29,9.47,6.33
	c1.47,1.9,3.17,9.97,3.55,11.61c0.44,1.9,1.91,5.33,6.77,6.88c0.79,0.26,7.41-0.36,19.31-8.69c11.54-8.07,12.07-8.72,12.75-9.56
	C215.09,131.91,213.14,123.07,211.99,120.13z"/>
<g id="_x23_ffff00ff_4_">
</g>
<g>
	<path class="st1" d="M201.24,82.8c0.76-2.35,0.91-4.89,0.39-7.31c-0.88-4.26-3.4-7.98-6.37-11.08c-3.55-3.62-7.8-6.49-12.31-8.79
		c-8.34-4.22-17.52-6.63-26.79-7.66l-4.64-0.44c-15.24-0.99-30.58,1.52-44.99,6.45l-4.9,1.77c-8.99,3.45-17.59,7.87-25.77,12.94
		L73.2,70.4c-5.32,3.43-33.15,21.11-33.15,33.12c-0.29,4.64,1.68,24.05,37.99,31.87c6.52,1.18,13.16,1.32,19.77,1.46
		c30.83,0,38.76-10.32,41.62-13.71c1.01,0.37,2.07,0.6,3.15,0.57c4.08,0.04,8.39-0.23,11.95-2.44l8.9-1.65
		c1.48-0.87,2.92-1.81,4.2-2.96c0.72,0.32,0.89,0.47,2.3,0.57c3.01-0.05,6.17-2.51,6.17-2.51c1.39-0.98,2.66-2.12,3.78-3.4
		c0,0,7.27-1.69,6.95-1.92c2-1.64,3.74-3.58,5.17-5.73c0.98,0.11,2.06,0.16,2.92-0.42c3.04-1.98,5.17-5.15,6.28-8.57
		C202.45,90.87,202.78,86.58,201.24,82.8z"/>
	<path class="st2" d="M138.18,110.55c-0.77-2.57-1.97-5-3.38-7.29l-5.45-6.83c-1.71-1.94-3.71-3.59-5.73-5.18
		c-0.55-0.42-1.14-0.78-1.74-1.13c-8.46-4.88-17.96-7.9-27.65-8.99l-2.51-0.23c-3.85-0.29-7.73-0.24-11.58,0.11l-2.39,0.29
		C71.2,82.16,64,84.32,58.02,87.14c0,0-8.43,4.67-10.63,8.9c-2.2,4.23-2.99,9.71-2.99,9.71c0.18,2.01,0.74,3.98,1.63,5.79l2.62,3.83
		c3.53,4.36,8.27,7.57,13.24,10.09c4.08,2.07,8.37,3.71,12.81,4.83l10.17,1.65c0.08,0.02,0.15,0.03,0.2,0.03
		c2.69,0.25,5.39,0.36,8.09,0.44c6.77,0.21,13.61,0.1,20.28-1.19c4.65-0.9,9.23-2.3,13.55-4.27c3.38-1.6,6.65-3.65,9.04-6.58
		C138.16,117.65,139.13,113.93,138.18,110.55z"/>
	<path class="st1" d="M60.07,88.79c0,0,10.87-5.38,28.25-5.38s29.58,6.16,36.32,12.95s10.22,12.93,10.22,18.16
		s-9.07,10.12-24.41,12.97s-37.16,1.62-50.38-6.1s-12.96-18.49-12.6-20.17C47.82,99.54,48.41,94.27,60.07,88.79z"/>
	<path class="st2" d="M104.82,88.82c-5.15-1.16-10.32-2.31-15.6-2.7c-4.84-0.21-9.73-0.18-14.49,0.86
		c-2.81,0.68-5.12,1.39-9.46,2.89c-9.05,3.22-10.99,6.44-11.8,10.28c-0.75,3.54-1.54,12.47,12.91,18.41
		c13.29,5.42,21.17,5.4,22.48,5.4c1.31,0,5.19,0.02,5.19,0.02s-3.11-1.58-3.84-2.31c-0.74-0.73-10.96-9.65-3.18-21.59
		C94.94,89.7,104.82,88.82,104.82,88.82z"/>
	<path class="st0" d="M68.48,91.37c5.1-2.1,10.58-3.19,16.07-3.53c3.41-0.09,6.96-0.27,10.21,0.97c-2.34,1.4-4.94,2.36-7.07,4.1
		l-5.57,5.64c-2.4,3.67-2.86,8.34-1.82,12.54c0.55,2.69,1.78,5.16,2.7,7.73c-4.56-0.26-8.99-1.63-13.12-3.54
		c-3.81-1.84-7.6-4.13-10.17-7.57C54.36,100.8,60.78,95.15,68.48,91.37z"/>
	<path class="st0" d="M145.16,98.29c-0.43-3.79-2.94-6.89-5.52-9.52c-4-3.9-8.74-6.95-13.71-9.45c-8.74-4.32-18.34-6.91-28.07-7.51
		l-3.58-0.18c-5.5,0-10.99,0.55-16.36,1.76l-3.58,1.53c0,0-1.64,1.24-3.01,1.51c-0.42,0.2-0.83,0.42-1.24,0.61
		c1.94-0.06,3.87-0.38,5.8-0.57l3-0.27c4.66-0.42,9.35-0.58,14.03-0.38l3.27,0.16c8.32,0.72,16.62,2.61,24.15,6.3
		c9.4,4.5,17.33,11.81,22.92,20.58c0.33,0.47,0.95,1.42,1.56,0.78C145.6,101.98,145.32,100.06,145.16,98.29z"/>
	<path class="st0" d="M145.72,56.16c7.12-1.44,14.49-1.98,21.71-0.94c2.77,0.42,5.55,0.99,8.15,2.03c4.2,2.3,8.1,5.2,11.37,8.7
		c2.68,2.92,5.06,6.31,5.98,10.23c0.4,1.97,0.41,4.17-0.66,5.94c-0.65,1.17-1.76,1.96-2.89,2.61c-4.67,2.76-9.6,5.05-14.52,7.32
		c-7.03,3.18-14.13,6.21-21.36,8.92c-1.93,0.69-3.84,1.46-5.86,1.82c0.43-0.92,1.02-1.83,1.01-2.89c0.08-2.61-1.21-5.02-2.59-7.15
		c-2.51-3.74-5.84-6.86-9.39-9.59c-4.73-3.59-9.99-6.49-15.51-8.66c-1.16-0.46-2.32-1.3-2.66-2.57c-0.3-1.36,0.41-2.68,1.25-3.7
		c2.06-2.47,4.84-4.17,7.63-5.7C133.14,59.51,139.37,57.48,145.72,56.16"/>
	<path class="st3" d="M93.34,72.68l4.31-0.17c4.04,0.48,8.1,0.94,12.04,1.99c8.43,2.14,16.41,6.16,22.99,11.88
		c1.32,1.19,2.71,2.33,3.79,3.74c-1.56-0.93-2.95-2.12-4.51-3.06c-10.59-6.75-22.76-11.09-35.28-12.3l-5.54-0.54L93.34,72.68z"/>
	<path class="st3" d="M68.3,76.46c2.09-1.01,7.4-2.41,9.62-3.07c0.06,0.13-2.84,1.22-2.78,1.34c-1.98,0.5-4.09,0.72-5.89,1.73
		c0.69,0.01,1.39,0.01,2.08-0.04c-0.42,0.2-0.83,0.42-1.24,0.62C69.51,77.09,67.83,77.47,68.3,76.46z"/>
	<g id="_x23_fcf218ff_2_">
		<path class="st4" d="M112.55,76.04c-4.92-1.66-10.09-2.41-15.26-2.81l-3.4-0.53c-3.91-0.19-7.82,0.15-11.7,0.67
			c-1.37,0.12-2.74,0.22-4.09,0.55l-2.96,0.81c-1.97,0.5-4.08,0.72-5.89,1.73c0.69,0.02,1.39,0.01,2.08-0.04
			c1.37-0.27,2.73-0.62,4.13-0.77l3.05-0.59c2.25-0.41,4.53-0.55,6.79-0.8c2.7-0.04,5.39,0,8.08,0l3.56-0.14
			c8.11,0.84,15.99,3.08,23.62,5.86c1.35,0.46,2.68,1,4.05,1.39C120.69,79.38,116.76,77.37,112.55,76.04z"/>
	</g>
	<path class="st5" d="M194.18,91.13c0.89-0.62,3.69-3,3.69-3l-0.71,5.58l-1.61,2.92c0,0-0.67,0.8-1,1.19
		C194.89,95.62,195.35,93.17,194.18,91.13z"/>
	<path class="st5" d="M183.7,97.61c1.75-0.94,6.8-3.9,6.8-3.9l-0.43,6.53l-5.92,5.65c0,0-0.97,0.81-1.5,1.17
		C183.93,104.13,184.52,100.76,183.7,97.61z"/>
	<path class="st5" d="M172.54,102.98c2.01-0.9,7.06-3.26,7.06-3.26l0.4,4.97l-4.76,6.09l-2.91,1.02c-0.33,0.38-0.92,0.48-1.34,0.74
		C172.65,109.67,173.32,106.22,172.54,102.98z"/>
	<path class="st5" d="M161.04,107.48c2.04-0.68,4.79-1.76,6.87-2.59c-0.53,0.91,0.92,4.04,0.92,4.04l-3.97,3.61l-3.53,3.68
		c-0.14,0.01-1.78,0.02-1.89,0.02C160.91,113.6,161.51,110.46,161.04,107.48z"/>
	<path class="st5" d="M142.77,111.09c4.07,0.64,8.06-0.65,11.99-1.51l2.87,2.55l-10.32,6.92l-4.68,0.4c0,0-0.73-0.35-0.87-0.41
		C142.71,116.53,143.12,113.78,142.77,111.09z"/>
	<path class="st5" d="M123.86,66.08c10.53-7.26,23.42-10.85,36.18-10.64c5.48,0.12,10.98,1.04,16.07,3.12
		c3.28,1.39,6.28,3.65,8.1,6.75c1.76,2.92,2.14,6.59,1.15,9.84c-0.6,2.06-1.67,3.97-3,5.64c-1.37,1.62-3.14,2.83-4.87,4.03
		c-4.09,2.69-8.39,5.04-12.75,7.26c-4.43,2.22-8.86,4.46-13.48,6.28c0.16-1.34-0.48-2.56-1.18-3.65c-2.25-3.47-5.13-6.48-8.11-9.32
		c-2.79-2.55-5.71-5.03-9.06-6.82c-2.89-1.43-5.88-2.8-8.34-4.94c-0.98-0.87-1.88-1.9-2.27-3.18
		C121.79,68.86,122.59,67.08,123.86,66.08"/>
	<path class="st3" d="M152.76,56.61c3.01-0.36,6.05-0.23,9.08-0.22c4.05,0.26,8.11,0.85,11.96,2.16c1.14,0.41,2.36,0.78,3.23,1.67
		c1.94,1.85,3.55,4.35,3.56,7.12c-0.01,1.63-1.19,2.99-2.61,3.66c-3.73,1.8-7.92,2.18-11.96,2.87c-4.64,0.97-9.43,1.78-13.64,4.06
		c-2.41,1.27-4.46,3.39-5.25,6.03c-1.14-1.05-2.15-2.24-3.31-3.25c-1.61-1.34-3.4-2.45-5.32-3.28c-3.06-1.28-6.19-2.41-9.18-3.86
		c-1.47-0.85-3.12-1.89-3.59-3.63c-0.35-1.68,0.73-3.22,1.87-4.32c2.43-2.19,5.43-3.64,8.45-4.82
		C141.26,58.26,147.03,57.13,152.76,56.61"/>
	<path class="st4" d="M145.17,59.29c5.22-1.1,10.59-1.81,15.93-1.25c3.13,0.33,6.11,1.5,8.81,3.07c1.16,0.72,2.39,1.68,2.64,3.11
		c0.21,1.27-0.79,2.31-1.73,2.99c-2.15,1.5-4.85,1.58-7.33,2.09c-3.72,0.78-7.55,0.93-11.26,1.77c-2.37,0.5-4.87,0.99-6.87,2.44
		c-0.78,0.53-1.18,1.4-1.46,2.27c-2.55-2.13-5.53-3.86-8.83-4.49c-1.32-0.28-2.73-0.58-3.77-1.51c-0.71-0.64-0.65-1.74-0.27-2.55
		c0.7-1.54,2.04-2.66,3.39-3.63C137.65,61.43,141.39,60.13,145.17,59.29z"/>
	<path class="st5" d="M150.63,49.59c-14.74-1.54-29.67,1.03-43.57,5.95c-0.6,0.23-1.26,0.36-1.78,0.74l-4.91,1.84
		c-8.23,3.43-16.12,7.65-23.66,12.42l-2.66,1.72l3-0.95c0,0,5.96-2.06,9.06-2.67c3.18-0.67,6.44-0.86,9.68-0.84l3.95-0.25
		c3.67-0.02,7.36-0.58,10.84-1.76c2.63-1.05,5.21-2.25,7.84-3.33c7.29-3.05,14.72-5.79,22.33-7.93c6.34-1.77,12.84-3.09,19.44-3.23
		C157.06,50.46,153.85,49.95,150.63,49.59z"/>
	<path class="st4" d="M138.72,50.55c-3.4,0.19-6.83,0.26-10.18,0.9c-3.67,0.68-7.37,1.3-10.97,2.32c-4.63,1.38-9.03,3.42-13.62,4.93
		l-5.22,2.56c-2.21,1.15-4.35,2.43-6.5,3.7c1.53,0.33,3.1,0.22,4.65,0.29l3.83,0.08c3.64,0.31,7.3-0.48,10.61-1.96
		c5.91-2.71,11.89-5.28,18.02-7.43c4.63-1.49,9.34-2.71,14.04-3.97c1.91-0.53,3.88-0.85,5.78-1.44
		C145.69,50.29,142.2,50.43,138.72,50.55z"/>
	<path class="st0" d="M160.18,51.3c-6.59,0.13-13.1,1.46-19.44,3.22c-7.61,2.14-15.04,4.89-22.33,7.93
		c-2.63,1.08-5.2,2.28-7.84,3.33c-3.48,1.18-7.17,1.73-10.84,1.76h-0.04l-3.9,0.25c-3.24-0.01-6.5,0.17-9.68,0.84
		c-3.1,0.61-6.08,1.69-9.07,2.67l-2.99,0.96c-1.05,0.67-2.11,1.32-3.1,2.08c1.16-0.39,2.32-0.82,3.47-1.22l3-0.89
		c5.73-1.59,11.65-2.46,17.6-2.56l3.75,0.06c2.01,0.11,4.04,0.3,6.04-0.01c1.53-0.21,3.01-0.72,4.43-1.3
		c10.52-4.47,21.07-8.95,32.01-12.32c6.81-2.1,13.8-3.74,20.92-4.29C161.51,51.63,160.86,51.39,160.18,51.3z"/>
	<path class="st4" d="M154.75,109.58c0.91-0.39,1.92-0.77,2.93-0.62c0.77,0.1,1.26,0.84,1.29,1.57c0.21,2.74-1.17,5.51-3.35,7.14
		c-1.6-0.19-3.19-0.45-4.8-0.51c-0.15,0.31-0.31,0.61-0.39,0.95c0.11,0.79,0.82,1.26,1.35,1.76c-2.22,0.69-4.56,1.21-6.9,0.98
		c-0.91-0.1-1.96-0.45-2.29-1.39c0.07-0.61,0.18-1.21,0.3-1.81c1.6-0.09,3.28-0.21,4.68-1.05c1.71-1.02,2.93-2.63,4.19-4.12
		C152.66,111.4,153.77,110.55,154.75,109.58z"/>
	<path class="st4" d="M167.15,105.2c0.69-0.25,1.47-0.77,2.21-0.36c0.91,0.55,1.24,1.65,1.45,2.63c0.38,2.01-0.57,4.01-1.85,5.52
		c-1.23-0.2-2.47-0.33-3.72-0.37c-0.1,0.39-0.37,0.81-0.16,1.22c0.32,0.58,0.9,0.93,1.4,1.34c-1.52,0.84-3.17,1.55-4.91,1.69
		c-0.44,0.03-1.09-0.11-1.12-0.65c0.11-0.51,0.24-1.08,0.74-1.35c1.28-0.87,2.67-1.71,3.47-3.09c0.7-1.1,0.78-2.42,1.05-3.65
		c0.23-1.04,0.86-1.93,1.39-2.83L167.15,105.2z"/>
	<path class="st4" d="M178.56,100.24c0.35-0.17,0.7-0.35,1.05-0.52c1.36,0.39,2.41,1.5,2.95,2.78c0.46,2.02-0.68,3.98-1.84,5.55
		c-0.93-0.14-1.86-0.22-2.79-0.33c-0.82,0.92,0.12,1.81,0.86,2.35c-1.28,0.85-2.69,1.51-4.17,1.91c-0.76,0.2-1.6,0.26-2.28-0.19
		c0.25-0.55,0.32-1.26,0.88-1.61c1.04-0.76,2.19-1.45,2.92-2.56c0.85-1.19,0.98-2.68,1.22-4.08
		C177.52,102.37,178.03,101.29,178.56,100.24z"/>
	<path class="st4" d="M188.9,94.67c0.54-0.32,1.07-0.64,1.6-0.97c1.39,4.08,0.41,9.45-3.46,11.84c-0.84,0.48-2.05,1.23-2.89,0.35
		c0.13-0.77,0.25-1.59,0.83-2.16c1.38-1.52,2.86-3.09,3.5-5.08C188.77,97.35,188.68,95.99,188.9,94.67z"/>
	<path class="st4" d="M196.73,89.12c0.37-0.34,0.75-0.66,1.14-0.99c-0.11,1.07,0.28,2.1,0.25,3.16c0.04,1.72-0.32,3.45-1.03,5.02
		c-0.24,0.61-0.83,0.96-1.42,1.16c-0.03-0.21-0.09-0.64-0.12-0.85c-0.15-1.23,0.25-2.41,0.66-3.55
		C196.66,91.81,196.72,90.46,196.73,89.12z"/>
	<g>
		<path class="st1" d="M188.68,121.73c-3.61-3.24-8.03-5.43-12.58-7.01l-7.12-1.73c-1.23-0.2-2.47-0.33-3.72-0.37
			c-0.1,0.39-0.38,0.81-0.16,1.22c0.32,0.58,0.91,0.93,1.4,1.34c0,0,11.37,4.3,13.4,5.24c2.7,1.39,5.16,3.33,6.88,5.85
			c1.87,2.68,2.85,5.84,3.76,8.94c0.35,1.12-0.15,2.33,0.22,3.43c0.8,1.24,2.86,0.87,3.52-0.34c0.99-1.77,0.76-3.92,0.53-5.86
			C194.24,128.24,191.81,124.5,188.68,121.73z"/>
		<path class="st1" d="M204.57,123.06c-1.23-3.17-3.54-5.82-6.2-7.88c-3.42-2.66-7.41-4.51-11.54-5.78c0,0-6.35-1.68-8.91-1.68
			c-0.82,0.92,0.12,1.81,0.86,2.35l0.51,1.07l4.73,1.19c0,0,7.08,2.05,10.01,4.31c3.04,2.1,5.12,5.33,6.28,8.79
			c0.54,1.77,1.4,3.53,1.19,5.43c0.02,0.5-0.11,1.1,0.28,1.49c0.81,0.75,2.23,0.56,2.91-0.28c0.6-0.73,0.77-1.69,0.9-2.6v-1.85
			C205.42,126.07,205.15,124.52,204.57,123.06z"/>
		<g>
			<path class="st1" d="M181.81,147.78c0.95,0,2.18-1.03,2.5-2.03c0.77-2.28,0.47-4.75,0.03-7.06c-0.85-4.2-3.33-7.9-6.45-10.77
				c-3.36-3.11-8.04-5.83-11.61-7.15s-10.64-3.1-10.64-3.1c-1.6-0.18-3.19-0.45-4.8-0.51c-0.15,0.31-0.31,0.61-0.39,0.95
				c0.1,0.79,0.81,1.26,1.35,1.76l2.74,1.4c4.1,1.77,8.42,2.92,12.54,4.63c2.97,1.45,5.7,3.49,7.72,6.12
				c2.49,3.22,3.73,7.16,4.86,11.01c0.38,1.2-0.12,2.47,0.16,3.68C179.96,147.37,180.86,147.78,181.81,147.78z"/>
		</g>
	</g>
	<circle class="st0" cx="86.86" cy="97.64" r="4.8"/>
	<circle class="st0" cx="95.59" cy="94.71" r="2.22"/>
</g>
<path class="st1" d="M42.03,106.62c-0.17-0.3-9.21-2.91-14.07-4.3c-1.65-0.47-2.56-2.21-2.02-3.84l6.92-20.94
	c0.36-1.1,1.49-1.76,2.63-1.53l4.91,0.99c0.82,0.16,1.3,1.02,1.01,1.8l-6.24,17.05c-0.35,0.95,0.24,1.98,1.23,2.17l6.63,1.29
	L42.03,106.62z"/>
<path class="st0" d="M82.6,80.19c0,0-3.62-3.41-7.46-5.46c-3.21-1.72-12.49-3.1-12.49-3.1s4.46-5.84,7.44-5.84
	c2.98,0,8.98,2.26,11.96,5.32c3.35,3.45,1.97,8.06,1.97,8.06L82.6,80.19z"/>
<path class="st1" d="M106.84,134.71c0,0,7.23,12.68,11.57,15.27c4.34,2.59-1.53,9.88-7.65,3.76s-9.8-16.82-10.4-19.03
	S106.84,134.71,106.84,134.71z"/>
<path class="st1" d="M66.42,129.42c0,0-12.38,14.96-19.57,12.09s0.69-3.54,4.9-6.8s10.51-7.68,10.51-7.68L66.42,129.42z"/>
<path class="st0" d="M94.9,78.03c0,0-0.42-2.07,2.75-5.52c2.29-2.49,7.32-5.44,9.95-6.89c0.93-0.51,2.09-0.19,2.62,0.73l2.45,4.22
	c0.58,1,0.1,2.28-0.99,2.64c-2.14,0.72-5.39,1.85-7.34,2.69c-3.09,1.33-8.44,4.61-8.44,4.61L94.9,78.03z"/>
<path class="st1" d="M82.6,80.19c0,0-3.41-5.36-7.46-7.3c-2.72-1.3-5.71-1.95-7.39-2.24c-0.44-0.08-0.56-0.64-0.19-0.89
	c0.35-0.23,0.8-0.54,1.37-0.96c2.16-1.55,6.56,0.29,11.33,3.46c2.88,1.92,3.76,6.91,3.76,6.91S84.03,80.09,82.6,80.19z"/>
<path class="st1" d="M95.9,80.51c-0.52,0.52-1.97-1.51-1-2.48c0.97-0.97,3.45-3.25,8.65-7.24c1.51-1.16,2.8-1.73,3.62-2
	c0.54-0.18,1.12,0,1.48,0.44l0.9,1.09c0.37,0.45,0.18,1.13-0.37,1.32c-1.58,0.53-4.48,1.61-6.78,3.15
	C99.05,77.02,96.43,79.99,95.9,80.51z"/>
<g>
	<path class="st0" d="M129.32,118.84l9.91,0.16c1.32,0.02,2.35-1.15,2.15-2.46l-1.95-21.88c-0.2-1.31,0.74-2.51,2.06-2.64
		l11.67-0.96c1.68-0.17,3.19,1.02,3.41,2.7l1.63,33.27c0,0-0.37,6-6.54,6.09c-6.17,0.09-9.31-0.35-9.31-0.35s-16.29-4.69-16.9-8.79
		S129.32,118.84,129.32,118.84z"/>
	<path class="st1" d="M129.32,118.84l14.06,2.7c0.95,0.18,1.79-0.62,1.65-1.58l-1.99-23.03c-0.14-1,0.59-1.92,1.6-2l5.84-0.31
		c1.07-0.09,2.02,0.69,2.14,1.75l0.88,30.96c0.24,2-1.58,3.62-3.54,3.16c0,0-16.75-3.55-22.29-5.2
		C122.15,123.65,126.15,118.23,129.32,118.84z"/>
</g>
<g>
	<g>
		<path class="st1" d="M56.71,87.1c5.74,0,13.25,2.21,13.25,8.7c0,1.43-0.71,3.63-2.68,6.28c-2.47,3.33-6.86,6.7-13.71,6.7
			c-9.4,0-12.87-7-12.87-9.34c0-1.34,0.88-6.48,5.11-9.67C48.19,87.96,51.55,87.1,56.71,87.1z"/>
		<path class="st6" d="M66.22,91.91c-2.02-2.1-4.94-3.05-7.78-3.39c-4.06-0.42-8.34,0.22-11.91,2.28c-2.05,1.19-3.87,3.09-4.34,5.47
			c-0.55,2.85,0.58,5.92,2.67,7.9c1.34,1.3,3.11,2.06,4.92,2.4l3.35,0.19c3.8-0.11,7.52-1.54,10.56-3.8
			c2.26-1.73,4.24-4.27,4.26-7.25C68.03,94.24,67.15,92.96,66.22,91.91z"/>
		<g>
			<path class="st7" d="M46.36,103.94c-1.72-2.33-1.68-6.3,1.01-7.91l7.16,0.27l5.91,6.73c-1.24,1.4-5.13,3.73-7.31,3.73
				C51.49,106.76,47.13,105.12,46.36,103.94z"/>
			<path class="st8" d="M53.74,94.66c2.37,0.58,6.84,0.89,8.59,2.67c1.09,1.13-0.85,5.04-0.85,5.04s-0.68,0.45-1.03,0.67
				c-2.11,0.57-4.55,0.57-6.36-0.79c-1-0.65-1.59-1.73-1.93-2.85L53.74,94.66z"/>
			<path class="st9" d="M54.12,94.45c1.06-0.23,2.41-0.41,3.34-0.52c2.4-0.21,5.06,1.04,5.94,3.37c0.73,1.88-0.24,4.06-1.92,5.07
				c0.31-1.2,1.44-2.61,0.35-3.73c-1.75-1.78-4.26-2.57-6.63-3.15c-0.08,0.26-0.17,0.53-0.25,0.79L54.12,94.45z"/>
			<path class="st10" d="M49.31,90.95c3.42-1.6,7.5-1.32,10.91,0.2c2.15,0.96,4.21,2.5,5.05,4.79c-1.43-0.98-2.79-2.09-4.35-2.88
				c-3.03-1.62-6.68-2.31-10-1.21c1.6,0.08,3.21,0.91,3.76,2.49c0.16,0.64,0.24,1.29,0.27,1.95c-0.33,1.45-1.38,2.63-2.79,3.11
				c-1.08,0.1-2.27,0.06-3.17-0.63c-0.93-0.61-1.4-1.68-1.61-2.73c-0.01-1.08,0.42-2.09,0.96-3c-1.85,1.17-3.29,2.82-4.55,4.58
				C44.65,94.79,46.59,92.22,49.31,90.95z"/>
		</g>
	</g>
	<g>
		<path class="st1" d="M104.98,102.77c-0.04,3.36,1.95,6.33,4.11,8.75c5,5.5,13.64,7.24,20.39,4.12c2-0.93,3.72-2.41,4.88-4.29
			c0,0,0.91-2.12,1-3.16c0.25-1.67,0.12-3.82-0.28-5.4c-0.4-1.58-1.37-4.14-7.58-7.09c-1.74-0.83-3.64-1.21-5.53-1.47
			c-4.32-0.39-8.88,0.13-12.72,2.28C106.96,97.78,105.04,100.05,104.98,102.77z"/>
		<g>
			<path class="st6" d="M115.25,96c2.93-0.41,5.91-0.15,8.79,0.47c3.17,0.64,6.25,2.04,8.62,4.25c1.98,1.84,2.18,4.86,1.55,7.34
				c-0.68,2.8-3.02,4.87-5.53,6.08c-2.72,1.37-5.89,1.45-8.84,0.99c-3.92-0.68-7.41-2.97-10.06-5.87c-1.43-1.64-2.68-3.64-2.77-5.88
				c-0.09-2.31,1.29-4.47,3.12-5.78C111.7,96.72,113.48,96.26,115.25,96"/>
			<path class="st9" d="M119.93,102.25c1.87-0.58,3.84-1.01,5.79-0.57c1.63,0.33,3.21,1.16,4.25,2.49c0.98,1.26,1.17,3.13,0.37,4.53
				l-11.9-5.65L119.93,102.25z"/>
			<path class="st7" d="M110.13,104.37c1.24-0.84,2.77-1.04,4.21-1.25l4.1,0.3l11.63,5.81c0.14,1.24-0.64,2.37-1.43,3.25
				c-1.87,2.04-4.83,2.61-7.49,2.4c-2.3-0.1-4.4-1.18-6.34-2.32c-2-1.32-3.98-2.93-4.96-5.18
				C109.55,106.43,109.13,105.06,110.13,104.37z"/>
			<path class="st8" d="M119.53,103.05c2.98,0.28,6.09,0.73,8.65,2.4c1.14,0.73,1.84,1.95,2.15,3.25c-0.07,0.18-0.16,0.36-0.26,0.53
				c-2.01,2.56-5.65,3.29-8.68,2.45c-1.88-0.51-3.72-1.75-4.34-3.67c-0.41-1.19-0.05-2.41,0.39-3.56
				C117.88,103.3,119.53,103.05,119.53,103.05z"/>
			<path class="st10" d="M116.92,96.94c4.09-0.78,8.36,0.48,11.75,2.79c2.06,1.43,3.99,3.42,4.4,5.99c-2.5-2.86-5.44-5.48-9.08-6.76
				c-1.71-0.61-3.54-0.86-5.35-0.8c1.2,0.95,1.93,2.6,1.28,4.09c-0.12,0.27-0.25,0.54-0.39,0.8c-0.81,1.02-2.15,1.33-3.39,1.18
				c-0.71-0.14-1.29-0.62-1.8-1.11c-0.92-1.1-0.8-2.64-0.3-3.9c-1.63,0.73-3.07,1.79-4.45,2.92
				C111.14,99.45,113.88,97.5,116.92,96.94z"/>
		</g>
	</g>
</g>
</svg>
