<?xml version="1.0" encoding="utf-8"?>
<!-- Generator: Adobe Illustrator 25.0.0, SVG Export Plug-In . SVG Version: 6.00 Build 0)  -->
<svg version="1.1" xmlns="http://www.w3.org/2000/svg" xmlns:xlink="http://www.w3.org/1999/xlink" x="0px" y="0px"
	 viewBox="0 0 340 50" style="enable-background:new 0 0 340 50;" xml:space="preserve">
<style type="text/css">
	.st0{fill:#1D1D1B;}
	.st1{fill:#A4A3A3;}
	.st2{fill:#FFFFFF;}
</style>
<g id="Layer_1_1_">
	<rect class="st0" width="340" height="50"/>
</g>
<g id="Layer_2">
	<g>
		<g>
			<path class="st1" d="M112.84,8.5h5.27c0.56,0,0.95,0.56,0.75,1.09l-11.81,30.77c-0.26,0.69-0.92,1.14-1.66,1.14h-5.27
				c-0.56,0-0.95-0.56-0.75-1.09l11.81-30.77C111.45,8.95,112.11,8.5,112.84,8.5z"/>
		</g>
		<g>
			<path class="st2" d="M308.11,28.07l19.93-10.59c0.79-0.42,0.49-1.61-0.41-1.61h-6.92c-0.8,0-1.59,0.18-2.31,0.53l-14.96,7.29
				V10.62c0-0.78-0.64-1.41-1.42-1.41h-4.27c-0.79,0-1.42,0.63-1.42,1.41v29.47c0,0.78,0.64,1.41,1.42,1.41h4.27
				c0.79,0,1.42-0.63,1.42-1.41v-7.87l14.83,8.58c0.8,0.46,1.71,0.71,2.64,0.71h7c0.88,0,1.2-1.15,0.44-1.6L308.11,28.07z"/>
			<path class="st2" d="M212.79,41.5h4.07c0.89,0,1.62-0.72,1.63-1.6l0.17-16.67c0.01-1.06,0.88-1.91,1.94-1.91h19.82v3.18
				c0,0.86,0.71,1.56,1.57,1.56h4.17c0.87,0,1.57-0.7,1.57-1.56V20c0-2.29-1.87-4.14-4.17-4.14h-30.18c-1.23,0-2.24,0.99-2.24,2.22
				v21.79C211.16,40.77,211.89,41.5,212.79,41.5z"/>
			<path class="st2" d="M176.42,41.5h26.21c0.84,0,1.52-0.68,1.52-1.51V37.7c0-0.84-0.68-1.51-1.52-1.51h-24.28
				c-0.67,0-1.22-0.54-1.22-1.21v-3.67h27.03v-10.7c0-2.62-2.14-4.74-4.78-4.74h-22.96c-2.64,0-4.78,2.12-4.78,4.74v16.15
				C171.64,39.38,173.78,41.5,176.42,41.5z M179.06,21.32h18.29c1.07,0,1.93,0.86,1.93,1.92v2.83h-22.15v-2.83
				C177.13,22.17,177.99,21.32,179.06,21.32z"/>
			<path class="st2" d="M139.65,8.5h-4.47c-0.79,0-1.42,0.63-1.42,1.41v5.95h-4.67c-0.79,0-1.42,0.63-1.42,1.41v2.37
				c0,0.78,0.64,1.41,1.42,1.41h4.67v14.68c0,3.18,2.59,5.75,5.79,5.75h23.78c0.95,0,1.73-0.77,1.73-1.72V37.9
				c0-0.95-0.77-1.72-1.73-1.72H142.9c-1.01,0-1.83-0.81-1.83-1.82V21.06h22.56c0.79,0,1.42-0.63,1.42-1.41v-2.37
				c0-0.78-0.64-1.41-1.42-1.41h-22.56V9.91C141.07,9.13,140.43,8.5,139.65,8.5z"/>
			<path class="st2" d="M253.32,21.32h27.59c0.93,0,1.68,0.75,1.68,1.67v1.41c0,0.92-0.75,1.67-1.68,1.67h-25.4
				c-1.99,0-3.61,1.6-3.61,3.58v6.21c0,3.12,2.55,5.65,5.69,5.65h30.89c0.9,0,1.63-0.72,1.63-1.61V21.52c0-3.12-2.55-5.65-5.69-5.65
				h-31.09c-0.79,0-1.42,0.63-1.42,1.41v2.62C251.89,20.68,252.53,21.32,253.32,21.32z M282.98,36.35h-22.86
				c-0.73,0-1.32-0.59-1.32-1.31v-3.73h24.18V36.35z"/>
		</g>
		<g>
			<path class="st2" d="M74.95,21.43l14.17-9.93c0.46-0.32,0.73-0.84,0.73-1.4c0,0,0-1.59-1.63-1.59h-8.35
				c-0.71,0-1.41,0.22-1.99,0.63L62.19,20.2V9.85c0-0.74-0.61-1.35-1.36-1.35h-6.54c-0.75,0-1.36,0.6-1.36,1.35v30.3
				c0,0.74,0.61,1.35,1.36,1.35h6.54c0.75,0,1.36-0.6,1.36-1.35V30.5l6.12-5.1l12.36,15.35c0.38,0.47,0.96,0.75,1.57,0.75h6.69
				c0.51,0,0.92-0.41,0.92-0.92v-1.15c0-0.4-0.15-0.8-0.41-1.1L74.95,21.43z"/>
			<path class="st2" d="M41.42,21.33c-2.27,0-20.7,0-20.7,0c-0.76,0-1.37-0.61-1.37-1.36v-1.64c0-0.75,0.61-1.36,1.37-1.36h23.2
				c0.9,0,1.63-0.72,1.63-1.62v-5.23c0-0.89-0.73-1.62-1.63-1.62H12.76c-0.84,0-1.52,0.68-1.52,1.51v29.98
				c0,0.83,0.68,1.51,1.52,1.51c0,0,26.37,0,28.66,0c2.29,0,7.79-3.61,7.79-10.25C49.21,24.62,43.69,21.33,41.42,21.33z
				 M40.23,32.01c0,0.71-0.58,1.29-1.3,1.29H20.65c-0.72,0-1.3-0.58-1.3-1.29V30.5c0-0.71,0.58-1.29,1.3-1.29h18.27
				c0.72,0,1.3,0.58,1.3,1.29V32.01z"/>
		</g>
	</g>
</g>
</svg>
