<?xml version="1.0" encoding="utf-8"?>
<!-- Generator: Adobe Illustrator 25.0.0, SVG Export Plug-In . SVG Version: 6.00 Build 0)  -->
<svg version="1.1" id="Layer_1" xmlns="http://www.w3.org/2000/svg" xmlns:xlink="http://www.w3.org/1999/xlink" x="0px" y="0px"
	 viewBox="0 0 256 256" style="enable-background:new 0 0 256 256;" xml:space="preserve">
<style type="text/css">
	.st0{fill:#FF0000;}
	.st1{fill:#FF8000;}
	.st2{fill:#FFFF00;}
</style>
<g>
	<path d="M221.33,93.23V81.64h-11.67V70.05H198V58.45h-11.67V46.86h-70v11.59h-11.67v11.59H93v11.59H81.33v11.59H58v11.59H23v46.36
		h35v11.59h23.33v11.59H93v11.59h11.67v11.59h11.67v11.59h70v-11.59H198v-11.59h11.67v-11.59h11.67v-11.59H233V93.23H221.33z"/>
	<polygon class="st0" points="209.67,104.82 209.67,93.23 198,93.23 198,81.64 186.33,81.64 186.33,70.05 174.67,70.05 
		174.67,58.45 128,58.45 128,70.05 116.33,70.05 116.33,81.64 128,81.64 128,93.23 93,93.23 93,104.82 69.67,104.82 69.67,116.41 
		34.67,116.41 34.67,139.59 69.67,139.59 69.67,151.18 93,151.18 93,162.77 128,162.77 128,174.36 116.33,174.36 116.33,185.95 
		128,185.95 128,197.55 174.67,197.55 174.67,185.95 186.33,185.95 186.33,174.36 198,174.36 198,162.77 209.67,162.77 
		209.67,151.18 221.33,151.18 221.33,104.82 	"/>
	<path class="st1" d="M198,104.82V93.23h-11.67V81.64h-11.67V70.05H128v11.59h11.67v11.59H128v11.59H93v11.59H69.67v23.18H93v11.59
		h35v11.59h11.67v11.59H128v11.59h46.67v-11.59h11.67v-11.59H198v-11.59h11.67v-46.36H198z"/>
	<polygon class="st2" points="186.33,116.41 186.33,104.82 174.67,104.82 174.67,93.23 151.33,93.23 151.33,104.82 139.67,104.82 
		139.67,116.41 104.67,116.41 104.67,139.59 139.67,139.59 139.67,151.18 151.33,151.18 151.33,162.77 174.67,162.77 174.67,151.18 
		186.33,151.18 186.33,139.59 198,139.59 198,116.41 	"/>
</g>
</svg>
