<?xml version="1.0" encoding="utf-8"?>
<!-- Generator: Adobe Illustrator 25.0.0, SVG Export Plug-In . SVG Version: 6.00 Build 0)  -->
<svg version="1.1" xmlns="http://www.w3.org/2000/svg" xmlns:xlink="http://www.w3.org/1999/xlink" x="0px" y="0px"
	 viewBox="0 0 435 175" style="enable-background:new 0 0 435 175;" xml:space="preserve">
<style type="text/css">
	.st0{fill:#278EBA;}
	.st1{fill:#1F678B;}
	.st2{fill:#20739D;}
	.st3{fill:#2080AD;}
	.st4{fill:#36A0CE;}
	.st5{fill:#5CB4DA;}
	.st6{fill:none;stroke:#FFFFFF;stroke-miterlimit:10;}
	.st7{fill:none;}
	.st8{fill:#22769E;}
	.st9{font-family:'ArialMT';}
	.st10{font-size:18.892px;}
	.st11{fill:#2998C8;}
</style>
<g id="Layer_1">
	<rect x="1.24" y="0.5" class="st0" width="433.52" height="175"/>
</g>
<g id="Layer_2_1_">
	<path class="st1" d="M172.3,164.62H23.31c-1.92,0-3.47-1.55-3.47-3.47V12.16c0-1.92,1.55-3.47,3.47-3.47H172.3
		c1.92,0,3.47,1.55,3.47,3.47v148.99C175.77,163.07,174.22,164.62,172.3,164.62z"/>
	<path class="st2" d="M210.23,40.8h-26.05c-1.67,0-3.03-1.36-3.03-3.03V11.72c0-1.67,1.36-3.03,3.03-3.03h26.05
		c1.67,0,3.03,1.36,3.03,3.03v26.05C213.26,39.44,211.91,40.8,210.23,40.8z"/>
	<path class="st3" d="M247,40.8h-26.05c-1.67,0-3.03-1.36-3.03-3.03V11.72c0-1.67,1.36-3.03,3.03-3.03H247
		c1.67,0,3.03,1.36,3.03,3.03v26.05C250.03,39.44,248.68,40.8,247,40.8z"/>
	<path class="st4" d="M283.77,40.8h-26.05c-1.67,0-3.03-1.36-3.03-3.03V11.72c0-1.67,1.36-3.03,3.03-3.03h26.05
		c1.67,0,3.03,1.36,3.03,3.03v26.05C286.8,39.44,285.45,40.8,283.77,40.8z"/>
	<path class="st5" d="M320.54,40.8h-26.05c-1.67,0-3.03-1.36-3.03-3.03V11.72c0-1.67,1.36-3.03,3.03-3.03h26.05
		c1.67,0,3.03,1.36,3.03,3.03v26.05C323.57,39.44,322.22,40.8,320.54,40.8z"/>
	<path class="st4" d="M213.26,87.54v26.05c0,1.67-1.36,3.03-3.03,3.03h-26.05c-1.67,0-3.03-1.36-3.03-3.03V87.54
		c0-1.67,1.36-3.03,3.03-3.03h26.05C211.91,84.51,213.26,85.87,213.26,87.54z"/>
	<path class="st3" d="M213.26,49.63v26.05c0,1.67-1.36,3.03-3.03,3.03h-26.05c-1.67,0-3.03-1.36-3.03-3.03V49.63
		c0-1.67,1.36-3.03,3.03-3.03h26.05C211.91,46.6,213.26,47.96,213.26,49.63z"/>
	<path class="st5" d="M250.03,87.54v26.05c0,1.67-1.36,3.03-3.03,3.03h-26.05c-1.67,0-3.03-1.36-3.03-3.03V87.54
		c0-1.67,1.36-3.03,3.03-3.03H247C248.68,84.51,250.03,85.87,250.03,87.54z"/>
	<path class="st4" d="M250.03,49.63v26.05c0,1.67-1.36,3.03-3.03,3.03h-26.05c-1.67,0-3.03-1.36-3.03-3.03V49.63
		c0-1.67,1.36-3.03,3.03-3.03H247C248.68,46.6,250.03,47.96,250.03,49.63z"/>
	<path class="st5" d="M286.8,49.63v26.05c0,1.67-1.36,3.03-3.03,3.03h-26.05c-1.67,0-3.03-1.36-3.03-3.03V49.63
		c0-1.67,1.36-3.03,3.03-3.03h26.05C285.45,46.6,286.8,47.96,286.8,49.63z"/>
</g>
<g id="Layer_3">
	<path class="st6" d="M188.81,19.68h16.58c0,0,4.04-0.18,4.04,4.3s-4.21,4.47-4.21,4.47s4.21,0.18,4.21,4.47s-4.39,4.3-4.39,4.3
		h-16.23c-0.97,0-1.75-0.79-1.75-1.75V21.44C187.06,20.47,187.84,19.68,188.81,19.68z"/>
	<path class="st6" d="M227.42,19.68v14.04c0,1.94,1.57,3.51,3.51,3.51h19.11"/>
	<path class="st6" d="M261.81,19.68v11.46c0,4.02,3.26,6.08,7.28,6.08h6.55c4.02,0,7.28-2.06,7.28-6.08V19.68"/>
	<path class="st6" d="M320.24,37.23h-21.93c-0.87,0-1.58-0.71-1.58-1.58V21.26c0-0.87,0.71-1.58,1.58-1.58h21.93"/>
	<line class="st6" x1="320.24" y1="28.46" x2="296.73" y2="28.46"/>
	<line class="st6" x1="187.06" y1="28.46" x2="205.22" y2="28.46"/>
	<polyline class="st6" points="187.06,75.31 187.06,59.87 196.89,74.43 206.71,59.87 206.71,75.31 	"/>
	<path class="st6" d="M224.78,69.69c0,0,2.63,5.61,10.18,5.61c6.84,0,10.18-1.93,10.18-4.21s-5.44-4.21-10.18-4.21
		s-10.18-0.35-10.18-3.33c0-2.98,4.56-4.56,10.18-4.56s10.18,3.16,10.18,5.61"/>
	<line class="st6" x1="281.29" y1="59.37" x2="260.23" y2="75.31"/>
	<line class="st6" x1="260.23" y1="59.37" x2="281.29" y2="75.31"/>
	<g>
		<rect x="182.68" y="149.98" class="st7" width="237.23" height="20.96"/>
		<text transform="matrix(1 0 0 1 182.6812 163.5088)" class="st8 st9 st10">experience msx differently</text>
	</g>
	<path class="st11" d="M98.34,31.38V8.69H61.37v98.73h96.76c9.68,0,17.53-7.9,17.53-17.63V49.02c0-9.74-7.85-17.63-17.53-17.63
		H98.34z M135.11,80.75H98.34V58.05h36.77c1.97,0,3.58,1.61,3.58,3.6v15.5C138.68,79.14,137.08,80.75,135.11,80.75z"/>
</g>
</svg>
