<svg xmlns="http://www.w3.org/2000/svg" viewBox="0 0 267.47 133.18" style="enable-background:new 0 0 267.47 133.18" xml:space="preserve">
  <path d="M224.39 41.78v-6.61l-8.51-7.3 8.51-7.38v-6.93c0-2.11 3.78-3.33 3.78-3.33h-30.13l-8.05 4.84v5.43h17.94l-10.19 7.38 10.19 7.3h-19.02v10.7h39.27c-.01-.01-3.79-1.51-3.79-4.1z" style="fill:#595991;stroke:#efcb2d;stroke-width:4;stroke-linecap:round;stroke-linejoin:round;stroke-miterlimit:10"/>
  <linearGradient id="a" gradientUnits="userSpaceOnUse" x1="118.15" y1="-80.82" x2="118.15" y2="5.77" gradientTransform="matrix(1 0 0 -1 0 16)">
    <stop offset=".17" style="stop-color:#da7527"/>
    <stop offset=".68" style="stop-color:#595990"/>
  </linearGradient>
  <path d="m102.4 10.23-4.92 4.94v64.81s20.24 16.84 20.26 16.84l21.09-16.84V15.17l-6.24-4.94H102.4zm10.61 66.31-.22-50.47v-.08l10.31.08.08 42.37-10.17 8.1z" style="fill:url(#a);stroke:#efcb2d;stroke-width:4;stroke-linecap:round;stroke-linejoin:round;stroke-miterlimit:10"/>
  <linearGradient id="b" gradientUnits="userSpaceOnUse" x1="76.63" y1="-80.82" x2="76.63" y2="5.77" gradientTransform="matrix(1 0 0 -1 0 16)">
    <stop offset=".17" style="stop-color:#da7527"/>
    <stop offset=".68" style="stop-color:#595990"/>
  </linearGradient>
  <path d="m62.15 10.23-6.36 4.94v64.81l21.27 16.84 20.42-16.84V15.17l-5.07-4.94H62.15zm19.87 66.31-10.34-8.1V26.07h10.38l-.04 50.47z" style="fill:url(#b);stroke:#efcb2d;stroke-width:4;stroke-linecap:round;stroke-linejoin:round;stroke-miterlimit:10"/>
  <linearGradient id="c" gradientUnits="userSpaceOnUse" x1="163.43" y1="-107.76" x2="163.43" y2="5.8" gradientTransform="matrix(1 0 0 -1 0 16)">
    <stop offset=".17" style="stop-color:#da7527"/>
    <stop offset=".68" style="stop-color:#595990"/>
  </linearGradient>
  <path d="m186.11 15.17 4.36-4.94h-22.14s-5.73 19.56-5.78 19.56c-.06 0-5.38-19.52-5.38-19.56 0-.04-20.77-.04-20.78 0 0 .05 2.44 4.94 2.44 4.94v64.81l-2.38 2.29 15.37 13s.13-41.37.19-41.24c.12.29 9.73 43.39 9.73 43.39s9.12-37.91 9.18-37.97c.05-.06.1 10.46.1 23.38v23.47l-2.07 2.03s19.68 15.46 19.71 15.43c.04-.04-2.29-6.67-2.29-6.67s-.27-6.88-.25-52.31l-.01-49.61h0z" style="fill:url(#c);stroke:#efcb2d;stroke-width:4;stroke-linecap:round;stroke-linejoin:round;stroke-miterlimit:10"/>
  <linearGradient id="d" gradientUnits="userSpaceOnUse" x1="35.71" y1="-103.05" x2="35.71" y2="5.75" gradientTransform="matrix(1 0 0 -1 0 16)">
    <stop offset=".17" style="stop-color:#da7527"/>
    <stop offset=".68" style="stop-color:#595990"/>
  </linearGradient>
  <path d="m55.78 56.16-14.91-7.77 14.91-8.33V15.19l-7.23-4.94H13.08l2.45 2.65v102.59s-1.71 3.86-1.25 3.54c.36-.25 44.05-34.6 44.06-34.59l-2.55-2.19V56.16zM40.61 68.42c-.12.16-9.68 8.1-9.74 8.1-.03 0-.05-9.02-.06-19.43l9.89 5.14c-.02 3.69-.05 6.14-.09 6.19zm0-35.31-9.83 6.55-.01-13.59v-.08l9.97.07v7.11l-.13-.06z" style="fill:url(#d);stroke:#efcb2d;stroke-width:4;stroke-linecap:round;stroke-linejoin:round;stroke-miterlimit:10"/>
  <g>
    <linearGradient id="e" gradientUnits="userSpaceOnUse" x1="189.04" y1="71.89" x2="228.94" y2="71.89">
      <stop offset=".17" style="stop-color:#da7527"/>
      <stop offset=".68" style="stop-color:#595990"/>
    </linearGradient>
    <path d="M198.14 89.81c-.37-.42-.86-.96-1.47-1.59l-4.28-4.23-1.65-1.46-.15-.13-1.43-2 3.76-2.32.97.99.17.19.05.04c.11-.08.25-.21.44-.39l7.15-7.11-7.15-7.11a3.83 3.83 0 0 0-.44-.39l-.08.05-.9 1.32-1.39-.88-2.7-1.67 1.61-1.92.11-.09 1.66-1.47 4.28-4.33 1.52-1.61 1.68-2.02 2.72 4.09-.97 1c-.09.1-.2.18-.31.26l-.01.02c.08.11.21.26.41.45l7.16 7.12 7.12-7.12c.2-.2.33-.35.4-.46l-.04-.05-.23-.21-.96-.97 2.49-4.02 1.83 1.83c.42.46.94 1.01 1.61 1.7l4.19 4.28c.39.33.97.84 1.71 1.53L228.9 63l-3.99 2.47-.96-.89-.2-.2-.13-.09c-.1.08-.25.21-.43.39l-7.11 7.11 7.11 7.07c.18.18.32.3.42.38l.18-.16 1.27-.84 3.88 2.23-1.97 1.98-.05.05-1.65 1.47-4.23 4.3-1.49 1.64-1.99 2-2.22-3.91.83-1.24.17-.22c-.08-.1-.2-.24-.38-.42l-7.07-7.14-7.15 7.12c-.19.19-.31.33-.39.44l.08.11 1.22 1.22-2.84 4.26-1.67-2.32z" style="fill:url(#e);stroke:#efcb2d;stroke-width:4;stroke-linecap:round;stroke-linejoin:round;stroke-miterlimit:10"/>
    <linearGradient id="f" gradientUnits="userSpaceOnUse" x1="232.53" y1="71.53" x2="256.65" y2="71.53">
      <stop offset=".17" style="stop-color:#da7527"/>
      <stop offset=".68" style="stop-color:#595990"/>
    </linearGradient>
    <path d="m232.53 87.36.96-4.6h1.65l.15-.02c.01-.13.03-.31.03-.55V60.92c0-.24-.01-.42-.03-.55l-.15-.02h-1.66l-.93-4.65h13.79c2.82 0 5.27 1.01 7.27 2.99a9.88 9.88 0 0 1 3.03 7.26 9.97 9.97 0 0 1-3.02 7.28c-2 2-4.45 3.02-7.28 3.02h-.86v5.94c0 .25.01.42.03.55l.15.02h1.65l.96 4.6h-15.74zm12.96-19.56c.42-.05.76-.23 1.08-.56.41-.42.59-.86.59-1.43s-.18-1.01-.59-1.43a1.75 1.75 0 0 0-1.09-.56v3.98z" style="fill:url(#f);stroke:#efcb2d;stroke-width:4;stroke-linecap:round;stroke-linejoin:round;stroke-miterlimit:10"/>
  </g>
</svg>
