<?xml version="1.0" encoding="utf-8"?>
<!-- Generator: Adobe Illustrator 24.2.1, SVG Export Plug-In . SVG Version: 6.00 Build 0)  -->
<svg version="1.1" id="Layer_1" xmlns="http://www.w3.org/2000/svg" xmlns:xlink="http://www.w3.org/1999/xlink" x="0px" y="0px"
	 viewBox="0 0 256 133.18" style="enable-background:new 0 0 256 133.18;" xml:space="preserve">
<style type="text/css">
	.st0{fill:#595991;stroke:#EFCB2D;stroke-width:4;stroke-linecap:round;stroke-linejoin:round;stroke-miterlimit:10;}
	.st1{fill:url(#SVGID_1_);stroke:#EFCB2D;stroke-width:4;stroke-linecap:round;stroke-linejoin:round;stroke-miterlimit:10;}
	.st2{fill:url(#SVGID_2_);stroke:#EFCB2D;stroke-width:4;stroke-linecap:round;stroke-linejoin:round;stroke-miterlimit:10;}
	.st3{fill:url(#SVGID_3_);stroke:#EFCB2D;stroke-width:4;stroke-linecap:round;stroke-linejoin:round;stroke-miterlimit:10;}
	.st4{fill:url(#SVGID_4_);stroke:#EFCB2D;stroke-width:4;stroke-linecap:round;stroke-linejoin:round;stroke-miterlimit:10;}
</style>
<g>
	<path class="st0" d="M238.39,41.78c0-2.58,0-6.61,0-6.61l-8.51-7.3l8.51-7.38c0,0,0-4.82,0-6.93s3.78-3.33,3.78-3.33h-30.13
		l-8.05,4.84v5.43h17.94l-10.19,7.38l10.19,7.3h-19.02v10.7h39.27C242.17,45.87,238.39,44.37,238.39,41.78z"/>
	<g>
		
			<linearGradient id="SVGID_1_" gradientUnits="userSpaceOnUse" x1="127.63" y1="216.82" x2="127.63" y2="130.23" gradientTransform="matrix(1 0 0 1 0 -120)">
			<stop  offset="0.1704" style="stop-color:#DA7527"/>
			<stop  offset="0.676" style="stop-color:#595990"/>
		</linearGradient>
		<path class="st1" d="M111.81,10.23l-4.92,4.94v64.81c0,0,20.24,16.84,20.26,16.84l20.98-16.84l0.24-64.81L142,10.23H111.81z
			 M122.42,76.54l-0.22-50.47v-0.08l10.31,0.08l0.08,42.37L122.42,76.54z"/>
		
			<linearGradient id="SVGID_2_" gradientUnits="userSpaceOnUse" x1="81.39" y1="216.82" x2="81.39" y2="130.23" gradientTransform="matrix(1 0 0 1 0 -120)">
			<stop  offset="0.1704" style="stop-color:#DA7527"/>
			<stop  offset="0.676" style="stop-color:#595990"/>
		</linearGradient>
		<path class="st2" d="M66.84,10.23l-6.23,4.94v64.81l21.14,16.84l20.42-16.84V15.17l-5.07-4.94H66.84z M86.71,76.54l-10.34-8.1
			V26.07h10.38L86.71,76.54z"/>
		
			<linearGradient id="SVGID_3_" gradientUnits="userSpaceOnUse" x1="177.43" y1="243.76" x2="177.43" y2="130.2" gradientTransform="matrix(1 0 0 1 0 -120)">
			<stop  offset="0.1704" style="stop-color:#DA7527"/>
			<stop  offset="0.676" style="stop-color:#595990"/>
		</linearGradient>
		<path class="st3" d="M200.11,15.17l4.36-4.94h-22.14c0,0-5.73,19.56-5.78,19.56c-0.06,0-5.38-19.52-5.38-19.56
			c0-0.04-20.77-0.04-20.78,0c0,0.05,2.43,4.94,2.43,4.94v64.81l-2.37,2.29l15.37,13c0,0,0.13-41.37,0.19-41.24
			c0.12,0.29,9.73,43.39,9.73,43.39s9.12-37.91,9.18-37.97c0.05-0.06,0.1,10.46,0.1,23.38v23.47l-2.07,2.03
			c0,0,19.68,15.46,19.71,15.43c0.04-0.04-2.29-6.67-2.29-6.67s-0.27-6.88-0.25-52.31L200.11,15.17L200.11,15.17z"/>
		
			<linearGradient id="SVGID_4_" gradientUnits="userSpaceOnUse" x1="36.34" y1="239.0488" x2="36.34" y2="130.25" gradientTransform="matrix(1 0 0 1 0 -120)">
			<stop  offset="0.1704" style="stop-color:#DA7527"/>
			<stop  offset="0.676" style="stop-color:#595990"/>
		</linearGradient>
		<path class="st4" d="M56.35,56.16l-14.84-7.77l14.84-8.33l-0.09-24.87l-7.07-4.94H13.71l2.45,2.65v102.59c0,0-1.71,3.86-1.25,3.54
			c0.36-0.25,44.05-34.6,44.06-34.59l-2.53-2.19L56.35,56.16z M41.24,68.42c-0.12,0.16-9.68,8.1-9.74,8.1
			c-0.03,0-0.05-9.02-0.06-19.43l9.89,5.14C41.31,65.92,41.28,68.37,41.24,68.42z M41.24,33.11l-9.83,6.55
			c-0.01-7.73-0.01-13.59-0.01-13.59v-0.08l9.97,0.07c0,0,0,2.88,0,7.11L41.24,33.11z"/>
	</g>
</g>
</svg>
