<?xml version="1.0" encoding="UTF-8" standalone="no"?>
<!-- Created with Inkscape (http://www.inkscape.org/) -->
<svg xmlns:svg="http://www.w3.org/2000/svg" xmlns="http://www.w3.org/2000/svg" version="1.1" width="256" height="256" id="svg2">
  <defs id="defs4"/>
  <g transform="translate(0,-796.36218)" id="layer1">
    <path d="m 108.33886,147.09293 a 53.853756,26.958447 0 1 1 -107.70751234,0 53.853756,26.958447 0 1 1 107.70751234,0 z" transform="matrix(1.0027156,0,0,1.0015414,0.03293786,796.04252)" id="path2842" style="fill:#00cd00;fill-opacity:1;stroke:none"/>
    <path d="m 201.33929,189.79465 a 53.660713,26.651785 0 1 1 -107.32143,0 53.660713,26.651785 0 1 1 107.32143,0 z" transform="matrix(1.0063228,0,0,1.0130654,-0.94631654,793.75479)" id="path3624" style="fill:#ffff00;fill-opacity:1;stroke:none"/>
    <path d="m 110.65036,834.69618 c -27.217237,0 -49.340021,21.75464 -49.98436,48.8423 1.131552,-0.0766 2.256362,-0.12515 3.407315,-0.12515 27.622869,0 50.015615,22.41377 50.015615,50.06257 0,0.41096 -0.0214,0.8117 -0.0313,1.22028 26.04047,-1.74614 46.60832,-23.43005 46.60832,-49.93742 0,-27.6488 -22.39276,-50.06258 -50.01563,-50.06258 z" id="path3644" style="fill:#16a1ff;fill-opacity:1;stroke:none"/>
    <path d="m 205.333,878.54968 c -27.61424,0 -50,22.39976 -50,50.03127 0,0.61369 0.009,1.23655 0.0312,1.8449 0.66716,-0.0264 1.32637,-0.0625 2,-0.0625 26.99345,0 48.99336,21.41446 49.96875,48.18637 26.69305,-1.04394 48,-23.00316 48,-49.96873 0,-27.63151 -22.38576,-50.03127 -50,-50.03127 z" id="path3897" style="fill:#ff3f3f;fill-opacity:1;stroke:none"/>
  </g>
</svg>