<?xml version="1.0" encoding="utf-8"?>
<!-- Generator: Adobe Illustrator 25.0.1, SVG Export Plug-In . SVG Version: 6.00 Build 0)  -->
<svg version="1.1" xmlns="http://www.w3.org/2000/svg" xmlns:xlink="http://www.w3.org/1999/xlink" x="0px" y="0px"
	 viewBox="0 0 580 140" style="enable-background:new 0 0 580 140;" xml:space="preserve">
<style type="text/css">
	.st0{fill:url(#SVGID_1_);}
	.st1{fill:url(#SVGID_2_);}
	.st2{fill:url(#SVGID_3_);}
	.st3{fill:url(#SVGID_4_);}
	.st4{fill:url(#SVGID_5_);}
	.st5{fill:url(#SVGID_6_);}
	.st6{fill:url(#SVGID_7_);}
	.st7{fill:url(#SVGID_8_);}
	.st8{fill:url(#SVGID_9_);}
	.st9{fill:url(#SVGID_10_);}
</style>
<g id="Outlines">
	<path d="M562.29,40.65c-3.53,0-6.53,0.71-11.65,3.35c-5.12,2.65-7.94,7.76-7.94,7.76s-1.59,0.53-2.12-0.35
		c-0.53-0.88,0.53-3.35,0.53-5.29c0-3.88-1.59-6.35-6.18-6.35c-4.59,0-10.24,1.59-16.59,6.53c-5.15,4-9.48,15.19-10.94,19.29
		c-0.25,0.66-1.05,2.53-2.12,2.53c-1.29,0-1.18-0.94-2.35-3.65c-1.18-2.71-7.29-11.82-16.94-11.82s-21.18,7.71-25.76,11.24
		c-4.59,3.53-12.71,13.29-13.65,14.94c-0.94,1.65-0.9,1.04-2.57,1.52c0,0,0,0,0,0c-2.63-3.99-5.41-6.63-8.84-8.81
		c-3.88-2.47-4.59-0.59-4.47-2.59c0.12-2,7.29,0.12,20.35-11.53c13.06-11.65,16.59-19.41,16.59-25.53c0-6.12-8.35-19.88-26.71-19.88
		c-18.35,0-37.65,6.94-40.59,8.12c-2.94,1.18-15.41,6.47-15.41,12.71c0,5.53,7.29,0.12,8.82,2.47c1.06,1.64-0.59,3.53-1.41,5.53
		c-0.82,2-9.88,22.24-9.88,22.24s-0.32,1.06-2.57,1.18h0c0.03-1.92-0.43-2.31-2.25-5.53c-2-3.53-4-6.06-10.82-6.06
		c-6.82,0-11.88,3.59-12.59,3.59s-0.82-0.82-3.18-1.76c-2.35-0.94-6-0.82-10.12,0c-4.12,0.82-6,0.82-9.65,4.59
		c-3.65,3.76-5.52,10.03-5.52,10.03l-2.14-1.42l0,0c-0.46-2.45-1.33-5.75-2.92-8.5c-2.94-5.06-11.18-6-18.24-6
		s-16.12,2.71-23.76,8.35C271.06,67.18,264.24,76,264.24,76s-0.01,0.02-0.01,0.03h-1.91c1.08-4.33,1.92-8.76,1.92-12.35
		c0-8.74-6.88-11.03-12.35-11.03c-5.47,0-10.24,3.53-11.65,3.53s-1.59-3.53-5.29-3.53s-11.65,2.12-13.94,4.06s-3.53,5.12-3.53,5.12
		l-6.38,12.25c0,0-1.04,1.43-2.24-0.96c0,0,0,0,0,0c0.32-1.94,0.5-3.79,0.5-5.46c0-12.35-9-13.94-14.29-13.94s-9.53,2.47-11.29,2.47
		s-4.06-2.47-6.88-2.47c-2.82,0-8.29,1.06-10.94,2.12c-2.65,1.06-4.59,3-5.82,5.47c-1.24,2.47-2.21,5.47-3,6.35
		c-0.79,0.88-2.01-0.2-2.01-0.2c-0.25-1.97-0.97-4.75-2.93-7.74c-3.71-5.65-11.82-7.06-16.24-7.06c-4.41,0-7.24,0.18-15,3.53
		c-7.76,3.35-14.54,11.06-17.77,15.18c-0.78,1-1.41,1.83-1.95,2.54c0,0,0,0,0,0s-0.01,0.01-0.01,0.01
		c-0.94,1.27-1.55,2.18-1.97,2.91c-1.35,1.88-3.03,3.97-3.83,4.01c-0.38,0.02-1,0.02-1.71,0.02c-0.39-2.76-2.47-5.35-5.93-5.35
		c-4,0-11.65,0-16.06,0c-4.41,0-8.47,6.09-8.47,6.09s-5.29,7.59-6.35,9.18c-1.06,1.59-4.59,4.76-8.47,4.76
		c-3.88,0-5.47-5.82-5.47-8.65c0-2.82,0.88-5.29,1.59-8.29s7.41-18.18,10.94-23.47C59,49.82,66.41,42.06,71,42.06
		s5.65,6.88,5.65,6.88s1.06,0.53,3.18,0c2.12-0.53,18.71-6.18,19.94-6.88s2.71-1.69,3.35-3.71c0.53-1.66-2.82-8.12-5.29-12.18
		c-2.47-4.06-3.18-14.65-19.41-14.65S45.24,27.24,37.65,36.76c-7.59,9.53-25.06,33.53-25.06,58.94c0,29.29,19.94,33.35,27.35,33.35
		c7.41,0,17.65-4.76,25.41-10.41c7.76-5.65,18.88-18.35,22.06-23.12c2.4-3.59,4.69-7.57,5.74-10.68c0.5-0.07,1.73-0.13,2.48,0.85
		c-1.18,3.25-2.93,8.74-2.93,12.83c0,11.29,9.35,12.71,14.12,12.71s11.29-3.18,13.06-3.18c1.76,0,1.24,2.29,4.41,4.59
		c3.18,2.29,8.65-2.29,11.47-4.41c2.82-2.12,3-4.59,3-9.18c0-4.59,7.76-12.53,9.35-13.94c0.18-0.16,0.41-0.48,0.67-0.91l0.09-0.01
		c0.98-0.12,1.73,0.86,1.36,1.77c-1.83,4.49-6,15.07-6,18.38c0,4.24,6.12,8.12,7.94,8.12s11.29-5.12,13.76-7.41
		s4.76-10.94,7.24-16.76S181.65,77,183.24,77s2.12,1.76,1.59,3.35c-0.53,1.59-8.29,14.29-8.29,21c0,6.71,6.88,10.41,9.71,10.41
		s13.35-9.09,13.47-9.29c2.29,6.18,6.85,9.16,8.28,9.16s14.25-6.93,15.84-9.22c1.59-2.29,1.24-3.71,1.76-6
		c0.53-2.29,3.71-8.65,5.47-11.82c1.76-3.18,6.88-9.09,9.53-9.09c2.65,0-1.06,7.68-3.88,13.15c-2.82,5.47-3.35,10.94-3.35,14.65
		s6.88,7.94,9.35,7.94s10.41-6.71,11.82-8.82c1.41-2.12,1.94-6.35,3.35-11.29c0.31-1.07,0.78-2.57,1.33-4.32h2.93
		c-0.36,3.02-0.61,6.59-0.61,10.62c0,13.06,9.65,15.06,13.29,15.06c3.65,0,14.59-4,20.94-7.65c6.35-3.65,20.47-16.12,20.47-16.12
		c1.52-1.33,2.82,0.12,2.82,0.12s-4.59,10.94-4.59,14.24s5.88,9.41,7.65,9.41c1.76,0,13.41-6.94,15.06-8.71
		c1.65-1.76,1.88-3.53,1.88-6.35c0-2.82,8.82-14.71,10.24-16.35c1.41-1.65,3.76-5.06,5.06-4.47c1.29,0.59,0.35,2.71,0.35,2.71
		s-5.41,11.88-6.59,15.65c-1.18,3.76-0.59,8.24-0.59,10s4.94,6.12,7.29,6.12c1.35,0,4.19-1.4,6.35-2.59
		c0.42,0.23,0.75,0.53,0.83,0.95c0.24,1.29-0.94,2.94-2,4.24c-1.06,1.29-2.24,1.41-2.24,5.29c0,3.88-2,8.47,19.29,8.47
		c15.05,0,40-2.71,49.65-7.18c9.65-4.47,17.88-10.35,18.35-15.18c0,0,1.41-1.06,2.24,0s-1.18,2,1.06,3.65
		c2.24,1.65,4.12,2.82,8.24,2.82c4.12,0,11.76-3.29,14-3.29s2.94,4.82,7.06,4.82c4.12,0,9.41-4.24,10.71-6.47
		c1.29-2.24,1.94-5.06,3.18-5.06c0.39,0,0.84,0.22,1.28,0.52c0.39,3.5,3.47,9.37,5.78,9.37c2.47,0,10.94-5.47,13.06-6.88
		c2.12-1.41,2.82-3,2.82-3s3.53-9.53,6-8.47s0,5.47,0,11.29c0,5.82,1.41,8.12,4.59,8.12c3.18,0,13.06-4.59,16.24-6.53
		s3.71-4.41,3.71-4.41s5.82-14.82,10.59-26.03s11.47-23.74,11.47-27.26S565.82,40.65,562.29,40.65z M126,78.47
		c-2,2.47-6.47,7.76-7.29,7.29s0.94-3.88,2.82-6.24c1.88-2.35,4.82-6.47,6.94-7.29C129.68,71.77,128,76,126,78.47z M286.12,89.41
		c-1.59,0-2-0.82-2-2.24c0-1.88,7.76-15.76,13.88-15.76c2,0,2.59,1.18,2.59,2.59C300.59,77.47,288.12,89.41,286.12,89.41z
		 M400.21,104.58c-2.47,0-3.15-0.64-3.15-3.05c0-3.06,3.29-20.47,9.18-20.47c3.41,0,14.82,7.29,14.82,12.35
		C421.06,98.47,406.56,104.58,400.21,104.58z M408.87,61.12c-1.81-1.12-0.52-4.3,1.13-7.6s5.76-13.41,7.18-15.65
		c1.41-2.24,5.18-6.82,13.29-6.82c6,0,8.59,2.47,8.59,6.71s-3.53,9.76-11.18,14.59C420.24,57.18,411.29,62.62,408.87,61.12z
		 M475.12,79.47c-3.09,3.79-5.56,7.06-6.62,6.35s1.24-3.79,3.79-7.32s5.56-6.62,6.53-5.91C479.79,73.29,478.21,75.68,475.12,79.47z"
		/>
</g>
<g id="Letters">
	<linearGradient id="SVGID_1_" gradientUnits="userSpaceOnUse" x1="57.9412" y1="121.8824" x2="57.9412" y2="20.2658">
		<stop  offset="0.2764" style="stop-color:#FFFC00"/>
		<stop  offset="0.304" style="stop-color:#FFBD34"/>
		<stop  offset="0.3485" style="stop-color:#FF0000"/>
		<stop  offset="0.3953" style="stop-color:#FF0000"/>
		<stop  offset="0.403" style="stop-color:#FF0000"/>
		<stop  offset="0.4212" style="stop-color:#FF0202"/>
		<stop  offset="0.4278" style="stop-color:#FF0909"/>
		<stop  offset="0.4324" style="stop-color:#FF1414"/>
		<stop  offset="0.4362" style="stop-color:#FF2525"/>
		<stop  offset="0.4395" style="stop-color:#FF3B3B"/>
		<stop  offset="0.4423" style="stop-color:#FF5757"/>
		<stop  offset="0.4449" style="stop-color:#FF7777"/>
		<stop  offset="0.4473" style="stop-color:#FF9D9D"/>
		<stop  offset="0.4495" style="stop-color:#FFC8C8"/>
		<stop  offset="0.4515" style="stop-color:#FFF6F6"/>
		<stop  offset="0.4519" style="stop-color:#FFFFFF"/>
		<stop  offset="0.5574" style="stop-color:#FFFFFF"/>
		<stop  offset="0.5891" style="stop-color:#B2D7E4"/>
		<stop  offset="0.6096" style="stop-color:#009BCF"/>
	</linearGradient>
	<path class="st0" d="M77.88,14.71c5.47,0,12.53,2.65,16.06,9.71s5.82,10.94,5.82,13.76c0,2.82-5.65,4.41-9,5.47
		c-3.35,1.06-11.82,3.88-12,2.12c-0.18-1.76-1.06-10.24-7.94-10.24c-6.88,0-16.41,10.06-20.65,16.06S36.76,74.88,36.76,85.65
		s3.35,13.94,7.59,13.94s12.18-3.88,16.76-10.24c4.59-6.35,6.18-10.94,13.24-10.94s12.53-1.59,12.53,1.94s-3.71,3-5.29,5.29
		c-1.59,2.29-20.12,35.12-44.82,35.12c-14.29,0-20.65-10.41-20.65-23.47c0-6.18,1.24-22.76,13.94-45S64.47,14.71,77.88,14.71z"/>
	<linearGradient id="SVGID_2_" gradientUnits="userSpaceOnUse" x1="175.5408" y1="121.8824" x2="175.5408" y2="20.2658">
		<stop  offset="0.2764" style="stop-color:#FFFC00"/>
		<stop  offset="0.304" style="stop-color:#FFBD34"/>
		<stop  offset="0.3485" style="stop-color:#FF0000"/>
		<stop  offset="0.3953" style="stop-color:#FF0000"/>
		<stop  offset="0.403" style="stop-color:#FF0000"/>
		<stop  offset="0.4212" style="stop-color:#FF0202"/>
		<stop  offset="0.4278" style="stop-color:#FF0909"/>
		<stop  offset="0.4324" style="stop-color:#FF1414"/>
		<stop  offset="0.4362" style="stop-color:#FF2525"/>
		<stop  offset="0.4395" style="stop-color:#FF3B3B"/>
		<stop  offset="0.4423" style="stop-color:#FF5757"/>
		<stop  offset="0.4449" style="stop-color:#FF7777"/>
		<stop  offset="0.4473" style="stop-color:#FF9D9D"/>
		<stop  offset="0.4495" style="stop-color:#FFC8C8"/>
		<stop  offset="0.4515" style="stop-color:#FFF6F6"/>
		<stop  offset="0.4519" style="stop-color:#FFFFFF"/>
		<stop  offset="0.5574" style="stop-color:#FFFFFF"/>
		<stop  offset="0.5891" style="stop-color:#B2D7E4"/>
		<stop  offset="0.6096" style="stop-color:#009BCF"/>
	</linearGradient>
	<path class="st1" d="M166.47,59.53c2.58-3.06,7.24-3.18,9.18-3.18s3.53,0.35,3.18,1.59c-0.35,1.24-2.65,7.06-2.65,7.06
		s8.82-8.65,18-8.65s10.06,7.41,10.06,10.41c0,4.41-4.24,10.76-6.18,16.76s-2.62,13.09-5.62,15.56c-3,2.47-8.85,6.49-11.14,5.26
		c-2.29-1.24-3.16-3.77-1.06-8.65c4.71-10.94,11.38-24.16,11.29-25.41c-0.18-2.56-1.59-3.88-3.53-3.88s-8.82,2.47-12.71,7.59
		s-6.88,10.41-8.82,14.47c-1.94,4.06-1.94,7.76-4.76,9.53s-10.06,5.82-12,5.82c-2.73,0-3.53-2.65-2.29-5.65
		C148.65,95.18,161.71,65.18,166.47,59.53z"/>
	<linearGradient id="SVGID_3_" gradientUnits="userSpaceOnUse" x1="231.8349" y1="121.8824" x2="231.8349" y2="20.2658">
		<stop  offset="0.2764" style="stop-color:#FFFC00"/>
		<stop  offset="0.304" style="stop-color:#FFBD34"/>
		<stop  offset="0.3485" style="stop-color:#FF0000"/>
		<stop  offset="0.3953" style="stop-color:#FF0000"/>
		<stop  offset="0.403" style="stop-color:#FF0000"/>
		<stop  offset="0.4212" style="stop-color:#FF0202"/>
		<stop  offset="0.4278" style="stop-color:#FF0909"/>
		<stop  offset="0.4324" style="stop-color:#FF1414"/>
		<stop  offset="0.4362" style="stop-color:#FF2525"/>
		<stop  offset="0.4395" style="stop-color:#FF3B3B"/>
		<stop  offset="0.4423" style="stop-color:#FF5757"/>
		<stop  offset="0.4449" style="stop-color:#FF7777"/>
		<stop  offset="0.4473" style="stop-color:#FF9D9D"/>
		<stop  offset="0.4495" style="stop-color:#FFC8C8"/>
		<stop  offset="0.4515" style="stop-color:#FFF6F6"/>
		<stop  offset="0.4519" style="stop-color:#FFFFFF"/>
		<stop  offset="0.5574" style="stop-color:#FFFFFF"/>
		<stop  offset="0.5891" style="stop-color:#B2D7E4"/>
		<stop  offset="0.6096" style="stop-color:#009BCF"/>
	</linearGradient>
	<path class="st2" d="M222.76,59.53c2.58-3.06,7.24-3.18,9.18-3.18s3.53,0.35,3.18,1.59S232.47,65,232.47,65s8.82-8.65,18-8.65
		c9.18,0,10.06,7.41,10.06,10.41c0,4.41-4.24,10.76-6.18,16.76c-1.94,6-2.62,13.09-5.62,15.56c-3,2.47-8.85,6.49-11.14,5.26
		c-2.29-1.24-3.16-3.77-1.06-8.65c4.71-10.94,11.38-24.16,11.29-25.41c-0.18-2.56-1.59-3.88-3.53-3.88s-8.82,2.47-12.71,7.59
		c-3.88,5.12-6.88,10.41-8.82,14.47S220.82,96.24,218,98s-10.06,5.82-12,5.82c-2.73,0-3.53-2.65-2.29-5.65
		C204.94,95.18,218,65.18,222.76,59.53z"/>
	<linearGradient id="SVGID_4_" gradientUnits="userSpaceOnUse" x1="345.6945" y1="121.8824" x2="345.6945" y2="20.2658">
		<stop  offset="0.2764" style="stop-color:#FFFC00"/>
		<stop  offset="0.304" style="stop-color:#FFBD34"/>
		<stop  offset="0.3485" style="stop-color:#FF0000"/>
		<stop  offset="0.3953" style="stop-color:#FF0000"/>
		<stop  offset="0.403" style="stop-color:#FF0000"/>
		<stop  offset="0.4212" style="stop-color:#FF0202"/>
		<stop  offset="0.4278" style="stop-color:#FF0909"/>
		<stop  offset="0.4324" style="stop-color:#FF1414"/>
		<stop  offset="0.4362" style="stop-color:#FF2525"/>
		<stop  offset="0.4395" style="stop-color:#FF3B3B"/>
		<stop  offset="0.4423" style="stop-color:#FF5757"/>
		<stop  offset="0.4449" style="stop-color:#FF7777"/>
		<stop  offset="0.4473" style="stop-color:#FF9D9D"/>
		<stop  offset="0.4495" style="stop-color:#FFC8C8"/>
		<stop  offset="0.4515" style="stop-color:#FFF6F6"/>
		<stop  offset="0.4519" style="stop-color:#FFFFFF"/>
		<stop  offset="0.5574" style="stop-color:#FFFFFF"/>
		<stop  offset="0.5891" style="stop-color:#B2D7E4"/>
		<stop  offset="0.6096" style="stop-color:#009BCF"/>
	</linearGradient>
	<path class="st3" d="M336.62,59.53c2.58-3.06,7.24-3.18,9.18-3.18c1.94,0,3.53,0.35,3.18,1.59S346.33,65,346.33,65
		s8.82-8.65,18-8.65c9.18,0,10.06,7.41,10.06,10.41c0,4.41-4.24,10.76-6.18,16.76c-1.94,6-2.62,13.09-5.62,15.56
		c-3,2.47-8.85,6.49-11.14,5.26c-2.29-1.24-3.16-3.77-1.06-8.65c4.71-10.94,11.38-24.16,11.29-25.41c-0.18-2.56-1.59-3.88-3.53-3.88
		c-1.94,0-8.82,2.47-12.71,7.59s-6.88,10.41-8.82,14.47c-1.94,4.06-1.94,7.76-4.76,9.53s-10.06,5.82-12,5.82
		c-2.73,0-3.53-2.65-2.29-5.65S331.86,65.18,336.62,59.53z"/>
	<linearGradient id="SVGID_5_" gradientUnits="userSpaceOnUse" x1="515.0883" y1="121.8824" x2="515.0883" y2="20.2658">
		<stop  offset="0.2764" style="stop-color:#FFFC00"/>
		<stop  offset="0.304" style="stop-color:#FFBD34"/>
		<stop  offset="0.3485" style="stop-color:#FF0000"/>
		<stop  offset="0.3953" style="stop-color:#FF0000"/>
		<stop  offset="0.403" style="stop-color:#FF0000"/>
		<stop  offset="0.4212" style="stop-color:#FF0202"/>
		<stop  offset="0.4278" style="stop-color:#FF0909"/>
		<stop  offset="0.4324" style="stop-color:#FF1414"/>
		<stop  offset="0.4362" style="stop-color:#FF2525"/>
		<stop  offset="0.4395" style="stop-color:#FF3B3B"/>
		<stop  offset="0.4423" style="stop-color:#FF5757"/>
		<stop  offset="0.4449" style="stop-color:#FF7777"/>
		<stop  offset="0.4473" style="stop-color:#FF9D9D"/>
		<stop  offset="0.4495" style="stop-color:#FFC8C8"/>
		<stop  offset="0.4515" style="stop-color:#FFF6F6"/>
		<stop  offset="0.4519" style="stop-color:#FFFFFF"/>
		<stop  offset="0.5574" style="stop-color:#FFFFFF"/>
		<stop  offset="0.5891" style="stop-color:#B2D7E4"/>
		<stop  offset="0.6096" style="stop-color:#009BCF"/>
	</linearGradient>
	<path class="st4" d="M531.94,43.29c3.18,0,3.18,0.53,3.18,2.12c0,1.59-6.88,9.18-10.24,17.12c-3.35,7.94-10.24,24.97-11.65,28.85
		c-1.41,3.88-0.18,4.15-2.65,6.26c-2.47,2.12-11.38,7.32-13.32,7.32c-1.94,0-2.21-2.03-2.21-3.26c0-2.74,8.12-21.18,13.94-32.65
		c5.82-11.47,9.18-18.88,13.59-22.06C527,43.82,531.94,43.29,531.94,43.29z"/>
	<linearGradient id="SVGID_6_" gradientUnits="userSpaceOnUse" x1="543.7941" y1="121.8824" x2="543.7941" y2="20.2658">
		<stop  offset="0.2764" style="stop-color:#FFFC00"/>
		<stop  offset="0.304" style="stop-color:#FFBD34"/>
		<stop  offset="0.3485" style="stop-color:#FF0000"/>
		<stop  offset="0.3953" style="stop-color:#FF0000"/>
		<stop  offset="0.403" style="stop-color:#FF0000"/>
		<stop  offset="0.4212" style="stop-color:#FF0202"/>
		<stop  offset="0.4278" style="stop-color:#FF0909"/>
		<stop  offset="0.4324" style="stop-color:#FF1414"/>
		<stop  offset="0.4362" style="stop-color:#FF2525"/>
		<stop  offset="0.4395" style="stop-color:#FF3B3B"/>
		<stop  offset="0.4423" style="stop-color:#FF5757"/>
		<stop  offset="0.4449" style="stop-color:#FF7777"/>
		<stop  offset="0.4473" style="stop-color:#FF9D9D"/>
		<stop  offset="0.4495" style="stop-color:#FFC8C8"/>
		<stop  offset="0.4515" style="stop-color:#FFF6F6"/>
		<stop  offset="0.4519" style="stop-color:#FFFFFF"/>
		<stop  offset="0.5574" style="stop-color:#FFFFFF"/>
		<stop  offset="0.5891" style="stop-color:#B2D7E4"/>
		<stop  offset="0.6096" style="stop-color:#009BCF"/>
	</linearGradient>
	<path class="st5" d="M560.65,43.88c3.18,0,3.18,0.53,3.18,2.12s-6.88,9.18-10.24,17.12c-3.35,7.94-10.24,24.97-11.65,28.85
		c-1.41,3.88-0.18,4.15-2.65,6.26c-2.47,2.12-11.38,7.32-13.32,7.32s-2.21-2.03-2.21-3.26c0-2.74,8.12-21.18,13.94-32.65
		s9.18-18.88,13.59-22.06C555.71,44.41,560.65,43.88,560.65,43.88z"/>
	<linearGradient id="SVGID_7_" gradientUnits="userSpaceOnUse" x1="289.647" y1="121.8824" x2="289.647" y2="20.2658">
		<stop  offset="0.2764" style="stop-color:#FFFC00"/>
		<stop  offset="0.304" style="stop-color:#FFBD34"/>
		<stop  offset="0.3485" style="stop-color:#FF0000"/>
		<stop  offset="0.3953" style="stop-color:#FF0000"/>
		<stop  offset="0.403" style="stop-color:#FF0000"/>
		<stop  offset="0.4212" style="stop-color:#FF0202"/>
		<stop  offset="0.4278" style="stop-color:#FF0909"/>
		<stop  offset="0.4324" style="stop-color:#FF1414"/>
		<stop  offset="0.4362" style="stop-color:#FF2525"/>
		<stop  offset="0.4395" style="stop-color:#FF3B3B"/>
		<stop  offset="0.4423" style="stop-color:#FF5757"/>
		<stop  offset="0.4449" style="stop-color:#FF7777"/>
		<stop  offset="0.4473" style="stop-color:#FF9D9D"/>
		<stop  offset="0.4495" style="stop-color:#FFC8C8"/>
		<stop  offset="0.4515" style="stop-color:#FFF6F6"/>
		<stop  offset="0.4519" style="stop-color:#FFFFFF"/>
		<stop  offset="0.5574" style="stop-color:#FFFFFF"/>
		<stop  offset="0.5891" style="stop-color:#B2D7E4"/>
		<stop  offset="0.6096" style="stop-color:#009BCF"/>
	</linearGradient>
	<path class="st6" d="M302.71,56.35c-25.94,0-40.06,27.53-40.06,36.35c0,6,4.24,11.88,12.88,11.88c19.24,0,41.12-24.12,41.12-35.7
		C316.65,60.59,311.71,56.35,302.71,56.35z M296.18,85.65c-3.53,3.79-10.41,8.74-14.38,8.74s-5.12-1.24-5.12-4.85
		c0-3.62,1.68-10.15,8.38-16.68c6.71-6.53,11.56-6.88,14.21-6.88s4.41,1.85,4.41,4.94C303.68,74,299.71,81.85,296.18,85.65z"/>
	<linearGradient id="SVGID_8_" gradientUnits="userSpaceOnUse" x1="473" y1="121.8824" x2="473" y2="20.2658">
		<stop  offset="0.2764" style="stop-color:#FFFC00"/>
		<stop  offset="0.304" style="stop-color:#FFBD34"/>
		<stop  offset="0.3485" style="stop-color:#FF0000"/>
		<stop  offset="0.3953" style="stop-color:#FF0000"/>
		<stop  offset="0.403" style="stop-color:#FF0000"/>
		<stop  offset="0.4212" style="stop-color:#FF0202"/>
		<stop  offset="0.4278" style="stop-color:#FF0909"/>
		<stop  offset="0.4324" style="stop-color:#FF1414"/>
		<stop  offset="0.4362" style="stop-color:#FF2525"/>
		<stop  offset="0.4395" style="stop-color:#FF3B3B"/>
		<stop  offset="0.4423" style="stop-color:#FF5757"/>
		<stop  offset="0.4449" style="stop-color:#FF7777"/>
		<stop  offset="0.4473" style="stop-color:#FF9D9D"/>
		<stop  offset="0.4495" style="stop-color:#FFC8C8"/>
		<stop  offset="0.4515" style="stop-color:#FFF6F6"/>
		<stop  offset="0.4519" style="stop-color:#FFFFFF"/>
		<stop  offset="0.5574" style="stop-color:#FFFFFF"/>
		<stop  offset="0.5891" style="stop-color:#B2D7E4"/>
		<stop  offset="0.6096" style="stop-color:#009BCF"/>
	</linearGradient>
	<path class="st7" d="M486.15,55.38c-6.35,0-20.82,6.97-28.24,15.97c-7.41,9-11.82,19.41-11.82,24.71s3,9.18,9.35,9.18
		s15.35-4.94,15.35-4.94s1.41,5.82,3.53,5.82c2.12,0,6.53-1.94,8.29-3.18s1.76-1.76,1.76-5.29c0-3.53,1.76-10.06,6.53-15.35
		c2.88-3.2,9-10.41,9-15.53C499.91,60.85,492.85,55.38,486.15,55.38z M476.68,83.41c-5.41,6.47-10.66,10.04-12.9,10.04
		s-3.34-0.51-3.34-2.51s3.41-9.56,8.24-14.94s9.71-7.18,11.65-7.18c1.09,0,2.82-0.12,2.82,2.12S479.81,79.67,476.68,83.41z"/>
	<linearGradient id="SVGID_9_" gradientUnits="userSpaceOnUse" x1="122.7353" y1="121.8824" x2="122.7353" y2="20.2658">
		<stop  offset="0.2764" style="stop-color:#FFFC00"/>
		<stop  offset="0.304" style="stop-color:#FFBD34"/>
		<stop  offset="0.3485" style="stop-color:#FF0000"/>
		<stop  offset="0.3953" style="stop-color:#FF0000"/>
		<stop  offset="0.403" style="stop-color:#FF0000"/>
		<stop  offset="0.4212" style="stop-color:#FF0202"/>
		<stop  offset="0.4278" style="stop-color:#FF0909"/>
		<stop  offset="0.4324" style="stop-color:#FF1414"/>
		<stop  offset="0.4362" style="stop-color:#FF2525"/>
		<stop  offset="0.4395" style="stop-color:#FF3B3B"/>
		<stop  offset="0.4423" style="stop-color:#FF5757"/>
		<stop  offset="0.4449" style="stop-color:#FF7777"/>
		<stop  offset="0.4473" style="stop-color:#FF9D9D"/>
		<stop  offset="0.4495" style="stop-color:#FFC8C8"/>
		<stop  offset="0.4515" style="stop-color:#FFF6F6"/>
		<stop  offset="0.4519" style="stop-color:#FFFFFF"/>
		<stop  offset="0.5574" style="stop-color:#FFFFFF"/>
		<stop  offset="0.5891" style="stop-color:#B2D7E4"/>
		<stop  offset="0.6096" style="stop-color:#009BCF"/>
	</linearGradient>
	<path class="st8" d="M135.88,55.38c-6.35,0-20.82,6.97-28.24,15.97c-7.41,9-11.82,19.41-11.82,24.71s3,9.18,9.35,9.18
		s15.35-4.94,15.35-4.94s1.41,5.82,3.53,5.82c2.12,0,6.53-1.94,8.29-3.18s1.76-1.76,1.76-5.29c0-3.53,1.76-10.06,6.53-15.35
		c2.88-3.2,9-10.41,9-15.53C149.65,60.85,142.59,55.38,135.88,55.38z M126.41,83.41c-5.41,6.47-10.66,10.04-12.9,10.04
		s-3.34-0.51-3.34-2.51s3.41-9.56,8.24-14.94s9.71-7.18,11.65-7.18c1.09,0,2.82-0.12,2.82,2.12S129.54,79.67,126.41,83.41z"/>
	<linearGradient id="SVGID_10_" gradientUnits="userSpaceOnUse" x1="409.5294" y1="121.8824" x2="409.5294" y2="20.2658">
		<stop  offset="0.2764" style="stop-color:#FFFC00"/>
		<stop  offset="0.304" style="stop-color:#FFBD34"/>
		<stop  offset="0.3485" style="stop-color:#FF0000"/>
		<stop  offset="0.3953" style="stop-color:#FF0000"/>
		<stop  offset="0.403" style="stop-color:#FF0000"/>
		<stop  offset="0.4212" style="stop-color:#FF0202"/>
		<stop  offset="0.4278" style="stop-color:#FF0909"/>
		<stop  offset="0.4324" style="stop-color:#FF1414"/>
		<stop  offset="0.4362" style="stop-color:#FF2525"/>
		<stop  offset="0.4395" style="stop-color:#FF3B3B"/>
		<stop  offset="0.4423" style="stop-color:#FF5757"/>
		<stop  offset="0.4449" style="stop-color:#FF7777"/>
		<stop  offset="0.4473" style="stop-color:#FF9D9D"/>
		<stop  offset="0.4495" style="stop-color:#FFC8C8"/>
		<stop  offset="0.4515" style="stop-color:#FFF6F6"/>
		<stop  offset="0.4519" style="stop-color:#FFFFFF"/>
		<stop  offset="0.5574" style="stop-color:#FFFFFF"/>
		<stop  offset="0.5891" style="stop-color:#B2D7E4"/>
		<stop  offset="0.6096" style="stop-color:#009BCF"/>
	</linearGradient>
	<path class="st9" d="M423.29,67.53c0,0,36.24-17.76,36.24-36.47c0-11.76-9.64-16-21.76-16c-6.59,0-17.65,0.59-30.83,5.65
		c-13.18,5.06-18.59,6.94-18.59,10.35c0,2.82,5.06,1.29,7.76,1.29c2.71,0,3.18,1.53,2.35,3.76c-0.82,2.24-9.41,20-12.82,27.29
		c-3.41,7.29-10.35,25.76-12,31.53c-1.65,5.76-3.18,16.47-3.18,16.47s-0.59,1.06-1.88,1.53c-1.29,0.47-9.06,1.88-9.06,4.24
		c0,2.35,6.12,4.59,17.88,4.59s31.18-2.71,40.82-6.47S440,107.76,440,93.18c0-14.59-18.71-21.76-18.71-21.76s-1.65,0-1.65-1.41
		S423.29,67.53,423.29,67.53z M423.88,92.94c0,11.64-26.25,14.46-29.9,14.46c-2.65,0-3.99-0.94-3.99-2.81s4.34-18.48,6.22-22.33
		c1.88-3.85,4.41-5.2,7.54-5.2C407.76,77.06,423.88,82.17,423.88,92.94z M404.47,65.06c-2.59,0-2.71-1.41-2.71-3.53
		c0-2.12,7.29-20.12,9.76-24.47c2.47-4.35,5.41-10.12,19.29-10.12c12.47,0,11.53,6.82,11.53,9.06s-1.29,10.59-12.24,17.76
		C419.18,60.94,408.24,65.06,404.47,65.06z"/>
</g>
</svg>
