<svg xmlns="http://www.w3.org/2000/svg" viewBox="0 0 64 64">
  <defs>
    <filter id="ds1" width="200%" height="200%" x="-20%" y="-20%">
      <feGaussianBlur in="SourceGraphic" stdDeviation="1.5"/>
    </filter>
  </defs>
  <path d="M1 1h62v62H1z" style="stroke:#373737;fill:#454545;stroke-width:2px"/>
  <g style="filter:url(#ds1);opacity:.75">
    <path d="M61.5 44.7c0 9.7-7.8 17.5-17.4 17.5H26c-9.6 0-17.4-7.8-17.4-17.5V26.3c0-9.7 7.8-17.5 17.4-17.5h18c9.6 0 17.4 7.9 17.4 17.5v18.4Z" style="fill:#000"/>
  </g>
  <path d="M57 42.4c0 8.3-6.8 15.1-15 15.1H23A15 15 0 0 1 8 42.3v-19C8 14.8 14.7 8 23 8h19a15 15 0 0 1 15 15.2v19.2Z" style="fill:#454545"/>
  <path d="M31.5 50h-16l6.7-15h2.6l-.1-5.7L31.5 14h16l-16 36z" style="fill:#e00028"/>
  <path d="M24.7 21h9.4s6.4.4 6.4 8-6.4 8-6.4 8h-3.3v6h-6V21Zm5.8 9.8h2.2s1.8-.2 1.8-2-1.6-1.8-1.6-1.8h-2.4v3.8ZM18.3 35l-.3.9c-.4.8-.9 1.1-1.5 1.1s-1.1-.4-1.4-1.1-.6-2-.6-3.8.2-3.1.6-3.9c.3-.8.8-1.2 1.4-1.2s1.1.4 1.5 1.2l.2.8h6.1c-.3-2-.9-3.8-1.9-5.1-1.4-2-3.3-2.9-6-2.9s-4.4 1-5.8 3c-1.4 1.8-2 4.6-2 8 0 2.5.3 4.6 1 6.2s1.6 2.9 2.7 3.7S15 43 16.8 43s3.1-.4 4.3-1.3 2-2.1 2.6-3.7l.7-3h-6Zm32 0-.2.9c-.4.8-.9 1.1-1.5 1.1s-1.1-.4-1.5-1.1-.5-2-.5-3.8.2-3.1.5-3.9c.4-.8.9-1.2 1.5-1.2s1 .4 1.5 1.2l.2.8h6.1c-.3-2-1-3.8-1.9-5.1-1.4-2-3.4-2.9-6-2.9s-4.4 1-5.8 3a13.1 13.1 0 0 0-2.1 8c0 2.5.3 4.6 1 6.2s1.7 2.9 2.8 3.7S47 43 48.8 43s3.1-.4 4.3-1.3 2-2.1 2.6-3.7l.7-3h-6Z" style="fill:#fff;stroke:#000;stroke-width:2px"/>
</svg>