<svg version="1.1" id="Layer_2" xmlns="http://www.w3.org/2000/svg" x="0" y="0" viewBox="0 0 256 256" style="enable-background:new 0 0 256 256" xml:space="preserve">
  <style>
    .st0{fill:#010101}.st1{fill:#f2382f}
  </style>
  <path class="st0" d="M6.5 209.7 17 187.9l11.7-4.8h30.6l-3.7 8.8h-15l2.5-5.6h-5.7l-5.6 2.1-8.7 17.5h5l7.5-2.5 2.5-5.3h15l-3.2 5.6-14 6zM66.5 183.1 59 200.3h20.4l5.8-2.5-2.5 5.6-7.5 2.5h-3.8l1.3-3.7H58.4l-4.1 7.2h29.6l13.8-6 9.1-20.3H92l-4.3 9.7-6.7 2.3-5.1.2 5.6-11.9zM154.3 183.1l-3.5 9.1h-15.2l3.4-5.9h-5.7l-6.2 2.1-7.6 17.4 4.6.1 6.1-2.5 1.9-3.7h-7.2l1.4-3.3 22.7-.1-3.8 7.1-13.6 6.3h-29.7l10.2-21.9 12-4.7zM189.2 210l-14.6-.3 11.2-23.8h-6.4l-5.5 2.5-9.7 21.3h-14.9l9.6-21.3 12.6-5.3h30.9zM243.9 195.3l5.6-12.2H219l-12 4.7-10.6 21.9h29.4l14.3-6.3 3.2-5h-15.7l-2.4 5-7 2.5H214l5-10.6h25zm-21.9-6.9 5.7-2.2h5.5l-3 6.6h-10.5l2.3-4.4z"/>
  <g>
    <path class="st1" d="M204 95.8c-36-68.5-105.6-70.6-129.7-44-5.8 6.5-25.8 43.8 29.7 78.7-28.9 8.5-52.3-24.7-52.3-24.7 36 68.5 105.6 70.6 129.7 44 5.8-6.5 25.8-43.7-29.7-78.6 28.9-8.6 52.3 24.6 52.3 24.6zM160.2 130c-11 12.1-34.3 8.8-52.1-7.3-17.9-16-23.5-39-12.6-51s34.3-8.9 52.1 7.2 23.5 39 12.6 51.1z"/>
    <ellipse transform="rotate(-47.9 142.3 113.9)" class="st1" cx="142.3" cy="113.9" rx="16.3" ry="24"/>
  </g>
</svg>
