<?xml version="1.0" encoding="utf-8"?>
<!-- Generator: Adobe Illustrator 25.0.0, SVG Export Plug-In . SVG Version: 6.00 Build 0)  -->
<svg version="1.1" id="Layer_1" xmlns="http://www.w3.org/2000/svg" xmlns:xlink="http://www.w3.org/1999/xlink" x="0px" y="0px"
	 viewBox="0 0 256 256" style="enable-background:new 0 0 256 256;" xml:space="preserve">
<style type="text/css">
	.st0{fill:url(#SVGID_1_);}
	.st1{fill:url(#SVGID_2_);}
</style>
<linearGradient id="SVGID_1_" gradientUnits="userSpaceOnUse" x1="188.2266" y1="138.8924" x2="188.2266" y2="59.1027">
	<stop  offset="0" style="stop-color:#2B96D3"/>
	<stop  offset="1" style="stop-color:#363A82"/>
</linearGradient>
<polygon class="st0" points="183.96,130.37 136.45,130.37 136.45,138.89 192.49,138.89 192.49,67.63 240,67.63 240,59.1 
	183.96,59.1 "/>
<g>
	<path d="M35.49,189.24c0,2.04-0.42,3.85-1.25,5.44c-1.02,2-2.46,3-4.31,3H16v-32.46h13.94c1.85,0,3.29,1.02,4.31,3.06
		c0.83,1.59,1.25,3.42,1.25,5.5V189.24z M30.84,189.24v-15.47c0-1.36-0.25-2.58-0.74-3.68c-0.64-1.44-1.57-2.16-2.78-2.16h-6.4
		v27.02h6.4c1.17,0,2.1-0.7,2.78-2.1C30.6,191.81,30.84,190.6,30.84,189.24z"/>
	<path d="M59.05,189.58c0,2.68-0.32,4.61-0.96,5.78c-0.87,1.55-2.55,2.32-5.04,2.32h-8.56c-2.46,0-4.14-0.79-5.04-2.38
		c-0.64-1.13-0.96-3.04-0.96-5.72v-9.46c0-2.68,0.32-4.61,0.96-5.78c0.91-1.55,2.59-2.32,5.04-2.32h8.56c2.49,0,4.17,0.77,5.04,2.32
		c0.64,1.17,0.96,3.1,0.96,5.78V189.58z M54.13,179.99c0-1.62-0.13-2.79-0.4-3.5c-0.5-1.16-1.4-1.75-2.72-1.75h-4.48
		c-1.32,0-2.21,0.58-2.66,1.75c-0.31,0.72-0.45,1.88-0.45,3.5v9.21c0,1.4,0.3,2.64,0.91,3.73c0.75,1.35,1.78,2.03,3.06,2.03h2.78
		c1.74,0,2.87-0.49,3.4-1.47c0.38-0.68,0.57-1.96,0.57-3.84V179.99z"/>
	<path d="M82.28,189.01c0,2.72-0.32,4.72-0.96,6c-0.91,1.78-2.57,2.66-4.98,2.66H62.79v-32.46h4.87v29.74c0.41,0,1.23,0,2.43,0
		c1.02,0,1.85,0,2.49,0c2.23,0,3.65-0.47,4.25-1.41c0.38-0.64,0.57-2.15,0.57-4.52v-8.93c0-1.62-0.13-2.81-0.4-3.56
		c-0.45-1.2-1.36-1.81-2.72-1.81h-4.25v-2.72h6.29c2.42,0,4.08,0.89,4.98,2.66c0.64,1.29,0.96,3.29,0.96,6.01V189.01z"/>
	<path d="M90.95,169.35h-4.99v-4.14h4.99V169.35z M90.95,197.68h-4.99v-25.66h4.99V197.68z"/>
	<path d="M113.72,179.61c0,1.74-0.3,3.29-0.91,4.65c-0.79,1.78-1.95,2.66-3.46,2.66h-6.85v-2.72h4.08c0.91,0,1.61-0.67,2.1-2.03
		c0.3-0.94,0.45-1.99,0.45-3.16c0-2.85-0.58-4.28-1.75-4.28h-4.87c-1.32,0-2.21,0.58-2.66,1.75c-0.3,0.72-0.45,1.88-0.45,3.5v9.66
		c0,1.92,0.19,3.2,0.57,3.84c0.53,0.98,1.66,1.47,3.4,1.47c-0.68,0,2.19,0,8.61,0v2.72h-11.5c-2.46,0-4.14-0.77-5.04-2.32
		c-0.64-1.17-0.96-3.1-0.96-5.78v-9.46c0-2.68,0.32-4.61,0.96-5.78c0.91-1.55,2.59-2.32,5.04-2.32h8.89c1.51,0,2.66,0.92,3.46,2.77
		C113.42,176.23,113.72,177.84,113.72,179.61z"/>
	<path d="M134.97,187.94c0,2.23-0.4,4.27-1.19,6.12c-1.06,2.42-2.57,3.63-4.53,3.63h-11.84v-2.72h9.23c1.28,0,2.27-0.77,2.95-2.32
		c0.53-1.21,0.79-2.55,0.79-4.02c0-2.08-0.36-3.55-1.07-4.42c-0.61-0.72-1.59-1.11-2.95-1.19c0.15,0-1.36,0-4.53,0
		c-1.93,0-3.38-1.04-4.36-3.12c-0.79-1.59-1.19-3.47-1.19-5.63c0-2.12,0.4-4.03,1.19-5.74c1.02-2.19,2.47-3.3,4.36-3.3h10.71v2.72
		h-8.1c-1.21,0-2.13,0.67-2.78,1.99c-0.49,1.06-0.74,2.28-0.74,3.64s0.25,2.56,0.74,3.59c0.64,1.33,1.57,1.99,2.78,1.99h5.21
		c1.85,0,3.26,1.06,4.25,3.17C134.61,183.92,134.97,185.78,134.97,187.94z"/>
	<path d="M149.7,174.74h-6.29v15.64c0,2.08,0.28,3.36,0.85,3.85c0.57,0.49,1.81,0.74,3.74,0.74v2.72h-3.51
		c-2.49,0-4.11-0.42-4.84-1.28c-0.74-0.85-1.1-2.56-1.1-5.13v-26.05h4.87v6.8h6.29V174.74z"/>
	<path d="M169.98,197.68h-13.65c-1.74,0-3.06-0.89-3.96-2.66c-0.76-1.4-1.13-3.04-1.13-4.93c0-1.93,0.38-3.6,1.13-5.04
		c0.94-1.82,2.27-2.72,3.96-2.72h6.57v2.72c-0.45,0-1.04,0-1.75,0c-0.72,0-1.21,0-1.47,0c-1.4,0-2.34,0.26-2.83,0.79
		c-0.6,0.64-0.91,1.93-0.91,3.89c0,1.09,0.13,2.14,0.4,3.16c0.42,1.39,1.04,2.08,1.87,2.08h6.91v-15.92c0-1.4-0.17-2.4-0.51-3
		c-0.46-0.87-1.32-1.3-2.61-1.3h-6.23v-2.72h8.27c2.46,0,4.12,0.68,4.99,2.04c0.64,1.02,0.96,2.85,0.96,5.5V197.68z"/>
	<path d="M184.93,174.74h-6.29v15.64c0,2.08,0.28,3.36,0.85,3.85c0.57,0.49,1.81,0.74,3.74,0.74v2.72h-3.51
		c-2.49,0-4.11-0.42-4.84-1.28c-0.74-0.85-1.1-2.56-1.1-5.13v-26.05h4.87v6.8h6.29V174.74z"/>
	<path d="M192.87,169.35h-4.99v-4.14h4.99V169.35z M192.87,197.68h-4.99v-25.66h4.99V197.68z"/>
	<path d="M217,189.58c0,2.68-0.32,4.61-0.96,5.78c-0.87,1.55-2.55,2.32-5.04,2.32h-8.55c-2.46,0-4.14-0.79-5.04-2.38
		c-0.64-1.13-0.96-3.04-0.96-5.72v-9.46c0-2.68,0.32-4.61,0.96-5.78c0.91-1.55,2.58-2.32,5.04-2.32h8.55c2.49,0,4.17,0.77,5.04,2.32
		c0.64,1.17,0.96,3.1,0.96,5.78V189.58z M212.07,179.99c0-1.62-0.13-2.79-0.4-3.5c-0.49-1.16-1.4-1.75-2.72-1.75h-4.48
		c-1.32,0-2.21,0.58-2.66,1.75c-0.3,0.72-0.45,1.88-0.45,3.5v9.21c0,1.4,0.3,2.64,0.91,3.73c0.76,1.35,1.78,2.03,3.06,2.03h2.78
		c1.74,0,2.87-0.49,3.4-1.47c0.38-0.68,0.57-1.96,0.57-3.84V179.99z"/>
	<path d="M240,197.68h-4.82v-17.22c0-1.78-0.11-3.02-0.34-3.74c-0.45-1.32-1.38-1.98-2.78-1.98h-6.8v22.94h-4.93v-25.66h13.71
		c2.45,0,4.12,0.68,4.98,2.04c0.64,1.02,0.96,2.85,0.96,5.5V197.68z"/>
</g>
<g>
	<linearGradient id="SVGID_2_" gradientUnits="userSpaceOnUse" x1="67.7724" y1="138.8923" x2="67.7724" y2="59.1028">
		<stop  offset="0" style="stop-color:#2B96D3"/>
		<stop  offset="1" style="stop-color:#363A82"/>
	</linearGradient>
	<path class="st1" d="M16,138.89v-8.52h95.02V67.63H16V59.1h103.54v79.79H16z"/>
</g>
</svg>
