<?xml version="1.0" encoding="utf-8"?>
<!-- Generator: Adobe Illustrator 24.2.1, SVG Export Plug-In . SVG Version: 6.00 Build 0)  -->
<svg version="1.1" id="Layer_2" xmlns="http://www.w3.org/2000/svg" xmlns:xlink="http://www.w3.org/1999/xlink" x="0px" y="0px"
	 viewBox="0 0 393.41 224.24" style="enable-background:new 0 0 393.41 224.24;" xml:space="preserve">
<style type="text/css">
	.st0{fill:#0057AB;}
	.st1{fill:url(#SVGID_1_);}
	.st2{fill:#FFFFFF;}
</style>
<g>
	<g>
		<path class="st0" d="M382.57,206.76c-1.25-4.19-9.05-29.48-22.19-53.72c-17.31-31.94-32.2-54.77-57-77.96
			c-7.98-7.46-15.53-14.12-23.4-20.11h0.01c0,0-0.06-0.04-0.17-0.12c-0.15-0.11-0.29-0.22-0.44-0.33
			c-2.94-2.27-15.3-12.69-10.9-24.2c1.47-3.86,5.04-7.06,9.27-9.65l22.79-0.19v-8.45l-0.01,0c0,0,0,0,0,0S287.19,7.5,263.84,9
			c-21.91,1.41-41.6,14.22-45.28,16.02c-11.8-3.38-25.27-6.36-41.01-9.03C123.08,6.75,76.99,21.48,53.86,37.53
			C23.54,58.58,24.38,78.18,21.88,87.99c-1.55,6.08-15.32,17.31-15.15,25.19v8.3l2.84,2.93l10.72-3.64l1.28-4.47
			c4.41-1.58,9.24-3.77,13.63-5.57c10.95-4.5,11.79-6.95,41.71-11.42c13.76-2.05,28.25-2.64,39.03-2.73
			c4.2,8.86,14.63,27.08,32.71,35.82c11.76,5.68,24.93,8.59,35.42,10.08l-1.38,6.92l20.87,3.09v-8.44l-0.02-0.01c0,0,0.01,0,0.01,0
			s-17.52-7.28-28.31-18.06c-7.34-7.34-9.09-18.48-9.47-24.85l0.07,0.01c17.66,3.36,33.09,5.78,69.99,19.91
			c6.82,2.61,13.19,5.48,18.99,8.37l-1.09,0.62l16.63,13.41l19.87,16.44v-8.44l-0.07-0.06c-0.29-0.36-22.92-28.39-60.93-47.14
			c-31.42-15.5-57.22-23.15-92.96-24.89c-39.07-1.89-67.85,3.12-67.85,3.12s0.81-17.36,30.3-31.19
			c25.65-12.03,65.99-14.04,112.3-2.23c65.42,16.69,87.73,45.11,115.87,74.47c17.85,18.63,34.27,44.85,44.61,62.99l-1.74-0.78
			l5.36,13.84l7.67,16.36v-8.5L382.57,206.76L382.57,206.76z"/>
		
			<linearGradient id="SVGID_1_" gradientUnits="userSpaceOnUse" x1="194.7453" y1="750.8725" x2="194.7453" y2="552.1932" gradientTransform="matrix(1 0 0 -1 0 768)">
			<stop  offset="0" style="stop-color:#46D4FF"/>
			<stop  offset="1" style="stop-color:#1792FF"/>
		</linearGradient>
		<path class="st1" d="M360.39,161.47c-17.31-31.94-32.2-54.77-57-77.96c-7.98-7.46-15.54-14.12-23.4-20.11l0.01,0
			c0,0-0.06-0.04-0.18-0.13c-0.14-0.11-0.28-0.22-0.43-0.32c-2.92-2.25-15.32-12.69-10.91-24.2c4.83-12.64,32.05-18.29,32.05-18.29
			s-13.34-4.53-36.69-3.04c-21.91,1.41-41.6,14.22-45.28,16.02c-11.8-3.38-25.27-6.36-41.01-9.03
			c-54.47-9.24-100.56,5.49-123.69,21.54C23.54,67.01,24.38,86.62,21.88,96.42c-1.8,7.06-20.09,21.08-13.87,28.71
			c3.88,4.77,16.79-1.71,27.2-5.99c10.95-4.5,11.79-6.95,41.71-11.42c13.76-2.05,28.25-2.64,39.03-2.73
			c4.2,8.86,14.63,27.08,32.71,35.82c24.41,11.8,54.91,11.65,54.91,11.65s-17.52-7.28-28.31-18.06c-7.34-7.34-9.09-18.48-9.47-24.85
			l0.07,0.01c17.66,3.36,33.09,5.78,69.99,19.91c32.28,12.36,54.34,30.35,54.34,30.35s-22.67-28.28-60.94-47.15
			c-31.42-15.5-57.22-23.15-92.96-24.89c-39.07-1.89-67.85,3.12-67.85,3.12s0.81-17.36,30.3-31.19
			c25.65-12.03,65.99-14.04,112.3-2.23c65.42,16.69,87.73,45.11,115.87,74.47c29.95,31.26,55.85,83.86,55.85,83.86
			S374.77,188.01,360.39,161.47L360.39,161.47z"/>
	</g>
	<g>
		<path class="st2" d="M47.85,206.8c-1.54,1.75-3.71,3.13-7.31,3.13h-9.59V172.2h9.59c3.6,0,5.78,1.38,7.31,3.13
			c2.54,2.81,2.76,7,2.76,15.69C50.6,199.7,50.39,203.99,47.85,206.8z M43.39,179.09c-0.58-0.9-1.59-1.54-3.02-1.54h-3.5v27.03h3.5
			c1.43,0,2.44-0.64,3.02-1.54c1.17-1.75,1.27-5.46,1.27-12.03S44.56,180.84,43.39,179.09z"/>
		<path class="st2" d="M69.63,207.39c-1.64,2.28-3.92,2.97-6.62,2.97c-2.7,0-4.98-0.69-6.62-2.97c-1.75-2.44-1.96-6.73-1.96-11.45
			s0.21-9.01,1.96-11.45c1.64-2.28,3.92-2.92,6.62-2.92c2.7,0,4.98,0.64,6.62,2.92c1.75,2.44,1.96,6.73,1.96,11.45
			S71.38,204.95,69.63,207.39z M65.18,187.73c-0.48-0.74-1.32-1.17-2.17-1.17c-0.85,0-1.7,0.42-2.17,1.17
			c-0.74,1.27-0.79,4.08-0.79,8.21s0.05,7,0.79,8.27c0.48,0.74,1.33,1.11,2.17,1.11c0.85,0,1.7-0.37,2.17-1.11
			c0.74-1.27,0.79-4.13,0.79-8.27S65.92,189,65.18,187.73z"/>
		<path class="st2" d="M78.64,208.23c-1.75-1.32-2.81-3.44-2.81-6.78V172.2h5.62v28.93c0,2.49,1.22,3.76,3.82,3.76v5.03
			C82.67,209.93,80.5,209.67,78.64,208.23z"/>
		<path class="st2" d="M103.65,208.18c-1.27,1.59-2.81,2.17-4.93,2.17c-1.01,0-2.01-0.26-2.81-0.74c-0.58-0.37-1.17-0.9-1.64-1.48
			v11.61h-5.62V182h5.41v2.07c0.26-0.53,1.27-1.38,1.85-1.75c0.79-0.48,1.8-0.74,2.81-0.74c2.12,0,3.66,0.58,4.93,2.17
			c1.8,2.28,1.96,6.15,1.96,12.19S105.46,205.9,103.65,208.18z M99.1,187.67c-0.48-0.69-1.22-1.11-2.07-1.11
			c-0.79,0-1.43,0.26-1.91,0.79c-0.53,0.58-0.85,1.38-0.85,2.6v12.03c0,1.22,0.27,2.01,0.85,2.6c0.48,0.48,1.11,0.74,1.91,0.74
			c0.85,0,1.59-0.37,2.07-1.06c0.74-0.95,0.9-3.02,0.9-8.32C100,190.64,99.84,188.63,99.1,187.67z"/>
		<path class="st2" d="M121.14,209.93v-20.08c0-2.17-1.22-3.23-2.76-3.23c-1.54,0-2.76,1.06-2.76,3.23v20.08h-5.62V172.2h5.62v11.61
			c0.42-0.58,1.06-1.17,1.64-1.48c0.79-0.48,1.8-0.74,2.81-0.74c2.28,0,3.82,0.69,5.09,2.17c1.11,1.27,1.59,2.81,1.59,6.04v20.14
			H121.14z"/>
		<path class="st2" d="M131.53,178.45v-6.2h6.2v6.2H131.53z M131.85,209.93v-27.19h5.62v27.19H131.85z"/>
		<path class="st2" d="M153.84,209.93v-20.08c0-2.17-1.22-3.23-2.76-3.23c-1.54,0-2.76,1.06-2.76,3.23v20.08h-5.62V182h5.41v2.07
			c0.48-0.64,1.17-1.38,1.85-1.75c0.79-0.48,1.8-0.74,2.81-0.74c2.28,0,3.82,0.69,5.09,2.17c1.11,1.27,1.59,2.81,1.59,6.04v20.14
			H153.84z"/>
	</g>
	<g>
		<path class="st2" d="M173.65,209.93V172.2h14.77v2.81h-11.26v14.63h9.71v2.81h-9.71v14.68h11.26v2.81H173.65z"/>
		<path class="st2" d="M218.38,209.93v-20.3c0-2.97-1.85-4.4-4.17-4.4c-2.32,0-4.23,1.43-4.23,4.4v20.3h-3.33v-20.3
			c0-2.97-1.85-4.4-4.17-4.4c-2.32,0-4.23,1.43-4.23,4.4v20.3h-3.34v-26.97h3.28v2.17c0.36-0.58,1.19-1.33,1.73-1.64
			c0.95-0.58,2.08-0.95,3.45-0.95c2.26,0,4.47,1.22,5.66,2.86c0.54-0.69,1.31-1.48,2.08-1.91c1.01-0.58,2.26-0.95,3.63-0.95
			c2.5,0,3.87,0.69,5.12,1.85c1.19,1.11,1.85,2.6,1.85,5.3v20.24H218.38z"/>
		<path class="st2" d="M240.42,209.93v-2.17c-0.36,0.58-1.19,1.33-1.73,1.64c-0.95,0.58-2.08,0.95-3.45,0.95
			c-2.02,0-3.51-0.64-4.77-1.8c-1.19-1.11-1.85-2.65-1.85-5.35v-20.24h3.34v20.3c0,2.97,1.85,4.4,4.17,4.4
			c2.32,0,4.23-1.43,4.23-4.4v-20.3h3.34v26.97H240.42z"/>
		<path class="st2" d="M253.04,208.23c-1.43-1.17-2.26-2.81-2.26-5.51V172.2h3.34v30.52c0,2.91,1.61,4.56,4.94,4.56v2.65
			C256.8,209.93,254.71,209.61,253.04,208.23z"/>
		<path class="st2" d="M274.31,209.93v-2.44c-0.42,0.74-1.13,1.43-1.67,1.8c-0.95,0.64-1.97,1.06-3.63,1.06
			c-1.91,0-3.51-0.58-4.82-1.8c-1.13-1.06-1.97-3.18-1.97-6.09c0-2.54,0.83-4.72,2.56-6.09c1.49-1.22,3.22-1.8,5.95-1.8h3.45v-4.82
			c0-2.97-1.37-4.61-4.17-4.61c-1.19,0-2.08,0.42-2.74,1.01c-0.95,0.9-1.37,1.96-1.37,3.76h-3.34c0-2.01,0.48-4.03,2.2-5.56
			c1.25-1.11,3.04-1.8,5.24-1.8c2.38,0,4.23,0.58,5.42,1.7c1.37,1.27,2.08,2.97,2.08,5.62v20.08H274.31z M274.19,196.89h-3.33
			c-1.55,0-2.68,0.32-3.69,1.17c-1.01,0.9-1.61,2.54-1.61,4.34c0,3.23,1.31,5.3,4.23,5.3c2.68,0,4.41-2.07,4.41-4.88V196.89z"/>
		<path class="st2" d="M287.89,208.23c-1.49-1.22-2.26-3.02-2.26-5.51v-17.44h-3.69v-2.33h3.69v-7.9h3.34v7.9h5.18v2.33h-5.18v17.44
			c0,3.23,1.91,4.56,5.42,4.56v2.65C291.94,209.93,289.67,209.72,287.89,208.23z"/>
		<path class="st2" d="M311.71,208.23c-1.31,1.43-3.16,2.12-5.6,2.12c-2.44,0-4.29-0.69-5.6-2.12c-1.85-1.96-2.26-5.41-2.26-11.76
			c0-6.36,0.42-9.8,2.26-11.76c1.31-1.43,3.16-2.17,5.6-2.17c2.44,0,4.29,0.74,5.6,2.17c1.85,1.96,2.26,5.41,2.26,11.76
			C313.97,202.83,313.55,206.27,311.71,208.23z M309.09,186.4c-0.66-0.69-1.67-1.22-2.98-1.22s-2.38,0.53-3.04,1.22
			c-1.37,1.48-1.49,4.29-1.49,10.07c0,5.78,0.12,8.53,1.49,10.02c0.66,0.69,1.73,1.22,3.04,1.22s2.32-0.53,2.98-1.22
			c1.37-1.48,1.55-4.24,1.55-10.02C310.64,190.69,310.46,187.88,309.09,186.4z"/>
		<path class="st2" d="M329.52,185.34c-3.57,0-5.9,2.01-5.9,5.25v19.34h-3.34v-26.97h3.28v2.86c0.3-0.58,1.01-1.32,1.49-1.7
			c1.37-1.11,3.16-1.59,5.18-1.59v2.81H329.52z"/>
	</g>
</g>
</svg>
