<?xml version="1.0" encoding="UTF-8"?>
<svg xmlns="http://www.w3.org/2000/svg" xmlns:xlink="http://www.w3.org/1999/xlink" viewBox="0 0 128 128">
  <defs>
    <style>
      .cls-1{fill:url(#linear-gradient)}
      .cls-2, .cls-3, .cls-4, .cls-6, .cls-7, .cls-9, .cls-10{fill-rule:evenodd}
      .cls-2, .cls-12{fill:#f2f2f2}
      .cls-3{fill:#010101}
      .cls-4{fill:rgba(31, 31, 31, .1)}
      .cls-5{fill:url(#linear-gradient-2)}
      .cls-6{fill:#5a04b7}
      .cls-7{fill:#1f1f1f}
      .cls-8{fill:url(#linear-gradient-3)}
      .cls-9{fill:#c20002}
      .cls-10{fill:#fc0}
      .cls-11{fill:url(#linear-gradient-4)}
    </style>
    <linearGradient id="linear-gradient" x1="56.32" y1="27.45" x2="54.89" y2="43.87" gradientTransform="translate(0 130.16) scale(1 -1)" gradientUnits="userSpaceOnUse">
      <stop offset=".14" stop-color="#911ca7"/>
      <stop offset=".19" stop-color="#7842bf"/>
      <stop offset=".24" stop-color="#6362d3"/>
      <stop offset=".28" stop-color="#5775e0"/>
      <stop offset=".31" stop-color="#527ce4"/>
      <stop offset=".44" stop-color="#159740"/>
      <stop offset=".47" stop-color="#4eab44"/>
      <stop offset=".5" stop-color="#86be47"/>
      <stop offset=".52" stop-color="#aecb4a"/>
      <stop offset=".55" stop-color="#c7d44b"/>
      <stop offset=".56" stop-color="#d0d74c"/>
      <stop offset=".6" stop-color="#d6cc4d"/>
      <stop offset=".67" stop-color="#e7b04f"/>
      <stop offset=".8" stop-color="#e63938"/>
    </linearGradient>
    <linearGradient id="linear-gradient-2" x1="69.66" y1="29.55" x2="68.3" y2="45.12" gradientTransform="translate(0 130.16) scale(1 -1)" gradientUnits="userSpaceOnUse">
      <stop offset=".14" stop-color="#911ca7"/>
      <stop offset=".19" stop-color="#7842bf"/>
      <stop offset=".24" stop-color="#6362d3"/>
      <stop offset=".28" stop-color="#5775e0"/>
      <stop offset=".31" stop-color="#527ce4"/>
      <stop offset=".44" stop-color="#159740"/>
      <stop offset=".47" stop-color="#4eab44"/>
      <stop offset=".5" stop-color="#86be47"/>
      <stop offset=".52" stop-color="#aecb4a"/>
      <stop offset=".55" stop-color="#c7d44b"/>
      <stop offset=".56" stop-color="#d0d74c"/>
      <stop offset=".6" stop-color="#d6cc4d"/>
      <stop offset=".67" stop-color="#e7b04f"/>
      <stop offset=".8" stop-color="#e63938"/>
    </linearGradient>
    <linearGradient id="linear-gradient-3" x1="84.06" y1="31.72" x2="82.76" y2="46.43" gradientTransform="translate(0 130.16) scale(1 -1)" gradientUnits="userSpaceOnUse">
      <stop offset=".14" stop-color="#911ca7"/>
      <stop offset=".19" stop-color="#7842bf"/>
      <stop offset=".24" stop-color="#6362d3"/>
      <stop offset=".28" stop-color="#5775e0"/>
      <stop offset=".31" stop-color="#527ce4"/>
      <stop offset=".44" stop-color="#159740"/>
      <stop offset=".47" stop-color="#4eab44"/>
      <stop offset=".5" stop-color="#86be47"/>
      <stop offset=".52" stop-color="#aecb4a"/>
      <stop offset=".55" stop-color="#c7d44b"/>
      <stop offset=".56" stop-color="#d0d74c"/>
      <stop offset=".6" stop-color="#d6cc4d"/>
      <stop offset=".67" stop-color="#e7b04f"/>
      <stop offset=".8" stop-color="#e63938"/>
    </linearGradient>
    <linearGradient id="linear-gradient-4" x1="96.06" y1="33.66" x2="94.84" y2="47.56" gradientTransform="translate(0 130.16) scale(1 -1)" gradientUnits="userSpaceOnUse">
      <stop offset=".14" stop-color="#911ca7"/>
      <stop offset=".19" stop-color="#7842bf"/>
      <stop offset=".24" stop-color="#6362d3"/>
      <stop offset=".28" stop-color="#5775e0"/>
      <stop offset=".31" stop-color="#527ce4"/>
      <stop offset=".44" stop-color="#159740"/>
      <stop offset=".47" stop-color="#4eab44"/>
      <stop offset=".5" stop-color="#86be47"/>
      <stop offset=".52" stop-color="#aecb4a"/>
      <stop offset=".55" stop-color="#c7d44b"/>
      <stop offset=".56" stop-color="#d0d74c"/>
      <stop offset=".6" stop-color="#d6cc4d"/>
      <stop offset=".67" stop-color="#e7b04f"/>
      <stop offset=".8" stop-color="#e63938"/>
    </linearGradient>
  </defs>
  <path id="Back" class="cls-3" d="M0,0h128v128H0V0Z"/>
  <g id="Box">
    <g id="layer3">
      <path id="path860" class="cls-4" d="M24,25.07v75.73l55.61-7.46v-60.98l-55.61-7.29Z"/>
      <path id="path862" class="cls-4" d="M24,100.81l20.46,8.55,59.54-10.53-24.39-5.48-55.61,7.46Z"/>
      <path id="path864" class="cls-4" d="M79.61,32.36l24.39-3.87v70.34l-24.39-5.48v-60.99Z"/>
      <path id="path866" class="cls-4" d="M24,25.07l20.46-6.43,59.54,9.85-24.39,3.87-55.61-7.29Z"/>
      <path id="path868" class="cls-7" d="M44.46,18.64v90.71l59.54-10.52V28.49l-59.54-9.85Z"/>
      <path id="path870" class="cls-2" d="M24,25.07l20.46-6.43v90.71l-20.46-8.54V25.07Z"/>
      <path class="cls-12" d="M44.44,64.16v-20.26l.02-25.26-20.46,6.43v75.79l20.46,8.5v-22.37l-.02-22.83Z"/>
    </g>
  </g>
  <g id="DOS">
    <g id="layer1">
      <g id="g9788">
        <path id="path9790" class="cls-9" d="M50.51,24.79l10.3,1.21c2,.24,3.85.74,5.72,1.67v.38c-1.57,1.25-2.87,2.79-3.83,4.55l-6.26-.7.04,19.11,3.7.44,3.79.12c2.26.08,4.34-3.54,4.54-5.54l.56-6.28c.13-2.55,1.81-4.76,4.24-5.56,1.46,2.63,2.22,5.61,2.19,8.62,0,9.37-5.83,15.18-15.01,14.65l-9.98-.63s0-32.04,0-32.04Z"/>
      </g>
      <g id="g9792">
        <path id="path9794" class="cls-6" d="M80.92,28.85c-1.79.96-3.26,2.41-4.24,4.19-.34-.06-.69-.13-1.03-.17-3.64-.45-6.95,2.4-7.38,6.02l-.95,7.92c-.13,1.12-1.08,2.23-1.79,3.01-.6.64-1.31.74-2.19.7h-.11c-1.12-2.74-1.7-5.66-1.7-8.61,0-9.33,4.95-16,14.15-14.63,1.82.27,3.55.86,5.24,1.57"/>
      </g>
      <g id="g9796">
        <path id="path9798" class="cls-6" d="M69.68,57.06l2.99-2.78,1.35-1.9,2.26.14c1.08,2.36,2.84,3.98,4.99,5.38-1.57.47-3.12.7-4.75.67-2.36-.07-4.68-.58-6.84-1.51"/>
      </g>
      <g id="g9800">
        <path id="path9802" class="cls-10" d="M76.54,48.31l5.74.39c.6,3.59,3.03,4.66,6.65,4.81,2.26.09,5.64-.27,5.64-2.91,0-1.38-1.18-2.17-2.39-2.86l.3-5.3c4.58,1.55,8.15,3.39,8.15,8.18,0,5.68-6.07,7.97-11.66,7.86-4-.07-9.18-1.3-11.31-5.09-.75-1.23-1.2-2.62-1.29-4.05,0-.11.02-.21.04-.32l.13-.71h0Z"/>
      </g>
      <g id="g9804">
        <path id="path9806" class="cls-10" d="M99.62,39.66l-5.87-.63c-.49-2.69-2.88-4.3-5.74-4.66-1.96-.24-5.16.19-5.27,2.54-.02.12,0,.23.04.34l1.16,3.33c.24.68.28,1.41.28,2.11,0,.81-.11,1.6-.21,2.4-4.13-1.45-7.03-3.67-7.03-8.27,0-6.2,5.05-8.36,10.82-7.51,6.4.95,11.41,4.38,11.82,10.35"/>
      </g>
      <g id="g9808">
        <path id="path9810" class="cls-6" d="M89.31,35.6c1.51,2.59,2.32,5.52,2.34,8.52,0,3.06-.88,5.87-2.39,8.49-.39,0-.77.03-1.16.01-1.25-.05-4.28-1-4.28-2.46,0-.25.04-.49.13-.72l1.14-3.58c.24-.7.15-1.57.15-2.29,0-2.82-1.33-4.72-1.44-6.68-.06-1.37,2.62-1.69,3.57-1.58.65.08,1.3.16,1.94.29"/>
      </g>
    </g>
    <path class="cls-12" d="M50.57,83.08v-21.2l7.33.02c3.14,0,5.71,1.81,5.71,4.87s-3.43,4.53-3.43,4.53c0,0,4.07.24,4.07,4.99s-4.51,6.07-6.61,6.24l-7.07.55ZM54.73,65.47v4.77l2.13-.06c.87-.03,2.33-.62,2.33-2.4,0-2.09-1.87-2.34-2.66-2.33,0,0-1.8.02-1.8.02ZM54.79,73.81v5.29l2.34-.15c1.12-.07,2.79-.9,2.79-2.82s-1.65-2.47-2.79-2.42l-2.34.1ZM67.13,67.98c.34-1.18.89-2.3,1.63-3.28.72-.94,1.65-1.71,2.71-2.25,1.17-.57,2.47-.85,3.77-.82,2.5-.06,4.89,1.04,6.48,2.96.73.88,1.27,1.9,1.63,3.04.72,2.34.72,4.84,0,7.18-.35,1.14-.9,2.21-1.63,3.16-1.57,2.02-3.93,3.27-6.48,3.45-1.28.14-2.58-.05-3.77-.53-1.05-.46-1.98-1.16-2.71-2.05-.75-.93-1.3-2.01-1.63-3.16-.36-1.24-.55-2.53-.54-3.82-.01-1.35.18-2.64.54-3.88ZM69.34,74.59c.24.92.61,1.75,1.11,2.46.5.71,1.17,1.28,1.95,1.67.79.39,1.74.55,2.83.48,1.94-.08,3.72-1.09,4.78-2.72.51-.75.88-1.57,1.11-2.47.47-1.78.47-3.65,0-5.43-.23-.86-.6-1.67-1.11-2.39-.51-.71-1.18-1.3-1.95-1.71-.87-.45-1.85-.67-2.83-.64-1.1,0-2.04.24-2.83.69-.78.45-1.45,1.07-1.95,1.81-.51.75-.88,1.6-1.11,2.55-.48,1.87-.48,3.83,0,5.7ZM91.36,70.61l-5.76-8.79h2.79s4.36,7.03,4.36,7.03l4.56-6.99h2.6s-5.78,8.65-5.78,8.65l6.15,8.68-2.84.22-4.7-7.04-4.85,7.79-2.62.2,6.09-9.75Z"/>
    <path class="cls-1" d="M54.99,86.28l-4.43.41v16.52l3.22-.5v-5.56l1.34-.18c1.25-.17,5.91-1.37,5.91-6.37s-4.36-4.47-6.04-4.32ZM54.79,93.66l-1,.12v-4.62l1-.1s2.86-.31,2.86,1.96c0,2.28-2.86,2.64-2.86,2.64Z"/>
    <path class="cls-5" d="M74.63,84.48l-3.26.3-.13,10.5s-.13,2.08-2.44,2.42c-1.15.28-2.32-.42-2.6-1.58-.01-.05-.02-.1-.03-.15l-.11-10.7-3.26.3v9.5s0,6.53,6.1,5.58c6.1-.95,5.74-7.11,5.74-7.11v-9.06h-.01Z"/>
    <path class="cls-8" d="M85.26,91.4c1.11-.32,3.14-2,3.14-4.22,0-3.97-3.63-3.63-4.99-3.51l-5.39.5v14.8l3.37-.52v-5.47s1.44-.76,3.12,1.86l1.85,2.84,3.66-.57-1.55-2.52c-.6-1.02-1.79-3.02-3.21-3.19ZM83.16,89.81l-1.78.21v-3.7l1.88-.19c1.04-.11,1.57.82,1.57,1.62.01.8-.44,1.92-1.67,2.06Z"/>
    <path class="cls-11" d="M94.62,94.08v-3.29l4.59-.59v-2.59l-4.59.54v-3.18l5.01-.52v-2.27l-8.36.77v13.96l8.58-1.33v-2.26l-5.23.76Z"/>
  </g>
</svg>