<?xml version="1.0" encoding="UTF-8"?>
<svg xmlns="http://www.w3.org/2000/svg" viewBox="0 0 128 128">
  <defs>
    <style>
      .cls-1{fill:#ba3d00}
      .cls-2, .cls-3{fill-rule:evenodd}
      .cls-2, .cls-4{fill:#f2f2f2}
    </style>
  </defs>
  <rect class="cls-1" y="0" width="128" height="128"/>
  <g>
    <path class="cls-3" d="M44.46,18.64v90.71l59.54-10.52V28.49l-59.54-9.85Z"/>
    <polygon class="cls-4" points="44.44 64.16 44.44 64.16 44.44 43.9 44.44 43.9 44.46 18.64 24 25.07 24 46.14 24 46.14 24 63.17 24 82 24 100.86 44.46 109.36 44.46 86.99 44.44 64.16"/>
  </g>
  <g>
    <path class="cls-2" d="M24,25.07l20.46-6.43v90.71l-20.46-8.54V25.07Z"/>
    <path class="cls-4" d="M55.09,56.19v-25.71c3.12-.06,5.28.28,6.65,1.47,1.62,1.4,2.17,3.9,2.13,7.36-.03,3.46.02,7.18.03,10.2.02,3.68.1,6.47-4.08,6.66-1.69.06-3.06.03-4.73.02h0ZM61.2,61.34c.91-.09,1.83-.21,2.37-.52,2.98-1.72,4.78-3.68,4.78-11.3v-8.53c0-2.35.1-4.68-.37-6.98-.24-1.15-.29-1.53-1.17-3.33-1.17-2.39-3.97-5.11-7.41-5.67-3.46-.56-6.6-1.29-9.66-1.62v38.07c3.61.03,7.66.24,11.46-.12h0ZM101.42,55.87c.1-.45.4-3.72-.15-5.46-.61-1.93-1.27-3.46-2.57-4.86-1.39-1.49-3.18-2.76-4.69-3.89-1.31-.98-2.67-2.16-2.58-3.93.08-1.63,1.13-2.35,2.59-2.45,1.29-.09,2.77.81,4.13,1.6,0,0,.94-3.01,1.43-4.33,0,0-.84-.61-1.3-.85-1.27-.64-2.69-1.29-4-1.4-.88-.07-2.53,0-3.69.78-1.43.97-2.12,1.98-2.4,2.46-.64,1.13-.83,2.6-.88,3.54-.1,1.74.45,3.58,1.01,4.74.62,1.27,1.26,1.91,1.61,2.28,1.72,1.81,4.38,2.92,5.83,4.53.73.81,1.85,2.19,1.98,3.28.31,2.68-.37,5.6-3.17,5.53-3.18-.08-3.71-2.56-4.07-4.4-1.44.16-2.62.24-3.87.43.05.87.08,1.84.28,2.6.5,1.89,1.54,3.51,3.05,4.5,1.54,1.01,2.67,1.61,4.49,1.62,3.91.02,6.23-2.98,6.97-6.32h0ZM74.39,51.88v-14.52c0-2.72,1.37-4.34,3.72-4.08s3.8,2.27,3.8,4.99v14.51c0,2.26-1.53,4.12-3.8,3.99-3.25-.17-3.72-2.53-3.72-4.89ZM85.88,53.08v-13.9c0-4.96-1.77-10.7-7.77-11.57-6.29-.91-8.04,4.31-8.04,8.84v14.51c0,7.11,2.39,10.76,8.04,11.07,4.88.27,7.77-4.19,7.77-8.95ZM85.3,98.31l1.76-.28s4.48-9.71,6.78-14.46c.55,1.11,5.63,12.23,5.63,12.23l1.61-.38s-6.15-13.24-6.42-13.79c2.23-4.85,6.6-14.59,6.6-14.59l-1.51-.14s-5.77,12.65-5.91,12.92c-.14-.28-5.77-12.65-5.77-12.65h-1.51s6.18,13.9,6.46,14.45c-2.56,5.57-5.04,11.17-7.72,16.69h0ZM71.61,93.24c-.02-.44,0-15.6,0-15.97,0-2.72.46-5.5,2.41-7.17,1.28-.96,2.63-1.53,4.1-1.48,3.88.13,5.6,3.2,5.6,7.74v12.51c0,4.37-.29,4.88-1.6,6.68-.68.85-1.62,1.52-2.4,1.9-.78.38-1.14.46-1.94.55-.81.08-1.37.17-2.67-.24-2.2-.68-3.4-2.07-3.5-4.52ZM81.56,98.39c2.79-2.21,3.78-5.68,3.78-8.78v-13.6c0-3.63-.47-5.88-3.27-8.09-1.22-.9-2.43-1.23-3.95-1.21-3.07.05-4.74,1.06-6.06,2.65-1.73,2.14-2.08,5.29-2.08,7.93v16.15c0,2.72,1.9,6,5.46,6.51,2.25.19,4.4-.23,6.12-1.56ZM55.09,82.45v-8.89c3.73-.1,6.93-.25,6.93,3.9,0,4.17-3.14,5.01-6.93,4.99ZM55.09,87.8l5.17-.03c1.14-.01,2.29.82,2.77,1.64.24.4.45,1.29.49,2.54.03.97,0,1.76-.22,2.6-.45,1.63-1.95,2.48-3.43,2.95-1.46.46-3.64.82-4.78.93,0-3.46,0-7.43,0-10.63h0ZM60.98,102.35c1.94-.48,3.84-1.65,5.07-2.98,1.03-1.11,1.69-2.56,2.12-3.87.44-1.36.55-2.62.55-4.07,0-.79-.09-2.16-.31-3.24-.51-2.5-1.77-3.83-3.67-4.93.15-.26,1.05-1.16,1.81-3.1.77-1.94.72-3.04.72-3.98,0-2.47-.54-4.96-2.43-6.34-1.4-1.02-2.27-1.59-4.85-1.83-2.58-.24-6.42-.06-10.25-.02v36.13c3.86-.56,7.86-.93,11.24-1.77h0Z"/>
  </g>
</svg>