<?xml version="1.0" encoding="utf-8"?>
<!-- Generator: Adobe Illustrator 24.2.1, SVG Export Plug-In . SVG Version: 6.00 Build 0)  -->
<svg version="1.1" xmlns="http://www.w3.org/2000/svg" xmlns:xlink="http://www.w3.org/1999/xlink" x="0px" y="0px"
	 viewBox="0 0 128 128" style="enable-background:new 0 0 128 128;" xml:space="preserve">
<style type="text/css">
	.st0{fill:#BA3D00;}
	.st1{display:none;}
	.st2{display:inline;fill:#F0F0F0;}
	
		.st3{display:inline;opacity:0.1;fill:none;stroke:#000000;stroke-width:0.99;stroke-miterlimit:15.1181;stroke-dasharray:0.99,0.99;enable-background:new    ;}
	.st4{fill-rule:evenodd;clip-rule:evenodd;fill:#1F1F1F;fill-opacity:0.1;}
	.st5{fill-rule:evenodd;clip-rule:evenodd;}
	.st6{fill-rule:evenodd;clip-rule:evenodd;fill:#F2F2F2;}
	.st7{fill:#F2F2F2;}
</style>
<g id="background">
	<rect class="st0" width="128" height="128"/>
</g>
<g id="logo" inkscape:version="1.0beta2 (unknown)" sodipodi:docname="dosbox-staging.svg" xmlns:cc="http://creativecommons.org/ns#" xmlns:dc="http://purl.org/dc/elements/1.1/" xmlns:inkscape="http://www.inkscape.org/namespaces/inkscape" xmlns:rdf="http://www.w3.org/1999/02/22-rdf-syntax-ns#" xmlns:sodipodi="http://sodipodi.sourceforge.net/DTD/sodipodi-0.dtd" xmlns:svg="http://www.w3.org/2000/svg">
	
		<sodipodi:namedview  bordercolor="#666666" borderopacity="1.0" id="base" inkscape:current-layer="layer2" inkscape:cx="58.915746" inkscape:cy="53.024069" inkscape:document-rotation="0" inkscape:document-units="px" inkscape:pagecheckerboard="true" inkscape:pageopacity="0.0" inkscape:pageshadow="2" inkscape:window-height="1016" inkscape:window-maximized="1" inkscape:window-width="1920" inkscape:window-x="1920" inkscape:window-y="27" inkscape:zoom="5.6568542" pagecolor="#ffffff" showgrid="true" showguides="true" units="px">
		</sodipodi:namedview>
	
		<g id="layer1" transform="translate(0,-263.13334)" inkscape:groupmode="layer" inkscape:label="Gnome Icon Template" sodipodi:insensitive="true" class="st1">
		<rect id="rect13805" x="0" y="263.13" inkscape:label="512x512" class="st2" width="128" height="128">
		</rect>
		<circle id="circle2892" class="st3" cx="64" cy="327.13" r="59.5"/>
	</g>
	<g id="layer3" inkscape:groupmode="layer" inkscape:label="Icon">
		<path id="path860" inkscape:connector-curvature="0" class="st4" d="M24,25.07v75.73l55.61-7.46V32.36L24,25.07z"/>
		<path id="path862" inkscape:connector-curvature="0" class="st4" d="M24,100.81l20.46,8.55L104,98.83l-24.39-5.48L24,100.81z"/>
		<path id="path864" inkscape:connector-curvature="0" class="st4" d="M79.61,32.36L104,28.49v70.34l-24.39-5.48L79.61,32.36z"/>
		<path id="path866" inkscape:connector-curvature="0" class="st4" d="M24,25.07l20.46-6.43L104,28.49l-24.39,3.87L24,25.07z"/>
		<path id="path868" inkscape:connector-curvature="0" class="st5" d="M44.46,18.64v90.71L104,98.83V28.49L44.46,18.64z"/>
		<path id="path870" inkscape:connector-curvature="0" class="st6" d="M24,25.07l20.46-6.43v90.71L24,100.81V25.07z"/>
		
			<path id="path850" inkscape:connector-curvature="0" inkscape:export-xdpi="37.150002" inkscape:export-ydpi="37.150002" sodipodi:nodetypes="ccssscccsssssssccsssssssccssssssssssccsssssssssssssssssscccccccccccccsscssscccsscsscscssccccsccssssscccssscscssssscs" class="st7" d="
			M55.09,56.19V30.48c3.12-0.06,5.28,0.28,6.65,1.47c1.62,1.4,2.17,3.9,2.13,7.36c-0.03,3.46,0.02,7.18,0.03,10.2
			c0.02,3.68,0.1,6.47-4.08,6.66C58.13,56.23,56.76,56.2,55.09,56.19L55.09,56.19z M61.2,61.34c0.91-0.09,1.83-0.21,2.37-0.52
			c2.98-1.72,4.78-3.68,4.78-11.3v-8.53c0-2.35,0.1-4.68-0.37-6.98c-0.24-1.15-0.29-1.53-1.17-3.33c-1.17-2.39-3.97-5.11-7.41-5.67
			c-3.46-0.56-6.6-1.29-9.66-1.62v38.07C53.35,61.49,57.4,61.7,61.2,61.34L61.2,61.34z M101.42,55.87c0.1-0.45,0.4-3.72-0.15-5.46
			c-0.61-1.93-1.27-3.46-2.57-4.86c-1.39-1.49-3.18-2.76-4.69-3.89c-1.31-0.98-2.67-2.16-2.58-3.93c0.08-1.63,1.13-2.35,2.59-2.45
			c1.29-0.09,2.77,0.81,4.13,1.6c0,0,0.94-3.01,1.43-4.33c0,0-0.84-0.61-1.3-0.85c-1.27-0.64-2.69-1.29-4-1.4
			c-0.88-0.07-2.53,0-3.69,0.78c-1.43,0.97-2.12,1.98-2.4,2.46c-0.64,1.13-0.83,2.6-0.88,3.54c-0.1,1.74,0.45,3.58,1.01,4.74
			c0.62,1.27,1.26,1.91,1.61,2.28c1.72,1.81,4.38,2.92,5.83,4.53c0.73,0.81,1.85,2.19,1.98,3.28c0.31,2.68-0.37,5.6-3.17,5.53
			c-3.18-0.08-3.71-2.56-4.07-4.4c-1.44,0.16-2.62,0.24-3.87,0.43c0.05,0.87,0.08,1.84,0.28,2.6c0.5,1.89,1.54,3.51,3.05,4.5
			c1.54,1.01,2.67,1.61,4.49,1.62C98.36,62.21,100.68,59.21,101.42,55.87L101.42,55.87z M74.39,51.88V37.36
			c0-2.72,1.37-4.34,3.72-4.08c2.35,0.26,3.8,2.27,3.8,4.99v14.51c0,2.26-1.53,4.12-3.8,3.99C74.86,56.6,74.39,54.24,74.39,51.88z
			 M85.88,53.08v-13.9c0-4.96-1.77-10.7-7.77-11.57c-6.29-0.91-8.04,4.31-8.04,8.84v14.51c0,7.11,2.39,10.76,8.04,11.07
			C82.99,62.3,85.88,57.84,85.88,53.08z M85.3,98.31l1.76-0.28c0,0,4.48-9.71,6.78-14.46c0.55,1.11,5.63,12.23,5.63,12.23l1.61-0.38
			c0,0-6.15-13.24-6.42-13.79c2.23-4.85,6.6-14.59,6.6-14.59l-1.51-0.14c0,0-5.77,12.65-5.91,12.92
			c-0.14-0.28-5.77-12.65-5.77-12.65l-1.51,0c0,0,6.18,13.9,6.46,14.45C90.46,87.19,87.98,92.79,85.3,98.31L85.3,98.31z
			 M71.61,93.24c-0.02-0.44,0-15.6,0-15.97c0-2.72,0.46-5.5,2.41-7.17c1.28-0.96,2.63-1.53,4.1-1.48c3.88,0.13,5.6,3.2,5.6,7.74
			v12.51c0,4.37-0.29,4.88-1.6,6.68c-0.68,0.85-1.62,1.52-2.4,1.9c-0.78,0.38-1.14,0.46-1.94,0.55c-0.81,0.08-1.37,0.17-2.67-0.24
			C72.91,97.08,71.71,95.69,71.61,93.24z M81.56,98.39c2.79-2.21,3.78-5.68,3.78-8.78V76.01c0-3.63-0.47-5.88-3.27-8.09
			c-1.22-0.9-2.43-1.23-3.95-1.21c-3.07,0.05-4.74,1.06-6.06,2.65c-1.73,2.14-2.08,5.29-2.08,7.93v16.15c0,2.72,1.9,6,5.46,6.51
			C77.69,100.14,79.84,99.72,81.56,98.39z M55.09,82.45v-8.89c3.73-0.1,6.93-0.25,6.93,3.9C62.03,81.63,58.88,82.47,55.09,82.45z
			 M55.09,87.8l5.17-0.03c1.14-0.01,2.29,0.82,2.77,1.64c0.24,0.4,0.45,1.29,0.49,2.54c0.03,0.97,0.01,1.76-0.22,2.6
			c-0.45,1.63-1.95,2.48-3.43,2.95c-1.46,0.46-3.64,0.82-4.78,0.93C55.09,94.97,55.09,91,55.09,87.8L55.09,87.8z M60.98,102.35
			c1.94-0.48,3.84-1.65,5.07-2.98c1.03-1.11,1.69-2.56,2.12-3.87c0.44-1.36,0.55-2.62,0.55-4.07c0-0.79-0.09-2.16-0.31-3.24
			c-0.51-2.5-1.77-3.83-3.67-4.93c0.15-0.26,1.05-1.16,1.81-3.1c0.77-1.94,0.72-3.04,0.72-3.98c0-2.47-0.54-4.96-2.43-6.34
			c-1.4-1.02-2.27-1.59-4.85-1.83c-2.58-0.24-6.42-0.06-10.25-0.02v36.13C53.6,103.56,57.6,103.19,60.98,102.35L60.98,102.35z"/>
		<polygon class="st7" points="44.44,64.16 44.44,64.16 44.44,43.9 44.44,43.9 44.46,18.64 24,25.07 24,46.14 24,46.14 24,63.17 
			24,82 24,100.86 44.46,109.36 44.46,86.99 		"/>
	</g>
</g>
</svg>
