<?xml version="1.0" encoding="utf-8"?>
<!-- Generator: Adobe Illustrator 25.2.3, SVG Export Plug-In . SVG Version: 6.00 Build 0)  -->
<svg version="1.1" id="Layer_1" xmlns="http://www.w3.org/2000/svg" xmlns:xlink="http://www.w3.org/1999/xlink" x="0px" y="0px"
	 viewBox="0 0 130 130" style="enable-background:new 0 0 130 130;" xml:space="preserve">
<style type="text/css">
	.st0{fill:#CC861F;}
	.st1{fill:#9FA4A5;}
	.st2{fill:#BA2C00;}
	.st3{fill:#E23A05;}
	.st4{fill:#FF4200;}
	.st5{fill:#FF6700;}
	.st6{fill:#FFCE00;}
	.st7{fill:#FFB000;}
	.st8{fill:#DD5E00;}
	.st9{fill:#FFC200;}
	.st10{fill:#FF9D00;}
	.st11{fill:#070606;}
	.st12{fill:#333232;}
	.st13{fill:#FF8B00;}
</style>
<path class="st0" d="M69.8,87.4l-7.1-4.1v16.2"/>
<g>
	<g>
		<path class="st1" d="M41.9,119.8l28-16.2l14,8.1L56,127.9L41.9,119.8z"/>
	</g>
	<g>
		<path class="st2" d="M62.8,99.5v8.2l14.1,8.1v-8L62.8,99.5z"/>
		<path class="st3" d="M83.8,103.6v8.1l-6.9,4v-8L83.8,103.6z"/>
		<path class="st4" d="M76.9,83.3v16.2l-7,4.1V87.4L76.9,83.3z"/>
		<path class="st2" d="M62.8,99.5l7.1,4.1V87.4l-7.1-4.1V99.5z"/>
		<path class="st2" d="M76.9,115.7l6.9-4v-2.9l-6.9,4.1V115.7z"/>
		<polygon class="st3" points="62.8,107.7 76.9,115.7 76.9,112.9 62.8,104.9 		"/>
		<path class="st5" d="M76.9,99.5l6.9,4.1l-6.9,4.1l-7.1-4.1L76.9,99.5z"/>
	</g>
	<g>
		<path class="st2" d="M41.9,111.7v8.2l14.1,8.1v-8L41.9,111.7z"/>
		<path class="st3" d="M62.9,115.8v8.1l-6.9,4v-8L62.9,115.8z"/>
		<path class="st4" d="M56,95.5v16.2l-7.1,4.1l0-16.2L56,95.5z"/>
		<path class="st2" d="M41.9,111.7l7,4.1l0-16.2l-7.1-4.1V111.7z"/>
		<path class="st2" d="M56,127.9l6.9-4V121l-6.9,4.1V127.9z"/>
		<polygon class="st3" points="41.9,119.8 56,127.9 56,125.1 41.9,117.1 		"/>
		<path class="st5" d="M56,111.7l6.9,4.1l-6.9,4.1l-7.1-4.1L56,111.7z"/>
		<polygon class="st3" points="48.9,99.6 41.9,95.5 41.9,111.7 		"/>
	</g>
</g>
<g>
	<path class="st6" d="M53,60.5l38.3-22.1v46.9L53,107.5V60.5z"/>
	<path class="st7" d="M53,107.5v-47l38.3-22.1L53,107.5z"/>
	<path class="st5" d="M14.6,38.4L53,60.5v47L14.6,85.3V38.4z"/>
	<path class="st8" d="M14.6,38.4L53,60.5v47L14.6,38.4z"/>
	<path class="st9" d="M14.6,38.4L53,16.3l38.3,22.1L53,60.5L14.6,38.4z"/>
	<path class="st7" d="M91.3,38.4L53,60.5L14.6,38.4H91.3z"/>
</g>
<g>
	<path class="st6" d="M27.4,18.7l10.8-6.2l0,13.2L27.4,32C27.4,31.9,27.4,18.7,27.4,18.7z"/>
	<path class="st7" d="M27.4,32V18.7l10.8-6.2L27.4,32z"/>
	<path class="st5" d="M16.6,12.5l10.8,6.2V32l-10.8-6.2C16.6,25.8,16.6,12.5,16.6,12.5z"/>
	<path class="st8" d="M16.6,12.5l10.8,6.2V32L16.6,12.5z"/>
	<path class="st9" d="M16.6,12.5l10.8-6.2l10.8,6.2l-10.8,6.2L16.6,12.5z"/>
	<path class="st7" d="M38.2,12.5l-10.8,6.2l-10.8-6.2L38.2,12.5z"/>
</g>
<g>
	<g>
		<path class="st7" d="M73.5,36.1L103.1,19v36.2L73.5,72.3V36.1z"/>
		<path class="st10" d="M73.5,72.3V36.1L103.1,19L73.5,72.3z"/>
		<path class="st5" d="M43.9,19l29.6,17.1v36.2L43.9,55.2V19z"/>
		<path class="st8" d="M43.9,19l29.6,17.1v36.2L43.9,19z"/>
		<path class="st9" d="M43.9,19L73.5,1.9L103.1,19L73.5,36.1L43.9,19z"/>
		<path class="st7" d="M103.1,19L73.5,36.1L43.9,19H103.1z"/>
		<g>
			<path class="st11" d="M77.5,48.2v7.3l6.4-3.7v-7.3L77.5,48.2z M92.7,39.4v7.3l6.4-3.7v-7.3L92.7,39.4z"/>
			<g>
				<path class="st12" d="M77.5,55.5l6.4-3.7v-7.3 M92.7,46.7l6.4-3.7v-7.3"/>
			</g>
		</g>
	</g>
	<g>
		<path class="st13" d="M97.9,68.3v6.8L115.4,65v-6.8L97.9,68.3z"/>
		<path class="st5" d="M115.4,58.2L97.9,68.3v6.8L115.4,58.2z"/>
		<path class="st5" d="M80.4,58.2l17.5-10.1l17.5,10.1L97.9,68.3L80.4,58.2z"/>
		<path class="st4" d="M115.4,58.2L97.9,68.3L80.4,58.2H115.4z"/>
		<path class="st2" d="M97.9,68.3v6.8L80.4,65l0-6.8L97.9,68.3z"/>
		<path class="st2" d="M80.4,58.2l17.5,10.1v6.8L80.4,58.2z"/>
	</g>
</g>
</svg>
