<?xml version="1.0" encoding="utf-8"?>
<!-- Generator: Adobe Illustrator 24.2.1, SVG Export Plug-In . SVG Version: 6.00 Build 0)  -->
<svg version="1.1" id="Layer_1" xmlns="http://www.w3.org/2000/svg" xmlns:xlink="http://www.w3.org/1999/xlink" x="0px" y="0px"
	 viewBox="0 0 534 130" style="enable-background:new 0 0 534 130;" xml:space="preserve">
<style type="text/css">
	.st0{fill:#FF4200;}
	.st1{fill:#BA2C00;}
	.st2{fill:#CC861F;}
	.st3{fill:#9FA4A5;}
	.st4{fill:#E23A05;}
	.st5{fill:#FF6700;}
	.st6{fill:#FFCE00;}
	.st7{fill:#FFB000;}
	.st8{fill:#DD5E00;}
	.st9{fill:#FFC200;}
	.st10{fill:#FF9D00;}
	.st11{fill:#070606;}
	.st12{fill:#333232;}
	.st13{fill:#FF8B00;}
</style>
<path class="st0" d="M76.85,83.35l0.07,16.12l-7.07,4.08V87.39L76.85,83.35z"/>
<path class="st1" d="M62.85,99.52l7,4.04V87.39l-7.07-4.09L62.85,99.52z"/>
<path class="st2" d="M69.85,87.39l-7.07-4.09l0.08,16.21"/>
<g>
	<path class="st3" d="M41.89,119.74l28-16.16l14,8.08l-28,16.16L41.89,119.74z"/>
	<path class="st1" d="M62.85,99.52v8.08l14.07,8.13v-8.1L62.85,99.52z"/>
	<path class="st4" d="M83.84,103.56v8.08l-6.92,4.08v-8.1L83.84,103.56z"/>
	<path class="st5" d="M76.92,99.47l6.92,4.08l-6.92,4.06l-7.04-4.06L76.92,99.47z"/>
</g>
<g>
	<path class="st0" d="M55.89,95.5l0.08,16.12l-7.08,4.08V99.54L55.89,95.5z"/>
	<path class="st1" d="M41.89,111.68l7,4.04V99.56l-7.07-4.08L41.89,111.68z"/>
	<path class="st4" d="M48.89,99.56l-7.07-4.08l0.08,16.21"/>
	<g>
		<path class="st1" d="M41.89,111.68v8.08l14.07,8.13v-8.1L41.89,111.68z"/>
		<path class="st4" d="M62.89,115.72v8.08l-6.92,4.08v-8.1L62.89,115.72z M62.85,107.6l14.07,8.13v-2.77l-14.07-8.13V107.6z"/>
		<path class="st1" d="M76.92,115.72l6.92-4.08v-2.78l-6.92,4.08V115.72z"/>
		<path class="st4" d="M41.89,119.76l14.07,8.13v-2.78l-14.07-8.13V119.76z"/>
		<path class="st1" d="M55.96,127.89l6.92-4.08v-2.77l-6.92,4.08V127.89z"/>
		<path class="st5" d="M55.96,111.64l6.92,4.08l-6.92,4.06l-7.04-4.06L55.96,111.64z"/>
	</g>
</g>
<g>
	<path class="st6" d="M52.97,60.53l38.31-22.13v46.94l-38.31,22.12V60.53z"/>
	<path class="st7" d="M52.97,107.47V60.53l38.31-22.13"/>
	<path class="st5" d="M14.65,38.41l38.32,22.13v46.94L14.65,85.35V38.41z"/>
	<path class="st8" d="M14.65,38.41l38.32,22.13v46.94"/>
	<path class="st9" d="M14.65,38.41l38.32-22.12l38.31,22.12L52.97,60.53L14.65,38.41z"/>
	<path class="st7" d="M91.28,38.41L52.97,60.53L14.65,38.41"/>
	<g>
		<path class="st6" d="M27.41,18.81l10.83-6.25v13.27l-10.83,6.25V18.81z"/>
		<path class="st7" d="M27.41,32.07V18.81l10.83-6.25"/>
		<path class="st5" d="M16.58,12.55l10.83,6.25v13.26l-10.83-6.25V12.55z"/>
		<path class="st8" d="M16.58,12.55l10.83,6.25v13.26"/>
		<path class="st9" d="M16.58,12.55L27.41,6.3l10.83,6.25l-10.83,6.25L16.58,12.55z"/>
		<path class="st7" d="M38.23,12.55l-10.83,6.25l-10.83-6.25"/>
	</g>
	<g>
		<path class="st7" d="M73.5,36.26l29.57-17.07v36.23L73.5,72.49V36.26z"/>
		<path class="st10" d="M73.5,72.49V36.26l29.57-17.07"/>
		<path class="st5" d="M43.93,19.19L73.5,36.26v36.23L43.93,55.41V19.19z"/>
		<path class="st8" d="M43.93,19.19L73.5,36.26v36.23"/>
		<path class="st9" d="M43.93,19.19L73.5,2.11l29.57,17.07L73.5,36.26L43.93,19.19z"/>
		<path class="st7" d="M103.07,19.19L73.5,36.26L43.93,19.19"/>
		<g>
			<path class="st11" d="M77.51,48.41v7.32l6.38-3.68l-0.05-7.3L77.51,48.41z M92.69,39.59v7.32l6.37-3.68l-0.05-7.29L92.69,39.59z"
				/>
			<g>
				<path class="st12" d="M77.51,55.74l6.38-3.68l-0.05-7.3 M92.69,46.91l6.37-3.68l-0.05-7.29"/>
			</g>
		</g>
	</g>
</g>
<g>
	<path class="st13" d="M97.87,68.53v6.76l17.48-10.1v-6.76L97.87,68.53z"/>
	<path class="st5" d="M115.35,58.43l-17.48,10.1v6.76"/>
	<path class="st5" d="M80.38,58.43l17.49-10.09l17.48,10.09l-17.48,10.1L80.38,58.43z"/>
	<path class="st0" d="M115.35,58.43l-17.48,10.1l-17.49-10.1"/>
	<path class="st1" d="M97.94,68.53v6.76l-17.49-10.1v-6.76L97.94,68.53z"/>
	<path class="st1" d="M80.46,58.43l17.49,10.1v6.76"/>
</g>
<g>
	<path d="M170.83,79.06c0,3.68-0.75,6.96-2.25,9.82c-1.84,3.61-4.43,5.42-7.77,5.42h-25.16V35.7h25.16c3.34,0,5.93,1.84,7.77,5.52
		c1.5,2.86,2.25,6.17,2.25,9.92V79.06z M162.44,79.06V51.14c0-2.45-0.44-4.67-1.33-6.65c-1.16-2.59-2.83-3.89-5.01-3.89h-11.56
		v48.79h11.56c2.11,0,3.78-1.26,5.01-3.78C162,83.7,162.44,81.52,162.44,79.06z"/>
	<path d="M211.64,94.3h-24.75c-4.5,0-7.5-1.23-9-3.69c-1.23-1.84-1.84-5.16-1.84-9.94v-32.8h8.8v31.17c0,3.21,0.2,5.47,0.61,6.77
		c0.82,2.39,2.45,3.59,4.91,3.59h12.48V47.87h8.8V94.3z"/>
	<path d="M247.33,94.3h-17.7c-4.43,0-7.43-1.4-9-4.19c-1.16-2.11-1.74-5.59-1.74-10.43V62.6c0-4.84,0.58-8.32,1.74-10.43
		c1.57-2.8,4.57-4.19,9-4.19h17.7v4.91h-13.91c-2.45,0-4.09,1.09-4.91,3.26c-0.48,1.29-0.72,3.4-0.72,6.32v18.05
		c0,3.2,0.37,5.37,1.13,6.53c0.95,1.43,2.93,2.21,5.93,2.35c1.64,0.07,3.72,0.07,6.24,0c3.55,0,5.63,0,6.24,0V94.3z"/>
	<path d="M286.71,94.3h-9.82l-13.6-20.56V94.3h-8.9V35.7h8.9v30.38l13.19-18.21h8.9l-16.37,20.97L286.71,94.3z"/>
	<path d="M325.37,76.71c0,4.02-0.72,7.71-2.15,11.05c-1.91,4.36-4.64,6.55-8.18,6.55h-21.38v-4.91h16.67c2.32,0,4.09-1.4,5.32-4.19
		c0.95-2.18,1.43-4.6,1.43-7.26c0-3.75-0.65-6.41-1.94-7.98c-1.09-1.29-2.86-2.01-5.32-2.15c0.27,0-2.45,0-8.18,0
		c-3.48,0-6.1-1.88-7.88-5.64c-1.43-2.87-2.15-6.26-2.15-10.16c0-3.83,0.72-7.29,2.15-10.36c1.84-3.97,4.47-5.95,7.88-5.95h19.33
		v4.91h-14.63c-2.18,0-3.85,1.2-5.01,3.6c-0.89,1.92-1.33,4.11-1.33,6.58c0,2.47,0.44,4.63,1.33,6.48c1.16,2.4,2.83,3.6,5.01,3.6
		h9.41c3.34,0,5.9,1.91,7.67,5.73C324.73,69.45,325.37,72.82,325.37,76.71z"/>
	<path d="M351.97,52.88h-11.35v28.23c0,3.75,0.51,6.07,1.53,6.96c1.02,0.89,3.27,1.33,6.75,1.33v4.91h-6.34
		c-4.5,0-7.42-0.77-8.74-2.3c-1.33-1.54-1.99-4.63-1.99-9.27V35.7h8.8v12.27h11.35V52.88z"/>
	<path d="M388.58,94.3h-24.65c-3.14,0-5.52-1.6-7.16-4.81c-1.37-2.52-2.05-5.49-2.05-8.9c0-3.48,0.68-6.51,2.05-9.1
		c1.7-3.27,4.09-4.91,7.16-4.91h11.86v4.91c-0.82,0-1.88,0-3.17,0c-1.3,0-2.18,0-2.66,0c-2.52,0-4.23,0.48-5.11,1.42
		c-1.09,1.15-1.64,3.49-1.64,7.02c0,1.97,0.24,3.86,0.72,5.69c0.75,2.51,1.87,3.76,3.38,3.76h12.48V60.65
		c0-2.52-0.31-4.33-0.92-5.42c-0.82-1.57-2.39-2.35-4.71-2.35h-11.25v-4.91h14.93c4.43,0,7.43,1.23,9,3.68
		c1.16,1.84,1.74,5.15,1.74,9.92V94.3z"/>
	<path d="M415.58,52.88h-11.35v28.23c0,3.75,0.51,6.07,1.53,6.96c1.02,0.89,3.27,1.33,6.75,1.33v4.91h-6.34
		c-4.5,0-7.42-0.77-8.74-2.3c-1.33-1.54-1.99-4.63-1.99-9.27V35.7h8.8v12.27h11.35V52.88z"/>
	<path d="M429.9,43.16h-9v-3.73V35.7h9v3.73V43.16z M429.9,94.3h-9V70.35V47.97h9v22.38V94.3z"/>
	<path d="M473.47,79.68c0,4.84-0.58,8.32-1.74,10.43c-1.57,2.8-4.6,4.19-9.1,4.19h-15.44c-4.43,0-7.47-1.43-9.1-4.3
		c-1.16-2.05-1.74-5.49-1.74-10.33V62.6c0-4.84,0.58-8.32,1.74-10.43c1.64-2.8,4.67-4.19,9.1-4.19h15.44c4.5,0,7.53,1.4,9.1,4.19
		c1.16,2.11,1.74,5.59,1.74,10.43V79.68z M464.58,62.36c0-2.92-0.24-5.03-0.72-6.32c-0.89-2.11-2.52-3.16-4.91-3.16h-8.08
		c-2.39,0-3.99,1.06-4.81,3.16c-0.55,1.29-0.82,3.4-0.82,6.32v16.63c0,2.52,0.55,4.76,1.64,6.73c1.36,2.45,3.2,3.67,5.52,3.67h5.01
		c3.13,0,5.18-0.88,6.14-2.65c0.68-1.22,1.02-3.54,1.02-6.94V62.36z"/>
	<path d="M515,94.3h-8.69V63.21c0-3.2-0.21-5.45-0.61-6.75c-0.82-2.39-2.49-3.58-5.01-3.58h-12.27V94.3h-8.9V47.97h24.75
		c4.43,0,7.43,1.23,9,3.68c1.16,1.84,1.74,5.15,1.74,9.92V94.3z"/>
</g>
</svg>
