<svg xmlns="http://www.w3.org/2000/svg" viewBox="0 0 535 130">
  <defs>
    <style>
	.cls-4{fill:#ff6700}
	.cls-6{fill:#ba2c00}
	.cls-8{fill:#ff4200}
	.cls-9{fill:#ffb000}
	.cls-11{fill:#dd5e00}
	.cls-12{fill:#e23a05}
	.cls-13{fill:#ffc200}
	.cls-14{fill:#ffce00}
    </style>
  </defs>
  <path d="m77.35 83.35.07 16.12-7.07 4.08V87.39l7-4.04Z" class="cls-8"/>
  <path d="m63.35 99.52 7 4.04V87.39l-7.07-4.09.07 16.22Z" class="cls-6"/>
  <path d="m70.35 87.39-7.07-4.09.08 16.21" style="stroke-width:0;fill:#cc861f"/>
  <path d="m42.39 119.74 28-16.16 14 8.08-28 16.16-14-8.08Z" style="fill:#9fa4a5;stroke-width:0"/>
  <path d="M63.35 99.52v8.08l14.07 8.13v-8.1l-14.07-8.11Z" class="cls-6"/>
  <path d="M84.34 103.56v8.08l-6.92 4.08v-8.1l6.92-4.06Z" class="cls-12"/>
  <path d="m77.42 99.47 6.92 4.08-6.92 4.06-7.04-4.06 7.04-4.08Z" class="cls-4"/>
  <path d="m56.39 95.5.08 16.12-7.08 4.08V99.54l7-4.04Z" class="cls-8"/>
  <path d="m42.39 111.68 7 4.04V99.56l-7.07-4.08.07 16.2Z" class="cls-6"/>
  <path d="m49.39 99.56-7.07-4.08.08 16.21" class="cls-12"/>
  <path d="M42.39 111.68v8.08l14.07 8.13v-8.1l-14.07-8.11Z" class="cls-6"/>
  <path d="M63.39 115.72v8.08l-6.92 4.08v-8.1l6.92-4.06Zm-.04-8.12 14.07 8.13v-2.77l-14.07-8.13v2.77Z" class="cls-12"/>
  <path d="m77.42 115.72 6.92-4.08v-2.78l-6.92 4.08v2.78Z" class="cls-6"/>
  <path d="m42.39 119.76 14.07 8.13v-2.78l-14.07-8.13v2.78Z" class="cls-12"/>
  <path d="m56.46 127.89 6.92-4.08v-2.77l-6.92 4.08v2.77Z" class="cls-6"/>
  <path d="m56.46 111.64 6.92 4.08-6.92 4.06-7.04-4.06 7.04-4.08Z" class="cls-4"/>
  <path d="m53.5 60.51 38.13-22.05v46.78L53.5 107.28V60.51Z" class="cls-14"/>
  <path d="M53.5 107.29V60.51l38.13-22.05" class="cls-9"/>
  <path d="M15.36 38.47 53.5 60.52v46.78L15.36 85.25V38.47Z" class="cls-4"/>
  <path d="M15.36 38.47 53.5 60.52v46.78" class="cls-11"/>
  <path d="M15.36 38.47 53.5 16.43l38.13 22.04L53.5 60.51 15.36 38.47Z" class="cls-13"/>
  <path d="M91.63 38.47 53.5 60.51 15.36 38.47" class="cls-9"/>
  <path d="m28.06 18.94 10.78-6.23v13.22l-10.78 6.23V18.94Z" class="cls-14"/>
  <path d="M28.06 32.15V18.94l10.78-6.23" class="cls-9"/>
  <path d="m17.28 12.7 10.78 6.23v13.21l-10.78-6.23V12.7Z" class="cls-4"/>
  <path d="m17.28 12.7 10.78 6.23v13.21" class="cls-11"/>
  <path d="m17.28 12.7 10.78-6.23 10.78 6.23-10.78 6.23-10.78-6.23Z" class="cls-13"/>
  <path d="m38.83 12.7-10.78 6.23-10.78-6.23m56.66 23.63 29.43-17.01v36.1L73.93 72.43v-36.1Z" class="cls-9"/>
  <path d="M73.93 72.43v-36.1l29.43-17.01" style="fill:#ff9d00;stroke-width:0"/>
  <path d="m44.5 19.32 29.43 17.01v36.1L44.5 55.41V19.32Z" class="cls-4"/>
  <path d="m44.5 19.32 29.43 17.01v36.1" class="cls-11"/>
  <path d="M44.5 19.32 73.93 2.3l29.43 17.01-29.43 17.02L44.5 19.32Z" class="cls-13"/>
  <path d="M103.36 19.32 73.93 36.33 44.5 19.32" class="cls-9"/>
  <path d="M77.92 48.43v7.29l6.35-3.67-.05-7.27-6.3 3.65Zm15.11-8.79v7.29l6.34-3.67-.05-7.26-6.29 3.64Z" style="fill:#070606;stroke-width:0"/>
  <path d="m77.92 55.74 6.35-3.67-.05-7.27m8.81 2.14 6.34-3.67-.05-7.26" style="fill:#333232;stroke-width:0"/>
  <path d="M98.37 68.53v6.76l17.48-10.1v-6.76l-17.48 10.1Z" style="fill:#ff8b00;stroke-width:0"/>
  <path d="m115.85 58.43-17.48 10.1v6.76" class="cls-4"/>
  <path d="m80.88 58.43 17.49-10.09 17.48 10.09-17.48 10.1-17.49-10.1Z" class="cls-4"/>
  <path d="m115.85 58.43-17.48 10.1-17.49-10.1" class="cls-8"/>
  <path d="M98.44 68.53v6.76l-17.49-10.1v-6.76l17.49 10.1Z" class="cls-6"/>
  <path d="m80.96 58.43 17.49 10.1v6.76" class="cls-6"/>
  <path d="M171.07 78.91c0 3.64-.75 6.89-2.25 9.72-1.84 3.57-4.44 5.36-7.78 5.36h-25.2V36h25.2c3.35 0 5.94 1.82 7.78 5.46a20.68 20.68 0 0 1 2.25 9.82v27.63Zm-8.4 0V51.28c0-2.42-.44-4.62-1.33-6.58-1.16-2.56-2.83-3.85-5.02-3.85h-11.58v48.28h11.58c2.11 0 3.79-1.25 5.02-3.74a15.04 15.04 0 0 0 1.33-6.48ZM211.95 94h-24.79c-4.51 0-7.51-1.22-9.02-3.65-1.23-1.82-1.84-5.11-1.84-9.84V48.05h8.81V78.9c0 3.18.2 5.41.61 6.7.82 2.37 2.45 3.55 4.92 3.55h12.5v-41.1h8.81V94h-.01Zm35.75 0h-17.73c-4.44 0-7.44-1.39-9.02-4.15-1.16-2.09-1.74-5.53-1.74-10.32v-16.9c0-4.79.58-8.23 1.74-10.32 1.57-2.77 4.58-4.15 9.02-4.15h17.73v4.86h-13.93c-2.45 0-4.1 1.08-4.92 3.23-.48 1.28-.72 3.36-.72 6.25v17.86c0 3.17.37 5.31 1.13 6.46.95 1.42 2.93 2.19 5.94 2.33a92 92 0 0 0 6.25 0h6.25V94Zm39.44 0h-9.84l-13.62-20.35V94h-8.92V36.01h8.92v30.06l13.21-18.02h8.92l-16.4 20.75L287.14 94Zm38.73-17.41c0 3.98-.72 7.63-2.15 10.93-1.91 4.31-4.65 6.48-8.19 6.48h-21.42v-4.86h16.7c2.32 0 4.1-1.39 5.33-4.15a17.63 17.63 0 0 0 1.43-7.18c0-3.71-.65-6.34-1.94-7.9-1.09-1.28-2.86-1.99-5.33-2.13h-8.19c-3.49 0-6.11-1.86-7.89-5.58-1.43-2.84-2.15-6.19-2.15-10.05s.72-7.21 2.15-10.25c1.84-3.93 4.48-5.89 7.89-5.89h19.36v4.86h-14.65c-2.18 0-3.86 1.19-5.02 3.56-.89 1.9-1.33 4.07-1.33 6.51s.44 4.58 1.33 6.41c1.16 2.38 2.83 3.56 5.02 3.56h9.43c3.35 0 5.91 1.89 7.68 5.67 1.31 2.81 1.95 6.15 1.95 9.99Zm26.64-23.58h-11.37v27.94c0 3.71.51 6.01 1.53 6.89s3.28 1.32 6.76 1.32v4.86h-6.35c-4.51 0-7.43-.76-8.75-2.28-1.33-1.52-1.99-4.58-1.99-9.17V36.02h8.81v12.14h11.37v4.86h-.01ZM389.19 94H364.5c-3.15 0-5.53-1.58-7.17-4.76a18 18 0 0 1-2.05-8.81c0-3.38.68-6.44 2.05-9.01 1.7-3.24 4.1-4.86 7.17-4.86h11.88v4.86h-5.84c-2.52 0-4.24.48-5.12 1.41-1.09 1.14-1.64 3.45-1.64 6.95 0 1.95.24 3.82.72 5.63.75 2.48 1.87 3.72 3.39 3.72h12.5V60.7c0-2.49-.31-4.28-.92-5.36-.82-1.55-2.39-2.33-4.72-2.33h-11.27v-4.86h14.96c4.44 0 7.44 1.22 9.02 3.64 1.16 1.82 1.74 5.1 1.74 9.82V94Zm27.04-40.99h-11.37v27.94c0 3.71.51 6.01 1.53 6.89s3.28 1.32 6.76 1.32v4.86h-6.35c-4.51 0-7.43-.76-8.75-2.28-1.33-1.52-1.99-4.58-1.99-9.17V36.02h8.81v12.14h11.37v4.86h-.01Zm14.35-9.62h-9.02v-7.38h9.02v7.38Zm0 50.61h-9.02V48.15h9.02V94Zm43.64-14.47c0 4.79-.58 8.23-1.74 10.32-1.57 2.77-4.61 4.15-9.12 4.15h-15.47c-4.44 0-7.48-1.42-9.12-4.26-1.16-2.03-1.74-5.43-1.74-10.22V62.63c0-4.79.58-8.23 1.74-10.32 1.64-2.77 4.68-4.15 9.12-4.15h15.47c4.51 0 7.54 1.39 9.12 4.15 1.16 2.09 1.74 5.53 1.74 10.32v16.9Zm-8.91-17.14c0-2.89-.24-4.98-.72-6.25-.89-2.09-2.52-3.13-4.92-3.13h-8.09c-2.39 0-4 1.05-4.82 3.13-.55 1.28-.82 3.36-.82 6.25v16.46c0 2.49.55 4.71 1.64 6.66 1.36 2.42 3.21 3.63 5.53 3.63h5.02c3.14 0 5.19-.87 6.15-2.62.68-1.21 1.02-3.5 1.02-6.87V62.39ZM515.82 94h-8.7V63.23c0-3.17-.21-5.39-.61-6.68-.82-2.37-2.49-3.54-5.02-3.54H489.2V94h-8.92V48.15h24.79c4.44 0 7.44 1.22 9.02 3.64 1.16 1.82 1.74 5.1 1.74 9.82V94h-.01Z" style="stroke-width:0"/>
</svg>