<?xml version="1.0" encoding="utf-8"?>
<!-- Generator: Adobe Illustrator 24.2.1, SVG Export Plug-In . SVG Version: 6.00 Build 0)  -->
<svg version="1.1" xmlns="http://www.w3.org/2000/svg" xmlns:xlink="http://www.w3.org/1999/xlink" x="0px" y="0px"
	 viewBox="0 0 640 440" style="enable-background:new 0 0 640 440;" xml:space="preserve">
<style type="text/css">
	.st0{fill:#2E3D25;}
	.st1{fill:#559338;stroke:#88BA68;stroke-width:2;stroke-miterlimit:10;}
	.st2{fill:url(#SVGID_1_);stroke:#B0D19B;stroke-width:1.9896;stroke-miterlimit:10;}
	.st3{fill:url(#SVGID_2_);stroke:#5B7749;stroke-width:2.0174;stroke-miterlimit:10;}
	.st4{opacity:0.25;clip-path:url(#SVGID_4_);fill:#FFFFFF;}
	.st5{fill:#B3B3B3;}
	.st6{fill:#496E32;}
	.st7{opacity:0.25;clip-path:url(#SVGID_6_);fill:#FFFFFF;}
</style>
<g id="Back">
	<path class="st0" d="M430.05,137.42c-2.32-35.95-21.29-67.35-49.29-86.59c-0.44-2.8-1.44-5.58-3.05-8.25
		c-4.29-7.12-17.26-17.67-28.12-21.47c-7.29-2.99-14.71-5.12-27.53-5.12s-23.24,1.79-36.24,9.29c-7.94,4.58-14.6,10.43-19.9,17.29
		c-37.69,18.6-63.63,57.41-63.63,102.29c0,1.46,0.04,2.91,0.09,4.36c-0.81,0.95-1.55,1.99-2.21,3.12
		c-4.49,7.78-6.43,25.34-4.29,36.65c2.23,16.45,14.25,39.32,35,51.29c10.93,6.31,23.57,9.59,35.76,9.59c1.61,0,3.21-0.06,4.82-0.17
		c13.76,5.89,28.91,9.16,44.83,9.16c19.06,0,37.03-4.69,52.82-12.96c3.76,3.53,8.66,5.44,14.59,5.44c8.99,0,25.4-7.02,34.12-14.53
		c13.13-10.16,27-31.52,27-55.47C444.82,165.19,439.74,149.84,430.05,137.42z"/>
</g>
<g id="Rings">
	<circle class="st1" cx="316.29" cy="144.87" r="107.5"/>
	<radialGradient id="SVGID_1_" cx="317.7941" cy="148.912" r="96" gradientUnits="userSpaceOnUse">
		<stop  offset="0" style="stop-color:#CDDEC2"/>
		<stop  offset="0.9972" style="stop-color:#9FC08A"/>
	</radialGradient>
	<circle class="st2" cx="317.79" cy="148.91" r="96"/>
</g>
<g id="Triskell">
	<radialGradient id="SVGID_2_" cx="320.3515" cy="133.8825" r="115.0071" gradientUnits="userSpaceOnUse">
		<stop  offset="0" style="stop-color:#65894E"/>
		<stop  offset="1" style="stop-color:#42632D"/>
	</radialGradient>
	<path class="st3" d="M373.18,115.41c-13.94,0-22.65,3.88-22.65,3.88s-2.94-0.64-5.23-0.65c-4.48-0.02-16.86,0.09-20.76,0.09
		c-23.53,0-32.63-17.91-32.63-31.28c0-2.34,0.15-12.6,8.84-21.28c11.54-12.69,28.35-8.5,28.35-8.5l-17.91,17.97
		c-3.65,3.6-6.12,7.53-6.12,12.35c0,7.29,6.47,17.59,17.71,17.59c7.47,0,12.29-5.35,14.12-7.18c1.82-1.82,28.31-27.5,32.18-31.29
		c6.63-6.51,7.48-14.18,3.65-20.82c-3.47-6.02-16.32-16.07-26.06-19.41c-5.93-2.46-15.05-4.34-24.35-4.35
		c-10.46-0.01-21.88,2.11-32.18,8.06c-23.36,13.49-32.71,32.71-32.71,59.88c0,30.71,23.41,48,23.41,48s0.82,2.79,2.12,5.06
		c2.22,3.88,11.06,18.94,11.06,18.94s10.02,13.57,0.06,30.82c-8.08,14-26.33,20.67-42.06,11.59c-11.67-6.74-14-17.47-14-17.47
		l25.94,7.12c8.58,2.37,15.37-2.26,18.65-7.94s4.24-17.62-5.59-23.29c-2.62-1.51-5.41-2.24-8.41-3.12s-33.93-9.63-42.88-12.12
		c-8.96-2.49-15.81,1.12-19.65,7.76c-3.47,6.02-5.45,22.25-3.47,32.35c1.77,13.52,12.36,35.71,31.82,46.94
		c35.24,20.35,75.21,0.9,89.65-24.12c4.22-7.31,6.67-14.57,7.82-21.6c1.04-1.11,2.02-2.45,2.95-4.05
		c2.27-3.9,11.06-18.94,11.06-18.94s7.31-16.18,27.41-16.18c15.53,0,30.71,12.86,30.71,31.18c0,13.59-8.12,20.41-8.12,20.41
		l-6.82-25.76c-2.26-8.69-9.27-12.47-15.88-12.47c-7.71,0-17.71,5.49-17.71,16.94c0,3.06,1.02,6.11,1.76,9.18
		c0.74,3.06,8.3,33.22,10.65,42.29c2.34,9.08,8.56,13.24,16.29,13.24c7.01,0,22.06-6.03,29.89-12.85
		c10.92-8.37,24.83-28.2,24.83-50.87C438.9,140.47,404,115.41,373.18,115.41z"/>
</g>
<g id="Mask">
	<g>
		<defs>
			<path id="SVGID_3_" d="M430.05,137.42c-2.32-35.95-21.29-67.35-49.29-86.59c-0.44-2.8-1.44-5.58-3.05-8.25
				c-4.29-7.12-17.26-17.67-28.12-21.47c-7.29-2.99-14.71-5.12-27.53-5.12s-23.24,1.79-36.24,9.29c-7.94,4.58-14.6,10.43-19.9,17.29
				c-37.69,18.6-63.63,57.41-63.63,102.29c0,1.46,0.04,2.91,0.09,4.36c-0.81,0.95-1.55,1.99-2.21,3.12
				c-4.49,7.78-6.43,25.34-4.29,36.65c2.23,16.45,14.25,39.32,35,51.29c10.93,6.31,23.57,9.59,35.76,9.59
				c1.61,0,3.21-0.06,4.82-0.17c13.76,5.89,28.91,9.16,44.83,9.16c19.06,0,37.03-4.69,52.82-12.96c3.76,3.53,8.66,5.44,14.59,5.44
				c8.99,0,25.4-7.02,34.12-14.53c13.13-10.16,27-31.52,27-55.47C444.82,165.19,439.74,149.84,430.05,137.42z"/>
		</defs>
		<clipPath id="SVGID_4_">
			<use xlink:href="#SVGID_3_"  style="overflow:visible;"/>
		</clipPath>
		<path class="st4" d="M444.82,13H193.59l0,203.06c0,0,41.49-46.74,113.53-82.22C366.06,104.81,422,90.99,422,90.99L444.82,13z"/>
	</g>
</g>
<g id="Letters">
	<g>
		<path class="st5" d="M332.9,285.57l-31.09,79.23l-32.28-79.23h-17.25c0,0,0.22,0.53,0.63,1.48c-5.77-1.56-14.88-3.5-24.56-3.5
			c-16.14,0-37.76,4.73-37.76,29.55c0,24.82,22.46,26.38,29.92,28.78c7.46,2.4,28.16,4.28,28.16,16.53
			c0,12.24-10.53,16.31-26.2,16.31c-11.68,0-22.38-3.19-32.1-9.56v-39.86c0-24.49-14.89-41.18-43.27-41.18
			c-13.96,0-22.42,0.52-33.11,6.68v16.16c10.56-8.08,18.51-9.56,31.62-9.56c14.95,0,27.33,8.77,27.33,25.51
			c0,0-14.71-0.38-34.46,1.84c-9.25,1.04-17.28,4.64-23.23,10.04v-3.03c0-14.81-3.83-26.38-11.5-34.72
			c-7.67-8.33-18.5-12.5-32.51-12.5c-14.01,0-25.74,4.83-35.18,14.48c-9.45,9.65-14.17,22.14-14.17,37.46
			c0,16.22,4.32,28.81,12.96,37.75c8.64,8.94,20.52,13.42,35.65,13.42c15.47,0,29.91-1.78,39.32-8.07v-3.64
			c1.1,1.39,2.34,2.71,3.77,3.92c6.13,5.19,14.61,7.79,25.45,7.79c26.71,0,33.9-17.7,33.9-17.7v15.39h17.43v-3.17
			c8.41,3.93,18.35,5.89,29.81,5.89c5.8,0,44.07,1.81,44.07-28.78s-29.22-29.24-36.45-30.91c-7.23-1.67-21.98-2.23-21.98-16.6
			c0-14.38,21.69-13.91,25.03-13.91c10.66,0,20.09,2.38,28.29,7.15v-3.22c11.31,26.86,32.66,78.07,32.66,81.95
			c0,5.29-2.5,10.57-4.73,15.58c-2.23,5.01-7.97,11.69-15.6,11.69c-2.71,0-8.89,0-8.89,0l-0.08,13.36c0,0,8.66,0,12.6,0
			c14.04,0,22.23-8.27,29.99-27.86l43.52-110.92H332.9z M50.32,305.77c5.65-5.32,12.51-7.98,20.59-7.98c8.36,0,14.9,2.53,19.6,7.6
			c4.7,5.07,7.09,12.15,7.16,21.25H39.86C41.19,318.05,44.67,311.09,50.32,305.77z M74.57,374.34c-10.73,0-19.17-2.98-25.3-8.94
			c-6.13-5.96-9.34-14.43-9.62-25.39h70.87c-3.9,5.39-6.14,11.9-6.14,19.14c0,2.97,0.39,5.73,1.12,8.29
			C96.15,372.61,84.98,374.34,74.57,374.34z M172.94,345.3c0,8.4-2.82,15.34-8.45,20.82c-5.63,5.48-12.77,8.22-21.42,8.22
			c-6.31,0-11.36-1.52-15.15-4.57c-3.79-3.04-5.69-6.97-5.69-11.78c0-6.6,2.05-13.69,6.16-16.29c4.11-2.6,14.38-6.17,20.64-6.17
			c6.27,0,23.89-0.78,23.89-0.78V345.3z"/>
		<path class="st6" d="M439.13,386.73h-25.46c0,0-16.42-29.73-17.56-31.28c-1.14-1.55-4.4-7.4-11.26-7.4c-2.9,0-9.57,0-9.57,0v38.67
			h-25.88V285.71h38.19c25.96,0,38.5,9.4,38.5,27.72c0,17.53-16.33,24.36-16.33,24.36v3.03c0,0,9.65,4.27,15.23,16.04
			C430.57,368.63,439.13,386.73,439.13,386.73z M375.86,303.35l-0.59,27.52h8.66c5.17,0,9.32-1.41,12.46-4.23
			c3.18-2.86,4.77-6.41,4.77-10.64c0-8.83-5-12.65-16.19-12.65H375.86z M467.37,351.93v34.8h-26.16V285.71h38.89
			c27.78,0,41.52,7.58,41.52,33.74c0,26.16-19.2,32.48-42.15,32.48H467.37z M467.37,303.18v29.62h8.43
			c13.22,0,19.83-2.78,19.83-14.05c0-11.27-6.61-15.57-19.83-15.57H467.37z M616.94,378.71c-10.52,5.68-23.58,9.18-39.21,9.18
			c-17.33,0-55.96-7.18-55.96-50.06s35.71-53.45,53.84-53.45c18.09,0,36.3,8.07,36.3,8.07v17.35c-8.31-4.51-18.48-6.76-30.5-6.76
			c-10.07,0-34.46,4.81-34.46,32.27c0,27.46,22.24,34.09,31.91,34.09c5.81,0,10.42-0.77,13.82-2.32v-19.73h-15.95V330.3h40.21
			V378.71z"/>
		<g>
			<defs>
				<path id="SVGID_5_" d="M332.9,285.57l-31.09,79.23l-32.28-79.23h-17.25c0,0,0.22,0.53,0.63,1.48c-5.77-1.56-14.88-3.5-24.56-3.5
					c-16.14,0-37.76,4.73-37.76,29.55c0,24.82,22.46,26.38,29.92,28.78c7.46,2.4,28.16,4.28,28.16,16.53
					c0,12.24-10.53,16.31-26.2,16.31c-11.68,0-22.38-3.19-32.1-9.56v-39.86c0-24.49-14.89-41.18-43.27-41.18
					c-13.96,0-22.42,0.52-33.11,6.68v16.16c10.56-8.08,18.51-9.56,31.62-9.56c14.95,0,27.33,8.77,27.33,25.51
					c0,0-14.71-0.38-34.46,1.84c-9.25,1.04-17.28,4.64-23.23,10.04v-3.03c0-14.81-3.83-26.38-11.5-34.72
					c-7.67-8.33-18.5-12.5-32.51-12.5c-14.01,0-25.74,4.83-35.18,14.48c-9.45,9.65-14.17,22.14-14.17,37.46
					c0,16.22,4.32,28.81,12.96,37.75c8.64,8.94,20.52,13.42,35.65,13.42c15.47,0,29.91-1.78,39.32-8.07v-3.64
					c1.1,1.39,2.34,2.71,3.77,3.92c6.13,5.19,14.61,7.79,25.45,7.79c26.71,0,33.9-17.7,33.9-17.7v15.39h17.43v-3.17
					c8.41,3.93,18.35,5.89,29.81,5.89c5.8,0,44.07,1.81,44.07-28.78s-29.22-29.24-36.45-30.91c-7.23-1.67-21.98-2.23-21.98-16.6
					c0-14.38,21.69-13.91,25.03-13.91c10.66,0,20.09,2.38,28.29,7.15v-3.22c11.31,26.86,32.66,78.07,32.66,81.95
					c0,5.29-2.5,10.57-4.73,15.58c-2.23,5.01-7.97,11.69-15.6,11.69c-2.71,0-8.89,0-8.89,0l-0.08,13.36c0,0,8.66,0,12.6,0
					c14.04,0,22.23-8.27,29.99-27.86l43.52-110.92H332.9z M50.32,305.77c5.65-5.32,12.51-7.98,20.59-7.98c8.36,0,14.9,2.53,19.6,7.6
					c4.7,5.07,7.09,12.15,7.16,21.25H39.86C41.19,318.05,44.67,311.09,50.32,305.77z M74.57,374.34c-10.73,0-19.17-2.98-25.3-8.94
					c-6.13-5.96-9.34-14.43-9.62-25.39h70.87c-3.9,5.39-6.14,11.9-6.14,19.14c0,2.97,0.39,5.73,1.12,8.29
					C96.15,372.61,84.98,374.34,74.57,374.34z M172.94,345.3c0,8.4-2.82,15.34-8.45,20.82c-5.63,5.48-12.77,8.22-21.42,8.22
					c-6.31,0-11.36-1.52-15.15-4.57c-3.79-3.04-5.69-6.97-5.69-11.78c0-6.6,2.05-13.69,6.16-16.29c4.11-2.6,14.38-6.17,20.64-6.17
					c6.27,0,23.89-0.78,23.89-0.78V345.3z M439.13,386.73h-25.46c0,0-16.42-29.73-17.56-31.28c-1.14-1.55-4.4-7.4-11.26-7.4
					c-2.9,0-9.57,0-9.57,0v38.67h-25.88V285.71h38.19c25.96,0,38.5,9.4,38.5,27.72c0,17.53-16.33,24.36-16.33,24.36v3.03
					c0,0,9.65,4.27,15.23,16.04C430.57,368.63,439.13,386.73,439.13,386.73z M375.86,303.35l-0.59,27.52h8.66
					c5.17,0,9.32-1.41,12.46-4.23c3.18-2.86,4.77-6.41,4.77-10.64c0-8.83-5-12.65-16.19-12.65H375.86z M467.37,351.93v34.8h-26.16
					V285.71h38.89c27.78,0,41.52,7.58,41.52,33.74c0,26.16-19.2,32.48-42.15,32.48H467.37z M467.37,303.18v29.62h8.43
					c13.22,0,19.83-2.78,19.83-14.05c0-11.27-6.61-15.57-19.83-15.57H467.37z M616.94,378.71c-10.52,5.68-23.58,9.18-39.21,9.18
					c-17.33,0-55.96-7.18-55.96-50.06s35.71-53.45,53.84-53.45c18.09,0,36.3,8.07,36.3,8.07v17.35c-8.31-4.51-18.48-6.76-30.5-6.76
					c-10.07,0-34.46,4.81-34.46,32.27c0,27.46,22.24,34.09,31.91,34.09c5.81,0,10.42-0.77,13.82-2.32v-19.73h-15.95V330.3h40.21
					V378.71z"/>
			</defs>
			<clipPath id="SVGID_6_">
				<use xlink:href="#SVGID_5_"  style="overflow:visible;"/>
			</clipPath>
			<path class="st7" d="M12.85,356.36c42.85-8.9,133.4-24.68,236.78-24.68c125.22,0,94.75,10.02,223.3,10.02
				c102.96,0,149.2-10.9,149.2-10.9l-6.73-54.21H21.6L12.85,356.36z"/>
		</g>
	</g>
</g>
</svg>
