<?xml version="1.0" encoding="utf-8"?>
<!-- Generator: Adobe Illustrator 24.2.1, SVG Export Plug-In . SVG Version: 6.00 Build 0)  -->
<svg version="1.1" xmlns="http://www.w3.org/2000/svg" xmlns:xlink="http://www.w3.org/1999/xlink" x="0px" y="0px"
	 viewBox="0 0 256 256" style="enable-background:new 0 0 256 256;" xml:space="preserve">
<style type="text/css">
	.st0{fill:#2E3D25;}
	.st1{fill:#559338;stroke:#88BA68;stroke-width:2;stroke-miterlimit:10;}
	.st2{fill:url(#SVGID_1_);stroke:#B0D19B;stroke-width:1.9896;stroke-miterlimit:10;}
	.st3{fill:url(#SVGID_2_);stroke:#5B7749;stroke-width:2.0174;stroke-miterlimit:10;}
	.st4{opacity:0.25;clip-path:url(#SVGID_4_);fill:#FFFFFF;}
</style>
<g id="Back">
	<path class="st0" d="M238.75,127.01c-2.32-35.95-21.29-67.35-49.29-86.59c-0.44-2.8-1.44-5.58-3.05-8.25
		c-4.29-7.12-17.26-17.67-28.12-21.47c-7.29-2.99-14.71-5.12-27.53-5.12s-23.24,1.79-36.24,9.29c-7.94,4.58-14.6,10.43-19.9,17.29
		C36.93,50.77,11,89.58,11,134.46c0,1.46,0.04,2.91,0.09,4.36c-0.81,0.95-1.55,1.99-2.21,3.12c-4.49,7.78-6.43,25.34-4.29,36.65
		c2.23,16.45,14.25,39.32,35,51.29c10.93,6.31,23.57,9.59,35.76,9.59c1.61,0,3.21-0.06,4.82-0.17c13.76,5.89,28.91,9.16,44.83,9.16
		c19.06,0,37.03-4.69,52.82-12.96c3.76,3.53,8.66,5.44,14.59,5.44c8.99,0,25.4-7.02,34.12-14.53c13.13-10.16,27-31.52,27-55.47
		C253.53,154.78,248.45,139.43,238.75,127.01z"/>
</g>
<g id="Rings">
	<circle class="st1" cx="125" cy="134.46" r="107.5"/>
	<radialGradient id="SVGID_1_" cx="126.4999" cy="138.5007" r="96" gradientUnits="userSpaceOnUse">
		<stop  offset="0" style="stop-color:#CDDEC2"/>
		<stop  offset="0.9972" style="stop-color:#9FC08A"/>
	</radialGradient>
	<circle class="st2" cx="126.5" cy="138.5" r="96"/>
</g>
<g id="Triskell">
	<radialGradient id="SVGID_2_" cx="129.0574" cy="123.4713" r="115.0071" gradientUnits="userSpaceOnUse">
		<stop  offset="0" style="stop-color:#65894E"/>
		<stop  offset="1" style="stop-color:#42632D"/>
	</radialGradient>
	<path class="st3" d="M181.88,105c-13.94,0-22.65,3.88-22.65,3.88s-2.94-0.64-5.23-0.65c-4.48-0.02-16.86,0.09-20.76,0.09
		c-23.53,0-32.63-17.91-32.63-31.28c0-2.34,0.15-12.6,8.84-21.28c11.54-12.69,28.35-8.5,28.35-8.5l-17.91,17.97
		c-3.65,3.6-6.12,7.53-6.12,12.35c0,7.29,6.47,17.59,17.71,17.59c7.47,0,12.29-5.35,14.12-7.18c1.82-1.82,28.31-27.5,32.18-31.29
		c6.63-6.51,7.48-14.18,3.65-20.82c-3.47-6.02-16.32-16.07-26.06-19.41c-5.93-2.46-15.05-4.34-24.35-4.35
		c-10.46-0.01-21.88,2.11-32.18,8.06C75.47,33.66,66.12,52.88,66.12,80.06c0,30.71,23.41,48,23.41,48s0.82,2.79,2.12,5.06
		c2.22,3.88,11.06,18.94,11.06,18.94s10.02,13.57,0.06,30.82c-8.08,14-26.33,20.67-42.06,11.59c-11.67-6.74-14-17.47-14-17.47
		l25.94,7.12c8.58,2.37,15.37-2.26,18.65-7.94s4.24-17.62-5.59-23.29c-2.62-1.51-5.41-2.24-8.41-3.12s-33.93-9.63-42.88-12.12
		c-8.96-2.49-15.81,1.12-19.65,7.76c-3.47,6.02-5.45,22.25-3.47,32.35c1.77,13.52,12.36,35.71,31.82,46.94
		c35.24,20.35,75.21,0.9,89.65-24.12c4.22-7.31,6.67-14.57,7.82-21.6c1.04-1.11,2.02-2.45,2.95-4.05
		c2.27-3.9,11.06-18.94,11.06-18.94s7.31-16.18,27.41-16.18c15.53,0,30.71,12.86,30.71,31.18c0,13.59-8.12,20.41-8.12,20.41
		l-6.82-25.76c-2.26-8.69-9.27-12.47-15.88-12.47c-7.71,0-17.71,5.49-17.71,16.94c0,3.06,1.02,6.11,1.76,9.18
		c0.74,3.06,8.3,33.22,10.65,42.29c2.34,9.08,8.56,13.24,16.29,13.24c7.01,0,22.06-6.03,29.89-12.85
		c10.92-8.37,24.83-28.2,24.83-50.87C247.61,130.06,212.71,105,181.88,105z"/>
</g>
<g id="Mask">
	<g>
		<defs>
			<path id="SVGID_3_" d="M238.75,127.01c-2.32-35.95-21.29-67.35-49.29-86.59c-0.44-2.8-1.44-5.58-3.05-8.25
				c-4.29-7.12-17.26-17.67-28.12-21.47c-7.29-2.99-14.71-5.12-27.53-5.12s-23.24,1.79-36.24,9.29c-7.94,4.58-14.6,10.43-19.9,17.29
				C36.93,50.77,11,89.58,11,134.46c0,1.46,0.04,2.91,0.09,4.36c-0.81,0.95-1.55,1.99-2.21,3.12c-4.49,7.78-6.43,25.34-4.29,36.65
				c2.23,16.45,14.25,39.32,35,51.29c10.93,6.31,23.57,9.59,35.76,9.59c1.61,0,3.21-0.06,4.82-0.17
				c13.76,5.89,28.91,9.16,44.83,9.16c19.06,0,37.03-4.69,52.82-12.96c3.76,3.53,8.66,5.44,14.59,5.44c8.99,0,25.4-7.02,34.12-14.53
				c13.13-10.16,27-31.52,27-55.47C253.53,154.78,248.45,139.43,238.75,127.01z"/>
		</defs>
		<clipPath id="SVGID_4_">
			<use xlink:href="#SVGID_3_"  style="overflow:visible;"/>
		</clipPath>
		<path class="st4" d="M253.53,2.59H2.29l0,203.06c0,0,41.49-46.74,113.53-82.22c58.94-29.03,114.88-42.85,114.88-42.85L253.53,2.59
			z"/>
	</g>
</g>
</svg>
