<?xml version="1.0" encoding="utf-8"?>
<!-- Generator: Adobe Illustrator 24.2.1, SVG Export Plug-In . SVG Version: 6.00 Build 0)  -->
<svg version="1.1" xmlns="http://www.w3.org/2000/svg" xmlns:xlink="http://www.w3.org/1999/xlink" x="0px" y="0px"
	 viewBox="0 0 256 256" style="enable-background:new 0 0 256 256;" xml:space="preserve">
<style type="text/css">
	.st0{fill:#FFFFFF;}
	.st1{fill:#0000C0;}
</style>
<g id="Layer_1_1_">
	<path d="M23.76,125.12"/>
	<g>
		<polygon points="61.6,25.67 61.6,70.96 43.41,89.02 111.94,89.02 120.34,80.62 120.34,60.32 110.15,70.51 80.37,70.51 
			80.37,57.61 103.91,57.61 113.21,48.31 103.91,39.01 80.28,39.01 80.28,26.11 110.06,26.11 120.34,36.39 120.34,15.96 
			111.81,7.69 43.35,7.69 		"/>
		<polygon points="142.35,89.02 210.65,89.02 192.61,70.97 192.61,54.67 182.28,54.67 173.75,63.21 173.75,70.51 152.37,70.51 
			152.37,26.19 173.61,26.19 173.61,33.37 182.15,41.9 192.47,41.9 192.47,25.78 210.65,7.6 142.18,7.6 133.69,16.09 133.69,80.35 
					"/>
		<polygon points="191.93,133.66 191.93,99.89 157.25,134.1 157.25,172.71 143.93,186.02 143.93,102.58 126.82,85.63 109.72,102.58 
			109.72,186.02 96.4,172.71 96.4,134.1 61.72,99.89 61.72,133.66 3.2,133.66 54.21,183.52 61.48,183.52 61.48,232.64 94.95,200.39 
			109.6,214.41 109.6,229.76 126.82,246.99 144.05,229.76 144.05,214.41 158.7,200.39 192.16,232.64 192.16,183.52 199.44,183.52 
			250.44,133.66 		"/>
	</g>
</g>
<g id="Layer_2">
	<path class="st0" d="M23.76,125.12"/>
	<g>
		<polygon class="st0" points="63.8,24.74 63.8,71.88 48.75,86.82 111.03,86.82 118.14,79.71 118.14,65.63 111.06,72.71 
			78.17,72.71 78.17,55.41 103,55.41 110.1,48.31 103,41.21 78.08,41.21 78.08,23.91 110.97,23.91 118.14,31.08 118.14,16.89 
			110.92,9.89 48.72,9.89 		"/>
		<polygon class="st0" points="143.27,86.82 205.34,86.82 190.41,71.88 190.41,56.87 183.19,56.87 175.95,64.12 175.95,72.71 
			150.17,72.71 150.17,23.99 175.81,23.99 175.81,32.46 183.06,39.7 190.27,39.7 190.27,24.87 205.34,9.8 143.09,9.8 135.89,17 
			135.89,79.44 		"/>
		<polygon class="st0" points="189.73,135.86 189.73,105.15 159.45,135.02 159.45,173.62 142.38,190.68 141.73,190.68 
			141.73,103.49 126.82,88.73 111.92,103.49 111.92,190.68 111.26,190.68 94.2,173.62 94.2,135.02 63.92,105.15 63.92,135.86 
			8.6,135.86 22.73,149.67 63.68,149.67 63.68,151.15 24.25,151.15 38.98,165.55 63.92,165.55 63.92,167.15 40.61,167.15 
			55.1,181.32 63.68,181.32 63.68,227.47 94.95,197.34 111.8,213.47 111.8,228.85 126.82,243.88 126.82,243.88 141.85,228.85 
			141.85,213.47 158.7,197.34 189.96,227.47 189.96,181.32 198.54,181.32 213.03,167.15 189.73,167.15 189.73,165.55 214.67,165.55 
			229.4,151.15 189.96,151.15 189.96,149.67 230.92,149.67 245.04,135.86 		"/>
	</g>
</g>
<g id="Layer_3">
	<polygon class="st1" points="115.94,70.94 115.94,78.79 110.12,84.62 54.09,84.62 66,72.79 66,23.82 54.09,12.09 110.03,12.09 
		115.94,17.82 115.94,25.76 111.88,21.71 75.88,21.71 75.88,43.41 102.09,43.41 106.99,48.31 102.09,53.21 75.97,53.21 75.97,74.91 
		111.97,74.91 	"/>
	<polygon class="st1" points="200.03,84.62 144.18,84.62 138.09,78.53 138.09,17.91 144,12 200.03,12 188.07,23.96 188.07,37.5 
		183.97,37.5 178.01,31.54 178.01,21.79 147.97,21.79 147.97,74.91 178.15,74.91 178.15,65.03 184.1,59.07 188.21,59.07 
		188.21,72.79 	"/>
	<polygon class="st1" points="230.02,147.47 239.65,138.06 187.53,138.06 187.53,110.41 161.65,135.94 161.65,174.53 143.29,192.88 
		139.53,192.88 139.53,104.41 126.82,91.82 114.12,104.41 114.12,192.88 110.35,192.88 92,174.53 92,135.94 66.12,110.41 
		66.12,138.06 14,138.06 23.63,147.47 65.88,147.47 65.88,153.35 29.64,153.35 39.87,163.35 66.12,163.35 66.12,169.35 
		46.01,169.35 56,179.12 65.88,179.12 65.88,222.29 94.94,194.29 114,212.53 114,227.94 126.82,240.75 139.65,227.94 139.65,212.53 
		158.71,194.29 187.76,222.29 187.76,179.12 197.65,179.12 207.64,169.35 187.53,169.35 187.53,163.35 213.77,163.35 224,153.35 
		187.76,153.35 187.76,147.47 	"/>
</g>
</svg>
