<?xml version="1.0" encoding="utf-8"?>
<!-- Generator: Adobe Illustrator 25.0.0, SVG Export Plug-In . SVG Version: 6.00 Build 0)  -->
<svg version="1.1" xmlns="http://www.w3.org/2000/svg" xmlns:xlink="http://www.w3.org/1999/xlink" x="0px" y="0px"
	 viewBox="0 0 256 256" style="enable-background:new 0 0 256 256;" xml:space="preserve">
<style type="text/css">
	.st0{fill:#808080;}
	.st1{fill:#FF0000;}
</style>
<g id="Layer_1">
</g>
<g id="Layer_3">
	<rect x="4" y="18" width="248" height="224"/>
	<path class="st0" d="M13,121.2c0,0,0.06-1.8,0.06-4l0,0c0-2.2,1.8-4,4-4h224c2.2,0,4,1.8,4,4l0,0c0,2.2-0.06,4-0.06,4H13z"/>
	<path class="st0" d="M7.84,248c-2.2,0-3.84-1.8-3.84-4v-4h248v4c0,2.2-1.37,4-4.01,4S7.84,248,7.84,248z"/>
</g>
<g id="Layer_2">
	<g>
		<path class="st1" d="M51.08,77.2c0-0.85-0.6-1.6-1.8-2.24c-1.2-0.64-2.56-0.96-4.06-0.96H20v4.8h19.9L20.55,101.2
			c-0.37,0.43-0.55,0.96-0.55,1.6c0,0.85,0.6,1.6,1.8,2.24c1.2,0.64,2.56,0.96,4.06,0.96h25.22v-4.8H31.16l19.35-22.4
			C50.89,78.37,51.08,77.84,51.08,77.2z"/>
		<polygon class="st1" points="79.28,74 70.91,84.41 62.53,74 53.54,74 66.41,90 53.54,106 62.53,106 70.91,95.59 79.28,106 
			88.28,106 75.4,90 88.28,74 		"/>
		<path class="st1" d="M113.56,76.66c-2.85-1.77-6.15-2.66-9.88-2.66c-3.73,0-7.03,0.89-9.88,2.66c-2.85,1.77-4.28,3.82-4.28,6.14
			c0,2.99,1.57,5.39,4.7,7.2c-3.13,1.81-4.7,3.95-4.7,6.4v0.8c0,2.32,1.43,4.37,4.28,6.14c2.85,1.77,6.15,2.66,9.88,2.66
			c3.73,0,7.02-0.89,9.88-2.66c2.85-1.77,4.28-3.82,4.28-6.14c0-2.99-1.57-5.38-4.7-7.2c3.13-1.81,4.7-3.95,4.7-6.4v-0.8
			C117.84,80.48,116.41,78.43,113.56,76.66z M108.44,99.64c-1.24,1.04-2.83,1.56-4.76,1.56c-1.93,0-3.52-0.52-4.76-1.56
			c-1.12-0.93-1.67-2.01-1.67-3.24c0-1.04,0.65-1.97,1.96-2.78c1.31-0.81,2.8-1.22,4.48-1.22c1.67,0,3.16,0.41,4.47,1.22
			c1.31,0.81,1.96,1.74,1.96,2.78C110.12,97.63,109.56,98.71,108.44,99.64z M108.15,86.38c-1.31,0.81-2.8,1.22-4.47,1.22
			c-1.68,0-3.16-0.41-4.48-1.22c-1.31-0.81-1.96-1.74-1.96-2.78c0-1.23,0.56-2.31,1.67-3.24c1.24-1.04,2.83-1.56,4.76-1.56
			c1.93,0,3.52,0.52,4.76,1.56c1.12,0.93,1.68,2.01,1.68,3.24C110.12,84.64,109.46,85.57,108.15,86.38z"/>
		<rect x="124.27" y="74" class="st1" width="7.73" height="32"/>
	</g>
	<g id="g28_1_">
		<path class="st0" d="M18,41.98V39.6h18.06v-2.69H18v-7.39h20.51v2.35H20.45v2.69h18.06v7.42H18z"/>
		<path class="st0" d="M40,41.98v-6.18v-6.1h2.45v6.1v6.18H40z"/>
		<path class="st0" d="M43.78,41.98V29.7h20.51v12.28h-2.45v-9.93h-15.6v9.93H43.78z"/>
		<path class="st0" d="M65.6,41.98V29.7h20.53v2.35H68.07v7.57h18.06v2.35H65.6z"/>
		<path class="st0" d="M87.77,41.98v-8V26h2.45v8v8h-2.45V41.98z"/>
		<path class="st0" d="M113.53,41.98v-6.14V29.7H116v6.14v6.14H113.53z"/>
		<path class="st0" d="M117.49,41.98V29.7H138v2.35h-18.06v9.93C119.94,41.98,118.3,41.98,117.49,41.98L117.49,41.98z"/>
		<path class="st0" d="M91.54,29.7v2.35h18.06v2.69H91.54v7.24h20.53V29.7H91.54z M109.59,39.6H94.01v-1.34v-1.34h15.58v1.34V39.6
			L109.59,39.6z"/>
		<path class="st0" d="M40,28.35v-1.19V26h2.45v1.19v1.19H40V28.35z"/>
		<path class="st0" d="M113.53,28.35v-1.19V26H116v1.19v1.19h-2.47V28.35z"/>
	</g>
	<g>
		<g>
			<g id="XMLID_1_">
				<g>
					<path class="st0" d="M37,148.81c0,1.4-0.9,2.55-2,2.55H22c-1.1,0-2-1.15-2-2.55v-8.26c0-1.4,0.9-2.55,2-2.55h12.99
						c1.1,0,2,1.15,2,2.55V148.81z"/>
				</g>
			</g>
			<g>
				<g>
					<path class="st0" d="M58,148.81c0,1.4-0.9,2.55-2,2.55H43c-1.1,0-2-1.15-2-2.55v-8.26c0-1.4,0.9-2.55,2-2.55H56
						c1.1,0,2,1.15,2,2.55V148.81z"/>
				</g>
			</g>
			<g>
				<g>
					<path class="st0" d="M79,148.81c0,1.4-0.9,2.55-2,2.55H64c-1.1,0-2-1.15-2-2.55v-8.26c0-1.4,0.9-2.55,2-2.55H77
						c1.1,0,2,1.15,2,2.55V148.81z"/>
				</g>
			</g>
			<g>
				<g>
					<path class="st0" d="M100,148.81c0,1.4-0.9,2.55-2,2.55H85c-1.1,0-2-1.15-2-2.55v-8.26c0-1.4,0.9-2.55,2-2.55H98
						c1.1,0,2,1.15,2,2.55V148.81z"/>
				</g>
			</g>
			<g>
				<g>
					<path class="st0" d="M121,148.81c0,1.4-0.9,2.55-2,2.55H106c-1.1,0-2-1.15-2-2.55v-8.26c0-1.4,0.9-2.55,2-2.55H119
						c1.1,0,2,1.15,2,2.55V148.81z"/>
				</g>
			</g>
			<g>
				<g>
					<path class="st0" d="M142,148.81c0,1.4-0.9,2.55-2,2.55h-12.99c-1.1,0-2-1.15-2-2.55v-8.26c0-1.4,0.9-2.55,2-2.55H140
						c1.1,0,2,1.15,2,2.55V148.81z"/>
				</g>
			</g>
			<g>
				<g>
					<path class="st0" d="M163,148.81c0,1.4-0.9,2.55-2,2.55h-12.99c-1.1,0-2-1.15-2-2.55v-8.26c0-1.4,0.9-2.55,2-2.55H161
						c1.1,0,2,1.15,2,2.55V148.81z"/>
				</g>
			</g>
			<g>
				<g>
					<path class="st0" d="M184,148.81c0,1.4-0.9,2.55-2,2.55h-12.99c-1.1,0-2-1.15-2-2.55v-8.26c0-1.4,0.9-2.55,2-2.55H182
						c1.1,0,2,1.15,2,2.55V148.81z"/>
				</g>
			</g>
			<g>
				<g>
					<path class="st0" d="M205,148.81c0,1.4-0.9,2.55-2,2.55h-12.99c-1.1,0-2-1.15-2-2.55v-8.26c0-1.4,0.9-2.55,2-2.55H203
						c1.1,0,2,1.15,2,2.55V148.81z"/>
				</g>
			</g>
			<g>
				<g>
					<path class="st0" d="M226,148.81c0,1.4-0.9,2.55-2,2.55h-12.99c-1.1,0-2-1.15-2-2.55v-8.26c0-1.4,0.9-2.55,2-2.55H224
						c1.1,0,2,1.15,2,2.55V148.81z"/>
				</g>
			</g>
		</g>
		<g>
			<g>
				<g>
					<path class="st0" d="M48,173.59c0,1.4-0.9,2.55-2,2.55H33c-1.1,0-2-1.15-2-2.55v-8.26c0-1.4,0.9-2.55,2-2.55h12.99
						c1.1,0,2,1.15,2,2.55V173.59z"/>
				</g>
			</g>
			<g>
				<g>
					<path class="st0" d="M69,173.59c0,1.4-0.9,2.55-2,2.55H54c-1.1,0-2-1.15-2-2.55v-8.26c0-1.4,0.9-2.55,2-2.55h12.99
						c1.1,0,2,1.15,2,2.55V173.59z"/>
				</g>
			</g>
			<g>
				<g>
					<path class="st0" d="M90,173.59c0,1.4-0.9,2.55-2,2.55H75c-1.1,0-2-1.15-2-2.55v-8.26c0-1.4,0.9-2.55,2-2.55h12.99
						c1.1,0,2,1.15,2,2.55V173.59z"/>
				</g>
			</g>
			<g>
				<g>
					<path class="st0" d="M111,173.59c0,1.4-0.9,2.55-2,2.55H96c-1.1,0-2-1.15-2-2.55v-8.26c0-1.4,0.9-2.55,2-2.55h12.99
						c1.1,0,2,1.15,2,2.55V173.59z"/>
				</g>
			</g>
			<g>
				<g>
					<path class="st0" d="M132,173.59c0,1.4-0.9,2.55-2,2.55H117c-1.1,0-2-1.15-2-2.55v-8.26c0-1.4,0.9-2.55,2-2.55H130
						c1.1,0,2,1.15,2,2.55V173.59z"/>
				</g>
			</g>
			<g>
				<g>
					<path class="st0" d="M153,173.59c0,1.4-0.9,2.55-2,2.55H138c-1.1,0-2-1.15-2-2.55v-8.26c0-1.4,0.9-2.55,2-2.55H151
						c1.1,0,2,1.15,2,2.55V173.59z"/>
				</g>
			</g>
			<g>
				<g>
					<path class="st0" d="M174,173.59c0,1.4-0.9,2.55-2,2.55H159c-1.1,0-2-1.15-2-2.55v-8.26c0-1.4,0.9-2.55,2-2.55H172
						c1.1,0,2,1.15,2,2.55V173.59z"/>
				</g>
			</g>
			<g>
				<g>
					<path class="st0" d="M195,173.59c0,1.4-0.9,2.55-2,2.55H180c-1.1,0-2-1.15-2-2.55v-8.26c0-1.4,0.9-2.55,2-2.55H193
						c1.1,0,2,1.15,2,2.55V173.59z"/>
				</g>
			</g>
			<g>
				<g>
					<path class="st0" d="M216,173.59c0,1.4-0.9,2.55-2,2.55h-12.99c-1.1,0-2-1.15-2-2.55v-8.26c0-1.4,0.9-2.55,2-2.55H214
						c1.1,0,2,1.15,2,2.55V173.59z"/>
				</g>
			</g>
			<g>
				<g>
					<path class="st0" d="M237,173.59c0,1.4-0.9,2.55-2,2.55h-12.99c-1.1,0-2-1.15-2-2.55v-8.26c0-1.4,0.9-2.55,2-2.55H235
						c1.1,0,2,1.15,2,2.55V173.59z"/>
				</g>
			</g>
		</g>
		<g>
			<g>
				<g>
					<path class="st0" d="M52.99,198.67c0,1.4-0.9,2.55-2,2.55H38c-1.1,0-2-1.15-2-2.55v-8.26c0-1.4,0.9-2.55,2-2.55h12.99
						c1.1,0,2,1.15,2,2.55V198.67z"/>
				</g>
			</g>
			<g>
				<g>
					<path class="st0" d="M74,198.67c0,1.4-0.9,2.55-2,2.55H59c-1.1,0-2-1.15-2-2.55v-8.26c0-1.4,0.9-2.55,2-2.55h12.99
						c1.1,0,2,1.15,2,2.55V198.67z"/>
				</g>
			</g>
			<g>
				<g>
					<path class="st0" d="M95,198.67c0,1.4-0.9,2.55-2,2.55H80c-1.1,0-2-1.15-2-2.55v-8.26c0-1.4,0.9-2.55,2-2.55h12.99
						c1.1,0,2,1.15,2,2.55V198.67z"/>
				</g>
			</g>
			<g>
				<g>
					<path class="st0" d="M116,198.67c0,1.4-0.9,2.55-2,2.55H101c-1.1,0-2-1.15-2-2.55v-8.26c0-1.4,0.9-2.55,2-2.55h12.99
						c1.1,0,2,1.15,2,2.55V198.67z"/>
				</g>
			</g>
			<g>
				<g>
					<path class="st0" d="M137,198.67c0,1.4-0.9,2.55-2,2.55H122c-1.1,0-2-1.15-2-2.55v-8.26c0-1.4,0.9-2.55,2-2.55h12.99
						c1.1,0,2,1.15,2,2.55V198.67z"/>
				</g>
			</g>
			<g>
				<g>
					<path class="st0" d="M158,198.67c0,1.4-0.9,2.55-2,2.55H143c-1.1,0-2-1.15-2-2.55v-8.26c0-1.4,0.9-2.55,2-2.55H156
						c1.1,0,2,1.15,2,2.55V198.67z"/>
				</g>
			</g>
			<g>
				<g>
					<path class="st0" d="M179,198.67c0,1.4-0.9,2.55-2,2.55H164c-1.1,0-2-1.15-2-2.55v-8.26c0-1.4,0.9-2.55,2-2.55H177
						c1.1,0,2,1.15,2,2.55V198.67z"/>
				</g>
			</g>
			<g>
				<g>
					<path class="st0" d="M200,198.67c0,1.4-0.9,2.55-2,2.55H185c-1.1,0-2-1.15-2-2.55v-8.26c0-1.4,0.9-2.55,2-2.55H198
						c1.1,0,2,1.15,2,2.55V198.67z"/>
				</g>
			</g>
			<g>
				<g>
					<path class="st0" d="M221,198.67c0,1.4-0.9,2.55-2,2.55H206c-1.1,0-2-1.15-2-2.55v-8.26c0-1.4,0.9-2.55,2-2.55H219
						c1.1,0,2,1.15,2,2.55V198.67z"/>
				</g>
			</g>
			<g>
				<g>
					<path class="st0" d="M242,198.67c0,1.4-0.9,2.55-2,2.55h-12.99c-1.1,0-2-1.15-2-2.55v-8.26c0-1.4,0.9-2.55,2-2.55H240
						c1.1,0,2,1.15,2,2.55V198.67z"/>
				</g>
			</g>
		</g>
		<g>
			<g>
				<g>
					<path class="st0" d="M43,223.45c0,1.4-0.9,2.55-2,2.55H28c-1.1,0-2-1.15-2-2.55v-8.26c0-1.4,0.9-2.55,2-2.55h12.99
						c1.1,0,2,1.15,2,2.55V223.45z"/>
				</g>
			</g>
			<g>
				<g>
					<path class="st0" d="M64,223.45c0,1.4-0.9,2.55-2,2.55H49c-1.1,0-2-1.15-2-2.55v-8.26c0-1.4,0.9-2.55,2-2.55h12.99
						c1.1,0,2,1.15,2,2.55V223.45z"/>
				</g>
			</g>
			<g>
				<g>
					<path class="st0" d="M85,223.45c0,1.4-0.9,2.55-2,2.55H70c-1.1,0-2-1.15-2-2.55v-8.26c0-1.4,0.9-2.55,2-2.55h12.99
						c1.1,0,2,1.15,2,2.55V223.45z"/>
				</g>
			</g>
			<g>
				<g>
					<path class="st0" d="M106,223.45c0,1.4-0.9,2.55-2,2.55H91c-1.1,0-2-1.15-2-2.55v-8.26c0-1.4,0.9-2.55,2-2.55H104
						c1.1,0,2,1.15,2,2.55V223.45z"/>
				</g>
			</g>
			<g>
				<g>
					<path class="st0" d="M127,223.45c0,1.4-0.9,2.55-2,2.55H112c-1.1,0-2-1.15-2-2.55v-8.26c0-1.4,0.9-2.55,2-2.55H125
						c1.1,0,2,1.15,2,2.55V223.45z"/>
				</g>
			</g>
			<g>
				<g>
					<path class="st0" d="M148,223.45c0,1.4-0.9,2.55-2,2.55H133c-1.1,0-2-1.15-2-2.55v-8.26c0-1.4,0.9-2.55,2-2.55H146
						c1.1,0,2,1.15,2,2.55V223.45z"/>
				</g>
			</g>
			<g>
				<g>
					<path class="st0" d="M169,223.45c0,1.4-0.9,2.55-2,2.55h-12.99c-1.1,0-2-1.15-2-2.55v-8.26c0-1.4,0.9-2.55,2-2.55H167
						c1.1,0,2,1.15,2,2.55V223.45z"/>
				</g>
			</g>
			<g>
				<g>
					<path class="st0" d="M190,223.45c0,1.4-0.9,2.55-2,2.55h-12.99c-1.1,0-2-1.15-2-2.55v-8.26c0-1.4,0.9-2.55,2-2.55H188
						c1.1,0,2,1.15,2,2.55V223.45z"/>
				</g>
			</g>
			<g>
				<g>
					<path class="st0" d="M211,223.45c0,1.4-0.9,2.55-2,2.55h-12.99c-1.1,0-2-1.15-2-2.55v-8.26c0-1.4,0.9-2.55,2-2.55H209
						c1.1,0,2,1.15,2,2.55V223.45z"/>
				</g>
			</g>
			<g>
				<g>
					<path class="st0" d="M232,223.45c0,1.4-0.9,2.55-2,2.55h-12.99c-1.1,0-2-1.15-2-2.55v-8.26c0-1.4,0.9-2.55,2-2.55H230
						c1.1,0,2,1.15,2,2.55V223.45z"/>
				</g>
			</g>
		</g>
	</g>
</g>
</svg>
