<svg xmlns="http://www.w3.org/2000/svg" viewBox="0 0 260 85">
  <defs>
    <style>
      .cls-5{fill:#000}
    </style>
  </defs>
  <path d="M11.89 58.61c3.92 0 6.75 2.69 6.75 6.43s-2.83 6.42-6.75 6.42-6.75-2.66-6.75-6.42 2.83-6.43 6.75-6.43ZM7.3 65.04c0 2.68 2 4.77 4.6 4.77s4.6-2.09 4.6-4.77a4.6 4.6 0 1 0-9.2 0Zm25.32-6.19 5.88 9.6h.04v-8.07h-1.9v-1.55h5.58v1.55h-2v10.95h-2.14l-6.44-10.57h-.04v8.89h1.96v1.55h-5.58v-1.55h1.94v-9.28h-1.94v-1.55l4.64.02Zm30.08.04v3.68h-1.64v-2.15h-5.65v3.64h4.92v1.53h-4.92v4.01h5.65v-2.24h1.64v3.77h-11V69.6h1.72v-9.18H51.7v-1.53h11Zm27.69 0v4.65h-1.6v-3.12h-2.67v9.18h1.7v1.53h-5.35V69.6h1.7v-9.18H81.5v3.12h-1.6v-4.65h10.5Zm43.37-.28c3.92 0 6.75 2.69 6.75 6.43s-2.83 6.42-6.75 6.42-6.75-2.66-6.75-6.42 2.83-6.43 6.75-6.43Zm-4.59 6.43c0 2.68 2 4.77 4.6 4.77s4.6-2.09 4.6-4.77a4.6 4.6 0 1 0-9.2 0Zm39.59-6.15v3.68h-1.64v-2.15h-5.66v3.64h4.94v1.53h-4.94v4.01h5.66v-2.24h1.64v3.77h-11.03V69.6h1.72v-9.18h-1.72v-1.53h11.03Zm16.9 0v1.53h-1.54v9.18h1.54v1.53h-5.21V69.6h1.54v-9.18h-1.54v-1.53h5.21Zm17.21-.08c1.77 0 3.16.41 4.62 1.52v-1.32h1.69v3.94h-1.69a4.99 4.99 0 0 0-4.44-2.54c-2.76 0-4.66 1.87-4.66 4.57s2.04 4.63 4.85 4.63c2.19 0 3.94-1.2 4.25-2.9h-2.39v-1.5h4.81v.21c0 4.03-3.05 5.79-6.7 5.79-5.1 0-7.01-3.34-7.01-6.25s2.08-6.15 6.66-6.15Zm22.92.21v1.5h-1.6v3.43h5.93v-3.43h-1.6v-1.5h5.17v1.5h-1.54v9h1.54v1.5h-5.17v-1.5h1.6v-4.07h-5.93v4.07h1.6v1.5h-5.17v-1.5h1.54v-9h-1.54v-1.5h5.17Zm29.04 0v4.56h-1.64v-3.06h-2.73v9h1.73v1.5h-5.46v-1.5h1.74v-9h-2.73v3.06h-1.64v-4.56h10.72Zm-141.75-.11v1.51h1.93l-2.42 7.91h-.04l-2.41-7.91h1.66v-1.51h-6.45v1.51h1.87l-2.36 7.91h-.04l-2.46-7.91h1.81v-1.51h-5.28v1.51h1.59l3.35 10.71h1.82l2.93-9.57h.03l2.95 9.57h1.88l3.27-10.71h1.55v-1.51h-5.18zM15.88 4.64v4.75h6.25v5h5V4.64H15.88zM5 4.64v4.75h3.63v33.25H5v4.75h9.13V4.64H5zm18.56 18.5h-7.62v4.37h7.62v-4.37zm-1.43 19.5h-6.25v4.75h11.25v-11.5h-5v6.75zM69.49 9.39V4.64h-9v11.25h5v-6.5h4zm6.93-4.75h-5.5v38h-4.5v4.75h14.5v-4.75h-4.5v-38zm1.42 0v4.75h4v6.5h5V4.64h-9zm22.02 0v4.75h6.25v5h5V4.64H99.86zm-10.88 0v4.75h3.63v33.25h-3.63v4.75h9.13V4.64h-9.13zm18.57 18.5h-7.63v4.37h7.63v-4.37zm-1.44 19.5h-6.25v4.75h11.25v-11.5h-5v6.75zm137.54-38v4.75h6.25v5h5V4.64h-11.25zm-10.87 0v4.75h3.62v33.25h-3.62v4.75h9.12V4.64h-9.12zm18.56 18.5h-7.62v4.37h7.62v-4.37zm-1.44 19.5h-6.25v4.75h11.25v-11.5h-5v6.75zm-83.25-38v4.75h3.12v33.25h-3.12v4.75h8.62V4.64h-8.62zm17.36 24.31h-5.37l5.74 18.44h6.5v-4.75h-2.61l-4.26-13.69zm.69-1.49.02.02 5.09-5.08V9.71l-5.09-5.09-.02.03v-.01h-8v4.75h5.12l2.94 2.93v7.82l-2.94 2.93h-5.12v4.4h8v-.01zM149.51 4.64h-8.62v4.75h3.12v33.25h-3.12v4.75h11.88v-4.75h-3.26v-38z" class="cls-5"/>
  <path d="M158.94 4.65v-.01h-8v4.75h5.12l2.94 2.93v7.82l-2.94 2.93h-5.12v4.4h8v-.01l.02.02 5.09-5.08V9.71l-5.09-5.09-.02.03zm34.46-.01v4.75h4.06v33.25h-4.06v4.75h13.62v-4.75h-4.06V9.39h4.06V4.64H193.4zm36.6-.02h-4.75v9.5H230v-9.5z" class="cls-5"/>
  <path d="M224.83 22.78h-7.6l-1.78-1.93v-8.88l2.49-2.58h5.93V4.64h-8.35l-5.91 5.42V22.4l5.18 5.08.02-.02v.01h6.78l2.96 2.98v8.88l-3.2 3.29h-5.57v4.75h7.99v-.01l.03.03 6.24-6.15V28.2l-5.21-5.42z" class="cls-5"/>
  <path d="M209.61 47.39h4.75v-12h-4.75v12zM114.07 4.64v4.75h3.12v33.25h-3.12v4.75h8.62V4.64h-8.62zm17.36 24.31h-5.37l5.74 18.44h6.5v-4.75h-2.61l-4.26-13.69zm.69-1.49.02.02 5.09-5.08V9.71l-5.09-5.09-.02.03v-.01h-8v4.75h5.13l2.93 2.93v7.82l-2.93 2.93h-5.13v4.4h8v-.01zM49.24 4.64v22.03l5.5 11.41V9.39h3.63V4.64h-9.13zm-15.65 38h-3.63v4.75h9.13V25.35l-5.5-11.41v28.7z" class="cls-5"/>
  <path d="M37.68 4.64h-7.72v4.75h3.7l16.99 38h7.72v-4.75h-3.72l-16.97-38z" class="cls-5"/>
  <path d="M47.19 53.7h38.82v-4.01H47.19v4.01z" style="fill:#f78e1e"/>
  <path d="M169.46 49.69h-37.89v4.01h37.89v-4.01z" style="fill:#02d47f"/>
  <path d="M128.33 49.69H89.25v4.01h39.08v-4.01z" style="fill:#f6ec1d"/>
  <path d="M211.3 49.69h-38.6v4.01h38.6v-4.01z" style="fill:#0abbff"/>
  <path d="M43.95 49.69H5v4.01h38.95v-4.01z" style="fill:#ed1c24"/>
  <path d="M254.9 49.69h-40.36v4.01h40.36v-4.01z" style="fill:#ff1f87"/>
</svg>