<?xml version="1.0" encoding="utf-8"?>
<!-- Generator: Adobe Illustrator 24.2.1, SVG Export Plug-In . SVG Version: 6.00 Build 0)  -->
<svg version="1.1"
	 id="Ebene_1" inkscape:version="0.91 r13725" sodipodi:docname="pi-fba_new.svg" xmlns:cc="http://creativecommons.org/ns#" xmlns:dc="http://purl.org/dc/elements/1.1/" xmlns:inkscape="http://www.inkscape.org/namespaces/inkscape" xmlns:rdf="http://www.w3.org/1999/02/22-rdf-syntax-ns#" xmlns:sodipodi="http://sodipodi.sourceforge.net/DTD/sodipodi-0.dtd" xmlns:svg="http://www.w3.org/2000/svg"
	 xmlns="http://www.w3.org/2000/svg" xmlns:xlink="http://www.w3.org/1999/xlink" x="0px" y="0px" viewBox="0 0 566.92 464"
	 style="enable-background:new 0 0 566.92 464;" xml:space="preserve">
<style type="text/css">
	.st0{fill-rule:evenodd;clip-rule:evenodd;fill:#FFE1B2;stroke:#000000;stroke-width:4;}
	.st1{fill-rule:evenodd;clip-rule:evenodd;fill:#FE822E;stroke:#333333;stroke-width:4;}
	.st2{fill-rule:evenodd;clip-rule:evenodd;fill:#FBD4A4;stroke:#000000;stroke-width:4;}
	.st3{fill-rule:evenodd;clip-rule:evenodd;fill:#FEC486;}
	.st4{fill-rule:evenodd;clip-rule:evenodd;fill:#FEF2BD;stroke:#FEF2BD;stroke-width:3;}
	.st5{fill-rule:evenodd;clip-rule:evenodd;fill:#FEF2BD;stroke:#FEF2BD;stroke-width:1.7785;}
	.st6{fill-rule:evenodd;clip-rule:evenodd;fill:#ED9954;}
	.st7{fill:none;stroke:#4D4D4D;stroke-width:4;}
	.st8{fill-rule:evenodd;clip-rule:evenodd;fill:#FCC486;}
	.st9{fill:none;}
	.st10{fill-rule:evenodd;clip-rule:evenodd;fill:#F7C589;}
	.st11{fill-rule:evenodd;clip-rule:evenodd;fill:#FFB978;}
	.st12{fill-rule:evenodd;clip-rule:evenodd;fill:#FEB46D;}
	.st13{fill-rule:evenodd;clip-rule:evenodd;fill:#E79552;}
	.st14{fill-rule:evenodd;clip-rule:evenodd;fill:#FAB474;}
	.st15{fill-rule:evenodd;clip-rule:evenodd;fill:#F6D998;}
	.st16{fill-rule:evenodd;clip-rule:evenodd;fill:#FEC887;}
	.st17{fill-rule:evenodd;clip-rule:evenodd;fill:#FED08F;}
	.st18{fill-rule:evenodd;clip-rule:evenodd;fill:#FCD9AA;}
	.st19{fill-rule:evenodd;clip-rule:evenodd;fill:#FCD4A4;}
	.st20{fill-rule:evenodd;clip-rule:evenodd;fill:#FED9A8;}
	.st21{fill-rule:evenodd;clip-rule:evenodd;fill:#FCDBAC;}
	.st22{fill-rule:evenodd;clip-rule:evenodd;fill:#FEE5B6;}
	.st23{fill-rule:evenodd;clip-rule:evenodd;fill:#EFD8AC;}
	.st24{fill-rule:evenodd;clip-rule:evenodd;fill:#FEDCA6;}
	.st25{fill-rule:evenodd;clip-rule:evenodd;fill:#F3A0EF;}
	.st26{fill-rule:evenodd;clip-rule:evenodd;fill:#EBC4FD;}
	.st27{fill-rule:evenodd;clip-rule:evenodd;fill:#ECB57B;}
</style>
<sodipodi:namedview  bordercolor="#666666" borderopacity="1" fit-margin-bottom="0" fit-margin-left="0" fit-margin-right="0" fit-margin-top="0" gridtolerance="10" guidetolerance="10" id="namedview4176" inkscape:current-layer="Ebene_1" inkscape:cx="-613.00809" inkscape:cy="308.55759" inkscape:pageopacity="0" inkscape:pageshadow="2" inkscape:window-height="1137" inkscape:window-maximized="1" inkscape:window-width="1920" inkscape:window-x="-8" inkscape:window-y="-8" inkscape:zoom="0.51424078" objecttolerance="10" pagecolor="#ffffff" showgrid="false">
	</sodipodi:namedview>
<g id="g6294">
	<g id="g4251" transform="translate(0.14238862,2.2020076)">
		<path id="path4160" inkscape:connector-curvature="0" class="st0" d="M564.91,182.71l-178.77-0.05L2,60.92c0,0,0-39.14,0-58.88
			c1.72-0.08,177.23-0.01,263.4-0.01c64.02,0,128.04,0.01,192.06,0c24.29,0,45.37,8.63,63.73,24.11
			c22.35,18.86,35.85,43.24,43.3,71.22c0.34,1.29,0.42,2.67,0.42,4.01C564.93,127.19,564.91,182.71,564.91,182.71L564.91,182.71z"/>
		<path id="path4166" inkscape:connector-curvature="0" class="st1" d="M342.67,178.99c0,49.43,0,98.42,0,147.98
			c16.68,0,33.03,0,49.63,0c0,43.62,0,86.67,0,129.99c-89.91,0-179.57,0-269.52,0c0-22.3,0-44.38,0-66.88
			c21.75-10.97,43.65-22.02,65.86-33.22c0-75.39,0-150.66,0-226.68C240.27,146.53,291.26,162.69,342.67,178.99L342.67,178.99z"/>
		<path id="path4172" inkscape:connector-curvature="0" class="st2" d="M360.12,196.7c68.27,0,136.28,0,204.54,0
			c0,38.09,0,75.92,0,114.01c-68.27,0-136.28,0-204.54,0C360.12,272.62,360.12,234.79,360.12,196.7z"/>
		<path id="path8436-5" inkscape:connector-curvature="0" class="st3" d="M499.38,290.1l65.31-52.25v30.94l-50.19,38.5L499.38,290.1
			z"/>
		<path id="path8440-0" inkscape:connector-curvature="0" sodipodi:nodetypes="ccccc" class="st3" d="M425.81,299.03l-14.95,10.14
			l20.97,1.89l4.98-5.16L425.81,299.03z"/>
		<path id="path8448-4" inkscape:connector-curvature="0" sodipodi:nodetypes="ccc" class="st4" d="M476.18,270.65l88.04-69.18l0,0"
			/>
		<path id="path8438-9" inkscape:connector-curvature="0" sodipodi:nodetypes="ccccccc" class="st3" d="M495.94,288.72l-19.25-21.31
			l-20.7,15.05l-20.55,20.87l9.63,8.25l26.99-0.86L495.94,288.72z"/>
		<path id="path8442-2" inkscape:connector-curvature="0" sodipodi:nodetypes="cccccccc" class="st3" d="M362.56,286.66
			c2.75-0.69,37.13-24.75,37.13-24.75l-8.94-14.44l49.5-31.63l-11.69-17.19l90.07-2.06L362.35,309.06L362.56,286.66z"/>
		<path id="path8452-1" inkscape:connector-curvature="0" sodipodi:nodetypes="ccc" class="st4" d="M523.83,311.02l39.87-30.79l0,0"
			/>
		<path id="path8454-1" inkscape:connector-curvature="0" sodipodi:nodetypes="ccc" class="st5" d="M542.19,310.64l21.03-16.82l0,0"
			/>
		<path id="path4297" inkscape:connector-curvature="0" sodipodi:nodetypes="ccccccccc" class="st6" d="M390.69,245.25l-28.93,18.65
			l-0.67-28.57l10.31-8.84l-7.65-10.67l28.49-18.53c9.01-0.38,18-0.19,27,0.04l-41.91,27.15L390.69,245.25z"/>
		<path id="path4284" inkscape:connector-curvature="0" class="st7" d="M360.12,196.7c68.27,0,136.28,0,204.54,0
			c0,38.09,0,75.92,0,114.01c-68.27,0-136.28,0-204.54,0C360.12,272.62,360.12,234.79,360.12,196.7z"/>
		<g id="g4339" transform="matrix(0.89946349,0,0,0.89946349,401.13587,339.72428)">
			<path id="path4299" inkscape:connector-curvature="0" class="st3" d="M91.4-176.93l45.7-27.22l18.47,25.28L91.4-176.93z"/>
			<path id="path4301" inkscape:connector-curvature="0" sodipodi:nodetypes="ccccc" class="st8" d="M83.55-175.96l51.6-31.11
				l-12.99-17.64l-71.6,46.81L83.55-175.96z"/>
			<path id="path4303" inkscape:connector-curvature="0" class="st9" d="M18.47-174.99l-13.61-17.5l-21.39,12.64L18.47-174.99z"/>
			<path id="path4305" inkscape:connector-curvature="0" sodipodi:nodetypes="ccccccccccccccccc" class="st10" d="M-66.39-216.94
				l-21.12,15.7l-10.7-1.94l-7.15-1.25l28.55-24.03l7.78,5.83l43.75-29.17l-18.47-24.31L63.2-333.47l-24.31-45.7l44.73,4.86
				l41.81,18.47l31.11,38.89L-59.31-191.52l-17.5-5.83l17.43-13.4L-66.39-216.94z"/>
			<path id="path4307" inkscape:connector-curvature="0" sodipodi:nodetypes="ccccccccccc" class="st11" d="M-46.67-276.11
				l-43.75,37.92l-28.93,29.5l-16.99-5.63l8.97-17.07l6.81,2.92l18.47-25.28l-12.64-11.67l29.17-23.34l22.36-14.58L-46.67-276.11z"
				/>
			<path id="path4309" inkscape:connector-curvature="0" sodipodi:nodetypes="cccccccc" class="st12" d="M-143.69-217.01
				l12.43-27.01l14.58-19.45l-16.53-8.75l-21.39,27.22l8.75,4.86l-9.29,19.55L-143.69-217.01z"/>
			<path id="path4311" inkscape:connector-curvature="0" sodipodi:nodetypes="ccccc" class="st13" d="M-167.14-222.91l9.62-18.2
				l-7.78-3.89l-9.31,18.96L-167.14-222.91z"/>
			<path id="path4313" inkscape:connector-curvature="0" sodipodi:nodetypes="cccccccccccccccccccccccccccc" class="st14" d="
				M-187.8-229.71l16.67-31.81l26.25-32.09l41.81-35.98l52.5-31.11l54.45-15.56l-134.18,1.94l-60.28,44.73l-26.25-25.28
				l-35.98,27.22l-25.28,28.2l-21.39-17.5l-32.5,41.53l40.28,12.64l15.56-35.7l24.31,16.53l-12.57,28.13l22.22,8.75l13.69-35.91
				l15.56-26.25l16.53-19.45l27.22,22.36l-26.25,37.92l10.7,2.92l-8.68,19.65l-8.75-3.47l-3.27,11.04L-187.8-229.71z"/>
			<path id="path4315" inkscape:connector-curvature="0" class="st9" d="M-204.18-241.1l4.86-24.31l-10.7-4.86l-7.78,23.34
				L-204.18-241.1z"/>
			<path id="path4317" inkscape:connector-curvature="0" sodipodi:nodetypes="cccccc" class="st6" d="M-396.16-296.85l29.94-25.78
				l88.14-54.6l-168.21,2.92l4.32,63.53L-396.16-296.85z"/>
			<path id="path4319" inkscape:connector-curvature="0" class="st15" d="M-203.21-376.26l-49.59,32.09l-38.89,31.11l-7.78-4.86
				l51.53-40.84l35.98-21.39L-203.21-376.26z"/>
			<path id="path4321" inkscape:connector-curvature="0" class="st16" d="M-63.2-218.74l202.24-115.7l6.81,0.97L-62.23-213.88
				L-63.2-218.74z"/>
			<path id="path4323" inkscape:connector-curvature="0" sodipodi:nodetypes="ccccc" class="st17" d="M-30.63-264.68l159.94-87.26
				l1.94,5.83l-159.18,86.11L-30.63-264.68z"/>
			<path id="path4325" inkscape:connector-curvature="0" class="st18" d="M-34.03-184.91l200.41-117.22l-4.13-4.13L-43.31-188.69
				L-34.03-184.91z"/>
			<path id="path4327" inkscape:connector-curvature="0" class="st19" d="M-22.69-181.47l196.29-110l-3.44-3.78l-198.69,113.1
				L-22.69-181.47z"/>
			<path id="path4329" inkscape:connector-curvature="0" class="st20" d="M9.28-189.72l-2.75-3.44l167.76-94.19l2.06,3.78
				L9.28-189.72z"/>
			<path id="path4331" inkscape:connector-curvature="0" class="st21" d="M18.22-180.79l161.22-93.16l-1.03-6.53L12.38-185.6
				L18.22-180.79z"/>
			<path id="path4333" inkscape:connector-curvature="0" class="st22" d="M138.19-205.54c2.06-0.69,45.72-27.5,45.72-27.5
				l-2.06,21.31l-34.03,20.28L138.19-205.54z"/>
			<path id="path4335" inkscape:connector-curvature="0" class="st23" d="M157.79-180.44l25.78-15.47l-1.72-10.31l-30.59,17.88
				l5.5,6.88L157.79-180.44z"/>
			<path id="path4337" inkscape:connector-curvature="0" class="st24" d="M-121.35-275.66l30.25-26.81l33.69-20.63l46.75-22.34
				l51.56-22.34l2.41,2.75l-57.06,25.09l-45.72,21.31l-30.59,20.63l-27.5,25.09L-121.35-275.66z"/>
		</g>
		<path id="path4361" inkscape:connector-curvature="0" class="st7" d="M564.91,182.71l-178.77-0.05L2,60.92c0,0,0-39.14,0-58.88
			c1.72-0.08,177.23-0.01,263.4-0.01c64.02,0,128.04,0.01,192.06,0c24.29,0,45.37,8.63,63.73,24.11
			c22.35,18.86,35.85,43.24,43.3,71.22c0.34,1.29,0.42,2.67,0.42,4.01C564.93,127.19,564.91,182.71,564.91,182.71L564.91,182.71z"/>
		<g id="g4381" transform="matrix(0.70319226,-0.07431053,0.07431053,0.70319226,322.28899,255.20228)">
			
				<path id="path4379" inkscape:flatsided="false" inkscape:randomized="0" inkscape:rounded="0" inkscape:transform-center-x="-1.5524594" inkscape:transform-center-y="1.5999825" sodipodi:arg1="1.0251413" sodipodi:arg2="1.6534598" sodipodi:cx="-187.16913" sodipodi:cy="64.685806" sodipodi:r1="15.924777" sodipodi:r2="6.0147243" sodipodi:sides="5" sodipodi:type="star" class="st25" d="
				M-139.48,217.97l-11.13-20.14l-25.07,3.34l18.23-15.58l-11.34-20.05l22.4,10.51l18.06-15.73l-4.39,22.08l22.51,10.32l-25.11,3.13
				L-139.48,217.97z"/>
			
				<path id="path4377" inkscape:flatsided="false" inkscape:randomized="0" inkscape:rounded="0" inkscape:transform-center-x="-0.95295582" inkscape:transform-center-y="0.98212195" sodipodi:arg1="1.0251413" sodipodi:arg2="1.6534598" sodipodi:cx="-187.16913" sodipodi:cy="64.685806" sodipodi:r1="15.924777" sodipodi:r2="6.0147243" sodipodi:sides="5" sodipodi:type="star" class="st26" d="
				M-140.82,206.84l-6.83-12.36l-15.39,2.05l11.19-9.56l-6.96-12.31l13.75,6.45l11.09-9.66l-2.69,13.55l13.82,6.34l-15.41,1.92
				L-140.82,206.84z"/>
		</g>
		<g id="g4385" transform="matrix(0.36914319,-0.03900957,0.03900957,0.36914319,240.13822,318.96668)">
			
				<path id="path4387" inkscape:flatsided="false" inkscape:randomized="0" inkscape:rounded="0" inkscape:transform-center-x="-1.5524594" inkscape:transform-center-y="1.5999825" sodipodi:arg1="1.0251413" sodipodi:arg2="1.6534598" sodipodi:cx="-187.16913" sodipodi:cy="64.685806" sodipodi:r1="15.924777" sodipodi:r2="6.0147243" sodipodi:sides="5" sodipodi:type="star" class="st25" d="
				M-139.48,217.97l-11.13-20.14l-25.07,3.34l18.23-15.58l-11.34-20.05l22.4,10.51l18.06-15.73l-4.39,22.08l22.51,10.32l-25.11,3.13
				L-139.48,217.97z"/>
			
				<path id="path4389" inkscape:flatsided="false" inkscape:randomized="0" inkscape:rounded="0" inkscape:transform-center-x="-0.95295582" inkscape:transform-center-y="0.98212195" sodipodi:arg1="1.0251413" sodipodi:arg2="1.6534598" sodipodi:cx="-187.16913" sodipodi:cy="64.685806" sodipodi:r1="15.924777" sodipodi:r2="6.0147243" sodipodi:sides="5" sodipodi:type="star" class="st26" d="
				M-140.82,206.84l-6.83-12.36l-15.39,2.05l11.19-9.56l-6.96-12.31l13.75,6.45l11.09-9.66l-2.69,13.55l13.82,6.34l-15.41,1.92
				L-140.82,206.84z"/>
		</g>
		<g id="g4391" transform="matrix(0.36914319,-0.03900957,0.03900957,0.36914319,262.8448,366.12647)">
			
				<path id="path4393" inkscape:flatsided="false" inkscape:randomized="0" inkscape:rounded="0" inkscape:transform-center-x="-1.5524594" inkscape:transform-center-y="1.5999825" sodipodi:arg1="1.0251413" sodipodi:arg2="1.6534598" sodipodi:cx="-187.16913" sodipodi:cy="64.685806" sodipodi:r1="15.924777" sodipodi:r2="6.0147243" sodipodi:sides="5" sodipodi:type="star" class="st25" d="
				M-139.48,217.97l-11.13-20.14l-25.07,3.34l18.23-15.58l-11.34-20.05l22.4,10.51l18.06-15.73l-4.39,22.08l22.51,10.32l-25.11,3.13
				L-139.48,217.97z"/>
			
				<path id="path4395" inkscape:flatsided="false" inkscape:randomized="0" inkscape:rounded="0" inkscape:transform-center-x="-0.95295582" inkscape:transform-center-y="0.98212195" sodipodi:arg1="1.0251413" sodipodi:arg2="1.6534598" sodipodi:cx="-187.16913" sodipodi:cy="64.685806" sodipodi:r1="15.924777" sodipodi:r2="6.0147243" sodipodi:sides="5" sodipodi:type="star" class="st26" d="
				M-140.82,206.84l-6.83-12.36l-15.39,2.05l11.19-9.56l-6.96-12.31l13.75,6.45l11.09-9.66l-2.69,13.55l13.82,6.34l-15.41,1.92
				L-140.82,206.84z"/>
		</g>
		<g id="g4397" transform="matrix(0.36914319,-0.03900957,0.03900957,0.36914319,317.86454,362.19648)">
			
				<path id="path4399" inkscape:flatsided="false" inkscape:randomized="0" inkscape:rounded="0" inkscape:transform-center-x="-1.5524594" inkscape:transform-center-y="1.5999825" sodipodi:arg1="1.0251413" sodipodi:arg2="1.6534598" sodipodi:cx="-187.16913" sodipodi:cy="64.685806" sodipodi:r1="15.924777" sodipodi:r2="6.0147243" sodipodi:sides="5" sodipodi:type="star" class="st25" d="
				M-139.48,217.97l-11.13-20.14l-25.07,3.34l18.23-15.58l-11.34-20.05l22.4,10.51l18.06-15.73l-4.39,22.08l22.51,10.32l-25.11,3.13
				L-139.48,217.97z"/>
			
				<path id="path4401" inkscape:flatsided="false" inkscape:randomized="0" inkscape:rounded="0" inkscape:transform-center-x="-0.95295582" inkscape:transform-center-y="0.98212195" sodipodi:arg1="1.0251413" sodipodi:arg2="1.6534598" sodipodi:cx="-187.16913" sodipodi:cy="64.685806" sodipodi:r1="15.924777" sodipodi:r2="6.0147243" sodipodi:sides="5" sodipodi:type="star" class="st26" d="
				M-140.82,206.84l-6.83-12.36l-15.39,2.05l11.19-9.56l-6.96-12.31l13.75,6.45l11.09-9.66l-2.69,13.55l13.82,6.34l-15.41,1.92
				L-140.82,206.84z"/>
		</g>
		<g id="g4403" transform="matrix(0.36914319,-0.03900957,0.03900957,0.36914319,341.88111,308.05006)">
			
				<path id="path4405" inkscape:flatsided="false" inkscape:randomized="0" inkscape:rounded="0" inkscape:transform-center-x="-1.5524594" inkscape:transform-center-y="1.5999825" sodipodi:arg1="1.0251413" sodipodi:arg2="1.6534598" sodipodi:cx="-187.16913" sodipodi:cy="64.685806" sodipodi:r1="15.924777" sodipodi:r2="6.0147243" sodipodi:sides="5" sodipodi:type="star" class="st25" d="
				M-139.48,217.97l-11.13-20.14l-25.07,3.34l18.23-15.58l-11.34-20.05l22.4,10.51l18.06-15.73l-4.39,22.08l22.51,10.32l-25.11,3.13
				L-139.48,217.97z"/>
			
				<path id="path4407" inkscape:flatsided="false" inkscape:randomized="0" inkscape:rounded="0" inkscape:transform-center-x="-0.95295582" inkscape:transform-center-y="0.98212195" sodipodi:arg1="1.0251413" sodipodi:arg2="1.6534598" sodipodi:cx="-187.16913" sodipodi:cy="64.685806" sodipodi:r1="15.924777" sodipodi:r2="6.0147243" sodipodi:sides="5" sodipodi:type="star" class="st26" d="
				M-140.82,206.84l-6.83-12.36l-15.39,2.05l11.19-9.56l-6.96-12.31l13.75,6.45l11.09-9.66l-2.69,13.55l13.82,6.34l-15.41,1.92
				L-140.82,206.84z"/>
		</g>
		<g id="g4409" transform="matrix(0.36914319,-0.03900957,0.03900957,0.36914319,314.80789,248.66366)">
			
				<path id="path4411" inkscape:flatsided="false" inkscape:randomized="0" inkscape:rounded="0" inkscape:transform-center-x="-1.5524594" inkscape:transform-center-y="1.5999825" sodipodi:arg1="1.0251413" sodipodi:arg2="1.6534598" sodipodi:cx="-187.16913" sodipodi:cy="64.685806" sodipodi:r1="15.924777" sodipodi:r2="6.0147243" sodipodi:sides="5" sodipodi:type="star" class="st25" d="
				M-139.48,217.97l-11.13-20.14l-25.07,3.34l18.23-15.58l-11.34-20.05l22.4,10.51l18.06-15.73l-4.39,22.08l22.51,10.32l-25.11,3.13
				L-139.48,217.97z"/>
			
				<path id="path4413" inkscape:flatsided="false" inkscape:randomized="0" inkscape:rounded="0" inkscape:transform-center-x="-0.95295582" inkscape:transform-center-y="0.98212195" sodipodi:arg1="1.0251413" sodipodi:arg2="1.6534598" sodipodi:cx="-187.16913" sodipodi:cy="64.685806" sodipodi:r1="15.924777" sodipodi:r2="6.0147243" sodipodi:sides="5" sodipodi:type="star" class="st26" d="
				M-140.82,206.84l-6.83-12.36l-15.39,2.05l11.19-9.56l-6.96-12.31l13.75,6.45l11.09-9.66l-2.69,13.55l13.82,6.34l-15.41,1.92
				L-140.82,206.84z"/>
		</g>
		<g id="g4415" transform="matrix(0.36914319,-0.03900957,0.03900957,0.36914319,278.12806,275.30021)">
			
				<path id="path4417" inkscape:flatsided="false" inkscape:randomized="0" inkscape:rounded="0" inkscape:transform-center-x="-1.5524594" inkscape:transform-center-y="1.5999825" sodipodi:arg1="1.0251413" sodipodi:arg2="1.6534598" sodipodi:cx="-187.16913" sodipodi:cy="64.685806" sodipodi:r1="15.924777" sodipodi:r2="6.0147243" sodipodi:sides="5" sodipodi:type="star" class="st25" d="
				M-139.48,217.97l-11.13-20.14l-25.07,3.34l18.23-15.58l-11.34-20.05l22.4,10.51l18.06-15.73l-4.39,22.08l22.51,10.32l-25.11,3.13
				L-139.48,217.97z"/>
			
				<path id="path4419" inkscape:flatsided="false" inkscape:randomized="0" inkscape:rounded="0" inkscape:transform-center-x="-0.95295582" inkscape:transform-center-y="0.98212195" sodipodi:arg1="1.0251413" sodipodi:arg2="1.6534598" sodipodi:cx="-187.16913" sodipodi:cy="64.685806" sodipodi:r1="15.924777" sodipodi:r2="6.0147243" sodipodi:sides="5" sodipodi:type="star" class="st26" d="
				M-140.82,206.84l-6.83-12.36l-15.39,2.05l11.19-9.56l-6.96-12.31l13.75,6.45l11.09-9.66l-2.69,13.55l13.82,6.34l-15.41,1.92
				L-140.82,206.84z"/>
		</g>
		<g id="g4421" transform="matrix(0.40971821,-0.0405785,0.04329737,0.38398982,400.10985,316.38499)">
			
				<path id="path4423" inkscape:flatsided="false" inkscape:randomized="0" inkscape:rounded="0" inkscape:transform-center-x="-1.5524594" inkscape:transform-center-y="1.5999825" sodipodi:arg1="1.0251413" sodipodi:arg2="1.6534598" sodipodi:cx="-187.16913" sodipodi:cy="64.685806" sodipodi:r1="15.924777" sodipodi:r2="6.0147243" sodipodi:sides="5" sodipodi:type="star" class="st25" d="
				M-139.48,217.97l-11.13-20.14l-25.07,3.34l18.23-15.58l-11.34-20.05l22.4,10.51l18.06-15.73l-4.39,22.08l22.51,10.32l-25.11,3.13
				L-139.48,217.97z"/>
			
				<path id="path4425" inkscape:flatsided="false" inkscape:randomized="0" inkscape:rounded="0" inkscape:transform-center-x="-0.95295582" inkscape:transform-center-y="0.98212195" sodipodi:arg1="1.0251413" sodipodi:arg2="1.6534598" sodipodi:cx="-187.16913" sodipodi:cy="64.685806" sodipodi:r1="15.924777" sodipodi:r2="6.0147243" sodipodi:sides="5" sodipodi:type="star" class="st26" d="
				M-140.82,206.84l-6.83-12.36l-15.39,2.05l11.19-9.56l-6.96-12.31l13.75,6.45l11.09-9.66l-2.69,13.55l13.82,6.34l-15.41,1.92
				L-140.82,206.84z"/>
		</g>
		<g id="g4427" transform="matrix(0.30828068,-0.03053212,0.03257787,0.2889221,372.6558,353.35514)">
			
				<path id="path4429" inkscape:flatsided="false" inkscape:randomized="0" inkscape:rounded="0" inkscape:transform-center-x="-1.5524594" inkscape:transform-center-y="1.5999825" sodipodi:arg1="1.0251413" sodipodi:arg2="1.6534598" sodipodi:cx="-187.16913" sodipodi:cy="64.685806" sodipodi:r1="15.924777" sodipodi:r2="6.0147243" sodipodi:sides="5" sodipodi:type="star" class="st25" d="
				M-139.48,217.97l-11.13-20.14l-25.07,3.34l18.23-15.58l-11.34-20.05l22.4,10.51l18.06-15.73l-4.39,22.08l22.51,10.32l-25.11,3.13
				L-139.48,217.97z"/>
			
				<path id="path4431" inkscape:flatsided="false" inkscape:randomized="0" inkscape:rounded="0" inkscape:transform-center-x="-0.95295582" inkscape:transform-center-y="0.98212195" sodipodi:arg1="1.0251413" sodipodi:arg2="1.6534598" sodipodi:cx="-187.16913" sodipodi:cy="64.685806" sodipodi:r1="15.924777" sodipodi:r2="6.0147243" sodipodi:sides="5" sodipodi:type="star" class="st26" d="
				M-140.82,206.84l-6.83-12.36l-15.39,2.05l11.19-9.56l-6.96-12.31l13.75,6.45l11.09-9.66l-2.69,13.55l13.82,6.34l-15.41,1.92
				L-140.82,206.84z"/>
		</g>
		<g id="g4433" transform="matrix(0.28402831,-0.03001497,0.03001497,0.28402831,299.48104,319.35737)">
			
				<path id="path4435" inkscape:flatsided="false" inkscape:randomized="0" inkscape:rounded="0" inkscape:transform-center-x="-1.5524594" inkscape:transform-center-y="1.5999825" sodipodi:arg1="1.0251413" sodipodi:arg2="1.6534598" sodipodi:cx="-187.16913" sodipodi:cy="64.685806" sodipodi:r1="15.924777" sodipodi:r2="6.0147243" sodipodi:sides="5" sodipodi:type="star" class="st25" d="
				M-139.48,217.97l-11.13-20.14l-25.07,3.34l18.23-15.58l-11.34-20.05l22.4,10.51l18.06-15.73l-4.39,22.08l22.51,10.32l-25.11,3.13
				L-139.48,217.97z"/>
			
				<path id="path4437" inkscape:flatsided="false" inkscape:randomized="0" inkscape:rounded="0" inkscape:transform-center-x="-0.95295582" inkscape:transform-center-y="0.98212195" sodipodi:arg1="1.0251413" sodipodi:arg2="1.6534598" sodipodi:cx="-187.16913" sodipodi:cy="64.685806" sodipodi:r1="15.924777" sodipodi:r2="6.0147243" sodipodi:sides="5" sodipodi:type="star" class="st26" d="
				M-140.82,206.84l-6.83-12.36l-15.39,2.05l11.19-9.56l-6.96-12.31l13.75,6.45l11.09-9.66l-2.69,13.55l13.82,6.34l-15.41,1.92
				L-140.82,206.84z"/>
		</g>
		<g id="g4439" transform="matrix(0.28402831,-0.03001497,0.03001497,0.28402831,256.68789,314.1174)">
			
				<path id="path4441" inkscape:flatsided="false" inkscape:randomized="0" inkscape:rounded="0" inkscape:transform-center-x="-1.5524594" inkscape:transform-center-y="1.5999825" sodipodi:arg1="1.0251413" sodipodi:arg2="1.6534598" sodipodi:cx="-187.16913" sodipodi:cy="64.685806" sodipodi:r1="15.924777" sodipodi:r2="6.0147243" sodipodi:sides="5" sodipodi:type="star" class="st25" d="
				M-139.48,217.97l-11.13-20.14l-25.07,3.34l18.23-15.58l-11.34-20.05l22.4,10.51l18.06-15.73l-4.39,22.08l22.51,10.32l-25.11,3.13
				L-139.48,217.97z"/>
			
				<path id="path4443" inkscape:flatsided="false" inkscape:randomized="0" inkscape:rounded="0" inkscape:transform-center-x="-0.95295582" inkscape:transform-center-y="0.98212195" sodipodi:arg1="1.0251413" sodipodi:arg2="1.6534598" sodipodi:cx="-187.16913" sodipodi:cy="64.685806" sodipodi:r1="15.924777" sodipodi:r2="6.0147243" sodipodi:sides="5" sodipodi:type="star" class="st26" d="
				M-140.82,206.84l-6.83-12.36l-15.39,2.05l11.19-9.56l-6.96-12.31l13.75,6.45l11.09-9.66l-2.69,13.55l13.82,6.34l-15.41,1.92
				L-140.82,206.84z"/>
		</g>
		<g id="g4445" transform="matrix(0.28402831,-0.03001497,0.03001497,0.28402831,247.9546,347.74057)">
			
				<path id="path4447" inkscape:flatsided="false" inkscape:randomized="0" inkscape:rounded="0" inkscape:transform-center-x="-1.5524594" inkscape:transform-center-y="1.5999825" sodipodi:arg1="1.0251413" sodipodi:arg2="1.6534598" sodipodi:cx="-187.16913" sodipodi:cy="64.685806" sodipodi:r1="15.924777" sodipodi:r2="6.0147243" sodipodi:sides="5" sodipodi:type="star" class="st25" d="
				M-139.48,217.97l-11.13-20.14l-25.07,3.34l18.23-15.58l-11.34-20.05l22.4,10.51l18.06-15.73l-4.39,22.08l22.51,10.32l-25.11,3.13
				L-139.48,217.97z"/>
			
				<path id="path4449" inkscape:flatsided="false" inkscape:randomized="0" inkscape:rounded="0" inkscape:transform-center-x="-0.95295582" inkscape:transform-center-y="0.98212195" sodipodi:arg1="1.0251413" sodipodi:arg2="1.6534598" sodipodi:cx="-187.16913" sodipodi:cy="64.685806" sodipodi:r1="15.924777" sodipodi:r2="6.0147243" sodipodi:sides="5" sodipodi:type="star" class="st26" d="
				M-140.82,206.84l-6.83-12.36l-15.39,2.05l11.19-9.56l-6.96-12.31l13.75,6.45l11.09-9.66l-2.69,13.55l13.82,6.34l-15.41,1.92
				L-140.82,206.84z"/>
		</g>
		<g id="g4451" transform="matrix(0.28402831,-0.03001497,0.03001497,0.28402831,267.16784,365.64382)">
			
				<path id="path4453" inkscape:flatsided="false" inkscape:randomized="0" inkscape:rounded="0" inkscape:transform-center-x="-1.5524594" inkscape:transform-center-y="1.5999825" sodipodi:arg1="1.0251413" sodipodi:arg2="1.6534598" sodipodi:cx="-187.16913" sodipodi:cy="64.685806" sodipodi:r1="15.924777" sodipodi:r2="6.0147243" sodipodi:sides="5" sodipodi:type="star" class="st25" d="
				M-139.48,217.97l-11.13-20.14l-25.07,3.34l18.23-15.58l-11.34-20.05l22.4,10.51l18.06-15.73l-4.39,22.08l22.51,10.32l-25.11,3.13
				L-139.48,217.97z"/>
			
				<path id="path4455" inkscape:flatsided="false" inkscape:randomized="0" inkscape:rounded="0" inkscape:transform-center-x="-0.95295582" inkscape:transform-center-y="0.98212195" sodipodi:arg1="1.0251413" sodipodi:arg2="1.6534598" sodipodi:cx="-187.16913" sodipodi:cy="64.685806" sodipodi:r1="15.924777" sodipodi:r2="6.0147243" sodipodi:sides="5" sodipodi:type="star" class="st26" d="
				M-140.82,206.84l-6.83-12.36l-15.39,2.05l11.19-9.56l-6.96-12.31l13.75,6.45l11.09-9.66l-2.69,13.55l13.82,6.34l-15.41,1.92
				L-140.82,206.84z"/>
		</g>
		<g id="g4457" transform="matrix(0.28402831,-0.03001497,0.03001497,0.28402831,295.55105,352.54389)">
			
				<path id="path4459" inkscape:flatsided="false" inkscape:randomized="0" inkscape:rounded="0" inkscape:transform-center-x="-1.5524594" inkscape:transform-center-y="1.5999825" sodipodi:arg1="1.0251413" sodipodi:arg2="1.6534598" sodipodi:cx="-187.16913" sodipodi:cy="64.685806" sodipodi:r1="15.924777" sodipodi:r2="6.0147243" sodipodi:sides="5" sodipodi:type="star" class="st25" d="
				M-139.48,217.97l-11.13-20.14l-25.07,3.34l18.23-15.58l-11.34-20.05l22.4,10.51l18.06-15.73l-4.39,22.08l22.51,10.32l-25.11,3.13
				L-139.48,217.97z"/>
			
				<path id="path4461" inkscape:flatsided="false" inkscape:randomized="0" inkscape:rounded="0" inkscape:transform-center-x="-0.95295582" inkscape:transform-center-y="0.98212195" sodipodi:arg1="1.0251413" sodipodi:arg2="1.6534598" sodipodi:cx="-187.16913" sodipodi:cy="64.685806" sodipodi:r1="15.924777" sodipodi:r2="6.0147243" sodipodi:sides="5" sodipodi:type="star" class="st26" d="
				M-140.82,206.84l-6.83-12.36l-15.39,2.05l11.19-9.56l-6.96-12.31l13.75,6.45l11.09-9.66l-2.69,13.55l13.82,6.34l-15.41,1.92
				L-140.82,206.84z"/>
		</g>
		<g id="g4463" transform="matrix(0.28402831,-0.03001497,0.03001497,0.28402831,360.17743,256.47766)">
			
				<path id="path4465" inkscape:flatsided="false" inkscape:randomized="0" inkscape:rounded="0" inkscape:transform-center-x="-1.5524594" inkscape:transform-center-y="1.5999825" sodipodi:arg1="1.0251413" sodipodi:arg2="1.6534598" sodipodi:cx="-187.16913" sodipodi:cy="64.685806" sodipodi:r1="15.924777" sodipodi:r2="6.0147243" sodipodi:sides="5" sodipodi:type="star" class="st25" d="
				M-139.48,217.97l-11.13-20.14l-25.07,3.34l18.23-15.58l-11.34-20.05l22.4,10.51l18.06-15.73l-4.39,22.08l22.51,10.32l-25.11,3.13
				L-139.48,217.97z"/>
			
				<path id="path4467" inkscape:flatsided="false" inkscape:randomized="0" inkscape:rounded="0" inkscape:transform-center-x="-0.95295582" inkscape:transform-center-y="0.98212195" sodipodi:arg1="1.0251413" sodipodi:arg2="1.6534598" sodipodi:cx="-187.16913" sodipodi:cy="64.685806" sodipodi:r1="15.924777" sodipodi:r2="6.0147243" sodipodi:sides="5" sodipodi:type="star" class="st26" d="
				M-140.82,206.84l-6.83-12.36l-15.39,2.05l11.19-9.56l-6.96-12.31l13.75,6.45l11.09-9.66l-2.69,13.55l13.82,6.34l-15.41,1.92
				L-140.82,206.84z"/>
		</g>
		<g id="g4469" transform="matrix(0.28402831,-0.03001497,0.03001497,0.28402831,297.29771,177.878)">
			
				<path id="path4471" inkscape:flatsided="false" inkscape:randomized="0" inkscape:rounded="0" inkscape:transform-center-x="-1.5524594" inkscape:transform-center-y="1.5999825" sodipodi:arg1="1.0251413" sodipodi:arg2="1.6534598" sodipodi:cx="-187.16913" sodipodi:cy="64.685806" sodipodi:r1="15.924777" sodipodi:r2="6.0147243" sodipodi:sides="5" sodipodi:type="star" class="st25" d="
				M-139.48,217.97l-11.13-20.14l-25.07,3.34l18.23-15.58l-11.34-20.05l22.4,10.51l18.06-15.73l-4.39,22.08l22.51,10.32l-25.11,3.13
				L-139.48,217.97z"/>
			
				<path id="path4473" inkscape:flatsided="false" inkscape:randomized="0" inkscape:rounded="0" inkscape:transform-center-x="-0.95295582" inkscape:transform-center-y="0.98212195" sodipodi:arg1="1.0251413" sodipodi:arg2="1.6534598" sodipodi:cx="-187.16913" sodipodi:cy="64.685806" sodipodi:r1="15.924777" sodipodi:r2="6.0147243" sodipodi:sides="5" sodipodi:type="star" class="st26" d="
				M-140.82,206.84l-6.83-12.36l-15.39,2.05l11.19-9.56l-6.96-12.31l13.75,6.45l11.09-9.66l-2.69,13.55l13.82,6.34l-15.41,1.92
				L-140.82,206.84z"/>
		</g>
		<g id="g4475" transform="matrix(0.41764793,-0.04413535,0.04413535,0.41764793,310.94475,108.35644)">
			
				<path id="path4477" inkscape:flatsided="false" inkscape:randomized="0" inkscape:rounded="0" inkscape:transform-center-x="-1.5524594" inkscape:transform-center-y="1.5999825" sodipodi:arg1="1.0251413" sodipodi:arg2="1.6534598" sodipodi:cx="-187.16913" sodipodi:cy="64.685806" sodipodi:r1="15.924777" sodipodi:r2="6.0147243" sodipodi:sides="5" sodipodi:type="star" class="st25" d="
				M-139.48,217.97l-11.13-20.14l-25.07,3.34l18.23-15.58l-11.34-20.05l22.4,10.51l18.06-15.73l-4.39,22.08l22.51,10.32l-25.11,3.13
				L-139.48,217.97z"/>
			
				<path id="path4479" inkscape:flatsided="false" inkscape:randomized="0" inkscape:rounded="0" inkscape:transform-center-x="-0.95295582" inkscape:transform-center-y="0.98212195" sodipodi:arg1="1.0251413" sodipodi:arg2="1.6534598" sodipodi:cx="-187.16913" sodipodi:cy="64.685806" sodipodi:r1="15.924777" sodipodi:r2="6.0147243" sodipodi:sides="5" sodipodi:type="star" class="st26" d="
				M-140.82,206.84l-6.83-12.36l-15.39,2.05l11.19-9.56l-6.96-12.31l13.75,6.45l11.09-9.66l-2.69,13.55l13.82,6.34l-15.41,1.92
				L-140.82,206.84z"/>
		</g>
		<g id="g4481" transform="matrix(0.18935328,-0.02001009,0.02001009,0.18935328,247.74471,151.54789)">
			
				<path id="path4483" inkscape:flatsided="false" inkscape:randomized="0" inkscape:rounded="0" inkscape:transform-center-x="-1.5524594" inkscape:transform-center-y="1.5999825" sodipodi:arg1="1.0251413" sodipodi:arg2="1.6534598" sodipodi:cx="-187.16913" sodipodi:cy="64.685806" sodipodi:r1="15.924777" sodipodi:r2="6.0147243" sodipodi:sides="5" sodipodi:type="star" class="st25" d="
				M-139.48,217.97l-11.13-20.14l-25.07,3.34l18.23-15.58l-11.34-20.05l22.4,10.51l18.06-15.73l-4.39,22.08l22.51,10.32l-25.11,3.13
				L-139.48,217.97z"/>
			
				<path id="path4485" inkscape:flatsided="false" inkscape:randomized="0" inkscape:rounded="0" inkscape:transform-center-x="-0.95295582" inkscape:transform-center-y="0.98212195" sodipodi:arg1="1.0251413" sodipodi:arg2="1.6534598" sodipodi:cx="-187.16913" sodipodi:cy="64.685806" sodipodi:r1="15.924777" sodipodi:r2="6.0147243" sodipodi:sides="5" sodipodi:type="star" class="st26" d="
				M-140.82,206.84l-6.83-12.36l-15.39,2.05l11.19-9.56l-6.96-12.31l13.75,6.45l11.09-9.66l-2.69,13.55l13.82,6.34l-15.41,1.92
				L-140.82,206.84z"/>
		</g>
		<g id="g4487" transform="matrix(0.18935328,-0.02001009,0.02001009,0.18935328,301.01779,132.33464)">
			
				<path id="path4489" inkscape:flatsided="false" inkscape:randomized="0" inkscape:rounded="0" inkscape:transform-center-x="-1.5524594" inkscape:transform-center-y="1.5999825" sodipodi:arg1="1.0251413" sodipodi:arg2="1.6534598" sodipodi:cx="-187.16913" sodipodi:cy="64.685806" sodipodi:r1="15.924777" sodipodi:r2="6.0147243" sodipodi:sides="5" sodipodi:type="star" class="st25" d="
				M-139.48,217.97l-11.13-20.14l-25.07,3.34l18.23-15.58l-11.34-20.05l22.4,10.51l18.06-15.73l-4.39,22.08l22.51,10.32l-25.11,3.13
				L-139.48,217.97z"/>
			
				<path id="path4491" inkscape:flatsided="false" inkscape:randomized="0" inkscape:rounded="0" inkscape:transform-center-x="-0.95295582" inkscape:transform-center-y="0.98212195" sodipodi:arg1="1.0251413" sodipodi:arg2="1.6534598" sodipodi:cx="-187.16913" sodipodi:cy="64.685806" sodipodi:r1="15.924777" sodipodi:r2="6.0147243" sodipodi:sides="5" sodipodi:type="star" class="st26" d="
				M-140.82,206.84l-6.83-12.36l-15.39,2.05l11.19-9.56l-6.96-12.31l13.75,6.45l11.09-9.66l-2.69,13.55l13.82,6.34l-15.41,1.92
				L-140.82,206.84z"/>
		</g>
		<g id="g4493" transform="matrix(0.36914319,-0.03900957,0.03900957,0.36914319,207.42329,367.09878)">
			
				<path id="path4495" inkscape:flatsided="false" inkscape:randomized="0" inkscape:rounded="0" inkscape:transform-center-x="-1.5524594" inkscape:transform-center-y="1.5999825" sodipodi:arg1="1.0251413" sodipodi:arg2="1.6534598" sodipodi:cx="-187.16913" sodipodi:cy="64.685806" sodipodi:r1="15.924777" sodipodi:r2="6.0147243" sodipodi:sides="5" sodipodi:type="star" class="st25" d="
				M-139.48,217.97l-11.13-20.14l-25.07,3.34l18.23-15.58l-11.34-20.05l22.4,10.51l18.06-15.73l-4.39,22.08l22.51,10.32l-25.11,3.13
				L-139.48,217.97z"/>
			
				<path id="path4497" inkscape:flatsided="false" inkscape:randomized="0" inkscape:rounded="0" inkscape:transform-center-x="-0.95295582" inkscape:transform-center-y="0.98212195" sodipodi:arg1="1.0251413" sodipodi:arg2="1.6534598" sodipodi:cx="-187.16913" sodipodi:cy="64.685806" sodipodi:r1="15.924777" sodipodi:r2="6.0147243" sodipodi:sides="5" sodipodi:type="star" class="st26" d="
				M-140.82,206.84l-6.83-12.36l-15.39,2.05l11.19-9.56l-6.96-12.31l13.75,6.45l11.09-9.66l-2.69,13.55l13.82,6.34l-15.41,1.92
				L-140.82,206.84z"/>
		</g>
		
			<path id="path4499" inkscape:connector-curvature="0" sodipodi:nodetypes="cccccccccccccccccccccccccccccccccccccccc" class="st27" d="
			M341.77,183.79l-20.22,2.92l11.31,6.69l-17.83,7.9l19.45-0.97l-27.47,9.72l27.02,1.44l-21.91,12.17l16.58-3.2l-11.86,7.46
			l16.45-0.94l-28.25,12.47l25.76-3.35l-15.71,6.6l-35.05,7.21l26.2-0.55l-27.18,9.3l61.89-15.27l0.32,0.34l-56.14,19.76l38.56-4.78
			l-51.86,14.25l23.21-1.04l-40.29,12.99l29.38-5.61l-34.24,17.28l55.54-23.09l-28.56,16.52l46.91-21.63l-17.08,10.22l-30.58,19.52
			l34.86-17.38l-11.22,13.13l24.03-18.68l-3.44,11.1l-8.23,12.24l20.61-20.27l0.38,14.34l8.18-23.24L341.77,183.79z"/>
		<path id="path4503" inkscape:connector-curvature="0" sodipodi:nodetypes="ccccccccccccccccccccccccc" class="st27" d="
			M369.48,327.69l-24.44,6.87l19.93,0.84l-40.22,14.65l-22.36-3.89l11.67,6.81l-10.7,5.83l15.56-2.92l-11.67,10.7l25.28-13.61
			l-22.36,24.31l32.09-24.31l21.73-11.28l-30.49,26.83l35.98-21.39l10.7-3.89l-31.11,28.2l21.53-13.99l-7.96,13.42L384.06,352
			l-8.75,15.56l-6.57,15.27c8.52-7.85,16.28-16.4,24.07-24.95l-1.94-31.16L369.48,327.69z"/>
		<path id="path4501" inkscape:connector-curvature="0" class="st7" d="M342.67,178.99c0,49.43,0,98.42,0,147.98
			c16.68,0,33.03,0,49.63,0c0,43.62,0,86.67,0,129.99c-89.91,0-179.57,0-269.52,0c0-22.3,0-44.38,0-66.88
			c21.75-10.97,43.65-22.02,65.86-33.22c0-75.39,0-150.66,0-226.68C240.27,146.53,291.26,162.69,342.67,178.99L342.67,178.99z"/>
	</g>
</g>
</svg>
