<?xml version="1.0" encoding="utf-8"?>
<!-- Generator: Adobe Illustrator 25.0.1, SVG Export Plug-In . SVG Version: 6.00 Build 0)  -->
<svg version="1.1" id="Layer_1" xmlns="http://www.w3.org/2000/svg" xmlns:xlink="http://www.w3.org/1999/xlink" x="0px" y="0px"
	 viewBox="0 0 256 256" style="enable-background:new 0 0 256 256;" xml:space="preserve">
<style type="text/css">
	.st0{fill:#AE93C5;}
	.st1{fill:#F0F0F0;}
	.st2{fill:#764D99;}
</style>
<g>
	<g>
		<path class="st0" d="M228.46,39.36c0-2.79-2.28-5.06-5.06-5.06h-13.32V21.88c0-2.59-2.12-4.7-4.7-4.7H32.65
			c-2.82,0-5.1,2.28-5.1,5.1v212.7v0.43c0,1.88,1.54,3.42,3.42,3.42h0.43h193.22h0.43c1.88,0,3.42-1.54,3.42-3.42v-0.43c0,0,0,0,0,0
			L228.46,39.36z"/>
		<path id="rect3993" class="st1" d="M56.81,78.29h142.38c6.29,0,11.4,5.1,11.4,11.4v120.58c0,6.29-5.1,11.4-11.4,11.4H56.81
			c-6.29,0-11.4-5.1-11.4-11.4V89.68C45.42,83.39,50.52,78.29,56.81,78.29z"/>
		<g>
			<path class="st2" d="M75.81,125.48c-1.16-0.4-2.25-0.6-3.25-0.6c-1.75,0-3.19,0.66-4.32,1.99c-1.13,1.32-1.7,3-1.7,5.03
				c0,0.54,0.05,1.1,0.15,1.69h6.56v4.82h-6.56v27.42h-5.72v-27.42h-4.7v-4.82h4.7c0-4.11,1.01-7.34,3.04-9.69
				c2.03-2.35,4.71-3.52,8.04-3.52c1.67,0,3.45,0.3,5.36,0.9L75.81,125.48z"/>
			<path class="st2" d="M83.93,165.81v-27.42h-4.42v-4.82h10.14v32.24H83.93z M87.06,121.38c0.98,0,1.82,0.35,2.51,1.04
				s1.04,1.52,1.04,2.48c0,0.98-0.35,1.82-1.04,2.51s-1.53,1.04-2.51,1.04c-0.96,0-1.79-0.35-2.48-1.04
				c-0.69-0.69-1.04-1.53-1.04-2.51s0.34-1.82,1.02-2.5S86.08,121.38,87.06,121.38z"/>
			<path class="st2" d="M118.37,165.81l-8.79-11.74l-7.86,11.74h-6.68l11.71-16.49L96,133.58h6.44l7.22,11.08l8.1-11.08h6.32
				l-11.71,15.74l12.82,16.49H118.37z"/>
			<path class="st2" d="M160.63,124.79l-2.5,4.97c-3.03-2.25-6-3.37-8.91-3.37c-4.62,0-8.26,1.63-10.93,4.88
				c-2.67,3.25-4,7.56-4,12.91c0,5.1,1.31,9.2,3.93,12.31c2.62,3.11,6.19,4.67,10.7,4.67c3.21,0,5.81-0.96,7.8-2.89v-10.32h-6.11
				v-5.12h12.13v19.2c-1.61,1.36-3.84,2.46-6.71,3.3c-2.87,0.83-5.66,1.25-8.37,1.25c-6.08,0-10.88-2.06-14.4-6.19
				c-3.52-4.12-5.28-9.61-5.28-16.45c0-6.82,1.93-12.36,5.79-16.6c3.86-4.24,9.08-6.37,15.64-6.37
				C154,120.96,157.74,122.24,160.63,124.79z"/>
			<path class="st2" d="M184.35,165.81h-12.58v-44.1c5.36-0.26,9.22-0.39,11.59-0.39c4.35,0,7.73,0.94,10.11,2.81
				s3.58,4.56,3.58,8.05c0,2.05-0.76,3.91-2.29,5.6c-1.53,1.69-3.21,2.74-5.06,3.16c3.49,0.84,6.03,2.24,7.63,4.18
				c1.6,1.95,2.39,4.6,2.39,7.95c0,3.87-1.42,6.96-4.26,9.27C192.63,164.66,188.92,165.81,184.35,165.81z M177.78,126.53v12.67
				c1.26,0.12,2.83,0.18,4.7,0.18c5.7,0,8.55-2.32,8.55-6.95c0-4.07-2.62-6.11-7.86-6.11C181.17,126.32,179.37,126.39,177.78,126.53
				z M177.78,143.87v16.83c2.07,0.2,3.65,0.3,4.76,0.3c3.77,0,6.53-0.71,8.26-2.12c1.74-1.41,2.6-3.67,2.6-6.76
				c0-2.87-0.83-4.99-2.48-6.35c-1.66-1.36-4.42-2.05-8.29-2.05L177.78,143.87z"/>
		</g>
	</g>
	<path id="rect3991" class="st2" d="M59.89,40.29h136.22c7.84,0,14.47,6.33,14.47,14.47l0,0c0,7.84-6.33,14.47-14.47,14.47H59.89
		c-7.84,0-14.47-6.33-14.47-14.47l0,0C45.42,46.62,52.05,40.29,59.89,40.29z"/>
</g>
</svg>
