<?xml version="1.0" encoding="utf-8"?>
<!-- Generator: Adobe Illustrator 25.0.1, SVG Export Plug-In . SVG Version: 6.00 Build 0)  -->
<svg version="1.1" id="Layer_1" xmlns="http://www.w3.org/2000/svg" xmlns:xlink="http://www.w3.org/1999/xlink" x="0px" y="0px"
	 viewBox="0 0 256 256" style="enable-background:new 0 0 256 256;" xml:space="preserve">
<style type="text/css">
	.st0{fill:#AE93C5;}
	.st1{fill:#764D99;}
	.st2{fill:#F0F0F0;}
</style>
<g>
	<g id="layer2">
		<g id="g4768">
			<path id="rect3973" class="st0" d="M37.95,20.63h180.1c1.91,0,3.46,1.55,3.46,3.46v162.71c0,1.91-1.55,3.46-3.46,3.46H37.95
				c-1.91,0-3.46-1.55-3.46-3.46V24.1C34.49,22.18,36.04,20.63,37.95,20.63z"/>
			<path id="rect4013" class="st0" d="M58.34,179.88h139.32c1.91,0,3.46,1.55,3.46,3.46v48.56c0,1.91-1.55,3.46-3.46,3.46H58.34
				c-1.91,0-3.46-1.55-3.46-3.46v-48.56C54.88,181.43,56.43,179.88,58.34,179.88z"/>
		</g>
		<rect x="64.18" y="190.27" class="st1" width="127.64" height="7.69"/>
	</g>
	<path class="st2" d="M193.81,20.63h-76.2h-6.93v6.93v10.39v121.22c0,3.83,3.1,6.93,6.93,6.93h76.2c3.83,0,6.93-3.1,6.93-6.93V37.95
		V27.56v-6.93H193.81z"/>
	<g>
		<path class="st2" d="M65.06,87.41c-0.98-0.34-1.9-0.51-2.74-0.51c-1.47,0-2.69,0.56-3.65,1.68s-1.44,2.53-1.44,4.24
			c0,0.46,0.04,0.93,0.13,1.42h5.54v4.06h-5.54v23.14h-4.83V98.31h-3.96v-4.06h3.96c0-3.47,0.86-6.2,2.57-8.18
			c1.71-1.98,3.97-2.97,6.78-2.97c1.41,0,2.91,0.25,4.52,0.76L65.06,87.41z"/>
		<path class="st2" d="M71.92,121.45V98.31h-3.73v-4.06h8.56v27.21H71.92z M74.56,83.95c0.83,0,1.54,0.29,2.12,0.88
			c0.58,0.58,0.88,1.28,0.88,2.1c0,0.83-0.29,1.54-0.88,2.12c-0.58,0.58-1.29,0.88-2.12,0.88c-0.81,0-1.51-0.29-2.1-0.88
			c-0.58-0.58-0.88-1.29-0.88-2.12c0-0.83,0.29-1.53,0.86-2.11C73.03,84.24,73.73,83.95,74.56,83.95z"/>
		<path class="st2" d="M100.98,121.45l-7.42-9.91l-6.63,9.91h-5.64l9.88-13.92l-9.07-13.29h5.44l6.1,9.35l6.83-9.35h5.33
			l-9.88,13.29l10.82,13.92H100.98z"/>
		<path class="st1" d="M139.65,121.96l-19.23-27.21v26.7h-4.83V84.23h2.03l18.72,25.73V84.23h4.83v37.73H139.65z"/>
		<path class="st1" d="M153.88,88.8v10.34h12.3v4.32h-12.3v13.41h16.87v4.57H148.8V84.23h22.23v4.57H153.88z"/>
		<path class="st1" d="M174.99,119.75l1.85-4.67c0.95,0.69,2.13,1.27,3.54,1.74c1.41,0.47,2.68,0.7,3.8,0.7
			c1.98,0,3.57-0.54,4.78-1.63s1.8-2.46,1.8-4.14c0-1.25-0.33-2.42-1-3.49c-0.67-1.08-2.35-2.25-5.04-3.52l-3-1.4
			c-2.54-1.19-4.31-2.59-5.32-4.22c-1.01-1.63-1.51-3.58-1.51-5.87c0-2.78,0.98-5.08,2.95-6.91c1.96-1.83,4.49-2.74,7.57-2.74
			c4.12,0,6.98,0.67,8.59,2.01l-1.5,4.42c-0.68-0.49-1.71-0.97-3.1-1.42c-1.39-0.46-2.68-0.69-3.86-0.69
			c-1.73,0-3.09,0.49-4.08,1.47s-1.49,2.24-1.49,3.79c0,0.95,0.18,1.81,0.53,2.59s0.85,1.43,1.49,1.96c0.64,0.53,1.93,1.26,3.9,2.21
			l3.05,1.45c2.54,1.2,4.32,2.64,5.35,4.31s1.54,3.79,1.54,6.36c0,2.79-1.12,5.17-3.37,7.11s-5.25,2.92-9.01,2.92
			C180.15,122.08,177.33,121.31,174.99,119.75z"/>
	</g>
</g>
</svg>
