<?xml version="1.0" encoding="utf-8"?>
<!-- Generator: Adobe Illustrator 25.0.0, SVG Export Plug-In . SVG Version: 6.00 Build 0)  -->
<svg version="1.1" xmlns="http://www.w3.org/2000/svg" xmlns:xlink="http://www.w3.org/1999/xlink" x="0px" y="0px"
	 viewBox="0 0 500 500" style="enable-background:new 0 0 500 500;" xml:space="preserve">
<style type="text/css">
	.st0{opacity:0.5;}
	.st1{fill:#5B01BD;}
	.st2{fill:url(#SVGID_1_);}
	.st3{fill:url(#SVGID_2_);stroke:#F5A400;stroke-miterlimit:10;}
	.st4{fill:url(#SVGID_3_);stroke:#F5A400;stroke-miterlimit:10;}
	.st5{fill:url(#SVGID_4_);stroke:#F5A400;stroke-miterlimit:10;}
	.st6{fill:url(#SVGID_5_);stroke:#F5A400;stroke-miterlimit:10;}
	.st7{fill:url(#SVGID_6_);stroke:#F5A400;stroke-miterlimit:10;}
	.st8{fill:url(#SVGID_7_);stroke:#F5A400;stroke-miterlimit:10;}
	.st9{fill:url(#SVGID_8_);stroke:#F5A400;stroke-miterlimit:10;}
</style>
<g id="Shadow">
	<g class="st0">
		<path d="M103.73,372.25c0-3.76,1.2-7,3.6-9.71c2.4-2.71,5.41-4.06,9.03-4.06c1.57,0,3.19,0.35,4.84,1.05v-6.91
			c-1.17-0.31-2.17-0.51-2.99-0.59c-0.82-0.08-1.86-0.12-3.11-0.12c-6.41,0-11.61,2.17-15.59,6.51c-3.98,4.34-5.98,9.63-5.98,15.88
			v15.24h-9.26v5.98h9.26v50.76c0,0.63-0.04,1.56-0.12,2.81c-0.08,1.25-0.22,2.42-0.41,3.52c-0.2,1.09-1,2.38-2.4,3.87h16.18
			c-0.94-1.17-1.45-1.8-1.52-1.87c-0.31-0.47-0.63-1.27-0.94-2.4c-0.31-1.13-0.49-2.13-0.53-2.99c-0.04-0.86-0.06-1.84-0.06-2.93
			v-50.76h18.05v-5.98h-18.05V372.25z"/>
		<path d="M143.98,452.15c-0.39-1.48-0.63-2.67-0.7-3.57c-0.08-0.9-0.12-2.16-0.12-3.81l0.12-92.27l-13.01,1.05
			c0.31,0.55,0.74,1.29,1.29,2.22c0.24,0.63,0.45,1.58,0.65,2.87c0.19,1.29,0.45,2.83,0.76,4.62c0,1.41,0,2.77,0,4.1v77.75
			c0,1.17-0.04,2.32-0.11,3.45c-0.07,1.13-0.21,2.15-0.39,3.04c-0.19,0.9-0.37,1.62-0.56,2.17c-0.19,0.54-0.58,1.52-1.17,2.93h14.89
			c-0.39-0.78-0.72-1.58-1-2.4C144.35,453.49,144.14,452.77,143.98,452.15z"/>
		<path d="M203.81,394c0,1.72-0.16,3.09-0.47,4.1l-15.58,41.13l-17.81-39.84c-0.31-0.79-0.83-1.9-1.53-3.32
			c-0.39-1.03-0.59-2.1-0.59-3.2s0.16-2.14,0.47-3.08h-14.18c0.47,0.48,0.98,1.03,1.52,1.66c0.55,0.63,1.05,1.33,1.52,2.08
			c0.47,0.75,0.96,1.64,1.46,2.67c0.51,1.03,0.8,1.67,0.88,1.9l23.7,50.46l-18.86,47.32l8.41-0.01c0.08-0.63,0.27-1.64,0.58-3.05
			s0.54-2.38,0.7-2.93c0.7-1.8,1.44-3.55,2.22-5.27l34.7-85.34c0.7-1.72,1.64-3.36,2.81-4.92c1.17-1.56,2.58-3.09,4.22-4.57h-15.47
			C203.38,391.35,203.81,392.75,203.81,394z"/>
		<path d="M256.54,451.32c-7.82,0-14.42-2.69-19.81-8.09c-5.39-5.39-8.09-12.07-8.09-20.05c0-7.74,2.56-14.28,7.68-19.63
			c5.12-5.35,11.62-8.03,19.52-8.03c3.36,0,6.7,0.49,10.02,1.47c3.32,0.98,6.19,2.33,8.62,4.05v-9.26c-3.28-1.33-6.1-2.15-8.44-2.46
			c-2.35-0.31-5.78-0.47-10.32-0.47c-10.71,0-19.6,3.26-26.67,9.79c-7.07,6.53-10.61,14.87-10.61,25.03
			c0,9.85,3.57,17.91,10.72,24.21c7.15,6.29,16.27,9.44,27.37,9.44c4.22,0,7.75-0.17,10.61-0.53c2.85-0.35,5.8-1.15,8.85-2.4
			l1.52-8.79c-2.42,1.72-5.49,3.11-9.2,4.16C264.61,450.79,260.68,451.32,256.54,451.32z"/>
		<path d="M330.31,446.63v-36.11c0-7.34-1.99-12.81-5.98-16.41c-4.22-3.83-10.94-5.74-20.16-5.74c-3.75,0-7.29,0.27-10.61,0.82
			c-3.32,0.55-6.47,1.72-9.44,3.52v7.97c2.42-2.11,5.31-3.55,8.67-4.34c3.36-0.78,7.07-1.17,11.14-1.17c4.77,0,8.73,1.15,11.9,3.46
			c3.16,2.31,4.75,5.14,4.75,8.5c0,2.66-0.63,4.71-1.88,6.15c-1.25,1.45-3.95,2.48-8.09,3.11l-13.95,2.35
			c-6.17,1.02-10.67,2.81-13.48,5.39c-3.21,2.97-4.81,7.31-4.81,13.01c0,6.41,2.25,11.49,6.76,15.24c4.2,3.44,9.44,5.16,15.74,5.16
			c4.35,0,8.02-0.51,11.02-1.52c2.99-1.01,5.89-2.85,8.69-5.51v6.21l12.19-0.23c-0.86-1.56-1.49-3.15-1.88-4.75
			C330.5,450.13,330.31,448.43,330.31,446.63z M321.04,436.55c0,4.45-1.92,8.09-5.74,10.9c-3.52,2.58-7.74,3.87-12.66,3.87
			c-4.3,0-7.89-1.33-10.79-3.99c-2.89-2.66-4.34-5.98-4.34-9.96c0-3.21,1.11-5.86,3.34-7.97c2.23-2.11,5.14-3.52,8.73-4.22
			l12.66-2.35l8.79-2.23V436.55z"/>
		<path d="M370.09,418.69l-8.44-3.39c-2.58-1.09-4.57-2.47-5.98-4.15c-1.41-1.68-2.11-3.72-2.11-6.14c0-3.2,1.21-5.71,3.63-7.55
			c2.42-1.83,5.47-2.75,9.14-2.75c2.97,0,5.88,0.38,8.73,1.14c2.85,0.76,5.1,1.95,6.74,3.55v-8.36c-2.66-1.39-5-2.28-7.03-2.67
			c-2.03-0.39-4.89-0.58-8.56-0.58c-6.33,0-11.72,1.48-16.18,4.45c-4.92,3.28-7.38,7.61-7.38,12.99c0,4.29,1.41,8.07,4.22,11.35
			c2.5,2.89,5.98,5.23,10.43,7.02l8.56,3.51c2.81,1.09,5.02,2.63,6.62,4.62c1.6,1.99,2.4,4.35,2.4,7.08c0,4.52-1.6,7.88-4.81,10.06
			c-2.74,1.87-6.33,2.81-10.78,2.81c-4.06,0-7.8-0.62-11.2-1.87c-3.4-1.25-5.92-2.81-7.56-4.69l1.76,10.43
			c2.19,1.01,4.65,1.7,7.39,2.05c2.73,0.35,6.13,0.53,10.2,0.53c6.49,0,12.08-1.48,16.76-4.45c5.78-3.67,8.68-8.97,8.68-15.91
			c0-4.68-1.09-8.44-3.28-11.29C379.86,423.63,375.87,421.03,370.09,418.69z"/>
		<path d="M419.14,449.91c-2.81,0-5.2-0.98-7.15-2.93c-1.1-1.09-1.78-2.6-2.05-4.51c-0.28-1.91-0.41-4.32-0.41-7.21v-39.15H425
			v-6.68h-15.47v-20.19l-12.89,6.69c0.86,0.55,1.56,1.29,2.11,2.23c0.08,0.23,0.27,0.66,0.59,1.29c0,0.78,0,1.53,0,2.23v7.75h-9.03
			v6.68h9.03v38.8c0,3.36,0.14,6.15,0.41,8.38s0.96,4.24,2.05,6.04c2.73,4.77,6.91,7.15,12.54,7.15h10.9v-6.57H419.14z"/>
	</g>
	<path class="st0" d="M407.65,255.18c0,14.35,4.47,23.76,12.47,23.76s35.06,0.47,35.06-36.71c0-27.29-24.29-99.53-56.06-132
		c-28.84-29.48-87.53-79.18-161.53-79.18C115.71,31.06,70,108.82,70,182.71c0,67.29,33.02,110.59,52.94,133.18
		c24.4,27.67,75.53,55.76,116.24,55.76c138.59,0,140.53-120.96,140.53-144.35c0-85.65-73.47-140.82-141.24-140.82
		c-33.88,0-99.29,21.41-99.29,104.47c0,81.65,88.47,106.12,107.29,106.12c31.06,0,71.29-33.06,71.29-73.18
		c0-31.59-25.94-85.88-67.76-85.88c-25.65,0-48.24,26.35-48.24,49.18c0,20.71,9.06,32.83,20.24,43.06
		c12.53,11.47,16.18,6.53,21.82,2.76c5.65-3.76,20.06-16.86,12.29-25.12c-6.8-7.23-25.12-20.12-25.12-20.12s0.32-13.29,17.35-13.29
		c25.41,0,36.94,20.24,36.94,40.47c0,20.47-26.12,48-26.12,48s-84.94-32.24-84.94-72.47c0-40.47,24-69.88,67.06-69.88
		c19.06,0,50.18,5.91,71.76,28.94c16.79,17.91,32.71,43.29,32.71,69.65c0,21.4-12,82.12-57.41,106.82l-84.12,13.76l-75.65-72.82
		L89.76,147.65c0,0,25.62-28.49,50.82-47.53c32.71-24.71,62.34-29.18,91.06-29.18c22.35,0,77.19,3.96,127.76,51.53
		c27.85,26.19,50.12,76.47,50.12,106.82C409.53,241.53,407.65,250,407.65,255.18z"/>
</g>
<g id="Mid">
	<path class="st1" d="M421.29,244.12c0,13.62,3.12,23.76,12.47,23.76c8,0,26.88-1.41,26.88-34.18c0-25.94-22.76-91.7-54.53-122.57
		c-28.84-28.02-87.53-75.26-161.53-75.26c-121.88,0-160.42,71.31-160.42,141.54c0,42.94,10.96,72.87,43.48,117.52
		c23.65,32.47,80.92,65.65,124.34,65.65c77.05,0,98.89-33.07,107.9-44.47s32.47-88.15,32.47-97.76c0-81.41-80.47-127.9-148.24-127.9
		c-22.99,0-62.26,8.45-80.43,38.29c-11.8,19.38-10.78,46.44-10.78,56.08c0,27.41,12.54,49.28,33.57,68.71
		c24.71,22.82,54.35,32.24,73.18,32.24c30,0,65.12-28.48,65.12-66.61c0-30.02-28.24-86.81-70.06-86.81
		c-20.82,0-39.53,24-39.53,43.29c0,25.06,11.29,36.18,22.47,45.9c12.53,10.9,16.17,1.03,21.82-2.55c5.65-3.58,5.83-10.1-1.94-17.94
		c-6.8-6.87-12.71-12.8-12.71-19.06s1.32-18.35,18.35-18.35c26.71,0,35.65,24.15,35.65,40.59c0,19.46-23.18,56.47-51.88,56.47
		c-43.06,0-75.53-31.99-75.53-70.24c0-21.63,1.72-34.22,19.06-49.41c18.3-16.03,33.65-31.53,64-31.53
		c22.12,0,49.65,6.35,72.24,29.88c16.56,17.25,32.47,41.18,32.47,67.99c0,20.01-6.82,50.36-23.76,76.24
		c-20.21,30.87-64.47,53.65-64.47,53.65S180.14,312.9,152,286.59c-32.34-30.25-47.65-77.02-47.65-105.65
		c0-29.84,12.12-59.06,42.82-85.53s56.71-35.18,96.24-35.18c41.18,0,87.09,6.42,136.24,61.06c33.65,37.41,43.76,78.35,43.76,98.12
		C423.41,225.7,421.29,238.53,421.29,244.12z"/>
	<g>
		<g>
			<path d="M119.1,347.92c-6.67,0-12.16,2.3-16.33,6.83c-4.14,4.51-6.24,10.08-6.24,16.56v14.24h-8.26h-1v1v5.98v1h1h8.26v49.76
				c0,0.58-0.04,1.48-0.12,2.75c-0.08,1.19-0.21,2.34-0.4,3.41c-0.11,0.61-0.57,1.7-2.14,3.35l-1.6,1.69h2.33h16.18h2.08l-1.3-1.62
				c-1.02-1.28-1.37-1.7-1.5-1.85c-0.18-0.28-0.44-0.87-0.77-2.06c-0.29-1.06-0.46-1.99-0.49-2.77c-0.04-0.83-0.06-1.77-0.06-2.89
				v-49.76h17.05h1v-1v-5.98v-1h-1h-17.05v-16.3c0-3.54,1.1-6.5,3.35-9.04c2.22-2.5,4.93-3.72,8.28-3.72c1.43,0,2.93,0.33,4.45,0.97
				l1.39,0.59v-1.51v-6.91v-0.77l-0.74-0.2c-1.21-0.32-2.27-0.53-3.15-0.62C121.42,347.96,120.34,347.92,119.1,347.92L119.1,347.92z
				"/>
		</g>
		<g>
			<path d="M148.28,348.42l-1.08,0.09l-13.01,1.05l-1.57,0.13l0.78,1.36c0.3,0.53,0.72,1.25,1.25,2.16c0.2,0.56,0.39,1.43,0.57,2.59
				c0.19,1.24,0.43,2.73,0.75,4.56v4.01v77.75c0,1.13-0.04,2.27-0.11,3.39c-0.07,1.07-0.2,2.05-0.37,2.91
				c-0.18,0.85-0.35,1.54-0.52,2.05c-0.13,0.37-0.43,1.17-1.14,2.86l-0.59,1.39h1.51h14.89h1.62l-0.73-1.45
				c-0.37-0.73-0.68-1.5-0.94-2.27c-0.26-0.79-0.47-1.49-0.62-2.09c-0.38-1.43-0.61-2.58-0.68-3.42c-0.08-0.85-0.11-2.11-0.11-3.72
				l0.12-92.27L148.28,348.42L148.28,348.42z"/>
		</g>
		<g>
			<path d="M224.59,385.78H222h-15.47h-1.69l0.81,1.48c0.77,1.41,1.17,2.67,1.17,3.74c0,1.59-0.14,2.86-0.42,3.78l-14.71,38.83
				l-16.82-37.63c-0.3-0.76-0.81-1.86-1.53-3.31c-0.34-0.89-0.51-1.84-0.51-2.8c0-1,0.14-1.93,0.42-2.77l0.43-1.31h-1.38h-14.18
				h-2.38l1.67,1.7c0.45,0.45,0.93,0.98,1.48,1.62c0.51,0.59,0.99,1.25,1.43,1.96c0.45,0.72,0.91,1.56,1.42,2.59
				c0.68,1.38,0.8,1.71,0.83,1.78l0.02,0.06l0.02,0.05l23.52,50.06l-18.7,46.92l-0.55,1.37l1.48,0l8.41-0.01l0.88,0l0.11-0.88
				c0.07-0.58,0.26-1.57,0.57-2.95c0.31-1.39,0.53-2.31,0.67-2.83c0.68-1.75,1.41-3.49,2.18-5.18l34.72-85.38
				c0.67-1.63,1.57-3.22,2.69-4.7c1.12-1.5,2.5-2.99,4.09-4.43L224.59,385.78L224.59,385.78z"/>
		</g>
		<g>
			<path d="M259.72,384.84c-10.91,0-20.11,3.38-27.35,10.05c-7.25,6.69-10.93,15.36-10.93,25.76c0,10.1,3.72,18.5,11.06,24.96
				c7.31,6.43,16.74,9.68,28.03,9.68c4.25,0,7.86-0.18,10.73-0.53c2.93-0.36,5.99-1.19,9.11-2.47l0.51-0.21l0.09-0.54l1.52-8.79
				l0.41-2.39l-1.98,1.4c-2.32,1.65-5.31,3-8.9,4.01c-3.61,1.02-7.48,1.54-11.51,1.54c-7.51,0-13.93-2.62-19.1-7.79
				c-5.17-5.17-7.8-11.68-7.8-19.34c0-7.44,2.49-13.81,7.4-18.94c4.9-5.12,11.22-7.72,18.79-7.72c3.24,0,6.52,0.48,9.74,1.43
				c3.2,0.94,6,2.25,8.32,3.9l1.58,1.12v-1.94v-9.26v-0.67l-0.63-0.25c-3.35-1.35-6.27-2.2-8.68-2.53
				C267.78,385,264.27,384.84,259.72,384.84L259.72,384.84z"/>
		</g>
		<g>
			<path d="M308.17,384.37c-3.79,0-7.41,0.28-10.77,0.83c-3.43,0.56-6.72,1.79-9.79,3.65l-0.48,0.29v0.56v7.97v2.2l1.66-1.44
				c2.29-1.99,5.06-3.38,8.24-4.12c3.27-0.76,6.95-1.15,10.91-1.15c4.53,0,8.33,1.1,11.31,3.26c2.92,2.13,4.34,4.64,4.34,7.69
				c0,2.4-0.55,4.25-1.63,5.5c-0.75,0.86-2.65,2.05-7.48,2.77l-13.97,2.35c-6.34,1.04-11.05,2.94-13.99,5.64
				c-3.41,3.16-5.13,7.78-5.13,13.75c0,6.69,2.4,12.08,7.12,16.01c4.36,3.58,9.87,5.39,16.38,5.39c4.44,0,8.25-0.53,11.34-1.58
				c2.51-0.85,4.98-2.27,7.36-4.24v3.99v1.02l1.02-0.02l12.19-0.23l1.66-0.03l-0.8-1.45c-0.81-1.47-1.41-2.99-1.78-4.5
				c-0.37-1.51-0.56-3.15-0.56-4.86v-36.11c0-7.6-2.12-13.38-6.31-17.15C324.61,386.39,317.6,384.37,308.17,384.37L308.17,384.37z
				 M306.64,447.32c-4.02,0-7.42-1.25-10.11-3.72c-2.7-2.48-4.01-5.5-4.01-9.23c0-2.94,0.99-5.31,3.03-7.25
				c2.08-1.97,4.85-3.3,8.24-3.96l12.65-2.34l0.03-0.01l0.03-0.01l7.55-1.91v14.66c0,4.15-1.75,7.46-5.34,10.1
				C315.39,446.09,311.33,447.32,306.64,447.32L306.64,447.32z"/>
		</g>
		<g>
			<path d="M370.22,383.79c-6.5,0-12.13,1.55-16.73,4.62c-5.2,3.46-7.83,8.11-7.83,13.82c0,4.52,1.5,8.55,4.46,12
				c2.6,3,6.24,5.45,10.82,7.3l8.55,3.51c2.65,1.03,4.74,2.48,6.22,4.32c1.47,1.82,2.18,3.94,2.18,6.45c0,4.21-1.43,7.23-4.37,9.24
				c-2.56,1.75-5.99,2.63-10.22,2.63c-3.93,0-7.58-0.61-10.85-1.81c-3.22-1.18-5.63-2.67-7.15-4.41l-2.33-2.66l0.59,3.49l1.76,10.43
				l0.09,0.52l0.48,0.22c2.27,1.05,4.86,1.77,7.68,2.14c2.76,0.36,6.23,0.54,10.33,0.54c6.65,0,12.47-1.55,17.3-4.6
				c6.07-3.85,9.14-9.48,9.14-16.76c0-4.88-1.17-8.89-3.49-11.9c-2.29-2.98-6.45-5.7-12.38-8.1l-8.44-3.39
				c-2.41-1.02-4.29-2.32-5.59-3.87c-1.26-1.51-1.88-3.31-1.88-5.5c0-2.89,1.06-5.1,3.24-6.75c2.24-1.69,5.11-2.55,8.54-2.55
				c2.86,0,5.71,0.37,8.48,1.11c2.67,0.72,4.79,1.82,6.3,3.3l1.7,1.65v-2.37v-8.36v-0.61l-0.54-0.28c-2.73-1.43-5.19-2.36-7.31-2.77
				C376.88,383.99,373.93,383.79,370.22,383.79L370.22,383.79z"/>
		</g>
		<g>
			<path d="M414.53,364.59l-1.46,0.76l-12.89,6.69l-1.54,0.8l1.46,0.93c0.7,0.45,1.27,1.04,1.74,1.82c0.09,0.25,0.25,0.59,0.5,1.1v2
				v6.75h-8.03h-1v1v6.68v1h1h8.03v37.8c0,3.39,0.14,6.25,0.42,8.5c0.29,2.36,1.03,4.53,2.19,6.43c2.9,5.06,7.41,7.63,13.4,7.63
				h10.9h1v-1v-6.57v-1h-1h-6.1c-2.56,0-4.67-0.86-6.44-2.64c-0.93-0.93-1.53-2.26-1.77-3.95c-0.27-1.85-0.4-4.22-0.4-7.07v-38.15
				H429h1v-1v-6.68v-1h-1h-14.47v-19.19V364.59L414.53,364.59z"/>
		</g>
	</g>
</g>
<g id="Front">
	<linearGradient id="SVGID_1_" gradientUnits="userSpaceOnUse" x1="275.8824" y1="356.8235" x2="275.8824" y2="17.0588">
		<stop  offset="0.1" style="stop-color:#6F2EE4"/>
		<stop  offset="0.9" style="stop-color:#9C55FE"/>
	</linearGradient>
	<path class="st2" d="M434.94,250c0,8.94-0.56,17.07,8.61,17.07c8,0,24.33-4.36,24.33-41.54c0-27.29-18-96.82-49.76-129.29
		c-28.84-29.48-87.53-79.18-161.53-79.18c-121.88,0-172.71,80-172.71,153.88c0,44.71,47.06,185.88,186.35,185.88
		c109.65,0,128.47-120.13,128.47-143.53c0-85.65-74.82-138.82-142.59-138.82c-33.88,0-101.29,21.76-101.29,96.59
		c0,45.53,51.53,109.76,116.12,109.76c22.94,0,65.82-30.82,65.82-70.94c0-31.59-26.65-83.12-68.47-83.12
		c-20.82,0-47.82,15.88-47.82,40.06c0,18.82,8.76,37.24,19.94,47.47c12.53,11.47,16.18,6.53,21.82,2.76s7.77-11.51,0-19.76
		c-6.8-7.23-12.24-16.94-12.24-23.53c0-6.59,3.68-20.71,20.71-20.71c26.71,0,38,28.24,38,45.53c0,20.47-15.41,51.41-44.12,51.41
		c-43.06,0-79.41-40.82-79.41-81.06c0-43.06,37.06-70.59,81.88-70.59c19.06,0,50.55,10.44,72.13,33.47
		c16.79,17.91,29.4,44.09,29.4,80.53c0,21.4-8.38,47.66-23.58,69.52c-17.23,24.77-43.22,43.89-75.72,43.89
		c-35.06,0-77.16-17.26-105.29-44.94c-32.34-31.82-51.88-91.06-51.88-121.18c0-40.26,20.92-69.35,46.49-87.89
		c30.62-22.2,62.67-29.17,91.39-29.17c22.35,0,86.27,10.76,136.85,58.33c27.85,26.19,49.03,81.43,49.03,115.67
		C435.88,228.82,434.94,250,434.94,250z"/>
	<g>
		<linearGradient id="SVGID_2_" gradientUnits="userSpaceOnUse" x1="107.0233" y1="453.48" x2="107.0233" y2="348.9164">
			<stop  offset="0.1" style="stop-color:#F52E00"/>
			<stop  offset="0.9" style="stop-color:#FA8C50"/>
		</linearGradient>
		<path class="st3" d="M107.73,369.25c0-3.76,1.2-7,3.6-9.71c2.4-2.71,5.41-4.06,9.03-4.06c1.57,0,3.19,0.35,4.84,1.05v-6.91
			c-1.17-0.31-2.17-0.51-2.99-0.59c-0.82-0.08-1.86-0.12-3.11-0.12c-6.41,0-11.61,2.17-15.59,6.51c-3.98,4.34-5.98,9.63-5.98,15.88
			v15.24h-9.26v5.98h9.26v50.76c0,0.63-0.04,1.56-0.12,2.81c-0.08,1.25-0.22,2.42-0.41,3.52c-0.2,1.09-1,2.38-2.4,3.87h16.18
			c-0.94-1.17-1.45-1.8-1.52-1.87c-0.31-0.47-0.63-1.27-0.94-2.4c-0.31-1.13-0.49-2.13-0.53-2.99c-0.04-0.86-0.06-1.84-0.06-2.93
			v-50.76h18.05v-5.98h-18.05V369.25z"/>
		<linearGradient id="SVGID_3_" gradientUnits="userSpaceOnUse" x1="141.944" y1="453.714" x2="141.944" y2="349.5027">
			<stop  offset="0.1" style="stop-color:#F52E00"/>
			<stop  offset="0.9" style="stop-color:#FA8C50"/>
		</linearGradient>
		<path class="st4" d="M147.98,449.15c-0.39-1.48-0.63-2.67-0.7-3.57c-0.08-0.9-0.12-2.16-0.12-3.81l0.12-92.27l-13.01,1.05
			c0.31,0.55,0.74,1.29,1.29,2.22c0.24,0.63,0.45,1.58,0.65,2.87c0.19,1.29,0.45,2.83,0.76,4.62c0,1.41,0,2.77,0,4.1v77.75
			c0,1.17-0.04,2.32-0.11,3.45c-0.07,1.13-0.21,2.15-0.39,3.04c-0.19,0.9-0.37,1.62-0.56,2.17c-0.19,0.54-0.58,1.52-1.17,2.93h14.89
			c-0.39-0.78-0.72-1.58-1-2.4C148.35,450.49,148.14,449.77,147.98,449.15z"/>
		<linearGradient id="SVGID_4_" gradientUnits="userSpaceOnUse" x1="190.0538" y1="492.8806" x2="190.0538" y2="386.7806">
			<stop  offset="0.1" style="stop-color:#F52E00"/>
			<stop  offset="0.9" style="stop-color:#FA8C50"/>
		</linearGradient>
		<path class="st5" d="M207.81,391c0,1.72-0.16,3.09-0.47,4.1l-15.58,41.13l-17.81-39.84c-0.31-0.79-0.83-1.9-1.53-3.32
			c-0.39-1.03-0.59-2.1-0.59-3.2s0.16-2.14,0.47-3.08h-14.18c0.47,0.48,0.98,1.03,1.52,1.66c0.55,0.63,1.05,1.33,1.52,2.08
			c0.47,0.75,0.96,1.64,1.46,2.67c0.51,1.03,0.8,1.67,0.88,1.9l23.7,50.46l-18.86,47.32l8.41-0.01c0.08-0.63,0.27-1.64,0.58-3.05
			s0.54-2.38,0.7-2.93c0.7-1.8,1.44-3.55,2.22-5.27l34.7-85.34c0.7-1.72,1.64-3.36,2.81-4.92c1.17-1.56,2.58-3.09,4.22-4.57h-15.47
			C207.38,388.35,207.81,389.75,207.81,391z"/>
		<linearGradient id="SVGID_5_" gradientUnits="userSpaceOnUse" x1="251.9823" y1="454.3004" x2="251.9823" y2="385.8419">
			<stop  offset="0.1" style="stop-color:#F52E00"/>
			<stop  offset="0.9" style="stop-color:#FA8C50"/>
		</linearGradient>
		<path class="st6" d="M260.54,448.32c-7.82,0-14.42-2.69-19.81-8.09c-5.39-5.39-8.09-12.07-8.09-20.05
			c0-7.74,2.56-14.28,7.68-19.63c5.12-5.35,11.62-8.03,19.52-8.03c3.36,0,6.7,0.49,10.02,1.47c3.32,0.98,6.19,2.33,8.62,4.05v-9.26
			c-3.28-1.33-6.1-2.15-8.44-2.46c-2.35-0.31-5.78-0.47-10.32-0.47c-10.71,0-19.6,3.26-26.67,9.79
			c-7.07,6.53-10.61,14.87-10.61,25.03c0,9.85,3.57,17.91,10.72,24.21c7.15,6.29,16.27,9.44,27.37,9.44c4.22,0,7.75-0.17,10.61-0.53
			c2.85-0.35,5.8-1.15,8.85-2.4l1.52-8.79c-2.42,1.72-5.49,3.11-9.2,4.16C268.61,447.79,264.68,448.32,260.54,448.32z"/>
		<linearGradient id="SVGID_6_" gradientUnits="userSpaceOnUse" x1="309.5717" y1="454.5343" x2="309.5717" y2="385.374">
			<stop  offset="0.1" style="stop-color:#F52E00"/>
			<stop  offset="0.9" style="stop-color:#FA8C50"/>
		</linearGradient>
		<path class="st7" d="M334.31,443.63v-36.11c0-7.34-1.99-12.81-5.98-16.41c-4.22-3.83-10.94-5.74-20.16-5.74
			c-3.75,0-7.29,0.27-10.61,0.82c-3.32,0.55-6.47,1.72-9.44,3.52v7.97c2.42-2.11,5.31-3.55,8.67-4.34
			c3.36-0.78,7.07-1.17,11.14-1.17c4.77,0,8.73,1.15,11.9,3.46c3.16,2.31,4.75,5.14,4.75,8.5c0,2.66-0.63,4.71-1.88,6.15
			c-1.25,1.45-3.95,2.48-8.09,3.11l-13.95,2.35c-6.17,1.02-10.67,2.81-13.48,5.39c-3.21,2.97-4.81,7.31-4.81,13.01
			c0,6.41,2.25,11.49,6.76,15.24c4.2,3.44,9.44,5.16,15.74,5.16c4.35,0,8.02-0.51,11.02-1.52c2.99-1.01,5.89-2.85,8.69-5.51v6.21
			l12.19-0.23c-0.86-1.56-1.49-3.15-1.88-4.75C334.5,447.13,334.31,445.43,334.31,443.63z M325.04,433.55
			c0,4.45-1.92,8.09-5.74,10.9c-3.52,2.58-7.74,3.87-12.66,3.87c-4.3,0-7.89-1.33-10.79-3.99c-2.89-2.66-4.34-5.98-4.34-9.96
			c0-3.21,1.11-5.86,3.34-7.97c2.23-2.11,5.14-3.52,8.73-4.22l12.66-2.35l8.79-2.23V433.55z"/>
		<linearGradient id="SVGID_7_" gradientUnits="userSpaceOnUse" x1="366.9412" y1="455.1207" x2="366.9412" y2="384.7876">
			<stop  offset="0.1" style="stop-color:#F52E00"/>
			<stop  offset="0.9" style="stop-color:#FA8C50"/>
		</linearGradient>
		<path class="st8" d="M374.09,415.69l-8.44-3.39c-2.58-1.09-4.57-2.47-5.98-4.15c-1.41-1.68-2.11-3.72-2.11-6.14
			c0-3.2,1.21-5.71,3.63-7.55c2.42-1.83,5.47-2.75,9.14-2.75c2.97,0,5.88,0.38,8.73,1.14c2.85,0.76,5.1,1.95,6.74,3.55v-8.36
			c-2.66-1.39-5-2.28-7.03-2.67c-2.03-0.39-4.89-0.58-8.56-0.58c-6.33,0-11.72,1.48-16.18,4.45c-4.92,3.28-7.38,7.61-7.38,12.99
			c0,4.29,1.41,8.07,4.22,11.35c2.5,2.89,5.98,5.23,10.43,7.02l8.56,3.51c2.81,1.09,5.02,2.63,6.62,4.62c1.6,1.99,2.4,4.35,2.4,7.08
			c0,4.52-1.6,7.88-4.81,10.06c-2.74,1.87-6.33,2.81-10.78,2.81c-4.06,0-7.8-0.62-11.2-1.87c-3.4-1.25-5.92-2.81-7.56-4.69
			l1.76,10.43c2.19,1.01,4.65,1.7,7.39,2.05c2.73,0.35,6.13,0.53,10.2,0.53c6.49,0,12.08-1.48,16.76-4.45
			c5.78-3.67,8.68-8.97,8.68-15.91c0-4.68-1.09-8.44-3.28-11.29C383.86,420.63,379.87,418.03,374.09,415.69z"/>
		<linearGradient id="SVGID_8_" gradientUnits="userSpaceOnUse" x1="411.769" y1="453.48" x2="411.769" y2="366.2361">
			<stop  offset="0.1" style="stop-color:#F52E00"/>
			<stop  offset="0.9" style="stop-color:#FA8C50"/>
		</linearGradient>
		<path class="st9" d="M423.14,446.91c-2.81,0-5.2-0.98-7.15-2.93c-1.1-1.09-1.78-2.6-2.05-4.51c-0.28-1.91-0.41-4.32-0.41-7.21
			v-39.15H429v-6.68h-15.47v-20.19l-12.89,6.69c0.86,0.55,1.56,1.29,2.11,2.23c0.08,0.23,0.27,0.66,0.59,1.29c0,0.78,0,1.53,0,2.23
			v7.75h-9.03v6.68h9.03v38.8c0,3.36,0.14,6.15,0.41,8.38s0.96,4.24,2.05,6.04c2.73,4.77,6.91,7.15,12.54,7.15h10.9v-6.57H423.14z"
			/>
	</g>
</g>
</svg>
