<?xml version="1.0" encoding="utf-8"?>
<!-- Generator: Adobe Illustrator 25.0.1, SVG Export Plug-In . SVG Version: 6.00 Build 0)  -->
<svg version="1.1"
	 id="Layer_1" xmlns:cc="http://creativecommons.org/ns#" xmlns:dc="http://purl.org/dc/elements/1.1/" xmlns:rdf="http://www.w3.org/1999/02/22-rdf-syntax-ns#"
	 xmlns="http://www.w3.org/2000/svg" xmlns:xlink="http://www.w3.org/1999/xlink" x="0px" y="0px" viewBox="0 0 388.29 72"
	 style="enable-background:new 0 0 388.29 72;" xml:space="preserve">
<style type="text/css">
	.st0{fill:#FFFFFF;}
	.st1{fill:#DD0000;}
</style>
<path d="M309.73,56.89V22.36h-9.15v14.35h-11.08V22.36h-8.85v36.41h8.85V44.96h11.08v13.81h8.44"/>
<path d="M326.03,22.36l-19.14,36.41h9.4l7.19-13.93h8.21v13.93h7.9V22.36L326.03,22.36z M328.09,36.02l3.59-6.26l0.02,6.26H328.09z"
	/>
<g>
	<path class="st0" d="M55.81,5.44c11.6,0.08,33.29,1.72,35.8,4.6c2.8,3.21,4.7,17.01,4.61,25.68c-0.09,8.67-1.84,24.19-5.62,26.35
		c-4.11,2.35-23.21,4.22-34.8,4.13c-11.59-0.09-31.19-1.12-35.21-4.13c-3.33-2.32-5.62-17.85-5.42-26.35
		c0.19-8.5,0.88-21.82,4.88-25.58C23.53,7.07,44.65,5.36,55.81,5.44L55.81,5.44z"/>
	<path class="st1" d="M41.54,11.01v49.36h12.7V41.62h15.98V30.1H54.24v-7.82h15.98V11.01H41.54z"/>
</g>
<path class="st1" d="M343.85,12.91v45.82h11.79v-17.4h14.83V30.63h-14.83v-7.26h14.83V12.91H343.85z"/>
<polygon points="212.47,22.36 212.47,58.77 233.39,58.77 233.39,50.26 221.92,50.26 221.92,45.29 232.86,45.29 232.86,35.84 
	221.92,35.84 221.92,30.87 233.39,30.87 233.39,22.36 "/>
<polygon points="189.36,22.36 189.36,58.77 210.28,58.77 210.28,50.26 198.81,50.26 198.81,45.29 209.75,45.29 209.75,35.84 
	198.81,35.84 198.81,30.87 210.28,30.87 210.28,22.36 "/>
<path class="st1" d="M129.49,12.91v45.82h11.79v-17.4h14.83V30.63h-14.83v-7.26h14.83V12.91H129.49z"/>
<path d="M179.4,45.29c4.7-1.8,7.46-6.03,7.46-11.59c0-7.1-5.08-11.51-13.26-11.51h-13.16v36.78h8.63V46.23h1.01l7.91,12.55h10.13
	L179.4,45.29z M178.13,33.7c0,2.8-1.79,4.22-5.31,4.22h-3.75v-8.44h3.75C176.34,29.48,178.13,30.9,178.13,33.7z"/>
<path d="M260.42,12.37c-13.05,0.17-23.49,10.88-23.33,23.93c0.16,12.82,10.51,23.17,23.33,23.33c7.59-0.18,13.72-3.21,17.52-7.89
	l-8.33-8.14c-2.15,3.19-6.24,4.4-9.11,4.44c-6.44,0-11.67-5.23-11.67-11.67c0-6.44,5.22-11.66,11.67-11.67
	c3.64,0.17,5.62,0.94,8.07,3.41l0.1-0.09l0.08,0.08l9.02-8.11C273.09,15.14,266.87,12.43,260.42,12.37z"/>
</svg>
