<?xml version="1.0" encoding="utf-8"?>
<!-- Generator: Adobe Illustrator 24.2.1, SVG Export Plug-In . SVG Version: 6.00 Build 0)  -->
<svg version="1.1" id="Layer_2" xmlns="http://www.w3.org/2000/svg" xmlns:xlink="http://www.w3.org/1999/xlink" x="0px" y="0px"
	 viewBox="0 0 150 45" style="enable-background:new 0 0 150 45;" xml:space="preserve">
<style type="text/css">
	.st0{fill:url(#SVGID_1_);}
	.st1{fill:#9B9D9D;}
	.st2{fill:url(#SVGID_2_);}
	.st3{fill:url(#SVGID_3_);}
	.st4{fill:url(#SVGID_4_);}
	.st5{fill:url(#SVGID_5_);}
	.st6{opacity:0.5;}
	.st7{fill:#ED2224;}
	.st8{fill:#ACDEDF;}
	.st9{fill:#FFCD05;}
	.st10{fill:#6FBE44;}
	.st11{opacity:0.66;}
	.st12{fill:#FFFFFF;}
	.st13{fill:#9C9CCD;}
</style>
<g>
	<g>
		<linearGradient id="SVGID_1_" gradientUnits="userSpaceOnUse" x1="128.116" y1="40.0519" x2="128.116" y2="4.9481">
			<stop  offset="0" style="stop-color:#5D5F5D"/>
			<stop  offset="0.8659" style="stop-color:#D4D2D2"/>
		</linearGradient>
		<path class="st0" d="M146.09,22.5c0,9.69-3.17,17.55-5.86,17.55c-1.61,0-30.09,0-30.09,0V4.95c0,0,28.2,0,30.09,0
			C142.91,4.95,146.09,12.81,146.09,22.5z"/>
		<ellipse class="st1" cx="110.14" cy="22.5" rx="4.86" ry="17.55"/>
		<ellipse cx="110.12" cy="22.62" rx="2.69" ry="12.18"/>
	</g>
	<g>
		<linearGradient id="SVGID_2_" gradientUnits="userSpaceOnUse" x1="21.884" y1="40.0519" x2="21.884" y2="4.9481">
			<stop  offset="0" style="stop-color:#5D5F5D"/>
			<stop  offset="0.8659" style="stop-color:#D4D2D2"/>
		</linearGradient>
		<path class="st2" d="M3.91,22.5c0-9.69,3.17-17.55,5.86-17.55c1.61,0,30.09,0,30.09,0v35.1c0,0-28.2,0-30.09,0
			C7.09,40.05,3.91,32.19,3.91,22.5z"/>
		<ellipse class="st1" cx="39.86" cy="22.5" rx="4.86" ry="17.55"/>
		<ellipse cx="39.68" cy="22.62" rx="2.69" ry="12.18"/>
	</g>
	<g>
		<linearGradient id="SVGID_3_" gradientUnits="userSpaceOnUse" x1="74.956" y1="25.2462" x2="74.956" y2="20.2314">
			<stop  offset="0" style="stop-color:#5D5F5D"/>
			<stop  offset="0.8659" style="stop-color:#D4D2D2"/>
		</linearGradient>
		<path class="st3" d="M37.37,22.62c0,0.9,0.02,1.78,0.06,2.63h75.05c0.04-0.85,0.06-1.72,0.06-2.63c0-0.82-0.02-1.62-0.05-2.39
			H37.42C37.39,21,37.37,21.8,37.37,22.62z"/>
		<linearGradient id="SVGID_4_" gradientUnits="userSpaceOnUse" x1="37.1699" y1="22.8363" x2="42.2648" y2="22.8363">
			<stop  offset="0.05" style="stop-color:#000000"/>
			<stop  offset="1" style="stop-color:#000000;stop-opacity:0"/>
		</linearGradient>
		<path class="st4" d="M37.24,19.9c0,0-0.07,1.22-0.07,2.76c0,1.54,0.08,3.18,0.08,3.18l5.02-0.07v-5.94L37.24,19.9z"/>
		
			<linearGradient id="SVGID_5_" gradientUnits="userSpaceOnUse" x1="128.7088" y1="23.8494" x2="133.8498" y2="23.8494" gradientTransform="matrix(-1 0 0 -1 241.3867 46.5882)">
			<stop  offset="0.05" style="stop-color:#000000"/>
			<stop  offset="1" style="stop-color:#000000;stop-opacity:0"/>
		</linearGradient>
		<path class="st5" d="M112.6,25.71c0,0,0.07-1.29,0.07-2.83s-0.06-3.11-0.06-3.11h-5.08v5.94H112.6z"/>
	</g>
</g>
<g class="st6">
	<path class="st7" d="M60.5,22.62c0-8.85-3.17-12.18-3.17-12.18l-17.66,0c-1.64,0-2.68,6.8-2.68,12.18s1.04,12.18,2.68,12.18
		l17.66,0C57.33,34.8,60.5,31.47,60.5,22.62z"/>
	<path class="st8" d="M89.32,22.62c0-12.18,3.15-12.18,3.15-12.18l17.65,0c1.64,0,2.69,6.24,2.69,12.18s-1.04,12.18-2.69,12.18
		l-17.65,0C92.47,34.8,89.32,34.8,89.32,22.62z"/>
	<path class="st9" d="M74.9,34.8H57.33c0,0-0.97,0.21-0.97-12.18s0.97-12.18,0.97-12.18H74.9V34.8z"/>
	<path class="st10" d="M74.9,10.44h17.57c0,0,0.97-0.21,0.97,12.18S92.47,34.8,92.47,34.8H74.9V10.44z"/>
</g>
<g class="st11">
	<g>
		<polygon class="st12" points="73.2,31.13 73.2,27.19 84.9,27.19 84.9,25.27 76.12,25.27 76.12,22.35 73.2,22.35 73.2,18.41 
			76.12,18.41 76.12,15.48 85.92,15.48 85.92,19.42 77.14,19.42 77.14,21.33 85.92,21.33 85.92,24.26 88.84,24.26 88.84,28.2 
			85.92,28.2 85.92,31.13 		"/>
		<path class="st13" d="M85.41,15.99v2.93h-8.78v-2.93H85.41 M76.63,18.91v2.93H73.7v-2.93H76.63 M85.41,21.84v2.93h-8.78v-2.93
			H85.41 M88.34,24.77v2.93h-2.93v-2.93H88.34 M85.41,27.69v2.93H73.7v-2.93H85.41 M86.43,14.97h-1.01h-8.78h-1.01v1.01v1.91H73.7
			h-1.01v1.01v2.93v1.01h1.01h1.91v1.91v1.01h1.01h7.76v0.9H73.7h-1.01v1.01v2.93v1.01h1.01h11.71h1.01v-1.01v-1.91h1.91h1.01v-1.01
			v-2.93v-1.01h-1.01h-1.91v-1.91v-1.01h-1.01h-7.76v-0.9h7.76h1.01v-1.01v-2.93V14.97L86.43,14.97z"/>
	</g>
	<g>
		<path class="st12" d="M93.68,31.13V28.2h-2.93v-9.79h2.93v-2.93h9.79v2.93h2.93v3.94h-2.93v2.93H94.7v1.91h11.71v3.94H93.68z
			 M102.46,21.33v-1.91H94.7v1.91H102.46z"/>
		<path class="st13" d="M102.97,15.99v2.93h-8.78v-2.93H102.97 M94.19,18.91v2.93h8.78v2.93h-8.78v2.93h-2.93v-8.78H94.19
			 M105.9,18.91v2.93h-2.93v-2.93H105.9 M105.9,27.69v2.93H94.19v-2.93H105.9 M103.98,14.97h-1.01h-8.78h-1.01v1.01v1.91h-1.91
			h-1.01v1.01v8.78v1.01h1.01h1.91v1.91v1.01h1.01h11.71h1.01v-1.01v-2.93v-1.01h-1.01H95.2v-0.9h7.76h1.01v-1.01v-1.91h1.91h1.01
			v-1.01v-2.93V17.9h-1.01h-1.91v-1.91V14.97L103.98,14.97z M95.2,19.93h6.75v0.9H95.2V19.93L95.2,19.93z"/>
	</g>
	<g>
		<polygon class="st12" points="58.56,31.13 58.56,28.2 55.64,28.2 55.64,15.48 59.58,15.48 59.58,27.19 67.34,27.19 67.34,15.48 
			71.29,15.48 71.29,28.2 68.36,28.2 68.36,31.13 		"/>
		<path class="st13" d="M70.78,15.99v11.71h-2.93V15.99H70.78 M59.07,15.99v11.71h-2.93V15.99H59.07 M67.85,27.69v2.93h-8.78v-2.93
			H67.85 M71.79,14.97h-1.01h-2.93h-1.01v1.01v10.69h-6.75V15.99v-1.01h-1.01h-2.93h-1.01v1.01v11.71v1.01h1.01h1.91v1.91v1.01h1.01
			h8.78h1.01v-1.01v-1.91h1.91h1.01v-1.01V15.99V14.97L71.79,14.97z"/>
	</g>
	<g>
		<polygon class="st12" points="43.98,31.13 43.98,15.48 46.9,15.48 46.9,12.55 53.77,12.55 53.77,16.49 47.92,16.49 47.92,18.41 
			50.84,18.41 50.84,22.35 47.92,22.35 47.92,31.13 		"/>
		<path class="st13" d="M53.26,13.06v2.93h-5.85v-2.93H53.26 M47.41,15.99v2.93h2.93v2.93h-2.93v8.78h-2.93V15.99H47.41
			 M54.28,12.05h-1.01h-5.85h-1.01v1.01v1.91h-1.91h-1.01v1.01v14.63v1.01h1.01h2.93h1.01v-1.01v-7.76h1.91h1.01v-1.01v-2.93V17.9
			h-1.01h-1.91V17h4.84h1.01v-1.01v-2.93V12.05L54.28,12.05z"/>
	</g>
</g>
</svg>
