<?xml version="1.0" encoding="utf-8"?>
<!-- Generator: Adobe Illustrator 25.0.1, SVG Export Plug-In . SVG Version: 6.00 Build 0)  -->
<svg version="1.1"
	 id="Layer_1" xmlns:cc="http://creativecommons.org/ns#" xmlns:dc="http://purl.org/dc/elements/1.1/" xmlns:rdf="http://www.w3.org/1999/02/22-rdf-syntax-ns#" xmlns:svg="http://www.w3.org/2000/svg"
	 xmlns="http://www.w3.org/2000/svg" xmlns:xlink="http://www.w3.org/1999/xlink" x="0px" y="0px" viewBox="0 0 411.53 88.24"
	 style="enable-background:new 0 0 411.53 88.24;" xml:space="preserve">
<style type="text/css">
	.st0{fill:#3EA3DC;}
	.st1{fill:#1D1D1B;}
</style>
<rect x="18.3" y="67.12" class="st0" width="378.49" height="1.76"/>
<g>
	<path class="st1" d="M67.27,45.24c-0.56,0.07-1.32,0.18-2.27,0.33c-0.95,0.15-1.72,0.37-2.3,0.65c-0.7,0.35-1.2,0.85-1.49,1.49
		c-0.29,0.65-0.44,1.4-0.44,2.27v3.87c0,2.81,0.02,4.71,0.05,5.7s0.08,1.79,0.12,2.43c-3.12,1.41-6.22,2.48-9.32,3.23
		s-6.13,1.12-9.11,1.12c-3.19,0-6.26-0.6-9.21-1.79c-2.95-1.2-5.53-2.9-7.73-5.1c-2.23-2.23-4-4.94-5.31-8.13
		c-1.31-3.19-1.97-6.75-1.97-10.7c0-3.8,0.63-7.32,1.88-10.57c1.25-3.25,3.03-6.07,5.33-8.46c2.23-2.34,4.88-4.17,7.96-5.47
		c3.08-1.3,6.38-1.95,9.9-1.95c2.81,0,5.26,0.34,7.35,1.02c2.09,0.68,3.93,1.5,5.52,2.46l1.44-2.39h2.81l0.32,17.44h-2.88
		c-0.49-1.92-1.1-3.81-1.83-5.68c-0.73-1.86-1.67-3.53-2.82-5.01c-1.15-1.48-2.55-2.65-4.21-3.53c-1.65-0.88-3.63-1.32-5.93-1.32
		c-2.51,0-4.75,0.51-6.72,1.53c-1.97,1.02-3.68,2.54-5.14,4.56c-1.43,1.95-2.53,4.38-3.31,7.28c-0.77,2.91-1.16,6.16-1.16,9.75
		c0,3.17,0.38,6.15,1.14,8.95c0.76,2.8,1.87,5.22,3.33,7.27c1.45,2.09,3.27,3.73,5.46,4.93s4.66,1.79,7.43,1.79
		c2.07,0,3.95-0.32,5.65-0.95c1.7-0.63,2.9-1.3,3.61-2c0.19-1.22,0.29-2.45,0.3-3.69c0.01-1.24,0.02-2.3,0.02-3.16v-2.74
		c0-0.98-0.14-1.86-0.4-2.62c-0.27-0.76-0.83-1.32-1.67-1.67c-0.77-0.35-1.82-0.62-3.15-0.79c-1.32-0.18-2.36-0.29-3.11-0.33v-2.57
		h21.87V45.24z"/>
	<path class="st1" d="M101.09,56.98c-1.45,2.77-3.4,4.97-5.84,6.61c-2.44,1.64-5.24,2.46-8.4,2.46c-2.79,0-5.23-0.49-7.33-1.48
		c-2.1-0.98-3.83-2.32-5.19-4.01c-1.36-1.69-2.37-3.66-3.04-5.91s-1-4.63-1-7.14c0-2.25,0.36-4.46,1.07-6.63
		c0.71-2.17,1.76-4.12,3.15-5.85c1.34-1.66,2.99-3.01,4.97-4.03c1.98-1.02,4.2-1.53,6.66-1.53c2.53,0,4.7,0.4,6.5,1.2
		c1.8,0.8,3.27,1.89,4.39,3.27c1.08,1.31,1.88,2.86,2.41,4.64c0.53,1.78,0.79,3.71,0.79,5.8v2.32H77.29c0,2.28,0.22,4.35,0.65,6.2
		c0.43,1.86,1.12,3.49,2.06,4.9c0.91,1.36,2.11,2.44,3.59,3.22s3.23,1.18,5.27,1.18c2.09,0,3.88-0.49,5.4-1.47s2.97-2.74,4.38-5.28
		L101.09,56.98z M93.32,43.76c0-1.31-0.11-2.71-0.33-4.21c-0.22-1.5-0.58-2.75-1.07-3.75c-0.54-1.07-1.28-1.95-2.21-2.63
		c-0.94-0.68-2.14-1.02-3.62-1.02c-2.46,0-4.51,1.02-6.13,3.07c-1.63,2.04-2.51,4.89-2.65,8.53H93.32z"/>
	<path class="st1" d="M137.94,64.5c-1.1,0.4-2.07,0.72-2.9,0.97c-0.83,0.25-1.78,0.37-2.83,0.37c-1.83,0-3.29-0.43-4.38-1.28
		c-1.09-0.86-1.79-2.1-2.09-3.74h-0.21c-1.52,1.69-3.16,2.98-4.9,3.87c-1.75,0.89-3.85,1.34-6.31,1.34c-2.6,0-4.74-0.8-6.42-2.39
		c-1.68-1.59-2.51-3.68-2.51-6.26c0-1.34,0.19-2.53,0.56-3.59c0.37-1.05,0.94-2,1.69-2.85c0.59-0.7,1.36-1.33,2.32-1.88
		c0.96-0.55,1.86-0.99,2.71-1.32c1.05-0.4,3.19-1.14,6.42-2.21c3.22-1.08,5.4-1.92,6.52-2.53v-3.48c0-0.3-0.06-0.89-0.19-1.76
		c-0.13-0.87-0.4-1.69-0.83-2.46c-0.47-0.87-1.13-1.62-1.99-2.27c-0.86-0.64-2.07-0.97-3.64-0.97c-1.08,0-2.08,0.18-3.01,0.54
		c-0.93,0.36-1.58,0.74-1.95,1.14c0,0.47,0.11,1.16,0.33,2.07c0.22,0.91,0.33,1.76,0.33,2.53c0,0.82-0.37,1.57-1.11,2.25
		c-0.74,0.68-1.76,1.02-3.08,1.02c-1.17,0-2.03-0.42-2.58-1.25c-0.55-0.83-0.83-1.76-0.83-2.79c0-1.08,0.38-2.11,1.14-3.09
		c0.76-0.98,1.75-1.86,2.97-2.64c1.05-0.66,2.33-1.21,3.83-1.67c1.5-0.46,2.96-0.69,4.39-0.69c1.97,0,3.69,0.14,5.15,0.4
		c1.46,0.27,2.79,0.85,3.99,1.74c1.2,0.87,2.1,2.04,2.72,3.53c0.62,1.49,0.93,3.4,0.93,5.75c0,3.35-0.04,6.32-0.11,8.91
		c-0.07,2.59-0.11,5.42-0.11,8.49c0,0.91,0.16,1.64,0.47,2.18s0.8,1,1.46,1.37c0.35,0.21,0.91,0.33,1.67,0.35
		c0.76,0.02,1.54,0.04,2.34,0.04V64.5z M125.67,45.94c-1.99,0.59-3.74,1.16-5.24,1.73c-1.5,0.56-2.9,1.27-4.18,2.11
		c-1.17,0.8-2.1,1.75-2.78,2.84c-0.68,1.09-1.02,2.39-1.02,3.89c0,1.95,0.51,3.38,1.53,4.3s2.31,1.37,3.88,1.37
		c1.66,0,3.13-0.41,4.39-1.22s2.33-1.77,3.2-2.87L125.67,45.94z"/>
	<path class="st1" d="M167.92,34.94c0,1.2-0.29,2.26-0.88,3.18c-0.59,0.93-1.49,1.39-2.71,1.39c-1.31,0-2.31-0.34-3.01-1.02
		c-0.69-0.68-1.04-1.43-1.04-2.25c0-0.52,0.04-0.98,0.12-1.41s0.16-0.84,0.23-1.27c-1.1,0-2.39,0.45-3.87,1.34
		c-1.48,0.89-2.73,2.16-3.76,3.8v20.18c0,0.82,0.16,1.49,0.47,2s0.81,0.9,1.49,1.16c0.59,0.23,1.34,0.41,2.27,0.53
		s1.73,0.2,2.41,0.25v2.32h-18.28v-2.32c0.54-0.05,1.1-0.09,1.67-0.14c0.57-0.05,1.07-0.14,1.49-0.28c0.66-0.21,1.14-0.58,1.46-1.11
		s0.47-1.21,0.47-2.05V37.85c0-0.73-0.17-1.44-0.51-2.14c-0.34-0.7-0.81-1.26-1.42-1.69c-0.45-0.28-0.97-0.49-1.58-0.61
		c-0.61-0.13-1.27-0.22-1.97-0.26v-2.32l11.53-0.77l0.49,0.49v4.89h0.18c1.45-1.9,3.07-3.34,4.85-4.32s3.41-1.48,4.89-1.48
		s2.68,0.48,3.6,1.44C167.46,32.03,167.92,33.32,167.92,34.94z"/>
	<path class="st1" d="M202.83,42.25c1.05,1.17,1.83,2.46,2.34,3.85c0.5,1.39,0.76,3.02,0.76,4.87c0,4.41-1.63,8.04-4.89,10.9
		c-3.26,2.86-7.3,4.29-12.13,4.29c-2.23,0-4.45-0.35-6.68-1.04c-2.23-0.69-4.15-1.53-5.77-2.51l-1.51,2.57h-2.81l-0.49-17.09h2.85
		c0.59,2.11,1.27,4.01,2.06,5.71s1.82,3.29,3.11,4.76c1.22,1.38,2.64,2.48,4.27,3.3s3.52,1.23,5.68,1.23c1.62,0,3.03-0.21,4.24-0.63
		c1.21-0.42,2.19-1.02,2.94-1.8c0.75-0.77,1.31-1.68,1.67-2.73c0.36-1.04,0.54-2.25,0.54-3.61c0-1.99-0.56-3.85-1.69-5.58
		s-2.8-3.03-5.03-3.93c-1.52-0.61-3.27-1.28-5.24-2.01c-1.97-0.73-3.67-1.43-5.1-2.08c-2.81-1.27-5-2.92-6.56-4.97
		c-1.56-2.05-2.34-4.73-2.34-8.03c0-1.9,0.39-3.67,1.16-5.31c0.77-1.64,1.88-3.1,3.3-4.39c1.36-1.22,2.96-2.17,4.82-2.86
		s3.79-1.04,5.8-1.04c2.3,0,4.35,0.35,6.17,1.05s3.47,1.52,4.97,2.46l1.44-2.39h2.81l0.28,16.56h-2.85c-0.52-1.9-1.1-3.71-1.74-5.45
		c-0.64-1.73-1.48-3.3-2.51-4.71c-1.01-1.36-2.24-2.44-3.69-3.25s-3.23-1.21-5.34-1.21c-2.23,0-4.12,0.72-5.7,2.14
		c-1.57,1.43-2.36,3.18-2.36,5.24c0,2.16,0.5,3.94,1.51,5.36c1.01,1.42,2.47,2.58,4.39,3.5c1.71,0.82,3.39,1.53,5.04,2.13
		s3.25,1.24,4.8,1.92c1.41,0.61,2.76,1.3,4.06,2.07S201.87,41.22,202.83,42.25z"/>
	<path class="st1" d="M208.63,76.46c0-1.17,0.32-2.13,0.97-2.87c0.64-0.74,1.45-1.11,2.41-1.11c0.75,0,1.39,0.14,1.93,0.42
		c0.54,0.28,1.02,0.64,1.44,1.08c0.35,0.35,0.73,0.83,1.12,1.43c0.4,0.6,0.71,1.1,0.95,1.5c1.17-0.63,2.57-2.28,4.2-4.95
		c1.63-2.67,2.81-5,3.53-7.02c-2.23-5.55-4.24-10.52-6.04-14.9c-1.8-4.38-3.69-8.92-5.66-13.6c-0.45-1.08-1.2-1.92-2.25-2.51
		s-2.11-0.98-3.16-1.14v-2.32h15.83v2.46c-0.7,0.02-1.55,0.17-2.53,0.44s-1.48,0.58-1.48,0.93c0,0.14,0.05,0.37,0.16,0.7
		c0.11,0.33,0.23,0.67,0.37,1.02c0.89,2.32,2.24,5.66,4.07,10.03s3.24,7.86,4.24,10.48c1.06-2.5,2.15-5.1,3.29-7.78
		c1.14-2.68,2.41-5.85,3.82-9.5c0.16-0.44,0.4-1.06,0.7-1.84c0.3-0.78,0.46-1.46,0.46-2.02c0-0.61-0.53-1.18-1.6-1.7
		s-2.08-0.85-3.04-0.97v-2.25h12.87v2.18c-0.7,0.12-1.63,0.52-2.78,1.21c-1.15,0.69-2,1.67-2.57,2.94
		c-2.79,6.47-5.27,12.36-7.44,17.68s-3.81,9.23-4.94,11.74c-1.48,3.28-2.79,5.84-3.96,7.68c-1.16,1.84-2.29,3.29-3.39,4.34
		c-1.08,0.98-2.06,1.65-2.94,1.99c-0.88,0.34-1.79,0.51-2.72,0.51c-1.83,0-3.26-0.43-4.31-1.3
		C209.16,78.58,208.63,77.58,208.63,76.46z"/>
	<path class="st1" d="M269.6,48.16c0.96,0.84,1.7,1.82,2.21,2.92s0.77,2.45,0.77,4.04c0,3.21-1.2,5.84-3.6,7.88
		c-2.4,2.04-5.51,3.06-9.33,3.06c-2.02,0-3.87-0.36-5.57-1.09c-1.7-0.73-2.91-1.39-3.64-2l-0.7,2.29h-2.64l-0.35-12.06h2.43
		c0.19,0.92,0.59,1.99,1.2,3.21c0.61,1.22,1.35,2.33,2.21,3.32c0.91,1.04,2.01,1.91,3.29,2.61c1.28,0.71,2.71,1.06,4.31,1.06
		c2.25,0,3.98-0.51,5.2-1.54s1.83-2.49,1.83-4.4c0-0.98-0.19-1.83-0.58-2.55s-0.96-1.34-1.71-1.88c-0.77-0.54-1.72-1.03-2.85-1.46
		s-2.38-0.86-3.76-1.28c-1.1-0.33-2.33-0.78-3.67-1.35s-2.5-1.25-3.46-2.02c-1.03-0.82-1.88-1.83-2.53-3.02s-0.98-2.6-0.98-4.22
		c0-2.84,1.05-5.24,3.16-7.21s4.93-2.95,8.47-2.95c1.36,0,2.75,0.18,4.17,0.53s2.57,0.77,3.46,1.27l0.81-1.83h2.53l0.53,11.14h-2.43
		c-0.49-2.49-1.55-4.52-3.18-6.09c-1.63-1.56-3.62-2.35-5.96-2.35c-1.92,0-3.43,0.48-4.54,1.45c-1.1,0.97-1.65,2.14-1.65,3.51
		c0,1.05,0.18,1.93,0.54,2.64s0.91,1.3,1.63,1.79c0.7,0.47,1.59,0.91,2.65,1.32c1.07,0.41,2.38,0.87,3.96,1.39
		c1.55,0.49,3.01,1.07,4.38,1.72C267.57,46.63,268.7,47.36,269.6,48.16z"/>
	<path class="st1" d="M299.23,63.63c-1.52,0.63-2.96,1.17-4.32,1.6s-3.02,0.65-4.99,0.65c-2.91,0-4.95-0.73-6.13-2.2
		c-1.18-1.46-1.78-3.53-1.78-6.21V33.99h-6.26v-3.38h6.4V19.82h6.4v10.79h9.95v3.38h-9.88v19.37c0,1.45,0.05,2.67,0.16,3.64
		s0.36,1.82,0.76,2.55c0.38,0.68,0.94,1.2,1.69,1.55s1.76,0.53,3.02,0.53c0.59,0,1.45-0.05,2.58-0.16s1.94-0.24,2.41-0.4V63.63z"/>
	<path class="st1" d="M333.47,56.98c-1.45,2.77-3.4,4.97-5.84,6.61c-2.44,1.64-5.24,2.46-8.4,2.46c-2.79,0-5.23-0.49-7.33-1.48
		c-2.1-0.98-3.83-2.32-5.19-4.01s-2.37-3.66-3.04-5.91s-1-4.63-1-7.14c0-2.25,0.36-4.46,1.07-6.63c0.71-2.17,1.76-4.12,3.15-5.85
		c1.34-1.66,2.99-3.01,4.97-4.03s4.2-1.53,6.66-1.53c2.53,0,4.7,0.4,6.5,1.2c1.8,0.8,3.27,1.89,4.39,3.27
		c1.08,1.31,1.88,2.86,2.41,4.64c0.53,1.78,0.79,3.71,0.79,5.8v2.32h-22.96c0,2.28,0.22,4.35,0.65,6.2c0.43,1.86,1.12,3.49,2.06,4.9
		c0.91,1.36,2.11,2.44,3.59,3.22s3.23,1.18,5.27,1.18c2.09,0,3.88-0.49,5.4-1.47s2.97-2.74,4.38-5.28L333.47,56.98z M325.7,43.76
		c0-1.31-0.11-2.71-0.33-4.21s-0.58-2.75-1.07-3.75c-0.54-1.07-1.28-1.95-2.21-2.63c-0.94-0.68-2.14-1.02-3.62-1.02
		c-2.46,0-4.51,1.02-6.13,3.07s-2.51,4.89-2.65,8.53H325.7z"/>
	<path class="st1" d="M396.79,65.14h-16.88v-2.32c0.54-0.05,1.08-0.09,1.63-0.14s1.04-0.14,1.46-0.28c0.66-0.21,1.14-0.58,1.46-1.11
		s0.47-1.21,0.47-2.06V41.34c0-2.44-0.56-4.32-1.67-5.64c-1.11-1.32-2.5-1.99-4.17-1.99c-1.15,0-2.23,0.18-3.23,0.53
		s-1.93,0.84-2.78,1.48c-0.68,0.52-1.25,1.07-1.71,1.67s-0.8,1.1-1.04,1.49v20c0,0.82,0.14,1.49,0.42,2.02s0.76,0.93,1.44,1.21
		c0.54,0.21,1.03,0.37,1.46,0.47s1,0.18,1.71,0.23v2.32h-16.52v-2.32c0.54-0.05,1.06-0.09,1.56-0.14s0.97-0.14,1.39-0.28
		c0.66-0.21,1.14-0.58,1.46-1.11s0.47-1.21,0.47-2.06V41.34c0-2.44-0.56-4.32-1.67-5.64c-1.12-1.32-2.51-1.99-4.18-1.99
		c-1.15,0-2.23,0.18-3.24,0.54c-1.01,0.36-1.94,0.86-2.78,1.49c-0.68,0.52-1.26,1.1-1.73,1.74c-0.47,0.65-0.82,1.13-1.06,1.46v19.86
		c0,0.8,0.16,1.46,0.49,2s0.82,0.95,1.48,1.23c0.49,0.23,1,0.41,1.51,0.53s1.09,0.2,1.72,0.25v2.32h-16.84v-2.32
		c0.54-0.05,1.1-0.09,1.67-0.14s1.07-0.14,1.49-0.28c0.66-0.21,1.14-0.58,1.46-1.11s0.47-1.21,0.47-2.05V37.71
		c0-0.75-0.17-1.42-0.51-2.02c-0.34-0.6-0.81-1.11-1.42-1.53c-0.45-0.28-1-0.51-1.65-0.68s-1.34-0.29-2.04-0.33v-2.32l11.6-0.77
		l0.49,0.49v4.96h0.25c0.59-0.59,1.3-1.28,2.14-2.07c0.84-0.8,1.63-1.44,2.36-1.93c0.82-0.56,1.85-1.03,3.08-1.41
		c1.23-0.37,2.56-0.56,3.99-0.56c2.25,0,4.18,0.6,5.8,1.81c1.62,1.21,2.78,2.67,3.48,4.38c0.84-0.82,1.58-1.54,2.23-2.16
		c0.64-0.62,1.49-1.28,2.54-1.99c0.89-0.61,1.94-1.1,3.14-1.48c1.21-0.37,2.54-0.56,4.02-0.56c2.92,0,5.24,0.96,6.95,2.88
		c1.71,1.92,2.56,4.88,2.56,8.86v17.61c0,0.82,0.14,1.49,0.42,2.02s0.76,0.93,1.44,1.21c0.54,0.21,1.07,0.37,1.6,0.47
		s1.12,0.18,1.78,0.23V65.14z"/>
</g>
</svg>
