<?xml version="1.0" encoding="utf-8"?>
<!-- Generator: Adobe Illustrator 25.0.1, SVG Export Plug-In . SVG Version: 6.00 Build 0)  -->
<svg version="1.1" xmlns="http://www.w3.org/2000/svg" xmlns:xlink="http://www.w3.org/1999/xlink" x="0px" y="0px"
	 viewBox="0 0 460 100" style="enable-background:new 0 0 460 100;" xml:space="preserve">
<style type="text/css">
	.st0{fill:#D8D8D8;}
	.st1{clip-path:url(#SVGID_2_);}
	.st2{fill:#9BBC0F;}
	.st3{fill:#8BAC0F;}
	.st4{fill:#306230;}
	.st5{fill:#0F380F;}
</style>
<g id="Layer_1" xmlns:cc="http://creativecommons.org/ns#" xmlns:dc="http://purl.org/dc/elements/1.1/" xmlns:rdf="http://www.w3.org/1999/02/22-rdf-syntax-ns#" xmlns:svg="http://www.w3.org/2000/svg">
	<g>
		<path class="st0" d="M421.01,8.78l-11.64,18.75l-7.38-18.75h-28.52l2.32,5.04c0,0-7.67-6.51-19.19-6.51
			c-25.19,0-33.97,22.59-33.97,22.59s-3.08-20.6-23.11-20.6l-0.02,0l-0.02,0c-2.49-0.04-33.21,0.02-33.21,0.02l-13.35,84.5h40.54
			c22.29,0,27.44-20.54,27.44-20.54s6.43,20.54,30.16,20.54c38.53,0,39.94-47,39.94-47l3.33,7.24l-6.34,39.76h25.32l5.18-34.6
			l32.11-50.44H421.01z M290.32,69.74h-8.05l0.87-5.44H292c2.48,0,4.14,0.92,4.14,2.28C296.14,67.21,295.55,69.74,290.32,69.74z
			 M292.2,39.26h-5.04l0.74-4.4h6.02c1.51,0,2.43,0.76,2.43,1.24C296.35,37.14,295.34,39.26,292.2,39.26z M364.09,55.63
			c-3.17,8.96-9.01,13.74-13.39,13.74c-7.01,0-10.89-13.06-7.23-24.01c3.01-9.03,9.01-13.75,13.39-13.75
			C366.7,31.6,366.56,48.64,364.09,55.63z"/>
		<path class="st0" d="M246.51,33.7c0.13-6.59-2.75-12.87-8.12-17.69c-4.47-4.02-10.32-6.59-15.25-6.7l-33.09,0.02l-7.46,46.59
			l-7.9-47.17h-26.31L125.06,61.7l3.68-23.31h-23.79l0.58-3.8h27.06l4.08-25.8H84.04l-0.01,0.03c-6.38-2.14-12.78-3.23-19.06-3.23
			c-11.05,0-21.63,3.23-32.35,9.87c-8.26,5.06-14.35,11.55-18.1,19.29C10.7,42.62,9.3,51.8,10.36,62.04
			c0.89,8.88,5.5,17.04,12.99,22.95c7.21,5.7,16.46,8.83,26.04,8.83c7.57,0,15.15-1.99,21.99-5.76l-0.92,5.76h67.11l10.2-22.6h10.78
			l3.92,22.6h39.22l5.07-29.52h2.44l5.12,29.52h26.46l-6.36-37.96C234.44,55.86,246.51,49.06,246.51,33.7z M78.06,46.23H43.97
			l-3.35,20.8c0,0-5.65-4.84-5.65-12.18c0-14.26,16.34-23.75,32.23-23.75c7.5,0,12.84,2.78,12.84,2.78L78.06,46.23z M122.26,68.06
			H100.5l0.61-3.88h22.85L122.26,68.06z M215.83,39.26h-5.04l0.74-4.4h6.02c2.43,0,2.43,0.9,2.43,1.24
			C219.99,37.14,218.97,39.26,215.83,39.26z"/>
	</g>
</g>
<g id="Layer_2">
	<g>
		<defs>
			<path id="SVGID_1_" d="M241.71,33.6c0.23-11.57-11.41-19.33-18.68-19.5c-8.36-0.12-29.04,0-29.04,0h0.16L182.7,85.61
				l-12.06-72.07h-19.12l-31.58,71.7l1.99-12.38H94.89l2.12-13.48h23.56l2.56-16.2H99.37l2.04-13.4h27.08l2.56-16.2H88.13
				L76.09,89.02h58.38l10.2-22.6h17.92l3.92,22.6h31.16l2.59-14.48l2.4-15.04c0,0,2.7,0,10.58,0l5.12,29.52h16.76l-5.92-35.39
				c1.45-0.91,2.85-1.92,4.11-3.05C240.11,44.5,241.61,38.64,241.71,33.6z M150.8,51.82l6.56-14.64l2.88,14.64H150.8z M215.83,44.06
				c-8.52,0-10.72,0-10.72,0l2.36-14c0,0,0.32,0,10.08,0C228.51,30.06,226.27,44.06,215.83,44.06z M48.06,51.03l-2.28,14.16h12.08
				l-1.4,7.56c-6.88,2.84-18.56,1.76-23.56-7.2c-3.16-5.68-6.12-18.32,7.2-29.96c10.88-9.48,29.68-11.2,40.52-6.24
				c0,0,1.36-7.96,2.4-15.32c-20.84-7.2-37.04-1.2-47.88,5.52c-14.84,9.08-21.96,23.04-20,42c2.2,21.96,30.64,35.84,54.76,21.84
				c1.7-1.01,2.6-4.88,2.6-4.88l4.32-27.48H48.06z M423.68,13.58l-15.28,24.6l-9.68-24.6h-17.76l18.32,39.8l-5.68,35.64h15.56
				l4.72-31.52l27.96-43.92H423.68z M362.6,12.79c-17.2-3.96-35.08,9.72-39.92,30.56c-4.76,20.88,5.24,41,22.4,45
				c17.2,3.92,35.04-9.76,39.92-30.6C389.76,36.87,379.72,16.75,362.6,12.79z M368.64,57.15c-4.16,12.48-14.24,19.76-22.44,16.04
				c-8.16-3.64-11.48-16.8-7.28-29.36c4.2-12.6,14.24-19.72,22.4-16.08C369.52,31.43,372.84,44.59,368.64,57.15z M299.4,14.1
				c-8.36-0.12-29.04,0-29.04,0h0.16l-12,74.92c0,0,24.84,0,34.92,0c14.4,0,35.4-21.16,16.24-38.44
				C329.28,30.22,309.84,14.34,299.4,14.1z M290.32,74.54c-8.56,0-13.68,0-13.68,0l2.4-15.04c0,0,3.24,0,12.96,0
				C304.36,59.5,304,74.54,290.32,74.54z M292.2,44.06c-8.52,0-10.72,0-10.72,0l2.36-14c0,0,0.32,0,10.08,0
				C304.88,30.06,302.64,44.06,292.2,44.06z"/>
		</defs>
		<clipPath id="SVGID_2_">
			<use xlink:href="#SVGID_1_"  style="overflow:visible;"/>
		</clipPath>
		<g class="st1">
			<rect x="3.92" y="8.47" class="st2" width="446.12" height="20.75"/>
			<rect x="3.92" y="29.23" class="st3" width="446.12" height="20.75"/>
			<rect x="3.92" y="49.98" class="st4" width="446.12" height="20.75"/>
			<rect x="3.92" y="70.73" class="st5" width="446.12" height="20.75"/>
		</g>
	</g>
</g>
</svg>
