<svg xmlns="http://www.w3.org/2000/svg" xmlns:xlink="http://www.w3.org/1999/xlink" xml:space="preserve" style="enable-background:new 0 0 460 100" viewBox="0 0 460 100">
  <path xmlns:cc="http://creativecommons.org/ns#" xmlns:dc="http://purl.org/dc/elements/1.1/" xmlns:rdf="http://www.w3.org/1999/02/22-rdf-syntax-ns#" xmlns:svg="http://www.w3.org/2000/svg" d="m421.01 8.78-11.64 18.75-7.38-18.75h-28.52l2.32 5.04s-7.67-6.51-19.19-6.51c-25.19 0-33.97 22.59-33.97 22.59s-3.08-20.6-23.11-20.6h-.04c-2.49-.04-33.21.02-33.21.02l-13.35 84.5h40.54c22.29 0 27.44-20.54 27.44-20.54s6.43 20.54 30.16 20.54c38.53 0 39.94-47 39.94-47l3.33 7.24-6.34 39.76h25.32l5.18-34.6L450.6 8.78h-29.59zM290.32 69.74h-8.05l.87-5.44H292c2.48 0 4.14.92 4.14 2.28 0 .63-.59 3.16-5.82 3.16zm1.88-30.48h-5.04l.74-4.4h6.02c1.51 0 2.43.76 2.43 1.24 0 1.04-1.01 3.16-4.15 3.16zm71.89 16.37c-3.17 8.96-9.01 13.74-13.39 13.74-7.01 0-10.89-13.06-7.23-24.01 3.01-9.03 9.01-13.75 13.39-13.75 9.84-.01 9.7 17.03 7.23 24.02zM246.51 33.7c.13-6.59-2.75-12.87-8.12-17.69-4.47-4.02-10.32-6.59-15.25-6.7l-33.09.02-7.46 46.59-7.9-47.17h-26.31L125.06 61.7l3.68-23.31h-23.79l.58-3.8h27.06l4.08-25.8H84.04l-.01.03a59.89 59.89 0 0 0-19.06-3.23c-11.05 0-21.63 3.23-32.35 9.87-8.26 5.06-14.35 11.55-18.1 19.29-3.82 7.87-5.22 17.05-4.16 27.29.89 8.88 5.5 17.04 12.99 22.95a42.07 42.07 0 0 0 26.04 8.83c7.57 0 15.15-1.99 21.99-5.76l-.92 5.76h67.11l10.2-22.6h10.78l3.92 22.6h39.22l5.07-29.52h2.44l5.12 29.52h26.46l-6.36-37.96c.02 0 12.09-6.8 12.09-22.16zM78.06 46.23H43.97l-3.35 20.8s-5.65-4.84-5.65-12.18c0-14.26 16.34-23.75 32.23-23.75 7.5 0 12.84 2.78 12.84 2.78l-1.98 12.35zm44.2 21.83H100.5l.61-3.88h22.85l-1.7 3.88zm93.57-28.8h-5.04l.74-4.4h6.02c2.43 0 2.43.9 2.43 1.24.01 1.04-1.01 3.16-4.15 3.16z" style="fill:#d8d8d8"/>
  <defs>
    <path id="a" d="M241.71 33.6c.23-11.57-11.41-19.33-18.68-19.5-8.36-.12-29.04 0-29.04 0h.16L182.7 85.61l-12.06-72.07h-19.12l-31.58 71.7 1.99-12.38H94.89l2.12-13.48h23.56l2.56-16.2H99.37l2.04-13.4h27.08l2.56-16.2H88.13L76.09 89.02h58.38l10.2-22.6h17.92l3.92 22.6h31.16l2.59-14.48 2.4-15.04h10.58l5.12 29.52h16.76l-5.92-35.39a30.17 30.17 0 0 0 4.11-3.05c6.8-6.08 8.3-11.94 8.4-16.98zM150.8 51.82l6.56-14.64 2.88 14.64h-9.44zm65.03-7.76h-10.72l2.36-14h10.08c10.96 0 8.72 14-1.72 14zM48.06 51.03l-2.28 14.16h12.08l-1.4 7.56c-6.88 2.84-18.56 1.76-23.56-7.2-3.16-5.68-6.12-18.32 7.2-29.96 10.88-9.48 29.68-11.2 40.52-6.24 0 0 1.36-7.96 2.4-15.32-20.84-7.2-37.04-1.2-47.88 5.52-14.84 9.08-21.96 23.04-20 42 2.2 21.96 30.64 35.84 54.76 21.84 1.7-1.01 2.6-4.88 2.6-4.88l4.32-27.48H48.06zm375.62-37.45-15.28 24.6-9.68-24.6h-17.76l18.32 39.8-5.68 35.64h15.56l4.72-31.52 27.96-43.92h-18.16zm-61.08-.79c-17.2-3.96-35.08 9.72-39.92 30.56-4.76 20.88 5.24 41 22.4 45 17.2 3.92 35.04-9.76 39.92-30.6 4.76-20.88-5.28-41-22.4-44.96zm6.04 44.36c-4.16 12.48-14.24 19.76-22.44 16.04-8.16-3.64-11.48-16.8-7.28-29.36 4.2-12.6 14.24-19.72 22.4-16.08 8.2 3.68 11.52 16.84 7.32 29.4zM299.4 14.1c-8.36-.12-29.04 0-29.04 0h.16l-12 74.92h34.92c14.4 0 35.4-21.16 16.24-38.44 19.6-20.36.16-36.24-10.28-36.48zm-9.08 60.44h-13.68l2.4-15.04H292c12.36 0 12 15.04-1.68 15.04zm1.88-30.48h-10.72l2.36-14h10.08c10.96 0 8.72 14-1.72 14z"/>
  </defs>
  <clipPath id="b">
    <use xlink:href="#a" style="overflow:visible"/>
  </clipPath>
  <g style="clip-path:url(#b)">
    <path d="M3.92 8.47h446.12v20.75H3.92z" style="fill:#9bbc0f"/>
    <path d="M3.92 29.23h446.12v20.75H3.92z" style="fill:#8bac0f"/>
    <path d="M3.92 49.98h446.12v20.75H3.92z" style="fill:#306230"/>
    <path d="M3.92 70.73h446.12v20.75H3.92z" style="fill:#0f380f"/>
  </g>
</svg>