<?xml version="1.0" encoding="utf-8"?>
<!-- Generator: Adobe Illustrator 25.2.3, SVG Export Plug-In . SVG Version: 6.00 Build 0)  -->
<svg version="1.1"
	 id="Layer_1" xmlns:cc="http://creativecommons.org/ns#" xmlns:dc="http://purl.org/dc/elements/1.1/" xmlns:inkscape="http://www.inkscape.org/namespaces/inkscape" xmlns:rdf="http://www.w3.org/1999/02/22-rdf-syntax-ns#" xmlns:sodipodi="http://sodipodi.sourceforge.net/DTD/sodipodi-0.dtd" xmlns:svg="http://www.w3.org/2000/svg"
	 xmlns="http://www.w3.org/2000/svg" xmlns:xlink="http://www.w3.org/1999/xlink" x="0px" y="0px" viewBox="0 0 280 70"
	 style="enable-background:new 0 0 280 70;" xml:space="preserve">
<style type="text/css">
	.st0{fill:#E6E6E6;}
	.st1{fill:#231F20;}
	.st2{fill:#7292CB;}
	.st3{fill:#020202;}
	.st4{fill:#C9C9C9;}
	.st5{fill:#747474;}
</style>
<sodipodi:namedview  bordercolor="#666666" borderopacity="1" gridtolerance="10" guidetolerance="10" id="namedview614" inkscape:current-layer="Layer_1" inkscape:cx="122.295" inkscape:cy="32.775002" inkscape:pageopacity="0" inkscape:pageshadow="2" inkscape:window-height="1017" inkscape:window-maximized="1" inkscape:window-width="1920" inkscape:window-x="-8" inkscape:window-y="-8" inkscape:zoom="5.9446421" objecttolerance="10" pagecolor="#ffffff" showgrid="false">
	</sodipodi:namedview>
<g>
	<g id="g508">
		<path id="path500" class="st0" d="M254.9,17h-2.1l4.2-2.7c1.5-0.9,2.2-2.8,1.7-4.5S256.6,7,254.9,7h-24.2c-0.8,0-1.5,0.2-2.1,0.6
			l-6.1,3.9V11c0-2.2-1.8-4-4-4h-9.9c-0.7,0-1.3,0.2-1.9,0.5C206,7.2,205.3,7,204.6,7h-24.2c-0.8,0-1.5,0.2-2.1,0.6l-3,1.9
			c-0.6-1.4-2-2.3-3.6-2.3h-23.4c-0.7,0-1.4,0.2-2.1,0.6l-6.8,4.1V11c0-2.2-1.8-4-4-4h-10.2c-2.2,0-4,1.8-4,4v0.9l-5.4-4.1
			c-0.7-0.5-1.6-0.8-2.4-0.8h-10.9c-0.7,0-1.3,0.2-1.9,0.5C99.9,7.2,99.3,7,98.6,7H74.5c-0.7,0-1.4,0.2-2,0.5l-7.3,4.3
			c0.1-0.6,0.1-1.2,0-1.9c-0.5-1.8-2.1-3-3.9-3H37.6c-0.8,0-1.5,0.2-2.2,0.6l-9.2,5.9c-1.2,0.7-1.9,2-1.9,3.4V36c0,2.2,1.8,4,4,4h25
			c0.8,0,1.6-0.3,2.3-0.7l5.8-4.1V36c0,2.2,1.8,4,4,4h25.1c0.8,0,1.6-0.3,2.3-0.7l5.6-4V36c0,2.2,1.8,4,4,4h10.9c2.2,0,4-1.8,4-4
			V24.8l3.8,2.9V36c0,2.2,1.8,4,4,4h10.2c0.7,0,1.3-0.2,1.8-0.5c0.6,0.4,1.4,0.6,2.2,0.6h24.1c0.8,0,1.5-0.2,2.1-0.6l2.8-1.8
			c0.7,1.3,2.1,2.2,3.6,2.2h24.3c0.8,0,1.5-0.2,2.1-0.6l6.1-3.9V36c0,2.2,1.8,4,4,4h9.9c0.7,0,1.4-0.2,1.9-0.5
			c0.6,0.3,1.2,0.5,1.9,0.5h24.3c0.7,0,1.4-0.2,2.1-0.6l8.4-5.1c1.2-0.7,1.9-2,1.9-3.4V21C258.9,18.8,257.1,17,254.9,17z
			 M224.1,30.2l-1.7,1.1v-1.1c0,0,0.1,0,0.1,0H224.1z M168.3,25.1v1c0,0.4,0.1,0.8,0.2,1.1H165L168.3,25.1z M204.5,17.1
			c-0.1,0-0.1,0-0.2,0h-1.4l1.6-1.1L204.5,17.1L204.5,17.1z M92,27.1l4.1-2.7c1.5-1,2.1-2.8,1.6-4.5c-0.3-0.9-0.9-1.7-1.6-2.2
			l2.3-1.7v11.2c-0.3-0.1-0.7-0.1-1-0.1L92,27.1L92,27.1z M61.4,16.3V17c-0.1,0-0.1,0-0.2,0h-2.5l2.8-1.6
			C61.4,15.7,61.4,16,61.4,16.3z M41.8,21.9v-1.7h2.8L41.8,21.9z"/>
	</g>
	<g id="polygon17_5_">
		<g id="g536">
			<path id="path534" class="st1" d="M218.4,9.5h-9.9c-0.8,0-1.5,0.7-1.5,1.5V36c0,0.8,0.7,1.5,1.5,1.5h9.9c0.8,0,1.5-0.7,1.5-1.5
				V11C219.9,10.1,219.2,9.5,218.4,9.5L218.4,9.5z"/>
		</g>
	</g>
	<g id="polygon19_9_">
		<g id="g541">
			<path id="path539" class="st1" d="M254.9,9.5h-24.2c-0.3,0-0.6,0.1-0.8,0.2l-8.1,5.1c-0.4,0.3-0.7,0.8-0.7,1.3v10.1
				c0,0.8,0.7,1.5,1.5,1.5h21.7v1.9h-13.9c-0.3,0-0.6,0.1-0.8,0.2l-8,5c-0.6,0.3-0.8,1-0.6,1.7c0.2,0.6,0.8,1.1,1.4,1.1h24.3
				c0.3,0,0.5-0.1,0.8-0.2l8.4-5.1c0.4-0.3,0.7-0.8,0.7-1.3V21c0-0.8-0.7-1.5-1.5-1.5h-21.6v-1.9h13.6c0.3,0,0.6-0.1,0.8-0.2l8-5.1
				c0.6-0.4,0.8-1.1,0.6-1.7C256.1,9.9,255.5,9.5,254.9,9.5L254.9,9.5z"/>
		</g>
	</g>
	<g id="polygon21_9_">
		<g id="g546">
			<path id="path544" class="st1" d="M171.3,31.3L171.3,31.3 M171.6,9.7h-23.4c-0.3,0-0.5,0.1-0.8,0.2l-8.9,5.3
				c-0.5,0.3-0.7,0.8-0.7,1.3v19.8c0,0.8,0.7,1.5,1.5,1.5h24.1c0.3,0,0.6-0.1,0.8-0.2l7.8-4.9c0.4-0.3,0.7-0.7,0.7-1.3
				c0-0.8-0.7-1.5-1.5-1.5h0h-21.5v-1.9h9.5c0.3,0,0.6-0.1,0.8-0.2l7.7-5.2c0.6-0.4,0.8-1,0.6-1.7c-0.2-0.6-0.8-1.1-1.4-1.1h-17.1
				v-1.9h14.7c0.3,0,0.6-0.1,0.9-0.3l7.2-5.2c0.5-0.4,0.8-1.1,0.6-1.7C172.8,10.1,172.3,9.7,171.6,9.7L171.6,9.7z"/>
		</g>
	</g>
	<g id="polygon25_5_">
		<g id="g551">
			<path id="path549" class="st1" d="M135.4,9.5h-10.2c-0.8,0-1.5,0.7-1.5,1.5v6l-9.4-7.2c-0.3-0.2-0.6-0.3-0.9-0.3h-10.9
				c-0.8,0-1.5,0.7-1.5,1.5V36c0,0.8,0.7,1.5,1.5,1.5h10.9c0.8,0,1.5-0.7,1.5-1.5V19.8l8.8,6.7V36c0,0.8,0.7,1.5,1.5,1.5h10.2
				c0.8,0,1.5-0.7,1.5-1.5V11C136.9,10.1,136.2,9.5,135.4,9.5L135.4,9.5z"/>
		</g>
	</g>
	<g id="polygon27_5_">
		<g id="g556">
			<path id="path554" class="st1" d="M61.2,9.5H37.6c-0.3,0-0.6,0.1-0.8,0.2l-9.2,5.9c-0.4,0.3-0.7,0.8-0.7,1.3V36
				c0,0.8,0.7,1.5,1.5,1.5h25c0.3,0,0.6-0.1,0.9-0.3l7.9-5.6c0.4-0.3,0.6-0.7,0.6-1.2V21c0-0.8-0.7-1.5-1.5-1.5H51.1
				c-0.3,0-0.5,0.1-0.8,0.2l-8.4,5.1c-0.6,0.4-0.8,1-0.7,1.7s0.8,1.1,1.4,1.1h7.9v1.9H39.3V17.8h12.7c0.3,0,0.5-0.1,0.8-0.2l9.2-5.3
				c0.6-0.3,0.9-1,0.7-1.7C62.5,9.9,61.9,9.5,61.2,9.5L61.2,9.5z"/>
		</g>
	</g>
	<g id="polygon19_8_">
		<g id="g561">
			<path id="path559" class="st1" d="M204.6,9.5h-24.2c-0.3,0-0.6,0.1-0.8,0.2l-8.1,5.1c-0.4,0.3-0.7,0.8-0.7,1.3v10.1
				c0,0.8,0.7,1.5,1.5,1.5h21.4v1.9H180c-0.3,0-0.6,0.1-0.8,0.2l-8,5c-0.6,0.3-0.8,1-0.6,1.7c0.2,0.6,0.8,1.1,1.4,1.1h24.3
				c0.3,0,0.6-0.1,0.8-0.2l8-5.1c0.4-0.3,0.7-0.8,0.7-1.3V21c0-0.8-0.7-1.5-1.5-1.5h-21.4v-1.9h14.3c0.3,0,0.6-0.1,0.9-0.3l7.4-5.1
				c0.5-0.4,0.8-1.1,0.6-1.7C205.8,9.9,205.3,9.5,204.6,9.5L204.6,9.5z"/>
		</g>
	</g>
	<g id="polygon21_8_">
		<g id="g566">
			<path id="path564" class="st1" d="M97.4,31.1L97.4,31.1 M98.6,9.5H74.5c-0.3,0-0.5,0.1-0.8,0.2L64.6,15c-0.5,0.3-0.7,0.8-0.7,1.3
				V36c0,0.8,0.7,1.5,1.5,1.5h25.1c0.3,0,0.6-0.1,0.9-0.3l6.9-4.9c0.4-0.3,0.7-0.7,0.7-1.2c0-0.8-0.7-1.5-1.5-1.5h0H76.7v-1.9h9.5
				c0.3,0,0.6-0.1,0.8-0.3l7.7-5.2c0.6-0.4,0.8-1,0.6-1.7c-0.2-0.6-0.8-1.1-1.4-1.1H76.7v-1.9h14.7c0.3,0,0.6-0.1,0.9-0.3l7.2-5.2
				c0.5-0.4,0.8-1.1,0.6-1.7C99.8,9.9,99.3,9.5,98.6,9.5L98.6,9.5z"/>
		</g>
	</g>
	<polyline id="polyline569" class="st2" points="61.2,11 52.1,16.3 37.8,16.3 37.8,31 52.1,31 52.1,26.1 42.7,26.1 51.1,21 61.2,21 
		61.2,30.4 53.3,36 28.3,36 28.3,16.9 37.6,11 61.2,11 	"/>
	<polyline id="polyline571" class="st2" points="98.6,11 91.4,16.1 75.2,16.1 75.2,21 93.9,21 86.2,26.2 75.2,26.2 75.2,31.1 
		97.4,31.1 90.5,36 65.4,36 65.4,16.9 65.4,16.3 74.5,11 98.6,11 	"/>
	<polyline id="polyline573" class="st2" points="135.4,11 135.4,36 125.2,36 125.2,25.7 113.4,16.8 113.4,36 102.4,36 102.4,11 
		113.4,11 125.2,20 125.2,11 135.4,11 	"/>
	<polyline id="polyline575" class="st2" points="171.6,11.2 164.4,16.3 148.2,16.3 148.2,21.2 166.9,21.2 159.2,26.4 148.2,26.4 
		148.2,31.3 171.3,31.3 163.5,36.2 139.4,36.2 139.4,16.4 148.2,11.2 171.6,11.2 	"/>
	<polyline id="polyline577" class="st2" points="204.6,11 197.2,16.1 181.4,16.1 181.4,21 204.3,21 204.3,30.9 196.3,36 172,36 
		180,31 195.2,31 195.2,26.2 172.3,26.2 172.3,16.1 180.4,11 204.6,11 	"/>
	<polyline id="polyline579" class="st2" points="218.4,11 218.4,36 208.5,36 208.5,11 218.4,11 	"/>
	<polyline id="polyline581" class="st2" points="254.9,11 246.9,16.1 231.8,16.1 231.8,21 254.9,21 254.9,31 246.5,36 222.3,36 
		230.3,31 245.8,31 245.8,26.2 222.5,26.2 222.5,16.1 230.6,11 254.9,11 	"/>
	<g>
		<path class="st0" d="M271.6,46.4c0-2.8-2.3-5.2-5-5.2h-19.4c-1.1,0-2.2,0.4-3,1c-1.1-0.7-2.4-1-3.8-1h-18.9
			c-0.8,0-1.6,0.2-2.3,0.6c-0.7-0.4-1.5-0.6-2.4-0.6h-3c-0.7,0-1.5,0.2-2.1,0.4c-0.7-0.4-1.5-0.5-2.3-0.5h-4h-0.1H205l-0.2,0l-0.1,0
			c-1.1,0.2-2.1,0.8-2.9,1.5l-0.1-0.1c-0.8-0.9-2-1.5-3.2-1.5h-3.5c-1.3,0-2.4,0.6-3.2,1.5l0,0c-0.9-1-2.2-1.6-3.6-1.6h-4
			c-1.6,0-3.1,0.8-4.1,2.1c-1,1.3-1.2,3.1-0.7,4.7l0,0.1l0,0.1l4.6,11.4c0.8,1.9,2.6,3.1,4.7,3.1h4.1c1.2,0,2.4-0.5,3.2-1.5l0.9-1
			l1.1,1.1c0.8,0.9,1.9,1.4,3.1,1.4h3.8c2,0,3.8-1.2,4.6-2.9c1,1.8,2.9,2.9,5.1,2.9c0.1,0,0.2,0,0.3,0h1.2c1.2,0,2.3-0.3,3.2-0.9
			c1,0.7,2.2,1,3.4,1h2.4c0.7,0,1.3-0.1,2-0.4c0.6,0.3,1.3,0.4,2,0.4h11.5c1.7,0,3.3-0.6,4.6-1.6c1.3,1,2.9,1.6,4.6,1.6h16.9
			c2.7,0,5-2.3,5-5v-1.4c0-1.3-0.5-2.4-1.3-3.3c0.1-0.4,0.2-0.8,0.2-1.3v-0.5c0-0.4,0-0.7-0.1-1.1c0.8-0.9,1.3-2.1,1.3-3.3V46.4z"/>
		<path class="st3" d="M269.4,46.9v-0.4c0-1.5-1.3-2.9-2.8-2.9h-19.4c-1.2,0-2.3,0.9-2.7,2c-1-1.2-2.5-2-4.1-2h-18.9
			c-0.9,0-1.8,0.5-2.3,1.2c-0.5-0.7-1.4-1.2-2.4-1.2h-3c-0.9,0-1.7,0.4-2.2,1c-0.5-0.7-1.3-1.1-2.2-1.1h-4h-0.1l-0.1,0
			c-1,0.2-1.9,0.8-2.2,1.6l-0.8,1.6l-2.1-2.5c-0.4-0.4-0.9-0.7-1.5-0.7h-3.5c-0.6,0-1.1,0.3-1.5,0.7l-2.1,2.5l-0.8-1.5
			c-0.4-1-1.5-1.7-2.6-1.7h-4c-0.9,0-1.7,0.4-2.2,1.1c-0.5,0.7-0.7,1.7-0.4,2.6l0,0l0,0l4.6,11.3c0.4,1,1.5,1.7,2.6,1.7h4.1
			c0.6,0,1.1-0.3,1.5-0.7l2.5-2.9l2.8,3c0.4,0.4,0.9,0.6,1.5,0.6h3.8c1.1,0,2.2-0.7,2.6-1.7l3.4-8.5c0,0.1,0,0.2,0,0.4v6.1
			c0,2.1,1.6,3.8,3.7,3.8c0.1,0,0.1,0,0.2,0h1.3c1.4,0,2.6-0.7,3.2-1.8c0.7,1.1,1.9,1.9,3.4,1.9h2.4c0.7,0,1.4-0.3,2-0.8
			c0.5,0.5,1.2,0.8,2,0.8h11.5c2,0,3.8-1.1,4.7-2.7c0.9,1.6,2.6,2.7,4.5,2.7h16.9c1.5,0,2.8-1.3,2.8-2.8v-1.4c0-1.2-0.8-2.3-1.9-2.6
			c0.5-0.5,0.8-1.2,0.8-1.9v-0.5c0-0.7-0.3-1.4-0.7-1.8C268.5,49.1,269.4,48.1,269.4,46.9z M227.8,49.6h8.7v4h-7.6
			c-0.4,0-0.8,0.1-1.1,0.2V49.6z"/>
		<path class="st2" d="M212.3,46.7c0-0.9,0.7-1.5,1.5-1.5h3c0.8,0,1.5,0.7,1.5,1.5v1c0,0.3-0.2,0.5-0.5,0.5h-5
			c-0.3,0-0.5-0.2-0.5-0.5V46.7z M212.3,56.7v-6c0-0.3,0.2-0.5,0.5-0.5h5c0.3,0,0.5,0.2,0.5,0.5v6c0,1.3-1.1,2.3-2.3,2.3h-1.3
			C213.3,59.1,212.3,58,212.3,56.7z"/>
		<path class="st2" d="M221.5,45.2c-0.7,0-1.3,0.6-1.3,1.3v10.2c0,1.3,1.1,2.3,2.4,2.3h2.4c0.7,0,1.3-0.6,1.3-1.3v-8.4
			c0-0.7,0.6-1.3,1.3-1.3h9.1c0.7,0,1.3,0.6,1.3,1.3v4.5c0,0.7-0.6,1.3-1.3,1.3h-7.8c-0.7,0-1.3,0.6-1.3,1.3v1.4
			c0,0.7,0.6,1.3,1.3,1.3h11.5c2.1,0,3.8-1.7,3.8-3.6v-6.5c0-2-1.7-3.6-3.8-3.6L221.5,45.2z"/>
		<path class="st2" d="M267.9,47v-0.4c0-0.7-0.6-1.4-1.3-1.4h-19.4c-0.7,0-1.3,0.6-1.3,1.3v8.9c0,2,1.7,3.6,3.7,3.6h16.9
			c0.7,0,1.3-0.6,1.3-1.3v-1.4c0-0.7-0.6-1.3-1.3-1.3H253c-0.8,0-1.1-0.4-1.1-1.2l0-0.8h13.5c0.7,0,1.3-0.6,1.3-1.3v-0.5
			c0-0.7-0.6-1.2-1.3-1.2h-12.3c-0.8,0-1.1-0.3-1.1-1.1l0-1c0,0,14,0,14.6,0S267.9,47.7,267.9,47z"/>
		<path class="st2" d="M204.2,46l-1.5,3.1c-0.2,0.3-0.6,0.4-0.8,0.1l-3.1-3.8c-0.1-0.1-0.2-0.2-0.4-0.2h-3.5c-0.1,0-0.3,0.1-0.4,0.2
			l-3.1,3.8c-0.2,0.3-0.7,0.2-0.8-0.1l-1.5-3.1c-0.2-0.5-0.7-0.8-1.2-0.8h-4c-0.9,0-1.5,0.9-1.2,1.8l4.6,11.2
			c0.2,0.5,0.7,0.8,1.2,0.8h4.1c0.1,0,0.3-0.1,0.4-0.2l3.2-3.5c0.2-0.2,0.5-0.2,0.7,0l3.5,3.6c0.1,0.1,0.2,0.2,0.4,0.2h3.8
			c0.5,0,1-0.3,1.2-0.8l4.6-11.2c0.3-0.9-0.3-1.8-1.2-1.8h-4C204.9,45.3,204.4,45.6,204.2,46z"/>
		<g id="g506">
			<path id="path502" class="st0" d="M174.6,55.4l-3-3.3l3-3.3c1.2-1.3,1.5-3.2,0.8-4.9c-0.7-1.7-2.4-2.7-4.2-2.7h-7.8
				c-1.3,0-2.5,0.5-3.4,1.5l-0.7,0.8l-0.7-0.8c-0.9-1-2.1-1.5-3.4-1.5h-7.8c-0.7,0-1.4,0.2-2,0.4c-0.7-0.4-1.6-0.6-2.4-0.6
				c0,0,0,0,0,0h0h-18.4c-3.7,0-6.8,3.2-6.8,7v7.3c0,4.3,3.5,7.7,7.7,7.7h16.5c1.1,0,2.1-0.2,3.1-0.7c0.7,0.4,1.5,0.6,2.3,0.6h7.8
				c1.3,0,2.5-0.5,3.4-1.5l0.7-0.8l0.7,0.8c0.9,1,2.1,1.5,3.4,1.5h7.8c1.8,0,3.5-1.1,4.2-2.7C176.1,58.6,175.8,56.7,174.6,55.4z"/>
			<path id="path504" class="st0" d="M111.1,48.1c0.5-1.7,0.2-3.4-0.8-4.8c-1-1.4-2.6-2.2-4.4-2.2H87.7c-1.2,0-2.4,0.3-3.4,0.9
				c-0.8-0.6-1.9-0.9-2.9-0.9h-3.4c-2.9,0-5.3,2.4-5.3,5.3V51h-3v-4.7c0-2.9-2.4-5.3-5.3-5.3h-3.4c-2.9,0-5.3,2.4-5.3,5.3V51h-7.8
				v-4.7c0-2.9-2.4-5.3-5.3-5.3h-3.4c-1,0-1.9,0.2-2.7,0.7c-0.9-0.5-2-0.7-3-0.7H15.3c-3.7,0-6.9,3.2-6.9,7v9.5c0,3,2.5,5.5,5.5,5.5
				h3c2.5,0,4.6-1.7,5.3-4h11.3c0.3,0,0.6,0,0.8,0c0.9,2.4,3.2,4,5.9,4h16.3c1.2,0,2.3-0.4,3.2-1c1.2,0.7,2.5,1,3.9,1h15.2
				c1.5,0,2.8-0.4,4.1-1.1c0.9,0.7,2,1.1,3.2,1.1h18.6c3.9,0,8.2-2.8,8.2-8.9c0-2-0.7-3.8-2-5.3C110.9,48.6,111,48.3,111.1,48.1z"/>
		</g>
		<g id="g512">
			<path id="path510" class="st3" d="M33.4,43.5H15.3c-2.4,0-4.4,2.1-4.4,4.5v9.5c0,1.7,1.3,3,3,3h3c1.7,0,3-1.3,3-3v-1.2
				c0.4,0.2,0.8,0.2,1.2,0.2h12.4c2.4,0,4.4-1.9,4.4-4.3V48C37.8,45.5,35.9,43.5,33.4,43.5L33.4,43.5z"/>
		</g>
		<g id="g516">
			<path id="path514" class="st3" d="M142.9,43.5L142.9,43.5h-18.4c-2.3,0-4.3,2.1-4.3,4.5v7.3c0,2.9,2.3,5.2,5.2,5.2h16.5
				c2.9,0,5.2-2.4,5.2-5.2v-1.5c0-2-1.2-3.8-2.9-4.7c0.9-0.6,1.4-1.6,1.4-2.6C145.7,44.9,144.4,43.6,142.9,43.5L142.9,43.5
				L142.9,43.5z M129.2,49.5h1.9c-0.5,0.5-0.7,1.2-0.7,2s0.3,1.5,0.7,2h-1.9V49.5L129.2,49.5z"/>
		</g>
		<g id="g520">
			<path id="path518" class="st3" d="M105.9,43.5H87.7c-1.2,0-2.3,0.5-3.1,1.3c-0.8,0.8-1.3,1.9-1.3,3.1v10c0,1.5,1.2,2.7,2.7,2.7
				h18.6c2.8,0,5.7-2,5.7-6.4c0-2.2-1.3-4-3.1-5c0.7-0.4,1.3-1,1.5-1.8c0.3-0.9,0.1-1.9-0.4-2.6C107.7,44,106.8,43.5,105.9,43.5
				L105.9,43.5z"/>
		</g>
		<g id="g524">
			<path id="path522" class="st3" d="M42.5,43.5h-3.4c-0.8,0-1.5,0.3-2,0.8c-0.5,0.5-0.8,1.2-0.8,2v10.4c0,2.1,1.7,3.8,3.8,3.8h16.3
				c1.6,0,2.9-1.3,2.9-2.9v-1.2c0-1.6-1.3-2.9-2.9-2.9H45.8c-0.2,0-0.5-0.3-0.5-0.5v-6.6C45.4,44.8,44.1,43.5,42.5,43.5L42.5,43.5z"
				/>
		</g>
		<g id="g528">
			<path id="path526" class="st3" d="M81.3,43.5h-3.4c-1.6,0-2.8,1.3-2.8,2.8v6.6c0,0.3-0.3,0.6-0.6,0.6h-6.8
				c-0.3,0-0.6-0.3-0.6-0.6v-6.6c0-1.6-1.3-2.8-2.8-2.8h-3.4c-1.6,0-2.8,1.3-2.8,2.8V55c0,3,2.4,5.5,5.4,5.5h15.2
				c3,0,5.4-2.5,5.4-5.5v-8.7C84.1,44.8,82.9,43.5,81.3,43.5L81.3,43.5z"/>
		</g>
		<g id="g532">
			<path id="path530" class="st3" d="M171.2,43.5h-7.8c-0.6,0-1.2,0.3-1.6,0.7l-2.5,2.9l-2.6-2.9c-0.4-0.4-1-0.7-1.5-0.7h-7.8
				c-0.8,0-1.6,0.5-1.9,1.2c-0.3,0.7-0.2,1.6,0.4,2.2l4.5,5l-4.5,5c-0.5,0.6-0.7,1.5-0.4,2.2c0.3,0.8,1.1,1.2,1.9,1.2h7.8
				c0.6,0,1.2-0.3,1.5-0.7l2.6-2.9l2.5,2.9c0.4,0.4,1,0.7,1.6,0.7h7.8c0.8,0,1.6-0.5,1.9-1.2c0.3-0.7,0.2-1.6-0.4-2.2l-4.5-5l4.5-5
				c0.5-0.6,0.7-1.5,0.4-2.2C172.8,44,172,43.5,171.2,43.5L171.2,43.5z"/>
		</g>
		<path id="path583" class="st4" d="M33.4,45c1.6,0,2.9,1.4,2.9,3v4.2c0,1.6-1.3,2.8-2.9,2.8H21c-0.8,0-1.4-0.6-1.4-1.4v-2.2
			c0-0.8,0.6-1.4,1.4-1.4h8.4c0.9,0,0.9-0.7,0.9-1s0-1,0-1H18.4v9.5c0,0.8-0.7,1.5-1.5,1.5h-3c-0.8,0-1.5-0.7-1.5-1.5V48
			c0-1.6,1.3-3,2.9-3H33.4"/>
		<path id="path585" class="st4" d="M42.5,45c0.7,0,1.3,0.6,1.3,1.3V53c0,1.1,0.9,2,2,2h10.6c0.8,0,1.4,0.6,1.4,1.4v1.2
			c0,0.8-0.6,1.4-1.4,1.4H40.2c-1.3,0-2.3-1-2.3-2.3V46.3c0-0.7,0.6-1.3,1.3-1.3H42.5"/>
		<path id="path587" class="st4" d="M81.3,45c0.7,0,1.3,0.6,1.3,1.3V55c0,2.2-1.8,4-3.9,4H63.5c-2.2,0-3.9-1.8-3.9-4v-8.7
			c0-0.7,0.6-1.3,1.3-1.3h3.4c0.7,0,1.3,0.6,1.3,1.3v6.6c0,1.2,0.9,2.1,2.1,2.1h6.8c1.2,0,2.1-0.9,2.1-2.1v-6.6
			c0-0.7,0.6-1.3,1.3-1.3H81.3"/>
		<path id="path589" class="st4" d="M105.9,45c0.9,0,1.7,0.9,1.4,1.9c-0.2,0.7-0.9,1.1-1.6,1.1H90.8v1c0,1,1,1,1,1h12.8
			c2.3,0,4.2,1.9,4.2,4.1c0,3.3-1.9,4.9-4.2,4.9H86c-0.7,0-1.2-0.5-1.2-1.2v-1.6c0-0.7,0.5-1.2,1.2-1.2h15.8c0.6,0,1-0.4,1-1
			c0-0.6-0.4-1-1-1H86.9c-1.2,0-2.1-0.9-2.1-2.1v-3c0-1.6,1.3-2.9,2.9-2.9H105.9"/>
		<path id="path591" class="st4" d="M142.9,45c0.7,0,1.3,0.7,1.3,1.4s-0.6,1.6-1.3,1.6l0,0h-15.2v5.7c0,0.7,0.6,1.3,1.3,1.3h9.7
			c0.5,0,1-0.4,1-1c0-0.6-0.5-1-1-1h-5.4c-0.9,0-1.5-0.7-1.5-1.5s0.6-1.5,1.5-1.5h8.6c2.1,0,3.7,1.7,3.7,3.8v1.5
			c0,2.1-1.7,3.8-3.7,3.8h-16.5c-2.1,0-3.7-1.7-3.7-3.7V48c0-1.6,1.3-3,2.8-3L142.9,45"/>
		<path id="path593" class="st4" d="M171.2,45.2c0.5,0,0.8,0.6,0.4,0.9l-5.1,5.6c-0.2,0.2-0.2,0.5,0,0.7l5.1,5.6
			c0.3,0.4,0.1,0.9-0.4,0.9h-7.8c-0.2,0-0.3-0.1-0.4-0.2l-3.2-3.6c-0.1-0.1-0.3-0.2-0.4-0.2c-0.2,0-0.3,0.1-0.4,0.2l-3.2,3.6
			c-0.1,0.1-0.3,0.2-0.4,0.2h-7.8c-0.5,0-0.8-0.6-0.4-0.9l5.1-5.6c0.2-0.2,0.2-0.5,0-0.7l-5.1-5.6c-0.3-0.4-0.1-0.9,0.4-0.9h7.8
			c0.2,0,0.3,0.1,0.4,0.2l3.2,3.6c0.1,0.1,0.3,0.2,0.4,0.2c0.2,0,0.3-0.1,0.4-0.2l3.2-3.6c0.1-0.1,0.3-0.2,0.4-0.2H171.2"/>
		<rect id="rect595" x="12.4" y="48" class="st5" width="6" height="1"/>
		<rect id="rect597" x="30.3" y="48" class="st5" width="6" height="1"/>
		<rect id="rect599" x="37.9" y="48" class="st5" width="6" height="1"/>
		<rect id="rect601" x="59.6" y="48" class="st5" width="6" height="1"/>
		<rect id="rect603" x="121.7" y="48" class="st5" width="6" height="1"/>
		<polygon id="polygon605" class="st5" points="158.9,49.1 149.5,49.1 148.6,48 157.9,48 		"/>
		<rect id="rect607" x="76.6" y="48" class="st5" width="6" height="1"/>
		<polygon id="polygon609" class="st5" points="169,49.1 159.7,49.1 160.6,48 169.9,48 		"/>
		<rect id="rect611" x="84.8" y="48" class="st5" width="6" height="1"/>
		<polygon class="st5" points="245.9,49.1 252,49.1 252,48 245.9,48 		"/>
		<g>
			<polygon class="st5" points="210.1,48 203.2,48 202.7,49.1 209.7,49.1 			"/>
			<polygon class="st5" points="200.9,48 192.4,48 191.6,49.1 201.7,49.1 			"/>
			<polygon class="st5" points="183.6,49.1 190.6,49.1 190.1,48 183.2,48 			"/>
		</g>
		<g>
			<path class="st5" d="M237.9,49.1h6.3v-0.2c0-0.3,0-0.6-0.1-0.8h-7.4C237.3,48,237.8,48.5,237.9,49.1z"/>
			<path class="st5" d="M220.2,48v1h6.2c0.1-0.6,0.6-1,1.2-1H220.2z"/>
		</g>
	</g>
</g>
</svg>
