<svg xmlns="http://www.w3.org/2000/svg" viewBox="0 0 530 290">
  <defs>
    <style>
      .cls-2{fill:#d45500}
    </style>
  </defs>
  <path d="M0 0h530v290H0z" style="fill:#191919"/>
  <path d="M293.2 55.9c-1.4.5-5.3 1.2-8.9 1.6-3.4.4-9.1 1.5-12.6 2.7-6.3 2.1-8.4 2.5-29.9 5.8-16.4 2.6-20.3 5.8-20.3 16.7 0 5.1 1.4 6.1 7.7 5.6l3.6-.2-4.5 1.3c-7.5 2.3-8.6 3-10 6.3-1.4 3.4-1.3 6 .6 18.6a69.5 69.5 0 0 1-1 28.6c-1.8 6.3-2 10.2-2.5 31.3-.4 22.1-.6 24.5-2.5 29.5-6 16.3-2.7 21.6 13.8 22 4.6.2 12.4-.2 17.5-.7 7.4-.8 10.1-1.5 14.5-3.8 5.6-3 7.1-5 7.1-10 0-1.5.6-4.7 1.5-7.3 1.3-3.9 1.4-7.2 1-21.7a101 101 0 0 0-1.7-19.1 22 22 0 0 1-1.4-7c-.1-5.8-1-12.5-2.1-17.7-.5-1.9-.6-4.8-.3-6.3s-.2-7.3-1-12.7a59.7 59.7 0 0 1-1-11.7c.6-2-3-13-5.4-16.7-1.5-2.4-.4-3 5.2-3 4.4 0 19.1-2.3 20.6-3.2.9-.5.5.6-2.5 7.4-.7 1.7-1.4 4.3-1.6 6l-1.3 9.7c-.6 4.3-.8 16.8-.5 33.2.3 22.4.2 27.2-1 31.3-1.9 6.2-2 46.6-.4 50 1.1 1.8 1.3 2 14.9 1.3 7.5-.4 20.8-.7 29.4-.8 27-.5 28.9-2 25.8-21.8-.8-5-2-15-2.8-22-.7-7-1.7-14-2.2-15.5-.5-1.5-1.2-7-1.3-12.2-.5-11.5-.6-12-3.7-28.5-.7-4-1.3-9-1.3-11.3a68.4 68.4 0 0 0-3.6-24.3c-1-4.5-1.6-5.2-6-8.1q-4.9-3.3-4.9-8c0-2.5-.4-5-1-5.6-.4-.5-1.6-2.3-2.4-4a10 10 0 0 0-3.8-4.2 28 28 0 0 0-17.8-1.5Zm-149.5-4.3c-.5.6-3.7 1.4-7 1.8-9.5 1-9.7 1.5-9.4 41.3.1 23.6-.4 36.1-1.4 40.6a37.2 37.2 0 0 0 0 17.2c1.7 10.7 1.4 17.4-1.3 41.3-2.1 17.9-2.1 20.9 0 28l1.7 6.4 21.8-.9c22.7-1 27-2.1 31.9-7.8 2-2.4 2.3-4.4 1.7-17.8a878.6 878.6 0 0 0-6.6-73.5c-1-5.8-2.2-22.3-2.6-40-.8-36.7-.3-35.6-17.2-36.8-5.8-.4-11-.3-11.6.2Zm230.7 91.7v-4.5h-6v-4.5h-6v4.5h-6v4.5h-6v27h6v4.5h6v-4.5h6v4.5h6v-4.5h6v-27h-6Zm0 18h-18v-13.5h18v13.5Z" class="cls-2"/>
  <path d="M368.4 152.3h-6v4.5h6v-4.5zM183.9 268.9h4.5v-9h-4.5v9z" class="cls-2"/>
  <path d="M215.4 246.4V242H211v-4.5h-18v4.5h-4.5v4.5H184v9h4.5v4.5h4.5v4.5h4.5v-9h9v9h4.5V260h4.5v-4.5h4.5v-9h-4.5ZM193 251v-4.5h4.5v4.5H193Zm13.5 0v-4.5h4.5v4.5h-4.5Zm-18.1-18.1v4.5h4.5v-4.5h-4.5zm27 0h-4.5v4.5h4.5v-4.5z" class="cls-2"/>
  <path d="M219.9 268.9v-9h-4.5v9h4.5zM517.6 210v-4.5h-4.5v4.5h4.5zm-36 0h4.5v-4.5h-4.5v4.5zm31.5-22.5V183h-4.5v-4.5h-4.5V174h-9v4.5h-4.5v4.5h-4.5v4.5h-4.5v9h9v4.5h-4.5v4.5h4.5v4.5h4.5v-4.5h9v4.5h4.5v-4.5h4.5V201h-4.5v-4.5h9v-9h-4.5Zm-22.5 0h4.5v4.5h-4.5v-4.5Zm13.5 4.5v-4.5h4.5v4.5h-4.5Zm-113.9 41.4v-4.5h-4.5v4.5h4.5zm-36 0h4.5v-4.5h-4.5v4.5zm31.5-22.5v-4.5h-4.5v-4.5h-4.5v-4.5h-9v4.5h-4.5v4.5h-4.5v4.5h-4.5v9h9v4.5h-4.5v4.5h4.5v4.5h4.5v-4.5h9v4.5h4.5v-4.5h4.5v-4.5h-4.5v-4.5h9v-9h-4.5Zm-22.5 0h4.5v4.5h-4.5v-4.5Zm13.5 4.5v-4.5h4.5v4.5h-4.5ZM202.2 69.3v-4.5h-6v-4.5h-6v4.5h-6v4.5h-6v27h6v4.5h6v-4.5h6v4.5h6v-4.5h6v-27h-6Zm0 18h-18V73.8h18v13.5Z" class="cls-2"/>
  <path d="M196.2 78.3h-6v4.5h6v-4.5zM76.5 113.7H81v-9h-4.5v9z" class="cls-2"/>
  <path d="M108 91.2v-4.5h-4.5v-4.5h-18v4.5H81v4.5h-4.5v9H81v4.5h4.5v4.5H90v-9h9v9h4.5v-4.5h4.5v-4.5h4.5v-9H108Zm-22.5 4.5v-4.5H90v4.5h-4.5Zm13.5 0v-4.5h4.5v4.5H99Zm-18-18v4.5h4.5v-4.5H81zm27 0h-4.5v4.5h4.5v-4.5z" class="cls-2"/>
  <path d="M112.5 113.7v-9H108v9h4.5zm289.3-27.5v-4.5h-4.5v4.5h4.5zm-36 0h4.5v-4.5h-4.5v4.5zm31.5-22.5v-4.5h-4.6v-4.5h-4.4v-4.5h-9v4.5h-4.6v4.5h-4.4v4.5h-4.6v9h9v4.5h-4.4v4.5h4.4v4.5h4.6v-4.5h9v4.5h4.4v-4.5h4.6v-4.5h-4.6v-4.5h9v-9h-4.4Zm-22.6 0h4.6v4.5h-4.6v-4.5Zm13.6 4.5v-4.5h4.4v4.5h-4.4Zm42.1 82.7h4.5v-9h-4.5v9zm31.6-22.5V124h-4.6v-4.5h-18v4.5H435v4.5h-4.5v9h4.5v4.5h4.5v4.5h4.5v-9h9v9h4.5V142h4.5v-4.5h4.5v-9H462Zm-22.6 4.5v-4.5h4.5v4.5h-4.5Zm13.5 0v-4.5h4.5v4.5H453Zm-18-18v4.5h4.5v-4.5h-4.5zm27 0h-4.5v4.5h4.5v-4.5z" class="cls-2"/>
  <path d="M466.4 150.9v-9h-4.5v9h4.5zM249.1 57.2h4.5v-9h-4.5v9z" class="cls-2"/>
  <path d="M280.6 34.7v-4.5H276v-4.5h-18v4.5h-4.5v4.5H249v9h4.5v4.5h4.5v4.5h4.5v-9h9v9h4.5v-4.5h4.5v-4.5h4.5v-9h-4.5ZM258 39.2v-4.5h4.5v4.5H258Zm13.5 0v-4.5h4.5v4.5h-4.5Zm-17.9-18v4.5h4.5v-4.5h-4.5zm27 0h-4.5v4.5h4.5v-4.5zm4.5 36v-9h-4.5v9h4.5z" class="cls-2"/>
  <path d="M218.8 148.7v-8.2c0-.9-.7-1.5-1.6-1.5h-3.7c.6-.2 1-.8 1-1.4v-8.2c0-.9-.7-1.6-1.6-1.6h-7a2 2 0 0 0 1.3-1.8v-7.4c0-1-.8-1.9-1.9-1.9h-20.1c-1 0-2 .9-2 2v7.3a2 2 0 0 0 1.4 1.8h-6.8c-.8 0-1.5.7-1.5 1.5v8.3c0 .6.4 1.2 1 1.4h-4c-.9 0-1.6.6-1.6 1.5v8.2c0 .7.5 1.3 1.2 1.5-.7.1-1.2.7-1.2 1.4v8.2c0 .7.5 1.3 1.2 1.5-.7.1-1.2.7-1.2 1.4v8.3c0 .8.7 1.5 1.6 1.5h4c-.6.2-1 .7-1 1.4v8.2c0 .8.7 1.5 1.5 1.5h6.8a2 2 0 0 0-1.3 1.8v7.4c0 1 .8 2 1.9 2h20.1c1 0 2-1 2-2v-7.4a2 2 0 0 0-1.4-1.8h7c.9 0 1.6-.7 1.6-1.5v-8.2c0-.7-.4-1.2-1-1.4h3.8c.8 0 1.5-.7 1.5-1.5v-8.3c0-.7-.5-1.3-1.2-1.4.7-.2 1.2-.8 1.2-1.5v-8.2c0-.7-.5-1.3-1.2-1.4.7-.2 1.2-.8 1.2-1.5Zm-16.4 34.8h-14c.5-.2.9-.8.9-1.4V174c0-.9-.7-1.5-1.5-1.5h-4c.6-.3 1-.8 1-1.4v-8.3c0-.7-.5-1.2-1.2-1.4.7-.2 1.2-.8 1.2-1.4v-8.3c0-.7-.5-1.3-1.2-1.4.7-.2 1.2-.8 1.2-1.5v-8.2c0-.6-.4-1.2-1-1.4h4c.8 0 1.5-.7 1.5-1.5v-8.2c0-.7-.4-1.2-1-1.4h14.1c-.6.2-1 .7-1 1.4v8.2c0 .8.7 1.5 1.6 1.5h3.7c-.5.2-1 .8-1 1.4v8.2c0 .7.5 1.3 1.2 1.5-.7.2-1.1.7-1.1 1.4v8.3c0 .7.4 1.2 1 1.4-.6.2-1 .8-1 1.4v8.3c0 .6.4 1.2 1 1.4H203c-.9 0-1.5.6-1.5 1.5v8.2c0 .6.4 1.2 1 1.4Zm-46.2-27.8c0-5.6-1.4-5.6-1.4-5.6h-21.7c.4-.3 1.1-1.4 1.1-5.5s-.7-5.2-1.1-5.5c.4-.3 1.1-1.4 1.1-5.5 0-5.6-1.4-5.6-1.4-5.6h22s1.4 0 1.4-5.7-1.4-5.6-1.4-5.6h-32.2s-1.4.1-1.4 5.6 1.4 5.7 1.4 5.7-1.4 0-1.4 5.6c0 4.1.8 5.2 1.2 5.5-.4.3-1.2 1.4-1.2 5.5 0 4.4 1 5.4 1.3 5.6-.4.2-1.3 1.1-1.3 5.5 0 5.5 1.4 5.6 1.4 5.6s-1.4.1-1.4 5.7c0 4 .8 5.2 1.2 5.5-.4.3-1.2 1.4-1.2 5.5 0 4.4 1 5.4 1.3 5.5-.4.2-1.3 1.2-1.3 5.6 0 5.5 1.4 5.6 1.4 5.6h32.2s1.4 0 1.4-5.6-1.4-5.6-1.4-5.6h-21.7c.3-.3 1.1-1.4 1.1-5.5s-.8-5.2-1.1-5.5c.3-.3 1.1-1.4 1.1-5.5 0-5.7-1.4-5.7-1.4-5.7h22s1.4 0 1.4-5.6Zm-50.4 11.1c0-5.7-1.4-5.7-1.4-5.7h.1s1.4 0 1.4-5.6-1.4-5.6-1.4-5.6H86.1s-1.3.1-1.3 5.6 1.3 5.6 1.3 5.6h8s-1.4.1-1.4 5.7 1.4 5.6 1.4 5.6-1.4 0-1.4 5.6c0 4.1.8 5.2 1.2 5.5h-18c.5-.3 1.2-1.4 1.2-5.5 0-5.6-1.4-5.6-1.4-5.6H71c.4-.5 1-1.7 1-5.4 0-5.7-1.4-5.7-1.4-5.7s1.4 0 1.4-5.6c0-4.4-.9-5.3-1.2-5.5.3-.2 1.2-1.1 1.2-5.6 0-3.7-.6-5-1-5.4h5.4s1.4 0 1.4-5.6-1.4-5.6-1.4-5.6h17.1c-.4.6-.8 2-.8 5 0 5.6 1.4 5.7 1.4 5.7h10.3s1.4 0 1.4-5.7-1.4-5.6-1.4-5.6h-4.6c.4-.6.8-2 .8-5 0-5.7-1.4-5.7-1.4-5.7H71.8s-1.4.1-1.4 5.6 1.4 5.7 1.4 5.7h-5.7s-1.4 0-1.4 5.6c0 3.7.7 5 1 5.4h-5.4s-1.4.1-1.4 5.6c0 4.4.9 5.4 1.2 5.6-.3.2-1.2 1.1-1.2 5.5 0 5.5 1.4 5.7 1.4 5.7s-1.4 0-1.4 5.6c0 4.3.8 5.3 1.2 5.5-.4.4-1.1 1.5-1.1 5.5 0 5.5 1.4 5.6 1.4 5.6h11.2c-.4.3-1.2 1.4-1.2 5.5 0 5.5 1.4 5.7 1.4 5.7h27.4s1.4 0 1.4-5.7c0-4.1-.7-5.2-1.1-5.5h5s1.3 0 1.3-5.6-1.4-5.6-1.4-5.6 1.4 0 1.4-5.6Zm194.3 13h-28.7c.4-.3 1.1-1.4 1.1-5.5s-.7-5.3-1.1-5.5c.4-.3 1.1-1.4 1.1-5.6 0-5.6-1.4-5.6-1.4-5.6s1.4 0 1.4-5.6c0-4.1-.7-5.2-1.1-5.5.4-.3 1.1-1.4 1.1-5.5 0-5.7-1.4-5.7-1.4-5.7s1.4 0 1.4-5.6c0-4.1-.7-5.2-1.1-5.5.4-.3 1.1-1.4 1.1-5.5 0-5.6-1.4-5.6-1.4-5.6H261s-1.4 0-1.4 5.6c0 4.1.8 5.2 1.2 5.5-.4.3-1.2 1.4-1.2 5.5 0 5.5 1.4 5.6 1.4 5.6s-1.4.1-1.4 5.7c0 4 .8 5.2 1.2 5.5-.4.3-1.2 1.4-1.2 5.5 0 5.5 1.4 5.6 1.4 5.6s-1.4.1-1.4 5.6c0 4.2.8 5.3 1.2 5.6-.4.2-1.2 1.4-1.2 5.5 0 4.4 1 5.4 1.3 5.6-.4.2-1.3 1.1-1.3 5.5 0 5.6 1.4 5.7 1.4 5.7h39.2s1.4 0 1.4-5.7-1.4-5.6-1.4-5.6Zm170.3-49.9c0-5.6-1.4-5.6-1.4-5.6s1.4 0 1.4-5.6-1.4-5.7-1.4-5.7h-10.2s-1.4.2-1.4 5.7 1.4 5.6 1.4 5.6-1.4 0-1.4 5.6c0 4 .8 5.2 1.2 5.5-.4.3-1.2 1.4-1.2 5.5 0 4.4.9 5.3 1.3 5.5h-23.3c.3-.2 1.2-1 1.2-5.5 0-4.2-.7-5.2-1.1-5.5.4-.3 1.1-1.4 1.1-5.5 0-5.6-1.4-5.6-1.4-5.6s1.4 0 1.4-5.6-1.4-5.7-1.4-5.7H425s-1.4.2-1.4 5.7 1.4 5.6 1.4 5.6-1.4 0-1.4 5.6c0 4 .8 5.2 1.2 5.5-.4.3-1.2 1.4-1.2 5.5 0 4.4.9 5.3 1.2 5.5s-1.4.1-1.4 5.6 1.4 5.7 1.4 5.7c-.3.2-1.2 1-1.2 5.5 0 4.1.8 5.2 1.2 5.5-.4.3-1.2 1.4-1.2 5.5 0 5.5 1.4 5.6 1.4 5.6s-1.4.1-1.4 5.6 1.4 5.7 1.4 5.7h10.2s1.4 0 1.4-5.7-1.4-5.6-1.4-5.6 1.4 0 1.4-5.6c0-4.1-.8-5.2-1.1-5.5.4-.3 1-1.4 1-5.5 0-4.4-.8-5.3-1.1-5.5h23.2c-.3.2-1.2 1-1.2 5.5 0 4.1.8 5.2 1.2 5.5-.4.3-1.2 1.4-1.2 5.5 0 5.5 1.4 5.6 1.4 5.6s-1.4.1-1.4 5.6 1.4 5.7 1.4 5.7H469s1.4 0 1.4-5.7-1.4-5.6-1.4-5.6 1.4 0 1.4-5.6c0-4.1-.7-5.2-1.1-5.5.4-.3 1.1-1.4 1.1-5.5 0-4.7-1-5.4-1.3-5.6.3 0 1.3-.8 1.3-5.5s-1-5.5-1.3-5.6c.3-.1 1.3-.9 1.3-5.6 0-4.1-.7-5.2-1.1-5.5.4-.3 1.1-1.4 1.1-5.5ZM411.9 113h-43.3s-1.3.2-1.3 5.7 1.3 5.6 1.3 5.6h16.6s-1.3 0-1.3 5.6c0 4 .8 5.2 1.1 5.5-.3.3-1.1 1.4-1.1 5.5 0 4.7 1 5.4 1.3 5.6-.3 0-1.3.9-1.3 5.5s1 5.5 1.3 5.6c-.3.1-1.3.9-1.3 5.6 0 4.1.7 5.2 1.1 5.5-.4.3-1.1 1.4-1.1 5.5 0 5.5 1.3 5.6 1.3 5.6s-1.3.1-1.3 5.6 1.3 5.6 1.3 5.6h10s1.4 0 1.4-5.6-1.3-5.6-1.3-5.6 1.3 0 1.3-5.6c0-4.1-.7-5.2-1.1-5.5.4-.3 1.1-1.4 1.1-5.5 0-4.7-1-5.4-1.2-5.6.3-.1 1.2-.8 1.2-5.6s-1-5.4-1.2-5.5c.3-.2 1.2-1 1.2-5.6 0-4.2-.7-5.2-1.1-5.5.4-.3 1.1-1.4 1.1-5.5 0-5.6-1.3-5.6-1.3-5.6h16.6s1.4 0 1.4-5.6-1.4-5.7-1.4-5.7Zm-64 66.8h-8.3c.4-.3 1.2-1.3 1.2-5.5s-.8-5.2-1.2-5.5c.4-.3 1.2-1.3 1.2-5.5 0-5.6-1.4-5.6-1.4-5.6s1.4 0 1.4-5.6c0-4.1-.8-5.2-1.2-5.5.4-.3 1.2-1.4 1.2-5.5 0-5.6-1.4-5.6-1.4-5.6s1.4 0 1.4-5.6-1.4-5.6-1.4-5.6h8.5s1.4 0 1.4-5.6-1.4-5.6-1.4-5.6h-27.3s-1.3 0-1.3 5.6 1.3 5.6 1.3 5.6h8.5s-1.3 0-1.3 5.6 1.3 5.6 1.3 5.6-1.3.1-1.3 5.6c0 4.1.7 5.2 1.1 5.5-.4.3-1.1 1.4-1.1 5.5 0 5.5 1.3 5.6 1.3 5.6s-1.3.1-1.3 5.6c0 4.1.7 5.2 1.1 5.5-.4.3-1.1 1.4-1.1 5.5s.7 5.2 1.1 5.5h-8.3s-1.3.1-1.3 5.6 1.3 5.7 1.3 5.7H348s1.4 0 1.4-5.7-1.4-5.6-1.4-5.6Z" style="fill:#fffb28"/>
</svg>