<svg xmlns="http://www.w3.org/2000/svg" viewBox="0 0 500 170" style="enable-background:new 0 0 500 170" xml:space="preserve">
  <style>
    .st3{fill:#00feff}
  </style>
  <g id="Layer_1">
    <path style="fill:#ff0" d="M195.64 75h20v20h-20z"/>
    <path d="M414.36 9c-17.16 0-32.63 5.19-45.96 15.42a78.3 78.3 0 0 0-9.9 9.06A60.59 60.59 0 0 0 310 9a60.56 60.56 0 0 0-48.51 24.5A75.79 75.79 0 0 0 205.64 9a75.7 75.7 0 0 0-44 14.07V9h-44.27a75.45 75.45 0 0 0-54.09 22.61A75.5 75.5 0 0 0 41.38 86a74.95 74.95 0 0 0 23.12 53.26A76.96 76.96 0 0 0 118.27 161h19.4a24.01 24.01 0 0 0 22.34-15.27A75.76 75.76 0 0 0 205.65 161a75.7 75.7 0 0 0 44-14.07V161h55.02V70.39a5.35 5.35 0 0 1 10.68 0V161h55.02v-14.28A76 76 0 0 0 415.25 161h19.4a24 24 0 0 0 23.97-23.97V9h-44.26zM205.64 64.5c11.3 0 20.5 9.2 20.5 20.5s-9.2 20.5-20.5 20.5-20.5-9.2-20.5-20.5 9.2-20.5 20.5-20.5z" style="fill:#00052f"/>
  </g>
  <path d="M414.08 56.62h36.55V17h-36.27c-36.77 0-54.35 26.89-56.78 30.55A52.42 52.42 0 0 0 310 17a52.4 52.4 0 0 0-47.6 30.6A68 68 0 0 0 205.64 17a67.85 67.85 0 0 0-52 24.25V17h-36.27a67.55 67.55 0 0 0-48.4 20.23A67.55 67.55 0 0 0 49.38 85.9a67 67 0 0 0 20.68 47.61A69 69 0 0 0 118.27 153h19.4c8.81 0 15.97-7.17 15.97-15.97v-8.27a67.88 67.88 0 0 0 104 0V153h39.02V70.39a13.35 13.35 0 0 1 26.68 0V153h39.02v-24.48c1.47 1.73 19.27 24.48 52.89 24.48h19.4c8.81 0 15.97-7.17 15.97-15.97V80.75c0-8.81-7.17-15.97-15.97-15.97h-38.83v38.28h16.53v10.31a28.51 28.51 0 0 1-27.36-27.81c-.01-16.35 13.19-28.94 29.09-28.94zm-298.72 56.75A28.51 28.51 0 0 1 88 85.56a29.12 29.12 0 0 1 29.1-28.94h26.78a68.11 68.11 0 0 0-3.15 8.16H98.84v38.28h16.53v10.31zm90.28.13a28.53 28.53 0 0 1-28.5-28.5c0-15.71 12.78-28.5 28.5-28.5s28.5 12.78 28.5 28.5a28.53 28.53 0 0 1-28.5 28.5z" style="fill:#00f" id="Layer_2_00000128453832656344286360000004192432677525756801_"/>
  <g id="Layer_3">
    <path class="st3" d="M265.64 69.36V145h23.02V70.38a21.34 21.34 0 0 1 42.68 0V145h23.02V69.36a44.36 44.36 0 1 0-88.72 0z"/>
    <path class="st3" d="M414.08 48.62h28.55V25h-28.27a60 60 0 0 0-59.99 60.8c.43 32.97 27.91 59.2 60.89 59.2h19.4c4.4 0 7.97-3.57 7.97-7.97V80.75c0-4.4-3.57-7.97-7.97-7.97h-30.83v22.28h16.53v26.33h-6.99c-19.86 0-36-15.91-36.38-35.67-.4-20.41 16.69-37.1 37.09-37.1zM205.64 25a60 60 0 1 0 0 120 60 60 0 0 0 0-120zm0 96.5a36.5 36.5 0 1 1 0-73 36.5 36.5 0 0 1 0 73z"/>
    <path class="st3" d="M117.1 48.62h28.55V25h-28.27a60 60 0 0 0-59.99 60.8c.43 32.97 27.91 59.2 60.89 59.2h19.4c4.4 0 7.97-3.57 7.97-7.97V80.75c0-4.4-3.57-7.97-7.97-7.97h-30.83v22.28h16.53v26.33h-6.99c-19.86 0-36-15.91-36.38-35.67-.4-20.41 16.69-37.1 37.09-37.1z"/>
    <g>
      <path class="st3" d="M8.69 9h22.63v100H8.69z"/>
    </g>
    <g>
      <path class="st3" d="M468.69 61h22.63v100h-22.63z"/>
    </g>
  </g>
</svg>
