<svg xmlns="http://www.w3.org/2000/svg" viewBox="0 0 140 24" style="enable-background:new 0 0 140 24" xml:space="preserve">
  <style>
    .st0{fill:#b7b7b7}.st1{fill:#fff}
  </style>
  <g id="svg1">
    <path d="M4 20v4h28V4H20zM36 18v6h12v-4h-4zM80 8v8h8l-4-4zM116 4v20h8v-4h4v-4h4v-4h4V8h4V4z"/>
    <path d="M72 12V6l4 2h4V4H36v4h12v12h4l4-4v8h4v-8h8v8h4v-8l4 4v4h4v-8h-4zM88 4v8h4l4 4h-8v8h4v-6l4 2v4h16v-4h-7v-4h3v-4h-8V8h12V4z"/>
  </g>
  <g id="svg2">
    <path class="st0" d="M16 0v4h-4v4H8v4H4v4H0v4h28V0z"/>
    <path class="st1" d="M36 12h-4v8h12v-4h-8zM32 0v4h12v12h4V0zM52 0v20h4v-8h8v8h4V0H52zm12 8h-8V4h8v4zM76 0h-4v8h4V4zM84 0v8h4V0zM76 10v2h8V8h-8zM72 16v4h4v-8h-4zM84 20h4v-8h-4v4zM108 4V0H92v20h16v-4H96v-4h8V8h-8V4z"/>
    <path class="st0" d="M124 20v-4h4v-4h4V8h4V4h4V0h-28v20z"/>
  </g>
</svg>
