<svg version="1.1" id="Ebene_1" xmlns="http://www.w3.org/2000/svg" x="0" y="0" viewBox="0 0 947 947" style="enable-background:new 0 0 947 947" xml:space="preserve">
  <style>
    .st0{fill:navy}.st2{fill:#fff}
  </style>
  <path class="st0" d="M835.5 473.6c0-199.8-162.2-362-362-362s-362 162.2-362 362 162.2 362 362 362 362-162.2 362-362"/>
  <path d="M890.6 261c33.5 65.8 51 138.6 51 212.5 0 258.4-209.7 468.1-468.1 468.1S5.4 731.9 5.4 473.5 215.1 5.4 473.5 5.4c83.1 0 164.6 22.1 236.2 63.9" style="fill:none;stroke:gray;stroke-width:10.8612;stroke-miterlimit:10;stroke-dasharray:40.8475"/>
  <path class="st2" d="M227.8 477.21h22.94v149.15h85.75v20.17H227.8V477.21zM377.06 523.08v81.95c0 6.3 1 11.45 3 15.44 3.69 7.38 10.56 11.07 20.63 11.07 14.45 0 24.28-6.45 29.51-19.36 2.84-6.91 4.26-16.4 4.26-28.47v-60.63h20.75v123.44h-19.59l.23-18.21a41.79 41.79 0 0 1-10.03 11.87c-7.92 6.46-17.52 9.68-28.82 9.68-17.6 0-29.58-5.88-35.96-17.63-3.46-6.3-5.19-14.71-5.19-25.24v-83.91h21.21zM491.74 488.62h20.98v34.46h19.71v16.94h-19.71v80.57c0 4.3 1.46 7.19 4.38 8.64 1.61.85 4.3 1.27 8.07 1.27 1 0 2.07-.02 3.23-.06a58.6 58.6 0 0 0 4.03-.29v16.37a46.77 46.77 0 0 1-7.43 1.5c-2.58.31-5.36.46-8.36.46-9.68 0-16.25-2.48-19.71-7.43-3.46-4.96-5.19-11.39-5.19-19.31v-81.72h-16.71v-16.94h16.71v-34.46zM553.75 523.08h19.71v21.32c1.61-4.15 5.57-9.2 11.87-15.16 6.3-5.95 13.56-8.93 21.78-8.93.38 0 1.04.04 1.96.12.92.08 2.5.23 4.73.46v21.9a31.81 31.81 0 0 0-3.4-.46 44.47 44.47 0 0 0-3.4-.12c-10.45 0-18.48 3.36-24.09 10.09a35.21 35.21 0 0 0-8.41 23.22v71h-20.75V523.08zM721.92 535.41c10.99 10.6 16.48 26.2 16.48 46.8 0 19.9-4.84 36.35-14.52 49.33-9.68 12.99-24.71 19.48-45.07 19.48-16.98 0-30.47-5.74-40.46-17.23-9.99-11.49-14.98-26.91-14.98-46.28 0-20.75 5.26-37.27 15.79-49.56s24.67-18.44 42.42-18.44c15.9 0 29.35 5.3 40.34 15.9zm-12.85 82.13c5.11-10.41 7.67-22 7.67-34.75 0-11.53-1.84-20.9-5.53-28.12-5.84-11.37-15.91-17.06-30.2-17.06-12.68 0-21.9 4.84-27.66 14.52-5.76 9.68-8.64 21.36-8.64 35.04 0 13.14 2.88 24.09 8.64 32.85 5.76 8.76 14.91 13.14 27.43 13.14 13.74-.01 23.18-5.21 28.29-15.62z"/>
  <path id="rect821" d="M578.79 265.9c4.91 6.16 9.9 12.25 14.86 18.36l-33.02.16c-2.3 9.22-4.6 18.43-6.92 27.65-7.74.01-15.48 0-23.22-.04l6.93-27.68h-13.71l-12.7 50.81h36.94l-4.6 18.4c11.47.05 22.94.09 34.42.11l-24.2 27.66 20.99-.02 22.46-27.71h52.97l22.46 27.71 20.99.02-24.2-27.66c11.47-.02 22.94-.06 34.42-.11l-4.6-18.4H736l-12.7-50.81h-13.7l6.92 27.69c-7.74.03-15.48.05-23.22.04l-6.92-27.65-33.02-.16c4.96-6.11 9.97-12.19 14.86-18.36h-13.65l-16.13 18.44h-29.85l-16.14-18.44-13.66-.01zm71.28 32.22 23.16.08v23.07l-23.16.09v-23.24zm-76.29.08h23.23v23.08c-7.75.07-15.49.03-23.24-.12-.03-7.66-.03-15.31.01-22.96z" style="fill:#fff;fill-opacity:.9922"/>
  <path id="rect821_1_" class="st0" d="M765.79 78.8c4.91 6.16 9.9 12.25 14.86 18.36l-33.02.16c-2.3 9.22-4.6 18.43-6.92 27.65-7.74.01-15.48 0-23.22-.04l6.93-27.68h-13.71l-12.7 50.81h36.94l-4.6 18.4c11.47.05 22.94.09 34.42.11l-24.2 27.66 20.99-.02 22.46-27.71h52.97l22.46 27.71 20.99.02-24.2-27.66c11.47-.02 22.94-.06 34.42-.11l-4.6-18.4H923l-12.7-50.81h-13.7l6.92 27.69c-7.74.03-15.48.05-23.22.04l-6.92-27.65-33.02-.16c4.96-6.11 9.97-12.19 14.86-18.36h-13.65l-16.13 18.44h-29.85l-16.14-18.44-13.66-.01zm71.28 32.22 23.16.08v23.07l-23.16.09v-23.24zm-76.29.08h23.23v23.08c-7.75.07-15.49.03-23.24-.12-.03-7.66-.03-15.31.01-22.96z"/>
</svg>
