<?xml version="1.0" encoding="utf-8"?>
<!-- Generator: Adobe Illustrator 25.0.0, SVG Export Plug-In . SVG Version: 6.00 Build 0)  -->
<svg version="1.1"
	 id="TEXT" sodipodi:docname="system.svg" xmlns:cc="http://creativecommons.org/ns#" xmlns:dc="http://purl.org/dc/elements/1.1/" xmlns:inkscape="http://www.inkscape.org/namespaces/inkscape" xmlns:rdf="http://www.w3.org/1999/02/22-rdf-syntax-ns#" xmlns:sodipodi="http://sodipodi.sourceforge.net/DTD/sodipodi-0.dtd" xmlns:svg="http://www.w3.org/2000/svg"
	 xmlns="http://www.w3.org/2000/svg" xmlns:xlink="http://www.w3.org/1999/xlink" x="0px" y="0px" viewBox="0 0 471.2 134.5"
	 style="enable-background:new 0 0 471.2 134.5;" xml:space="preserve">
<style type="text/css">
	.st0{fill:url(#polygon5282_1_);}
	.st1{fill:url(#path5289_1_);}
	.st2{fill:url(#path5296_1_);}
	.st3{fill:url(#polygon5303_1_);}
	.st4{fill:url(#polygon5310_1_);}
	.st5{fill:url(#polygon5317_1_);}
	.st6{fill:url(#path5324_1_);}
	.st7{fill:url(#path5331_1_);}
	.st8{fill:url(#polygon5338_1_);}
	.st9{fill:url(#polygon5345_1_);}
	.st10{fill:url(#path5352_1_);}
	.st11{fill:url(#path5359_1_);}
	.st12{fill:url(#path5366_1_);}
	.st13{fill:url(#path5373_1_);}
	.st14{fill:url(#path5380_1_);}
	.st15{fill:url(#path5387_1_);}
	.st16{fill:url(#path5394_1_);}
	.st17{fill:url(#path5401_1_);}
	.st18{fill:url(#path5408_1_);}
	.st19{fill:url(#path5415_1_);}
	.st20{fill:url(#path5422_1_);}
	.st21{fill:url(#path5429_1_);}
	.st22{fill:url(#path5436_1_);}
	.st23{fill:url(#path5443_1_);}
	.st24{fill:url(#path5450_1_);}
	.st25{fill:url(#path5457_1_);}
	.st26{fill:url(#path5464_1_);}
	.st27{fill:url(#path5471_1_);}
	.st28{fill:url(#path5478_1_);}
	.st29{fill:url(#path5485_1_);}
	.st30{fill:url(#path5492_1_);}
	.st31{fill:url(#path5499_1_);}
	.st32{fill:url(#path5506_1_);}
	.st33{fill:url(#path5513_1_);}
	.st34{fill:url(#path5520_1_);}
	.st35{fill:url(#path5527_1_);}
	.st36{fill:url(#path5534_1_);}
	.st37{fill:url(#path5541_1_);}
	.st38{fill:#FFFFFF;}
</style>
<sodipodi:namedview  bordercolor="#666666" borderopacity="1" gridtolerance="10" guidetolerance="10" id="namedview5609" inkscape:current-layer="TEXT" inkscape:cx="283.46451" inkscape:cy="131.06138" inkscape:pageopacity="0" inkscape:pageshadow="2" inkscape:window-height="1137" inkscape:window-maximized="1" inkscape:window-width="1920" inkscape:window-x="-8" inkscape:window-y="-8" inkscape:zoom="2.3001116" objecttolerance="10" pagecolor="#ffffff" showgrid="false">
	</sodipodi:namedview>
<g id="g4338">
	<g id="g5615" transform="matrix(0.81874674,0,0,0.81874674,100.58394,26.423976)">
		
			<linearGradient id="polygon5282_1_" gradientUnits="userSpaceOnUse" x1="443.8893" y1="-3137.9307" x2="-102.4688" y2="-3137.9307" gradientTransform="matrix(0.5488 0 0 -0.5488 197.4908 -1670.3651)">
			<stop  offset="0" style="stop-color:#0897FF"/>
			<stop  offset="1" style="stop-color:#6BCFFF"/>
		</linearGradient>
		<polygon id="polygon5282" class="st0" points="238.6,22.6 228.7,23.8 228.7,-19.1 144.4,64.4 133.9,65.5 134.8,-20.4 61,54.5 
			51.4,54.5 50.2,-17.4 10.4,22.7 -0.6,23.3 -0.2,-19.5 -105.3,86.4 -70.7,85.9 -25.3,41.8 -16.6,41.8 -17,86.1 19.1,49.1 
			27.8,49.1 27.8,86.8 -12,126.3 26.1,125.7 101.1,49.8 111.2,49.8 111.2,87.1 158,87.4 203.2,41.9 211.9,41.3 211.8,84.3 
			247.9,48.2 256.5,48.2 257,84.6 256.3,86.5 365.5,86.5 386.4,65.4 318.5,64.2 317.9,54.4 328.5,43.2 354.1,43.2 376.3,20.7 
			362.9,20.1 362.9,10.6 374.3,-0.8 419.9,-0.5 441.1,-22.5 363.1,-22.8 289.8,50.8 279.5,51.3 279.8,-19.4 		"/>
		
			<linearGradient id="path5289_1_" gradientUnits="userSpaceOnUse" x1="-455.3445" y1="-3107.2542" x2="-459.2891" y2="-3103.3098" gradientTransform="matrix(0.5488 0 0 -0.5488 197.4908 -1670.3651)">
			<stop  offset="0" style="stop-color:#0897FF"/>
			<stop  offset="1" style="stop-color:#6BCFFF"/>
		</linearGradient>
		<path id="path5289" inkscape:connector-curvature="0" class="st1" d="M-2.2-15.2L-103.3,85.9l-11.5,4.3c0,0-0.6,0-0.3-0.4
			c0,0,117.3-117.3,117.5-117.5c0.2-0.2,0.5,0,0.5,0L-2.2-15.2z"/>
		
			<linearGradient id="path5296_1_" gradientUnits="userSpaceOnUse" x1="-348.5846" y1="-3244.0979" x2="-352.2102" y2="-3240.4724" gradientTransform="matrix(0.5488 0 0 -0.5488 197.4908 -1670.3651)">
			<stop  offset="0" style="stop-color:#0897FF"/>
			<stop  offset="1" style="stop-color:#6BCFFF"/>
		</linearGradient>
		<path id="path5296" inkscape:connector-curvature="0" class="st2" d="M28.9,87.3l-37.5,37.5l-11.1,4.5c0,0-0.6,0.1-0.2-0.4
			L24,85.2L28.9,87.3L28.9,87.3z"/>
		
			<linearGradient id="polygon5303_1_" gradientUnits="userSpaceOnUse" x1="-526.3077" y1="-3207.8472" x2="-526.3077" y2="-3203.5342" gradientTransform="matrix(0.5488 0 0 -0.5488 197.4908 -1670.3651)">
			<stop  offset="0" style="stop-color:#0897FF"/>
			<stop  offset="1" style="stop-color:#6BCFFF"/>
		</linearGradient>
		<polygon id="polygon5303" class="st3" points="-70.7,85.9 -67.9,90.2 -114.8,90.2 -103.3,85.9 		"/>
		
			<linearGradient id="polygon5310_1_" gradientUnits="userSpaceOnUse" x1="-352.3847" y1="-3279.1421" x2="-352.3847" y2="-3274.6851" gradientTransform="matrix(0.5488 0 0 -0.5488 197.4908 -1670.3651)">
			<stop  offset="0" style="stop-color:#0897FF"/>
			<stop  offset="1" style="stop-color:#6BCFFF"/>
		</linearGradient>
		<polygon id="polygon5310" class="st4" points="25.3,124.9 27.9,129.3 -19.7,129.3 -8.6,124.9 		"/>
		
			<linearGradient id="polygon5317_1_" gradientUnits="userSpaceOnUse" x1="206.1003" y1="-3207.7961" x2="206.1003" y2="-3203.3291" gradientTransform="matrix(0.5488 0 0 -0.5488 197.4908 -1670.3651)">
			<stop  offset="0" style="stop-color:#0897FF"/>
			<stop  offset="1" style="stop-color:#6BCFFF"/>
		</linearGradient>
		<polygon id="polygon5317" class="st5" points="364.6,85.7 367.9,90.2 253.3,90.1 257.2,85.7 		"/>
		
			<linearGradient id="path5324_1_" gradientUnits="userSpaceOnUse" x1="-115.598" y1="-3209.3831" x2="-115.598" y2="-3204.9041" gradientTransform="matrix(0.5488 0 0 -0.5488 197.4908 -1670.3651)">
			<stop  offset="0" style="stop-color:#0897FF"/>
			<stop  offset="1" style="stop-color:#6BCFFF"/>
		</linearGradient>
		<path id="path5324" inkscape:connector-curvature="0" class="st6" d="M160.2,91h-51.5c-0.3,0-0.8-0.3-0.8-0.3l4.6-4.1h45L160.2,91
			L160.2,91z"/>
		
			<linearGradient id="path5331_1_" gradientUnits="userSpaceOnUse" x1="378.4745" y1="-3004.0281" x2="378.4745" y2="-2999.1648" gradientTransform="matrix(0.5488 0 0 -0.5488 197.4908 -1670.3651)">
			<stop  offset="0" style="stop-color:#0897FF"/>
			<stop  offset="1" style="stop-color:#6BCFFF"/>
		</linearGradient>
		<path id="path5331" inkscape:connector-curvature="0" class="st7" d="M360.5-26.5h88.6c0.8,0,0.8,0.3,0.8,0.3l-10.6,4.5h-75.2
			L360.5-26.5L360.5-26.5z"/>
		
			<linearGradient id="polygon5338_1_" gradientUnits="userSpaceOnUse" x1="365.1729" y1="-3048.7183" x2="365.1729" y2="-3044.5083" gradientTransform="matrix(0.5488 0 0 -0.5488 197.4908 -1670.3651)">
			<stop  offset="0" style="stop-color:#0897FF"/>
			<stop  offset="1" style="stop-color:#6BCFFF"/>
		</linearGradient>
		<polygon id="polygon5338" class="st8" points="419,-1.4 422.1,2.8 375.8,2.8 373.7,-1.4 		"/>
		
			<linearGradient id="polygon5345_1_" gradientUnits="userSpaceOnUse" x1="263.8621" y1="-3128.0046" x2="263.8621" y2="-3124.2847" gradientTransform="matrix(0.5488 0 0 -0.5488 197.4908 -1670.3651)">
			<stop  offset="0" style="stop-color:#0897FF"/>
			<stop  offset="1" style="stop-color:#6BCFFF"/>
		</linearGradient>
		<polygon id="polygon5345" class="st9" points="353.5,42.6 356.7,46.4 332,46.4 327.9,42.6 		"/>
		
			<linearGradient id="path5352_1_" gradientUnits="userSpaceOnUse" x1="319.8928" y1="-3082.2361" x2="319.8928" y2="-3076.6816" gradientTransform="matrix(0.5488 0 0 -0.5488 197.4908 -1670.3651)">
			<stop  offset="0" style="stop-color:#0897FF"/>
			<stop  offset="1" style="stop-color:#6BCFFF"/>
		</linearGradient>
		<path id="path5352" inkscape:connector-curvature="0" class="st10" d="M374.9,21.2h-13.6l-1.2-5.5h25.5c0.4,0,0.4,0.1,0.4,0.1
			L374.9,21.2z"/>
		
			<linearGradient id="path5359_1_" gradientUnits="userSpaceOnUse" x1="-437.6838" y1="-3161.96" x2="-441.2268" y2="-3158.4167" gradientTransform="matrix(0.5488 0 0 -0.5488 197.4908 -1670.3651)">
			<stop  offset="0" style="stop-color:#0897FF"/>
			<stop  offset="1" style="stop-color:#6BCFFF"/>
		</linearGradient>
		<path id="path5359" inkscape:connector-curvature="0" class="st11" d="M-20,42.2l-47.9,48l-2.8-4.3l46.6-46.4
			c2-2.3,4.7-1.7,4.7-1.7L-20,42.2z"/>
		
			<linearGradient id="path5366_1_" gradientUnits="userSpaceOnUse" x1="-354.0407" y1="-3044.4753" x2="-359.4067" y2="-3044.4753" gradientTransform="matrix(0.5488 0 0 -0.5488 197.4908 -1670.3651)">
			<stop  offset="0" style="stop-color:#0897FF"/>
			<stop  offset="1" style="stop-color:#6BCFFF"/>
		</linearGradient>
		<path id="path5366" inkscape:connector-curvature="0" class="st12" d="M-2.2,23.2v-38.5l5.1-12.5c0,0,0.3,0.1,0.3,0.6
			s0,53.6,0,53.6l-0.3,2.3C2.9,28.8-1.6,28.8-2.2,23.2z"/>
		
			<linearGradient id="path5373_1_" gradientUnits="userSpaceOnUse" x1="-257.7951" y1="-3073.0061" x2="-264.4554" y2="-3073.0061" gradientTransform="matrix(0.5488 0 0 -0.5488 197.4908 -1670.3651)">
			<stop  offset="0" style="stop-color:#0897FF"/>
			<stop  offset="1" style="stop-color:#6BCFFF"/>
		</linearGradient>
		<path id="path5373" inkscape:connector-curvature="0" class="st13" d="M56,60.4c0,0-6.5,2-6.6-5.6c-0.1-7.3,0-69.3,0-69.3
			l5.2-13.9c0,0,0.2,0,0.2,0.7v81.8L56,60.4L56,60.4z"/>
		
			<linearGradient id="path5380_1_" gradientUnits="userSpaceOnUse" x1="-106.7236" y1="-3082.5505" x2="-112.7166" y2="-3082.5505" gradientTransform="matrix(0.5488 0 0 -0.5488 197.4908 -1670.3651)">
			<stop  offset="0" style="stop-color:#0897FF"/>
			<stop  offset="1" style="stop-color:#6BCFFF"/>
		</linearGradient>
		<path id="path5380" inkscape:connector-curvature="0" class="st14" d="M138.9,70.5c0,0-5.9,0.6-6-6.1v-80.1l4.6-12.1
			c0,0,0.6,0.1,0.6,0.9v91.1L138.9,70.5L138.9,70.5z"/>
		
			<linearGradient id="path5387_1_" gradientUnits="userSpaceOnUse" x1="63.2448" y1="-3045.1052" x2="57.5438" y2="-3045.1052" gradientTransform="matrix(0.5488 0 0 -0.5488 197.4908 -1670.3651)">
			<stop  offset="0" style="stop-color:#0897FF"/>
			<stop  offset="1" style="stop-color:#6BCFFF"/>
		</linearGradient>
		<path id="path5387" inkscape:connector-curvature="0" class="st15" d="M232.2,29c0,0-4.9,0.5-5.7-4.6v-39.7l4.4-12.1
			c0,0,0.6,0.1,0.6,0.9v49.7L232.2,29z"/>
		
			<linearGradient id="path5394_1_" gradientUnits="userSpaceOnUse" x1="157.4068" y1="-3070.2588" x2="151.6098" y2="-3070.2588" gradientTransform="matrix(0.5488 0 0 -0.5488 197.4908 -1670.3651)">
			<stop  offset="0" style="stop-color:#0897FF"/>
			<stop  offset="1" style="stop-color:#6BCFFF"/>
		</linearGradient>
		<path id="path5394" inkscape:connector-curvature="0" class="st16" d="M283.9,56.9c0,0-4.9,0.6-5.8-4.4v-67.7l4.9-12.5
			c0,0,0.3,0.2,0.3,1.7v77.2L283.9,56.9z"/>
		
			<linearGradient id="path5401_1_" gradientUnits="userSpaceOnUse" x1="-387.7342" y1="-3162.2563" x2="-392.8451" y2="-3162.2563" gradientTransform="matrix(0.5488 0 0 -0.5488 197.4908 -1670.3651)">
			<stop  offset="0" style="stop-color:#0897FF"/>
			<stop  offset="1" style="stop-color:#6BCFFF"/>
		</linearGradient>
		<path id="path5401" inkscape:connector-curvature="0" class="st17" d="M-19.1,92.4c0,0-0.8-0.1-0.8-1.2c0-0.9-0.1-49-0.1-49
			s-1.2-1.6,0.6-4.4c0.5,0.1,3.5,0.7,4.1,4.3v40.4C-15.3,82.4-19.1,92.4-19.1,92.4z"/>
		
			<linearGradient id="path5408_1_" gradientUnits="userSpaceOnUse" x1="-352.3003" y1="-3171.0872" x2="-355.8534" y2="-3167.5339" gradientTransform="matrix(0.5488 0 0 -0.5488 197.4908 -1670.3651)">
			<stop  offset="0" style="stop-color:#0897FF"/>
			<stop  offset="1" style="stop-color:#6BCFFF"/>
		</linearGradient>
		<path id="path5408" inkscape:connector-curvature="0" class="st18" d="M23.9,50.1c0,0-41.5,41.5-41.9,41.9
			c-0.4,0.4-1.2,0.3-1.2,0.3l3.8-10l36.1-36.1c0,0,1.3-1.7,3.8-1.6L23.9,50.1z"/>
		
			<linearGradient id="path5415_1_" gradientUnits="userSpaceOnUse" x1="435.1605" y1="-3022.8804" x2="431.4911" y2="-3019.2109" gradientTransform="matrix(0.5488 0 0 -0.5488 197.4908 -1670.3651)">
			<stop  offset="0" style="stop-color:#0897FF"/>
			<stop  offset="1" style="stop-color:#6BCFFF"/>
		</linearGradient>
		<path id="path5415" inkscape:connector-curvature="0" class="st19" d="M449.7-24.8L422.1,2.8L419-1.4l20.3-20.3l10.6-4.5
			C449.9-26.2,450.3-25.4,449.7-24.8z"/>
		
			<linearGradient id="path5422_1_" gradientUnits="userSpaceOnUse" x1="-307.1439" y1="-3163.9873" x2="-312.5424" y2="-3163.9873" gradientTransform="matrix(0.5488 0 0 -0.5488 197.4908 -1670.3651)">
			<stop  offset="0" style="stop-color:#0897FF"/>
			<stop  offset="1" style="stop-color:#6BCFFF"/>
		</linearGradient>
		<path id="path5422" inkscape:connector-curvature="0" class="st20" d="M24,85.2l-0.1-35c0,0-1.3-2.6,0.6-5.5
			c0.6,0,3.7,0.4,4.3,4.2v38.5L24,85.2z"/>
		
			<linearGradient id="path5429_1_" gradientUnits="userSpaceOnUse" x1="-302.0072" y1="-3049.188" x2="-306.4951" y2="-3044.7002" gradientTransform="matrix(0.5488 0 0 -0.5488 197.4908 -1670.3651)">
			<stop  offset="0" style="stop-color:#0897FF"/>
			<stop  offset="1" style="stop-color:#6BCFFF"/>
		</linearGradient>
		<path id="path5429" inkscape:connector-curvature="0" class="st21" d="M49.4-14.5L7.9,26.9c-2,2-5,1.8-5,1.8
			c-1.8-3.5,0.3-6.1,0.3-6.1s50.5-50.5,50.9-50.9c0.3-0.4,0.5-0.3,0.5-0.3L49.4-14.5z"/>
		
			<linearGradient id="path5436_1_" gradientUnits="userSpaceOnUse" x1="-179.9611" y1="-3077.2402" x2="-184.1195" y2="-3073.0818" gradientTransform="matrix(0.5488 0 0 -0.5488 197.4908 -1670.3651)">
			<stop  offset="0" style="stop-color:#0897FF"/>
			<stop  offset="1" style="stop-color:#6BCFFF"/>
		</linearGradient>
		<path id="path5436" inkscape:connector-curvature="0" class="st22" d="M132.9-15.7L58.5,58.7C57,60.2,56,60.4,56,60.4
			c-3.8-1.9-1.2-6.2-1.2-6.2s80.6-80.6,81-81c0.9-1.1,1.8-0.9,1.8-0.9L132.9-15.7L132.9-15.7z"/>
		
			<linearGradient id="path5443_1_" gradientUnits="userSpaceOnUse" x1="-18.7381" y1="-3087.2097" x2="-23.1223" y2="-3082.8254" gradientTransform="matrix(0.5488 0 0 -0.5488 197.4908 -1670.3651)">
			<stop  offset="0" style="stop-color:#0897FF"/>
			<stop  offset="1" style="stop-color:#6BCFFF"/>
		</linearGradient>
		<path id="path5443" inkscape:connector-curvature="0" class="st23" d="M226.5-15.3l-84.2,84.2c-1.4,1.4-3.4,1.6-3.4,1.6
			c-3.1-1.6-0.8-6.2-0.8-6.2s90.6-90.5,91-90.9c0.9-1.1,1.8-0.9,1.8-0.9L226.5-15.3L226.5-15.3z"/>
		
			<linearGradient id="path5450_1_" gradientUnits="userSpaceOnUse" x1="113.6461" y1="-3049.0356" x2="109.4382" y2="-3044.8274" gradientTransform="matrix(0.5488 0 0 -0.5488 197.4908 -1670.3651)">
			<stop  offset="0" style="stop-color:#0897FF"/>
			<stop  offset="1" style="stop-color:#6BCFFF"/>
		</linearGradient>
		<path id="path5450" inkscape:connector-curvature="0" class="st24" d="M278.1-15.2l-42.5,42.5c-1.4,1.4-3.4,1.7-3.4,1.7
			c-2.9-1.9-0.6-6-0.6-6s49.6-49.7,49.9-50.1c1-1,1.4-0.7,1.4-0.7L278.1-15.2z"/>
		
			<linearGradient id="path5457_1_" gradientUnits="userSpaceOnUse" x1="317.2709" y1="-3100.8027" x2="313.8139" y2="-3097.3462" gradientTransform="matrix(0.5488 0 0 -0.5488 197.4908 -1670.3651)">
			<stop  offset="0" style="stop-color:#0897FF"/>
			<stop  offset="1" style="stop-color:#6BCFFF"/>
		</linearGradient>
		<path id="path5457" inkscape:connector-curvature="0" class="st25" d="M386.1,17l-29.4,29.4l-3.2-3.7l21.4-21.4l11.1-5.4
			C386,15.8,386.5,16.1,386.1,17z"/>
		
			<linearGradient id="path5464_1_" gradientUnits="userSpaceOnUse" x1="337.4144" y1="-3181.2019" x2="333.4541" y2="-3177.2417" gradientTransform="matrix(0.5488 0 0 -0.5488 197.4908 -1670.3651)">
			<stop  offset="0" style="stop-color:#0897FF"/>
			<stop  offset="1" style="stop-color:#6BCFFF"/>
		</linearGradient>
		<path id="path5464" inkscape:connector-curvature="0" class="st26" d="M396.7,61.5l-28.9,28.6l-3.3-4.5l20-20l12.3-5.4
			C397,60.3,397.4,60.7,396.7,61.5z"/>
		
			<linearGradient id="path5471_1_" gradientUnits="userSpaceOnUse" x1="231.9181" y1="-3075.8303" x2="227.6351" y2="-3071.5474" gradientTransform="matrix(0.5488 0 0 -0.5488 197.4908 -1670.3651)">
			<stop  offset="0" style="stop-color:#0897FF"/>
			<stop  offset="1" style="stop-color:#6BCFFF"/>
		</linearGradient>
		<path id="path5471" inkscape:connector-curvature="0" class="st27" d="M364.2-21.7l-76.9,76.9c-1.4,1.4-3.4,1.6-3.4,1.6
			c-2.5-3.1-0.7-6-0.7-6l77.3-77.4C360.5-26.5,364.2-21.7,364.2-21.7z"/>
		
			<linearGradient id="path5478_1_" gradientUnits="userSpaceOnUse" x1="313.956" y1="-3066.792" x2="308.843" y2="-3061.6787" gradientTransform="matrix(0.5488 0 0 -0.5488 197.4908 -1670.3651)">
			<stop  offset="0" style="stop-color:#0897FF"/>
			<stop  offset="1" style="stop-color:#6BCFFF"/>
		</linearGradient>
		<path id="path5478" inkscape:connector-curvature="0" class="st28" d="M375.8,2.8l-12.7,12.8c-2.8,2.3-1.8,5.6-1.8,5.6
			c-2.2-0.2-3.1-2.1-3.4-3.7s0.3-3.4,1.4-4.5l14.5-14.4L375.8,2.8z"/>
		
			<linearGradient id="path5485_1_" gradientUnits="userSpaceOnUse" x1="-234.3475" y1="-3204.7659" x2="-237.9905" y2="-3201.1228" gradientTransform="matrix(0.5488 0 0 -0.5488 197.4908 -1670.3651)">
			<stop  offset="0" style="stop-color:#0897FF"/>
			<stop  offset="1" style="stop-color:#6BCFFF"/>
		</linearGradient>
		<path id="path5485" inkscape:connector-curvature="0" class="st29" d="M25.3,124.9L103.2,47c0,0,1.4-1.9,4.3-1.8l-0.5,5.2
			c0,0-78.7,78.5-79.1,78.9L25.3,124.9L25.3,124.9z"/>
		
			<linearGradient id="path5492_1_" gradientUnits="userSpaceOnUse" x1="-21.0184" y1="-3162.4492" x2="-24.6597" y2="-3158.8079" gradientTransform="matrix(0.5488 0 0 -0.5488 197.4908 -1670.3651)">
			<stop  offset="0" style="stop-color:#0897FF"/>
			<stop  offset="1" style="stop-color:#6BCFFF"/>
		</linearGradient>
		<path id="path5492" inkscape:connector-curvature="0" class="st30" d="M157.4,86.5L205,38.8c0,0,1.4-1.9,4.3-1.8l-0.9,5.6
			L160.2,91L157.4,86.5z"/>
		
			<linearGradient id="path5499_1_" gradientUnits="userSpaceOnUse" x1="64.3503" y1="-3169.6482" x2="60.8408" y2="-3166.1387" gradientTransform="matrix(0.5488 0 0 -0.5488 197.4908 -1670.3651)">
			<stop  offset="0" style="stop-color:#0897FF"/>
			<stop  offset="1" style="stop-color:#6BCFFF"/>
		</linearGradient>
		<path id="path5499" inkscape:connector-curvature="0" class="st31" d="M213.2,81.8L250,45c0.8-0.8,1.8-1.8,3.4-1.8l-0.1,5.5
			l-43.1,43c-0.6,0.6-1,0.4-1,0.4L213.2,81.8z"/>
		
			<linearGradient id="path5506_1_" gradientUnits="userSpaceOnUse" x1="102.5338" y1="-3207.0317" x2="98.1098" y2="-3202.6079" gradientTransform="matrix(0.5488 0 0 -0.5488 197.4908 -1670.3651)">
			<stop  offset="0" style="stop-color:#0897FF"/>
			<stop  offset="1" style="stop-color:#6BCFFF"/>
		</linearGradient>
		<path id="path5506" inkscape:connector-curvature="0" class="st32" d="M245.1,89.6l7.2-7.3l5.6,2.3l-0.7,1l-3.8,4.4l-0.3,0.3h-7.7
			c-0.3,0-0.5-0.3-0.5-0.3S244.7,90,245.1,89.6z"/>
		
			<linearGradient id="path5513_1_" gradientUnits="userSpaceOnUse" x1="-155.0643" y1="-3167.4495" x2="-161.1023" y2="-3167.4495" gradientTransform="matrix(0.5488 0 0 -0.5488 197.4908 -1670.3651)">
			<stop  offset="0" style="stop-color:#0897FF"/>
			<stop  offset="1" style="stop-color:#6BCFFF"/>
		</linearGradient>
		<path id="path5513" inkscape:connector-curvature="0" class="st33" d="M107.1,88.9L107,50.4c0,0-1.7-2,0.5-5.2
			c0.7,0,4.2,0.5,4.9,4.7v36.7l-4.6,4.1C107.8,90.7,107.1,90.2,107.1,88.9L107.1,88.9z"/>
		
			<linearGradient id="path5520_1_" gradientUnits="userSpaceOnUse" x1="28.6778" y1="-3161.6187" x2="23.4654" y2="-3161.6187" gradientTransform="matrix(0.5488 0 0 -0.5488 197.4908 -1670.3651)">
			<stop  offset="0" style="stop-color:#0897FF"/>
			<stop  offset="1" style="stop-color:#6BCFFF"/>
		</linearGradient>
		<path id="path5520" inkscape:connector-curvature="0" class="st34" d="M208.6,91.5l-0.1-48.7c0,0-1.5-2.7,0.9-5.6
			c0.6,0,3.2,0.5,3.9,4.7v40l-4,10.4C209.2,92.2,208.6,92,208.6,91.5L208.6,91.5z"/>
		
			<linearGradient id="path5527_1_" gradientUnits="userSpaceOnUse" x1="110.0534" y1="-3160.0698" x2="103.8089" y2="-3160.0698" gradientTransform="matrix(0.5488 0 0 -0.5488 197.4908 -1670.3651)">
			<stop  offset="0" style="stop-color:#0897FF"/>
			<stop  offset="1" style="stop-color:#6BCFFF"/>
		</linearGradient>
		<path id="path5527" inkscape:connector-curvature="0" class="st35" d="M252.3,82.3V49.7c0,0-2.1-3.4,1.1-6.5
			c0.7,0,4.1,0.2,4.5,4.3v37.1L252.3,82.3z"/>
		
			<linearGradient id="path5534_1_" gradientUnits="userSpaceOnUse" x1="229.6033" y1="-3145.3086" x2="225.1848" y2="-3140.8901" gradientTransform="matrix(0.5488 0 0 -0.5488 197.4908 -1670.3651)">
			<stop  offset="0" style="stop-color:#0897FF"/>
			<stop  offset="1" style="stop-color:#6BCFFF"/>
		</linearGradient>
		<path id="path5534" inkscape:connector-curvature="0" class="st36" d="M332,46.4l-13.5,13.5l-3.8,4.8c-3.9-2.5-2-6.9-0.9-7.9
			l14.1-14.1L332,46.4L332,46.4z"/>
		
			<linearGradient id="path5541_1_" gradientUnits="userSpaceOnUse" x1="288.461" y1="-3163.1294" x2="288.461" y2="-3157.3284" gradientTransform="matrix(0.5488 0 0 -0.5488 197.4908 -1670.3651)">
			<stop  offset="0" style="stop-color:#0897FF"/>
			<stop  offset="1" style="stop-color:#6BCFFF"/>
		</linearGradient>
		<path id="path5541" inkscape:connector-curvature="0" class="st37" d="M384.7,65.6h-66.4c-2.5-0.2-3.6-1-3.6-1
			c0-3.6,3.8-4.8,3.8-4.8h77.7c0.5,0,0.7,0.4,0.7,0.4L384.7,65.6L384.7,65.6z"/>
		<g id="g5543">
			<path id="path5545" inkscape:connector-curvature="0" class="st38" d="M-116.9,113.6v-9.5h2.9l1.7,6.5l1.7-6.5h2.9v9.5h-1.8v-7.5
				l-1.9,7.5h-1.8l-1.9-7.5v7.5C-115.1,113.6-116.9,113.6-116.9,113.6z"/>
			<path id="path5547" inkscape:connector-curvature="0" class="st38" d="M-99.7,104.1h1.9v5.2c0,0.8,0,1.3,0.1,1.6
				c0.1,0.4,0.3,0.7,0.6,0.9c0.3,0.2,0.7,0.3,1.3,0.3c0.5,0,1-0.1,1.2-0.3c0.3-0.2,0.4-0.5,0.5-0.8s0.1-0.9,0.1-1.6v-5.3h1.9v5
				c0,1.1-0.1,1.9-0.2,2.4s-0.3,0.9-0.6,1.2s-0.7,0.6-1.1,0.8c-0.5,0.2-1.1,0.3-1.8,0.3c-0.9,0-1.6-0.1-2.1-0.3s-0.8-0.5-1.1-0.8
				c-0.3-0.3-0.4-0.7-0.5-1.1c-0.1-0.5-0.2-1.3-0.2-2.4C-99.7,109.2-99.7,104.1-99.7,104.1z"/>
			<path id="path5549" inkscape:connector-curvature="0" class="st38" d="M-83.9,113.6v-9.4h1.9v7.8h4.8v1.6H-83.9L-83.9,113.6z"/>
			<path id="path5551" inkscape:connector-curvature="0" class="st38" d="M-68.5,113.6v-7.9h-2.8v-1.6h7.6v1.6h-2.8v7.9H-68.5z"/>
			<path id="path5553" inkscape:connector-curvature="0" class="st38" d="M-56.5,113.6v-9.5h1.9v9.5H-56.5z"/>
			<path id="path5555" inkscape:connector-curvature="0" class="st38" d="M-46.6,113.6v-9.5h3.1c1.2,0,1.9,0.1,2.3,0.1
				c0.5,0.2,1,0.4,1.4,0.9s0.5,1.1,0.5,1.8c0,0.6-0.1,1.1-0.3,1.5s-0.5,0.7-0.8,0.9s-0.7,0.4-1,0.4c-0.5,0.1-1.1,0.1-2,0.1h-1.2v3.6
				L-46.6,113.6L-46.6,113.6z M-44.6,105.7v2.7h1c0.8,0,1.3-0.1,1.5-0.2c0.3-0.1,0.5-0.2,0.6-0.5s0.2-0.5,0.2-0.7
				c0-0.3-0.1-0.6-0.3-0.9c-0.2-0.2-0.5-0.4-0.8-0.4c-0.2,0-0.7-0.1-1.4-0.1L-44.6,105.7L-44.6,105.7z"/>
			<path id="path5557" inkscape:connector-curvature="0" class="st38" d="M-31.5,113.6v-9.4h1.9v7.8h4.8v1.6H-31.5L-31.5,113.6z"/>
			<path id="path5559" inkscape:connector-curvature="0" class="st38" d="M-17.3,113.6v-9.5h7.1v1.6h-5.1v2.1h4.8v1.6h-4.8v2.6h5.3
				v1.6L-17.3,113.6L-17.3,113.6z"/>
		</g>
		<g id="g5561">
			<path id="path5563" inkscape:connector-curvature="0" class="st38" d="M73.1,113.6H71l-0.8-2.2h-3.8l-0.8,2.2h-2l3.7-9.5h2
				L73.1,113.6z M69.5,109.8l-1.3-3.5l-1.3,3.5H69.5z"/>
			<path id="path5565" inkscape:connector-curvature="0" class="st38" d="M80.2,113.6v-9.5h4.1c1,0,1.8,0.1,2.2,0.3
				c0.5,0.2,0.8,0.5,1.1,0.9c0.3,0.4,0.4,0.9,0.4,1.5c0,0.7-0.2,1.3-0.6,1.8s-1.1,0.8-1.9,0.9c0.4,0.2,0.8,0.5,1,0.8
				c0.3,0.3,0.6,0.8,1.1,1.6l1.2,1.9h-2.3l-1.4-2.1c-0.5-0.7-0.8-1.2-1-1.4c-0.2-0.2-0.4-0.3-0.6-0.4s-0.5-0.1-1-0.1h-0.4v4
				L80.2,113.6L80.2,113.6z M82.1,108.1h1.4c0.9,0,1.5,0,1.7-0.1s0.4-0.2,0.5-0.4s0.2-0.4,0.2-0.7c0-0.3-0.1-0.6-0.3-0.8
				c-0.2-0.2-0.4-0.3-0.7-0.4c-0.2,0-0.6,0-1.4,0H82L82.1,108.1L82.1,108.1L82.1,108.1z"/>
			<path id="path5567" inkscape:connector-curvature="0" class="st38" d="M102,110.1l1.9,0.6c-0.3,1-0.8,1.8-1.4,2.3
				c-0.7,0.5-1.5,0.8-2.5,0.8c-1.3,0-2.3-0.4-3.1-1.3c-0.8-0.9-1.2-2-1.2-3.5c0-1.6,0.4-2.8,1.2-3.7c0.8-0.9,1.9-1.3,3.2-1.3
				c1.2,0,2.1,0.3,2.8,1c0.4,0.4,0.8,1,1,1.8l-1.9,0.4c-0.1-0.5-0.3-0.9-0.7-1.2c-0.4-0.3-0.8-0.4-1.3-0.4c-0.7,0-1.3,0.2-1.7,0.8
				s-0.7,1.3-0.7,2.5c0,1.2,0.2,2.1,0.7,2.6s1,0.8,1.7,0.8c0.5,0,0.9-0.2,1.3-0.5C101.6,111.3,101.9,110.8,102,110.1L102,110.1z"/>
			<path id="path5569" inkscape:connector-curvature="0" class="st38" d="M120.3,113.6h-2.1l-0.8-2.2h-3.8l-0.8,2.2h-2l3.7-9.5h2
				L120.3,113.6z M116.7,109.8l-1.3-3.5l-1.3,3.5H116.7z"/>
			<path id="path5571" inkscape:connector-curvature="0" class="st38" d="M127.4,104.1h3.5c0.8,0,1.4,0.1,1.8,0.2
				c0.6,0.2,1,0.5,1.4,0.9s0.7,0.9,0.9,1.5s0.3,1.4,0.3,2.2c0,0.8-0.1,1.5-0.3,2c-0.2,0.7-0.6,1.2-1,1.7c-0.3,0.3-0.8,0.6-1.4,0.8
				c-0.4,0.1-1,0.2-1.7,0.2h-3.6L127.4,104.1L127.4,104.1L127.4,104.1L127.4,104.1z M129.3,105.7v6.3h1.4c0.5,0,0.9,0,1.2-0.1
				s0.6-0.2,0.8-0.4c0.2-0.2,0.4-0.5,0.5-0.9s0.2-1,0.2-1.7s-0.1-1.3-0.2-1.7c-0.1-0.4-0.3-0.7-0.5-0.9s-0.5-0.4-0.9-0.4
				c-0.3-0.1-0.8-0.1-1.6-0.1L129.3,105.7L129.3,105.7L129.3,105.7z"/>
			<path id="path5573" inkscape:connector-curvature="0" class="st38" d="M143.2,113.6v-9.5h7.1v1.6h-5.1v2.1h4.8v1.6h-4.8v2.6h5.3
				v1.6L143.2,113.6L143.2,113.6z"/>
		</g>
		<g id="g5575">
			<path id="path5577" inkscape:connector-curvature="0" class="st38" d="M166.3,113.6v-9.5h2.9l1.7,6.5l1.7-6.5h2.9v9.5h-1.8v-7.5
				l-1.9,7.5H170l-1.9-7.5v7.5H166.3L166.3,113.6z"/>
			<path id="path5579" inkscape:connector-curvature="0" class="st38" d="M192.1,113.6H190l-0.8-2.2h-3.8l-0.8,2.2h-2l3.7-9.5h2
				L192.1,113.6z M188.6,109.8l-1.3-3.5l-1.3,3.5H188.6z"/>
			<path id="path5581" inkscape:connector-curvature="0" class="st38" d="M205.3,110.1l1.9,0.6c-0.3,1-0.8,1.8-1.4,2.3
				c-0.7,0.5-1.5,0.8-2.5,0.8c-1.3,0-2.3-0.4-3.1-1.3s-1.2-2-1.2-3.5c0-1.6,0.4-2.8,1.2-3.7c0.8-0.9,1.9-1.3,3.2-1.3
				c1.2,0,2.1,0.3,2.8,1c0.4,0.4,0.8,1,1,1.8l-1.9,0.4c-0.1-0.5-0.4-0.9-0.7-1.2c-0.4-0.3-0.8-0.4-1.3-0.4c-0.7,0-1.3,0.2-1.7,0.8
				s-0.7,1.3-0.7,2.5c0,1.2,0.2,2.1,0.6,2.6s1,0.8,1.7,0.8c0.5,0,0.9-0.2,1.3-0.5C204.9,111.3,205.2,110.8,205.3,110.1L205.3,110.1z
				"/>
			<path id="path5583" inkscape:connector-curvature="0" class="st38" d="M215,113.6v-9.5h1.9v3.8h3.8v-3.8h1.9v9.5h-1.9v-4.2h-3.8
				v4.2H215z"/>
			<path id="path5585" inkscape:connector-curvature="0" class="st38" d="M230.7,113.6v-9.5h1.9v9.5H230.7z"/>
			<path id="path5587" inkscape:connector-curvature="0" class="st38" d="M240.6,113.6v-9.5h1.9l3.9,6.4v-6.4h1.8v9.5h-1.9l-3.8-6.2
				v6.2H240.6L240.6,113.6z"/>
			<path id="path5589" inkscape:connector-curvature="0" class="st38" d="M256.3,113.6v-9.5h7.1v1.6h-5.1v2.1h4.8v1.6h-4.8v2.6h5.3
				v1.6L256.3,113.6L256.3,113.6z"/>
		</g>
		<g id="g5591">
			<path id="path5593" inkscape:connector-curvature="0" class="st38" d="M280.2,113.6v-9.5h7.1v1.6h-5.1v2.1h4.8v1.6h-4.8v2.6h5.3
				v1.6L280.2,113.6L280.2,113.6z"/>
			<path id="path5595" inkscape:connector-curvature="0" class="st38" d="M295.2,113.6v-9.5h2.9l1.7,6.5l1.7-6.5h2.9v9.5h-1.8v-7.5
				l-1.9,7.5h-1.9l-1.9-7.5v7.5H295.2L295.2,113.6z"/>
			<path id="path5597" inkscape:connector-curvature="0" class="st38" d="M312.4,104.1h1.9v5.2c0,0.8,0,1.3,0.1,1.6
				c0.1,0.4,0.3,0.7,0.6,0.9c0.3,0.2,0.7,0.3,1.3,0.3c0.5,0,1-0.1,1.2-0.3c0.3-0.2,0.4-0.5,0.5-0.8s0.1-0.9,0.1-1.6v-5.3h1.9v5
				c0,1.1,0,1.9-0.2,2.4c-0.1,0.5-0.3,0.9-0.6,1.2c-0.3,0.3-0.6,0.6-1.1,0.8c-0.5,0.2-1.1,0.3-1.8,0.3c-0.9,0-1.6-0.1-2.1-0.3
				s-0.8-0.5-1.1-0.8s-0.5-0.7-0.5-1.1c-0.1-0.5-0.2-1.3-0.2-2.4L312.4,104.1L312.4,104.1L312.4,104.1L312.4,104.1z"/>
			<path id="path5599" inkscape:connector-curvature="0" class="st38" d="M328.2,113.6v-9.4h1.9v7.8h4.8v1.6H328.2L328.2,113.6z"/>
			<path id="path5601" inkscape:connector-curvature="0" class="st38" d="M351,113.6h-2.1l-0.8-2.2h-3.8l-0.8,2.2h-2l3.7-9.5h2
				L351,113.6L351,113.6z M347.4,109.8l-1.3-3.5l-1.3,3.5H347.4z"/>
			<path id="path5603" inkscape:connector-curvature="0" class="st38" d="M359.3,113.6v-7.9h-2.8v-1.6h7.6v1.6h-2.8v7.9H359.3z"/>
			<path id="path5605" inkscape:connector-curvature="0" class="st38" d="M370.8,108.9c0-1,0.1-1.8,0.4-2.4c0.2-0.5,0.5-0.9,0.9-1.3
				s0.8-0.7,1.2-0.8c0.6-0.2,1.3-0.4,2-0.4c1.4,0,2.5,0.4,3.4,1.3c0.8,0.9,1.3,2.1,1.3,3.6c0,1.5-0.4,2.7-1.2,3.6
				c-0.8,0.9-2,1.3-3.4,1.3s-2.5-0.4-3.4-1.3C371.2,111.6,370.8,110.4,370.8,108.9L370.8,108.9z M372.8,108.8c0,1.1,0.2,1.9,0.8,2.4
				c0.5,0.6,1.1,0.8,1.9,0.8s1.4-0.3,1.9-0.8c0.5-0.6,0.7-1.4,0.7-2.5s-0.2-1.9-0.7-2.4s-1.1-0.8-1.9-0.8s-1.4,0.3-1.9,0.8
				C373,106.9,372.8,107.7,372.8,108.8L372.8,108.8z"/>
			<path id="path5607" inkscape:connector-curvature="0" class="st38" d="M387.6,113.6v-9.5h4c1,0,1.8,0.1,2.2,0.3
				c0.5,0.2,0.8,0.5,1.1,0.9c0.3,0.4,0.4,0.9,0.4,1.5c0,0.7-0.2,1.3-0.6,1.8s-1,0.8-1.9,0.9c0.4,0.2,0.8,0.5,1,0.8
				c0.3,0.3,0.6,0.8,1.1,1.6l1.2,1.9h-2.3l-1.4-2.1c-0.5-0.7-0.8-1.2-1-1.4c-0.2-0.2-0.4-0.3-0.6-0.4s-0.5-0.1-1-0.1h-0.4v4
				L387.6,113.6L387.6,113.6L387.6,113.6L387.6,113.6L387.6,113.6L387.6,113.6z M389.6,108.1h1.4c0.9,0,1.5,0,1.7-0.1
				s0.4-0.2,0.5-0.4s0.2-0.4,0.2-0.7c0-0.3-0.1-0.6-0.3-0.8c-0.2-0.2-0.4-0.3-0.7-0.4c-0.2,0-0.6,0-1.4,0h-1.5L389.6,108.1
				L389.6,108.1L389.6,108.1z"/>
		</g>
	</g>
</g>
</svg>
