<?xml version="1.0" encoding="utf-8"?>
<!-- Generator: Adobe Illustrator 24.2.1, SVG Export Plug-In . SVG Version: 6.00 Build 0)  -->
<svg version="1.1"
	 id="TEXT" inkscape:version="0.91 r13725" sodipodi:docname="system.svg" xmlns:cc="http://creativecommons.org/ns#" xmlns:dc="http://purl.org/dc/elements/1.1/" xmlns:inkscape="http://www.inkscape.org/namespaces/inkscape" xmlns:rdf="http://www.w3.org/1999/02/22-rdf-syntax-ns#" xmlns:sodipodi="http://sodipodi.sourceforge.net/DTD/sodipodi-0.dtd" xmlns:svg="http://www.w3.org/2000/svg"
	 xmlns="http://www.w3.org/2000/svg" xmlns:xlink="http://www.w3.org/1999/xlink" x="0px" y="0px" viewBox="0 0 471.22 134.49"
	 style="enable-background:new 0 0 471.22 134.49;" xml:space="preserve">
<style type="text/css">
	.st0{fill:url(#polygon5282_1_);}
	.st1{fill:url(#path5289_1_);}
	.st2{fill:url(#path5296_1_);}
	.st3{fill:url(#polygon5303_1_);}
	.st4{fill:url(#polygon5310_1_);}
	.st5{fill:url(#polygon5317_1_);}
	.st6{fill:url(#path5324_1_);}
	.st7{fill:url(#path5331_1_);}
	.st8{fill:url(#polygon5338_1_);}
	.st9{fill:url(#polygon5345_1_);}
	.st10{fill:url(#path5352_1_);}
	.st11{fill:url(#path5359_1_);}
	.st12{fill:url(#path5366_1_);}
	.st13{fill:url(#path5373_1_);}
	.st14{fill:url(#path5380_1_);}
	.st15{fill:url(#path5387_1_);}
	.st16{fill:url(#path5394_1_);}
	.st17{fill:url(#path5401_1_);}
	.st18{fill:url(#path5408_1_);}
	.st19{fill:url(#path5415_1_);}
	.st20{fill:url(#path5422_1_);}
	.st21{fill:url(#path5429_1_);}
	.st22{fill:url(#path5436_1_);}
	.st23{fill:url(#path5443_1_);}
	.st24{fill:url(#path5450_1_);}
	.st25{fill:url(#path5457_1_);}
	.st26{fill:url(#path5464_1_);}
	.st27{fill:url(#path5471_1_);}
	.st28{fill:url(#path5478_1_);}
	.st29{fill:url(#path5485_1_);}
	.st30{fill:url(#path5492_1_);}
	.st31{fill:url(#path5499_1_);}
	.st32{fill:url(#path5506_1_);}
	.st33{fill:url(#path5513_1_);}
	.st34{fill:url(#path5520_1_);}
	.st35{fill:url(#path5527_1_);}
	.st36{fill:url(#path5534_1_);}
	.st37{fill:url(#path5541_1_);}
</style>
<sodipodi:namedview  bordercolor="#666666" borderopacity="1" gridtolerance="10" guidetolerance="10" id="namedview5609" inkscape:current-layer="TEXT" inkscape:cx="283.46451" inkscape:cy="131.06138" inkscape:pageopacity="0" inkscape:pageshadow="2" inkscape:window-height="1137" inkscape:window-maximized="1" inkscape:window-width="1920" inkscape:window-x="-8" inkscape:window-y="-8" inkscape:zoom="2.3001116" objecttolerance="10" pagecolor="#ffffff" showgrid="false">
	</sodipodi:namedview>
<g id="g4338">
	<g id="g5615" transform="matrix(0.81874674,0,0,0.81874674,100.58394,26.423976)">
		
			<linearGradient id="polygon5282_1_" gradientUnits="userSpaceOnUse" x1="400.0322" y1="-1045.4288" x2="-146.3258" y2="-1045.4288" gradientTransform="matrix(0.8187 0 0 -0.8187 113.5307 -804.2052)">
			<stop  offset="0" style="stop-color:#013A67"/>
			<stop  offset="1" style="stop-color:#6CD1FF"/>
		</linearGradient>
		<polygon id="polygon5282" class="st0" points="238.59,22.61 228.73,23.77 228.73,-19.08 144.37,64.39 133.88,65.51 134.77,-20.37 
			61.04,54.49 51.36,54.54 50.23,-17.36 10.45,22.7 -0.62,23.27 -0.2,-19.51 -105.3,86.45 -70.68,85.88 -25.3,41.83 -16.59,41.83 
			-17.01,86.09 19.14,49.09 27.79,49.09 27.79,86.78 -12,126.28 26.13,125.72 101.14,49.85 111.25,49.85 111.25,87.12 158,87.4 
			203.22,41.9 211.95,41.34 211.81,84.35 247.95,48.22 256.48,48.22 257.05,84.65 256.31,86.55 365.48,86.55 386.39,65.37 
			318.5,64.21 317.89,54.36 328.46,43.22 354.07,43.22 376.32,20.68 362.88,20.12 362.88,10.63 374.3,-0.79 419.88,-0.5 
			441.06,-22.52 363.06,-22.81 289.77,50.77 279.51,51.33 279.79,-19.45 		"/>
		
			<linearGradient id="path5289_1_" gradientUnits="userSpaceOnUse" x1="-202.6204" y1="-1024.9" x2="-206.565" y2="-1020.9556" gradientTransform="matrix(0.8187 0 0 -0.8187 113.5307 -804.2052)">
			<stop  offset="0" style="stop-color:#08406F"/>
			<stop  offset="1" style="stop-color:#60C5F5"/>
		</linearGradient>
		<path id="path5289" inkscape:connector-curvature="0" class="st1" d="M-2.2-15.24L-103.32,85.88l-11.47,4.31
			c0,0-0.6,0.04-0.27-0.44c0,0,117.26-117.29,117.47-117.47c0.21-0.18,0.47-0.03,0.47-0.03S-2.2-15.24-2.2-15.24z"/>
		
			<linearGradient id="path5296_1_" gradientUnits="userSpaceOnUse" x1="-131.0645" y1="-1116.6509" x2="-134.69" y2="-1113.0254" gradientTransform="matrix(0.8187 0 0 -0.8187 113.5307 -804.2052)">
			<stop  offset="0" style="stop-color:#08406F"/>
			<stop  offset="1" style="stop-color:#60C5F5"/>
		</linearGradient>
		<path id="path5296" inkscape:connector-curvature="0" class="st2" d="M28.92,87.35L-8.6,124.87l-11.06,4.46
			c0,0-0.58,0.07-0.24-0.41l43.93-43.75L28.92,87.35L28.92,87.35z"/>
		
			<linearGradient id="polygon5303_1_" gradientUnits="userSpaceOnUse" x1="-250.2359" y1="-1092.397" x2="-250.2359" y2="-1088.084" gradientTransform="matrix(0.8187 0 0 -0.8187 113.5307 -804.2052)">
			<stop  offset="0" style="stop-color:#08406F"/>
			<stop  offset="1" style="stop-color:#60C5F5"/>
		</linearGradient>
		<polygon id="polygon5303" class="st3" points="-70.68,85.88 -67.91,90.19 -114.79,90.19 -103.29,85.88 		"/>
		
			<linearGradient id="polygon5310_1_" gradientUnits="userSpaceOnUse" x1="-133.6412" y1="-1140.1895" x2="-133.6412" y2="-1135.7324" gradientTransform="matrix(0.8187 0 0 -0.8187 113.5307 -804.2052)">
			<stop  offset="0" style="stop-color:#08406F"/>
			<stop  offset="1" style="stop-color:#60C5F5"/>
		</linearGradient>
		<polygon id="polygon5310" class="st4" points="25.27,124.86 27.89,129.32 -19.66,129.32 -8.6,124.86 		"/>
		
			<linearGradient id="polygon5317_1_" gradientUnits="userSpaceOnUse" x1="240.7223" y1="-1092.3628" x2="240.7223" y2="-1087.8958" gradientTransform="matrix(0.8187 0 0 -0.8187 113.5307 -804.2052)">
			<stop  offset="0" style="stop-color:#08406F"/>
			<stop  offset="1" style="stop-color:#60C5F5"/>
		</linearGradient>
		<polygon id="polygon5317" class="st5" points="364.64,85.7 367.89,90.16 253.35,90.13 257.16,85.7 		"/>
		
			<linearGradient id="path5324_1_" gradientUnits="userSpaceOnUse" x1="24.9902" y1="-1093.4266" x2="24.9902" y2="-1088.9476" gradientTransform="matrix(0.8187 0 0 -0.8187 113.5307 -804.2052)">
			<stop  offset="0" style="stop-color:#08406F"/>
			<stop  offset="1" style="stop-color:#60C5F5"/>
		</linearGradient>
		<path id="path5324" inkscape:connector-curvature="0" class="st6" d="M160.16,91.03l-51.53-0.03c-0.33,0-0.81-0.33-0.81-0.33
			l4.56-4.11h45.05L160.16,91.03L160.16,91.03z"/>
		
			<linearGradient id="path5331_1_" gradientUnits="userSpaceOnUse" x1="356.2476" y1="-955.7675" x2="356.2476" y2="-950.9044" gradientTransform="matrix(0.8187 0 0 -0.8187 113.5307 -804.2052)">
			<stop  offset="0" style="stop-color:#08406F"/>
			<stop  offset="1" style="stop-color:#60C5F5"/>
		</linearGradient>
		<path id="path5331" inkscape:connector-curvature="0" class="st7" d="M360.49-26.54h88.65c0.78,0,0.78,0.31,0.78,0.31l-10.57,4.55
			h-75.16L360.49-26.54L360.49-26.54z"/>
		
			<linearGradient id="polygon5338_1_" gradientUnits="userSpaceOnUse" x1="347.3718" y1="-985.7254" x2="347.3718" y2="-981.5154" gradientTransform="matrix(0.8187 0 0 -0.8187 113.5307 -804.2052)">
			<stop  offset="0" style="stop-color:#08406F"/>
			<stop  offset="1" style="stop-color:#60C5F5"/>
		</linearGradient>
		<polygon id="polygon5338" class="st8" points="419.03,-1.36 422.15,2.85 375.8,2.85 373.73,-1.36 		"/>
		
			<linearGradient id="polygon5345_1_" gradientUnits="userSpaceOnUse" x1="279.41" y1="-1038.8749" x2="279.41" y2="-1035.1549" gradientTransform="matrix(0.8187 0 0 -0.8187 113.5307 -804.2052)">
			<stop  offset="0" style="stop-color:#08406F"/>
			<stop  offset="1" style="stop-color:#60C5F5"/>
		</linearGradient>
		<polygon id="polygon5345" class="st9" points="353.51,42.65 356.7,46.37 332.02,46.37 327.9,42.65 		"/>
		
			<linearGradient id="path5352_1_" gradientUnits="userSpaceOnUse" x1="317.0175" y1="-1008.1939" x2="317.0175" y2="-1002.6395" gradientTransform="matrix(0.8187 0 0 -0.8187 113.5307 -804.2052)">
			<stop  offset="0" style="stop-color:#08406F"/>
			<stop  offset="1" style="stop-color:#60C5F5"/>
		</linearGradient>
		<path id="path5352" inkscape:connector-curvature="0" class="st10" d="M374.91,21.25h-13.58l-1.19-5.55h25.47
			c0.35-0.04,0.44,0.15,0.44,0.15L374.91,21.25z"/>
		
			<linearGradient id="path5359_1_" gradientUnits="userSpaceOnUse" x1="-190.7962" y1="-1061.5865" x2="-194.3392" y2="-1058.0435" gradientTransform="matrix(0.8187 0 0 -0.8187 113.5307 -804.2052)">
			<stop  offset="0" style="stop-color:#08406F"/>
			<stop  offset="1" style="stop-color:#60C5F5"/>
		</linearGradient>
		<path id="path5359" inkscape:connector-curvature="0" class="st11" d="M-20.02,42.18l-47.89,48.01l-2.77-4.31l46.6-46.36
			c2-2.31,4.68-1.73,4.68-1.73S-20.02,42.18-20.02,42.18z"/>
		
			<linearGradient id="path5366_1_" gradientUnits="userSpaceOnUse" x1="-134.7765" y1="-982.8607" x2="-140.1425" y2="-982.8607" gradientTransform="matrix(0.8187 0 0 -0.8187 113.5307 -804.2052)">
			<stop  offset="0" style="stop-color:#08406F"/>
			<stop  offset="1" style="stop-color:#60C5F5"/>
		</linearGradient>
		<path id="path5366" inkscape:connector-curvature="0" class="st12" d="M-2.18,23.22v-38.48l5.06-12.5c0,0,0.3,0.08,0.3,0.57
			c0,0.49,0,53.65,0,53.65l-0.32,2.31C2.87,28.77-1.63,28.8-2.18,23.22z"/>
		
			<linearGradient id="path5373_1_" gradientUnits="userSpaceOnUse" x1="-70.2559" y1="-1001.9033" x2="-76.9162" y2="-1001.9033" gradientTransform="matrix(0.8187 0 0 -0.8187 113.5307 -804.2052)">
			<stop  offset="0" style="stop-color:#08406F"/>
			<stop  offset="1" style="stop-color:#60C5F5"/>
		</linearGradient>
		<path id="path5373" inkscape:connector-curvature="0" class="st13" d="M56.01,60.39c0,0-6.54,1.95-6.62-5.63
			c-0.08-7.31-0.01-69.29-0.01-69.29l5.21-13.9c0,0,0.18-0.03,0.18,0.73L54.75,54.1L56.01,60.39L56.01,60.39z"/>
		
			<linearGradient id="path5380_1_" gradientUnits="userSpaceOnUse" x1="31.0049" y1="-1008.3225" x2="25.0119" y2="-1008.3225" gradientTransform="matrix(0.8187 0 0 -0.8187 113.5307 -804.2052)">
			<stop  offset="0" style="stop-color:#08406F"/>
			<stop  offset="1" style="stop-color:#60C5F5"/>
		</linearGradient>
		<path id="path5380" inkscape:connector-curvature="0" class="st14" d="M138.92,70.46c0,0-5.89,0.58-5.96-6.09l-0.03-80.06
			l4.65-12.07c0,0,0.58,0.15,0.58,0.91l-0.02,91.14L138.92,70.46L138.92,70.46z"/>
		
			<linearGradient id="path5387_1_" gradientUnits="userSpaceOnUse" x1="144.9448" y1="-983.1724" x2="139.2438" y2="-983.1724" gradientTransform="matrix(0.8187 0 0 -0.8187 113.5307 -804.2052)">
			<stop  offset="0" style="stop-color:#08406F"/>
			<stop  offset="1" style="stop-color:#60C5F5"/>
		</linearGradient>
		<path id="path5387" inkscape:connector-curvature="0" class="st15" d="M232.2,28.98c0,0-4.87,0.45-5.7-4.56v-39.72l4.39-12.15
			c0,0,0.56,0.13,0.56,0.89V23.1L232.2,28.98z"/>
		
			<linearGradient id="path5394_1_" gradientUnits="userSpaceOnUse" x1="208.0706" y1="-1000.0533" x2="202.2736" y2="-1000.0533" gradientTransform="matrix(0.8187 0 0 -0.8187 113.5307 -804.2052)">
			<stop  offset="0" style="stop-color:#08406F"/>
			<stop  offset="1" style="stop-color:#60C5F5"/>
		</linearGradient>
		<path id="path5394" inkscape:connector-curvature="0" class="st16" d="M283.89,56.88c0,0-4.94,0.64-5.8-4.37V-15.2l4.85-12.54
			c0,0,0.27,0.22,0.27,1.71v77.23L283.89,56.88z"/>
		
			<linearGradient id="path5401_1_" gradientUnits="userSpaceOnUse" x1="-157.3598" y1="-1061.7239" x2="-162.4707" y2="-1061.7239" gradientTransform="matrix(0.8187 0 0 -0.8187 113.5307 -804.2052)">
			<stop  offset="0" style="stop-color:#08406F"/>
			<stop  offset="1" style="stop-color:#60C5F5"/>
		</linearGradient>
		<path id="path5401" inkscape:connector-curvature="0" class="st17" d="M-19.13,92.37c0,0-0.83-0.07-0.81-1.15
			c0-0.92-0.08-49.04-0.08-49.04s-1.22-1.58,0.61-4.4c0.55,0.13,3.5,0.73,4.1,4.26v40.37C-15.31,82.41-19.13,92.37-19.13,92.37z"/>
		
			<linearGradient id="path5408_1_" gradientUnits="userSpaceOnUse" x1="-133.5629" y1="-1067.7081" x2="-137.116" y2="-1064.155" gradientTransform="matrix(0.8187 0 0 -0.8187 113.5307 -804.2052)">
			<stop  offset="0" style="stop-color:#08406F"/>
			<stop  offset="1" style="stop-color:#60C5F5"/>
		</linearGradient>
		<path id="path5408" inkscape:connector-curvature="0" class="st18" d="M23.95,50.15c0,0-41.49,41.55-41.88,41.94
			c-0.35,0.38-1.2,0.28-1.2,0.28l3.83-9.96l36.06-36.09c0,0,1.34-1.73,3.83-1.64L23.95,50.15z"/>
		
			<linearGradient id="path5415_1_" gradientUnits="userSpaceOnUse" x1="394.3019" y1="-968.3652" x2="390.6325" y2="-964.6956" gradientTransform="matrix(0.8187 0 0 -0.8187 113.5307 -804.2052)">
			<stop  offset="0" style="stop-color:#08406F"/>
			<stop  offset="1" style="stop-color:#60C5F5"/>
		</linearGradient>
		<path id="path5415" inkscape:connector-curvature="0" class="st19" d="M449.72-24.81L422.15,2.85l-3.12-4.21l20.31-20.32
			l10.58-4.54C449.93-26.22,450.28-25.38,449.72-24.81z"/>
		
			<linearGradient id="path5422_1_" gradientUnits="userSpaceOnUse" x1="-103.3394" y1="-1062.8726" x2="-108.7379" y2="-1062.8726" gradientTransform="matrix(0.8187 0 0 -0.8187 113.5307 -804.2052)">
			<stop  offset="0" style="stop-color:#08406F"/>
			<stop  offset="1" style="stop-color:#60C5F5"/>
		</linearGradient>
		<path id="path5422" inkscape:connector-curvature="0" class="st20" d="M24.03,85.17l-0.08-35.02c0,0-1.3-2.63,0.63-5.46
			c0.59-0.01,3.7,0.42,4.34,4.15l0,38.52L24.03,85.17z"/>
		
			<linearGradient id="path5429_1_" gradientUnits="userSpaceOnUse" x1="-99.9414" y1="-986.0859" x2="-104.4293" y2="-981.598" gradientTransform="matrix(0.8187 0 0 -0.8187 113.5307 -804.2052)">
			<stop  offset="0" style="stop-color:#08406F"/>
			<stop  offset="1" style="stop-color:#60C5F5"/>
		</linearGradient>
		<path id="path5429" inkscape:connector-curvature="0" class="st21" d="M49.38-14.52L7.91,26.94c-1.99,1.99-5.04,1.84-5.04,1.84
			c-1.79-3.53,0.32-6.06,0.32-6.06s50.5-50.49,50.87-50.87c0.33-0.42,0.54-0.26,0.54-0.26S49.38-14.52,49.38-14.52z"/>
		
			<linearGradient id="path5436_1_" gradientUnits="userSpaceOnUse" x1="-18.0248" y1="-1004.7872" x2="-22.1832" y2="-1000.6287" gradientTransform="matrix(0.8187 0 0 -0.8187 113.5307 -804.2052)">
			<stop  offset="0" style="stop-color:#08406F"/>
			<stop  offset="1" style="stop-color:#60C5F5"/>
		</linearGradient>
		<path id="path5436" inkscape:connector-curvature="0" class="st22" d="M132.92-15.69L58.55,58.69c-1.55,1.55-2.54,1.7-2.54,1.7
			c-3.78-1.88-1.21-6.25-1.21-6.25s80.65-80.63,81.02-81.01c0.94-1.09,1.76-0.88,1.76-0.88L132.92-15.69L132.92-15.69z"/>
		
			<linearGradient id="path5443_1_" gradientUnits="userSpaceOnUse" x1="90.0295" y1="-1011.4911" x2="85.6453" y2="-1007.1068" gradientTransform="matrix(0.8187 0 0 -0.8187 113.5307 -804.2052)">
			<stop  offset="0" style="stop-color:#08406F"/>
			<stop  offset="1" style="stop-color:#60C5F5"/>
		</linearGradient>
		<path id="path5443" inkscape:connector-curvature="0" class="st23" d="M226.5-15.31l-84.16,84.16c-1.43,1.43-3.42,1.61-3.42,1.61
			c-3.12-1.56-0.78-6.18-0.78-6.18s90.61-90.5,90.97-90.88c0.94-1.1,1.78-0.86,1.78-0.86L226.5-15.31L226.5-15.31z"/>
		
			<linearGradient id="path5450_1_" gradientUnits="userSpaceOnUse" x1="178.77" y1="-985.9041" x2="174.5621" y2="-981.6958" gradientTransform="matrix(0.8187 0 0 -0.8187 113.5307 -804.2052)">
			<stop  offset="0" style="stop-color:#08406F"/>
			<stop  offset="1" style="stop-color:#60C5F5"/>
		</linearGradient>
		<path id="path5450" inkscape:connector-curvature="0" class="st24" d="M278.09-15.2l-42.51,42.51c-1.43,1.43-3.37,1.66-3.37,1.66
			c-2.93-1.91-0.59-5.98-0.59-5.98s49.58-49.69,49.95-50.07c1.05-1.03,1.38-0.66,1.38-0.66S278.09-15.2,278.09-15.2z"/>
		
			<linearGradient id="path5457_1_" gradientUnits="userSpaceOnUse" x1="315.2795" y1="-1020.5956" x2="311.8225" y2="-1017.1389" gradientTransform="matrix(0.8187 0 0 -0.8187 113.5307 -804.2052)">
			<stop  offset="0" style="stop-color:#08406F"/>
			<stop  offset="1" style="stop-color:#60C5F5"/>
		</linearGradient>
		<path id="path5457" inkscape:connector-curvature="0" class="st25" d="M386.06,17L356.7,46.37l-3.19-3.72l21.4-21.4l11.13-5.4
			C386.04,15.85,386.46,16.14,386.06,17z"/>
		
			<linearGradient id="path5464_1_" gradientUnits="userSpaceOnUse" x1="328.8003" y1="-1074.4734" x2="324.84" y2="-1070.5132" gradientTransform="matrix(0.8187 0 0 -0.8187 113.5307 -804.2052)">
			<stop  offset="0" style="stop-color:#08406F"/>
			<stop  offset="1" style="stop-color:#60C5F5"/>
		</linearGradient>
		<path id="path5464" inkscape:connector-curvature="0" class="st26" d="M396.74,61.51l-28.85,28.65l-3.26-4.47l20.05-20.05
			l12.29-5.38C396.97,60.27,397.37,60.7,396.74,61.51z"/>
		
			<linearGradient id="path5471_1_" gradientUnits="userSpaceOnUse" x1="257.9954" y1="-1003.9236" x2="253.7124" y2="-999.6407" gradientTransform="matrix(0.8187 0 0 -0.8187 113.5307 -804.2052)">
			<stop  offset="0" style="stop-color:#08406F"/>
			<stop  offset="1" style="stop-color:#60C5F5"/>
		</linearGradient>
		<path id="path5471" inkscape:connector-curvature="0" class="st27" d="M364.19-21.67l-76.91,76.91c-1.43,1.43-3.39,1.64-3.39,1.64
			c-2.45-3.09-0.69-5.98-0.69-5.98l77.29-77.44C360.49-26.53,364.19-21.67,364.19-21.67z"/>
		
			<linearGradient id="path5478_1_" gradientUnits="userSpaceOnUse" x1="312.9851" y1="-997.8594" x2="307.8721" y2="-992.7463" gradientTransform="matrix(0.8187 0 0 -0.8187 113.5307 -804.2052)">
			<stop  offset="0" style="stop-color:#08406F"/>
			<stop  offset="1" style="stop-color:#60C5F5"/>
		</linearGradient>
		<path id="path5478" inkscape:connector-curvature="0" class="st28" d="M375.8,2.85l-12.68,12.79c-2.77,2.28-1.8,5.61-1.8,5.61
			c-2.25-0.21-3.13-2.06-3.41-3.69c-0.29-1.63,0.3-3.42,1.35-4.47l14.47-14.44L375.8,2.85z"/>
		
			<linearGradient id="path5485_1_" gradientUnits="userSpaceOnUse" x1="-54.5045" y1="-1090.2954" x2="-58.1475" y2="-1086.6525" gradientTransform="matrix(0.8187 0 0 -0.8187 113.5307 -804.2052)">
			<stop  offset="0" style="stop-color:#08406F"/>
			<stop  offset="1" style="stop-color:#60C5F5"/>
		</linearGradient>
		<path id="path5485" inkscape:connector-curvature="0" class="st29" d="M25.28,124.87l77.91-77.94c0,0,1.44-1.87,4.27-1.77
			L107,50.38c0,0-78.67,78.51-79.11,78.95L25.28,124.87L25.28,124.87z"/>
		
			<linearGradient id="path5492_1_" gradientUnits="userSpaceOnUse" x1="88.4582" y1="-1061.9702" x2="84.8169" y2="-1058.329" gradientTransform="matrix(0.8187 0 0 -0.8187 113.5307 -804.2052)">
			<stop  offset="0" style="stop-color:#08406F"/>
			<stop  offset="1" style="stop-color:#60C5F5"/>
		</linearGradient>
		<path id="path5492" inkscape:connector-curvature="0" class="st30" d="M157.44,86.55l47.64-47.66c0,0,1.44-1.87,4.27-1.77
			l-0.86,5.62l-48.32,48.29L157.44,86.55z"/>
		
			<linearGradient id="path5499_1_" gradientUnits="userSpaceOnUse" x1="145.6925" y1="-1066.7885" x2="142.183" y2="-1063.2789" gradientTransform="matrix(0.8187 0 0 -0.8187 113.5307 -804.2052)">
			<stop  offset="0" style="stop-color:#08406F"/>
			<stop  offset="1" style="stop-color:#60C5F5"/>
		</linearGradient>
		<path id="path5499" inkscape:connector-curvature="0" class="st31" d="M213.23,81.8l36.78-36.79c0.84-0.84,1.78-1.77,3.4-1.77
			l-0.11,5.5l-43.08,43.04c-0.57,0.56-1.02,0.4-1.02,0.4S213.23,81.8,213.23,81.8z"/>
		
			<linearGradient id="path5506_1_" gradientUnits="userSpaceOnUse" x1="171.2408" y1="-1091.8965" x2="166.8168" y2="-1087.4727" gradientTransform="matrix(0.8187 0 0 -0.8187 113.5307 -804.2052)">
			<stop  offset="0" style="stop-color:#08406F"/>
			<stop  offset="1" style="stop-color:#60C5F5"/>
		</linearGradient>
		<path id="path5506" inkscape:connector-curvature="0" class="st32" d="M245.09,89.61l7.25-7.28l5.56,2.33l-0.73,1.05l-3.81,4.44
			l-0.27,0.3h-7.72c-0.34,0.01-0.52-0.27-0.52-0.27S244.68,90.02,245.09,89.61z"/>
		
			<linearGradient id="path5513_1_" gradientUnits="userSpaceOnUse" x1="-1.3995" y1="-1065.1809" x2="-7.4375" y2="-1065.1809" gradientTransform="matrix(0.8187 0 0 -0.8187 113.5307 -804.2052)">
			<stop  offset="0" style="stop-color:#08406F"/>
			<stop  offset="1" style="stop-color:#60C5F5"/>
		</linearGradient>
		<path id="path5513" inkscape:connector-curvature="0" class="st33" d="M107.09,88.89L107,50.37c0,0-1.74-2.02,0.46-5.22
			c0.67-0.01,4.2,0.48,4.93,4.71l0,36.69l-4.56,4.11C107.82,90.67,107.09,90.19,107.09,88.89L107.09,88.89z"/>
		
			<linearGradient id="path5520_1_" gradientUnits="userSpaceOnUse" x1="121.7729" y1="-1061.2108" x2="116.5605" y2="-1061.2108" gradientTransform="matrix(0.8187 0 0 -0.8187 113.5307 -804.2052)">
			<stop  offset="0" style="stop-color:#08406F"/>
			<stop  offset="1" style="stop-color:#60C5F5"/>
		</linearGradient>
		<path id="path5520" inkscape:connector-curvature="0" class="st34" d="M208.56,91.5l-0.08-48.75c0,0-1.47-2.68,0.87-5.62
			c0.6-0.01,3.24,0.47,3.88,4.7V81.8l-4.03,10.39C209.2,92.19,208.6,92.05,208.56,91.5L208.56,91.5z"/>
		
			<linearGradient id="path5527_1_" gradientUnits="userSpaceOnUse" x1="176.3257" y1="-1060.3412" x2="170.0812" y2="-1060.3412" gradientTransform="matrix(0.8187 0 0 -0.8187 113.5307 -804.2052)">
			<stop  offset="0" style="stop-color:#08406F"/>
			<stop  offset="1" style="stop-color:#60C5F5"/>
		</linearGradient>
		<path id="path5527" inkscape:connector-curvature="0" class="st35" d="M252.34,82.33V49.7c0,0-2.11-3.38,1.06-6.46
			c0.69-0.01,4.13,0.24,4.49,4.32v37.09L252.34,82.33z"/>
		
			<linearGradient id="path5534_1_" gradientUnits="userSpaceOnUse" x1="256.5316" y1="-1050.4103" x2="252.1131" y2="-1045.9918" gradientTransform="matrix(0.8187 0 0 -0.8187 113.5307 -804.2052)">
			<stop  offset="0" style="stop-color:#08406F"/>
			<stop  offset="1" style="stop-color:#60C5F5"/>
		</linearGradient>
		<path id="path5534" inkscape:connector-curvature="0" class="st36" d="M332.02,46.37l-13.45,13.48l-3.84,4.81
			c-3.9-2.46-1.95-6.87-0.91-7.92l14.09-14.08L332.02,46.37L332.02,46.37z"/>
		
			<linearGradient id="path5541_1_" gradientUnits="userSpaceOnUse" x1="295.9609" y1="-1062.4207" x2="295.9609" y2="-1056.6196" gradientTransform="matrix(0.8187 0 0 -0.8187 113.5307 -804.2052)">
			<stop  offset="0" style="stop-color:#08406F"/>
			<stop  offset="1" style="stop-color:#60C5F5"/>
		</linearGradient>
		<path id="path5541" inkscape:connector-curvature="0" class="st37" d="M384.69,65.65H318.3c-2.5-0.2-3.57-0.99-3.57-0.99
			c-0.01-3.57,3.84-4.81,3.84-4.81l77.75,0c0.54,0,0.66,0.42,0.66,0.42L384.69,65.65L384.69,65.65z"/>
		<g id="g5543">
			<path id="path5545" inkscape:connector-curvature="0" d="M-116.89,113.61v-9.52h2.88l1.73,6.49l1.71-6.49h2.88v9.52h-1.78v-7.5
				l-1.89,7.5h-1.85l-1.88-7.5v7.5C-115.11,113.61-116.89,113.61-116.89,113.61z"/>
			<path id="path5547" inkscape:connector-curvature="0" d="M-99.67,104.08h1.92v5.15c0,0.82,0.02,1.35,0.07,1.59
				c0.08,0.39,0.28,0.7,0.59,0.94c0.31,0.24,0.73,0.35,1.27,0.35c0.54,0,0.96-0.11,1.23-0.33c0.28-0.22,0.44-0.5,0.5-0.82
				c0.06-0.32,0.08-0.86,0.08-1.62v-5.27h1.92v5c0,1.14-0.05,1.95-0.15,2.42c-0.1,0.47-0.3,0.87-0.58,1.19
				c-0.28,0.32-0.65,0.58-1.12,0.77c-0.47,0.19-1.08,0.29-1.83,0.29c-0.91,0-1.6-0.1-2.07-0.31c-0.47-0.21-0.84-0.48-1.11-0.82
				c-0.27-0.34-0.45-0.69-0.54-1.06c-0.13-0.54-0.19-1.35-0.19-2.42C-99.67,109.16-99.67,104.08-99.67,104.08z"/>
			<path id="path5549" inkscape:connector-curvature="0" d="M-83.87,113.61v-9.44h1.92V112h4.78v1.6L-83.87,113.61L-83.87,113.61z"
				/>
			<path id="path5551" inkscape:connector-curvature="0" d="M-68.51,113.61v-7.91h-2.83v-1.61h7.57v1.61h-2.82v7.91H-68.51z"/>
			<path id="path5553" inkscape:connector-curvature="0" d="M-56.46,113.61v-9.52h1.92v9.52H-56.46z"/>
			<path id="path5555" inkscape:connector-curvature="0" d="M-46.57,113.61v-9.52h3.08c1.17,0,1.93,0.05,2.29,0.14
				c0.54,0.15,1,0.45,1.37,0.93c0.37,0.48,0.55,1.1,0.55,1.85c0,0.58-0.11,1.07-0.32,1.48c-0.21,0.4-0.48,0.71-0.81,0.94
				c-0.33,0.23-0.66,0.38-1,0.45c-0.46,0.09-1.12,0.14-1.99,0.14h-1.25v3.59L-46.57,113.61C-46.57,113.61-46.57,113.61-46.57,113.61
				z M-44.65,105.7v2.7h1.05c0.76,0,1.26-0.05,1.52-0.15c0.26-0.1,0.46-0.25,0.6-0.47s0.22-0.46,0.22-0.74
				c0-0.35-0.1-0.63-0.31-0.86c-0.2-0.23-0.46-0.36-0.77-0.42c-0.23-0.04-0.69-0.06-1.38-0.06L-44.65,105.7
				C-44.65,105.7-44.65,105.7-44.65,105.7z"/>
			<path id="path5557" inkscape:connector-curvature="0" d="M-31.52,113.61v-9.44h1.92V112h4.78v1.6L-31.52,113.61
				C-31.52,113.61-31.52,113.61-31.52,113.61z"/>
			<path id="path5559" inkscape:connector-curvature="0" d="M-17.31,113.61v-9.52h7.06v1.61h-5.14v2.11h4.78v1.6h-4.78V112h5.32v1.6
				L-17.31,113.61L-17.31,113.61z"/>
		</g>
		<g id="g5561">
			<path id="path5563" inkscape:connector-curvature="0" d="M73.07,113.61h-2.09l-0.83-2.16h-3.81l-0.79,2.16h-2.04l3.71-9.52h2.03
				L73.07,113.61z M69.53,109.84l-1.31-3.53l-1.29,3.53H69.53z"/>
			<path id="path5565" inkscape:connector-curvature="0" d="M80.23,113.61v-9.52h4.05c1.02,0,1.76,0.09,2.22,0.26
				c0.46,0.17,0.83,0.48,1.11,0.91c0.28,0.44,0.42,0.94,0.42,1.5c0,0.71-0.21,1.3-0.63,1.77c-0.42,0.46-1.05,0.76-1.88,0.88
				c0.42,0.24,0.76,0.51,1.03,0.8c0.27,0.29,0.63,0.81,1.09,1.55l1.16,1.86h-2.3l-1.39-2.07c-0.49-0.74-0.83-1.21-1.01-1.4
				c-0.18-0.19-0.38-0.32-0.58-0.4c-0.2-0.07-0.53-0.1-0.97-0.1h-0.39v3.98L80.23,113.61L80.23,113.61z M82.15,108.11h1.42
				c0.92,0,1.5-0.04,1.73-0.12c0.23-0.08,0.41-0.21,0.54-0.4c0.13-0.19,0.2-0.43,0.2-0.71c0-0.32-0.09-0.58-0.26-0.78
				c-0.17-0.19-0.41-0.32-0.72-0.37c-0.16-0.02-0.62-0.03-1.4-0.03h-1.5L82.15,108.11L82.15,108.11L82.15,108.11z"/>
			<path id="path5567" inkscape:connector-curvature="0" d="M102.05,110.1l1.86,0.59c-0.29,1.04-0.76,1.81-1.43,2.31
				c-0.66,0.5-1.51,0.76-2.53,0.76c-1.26,0-2.3-0.43-3.12-1.3c-0.81-0.86-1.22-2.04-1.22-3.54c0-1.59,0.41-2.81,1.23-3.69
				c0.82-0.88,1.89-1.31,3.23-1.31c1.16,0,2.11,0.34,2.84,1.03c0.43,0.41,0.76,0.99,0.97,1.75l-1.9,0.45
				c-0.11-0.49-0.35-0.88-0.71-1.17c-0.36-0.28-0.79-0.43-1.3-0.43c-0.71,0-1.28,0.25-1.72,0.76c-0.44,0.51-0.66,1.33-0.66,2.46
				c0,1.2,0.22,2.06,0.65,2.57c0.43,0.51,1,0.77,1.69,0.77c0.51,0,0.95-0.16,1.32-0.49C101.63,111.31,101.89,110.8,102.05,110.1
				L102.05,110.1z"/>
			<path id="path5569" inkscape:connector-curvature="0" d="M120.28,113.61h-2.09l-0.83-2.16h-3.81l-0.79,2.16h-2.04l3.71-9.52h2.03
				L120.28,113.61z M116.74,109.84l-1.31-3.53l-1.29,3.53H116.74z"/>
			<path id="path5571" inkscape:connector-curvature="0" d="M127.43,104.08h3.51c0.79,0,1.4,0.06,1.81,0.18
				c0.56,0.16,1.04,0.46,1.43,0.88c0.4,0.42,0.7,0.94,0.91,1.54c0.21,0.61,0.31,1.36,0.31,2.25c0,0.78-0.1,1.46-0.29,2.02
				c-0.24,0.69-0.58,1.25-1.02,1.68c-0.33,0.32-0.78,0.58-1.35,0.76c-0.42,0.14-0.99,0.2-1.7,0.2h-3.62L127.43,104.08L127.43,104.08
				L127.43,104.08L127.43,104.08z M129.35,105.7V112h1.43c0.54,0,0.92-0.03,1.16-0.09c0.31-0.08,0.57-0.21,0.78-0.4
				c0.21-0.19,0.37-0.49,0.5-0.92c0.13-0.43,0.2-1.01,0.2-1.74c0-0.73-0.07-1.3-0.2-1.69c-0.13-0.4-0.31-0.7-0.54-0.92
				c-0.23-0.22-0.53-0.37-0.89-0.45c-0.27-0.06-0.79-0.09-1.58-0.09L129.35,105.7L129.35,105.7L129.35,105.7z"/>
			<path id="path5573" inkscape:connector-curvature="0" d="M143.17,113.61v-9.52h7.06v1.61h-5.14v2.11h4.78v1.6h-4.78V112h5.32v1.6
				L143.17,113.61L143.17,113.61z"/>
		</g>
		<g id="g5575">
			<path id="path5577" inkscape:connector-curvature="0" d="M166.29,113.61v-9.52h2.88l1.73,6.49l1.71-6.49h2.88v9.52h-1.79v-7.5
				l-1.89,7.5h-1.85l-1.89-7.5v7.5H166.29L166.29,113.61z"/>
			<path id="path5579" inkscape:connector-curvature="0" d="M192.11,113.61h-2.09l-0.83-2.16h-3.81l-0.78,2.16h-2.04l3.71-9.52h2.03
				L192.11,113.61z M188.57,109.84l-1.31-3.53l-1.29,3.53H188.57z"/>
			<path id="path5581" inkscape:connector-curvature="0" d="M205.35,110.1l1.86,0.59c-0.29,1.04-0.76,1.81-1.42,2.31
				c-0.67,0.51-1.51,0.76-2.53,0.76c-1.26,0-2.3-0.43-3.11-1.3c-0.81-0.86-1.22-2.04-1.22-3.54c0-1.59,0.41-2.81,1.23-3.69
				c0.82-0.88,1.9-1.31,3.23-1.31c1.17,0,2.11,0.34,2.84,1.03c0.43,0.41,0.76,0.99,0.98,1.75l-1.9,0.45
				c-0.11-0.49-0.35-0.88-0.7-1.17c-0.36-0.28-0.79-0.43-1.3-0.43c-0.7,0-1.28,0.25-1.72,0.76c-0.44,0.51-0.66,1.33-0.66,2.46
				c0,1.2,0.22,2.06,0.65,2.57c0.43,0.51,0.99,0.77,1.69,0.77c0.51,0,0.95-0.16,1.31-0.49C204.93,111.31,205.19,110.8,205.35,110.1
				L205.35,110.1z"/>
			<path id="path5583" inkscape:connector-curvature="0" d="M215,113.61v-9.52h1.92v3.75h3.77v-3.75h1.92v9.52h-1.92v-4.16h-3.77
				v4.16H215z"/>
			<path id="path5585" inkscape:connector-curvature="0" d="M230.68,113.61v-9.52h1.92v9.52H230.68z"/>
			<path id="path5587" inkscape:connector-curvature="0" d="M240.58,113.61v-9.52h1.87l3.9,6.36v-6.36h1.79v9.52h-1.93l-3.84-6.21
				v6.21H240.58L240.58,113.61z"/>
			<path id="path5589" inkscape:connector-curvature="0" d="M256.3,113.61v-9.52h7.06v1.61h-5.14v2.11H263v1.6h-4.78V112h5.32v1.6
				L256.3,113.61L256.3,113.61z"/>
		</g>
		<g id="g5591">
			<path id="path5593" inkscape:connector-curvature="0" d="M280.2,113.61v-9.52h7.06v1.61h-5.14v2.11h4.78v1.6h-4.78V112h5.32v1.6
				L280.2,113.61L280.2,113.61z"/>
			<path id="path5595" inkscape:connector-curvature="0" d="M295.18,113.61v-9.52h2.88l1.73,6.49l1.71-6.49h2.88v9.52h-1.78v-7.5
				l-1.89,7.5h-1.85l-1.88-7.5v7.5H295.18L295.18,113.61z"/>
			<path id="path5597" inkscape:connector-curvature="0" d="M312.4,104.08h1.92v5.15c0,0.82,0.02,1.35,0.07,1.59
				c0.08,0.39,0.27,0.7,0.59,0.94c0.31,0.24,0.73,0.35,1.27,0.35c0.55,0,0.96-0.11,1.23-0.33c0.28-0.22,0.44-0.5,0.5-0.82
				c0.06-0.32,0.08-0.86,0.08-1.62v-5.27h1.92v5c0,1.14-0.05,1.95-0.16,2.42c-0.1,0.47-0.3,0.87-0.57,1.19
				c-0.28,0.32-0.65,0.58-1.12,0.77c-0.47,0.19-1.08,0.29-1.83,0.29c-0.91,0-1.6-0.1-2.07-0.31c-0.47-0.21-0.84-0.48-1.11-0.82
				c-0.27-0.34-0.45-0.69-0.54-1.06c-0.13-0.54-0.19-1.35-0.19-2.42L312.4,104.08L312.4,104.08L312.4,104.08L312.4,104.08z"/>
			<path id="path5599" inkscape:connector-curvature="0" d="M328.2,113.61v-9.44h1.92V112h4.78v1.6L328.2,113.61L328.2,113.61z"/>
			<path id="path5601" inkscape:connector-curvature="0" d="M350.99,113.61h-2.09l-0.83-2.16h-3.81l-0.79,2.16h-2.04l3.71-9.52h2.03
				L350.99,113.61L350.99,113.61z M347.45,109.84l-1.31-3.53l-1.29,3.53H347.45z"/>
			<path id="path5603" inkscape:connector-curvature="0" d="M359.3,113.61v-7.91h-2.83v-1.61h7.56v1.61h-2.82v7.91H359.3z"/>
			<path id="path5605" inkscape:connector-curvature="0" d="M370.78,108.9c0-0.97,0.15-1.78,0.44-2.44
				c0.21-0.48,0.51-0.92,0.89-1.31c0.38-0.39,0.79-0.67,1.23-0.85c0.59-0.25,1.28-0.38,2.05-0.38c1.4,0,2.52,0.44,3.37,1.3
				c0.84,0.87,1.26,2.08,1.26,3.63c0,1.54-0.42,2.74-1.25,3.6c-0.84,0.87-1.95,1.3-3.35,1.3c-1.42,0-2.54-0.43-3.38-1.3
				C371.2,111.61,370.78,110.42,370.78,108.9L370.78,108.9z M372.76,108.84c0,1.08,0.25,1.9,0.75,2.45c0.5,0.56,1.13,0.83,1.9,0.83
				c0.77,0,1.4-0.27,1.89-0.82c0.49-0.55,0.74-1.38,0.74-2.49c0-1.09-0.24-1.9-0.72-2.44c-0.48-0.54-1.11-0.8-1.91-0.8
				s-1.43,0.27-1.92,0.81C373,106.92,372.76,107.74,372.76,108.84L372.76,108.84z"/>
			<path id="path5607" inkscape:connector-curvature="0" d="M387.65,113.61v-9.52h4.05c1.02,0,1.76,0.09,2.22,0.26
				c0.46,0.17,0.83,0.48,1.11,0.91c0.28,0.44,0.42,0.94,0.42,1.5c0,0.71-0.21,1.3-0.63,1.77c-0.42,0.46-1.05,0.76-1.88,0.88
				c0.42,0.24,0.76,0.51,1.02,0.8c0.27,0.29,0.64,0.81,1.1,1.55l1.16,1.86h-2.3l-1.39-2.07c-0.49-0.74-0.83-1.21-1.01-1.4
				c-0.19-0.19-0.38-0.32-0.58-0.4c-0.2-0.07-0.52-0.1-0.97-0.1h-0.39v3.98L387.65,113.61L387.65,113.61L387.65,113.61
				L387.65,113.61L387.65,113.61L387.65,113.61z M389.57,108.11H391c0.92,0,1.5-0.04,1.73-0.12c0.23-0.08,0.41-0.21,0.54-0.4
				c0.13-0.19,0.19-0.43,0.19-0.71c0-0.32-0.09-0.58-0.26-0.78c-0.17-0.19-0.41-0.32-0.72-0.37c-0.16-0.02-0.62-0.03-1.4-0.03h-1.5
				L389.57,108.11L389.57,108.11L389.57,108.11z"/>
		</g>
	</g>
</g>
</svg>
