<?xml version="1.0" encoding="utf-8"?>
<!-- Generator: Adobe Illustrator 24.2.1, SVG Export Plug-In . SVG Version: 6.00 Build 0)  -->
<svg version="1.1" id="Layer_1" xmlns="http://www.w3.org/2000/svg" xmlns:xlink="http://www.w3.org/1999/xlink" x="0px" y="0px"
	 viewBox="0 0 694.49 198.43" style="enable-background:new 0 0 694.49 198.43;" xml:space="preserve">
<style type="text/css">
	.st0{fill:#050606;}
	.st1{filter:url(#AI_GaussianBlur_7);}
	.st2{fill:#3BB54A;}
	.st3{fill:#1A6936;}
	.st4{fill:#010101;}
	.st5{fill:#BE7D2A;}
	.st6{fill:#DEBE24;}
	.st7{fill:#F8ED2F;}
	.st8{fill:#E8D21B;}
	.st9{fill:#AED136;}
	.st10{fill:#5D9F43;}
	.st11{fill:#81C341;}
	.st12{fill:#B4D334;}
	.st13{fill:#F6EB16;}
	.st14{fill:#82C341;}
	.st15{fill:#75B843;}
	.st16{fill:#4A833D;}
	.st17{fill:#EE4893;}
	.st18{opacity:0.54;fill:#1A2212;enable-background:new    ;}
	.st19{opacity:0.39;fill:#283719;enable-background:new    ;}
	.st20{fill:#ED1D5F;}
	.st21{fill:#CD1D57;}
	.st22{fill:url(#SVGID_1_);}
	.st23{fill:url(#SVGID_2_);}
	.st24{fill:url(#SVGID_3_);}
	.st25{fill:url(#SVGID_4_);}
	.st26{fill:url(#SVGID_5_);}
	.st27{fill:url(#SVGID_6_);}
	.st28{fill:url(#SVGID_7_);}
	.st29{fill:url(#SVGID_8_);}
</style>
<filter  id="AI_GaussianBlur_7">
	<feGaussianBlur  stdDeviation="7"></feGaussianBlur>
</filter>
<g id="Black">
	<rect class="st0" width="694.49" height="198.43"/>
</g>
<g id="Glows" class="st1">
	<g>
		<path class="st2" d="M631.72,164.54c-4.86-1.55-6.33-4.98-6.77-6.88c-0.38-1.64-2.08-9.71-3.55-11.61
			c-1.36-5.04-13.64-6.93-13.64-6.93s-6.57,3.3-12.17,1.73c-0.14,0-6.57,4.62-10.43,6.43c-4.07,1.85-26.13,6.68-34.36,6.71
			c-0.06,0-0.13,0-0.2,0c-6.86-0.15-13.9-0.3-21.02-1.58c-4.92-0.83-9.84-2.26-14.71-4.25c-1.39,4.15-5.59,5.32-7.05,5.72
			c-2.77,0.77-7.06,1.5-10.15,1.93c-5.76,0.8-10.31,1.43-13.55-2.34c-2.65-3.01-2.91-6.68-3.04-8.45c-0.01-0.12,0.98-11.22,3.3-15.8
			c0.78-1.57,1.73-3.1,2.82-4.57c-3.35-7.59-1.43-17.66-1.43-17.66c0.42-3.36,4.41-10.28,4.55-10.48c0.77-1.13,2.01-2.94,4.12-4.35
			l0.15-0.13c1.12-0.92,21.24-15.17,21.24-15.17s-10.25-14.77-13.56-17.3c-2.39-1.84-4.93-3.15-7.49-3.88
			c-0.06,2.44-0.76,4.9-2.12,7.06c-2.71,4.42-7.58,7.53-12.97,8.24c-4.8,0.68-9.79-1.09-12.94-4.63c-3.65-4.03-4.22-9.29-4.4-11.01
			c-0.03-0.28-0.02-4.36,0.04-4.76c0.67-4.46,3.07-8.43,6.57-10.89c4.94-3.52,10.55-4.17,15.4-4.33c0.12,0,11.44,0.77,16.5,2.31
			c0.05,0.02,0.11,0.03,0.16,0.05c6.72,2.2,12.86,6.4,19.31,13.23c4.28,4.61,8.16,9.89,11.61,15.76c5.69-3.16,11.41-5.92,17.11-8.23
			c6.15-10.42,12.34-18.18,19.34-24.26c4.59-3.92,9-6.59,13.52-8.22c5.04-1.75,18.85-2.55,19.04-2.54
			c4.78,0.35,11.74,1.4,17.06,6.37c4.07,3.73,6.18,9.35,5.79,15.42c-0.11,1.76-0.33,3.93-0.9,6.21c5.91,1.5,11.46,3.56,16.59,6.16
			c5.7,2.91,10.54,6.38,14.41,10.33c4.57,4.76,7.41,9.81,8.49,15.07c0.67,3.08,1.23,17.54-0.67,23.3c-0.93,2.87-4.07,6.6-7.65,10.15
			c0.73,0.49,9.22,8.59,10.86,12.8c1.15,2.94,3.1,11.78-1.15,17.02c-0.68,0.84-1.21,1.49-12.75,9.56
			C639.13,164.18,632.51,164.8,631.72,164.54z M631.47,149.79L631.47,149.79L631.47,149.79z M652.29,135.26L652.29,135.26
			L652.29,135.26z M646.84,100.62L646.84,100.62L646.84,100.62z M479.08,54.3c0,0,0,0.01-0.01,0.01
			C479.08,54.31,479.08,54.31,479.08,54.3z M606.42,49.79C606.42,49.8,606.42,49.8,606.42,49.79
			C606.42,49.8,606.42,49.8,606.42,49.79z M606.82,49.39L606.82,49.39L606.82,49.39z"/>
	</g>
	<g>
		<path class="st3" d="M110.31,85.55c-4.14-1.97-6.74-1.12-11.99-1.16c-2.88,0.08-5.04,0.13-6.49,0.16
			c-14.26,0.16-42.17,0.18-55.36-0.28c-4.46,0.03-10.16,1.55-10.06,6.81c0,2.7,1.21,4.94,3.61,6.64c2.03,1.45,4.79,2.98,8.2,4.55
			c-5.79,14.68-9.3,31.2-6.34,45.22c1.79,4.29,4.36,3.46,9.08,3.65c5.09-0.02,5.72,0.54,9.65-0.6c1.78-0.56,2.58-1.44,2.89-2.3
			c0.76,1.85,4.7,2.93,6.43,2.91h15.06c1.72,0.07,5.9-0.98,6.43-2.77c0.36,0.73,1.14,1.49,2.72,2.05
			c1.69,0.61,15.31,0.81,15.44,0.81c3.06,0,4.51-1.64,5.2-3.04c0.68-1.44,0.99-3.89,0.99-7.69c0.06-5.45-0.13-9.28-1.05-16.41
			c-1.19-9.43-2.09-13.09-3.99-20.36c4.04-1.91,7.84-4.03,10.5-7.57C113.71,92.99,114.62,87.61,110.31,85.55z M102.05,93.33
			c-0.03,1.23-1.12,2.35-3.24,3.33c-0.3-0.87-1.15-3.41-1.11-3.39C97.85,93.18,101.9,93.23,102.05,93.33z M39.26,93.37
			c-0.02-0.56,2.53-0.58,3.23-0.47c-0.19,0.38-0.96,1.97-1.24,2.56C40.17,94.7,39.26,93.57,39.26,93.37z M55.97,92.96
			c2.05-0.15,4.71,1.17,4.45,8.32c-3.88-0.42-8.26-1.24-11.57-2.3C50.99,95.01,53.41,92.95,55.97,92.96z M74.67,100.05
			c0-4.71,1.01-7.1,3.01-7.1c1.65,0,3.15,0.81,4.48,2.39c1.42,1.7,2.5,3.53,3.22,5.44c-2.65,0.55-6.24,0.86-10.71,0.92
			C74.67,101.7,74.67,100.05,74.67,100.05z M53.4,146.13c-0.31-0.57-0.88-1.17-1.77-1.85l-5.03-3.57c-2.17-1.55-2.98-1.92-3.85-4.25
			c-2.49-7.47-1.43-14.19,0.59-23.16c0.76-2.89,1.69-5.71,2.79-8.43c4.97,1.44,9.75,2.42,14.29,2.92v30.72
			c0,0.65-0.19,1.17-0.59,1.64C58.28,142.17,54.15,143.72,53.4,146.13z M81.41,146.19c-0.73-1.77-4.99-4.5-6.22-5.89
			c-0.23-0.27-0.51-0.65-0.51-1v-31.14c3.95-0.06,8.85-0.4,12.72-1.17c3.01,10.35,4.47,21.02,3.39,30.41
			c-0.12,0.63-0.72,1.74-0.82,1.84c-0.12,0.12-1.68,1.23-2.23,1.58C83.62,143.56,81.97,145.07,81.41,146.19z"/>
		<path class="st3" d="M158.4,130.7c-0.41-0.16-0.87-0.12-1.25,0.09c-0.38,0.21-0.66,0.58-0.74,1.01c-0.42,2.05-1.6,3.38-3.7,4.2
			c-2.38,0.92-5.07,1.39-8.01,1.39c-2.83,0-5.75-0.61-8.71-1.8c0.34-1.54,0.89-2.74,1.63-3.58c2.2-2.46,5.2-4.6,8.93-6.36
			c0,0,11.41-6.17,12.58-7.29c3.02-2.98,4.55-6.16,4.55-9.46c0-2.04-0.88-3.77-2.55-5c-1.46-1.08-5.57-2.79-10.54-2.79h-10.4
			c-6.34,0-11.41,1.65-15.09,4.9c-2.1,1.89-6.02,7.37-8.03,15.37c-0.57,2.9-0.86,5.9-0.86,8.93c0,3.51,2.87,14.13,8.84,19.13
			c2.91,2.29,6.29,3.46,10.03,3.46c0.29,0,15.64,0.1,15.81,0.1c2.43,0,4.73-0.61,6.84-1.81c2.1-1.2,3.82-2.88,5.09-5
			c1.28-2.13,1.94-4.52,1.94-7.13C164.67,135.11,162.46,132.23,158.4,130.7z M139.14,120.5c-2.3,1.31-4.36,2.87-6.15,4.66
			c-1.19,1.25-2.2,2.73-3.01,4.43c-0.73-2.1-1.09-4.21-1.09-6.3c0-4.82,1.16-8.67,3.49-11.47c1.61-2.06,4.64-3.11,8.99-3.11
			c2.35,0,4.37,0.35,5.98,1.05c1.27,0.55,1.81,1.37,1.81,2.75c0,1.12-0.28,1.92-0.86,2.43C147.48,115.67,139.14,120.5,139.14,120.5z
			"/>
		<path class="st3" d="M214.76,141.78l-0.54-0.28V86.01c0-0.45,0-1.81-1.01-2.54c-0.53-0.38-1.27-0.56-2.32-0.56h-9.61
			c-2.58,0-7.96,0-7.96,3.19c0,1.54,0.72,2.78,1.98,3.47c0,0,4.44,2.6,4.55,2.68c0.01,0.07,0.03,10.86,0.03,10.86
			c-0.03-0.01-0.05-0.02-0.06-0.03l-2.77-1.38c-2.48-1.23-5.69-1.85-9.52-1.85c-4.84,0-8.9,1.6-12.06,4.76
			c-3.05,3.04-5.27,6.68-6.6,10.81c-1.31,4.06-1.98,7.77-1.98,11.02c0,6.87,1.7,12.88,5.06,17.9c3.65,5.23,11.14,7.88,17.01,7.88
			s11.37-0.8,11.37-0.8s6.8,0.61,10.01,0.61c3.21,0,4.88-0.62,7.45-1.84c0.06-0.03,0.12-0.06,0.18-0.1
			c1.13-0.74,2.42-1.75,2.42-3.12c0-0.06,0-0.13-0.01-0.19C220.18,145.32,218.57,143.88,214.76,141.78z M199.88,111.9v19.2
			c0,2.31-0.36,3.52-0.66,4.13c-0.35,0.7-1.76,0.81-2.56,0.81c-0.19,0-7.28,0-8.17,0c-2.48,0-4.37-1.17-5.79-3.56
			c-1.55-2.62-2.34-5.71-2.34-9.19c0-3.79,0.83-7.32,2.46-10.49c1.5-2.92,3.78-4.45,6.96-4.68
			C194.48,108.11,198.57,111.32,199.88,111.9z"/>
		<path class="st3" d="M273.08,143.62c-0.47-0.31-2.93-1.66-3.09-1.76v-27.73c0-2.68-0.54-5.06-1.61-7.07
			c-1.1-2.06-2.7-3.67-4.76-4.78c-2.02-1.09-4.37-1.64-6.99-1.64c-3.65,0-7.19,1.39-10.53,4.11c0.01-0.1,0.62-3.55-5.87-3.55h-11.5
			c-1.99,0-6.65,0-6.65,2.95c0,0.95,0.35,1.78,1.01,2.39c0.43,0.4,3.32,2.34,3.68,2.73c0.2,0.21,0.28,32.65,0.28,32.65
			c-0.15,0.09-3.6,2.05-4.15,2.53c-0.8,0.7-1.21,1.48-1.21,2.32c0,0.84,0.37,2.04,2.15,2.97c2.16,1.13,4.22,1.71,6.14,1.71h8.59
			c1.89,0,3.98-0.57,6.21-1.7c0.03-0.02,0.07-0.04,0.1-0.06c1.33-0.81,2-1.79,2-2.92c0-2.69-5.2-4.76-5.38-4.87v-25.53
			c0,0,8.88-3.48,10.13-3.48c1.92,0,3.87,0.58,3.87,4.9v24.12c-0.2,0.13-3.56,2.08-4.08,2.55c-0.78,0.69-1.18,1.47-1.18,2.3
			c0,0.82,0.37,2.01,2.15,2.97c2.16,1.13,4.19,1.71,6.04,1.71h8.69c1.89,0,3.92-0.58,6.05-1.71c0.04-0.02,0.09-0.05,0.13-0.08
			c0.5-0.34,2.04-1.36,2.04-2.89C275.37,146.1,273.63,143.98,273.08,143.62z"/>
		<path class="st3" d="M325.95,141.91v-27.66c0-4.12-1.44-7.23-4.29-9.25c-2.68-1.9-6.15-2.87-10.38-2.87h-0.01
			c0,0-17.9,0.28-18.71,0.27c-3.25,0-6.22,0.47-8.82,1.41c-3.86,1.38-4.67,4.19-4.67,6.29c0,2.94,1.43,5.2,4.13,6.54
			c2.4,1.19,5.28,1.79,8.57,1.79c1.07,0,5.85-0.82,5.85-0.82l-5.9,2.25c-4.95,1.92-8.68,4.43-11.11,7.46
			c-2.48,3.09-3.73,6.4-3.73,9.83c0,1.93,0.52,3.86,1.55,5.72c1.01,1.83,2.37,3.38,4.02,4.61c3.2,2.41,7.51,3.64,12.81,3.64
			c0.5,0,20.49,0.45,23.38,0.45s7.33-1.17,8.76-1.74c2.43-0.97,2.94-2.37,2.94-3.37C330.35,144.43,326.22,142.09,325.95,141.91z
			 M310.95,117.1v17.43c-2.3,0.46-2.95,0.63-3.27,0.73c0,0-4.07,1.41-6.12,1.41c-2.11,0-3.99-0.51-5.75-1.55
			c-1.53-0.9-2.24-2.04-2.24-3.6c0-3.45,2.84-6.54,8.42-9.16l4.57-2.07C308.15,119.46,310.67,117.57,310.95,117.1z M293.15,110.83
			c0-0.71,1.83-1.9,8.7-1.9c4.85,0,7.15,1.3,8.22,2.94c-0.94-0.63-2.41-1.05-4.7-1.05c-0.4,0-1.32,0.05-4.67,0.52
			c-2.34,0.33-4.01,0.49-4.94,0.49c-0.82,0-1.56-0.15-2.19-0.46C293.15,111.17,293.15,111.01,293.15,110.83z"/>
		<path class="st3" d="M353.33,97.12c2.6,0,5.03-0.89,7.23-2.66c2.3-1.84,3.47-4.13,3.47-6.79c0-0.91-1.65-5.55-1.72-5.72
			c-0.2-0.49-0.64-0.84-1.16-0.92s-1.05,0.12-1.38,0.53c-0.81,0.98-1.74,1.44-2.94,1.44c-1.17,0-11.4-1.6-12.98-1.6
			c-3.33,0-6.16,0.72-8.39,2.14c-2.42,1.53-3.7,3.82-3.7,6.61c0,4.75,4.32,8.62,4.32,8.62l-0.14,0.01c-4.09,0-4.7,1.94-4.7,3.1
			c0,1.53,1.12,2.96,3.46,4.37c0,0,5.09,3.01,5.1,3.01l0,0c0.02,0.03,0.16,33.35,0.16,33.35c-0.24,0.14-5.81,2.76-5.81,5.21
			c0,1.26,1.11,2.14,2.08,2.76c0.04,0.02,0.08,0.05,0.12,0.07c2.34,1.22,4.56,1.84,6.6,1.84h8.79c2.08,0,4.28-0.63,6.5-1.84
			c1.52-0.79,2.3-1.81,2.3-3.03c0.08-2.14-5.6-4.87-5.78-4.98c0,0,0.08-33.31,0.11-33.45c0.07-0.05,2.92-1.39,4.45-2.49
			c1.89-1.36,2.74-2.51,2.74-3.75c0-1.88-1.63-3.12-4.83-3.71c-2.48-0.45-10.25-0.68-10.25-0.68s-1.74-2.43-1.78-2.58
			C345.3,95.96,351.85,97.12,353.33,97.12z"/>
		<path class="st3" d="M404.21,130.44c-0.39,0.21-2.27,4.36-4.27,5.15c-2.27,0.91-4.85,1.36-7.66,1.36c-2.7,0-5.49-0.59-8.3-1.76
			c0.33-1.52,0.85-2.71,1.56-3.54c2.11-2.42,4.98-4.53,8.56-6.27c0,0,7.4-3.79,8.55-4.46c1.23-0.72,2.41-1.64,3.55-2.75
			c2.9-2.95,4.37-6.09,4.37-9.35c0-2.02-0.85-3.73-2.46-4.95c-1.42-1.07-5.27-2.78-10.17-2.78h-9.98c-6.11,0-11,1.63-14.54,4.86
			c-2.02,1.87-8.54,10.23-8.54,24.01c0,9.28,5.77,16.69,8.5,18.9c2.81,2.28,6.07,3.43,9.69,3.43c0.28,0,15.02,0.1,15.19,0.1
			c2.35,0,4.58-0.6,6.62-1.8c2.03-1.19,6.77-5.35,6.77-11.99C411.62,131.96,404.6,130.22,404.21,130.44z M391.72,117.5l-4.81,2.78
			c-2.21,1.3-4.2,2.84-5.92,4.61c-1.11,1.2-2.06,2.61-2.82,4.23c-0.67-2.03-1-4.06-1-6.08c0-4.77,1.12-8.57,3.35-11.34
			c1.54-2.02,4.42-3.05,8.58-3.05c2.25,0,4.17,0.35,5.71,1.03c1.21,0.53,1.72,1.34,1.72,2.7c0,1.11-0.27,1.9-0.82,2.4
			C394.91,115.51,393.56,116.43,391.72,117.5z"/>
		<path class="st3" d="M465.62,143.6c-0.47-0.31-2.93-1.66-3.09-1.76v-27.73c0-2.68-0.54-5.06-1.61-7.07
			c-1.1-2.06-2.7-3.67-4.76-4.78c-2.02-1.09-4.37-1.64-6.99-1.64c-3.65,0-7.19,1.39-10.53,4.11c0.01-0.1,0.62-3.55-5.87-3.55h-11.5
			c-1.99,0-6.65,0-6.65,2.95c0,0.95,0.35,1.78,1.01,2.39c0.43,0.4,3.32,2.34,3.68,2.73c0.2,0.21,0.28,32.65,0.28,32.65
			c-0.15,0.09-3.6,2.05-4.15,2.53c-0.8,0.7-1.21,1.48-1.21,2.32c0,0.84,0.37,2.04,2.15,2.97c2.16,1.13,4.22,1.71,6.14,1.71h8.59
			c1.89,0,3.98-0.57,6.21-1.7c0.03-0.02,0.07-0.04,0.1-0.06c1.33-0.81,2-1.79,2-2.92c0-2.69-5.2-4.76-5.38-4.87v-25.53
			c0,0,8.88-3.48,10.13-3.48c1.92,0,3.87,0.58,3.87,4.9v24.12c-0.2,0.13-3.56,2.08-4.08,2.55c-0.78,0.69-1.18,1.47-1.18,2.3
			c0,0.82,0.37,2.01,2.15,2.97c2.16,1.13,4.19,1.71,6.04,1.71h8.69c1.89,0,3.92-0.58,6.05-1.71c0.04-0.02,0.09-0.05,0.13-0.08
			c0.5-0.34,2.04-1.36,2.04-2.89C467.91,146.08,466.17,143.96,465.62,143.6z"/>
	</g>
</g>
<g id="Bug">
	<g>
		<g id="_x23_000000ff_2_">
			<path class="st4" d="M595.93,31.45h4.44c4.32,0.32,8.96,1.2,12.22,4.26c2.48,2.26,3.45,5.76,3.24,9.03
				c-0.21,3.41-0.84,6.99-2.94,9.78c-0.93,1.27-2.32,2.08-3.79,2.58c9.27,1.03,18.45,3.44,26.79,7.66c4.51,2.3,8.76,5.17,12.31,8.79
				c2.97,3.1,5.49,6.82,6.37,11.08c0.52,2.42,0.37,4.96-0.39,7.31c1.54,3.78,1.21,8.07-0.04,11.88c-1.11,3.42-3.24,6.59-6.28,8.57
				c-0.86,0.58-1.94,0.53-2.92,0.42c-1.43,2.15-3.17,4.09-5.17,5.73c4.13,1.27,8.12,3.12,11.54,5.78c2.66,2.06,4.97,4.71,6.2,7.88
				c0.58,1.46,0.85,3.01,1.02,4.56v1.85c-0.13,0.91-0.3,1.87-0.9,2.6c-0.68,0.84-2.1,1.03-2.91,0.28c-0.39-0.39-0.26-0.99-0.28-1.49
				c0.21-1.9-0.65-3.66-1.19-5.43c-1.16-3.46-3.24-6.69-6.28-8.79c-2.93-2.26-6.64-2.98-10.01-4.31c-1.31-0.61-2.81-0.45-4.14-1.01
				c-1.12,1.28-2.39,2.42-3.78,3.4c4.55,1.58,8.97,3.77,12.58,7.01c3.13,2.77,5.56,6.51,6.13,10.71c0.23,1.94,0.46,4.09-0.53,5.86
				c-0.66,1.21-2.72,1.58-3.52,0.34c-0.37-1.1,0.13-2.31-0.22-3.43c-0.91-3.1-1.89-6.26-3.76-8.94c-1.72-2.52-4.18-4.46-6.88-5.85
				c-2.03-0.94-4.18-1.57-6.29-2.32c-1.2-0.4-2.38-1.03-3.68-0.87c-0.82,0.08-1.58-0.25-2.3-0.57c-1.28,1.15-2.72,2.09-4.2,2.96
				c0.9,0.49,1.9,0.74,2.84,1.15c4.21,1.75,8.25,4.04,11.61,7.15c3.12,2.87,5.6,6.57,6.45,10.77c0.44,2.31,0.74,4.78-0.03,7.06
				c-0.32,1-1.14,1.79-2.17,2.03h-0.91c-0.57-0.18-1.26-0.41-1.41-1.07c-0.28-1.21,0.22-2.48-0.16-3.68
				c-1.13-3.85-2.37-7.79-4.86-11.01c-2.02-2.63-4.75-4.67-7.72-6.12c-4.12-1.71-8.44-2.86-12.54-4.63
				c-3.56,2.21-7.87,2.48-11.95,2.44c-1.08,0.03-2.14-0.2-3.15-0.57c-2.86,3.39-6.65,5.89-10.64,7.76c-3.76,1.71-7.7,3-11.7,3.98
				c-6.31,1.5-12.81,1.95-19.28,1.97c-6.61-0.14-13.25-0.28-19.77-1.46c-7.84-1.33-15.36-4.3-22.21-8.3
				c-0.54,1.8-0.95,3.63-1.33,5.47c-0.27,1.24,0.09,2.51-0.14,3.75c-0.17,1.02-1.54,1.38-2.28,0.72c-1-0.86-1.15-2.3-1.28-3.53
				c-0.18-3.05,0.26-6.12,1.16-9.03c-1.92-1.46-3.76-3.04-5.36-4.85c-1.68,1.64-3.05,3.6-4,5.75c-1.33,2.97-2.05,6.15-2.73,9.31
				c-0.28,1.3,0.08,2.64-0.18,3.94c-0.23,1.08-1.78,1.26-2.45,0.48c-0.91-1.03-1.03-2.49-1.12-3.8c-0.11-3.98,0.64-8.03,2.45-11.6
				c1.35-2.71,3.27-5.12,5.48-7.18c-2.81-3.7-4.29-8.36-4-13c0.06-1.5,0.4-2.97,0.69-4.43c0.86-2.02,1.38-4.18,2.45-6.11
				c0.96-1.18,1.64-2.69,3.01-3.47c1.57-0.5,2.51-1.98,3.8-2.91c1.56-1.11,3.1-2.26,4.77-3.21c1.03-0.61,2.14-1.09,3.07-1.84
				c4.93-3.98,10.04-7.72,15.36-11.15c-2.23-4.76-4.7-9.41-7.64-13.78c-3.17-4.69-6.85-9.12-11.37-12.57
				c-4.09-3.16-8.97-5.4-14.13-6.01c-4.15-0.52-8.38,0.04-12.36,1.27c2.09,0.96,4.21,2.2,5.41,4.23c1.07,1.76,0.92,4.08-0.16,5.8
				c-1.55,2.52-4.34,4.19-7.25,4.57c-2.14,0.3-4.45-0.38-5.91-2.02c-1.61-1.78-2.18-4.23-2.43-6.55v-2.71
				c0.33-2.18,1.45-4.27,3.28-5.55c3.18-2.28,7.24-2.74,11.05-2.87c4.69-0.01,9.41,0.6,13.9,1.97c6.28,2.05,11.51,6.39,15.98,11.12
				c5.86,6.31,10.55,13.64,14.29,21.38c8.18-5.07,16.78-9.49,25.77-12.94c5.13-9.05,11.16-17.78,19.06-24.64
				c3.27-2.79,6.9-5.26,10.98-6.73C588.26,32.27,592.1,31.73,595.93,31.45 M574.77,43.49c-6.34,5.45-11.18,12.41-15.3,19.62
				c14.41-4.93,29.75-7.44,44.99-6.45c-2.86-1.23-5.28-3.57-6.36-6.51c-0.8-2.14-0.72-4.63,0.39-6.65c1.23-2.28,3.4-3.89,5.7-4.99
				c0.17-0.05,0.67-0.35,0.22-0.45c-3.88-1.56-8.09-2.43-12.28-2.17C585.64,36.23,579.62,39.33,574.77,43.49 M601.43,43.37
				c-1.29,3.25-0.55,7.37,2.21,9.64c1.49,1.25,3.57,1.78,5.46,1.28c2.31-0.57,4.17-2.47,4.93-4.69c0.21-0.53,0.36-1.08,0.43-1.64
				c0.24-1.29,0.19-2.64-0.22-3.89c-0.64-2.97-3.39-5.49-6.5-5.41C604.89,38.64,602.41,40.78,601.43,43.37 M474.52,49.45
				c-1.36,0.72-2.42,1.98-2.88,3.46c-0.36,0.98-0.43,2.06-0.22,3.09c0.11,0.47,0.25,0.94,0.48,1.37c1.08,2.66,4.26,4.11,7.01,3.48
				c2.49-0.47,4.57-2.62,4.89-5.15c0.3-1.96-0.43-4.03-1.91-5.35C479.97,48.51,476.84,48.16,474.52,49.45 M560,64.68
				c-0.6,0.23-1.26,0.36-1.79,0.73c-0.5,0.78-0.89,1.62-1.31,2.45c-1.16,2.17-2.19,4.4-3.24,6.63c-0.34,0.73-0.67,1.46-0.98,2.2
				h-0.04c-0.3,0.73-0.61,1.46-0.92,2.19c2.01,0.11,4.04,0.3,6.04-0.01c1.53-0.21,3.01-0.72,4.43-1.3
				c10.52-4.48,21.07-8.96,32.01-12.32c6.81-2.09,13.8-3.74,20.92-4.29c-0.66-0.19-1.31-0.42-1.99-0.51
				c-3.13-0.84-6.34-1.35-9.56-1.71C588.83,57.19,573.9,59.76,560,64.68 M598.66,65.3c-6.35,1.32-12.58,3.35-18.33,6.37
				c-2.79,1.52-5.57,3.23-7.63,5.7c-0.84,1.02-1.55,2.34-1.25,3.7c0.33,1.27,1.49,2.11,2.66,2.57c5.53,2.18,10.78,5.07,15.51,8.66
				c3.55,2.73,6.88,5.85,9.39,9.59c1.38,2.13,2.67,4.54,2.59,7.15c0,1.06-0.58,1.97-1.01,2.89c2.02-0.36,3.93-1.13,5.86-1.82
				c7.23-2.71,14.33-5.75,21.36-8.92c4.92-2.27,9.85-4.56,14.52-7.32c1.13-0.65,2.24-1.44,2.89-2.61c1.06-1.78,1.06-3.97,0.66-5.94
				c-0.91-3.92-3.3-7.31-5.98-10.23c-3.27-3.5-7.18-6.4-11.37-8.7c-2.61-1.05-5.39-1.61-8.15-2.03
				C613.15,63.32,605.78,63.86,598.66,65.3 M529.65,79.68c0.11,0.26,0.22,0.51,0.33,0.77c0.12,0.31,0.25,0.62,0.38,0.93
				c5.73-1.58,11.66-2.46,17.6-2.56c0.26-0.62,0.51-1.25,0.77-1.88c0.36-0.85,0.73-1.69,1.09-2.54c0.6-1.34,1.26-2.65,1.85-3.99
				c0.61-1.01,1.05-2.12,1.64-3.15C545.08,70.68,537.19,74.91,529.65,79.68 M530.86,82.53c0.03,0.14,0.1,0.41,0.13,0.55l0.06-0.01
				c0.13,0.38,0.27,0.76,0.41,1.14c0.12,0.37,0.24,0.75,0.36,1.12c4.66-0.42,9.35-0.58,14.03-0.38c0.16-0.52,0.32-1.03,0.47-1.55
				c0.17-0.52,0.34-1.04,0.51-1.56h0.03c0.12-0.36,0.23-0.72,0.35-1.07C541.72,80.77,536.23,81.32,530.86,82.53 M550.8,80.95
				c-0.05,0.17-0.16,0.52-0.21,0.69l-0.05-0.01c-0.11,0.24-0.21,0.48-0.32,0.73c-0.12,0.3-0.23,0.6-0.35,0.89
				c-0.09,0.21-0.18,0.43-0.27,0.64c-0.16,0.41-0.32,0.81-0.48,1.22c8.32,0.72,16.62,2.61,24.15,6.3
				c9.4,4.5,17.33,11.82,22.92,20.58c0.33,0.47,0.95,1.42,1.56,0.78c0.78-1.66,0.5-3.59,0.34-5.35c-0.43-3.79-2.94-6.9-5.52-9.52
				c-4-3.9-8.74-6.95-13.71-9.45C570.13,84.14,560.53,81.55,550.8,80.95 M523.89,83.48c1.16-0.4,2.31-0.82,3.48-1.22
				c-0.13-0.29-0.25-0.58-0.37-0.86C525.95,82.07,524.88,82.73,523.89,83.48 M521.24,85.6c-0.47,1,1.21,0.63,1.78,0.59
				c1.94-0.07,3.87-0.38,5.8-0.57c-0.13-0.28-0.28-0.55-0.43-0.81c-0.1-0.31-0.21-0.62-0.32-0.92c-0.06-0.13-0.18-0.39-0.24-0.51
				C525.62,84.02,523.33,84.59,521.24,85.6 M533.08,90.15c0.08,0.91,0.11,1.83,0.11,2.74c-0.14,0.73-0.51,1.36-1.04,1.88
				c-0.12-0.59-0.29-1.17-0.5-1.73c-0.33-0.86-0.64-1.73-0.96-2.6c-6.55,0.86-12.98,2.72-18.95,5.54c-0.1-0.13-0.29-0.39-0.39-0.52
				c-0.45,0.26-0.91,0.52-1.36,0.78c1.77,0.04,3.54,0.3,5.25,0.74c1.44,0.42,2.85,0.98,4.12,1.79l0.04-0.02
				c0.72,0.54,1.4,1.12,2.02,1.77c1.62,1.92,1.88,4.69,0.92,6.97c-1.74,4.29-5.35,7.78-9.69,9.38c-1.72,0.6-3.52,0.96-5.34,1.04
				c-2.05,0.08-4.11-0.21-6.06-0.85c-1.41-0.51-2.73-1.25-3.92-2.17c0.18,2.01,0.74,3.98,1.64,5.79c-0.81,0.39-1.9,1.32-1.17,2.28
				c0.97,1.02,2.45,1.29,3.78,1.54c3.53,4.36,8.27,7.57,13.24,10.09c4.08,2.07,8.37,3.7,12.81,4.83c-0.38-1.18-0.66-2.39-0.9-3.61
				c-0.22-1.09-0.33-2.2-0.63-3.26c-0.98-0.78-1.74-1.8-1.97-3.06c-0.04-0.85,0.08-1.71,0.52-2.44c-0.1,0.92-0.2,1.86,0.04,2.78
				c0.56,1.25,1.76,2.19,3.14,2.35c0.8,0.09,1.54-0.31,2.23-0.65c0.86-0.49,1.73-1.05,2.74-1.11c1.12,0.06,1.61,1.21,2.18,2.01h0.03
				c1.11,1.26,2.8,2.18,4.52,1.94c0.9-0.11,1.64-0.67,2.28-1.28c0.56-0.7,1.01-1.47,1.35-2.29c0.04-0.01,0.13-0.02,0.18-0.03
				c-0.04,1.81-1.32,3.35-2.91,4.1c-0.15,0.78-0.41,1.53-0.64,2.29c-0.62,1.24-1.28,2.47-2.09,3.6c-0.36,0.27,0.14,0.32,0.3,0.35
				c2.69,0.25,5.39,0.36,8.09,0.44c6.77,0.21,13.6,0.1,20.28-1.19c4.65-0.91,9.23-2.3,13.55-4.27c3.38-1.6,6.65-3.66,9.04-6.58
				c2.15-2.72,3.11-6.45,2.16-9.82c-0.77-2.58-1.97-5.01-3.38-7.29c0.42,1.6,0.82,3.26,0.57,4.93c-0.09,1.04-0.53,2-0.89,2.96
				l0.01,0.2h-0.12c-1.16,1.88-2.88,3.36-4.88,4.29c-6.75,3.12-15.39,1.38-20.39-4.12c-2.16-2.42-4.15-5.39-4.11-8.75
				c0.06-2.72,1.98-4.99,4.27-6.26c3.84-2.15,8.4-2.67,12.72-2.28c1.89,0.26,3.79,0.64,5.53,1.47c0.6,0.29,1.21,0.54,1.85,0.75
				c-1.71-1.94-3.71-3.58-5.73-5.18c-0.55-0.42-1.15-0.78-1.74-1.13c-8.46-4.89-17.96-7.9-27.65-8.99c-0.3,0.8-0.59,1.61-0.89,2.41
				c-0.29,0.79-0.55,1.58-0.8,2.38c-0.68-0.65-0.9-1.57-1-2.48c0.04-0.85,0.1-1.7,0.18-2.55C540.81,89.75,536.93,89.8,533.08,90.15
				 M649.67,98.26c-0.84,0.69-1.66,1.38-2.55,2.01c1.16,2.04,0.7,4.49,0.37,6.69c0.33-0.4,0.66-0.8,1-1.19
				c0.03,0.21,0.09,0.64,0.12,0.85c0.59-0.21,1.18-0.55,1.42-1.16c0.71-1.57,1.06-3.3,1.03-5.02c0.03-1.06-0.36-2.1-0.25-3.16
				C650.43,97.6,650.05,97.93,649.67,98.26 M499.47,99.94c-2.05,1.19-3.87,3.08-4.34,5.48c-0.54,2.86,0.58,5.92,2.67,7.9
				c1.33,1.3,3.1,2.07,4.92,2.4l0.01,0.05c1.1,0.08,2.24,0.43,3.33,0.14c3.8-0.11,7.52-1.53,10.56-3.8
				c2.27-1.73,4.25-4.27,4.26-7.25c0.09-1.47-0.79-2.76-1.73-3.8c-2.02-2.11-4.95-3.06-7.78-3.39
				C507.32,97.24,503.04,97.88,499.47,99.94 M641.84,103.81c-1.71,1.03-3.44,2-5.2,2.94c0.82,3.15,0.23,6.51-1.05,9.46
				c0.52-0.36,1.03-0.74,1.5-1.17c0.84,0.88,2.04,0.13,2.89-0.35c3.87-2.39,4.86-7.77,3.46-11.84
				C642.91,103.18,642.37,103.5,641.84,103.81 M568.05,105.01c-1.77,0.27-3.55,0.72-5.12,1.6c-1.83,1.31-3.22,3.47-3.12,5.78
				c0.09,2.24,1.34,4.23,2.77,5.88c2.65,2.9,6.15,5.19,10.06,5.87c2.95,0.46,6.12,0.38,8.84-0.99c2.51-1.21,4.85-3.27,5.53-6.08
				c0.64-2.48,0.43-5.5-1.55-7.34c-2.38-2.22-5.45-3.62-8.62-4.25C573.96,104.86,570.98,104.6,568.05,105.01 M631.5,109.38
				c-2.01,0.91-4,1.84-6.02,2.74c0.78,3.25,0.11,6.69-1.55,9.55c0.42-0.26,1.02-0.35,1.34-0.74c0.68,0.44,1.52,0.39,2.28,0.19
				c1.48-0.4,2.89-1.06,4.17-1.91c-0.74-0.54-1.68-1.43-0.86-2.35c0.93,0.1,1.86,0.19,2.79,0.33c1.16-1.57,2.3-3.53,1.84-5.55
				c-0.54-1.28-1.59-2.39-2.95-2.78C632.19,109.03,631.85,109.21,631.5,109.38 M620.09,114.34l-0.05,0.1
				c-2.05,0.62-4.02,1.5-6.05,2.18c0.47,2.98-0.14,6.12-1.58,8.76c-0.63,0.4,0.68,0.62,0.42,0c0.15-0.01,0.43-0.01,0.58-0.02
				c0.03,0.54,0.68,0.68,1.12,0.65c1.74-0.14,3.39-0.86,4.91-1.69c-0.49-0.41-1.08-0.76-1.4-1.34c-0.22-0.41,0.06-0.83,0.16-1.22
				c1.25,0.04,2.49,0.17,3.72,0.37c1.27-1.51,2.23-3.5,1.85-5.52c-0.21-0.98-0.55-2.08-1.45-2.63
				C621.56,113.58,620.78,114.09,620.09,114.34 M607.69,118.72c-3.93,0.87-7.92,2.16-11.99,1.51c0.36,2.69-0.05,5.44-1.03,7.96
				c-0.51,0.3,0.42,0.69,0.55,0.23l0.32,0.18c0.33,0.95,1.38,1.3,2.29,1.39c2.34,0.23,4.68-0.29,6.9-0.98
				c-0.54-0.5-1.25-0.97-1.35-1.76c0.08-0.34,0.24-0.64,0.39-0.95c1.61,0.06,3.2,0.33,4.8,0.51c2.18-1.63,3.55-4.41,3.35-7.14
				c-0.03-0.73-0.52-1.48-1.29-1.57C609.62,117.95,608.6,118.33,607.69,118.72 M530.02,132.27c-1,0.59-2.22,0.65-3.33,0.46
				c0.76,1.87,1.08,3.87,1.56,5.82c0.56,1.91,1.23,4.23,3.27,5.03c1.34,0.62,2.88,0.02,3.88-0.95c1.58-1.52,2.54-3.53,3.48-5.48
				c0.32-0.69,0.63-1.38,0.96-2.07c-1.44,0.01-2.85-0.44-4.08-1.16c-1.21-0.74-1.49-2.54-2.98-2.89
				C531.71,131.01,530.91,131.81,530.02,132.27z"/>
		</g>
		<g id="_x23_bf7c04ff_2_">
			<path class="st5" d="M601.43,43.37c0.97-2.59,3.46-4.73,6.31-4.71c3.11-0.08,5.86,2.45,6.5,5.41c-0.9-1.46-2.12-2.92-3.88-3.27
				c-1.28-0.38-2.55,0.11-3.71,0.6c-0.49,0.16-1.03,0.18-1.47,0.46c-0.57,0.5-0.48,1.34-0.67,2.01c-0.55,1.52-0.83,3.18-0.39,4.77
				c0.48,1.84,1.85,3.53,3.73,4.06c1.62,0.49,3.51,0.06,4.67-1.2c0.58-0.57,1.08-1.22,1.52-1.9c-0.76,2.22-2.62,4.12-4.93,4.69
				c-1.89,0.49-3.97-0.04-5.46-1.28C600.88,50.74,600.15,46.62,601.43,43.37z"/>
			<path class="st5" d="M474.52,49.45c2.32-1.29,5.45-0.94,7.38,0.9c1.47,1.33,2.2,3.4,1.91,5.35c-0.32,2.53-2.4,4.68-4.89,5.15
				c-2.75,0.63-5.93-0.82-7.01-3.48c0.39,0.43,0.79,0.84,1.23,1.21c2.19,2.05,6.18,1.18,7.43-1.51c0.75-1.33,0.48-2.88,0.08-4.27
				c-0.16-0.49-0.15-1.1-0.53-1.5c-0.43-0.26-0.94-0.34-1.41-0.5c-1.15-0.42-2.38-0.82-3.61-0.48c-1.49,0.27-2.63,1.37-3.45,2.59
				C472.1,51.43,473.16,50.17,474.52,49.45z"/>
			<path class="st5" d="M613.12,60.44c0.68,0.09,1.33,0.33,1.99,0.51c-7.12,0.55-14.11,2.19-20.92,4.29
				c-10.94,3.37-21.49,7.85-32.01,12.32c-1.42,0.58-2.9,1.09-4.43,1.3c-2,0.31-4.03,0.12-6.04,0.01c0.32-0.73,0.62-1.45,0.92-2.19
				h0.04c3.67-0.03,7.36-0.58,10.84-1.76c2.64-1.05,5.21-2.25,7.84-3.33c7.29-3.04,14.72-5.79,22.33-7.93
				C600.02,61.9,606.53,60.57,613.12,60.44z"/>
			<path class="st5" d="M598.66,65.3c7.12-1.44,14.49-1.98,21.71-0.94c2.77,0.42,5.55,0.99,8.15,2.03c4.2,2.3,8.1,5.2,11.37,8.7
				c2.68,2.92,5.06,6.31,5.98,10.23c0.4,1.97,0.41,4.17-0.66,5.94c-0.65,1.17-1.76,1.96-2.89,2.61c-4.67,2.76-9.6,5.05-14.52,7.32
				c-7.03,3.18-14.13,6.21-21.36,8.92c-1.93,0.69-3.84,1.46-5.86,1.82c0.43-0.92,1.02-1.83,1.01-2.89c0.08-2.61-1.21-5.02-2.59-7.15
				c-2.51-3.74-5.84-6.86-9.39-9.59c-4.73-3.59-9.99-6.49-15.51-8.66c-1.16-0.46-2.32-1.3-2.66-2.57c-0.3-1.36,0.41-2.68,1.25-3.7
				c2.06-2.47,4.84-4.17,7.63-5.7C586.08,68.65,592.31,66.62,598.66,65.3 M576.8,75.22c-1.27,1-2.07,2.79-1.56,4.39
				c0.38,1.27,1.29,2.31,2.27,3.18c2.46,2.14,5.45,3.51,8.34,4.94c3.35,1.79,6.27,4.27,9.06,6.82c2.98,2.85,5.86,5.85,8.11,9.32
				c0.7,1.09,1.34,2.31,1.18,3.65c4.61-1.82,9.05-4.05,13.48-6.28c4.36-2.22,8.66-4.57,12.75-7.26c1.73-1.2,3.5-2.41,4.87-4.03
				c1.33-1.68,2.4-3.58,3-5.64c0.99-3.25,0.61-6.92-1.15-9.84c-1.82-3.11-4.82-5.37-8.1-6.75c-5.09-2.08-10.59-3-16.07-3.12
				C600.22,64.37,587.33,67.96,576.8,75.22z"/>
			<path class="st5" d="M539.05,77.77c3.18-0.67,6.44-0.85,9.68-0.84c-0.26,0.63-0.51,1.25-0.77,1.88
				c-5.95,0.1-11.87,0.97-17.6,2.56c-0.13-0.31-0.26-0.62-0.38-0.93C532.97,79.46,535.95,78.38,539.05,77.77z"/>
			<path class="st5" d="M530.86,82.53c5.37-1.21,10.86-1.76,16.36-1.76c-0.12,0.36-0.24,0.71-0.35,1.07h-0.03
				c-3.92-0.19-7.83,0.15-11.7,0.67c-1.37,0.12-2.74,0.22-4.08,0.55L531,83.07C530.96,82.94,530.89,82.67,530.86,82.53z"/>
			<path class="st5" d="M550.8,80.95c9.73,0.6,19.33,3.19,28.07,7.51c4.97,2.5,9.71,5.55,13.71,9.45c2.58,2.63,5.09,5.73,5.52,9.52
				c0.16,1.77,0.44,3.69-0.34,5.35c-0.61,0.64-1.23-0.31-1.56-0.78c-5.59-8.77-13.52-16.08-22.92-20.58
				c-7.53-3.69-15.83-5.58-24.15-6.3c0.16-0.41,0.32-0.81,0.48-1.22c12.52,1.21,24.69,5.55,35.28,12.3
				c1.56,0.94,2.95,2.13,4.51,3.06c-1.09-1.42-2.47-2.56-3.79-3.74c-6.57-5.72-14.56-9.74-22.99-11.88c-3.94-1.05-8-1.52-12.04-1.99
				C550.64,81.47,550.75,81.13,550.8,80.95z"/>
			<path class="st5" d="M523.89,83.48c0.99-0.76,2.05-1.41,3.1-2.08c0.12,0.28,0.25,0.57,0.37,0.86
				C526.21,82.66,525.05,83.09,523.89,83.48z"/>
			<path class="st5" d="M531.46,84.21c2.24-0.41,4.52-0.56,6.79-0.8c2.69-0.04,5.38-0.01,8.08,0c-0.16,0.52-0.32,1.03-0.47,1.55
				c-4.68-0.2-9.37-0.04-14.03,0.38C531.7,84.95,531.58,84.58,531.46,84.21z"/>
			<path class="st5" d="M524.27,85.57c1.37-0.27,2.74-0.62,4.13-0.77c0.15,0.27,0.29,0.54,0.43,0.81c-1.93,0.19-3.86,0.51-5.8,0.57
				C523.44,85.99,523.85,85.77,524.27,85.57z"/>
			<path class="st5" d="M533.08,90.15c3.85-0.35,7.73-0.4,11.58-0.11c-0.09,0.85-0.15,1.7-0.18,2.55c-3.76-0.1-7.53-0.04-11.29,0.3
				C533.19,91.97,533.16,91.06,533.08,90.15z"/>
			<path class="st5" d="M547.17,90.27c9.69,1.09,19.19,4.11,27.65,8.99c0.6,0.35,1.19,0.71,1.74,1.13c2.02,1.59,4.02,3.24,5.73,5.18
				c-0.63-0.21-1.25-0.46-1.85-0.75c-1.74-0.83-3.64-1.21-5.53-1.47c-1.44-1.46-3.18-2.59-4.9-3.69
				c-7.12-4.39-15.46-6.37-23.73-6.99C546.58,91.88,546.87,91.08,547.17,90.27z"/>
			<path class="st5" d="M511.74,95.98c5.98-2.82,12.4-4.68,18.95-5.54c0.32,0.87,0.63,1.74,0.96,2.6
				c-5.57,0.77-11.22,1.7-16.42,3.94c-1.72-0.44-3.48-0.7-5.25-0.74c0.45-0.26,0.91-0.52,1.36-0.78
				C511.44,95.59,511.64,95.85,511.74,95.98z"/>
			<path class="st5" d="M499.14,98.66c1.24-1.01,2.45-2.05,3.8-2.91C501.65,96.68,500.72,98.16,499.14,98.66z"/>
			<path class="st5" d="M493.69,108.24c0.22-2.22,1.14-4.32,2.45-6.11C495.08,104.06,494.55,106.22,493.69,108.24z"/>
			<path class="st5" d="M587.74,112.4c1.41,2.29,2.61,4.72,3.38,7.29c0.95,3.38-0.02,7.1-2.16,9.82c-2.39,2.93-5.66,4.98-9.04,6.58
				c-4.32,1.97-8.9,3.37-13.55,4.27c-6.67,1.29-13.51,1.4-20.28,1.19c-2.7-0.08-5.4-0.19-8.09-0.44c-0.17-0.02-0.67-0.08-0.3-0.35
				c0.81-1.14,1.47-2.36,2.09-3.6c-0.04,0.13-0.11,0.4-0.15,0.53c7.67,0.58,15.4,0.21,23-0.94c4.5-0.75,9.03-1.61,13.28-3.29
				c1.31-0.08,3.11,0.09,3.71-1.39c2.44-1.2,4.92-2.55,6.68-4.69c1.57-1.9,1.82-4.6,1.12-6.9l-0.01-0.2
				c0.36-0.96,0.8-1.92,0.89-2.96C588.56,115.66,588.16,114,587.74,112.4z"/>
			<path class="st5" d="M497.33,114.89c1.19,0.92,2.51,1.66,3.92,2.17c0.34,0.87,0.69,1.73,1.06,2.58
				c-1.15,0.22-2.29,0.52-3.35,1.04C498.07,118.87,497.51,116.9,497.33,114.89z"/>
			<path class="st5" d="M501.58,124.51c1.63,0.24,3.29,0.23,4.93,0.19c-0.16,0.03-0.47,0.09-0.62,0.12
				c1.84,2.15,4.13,3.87,6.52,5.36c4.4,2.69,9.33,4.41,14.32,5.64c0.24,1.22,0.52,2.43,0.9,3.61c-4.44-1.12-8.73-2.76-12.81-4.83
				C509.85,132.08,505.11,128.87,501.58,124.51z"/>
		</g>
		<g id="_x23_dfbe02ff_2_">
			<path class="st6" d="M606.65,41.4c1.17-0.48,2.44-0.98,3.71-0.6c1.77,0.35,2.99,1.8,3.88,3.27c0.41,1.25,0.46,2.6,0.22,3.89
				c-0.24-1.37-0.56-2.9-1.72-3.8c-1.21-1.02-3.08-1.06-4.34-0.1c-2.37,1.72-2.35,5.85,0.2,7.39c1.17,0.79,2.66,0.49,3.91,0.05
				c-1.16,1.26-3.05,1.7-4.67,1.2c-1.87-0.53-3.24-2.22-3.73-4.06c-0.43-1.59-0.16-3.25,0.39-4.77c0.48,0.38,0.9,1.07,1.59,1
				c1.06-0.1,1.71-1.4,1.24-2.33C607.15,42.14,606.89,41.78,606.65,41.4z"/>
			<path class="st6" d="M475.09,50.32c1.23-0.34,2.46,0.06,3.61,0.48c-0.27,0.41-0.58,0.79-0.76,1.24
				c-0.24,0.93,0.83,1.85,1.71,1.46c0.36-0.19,0.67-0.46,0.99-0.71c0.4,1.39,0.67,2.94-0.08,4.27c-1.25,2.69-5.25,3.56-7.43,1.51
				c1.29,0.42,2.84,0.59,3.99-0.3c1.49-1,1.88-3.29,0.7-4.68c-1.19-1.64-3.83-1.8-5.25-0.38c-0.78,0.7-1,1.78-1.15,2.77
				c-0.21-1.03-0.14-2.11,0.22-3.09C472.46,51.69,473.6,50.59,475.09,50.32z"/>
			<path class="st6" d="M576.8,75.22c10.53-7.26,23.42-10.85,36.18-10.64c5.48,0.12,10.98,1.04,16.07,3.12
				c3.28,1.39,6.28,3.65,8.1,6.75c1.76,2.92,2.14,6.59,1.15,9.84c-0.6,2.06-1.67,3.97-3,5.64c-1.37,1.62-3.14,2.83-4.87,4.03
				c-4.09,2.69-8.39,5.04-12.75,7.26c-4.43,2.22-8.86,4.46-13.48,6.28c0.16-1.34-0.48-2.56-1.18-3.65
				c-2.25-3.47-5.13-6.48-8.11-9.32c-2.79-2.55-5.71-5.03-9.06-6.82c-2.89-1.43-5.88-2.8-8.34-4.94c-0.98-0.87-1.88-1.9-2.27-3.18
				C574.73,78,575.53,76.22,576.8,75.22 M605.7,65.75c-5.73,0.52-11.5,1.66-16.71,4.18c-3.03,1.18-6.02,2.63-8.45,4.82
				c-1.15,1.11-2.23,2.65-1.87,4.32c0.48,1.74,2.12,2.78,3.59,3.63c2.99,1.46,6.11,2.59,9.18,3.86c1.92,0.83,3.71,1.94,5.32,3.28
				c1.17,1.02,2.17,2.2,3.31,3.25c0.79-2.64,2.85-4.77,5.25-6.03c4.22-2.28,9-3.09,13.64-4.06c4.03-0.68,8.22-1.06,11.96-2.87
				c1.42-0.67,2.6-2.03,2.61-3.66c-0.01-2.77-1.61-5.27-3.56-7.12c-0.87-0.9-2.09-1.26-3.23-1.67c-3.85-1.31-7.91-1.9-11.96-2.16
				C611.76,65.51,608.72,65.38,605.7,65.75z"/>
			<path class="st6" d="M550.54,81.64l0.05,0.01c4.04,0.48,8.1,0.94,12.04,1.99c8.43,2.14,16.41,6.16,22.99,11.88
				c1.32,1.19,2.71,2.33,3.79,3.74c-1.56-0.93-2.95-2.12-4.51-3.06c-10.59-6.75-22.76-11.09-35.28-12.3
				c0.09-0.22,0.18-0.43,0.27-0.64c8.1,0.84,15.99,3.08,23.62,5.85c1.35,0.46,2.67,1.01,4.05,1.39c-3.92-1.99-7.85-4.01-12.06-5.33
				c-4.93-1.66-10.1-2.41-15.26-2.81C550.33,82.12,550.44,81.88,550.54,81.64z"/>
			<path class="st6" d="M521.24,85.6c2.09-1.01,4.38-1.58,6.6-2.24c0.06,0.13,0.18,0.39,0.24,0.51c-1.98,0.5-4.09,0.72-5.89,1.73
				c0.69,0.01,1.39,0.01,2.08-0.04c-0.42,0.2-0.83,0.42-1.24,0.62C522.45,86.23,520.77,86.61,521.24,85.6z"/>
			<path class="st6" d="M533.19,92.89c3.75-0.34,7.52-0.4,11.29-0.3c0.1,0.9,0.32,1.82,1,2.48c0.25-0.8,0.52-1.59,0.8-2.38
				c8.27,0.62,16.61,2.6,23.73,6.99c1.73,1.09,3.46,2.23,4.9,3.69c-4.32-0.39-8.88,0.14-12.72,2.28c-2.29,1.27-4.21,3.54-4.27,6.26
				c-0.04,3.37,1.95,6.33,4.11,8.75c5,5.51,13.65,7.25,20.39,4.12c1.99-0.93,3.72-2.41,4.88-4.29h0.12c0.71,2.3,0.45,5.01-1.12,6.9
				c-1.75,2.14-4.23,3.49-6.68,4.69c-0.5-0.75-1.09-1.46-1.87-1.92c-2.36-1.51-5.05-2.43-7.74-3.16c-2.56-0.65-5.2-1.15-7.84-0.96
				c-0.77,0.09-1.71,0.21-2.15,0.94c-0.18,0.73,0.43,1.31,0.93,1.75c1.46,1.19,3.22,1.93,4.96,2.61c3.21,1.17,6.58,1.98,10.01,2.12
				c-4.25,1.68-8.78,2.54-13.28,3.29c-7.6,1.15-15.33,1.52-23,0.94c0.04-0.13,0.11-0.4,0.15-0.53c0.23-0.76,0.49-1.51,0.64-2.29
				c1.59-0.75,2.87-2.29,2.91-4.1c-0.04,0.01-0.13,0.02-0.18,0.03c-2.62-2.95-4.91-6.4-5.59-10.36c-0.56-2.5-0.15-5.11,0.71-7.49
				c0.18-0.55,0.49-1.05,0.95-1.42c1.79,0.21,3.67-0.57,4.65-2.11c0.95-1.38,0.93-3.19,0.38-4.71c0.67-0.49,1.37-0.94,2.01-1.48
				c0.15,0.82,0.16,1.81,0.91,2.35c1.18,1,3.29,0.31,3.55-1.25c0.29-1.17-0.5-2.29-1.57-2.69c-0.02-0.09-0.05-0.27-0.07-0.36
				c2.74-1.48,5.58-2.87,8.69-3.33c-5.15-1.15-10.33-2.31-15.6-2.7c-4.84-0.21-9.74-0.18-14.49,0.86c-2.81,0.68-5.66,1.36-8.27,2.62
				l-0.04,0.02c-1.27-0.81-2.68-1.37-4.12-1.79c5.2-2.24,10.84-3.17,16.42-3.94c0.22,0.56,0.39,1.14,0.5,1.73
				C532.68,94.25,533.05,93.62,533.19,92.89z"/>
			<path class="st6" d="M501.26,117.06c1.95,0.64,4.01,0.93,6.06,0.85c0.29,0.48,0.57,0.96,0.85,1.43c-1.95-0.11-3.92-0.05-5.85,0.3
				C501.95,118.79,501.59,117.93,501.26,117.06z"/>
			<path class="st6" d="M506.51,124.7c1.92-0.2,3.85-0.49,5.63-1.27c2.1,1.87,4.71,3,7.2,4.25c1.56,0.71,3.12,1.42,4.8,1.81
				c0.23,1.26,0.99,2.28,1.97,3.06c0.3,1.07,0.41,2.18,0.63,3.26c-4.99-1.23-9.92-2.94-14.32-5.64c-2.39-1.49-4.68-3.22-6.52-5.36
				C506.05,124.79,506.36,124.73,506.51,124.7z"/>
			<path class="st6" d="M524.69,129.84c1.79,0.57,3.63,0.98,5.37,1.69c-0.7,0.34-1.43,0.74-2.23,0.65
				C526.45,132.03,525.25,131.09,524.69,129.84z"/>
			<path class="st6" d="M535.01,132.44c2.26,0.23,4.53,0.44,6.8,0.66c-0.64,0.6-1.38,1.16-2.28,1.28
				C537.81,134.62,536.12,133.7,535.01,132.44z"/>
		</g>
		<g id="_x23_fcf218ff_2_">
			<path class="st7" d="M605.18,41.86c0.43-0.28,0.98-0.3,1.47-0.46c0.24,0.37,0.5,0.74,0.7,1.14c0.46,0.93-0.19,2.23-1.24,2.33
				c-0.7,0.07-1.11-0.62-1.59-1C604.7,43.2,604.61,42.37,605.18,41.86z"/>
			<path class="st7" d="M608.4,44.06c1.25-0.96,3.13-0.91,4.34,0.1c1.16,0.9,1.48,2.43,1.72,3.8c-0.07,0.56-0.22,1.11-0.43,1.64
				c-0.44,0.68-0.94,1.33-1.52,1.9c-1.24,0.44-2.73,0.74-3.91-0.05C606.05,49.91,606.03,45.78,608.4,44.06z"/>
			<path class="st7" d="M478.71,50.8c0.47,0.16,0.98,0.24,1.41,0.5c0.38,0.39,0.37,1,0.53,1.5c-0.32,0.24-0.63,0.52-0.99,0.71
				c-0.88,0.38-1.95-0.53-1.71-1.46C478.13,51.59,478.44,51.21,478.71,50.8z"/>
			<path class="st7" d="M472.57,53.22c1.42-1.42,4.06-1.27,5.25,0.38c1.17,1.39,0.79,3.68-0.7,4.68c-1.15,0.89-2.7,0.71-3.99,0.3
				c-0.44-0.37-0.84-0.79-1.23-1.21c-0.23-0.43-0.37-0.9-0.48-1.37C471.57,55,471.79,53.92,472.57,53.22z"/>
			<path class="st7" d="M581.48,60.59c3.35-0.64,6.78-0.71,10.18-0.9c3.48-0.12,6.97-0.26,10.44-0.02c-1.9,0.59-3.87,0.91-5.78,1.44
				c-4.7,1.26-9.41,2.48-14.04,3.97c-6.13,2.15-12.11,4.72-18.02,7.43c-3.31,1.48-6.97,2.27-10.61,1.96
				c1.05-2.23,2.08-4.46,3.24-6.63c4.59-1.51,8.99-3.55,13.62-4.93C574.11,61.89,577.81,61.27,581.48,60.59z"/>
			<path class="st7" d="M598.11,68.43c5.22-1.1,10.59-1.81,15.93-1.25c3.13,0.33,6.11,1.5,8.81,3.07c1.16,0.72,2.39,1.68,2.64,3.11
				c0.21,1.27-0.79,2.31-1.73,2.99c-2.15,1.5-4.85,1.58-7.33,2.09c-3.72,0.78-7.55,0.93-11.26,1.77c-2.37,0.5-4.87,0.99-6.87,2.44
				c-0.78,0.53-1.18,1.4-1.46,2.27c-2.55-2.13-5.53-3.86-8.83-4.49c-1.32-0.28-2.73-0.58-3.77-1.51c-0.71-0.64-0.65-1.74-0.27-2.55
				c0.7-1.54,2.04-2.66,3.39-3.63C590.59,70.57,594.33,69.27,598.11,68.43z"/>
			<path class="st7" d="M545.17,74.1c2.15-1.27,4.29-2.55,6.5-3.7c-0.59,1.34-1.25,2.66-1.85,3.99
				C548.27,74.32,546.7,74.43,545.17,74.1z"/>
			<path class="st7" d="M535.13,82.51c3.88-0.52,7.79-0.86,11.7-0.67c-0.17,0.52-0.35,1.04-0.51,1.56c-2.69,0-5.38-0.04-8.08,0
				c-2.26,0.25-4.54,0.39-6.79,0.8c-0.14-0.38-0.27-0.76-0.41-1.14C532.39,82.73,533.76,82.63,535.13,82.51z"/>
			<path class="st7" d="M549.88,83.26c0.11-0.3,0.23-0.6,0.35-0.89c5.17,0.4,10.34,1.15,15.26,2.81c4.21,1.33,8.14,3.34,12.06,5.33
				c-1.37-0.39-2.7-0.93-4.05-1.39C565.87,86.34,557.99,84.1,549.88,83.26z"/>
			<path class="st7" d="M522.19,85.6c1.81-1.01,3.92-1.23,5.89-1.73c0.11,0.31,0.21,0.61,0.32,0.92c-1.4,0.15-2.76,0.5-4.13,0.77
				C523.58,85.61,522.88,85.62,522.19,85.6z"/>
			<path class="st7" d="M521.42,100.51c5.1-2.1,10.58-3.19,16.07-3.53c3.41-0.09,6.96-0.27,10.21,0.97c-2.34,1.4-4.94,2.36-7.07,4.1
				c1.51,0.37,2.84,1.3,3.62,2.66c0.55,1.53,0.57,3.33-0.38,4.71c-0.98,1.54-2.86,2.32-4.65,2.11c-0.87-0.18-1.75-0.48-2.43-1.08
				c-0.86-0.71-1.27-1.78-1.73-2.76c-2.4,3.67-2.86,8.34-1.82,12.54c0.55,2.69,1.78,5.16,2.7,7.73c-4.56-0.26-8.99-1.63-13.12-3.54
				c-3.81-1.84-7.6-4.13-10.17-7.57c4.34-1.61,7.95-5.1,9.69-9.38C523.3,105.2,523.04,102.43,521.42,100.51z"/>
		</g>
		<g id="_x23_e8d100ff_2_">
			<path class="st8" d="M560,64.68c13.9-4.92,28.83-7.49,43.57-5.95c3.22,0.36,6.43,0.87,9.56,1.71c-6.6,0.14-13.1,1.46-19.44,3.23
				c-7.61,2.14-15.04,4.88-22.33,7.93c-2.63,1.08-5.21,2.28-7.84,3.33c-3.48,1.18-7.17,1.74-10.84,1.76
				c0.32-0.74,0.65-1.47,0.98-2.2c3.63,0.31,7.29-0.48,10.61-1.96c5.9-2.71,11.88-5.27,18.02-7.43c4.63-1.48,9.34-2.71,14.04-3.97
				c1.91-0.54,3.88-0.86,5.78-1.44c-3.47-0.24-6.97-0.1-10.44,0.02c-3.4,0.19-6.83,0.26-10.18,0.9c-3.67,0.68-7.36,1.3-10.96,2.33
				c-4.63,1.38-9.04,3.42-13.62,4.93c0.42-0.82,0.81-1.67,1.31-2.45C558.74,65.04,559.4,64.91,560,64.68z"/>
			<path class="st8" d="M605.7,65.75c3.01-0.36,6.05-0.23,9.08-0.22c4.05,0.26,8.11,0.85,11.96,2.16c1.14,0.41,2.36,0.78,3.23,1.67
				c1.94,1.85,3.55,4.35,3.56,7.12c-0.01,1.63-1.19,2.99-2.61,3.66c-3.73,1.8-7.92,2.18-11.96,2.87c-4.64,0.97-9.43,1.78-13.64,4.06
				c-2.41,1.27-4.46,3.39-5.25,6.03c-1.14-1.05-2.15-2.24-3.31-3.25c-1.61-1.34-3.4-2.45-5.32-3.28c-3.06-1.28-6.19-2.41-9.18-3.86
				c-1.47-0.85-3.12-1.89-3.59-3.63c-0.35-1.68,0.73-3.22,1.87-4.32c2.43-2.19,5.43-3.64,8.45-4.82
				C594.2,67.4,599.97,66.27,605.7,65.75 M598.11,68.43c-3.78,0.84-7.52,2.14-10.75,4.31c-1.34,0.97-2.69,2.09-3.39,3.63
				c-0.37,0.81-0.44,1.91,0.27,2.55c1.04,0.93,2.45,1.23,3.77,1.51c3.3,0.63,6.28,2.36,8.83,4.49c0.28-0.87,0.69-1.73,1.46-2.27
				c2-1.46,4.49-1.94,6.87-2.44c3.71-0.83,7.53-0.99,11.26-1.77c2.48-0.51,5.19-0.59,7.33-2.09c0.95-0.68,1.94-1.73,1.73-2.99
				c-0.25-1.43-1.48-2.38-2.64-3.11c-2.7-1.57-5.69-2.75-8.81-3.07C608.71,66.62,603.34,67.33,598.11,68.43z"/>
			<path class="st8" d="M529.65,79.68c7.54-4.77,15.43-8.99,23.66-12.42c-0.59,1.03-1.03,2.14-1.64,3.15
				c-2.22,1.15-4.36,2.43-6.5,3.7c1.53,0.33,3.1,0.22,4.65,0.29c-0.36,0.85-0.73,1.69-1.09,2.54c-3.24-0.02-6.5,0.17-9.68,0.84
				c-3.1,0.61-6.07,1.68-9.06,2.67C529.87,80.19,529.76,79.93,529.65,79.68z"/>
			<path class="st8" d="M527.67,96.12c4.76-1.04,9.65-1.07,14.49-0.86c5.28,0.39,10.45,1.54,15.6,2.7
				c-3.11,0.46-5.95,1.85-8.69,3.33c0.02,0.09,0.05,0.27,0.07,0.36c-0.6,0.06-1.24,0.03-1.78,0.33c-0.43,0.36-0.74,0.84-1.11,1.27
				c-0.64,0.54-1.34,0.99-2.01,1.48c-0.78-1.36-2.1-2.29-3.62-2.66c2.13-1.74,4.73-2.7,7.07-4.1c-3.25-1.24-6.8-1.06-10.21-0.97
				c-5.49,0.34-10.97,1.43-16.07,3.53c-0.62-0.65-1.3-1.23-2.02-1.77C522.01,97.48,524.86,96.8,527.67,96.12z"/>
			<path class="st8" d="M533.24,120.24c-1.04-4.2-0.58-8.87,1.82-12.54c0.46,0.98,0.86,2.06,1.73,2.76c0.68,0.6,1.56,0.89,2.43,1.08
				c-0.45,0.36-0.77,0.87-0.95,1.42c-0.86,2.38-1.27,5-0.71,7.49c0.68,3.96,2.98,7.4,5.59,10.36c-0.34,0.82-0.79,1.6-1.35,2.29
				c-2.26-0.22-4.53-0.43-6.8-0.66h-0.03c-0.56-0.8-1.06-1.95-2.18-2.01c-1.01,0.07-1.89,0.62-2.74,1.11
				c-1.74-0.72-3.58-1.12-5.37-1.69c-0.24-0.92-0.14-1.86-0.04-2.78c-0.45,0.73-0.56,1.59-0.52,2.44c-1.67-0.39-3.24-1.11-4.8-1.81
				c-2.49-1.25-5.09-2.38-7.2-4.25c0.66-0.39,1.51-0.83,1.58-1.69c-0.01-0.66-0.61-1.09-1.14-1.37c-1.37-0.68-2.91-0.89-4.41-1.03
				c-0.28-0.48-0.57-0.96-0.85-1.43c1.82-0.08,3.62-0.44,5.34-1.04c2.57,3.44,6.36,5.72,10.17,7.57c4.13,1.91,8.55,3.28,13.12,3.54
				C535.02,125.4,533.79,122.93,533.24,120.24z"/>
		</g>
		<g id="_x23_a8ff00ff_2_">
			<path class="st9" d="M649.67,98.26c0.37-0.34,0.75-0.66,1.14-0.99c-0.11,1.07,0.28,2.1,0.25,3.16c0.04,1.72-0.32,3.45-1.03,5.02
				c-0.24,0.61-0.83,0.96-1.42,1.16c-0.03-0.21-0.09-0.64-0.12-0.85c-0.15-1.23,0.25-2.41,0.66-3.55
				C649.6,100.95,649.66,99.6,649.67,98.26z"/>
			<path class="st9" d="M641.84,103.81c0.54-0.32,1.07-0.64,1.6-0.97c1.39,4.08,0.41,9.45-3.46,11.84
				c-0.84,0.48-2.05,1.23-2.89,0.35c0.13-0.77,0.25-1.59,0.83-2.16c1.38-1.52,2.86-3.09,3.5-5.08
				C641.71,106.49,641.62,105.13,641.84,103.81z"/>
			<path class="st9" d="M631.5,109.38c0.35-0.17,0.7-0.35,1.05-0.52c1.36,0.39,2.41,1.5,2.95,2.78c0.46,2.02-0.68,3.98-1.84,5.55
				c-0.93-0.14-1.86-0.22-2.79-0.33c-0.82,0.92,0.12,1.81,0.86,2.35c-1.28,0.85-2.69,1.51-4.17,1.91c-0.76,0.2-1.6,0.26-2.28-0.19
				c0.25-0.55,0.32-1.26,0.88-1.61c1.04-0.76,2.19-1.45,2.92-2.56c0.85-1.19,0.98-2.68,1.22-4.08
				C630.46,111.51,630.97,110.43,631.5,109.38z"/>
			<path class="st9" d="M620.09,114.34c0.69-0.25,1.47-0.77,2.21-0.36c0.91,0.55,1.24,1.65,1.45,2.63c0.38,2.01-0.57,4.01-1.85,5.52
				c-1.23-0.2-2.47-0.33-3.72-0.37c-0.1,0.39-0.37,0.81-0.16,1.22c0.32,0.58,0.9,0.93,1.4,1.34c-1.52,0.84-3.17,1.55-4.91,1.69
				c-0.44,0.03-1.09-0.11-1.12-0.65c0.11-0.51,0.24-1.08,0.74-1.35c1.28-0.87,2.67-1.71,3.47-3.09c0.7-1.1,0.78-2.42,1.05-3.65
				c0.23-1.04,0.86-1.93,1.39-2.83L620.09,114.34z"/>
			<path class="st9" d="M607.69,118.72c0.91-0.39,1.92-0.77,2.93-0.62c0.77,0.1,1.26,0.84,1.29,1.57c0.21,2.74-1.17,5.51-3.35,7.14
				c-1.6-0.19-3.19-0.45-4.8-0.51c-0.15,0.31-0.31,0.61-0.39,0.95c0.11,0.79,0.82,1.26,1.35,1.76c-2.22,0.69-4.56,1.21-6.9,0.98
				c-0.91-0.1-1.96-0.45-2.29-1.39c0.07-0.61,0.18-1.21,0.3-1.81c1.6-0.09,3.28-0.21,4.68-1.05c1.71-1.02,2.93-2.63,4.19-4.12
				C605.6,120.54,606.71,119.69,607.69,118.72z"/>
		</g>
		<g id="_x23_5d9e12ff_2_">
			<path class="st10" d="M499.47,99.94c3.57-2.06,7.85-2.7,11.91-2.28c2.84,0.34,5.76,1.29,7.78,3.39c0.93,1.05,1.81,2.33,1.73,3.8
				c-0.02,2.98-2,5.52-4.26,7.25c-3.04,2.26-6.76,3.69-10.56,3.8c1.55-0.69,3.25-0.97,4.74-1.8c0.98-0.46,1.8-1.17,2.57-1.93
				c0.34-0.22,0.69-0.44,1.03-0.67c1.68-1,2.65-3.19,1.92-5.07c-0.88-2.34-3.54-3.58-5.94-3.37c-0.93,0.11-1.84,0.39-2.78,0.4
				c-0.55-1.58-2.17-2.41-3.76-2.49c3.32-1.1,6.98-0.41,10,1.21c1.56,0.78,2.91,1.9,4.35,2.88c-0.83-2.28-2.89-3.83-5.05-4.79
				c-3.4-1.51-7.48-1.79-10.91-0.2c-2.71,1.27-4.66,3.84-5.53,6.66c1.26-1.77,2.7-3.41,4.55-4.58c-0.55,0.91-0.97,1.92-0.96,3
				c-2.69,1.6-2.72,5.58-1.01,7.91c0.78,1.18,2.09,1.77,3.33,2.32c0.02,0.08,0.07,0.24,0.1,0.33c-1.81-0.34-3.58-1.1-4.92-2.4
				c-2.09-1.98-3.22-5.05-2.67-7.9C495.6,103.03,497.42,101.13,499.47,99.94z"/>
			<path class="st10" d="M568.05,105.01c2.93-0.41,5.91-0.15,8.79,0.47c3.17,0.64,6.25,2.04,8.62,4.25
				c1.98,1.84,2.18,4.86,1.55,7.34c-0.68,2.8-3.02,4.87-5.53,6.08c-2.72,1.37-5.89,1.45-8.84,0.99c-3.92-0.68-7.41-2.97-10.06-5.87
				c-1.43-1.64-2.68-3.64-2.77-5.88c-0.09-2.31,1.29-4.47,3.12-5.78C564.5,105.73,566.28,105.27,568.05,105.01 M569.72,105.95
				c-3.04,0.56-5.78,2.51-7.33,5.18c1.38-1.13,2.82-2.18,4.45-2.92c-0.51,1.26-0.62,2.8,0.3,3.9c-1.44,0.22-2.98,0.41-4.21,1.25
				c-1,0.69-0.58,2.06-0.27,3.01c0.98,2.25,2.96,3.86,4.96,5.18c1.94,1.15,4.04,2.22,6.34,2.32c2.66,0.21,5.62-0.36,7.49-2.4
				c0.8-0.88,1.57-2.01,1.43-3.25c0.1-0.17,0.18-0.35,0.26-0.53c0.8-1.4,0.61-3.26-0.37-4.53c-1.03-1.33-2.62-2.16-4.25-2.49
				c-1.95-0.44-3.92-0.01-5.79,0.57c0.65-1.49-0.07-3.13-1.28-4.09c1.81-0.06,3.64,0.18,5.35,0.8c3.63,1.28,6.58,3.91,9.08,6.76
				c-0.41-2.57-2.34-4.56-4.4-5.99C578.08,106.43,573.81,105.18,569.72,105.95z"/>
		</g>
		<g id="_x23_7dcc00ff_2_">
			<path class="st11" d="M647.12,100.27c0.89-0.62,1.71-1.32,2.55-2.01c-0.02,1.34-0.07,2.69-0.52,3.96
				c-0.4,1.14-0.8,2.32-0.66,3.55c-0.34,0.4-0.67,0.8-1,1.19C647.83,104.76,648.29,102.31,647.12,100.27z"/>
			<path class="st11" d="M636.64,106.75c1.75-0.94,3.49-1.91,5.2-2.94c-0.22,1.32-0.12,2.68-0.42,3.98c-0.65,2-2.12,3.56-3.5,5.08
				c-0.58,0.57-0.7,1.4-0.83,2.16c-0.47,0.42-0.97,0.81-1.5,1.17C636.87,113.27,637.46,109.9,636.64,106.75z"/>
			<path class="st11" d="M625.48,112.12c2.01-0.9,4.01-1.83,6.02-2.74c-0.52,1.05-1.04,2.13-1.22,3.31
				c-0.23,1.4-0.37,2.89-1.22,4.08c-0.72,1.11-1.87,1.79-2.92,2.56c-0.56,0.35-0.63,1.05-0.88,1.61c-0.33,0.38-0.92,0.48-1.34,0.74
				C625.59,118.81,626.26,115.36,625.48,112.12z"/>
			<path class="st11" d="M613.98,116.62c2.04-0.68,4-1.56,6.05-2.18c-0.53,0.91-1.16,1.79-1.39,2.83c-0.27,1.23-0.35,2.56-1.05,3.65
				c-0.79,1.38-2.19,2.22-3.47,3.09c-0.5,0.27-0.63,0.84-0.74,1.35c-0.14,0.01-0.43,0.01-0.58,0.02c-0.1,0-0.31,0-0.42,0
				C613.85,122.74,614.45,119.6,613.98,116.62z"/>
			<path class="st11" d="M595.71,120.23c4.07,0.64,8.06-0.65,11.99-1.51c-0.98,0.97-2.09,1.82-2.97,2.89
				c-1.27,1.49-2.49,3.1-4.19,4.12c-1.41,0.84-3.08,0.97-4.68,1.05c-0.12,0.6-0.23,1.2-0.3,1.81l-0.32-0.18
				c-0.14-0.06-0.41-0.17-0.55-0.23C595.65,125.67,596.06,122.92,595.71,120.23z"/>
		</g>
		<g id="_x23_afff00ff_2_">
			<path class="st12" d="M502.25,100.09c3.42-1.6,7.5-1.32,10.91,0.2c2.15,0.96,4.21,2.5,5.05,4.79c-1.43-0.98-2.79-2.09-4.35-2.88
				c-3.03-1.62-6.68-2.31-10-1.21c1.6,0.08,3.21,0.91,3.76,2.49c0.16,0.64,0.24,1.29,0.27,1.95c-0.33,1.45-1.38,2.63-2.79,3.11
				c-1.08,0.1-2.27,0.06-3.17-0.63c-0.93-0.61-1.4-1.68-1.61-2.73c-0.01-1.08,0.42-2.09,0.96-3c-1.85,1.17-3.29,2.82-4.55,4.58
				C497.59,103.93,499.53,101.36,502.25,100.09z"/>
			<path class="st12" d="M569.72,105.95c4.09-0.78,8.36,0.48,11.75,2.79c2.06,1.43,3.99,3.42,4.4,5.99
				c-2.5-2.86-5.44-5.48-9.08-6.76c-1.71-0.61-3.54-0.86-5.35-0.8c1.2,0.95,1.93,2.6,1.28,4.09c-0.12,0.27-0.25,0.54-0.39,0.8
				c-0.81,1.02-2.15,1.33-3.39,1.18c-0.71-0.14-1.29-0.62-1.8-1.11c-0.92-1.1-0.8-2.64-0.3-3.9c-1.63,0.73-3.07,1.79-4.45,2.92
				C563.94,108.46,566.68,106.51,569.72,105.95z"/>
		</g>
		<g id="_x23_ffff00ff_2_">
			<path class="st13" d="M547.37,101.98c0.54-0.3,1.18-0.27,1.78-0.33c1.08,0.4,1.87,1.52,1.57,2.69c-0.26,1.56-2.36,2.25-3.55,1.25
				c-0.75-0.54-0.77-1.53-0.91-2.35C546.63,102.82,546.93,102.34,547.37,101.98z"/>
		</g>
		<g id="_x23_80c80aff_2_">
			<path class="st14" d="M507.61,103.47c0.95-0.02,1.85-0.29,2.78-0.4c2.4-0.21,5.06,1.04,5.94,3.37c0.73,1.88-0.24,4.06-1.92,5.07
				c0.31-1.2,1.44-2.61,0.35-3.73c-1.75-1.78-4.26-2.57-6.63-3.15c-0.08,0.26-0.17,0.53-0.25,0.79
				C507.85,104.77,507.77,104.11,507.61,103.47z"/>
			<path class="st14" d="M572.73,111.26c1.87-0.58,3.84-1.01,5.79-0.57c1.63,0.33,3.21,1.16,4.25,2.49
				c0.98,1.26,1.17,3.13,0.37,4.53c-0.31-1.3-1.01-2.52-2.15-3.25c-2.56-1.67-5.67-2.12-8.65-2.4
				C572.47,111.79,572.61,111.53,572.73,111.26z"/>
		</g>
		<g id="_x23_75b800ff_2_">
			<path class="st15" d="M508.13,104.63c2.37,0.58,4.88,1.37,6.63,3.15c1.09,1.13-0.04,2.53-0.35,3.73
				c-0.34,0.23-0.68,0.45-1.03,0.67c-2.11,0.57-4.55,0.57-6.36-0.79c-1-0.65-1.59-1.73-1.93-2.85c1.41-0.48,2.47-1.66,2.79-3.11
				C507.96,105.16,508.05,104.89,508.13,104.63z"/>
			<path class="st15" d="M568.94,113.24c1.25,0.14,2.58-0.17,3.39-1.18c2.98,0.28,6.09,0.73,8.65,2.4c1.14,0.73,1.84,1.95,2.15,3.25
				c-0.07,0.18-0.16,0.36-0.26,0.53c-2.01,2.56-5.65,3.29-8.68,2.45c-1.88-0.51-3.72-1.75-4.34-3.67c-0.41-1.19-0.05-2.44,0.39-3.56
				C569.81,113.39,569.37,113.32,568.94,113.24z"/>
		</g>
		<g id="_x23_498200ff_2_">
			<path class="st16" d="M499.3,113.08c-1.72-2.33-1.68-6.3,1.01-7.91c0.21,1.05,0.68,2.12,1.61,2.73c0.9,0.69,2.09,0.73,3.17,0.63
				c0.34,1.12,0.93,2.2,1.93,2.85c1.81,1.37,4.25,1.37,6.36,0.79c-0.77,0.75-1.59,1.47-2.57,1.93c-1.49,0.83-3.19,1.11-4.74,1.8
				c-1.09,0.29-2.23-0.06-3.33-0.14l-0.01-0.05c-0.03-0.08-0.07-0.24-0.1-0.33C501.38,114.84,500.07,114.26,499.3,113.08z"/>
			<path class="st16" d="M562.93,113.38c1.24-0.84,2.77-1.04,4.21-1.25c0.51,0.49,1.09,0.97,1.8,1.11c0.43,0.09,0.87,0.15,1.3,0.22
				c-0.44,1.12-0.8,2.37-0.39,3.56c0.62,1.92,2.46,3.16,4.34,3.67c3.03,0.84,6.67,0.11,8.68-2.45c0.14,1.24-0.64,2.37-1.43,3.25
				c-1.87,2.04-4.83,2.61-7.49,2.4c-2.3-0.1-4.4-1.18-6.34-2.32c-2-1.32-3.98-2.93-4.96-5.18
				C562.35,115.44,561.93,114.07,562.93,113.38z"/>
		</g>
		<g id="_x23_ff4295ff_2_">
			<path class="st17" d="M502.32,119.64c1.93-0.35,3.89-0.41,5.85-0.3c1.5,0.14,3.04,0.35,4.41,1.03c0.53,0.28,1.13,0.71,1.14,1.37
				c-0.07,0.86-0.92,1.3-1.58,1.69c-1.78,0.77-3.71,1.07-5.63,1.27c-1.65,0.04-3.3,0.05-4.93-0.19c-1.33-0.26-2.81-0.52-3.78-1.54
				c-0.72-0.96,0.36-1.9,1.17-2.28C500.03,120.17,501.17,119.86,502.32,119.64z"/>
			<path class="st17" d="M560.03,126.99c0.44-0.73,1.38-0.85,2.15-0.94c2.65-0.19,5.29,0.31,7.84,0.96
				c2.69,0.73,5.38,1.64,7.74,3.16c0.78,0.46,1.37,1.17,1.87,1.92c-0.6,1.48-2.4,1.31-3.71,1.39c-3.42-0.14-6.8-0.95-10.01-2.12
				c-1.74-0.67-3.5-1.42-4.96-2.61C560.46,128.3,559.85,127.72,560.03,126.99z"/>
		</g>
		<g id="_x23_111d008a_2_">
			<path class="st18" d="M612.82,125.38c0.26,0.61-1.05,0.4-0.42,0C612.51,125.38,612.71,125.38,612.82,125.38z"/>
		</g>
		<g id="_x23_21370064_2_">
			<path class="st19" d="M595.23,128.42c-0.13,0.46-1.06,0.07-0.55-0.23C594.82,128.25,595.09,128.36,595.23,128.42z"/>
		</g>
		<g id="_x23_ff005cff_2_">
			<path class="st20" d="M530.02,132.27c0.89-0.46,1.69-1.26,2.76-1.25c1.49,0.36,1.77,2.15,2.98,2.89
				c1.23,0.72,2.65,1.17,4.08,1.16c-0.32,0.69-0.64,1.38-0.96,2.07c-3.41-1.69-7.83-1.27-10.63,1.4c-0.49-1.95-0.8-3.95-1.56-5.82
				C527.81,132.93,529.02,132.86,530.02,132.27z"/>
		</g>
		<g id="_x23_ce0054ff_2_">
			<path class="st21" d="M528.25,138.55c2.8-2.67,7.22-3.08,10.63-1.4c-0.93,1.95-1.9,3.96-3.48,5.48c-1,0.97-2.54,1.57-3.88,0.95
				C529.48,142.79,528.81,140.47,528.25,138.55z"/>
		</g>
	</g>
</g>
<g id="Text">
	<g>
		
			<linearGradient id="SVGID_1_" gradientUnits="userSpaceOnUse" x1="38.9988" y1="51.8071" x2="403.8414" y2="416.6498" gradientTransform="matrix(1 0 0 -1 0 200)">
			<stop  offset="0.0279" style="stop-color:#F1CDC5"/>
			<stop  offset="0.1536" style="stop-color:#F8C0D8"/>
			<stop  offset="0.2654" style="stop-color:#D4EBDB"/>
			<stop  offset="0.5838" style="stop-color:#D4EBDB"/>
			<stop  offset="0.6508" style="stop-color:#D6C6DC"/>
			<stop  offset="0.8631" style="stop-color:#F8C0D8"/>
			<stop  offset="1" style="stop-color:#F1CDC5"/>
		</linearGradient>
		<path class="st22" d="M117.31,81.55c-4.14-1.97-6.74-1.12-11.99-1.16c-2.88,0.08-5.04,0.13-6.49,0.16
			c-14.26,0.16-42.17,0.18-55.36-0.28c-4.46,0.03-10.16,1.55-10.06,6.81c0,2.7,1.21,4.94,3.61,6.64c2.03,1.45,4.79,2.98,8.2,4.55
			c-5.79,14.68-9.3,31.2-6.34,45.22c1.79,4.29,4.36,3.46,9.08,3.65c5.09-0.02,5.72,0.54,9.65-0.6c1.78-0.56,2.58-1.44,2.89-2.3
			c0.76,1.85,4.7,2.93,6.43,2.91h15.06c1.72,0.07,5.9-0.98,6.43-2.77c0.36,0.73,1.14,1.49,2.72,2.05
			c1.69,0.61,15.31,0.81,15.44,0.81c3.06,0,4.51-1.64,5.2-3.04c0.68-1.44,0.99-3.89,0.99-7.69c0.06-5.45-0.13-9.28-1.05-16.41
			c-1.19-9.43-2.09-13.09-3.99-20.36c4.04-1.91,7.84-4.03,10.5-7.57C120.71,88.99,121.62,83.61,117.31,81.55z M109.05,89.33
			c-0.03,1.23-1.12,2.35-3.24,3.33c-0.3-0.87-1.15-3.41-1.11-3.39C104.85,89.18,108.9,89.23,109.05,89.33z M46.26,89.37
			c-0.02-0.56,2.53-0.58,3.23-0.47c-0.19,0.38-0.96,1.97-1.24,2.56C47.17,90.69,46.26,89.57,46.26,89.37z M62.97,88.96
			c2.05-0.15,4.71,1.17,4.45,8.32c-3.88-0.42-8.26-1.24-11.57-2.3C57.99,91.01,60.41,88.95,62.97,88.96z M81.68,96.05
			c0-4.71,1.01-7.1,3.01-7.1c1.65,0,3.15,0.81,4.48,2.39c1.42,1.7,2.5,3.53,3.22,5.44c-2.65,0.55-6.24,0.86-10.71,0.92
			C81.68,97.7,81.68,96.05,81.68,96.05z M60.4,142.13c-0.31-0.57-0.88-1.17-1.77-1.85l-5.03-3.57c-2.17-1.55-2.98-1.92-3.85-4.25
			c-2.49-7.47-1.43-14.19,0.59-23.16c0.76-2.89,1.69-5.71,2.79-8.43c4.97,1.44,9.75,2.42,14.29,2.92v30.72
			c0,0.65-0.19,1.17-0.59,1.64C65.28,138.17,61.15,139.72,60.4,142.13z M88.41,142.19c-0.73-1.77-4.99-4.5-6.22-5.89
			c-0.23-0.27-0.51-0.65-0.51-1v-31.14c3.95-0.06,8.85-0.4,12.72-1.17c3.01,10.35,4.47,21.02,3.39,30.41
			c-0.12,0.63-0.72,1.74-0.82,1.84c-0.12,0.12-1.68,1.23-2.23,1.58C90.62,139.56,88.97,141.07,88.41,142.19z"/>
		
			<linearGradient id="SVGID_2_" gradientUnits="userSpaceOnUse" x1="52.4005" y1="-20.9565" x2="429.3197" y2="355.9627" gradientTransform="matrix(1 0 0 -1 0 200)">
			<stop  offset="0.0279" style="stop-color:#F1CDC5"/>
			<stop  offset="0.1536" style="stop-color:#F8C0D8"/>
			<stop  offset="0.2654" style="stop-color:#D4EBDB"/>
			<stop  offset="0.5838" style="stop-color:#D4EBDB"/>
			<stop  offset="0.6508" style="stop-color:#D6C6DC"/>
			<stop  offset="0.8631" style="stop-color:#F8C0D8"/>
			<stop  offset="1" style="stop-color:#F1CDC5"/>
		</linearGradient>
		<path class="st23" d="M165.4,126.7c-0.41-0.16-0.87-0.12-1.25,0.09s-0.66,0.58-0.74,1.01c-0.42,2.05-1.6,3.38-3.7,4.2
			c-2.38,0.92-5.07,1.39-8.01,1.39c-2.83,0-5.75-0.61-8.71-1.8c0.34-1.54,0.89-2.74,1.63-3.58c2.2-2.46,5.2-4.6,8.93-6.36
			c0,0,11.41-6.17,12.58-7.29c3.02-2.98,4.55-6.16,4.55-9.46c0-2.04-0.88-3.77-2.55-5c-1.46-1.08-5.57-2.79-10.54-2.79h-10.4
			c-6.34,0-11.41,1.65-15.09,4.9c-2.1,1.89-6.02,7.37-8.03,15.37c-0.57,2.9-0.86,5.9-0.86,8.93c0,3.51,2.87,14.13,8.84,19.13
			c2.91,2.29,6.29,3.46,10.03,3.46c0.29,0,15.64,0.1,15.81,0.1c2.43,0,4.73-0.61,6.84-1.81c2.1-1.2,3.82-2.88,5.09-5
			c1.28-2.13,1.94-4.52,1.94-7.13C171.67,131.11,169.46,128.23,165.4,126.7z M146.14,116.5c-2.3,1.31-4.36,2.87-6.15,4.66
			c-1.19,1.25-2.2,2.73-3.01,4.43c-0.73-2.1-1.09-4.21-1.09-6.3c0-4.82,1.16-8.67,3.49-11.47c1.61-2.06,4.64-3.11,8.99-3.11
			c2.35,0,4.37,0.35,5.98,1.05c1.27,0.55,1.81,1.37,1.81,2.75c0,1.12-0.28,1.92-0.86,2.43C154.48,111.67,146.14,116.5,146.14,116.5z
			"/>
		
			<linearGradient id="SVGID_3_" gradientUnits="userSpaceOnUse" x1="45.6077" y1="-80.801" x2="474.2855" y2="347.8767" gradientTransform="matrix(1 0 0 -1 0 200)">
			<stop  offset="0.0279" style="stop-color:#F1CDC5"/>
			<stop  offset="0.1536" style="stop-color:#F8C0D8"/>
			<stop  offset="0.2654" style="stop-color:#D4EBDB"/>
			<stop  offset="0.5838" style="stop-color:#D4EBDB"/>
			<stop  offset="0.6508" style="stop-color:#D6C6DC"/>
			<stop  offset="0.8631" style="stop-color:#F8C0D8"/>
			<stop  offset="1" style="stop-color:#F1CDC5"/>
		</linearGradient>
		<path class="st24" d="M221.76,137.78l-0.54-0.28V82.01c0-0.45,0-1.81-1.01-2.54c-0.53-0.38-1.27-0.56-2.32-0.56h-9.61
			c-2.58,0-7.96,0-7.96,3.19c0,1.54,0.72,2.78,1.98,3.47c0,0,4.44,2.6,4.55,2.68c0.01,0.07,0.03,10.86,0.03,10.86
			c-0.03-0.01-0.05-0.02-0.06-0.03l-2.77-1.38c-2.48-1.23-5.69-1.85-9.52-1.85c-4.84,0-8.9,1.6-12.06,4.76
			c-3.05,3.04-5.27,6.68-6.6,10.81c-1.31,4.06-1.98,7.77-1.98,11.02c0,6.87,1.7,12.88,5.06,17.9c3.65,5.23,11.14,7.88,17.01,7.88
			s11.37-0.8,11.37-0.8s6.8,0.61,10.01,0.61c3.21,0,4.88-0.62,7.45-1.84c0.06-0.03,0.12-0.06,0.18-0.1
			c1.13-0.74,2.42-1.75,2.42-3.12c0-0.06,0-0.13-0.01-0.19C227.18,141.32,225.57,139.87,221.76,137.78z M206.88,107.9v19.2
			c0,2.31-0.36,3.52-0.66,4.13c-0.35,0.7-1.76,0.81-2.56,0.81c-0.19,0-7.28,0-8.17,0c-2.48,0-4.37-1.17-5.79-3.56
			c-1.55-2.62-2.34-5.71-2.34-9.19c0-3.79,0.83-7.32,2.46-10.49c1.5-2.92,3.78-4.45,6.96-4.68
			C201.48,104.11,205.57,107.32,206.88,107.9z"/>
		
			<linearGradient id="SVGID_4_" gradientUnits="userSpaceOnUse" x1="68.4821" y1="-108.7391" x2="436.5902" y2="259.3691" gradientTransform="matrix(1 0 0 -1 0 200)">
			<stop  offset="0.0279" style="stop-color:#F1CDC5"/>
			<stop  offset="0.1536" style="stop-color:#F8C0D8"/>
			<stop  offset="0.2654" style="stop-color:#D4EBDB"/>
			<stop  offset="0.5838" style="stop-color:#D4EBDB"/>
			<stop  offset="0.6508" style="stop-color:#D6C6DC"/>
			<stop  offset="0.8631" style="stop-color:#F8C0D8"/>
			<stop  offset="1" style="stop-color:#F1CDC5"/>
		</linearGradient>
		<path class="st25" d="M280.08,139.62c-0.47-0.31-2.93-1.66-3.09-1.76v-27.73c0-2.68-0.54-5.06-1.61-7.07
			c-1.1-2.06-2.7-3.67-4.76-4.78c-2.02-1.09-4.37-1.64-6.99-1.64c-3.65,0-7.19,1.39-10.53,4.11c0.01-0.1,0.62-3.55-5.87-3.55h-11.5
			c-1.99,0-6.65,0-6.65,2.95c0,0.95,0.35,1.78,1.01,2.39c0.43,0.4,3.32,2.34,3.68,2.73c0.2,0.21,0.28,32.65,0.28,32.65
			c-0.15,0.09-3.6,2.05-4.15,2.53c-0.8,0.7-1.21,1.48-1.21,2.32c0,0.84,0.37,2.04,2.15,2.97c2.16,1.13,4.22,1.71,6.14,1.71h8.59
			c1.89,0,3.98-0.57,6.21-1.7c0.03-0.02,0.07-0.04,0.1-0.06c1.33-0.81,2-1.79,2-2.92c0-2.69-5.2-4.76-5.38-4.87v-25.53
			c0,0,8.88-3.48,10.13-3.48c1.92,0,3.87,0.58,3.87,4.9v24.12c-0.2,0.13-3.56,2.08-4.08,2.55c-0.78,0.69-1.18,1.47-1.18,2.3
			c0,0.82,0.37,2.01,2.15,2.97c2.16,1.13,4.19,1.71,6.04,1.71h8.69c1.89,0,3.92-0.58,6.05-1.71c0.04-0.02,0.09-0.05,0.13-0.08
			c0.5-0.34,2.04-1.36,2.04-2.89C282.37,142.1,280.63,139.98,280.08,139.62z"/>
		
			<linearGradient id="SVGID_5_" gradientUnits="userSpaceOnUse" x1="96.4201" y1="-138.78" x2="440.0303" y2="204.8302" gradientTransform="matrix(1 0 0 -1 0 200)">
			<stop  offset="0.0279" style="stop-color:#F1CDC5"/>
			<stop  offset="0.1536" style="stop-color:#F8C0D8"/>
			<stop  offset="0.2654" style="stop-color:#D4EBDB"/>
			<stop  offset="0.5838" style="stop-color:#D4EBDB"/>
			<stop  offset="0.6508" style="stop-color:#D6C6DC"/>
			<stop  offset="0.8631" style="stop-color:#F8C0D8"/>
			<stop  offset="1" style="stop-color:#F1CDC5"/>
		</linearGradient>
		<path class="st26" d="M332.95,137.91v-27.66c0-4.12-1.44-7.23-4.29-9.25c-2.68-1.9-6.15-2.87-10.38-2.87h-0.01
			c0,0-17.9,0.28-18.71,0.27c-3.25,0-6.22,0.47-8.82,1.41c-3.86,1.38-4.67,4.19-4.67,6.29c0,2.94,1.43,5.2,4.13,6.54
			c2.4,1.19,5.28,1.79,8.57,1.79c1.07,0,5.85-0.82,5.85-0.82l-5.9,2.25c-4.95,1.92-8.68,4.43-11.11,7.46
			c-2.48,3.09-3.73,6.4-3.73,9.83c0,1.93,0.52,3.86,1.55,5.72c1.01,1.83,2.37,3.38,4.02,4.61c3.2,2.41,7.51,3.64,12.81,3.64
			c0.5,0,20.49,0.45,23.38,0.45s7.33-1.17,8.76-1.74c2.43-0.97,2.94-2.37,2.94-3.37C337.35,140.43,333.22,138.09,332.95,137.91z
			 M317.95,113.1v17.43c-2.3,0.46-2.95,0.63-3.27,0.73c0,0-4.07,1.41-6.12,1.41c-2.11,0-3.99-0.51-5.75-1.55
			c-1.53-0.9-2.24-2.04-2.24-3.6c0-3.45,2.84-6.54,8.42-9.16l4.57-2.07C315.15,115.46,317.67,113.57,317.95,113.1z M300.15,106.83
			c0-0.71,1.83-1.9,8.7-1.9c4.85,0,7.15,1.3,8.22,2.94c-0.94-0.63-2.41-1.05-4.7-1.05c-0.4,0-1.32,0.05-4.67,0.52
			c-2.34,0.33-4.01,0.49-4.94,0.49c-0.82,0-1.56-0.15-2.19-0.46C300.15,107.17,300.15,107.01,300.15,106.83z"/>
		
			<linearGradient id="SVGID_6_" gradientUnits="userSpaceOnUse" x1="-113.8601" y1="-380.8536" x2="535.4082" y2="268.4146" gradientTransform="matrix(1 0 0 -1 0 200)">
			<stop  offset="0.0279" style="stop-color:#F1CDC5"/>
			<stop  offset="0.1536" style="stop-color:#F8C0D8"/>
			<stop  offset="0.2654" style="stop-color:#D4EBDB"/>
			<stop  offset="0.5838" style="stop-color:#D4EBDB"/>
			<stop  offset="0.6508" style="stop-color:#D6C6DC"/>
			<stop  offset="0.8631" style="stop-color:#F8C0D8"/>
			<stop  offset="1" style="stop-color:#F1CDC5"/>
		</linearGradient>
		<path class="st27" d="M360.33,93.12c2.6,0,5.03-0.89,7.23-2.66c2.3-1.84,3.47-4.13,3.47-6.79c0-0.91-1.65-5.55-1.72-5.72
			c-0.2-0.49-0.64-0.84-1.16-0.92s-1.05,0.12-1.38,0.53c-0.81,0.98-1.74,1.44-2.94,1.44c-1.17,0-11.4-1.6-12.98-1.6
			c-3.33,0-6.16,0.72-8.39,2.14c-2.42,1.53-3.7,3.82-3.7,6.61c0,4.75,4.32,8.62,4.32,8.62l-0.14,0.01c-4.09,0-4.7,1.94-4.7,3.1
			c0,1.53,1.12,2.96,3.46,4.37c0,0,5.09,3.01,5.1,3.01l0,0c0.02,0.03,0.16,33.35,0.16,33.35c-0.24,0.14-5.81,2.76-5.81,5.21
			c0,1.26,1.11,2.14,2.08,2.76c0.04,0.02,0.08,0.05,0.12,0.07c2.34,1.22,4.56,1.84,6.6,1.84h8.79c2.08,0,4.28-0.63,6.5-1.84
			c1.52-0.79,2.3-1.81,2.3-3.03c0.08-2.14-5.6-4.87-5.78-4.98c0,0,0.08-33.31,0.11-33.45c0.07-0.05,2.92-1.39,4.45-2.49
			c1.89-1.36,2.74-2.51,2.74-3.75c0-1.88-1.63-3.12-4.83-3.71c-2.48-0.45-10.25-0.68-10.25-0.68s-1.74-2.43-1.78-2.58
			C352.31,91.96,358.85,93.12,360.33,93.12z"/>
		
			<linearGradient id="SVGID_7_" gradientUnits="userSpaceOnUse" x1="86.8518" y1="-233.8136" x2="469.3051" y2="148.6397" gradientTransform="matrix(1 0 0 -1 0 200)">
			<stop  offset="0.0279" style="stop-color:#F1CDC5"/>
			<stop  offset="0.1536" style="stop-color:#F8C0D8"/>
			<stop  offset="0.2654" style="stop-color:#D4EBDB"/>
			<stop  offset="0.5838" style="stop-color:#D4EBDB"/>
			<stop  offset="0.6508" style="stop-color:#D6C6DC"/>
			<stop  offset="0.8631" style="stop-color:#F8C0D8"/>
			<stop  offset="1" style="stop-color:#F1CDC5"/>
		</linearGradient>
		<path class="st28" d="M411.21,126.44c-0.39,0.21-2.27,4.36-4.27,5.15c-2.27,0.91-4.85,1.36-7.66,1.36c-2.7,0-5.49-0.59-8.3-1.76
			c0.33-1.52,0.85-2.71,1.56-3.54c2.11-2.42,4.98-4.53,8.56-6.27c0,0,7.4-3.79,8.55-4.46c1.23-0.72,2.41-1.64,3.55-2.75
			c2.9-2.95,4.37-6.09,4.37-9.35c0-2.02-0.85-3.73-2.46-4.95c-1.42-1.07-5.27-2.78-10.17-2.78h-9.98c-6.11,0-11,1.63-14.54,4.86
			c-2.02,1.87-8.54,10.23-8.54,24.01c0,9.28,5.77,16.69,8.5,18.9c2.81,2.28,6.07,3.43,9.69,3.43c0.28,0,15.02,0.1,15.19,0.1
			c2.35,0,4.58-0.6,6.62-1.8c2.03-1.19,6.77-5.35,6.77-11.99C418.62,127.95,411.6,126.22,411.21,126.44z M398.72,113.5l-4.81,2.78
			c-2.21,1.3-4.2,2.84-5.92,4.61c-1.11,1.2-2.06,2.61-2.82,4.23c-0.67-2.03-1-4.06-1-6.08c0-4.77,1.12-8.57,3.35-11.34
			c1.54-2.02,4.42-3.05,8.58-3.05c2.25,0,4.17,0.35,5.71,1.03c1.21,0.53,1.72,1.34,1.72,2.7c0,1.11-0.27,1.9-0.82,2.4
			C401.91,111.51,400.57,112.42,398.72,113.5z"/>
		
			<linearGradient id="SVGID_8_" gradientUnits="userSpaceOnUse" x1="102.6521" y1="-267.0891" x2="470.7602" y2="101.019" gradientTransform="matrix(1 0 0 -1 0 200)">
			<stop  offset="0.0279" style="stop-color:#F1CDC5"/>
			<stop  offset="0.1536" style="stop-color:#F8C0D8"/>
			<stop  offset="0.2654" style="stop-color:#D4EBDB"/>
			<stop  offset="0.5838" style="stop-color:#D4EBDB"/>
			<stop  offset="0.6508" style="stop-color:#D6C6DC"/>
			<stop  offset="0.8631" style="stop-color:#F8C0D8"/>
			<stop  offset="1" style="stop-color:#F1CDC5"/>
		</linearGradient>
		<path class="st29" d="M472.62,139.6c-0.47-0.31-2.93-1.66-3.09-1.76v-27.73c0-2.68-0.54-5.06-1.61-7.07
			c-1.1-2.06-2.7-3.67-4.76-4.78c-2.02-1.09-4.37-1.64-6.99-1.64c-3.65,0-7.19,1.39-10.53,4.11c0.01-0.1,0.62-3.55-5.87-3.55h-11.5
			c-1.99,0-6.65,0-6.65,2.95c0,0.95,0.35,1.78,1.01,2.39c0.43,0.4,3.32,2.34,3.68,2.73c0.2,0.21,0.28,32.65,0.28,32.65
			c-0.15,0.09-3.6,2.05-4.15,2.53c-0.8,0.7-1.21,1.48-1.21,2.32c0,0.84,0.37,2.04,2.15,2.97c2.16,1.13,4.22,1.71,6.14,1.71h8.59
			c1.89,0,3.98-0.57,6.21-1.7c0.03-0.02,0.07-0.04,0.1-0.06c1.33-0.81,2-1.79,2-2.92c0-2.69-5.2-4.76-5.38-4.87v-25.53
			c0,0,8.88-3.48,10.13-3.48c1.92,0,3.87,0.58,3.87,4.9v24.12c-0.2,0.13-3.56,2.08-4.08,2.55c-0.78,0.69-1.18,1.47-1.18,2.3
			c0,0.82,0.37,2.01,2.15,2.97c2.16,1.13,4.19,1.71,6.04,1.71h8.69c1.89,0,3.92-0.58,6.05-1.71c0.04-0.02,0.09-0.05,0.13-0.08
			c0.5-0.34,2.04-1.36,2.04-2.89C474.91,142.08,473.17,139.96,472.62,139.6z"/>
	</g>
</g>
</svg>
