<?xml version="1.0" encoding="utf-8"?>
<!-- Generator: Adobe Illustrator 24.2.1, SVG Export Plug-In . SVG Version: 6.00 Build 0)  -->
<svg version="1.1" xmlns="http://www.w3.org/2000/svg" xmlns:xlink="http://www.w3.org/1999/xlink" x="0px" y="0px"
	 viewBox="0 0 256 256" style="enable-background:new 0 0 256 256;" xml:space="preserve">
<style type="text/css">
	.st0{fill:#FFFFFF;}
	.st1{fill:#A0A0A0;}
	.st2{fill:#3D7DFF;}
</style>
<g id="Background">
	<rect class="st0" width="256" height="256"/>
</g>
<g id="Logo">
	<g id="Layer_1_1_">
	</g>
	<g id="Layer_2_1_">
		<path class="st1" d="M128,74.82c-30.93,0-56,25.07-56,56s25.07,56,56,56s56-25.07,56-56C184,99.9,158.93,74.82,128,74.82z"/>
		<g>
			<path class="st2" d="M231,104.21c-3.07,0-6.15-1.12-8.56-3.39l0,0c-0.39-0.37-39.71-36.55-94.44-36.55s-94.05,36.18-94.44,36.55
				c-5.03,4.71-12.94,4.46-17.66-0.56s-4.5-12.91,0.52-17.64C18.29,80.85,63.07,39.26,128,39.26s109.71,41.58,111.58,43.35
				c5.02,4.74,5.25,12.65,0.51,17.67C237.63,102.89,234.32,104.21,231,104.21z"/>
		</g>
		<g>
			<path class="st1" d="M128,223.21c-64.93,0-109.71-41.58-111.58-43.35c-5.02-4.74-5.25-12.65-0.51-17.67
				c4.73-5.01,12.63-5.25,17.65-0.53l0,0c0.39,0.37,39.71,36.55,94.44,36.55s94.05-36.18,94.44-36.55
				c5.03-4.71,12.94-4.46,17.66,0.56s4.5,12.91-0.52,17.64C237.71,181.63,192.93,223.21,128,223.21z"/>
		</g>
	</g>
	<path class="st0" d="M165.6,125.26c-4.93,4.93-12.92,4.93-17.85,0l-18.12-18.12c-4.93-4.93-4.93-12.92,0-17.85
		c4.93-4.93,12.92-4.93,17.85,0l18.12,18.12C170.53,112.34,170.53,120.33,165.6,125.26z"/>
</g>
</svg>
