<?xml version="1.0" encoding="utf-8"?>
<!-- Generator: Adobe Illustrator 25.0.0, SVG Export Plug-In . SVG Version: 6.00 Build 0)  -->
<svg version="1.1" id="Layer_1" xmlns="http://www.w3.org/2000/svg" xmlns:xlink="http://www.w3.org/1999/xlink" x="0px" y="0px"
	 viewBox="0 0 1000 300" style="enable-background:new 0 0 1000 300;" xml:space="preserve">
<style type="text/css">
	.st0{fill:#FFFFFF;}
	.st1{fill:#A0A0A0;}
	.st2{fill:#3D7DFF;}
	.st3{fill:#222222;}
</style>
<g>
	<rect x="32" y="22" class="st0" width="256" height="256"/>
	<g id="Background">
		<rect x="32" y="22" class="st0" width="256" height="256"/>
	</g>
	<g id="Logo">
		<g id="Layer_1_1_">
		</g>
		<g id="Layer_2_1_">
			<path class="st1" d="M160,96.82c-30.93,0-56,25.07-56,56s25.07,56,56,56s56-25.07,56-56C216,121.9,190.93,96.82,160,96.82z"/>
			<g>
				<path class="st2" d="M263,126.21c-3.07,0-6.15-1.12-8.56-3.39l0,0c-0.39-0.37-39.71-36.55-94.44-36.55s-94.05,36.18-94.44,36.55
					c-5.03,4.71-12.94,4.46-17.66-0.56s-4.5-12.91,0.52-17.64c1.87-1.77,46.65-43.36,111.58-43.36s109.71,41.58,111.58,43.35
					c5.02,4.74,5.25,12.65,0.51,17.67C269.63,124.89,266.32,126.21,263,126.21z"/>
			</g>
			<g>
				<path class="st1" d="M160,245.21c-64.93,0-109.71-41.58-111.58-43.35c-5.02-4.74-5.25-12.65-0.51-17.67
					c4.73-5.01,12.63-5.25,17.65-0.53l0,0c0.39,0.37,39.71,36.55,94.44,36.55s94.05-36.18,94.44-36.55
					c5.03-4.71,12.94-4.46,17.66,0.56s4.5,12.91-0.52,17.64C269.71,203.63,224.93,245.21,160,245.21z"/>
			</g>
		</g>
		<path class="st0" d="M197.6,147.26c-4.93,4.93-12.92,4.93-17.85,0l-18.12-18.12c-4.93-4.93-4.93-12.92,0-17.85s12.92-4.93,17.85,0
			l18.12,18.12C202.53,134.34,202.53,142.33,197.6,147.26z"/>
	</g>
</g>
<g>
	<path class="st3" d="M464.99,149.22c0-17.72,0.58-49.26,0.58-49.45h-0.39c-0.2,0.19-5.06,10.71-18.88,35.24l-28.04,49.84h-7.2
		l-27.84-49.26c-14.41-25.12-19.08-35.63-19.28-35.82h-0.39c0,0.19,0.58,31.73,0.58,49.45v69.12h-11.1V82.05h11.68l49.84,88.98h0.39
		l49.65-88.98h11.68v136.29h-11.29V149.22z"/>
	<path class="st3" d="M508.39,82.05h89.56v10.51h-78.46v48.67h61.91v10.71h-61.91v55.88h78.66v10.51h-89.76V82.05z"/>
	<path class="st3" d="M626.18,179.01c1.17,22.19,19.27,31.54,41.86,31.54c22,0,35.24-8.96,35.24-27.45
		c0-24.92-24.33-26.48-41.27-30.37c-18.69-4.09-42.44-10.32-42.44-37.38c0-22.58,16.35-36.02,44.39-36.02
		c24.73,0,43.03,10.32,48.67,33.49l-10.91,2.92c-3.89-16.55-15.77-26.28-37.77-26.28c-21.81,0-33.1,9.73-33.1,25.31
		c0,19.86,18.3,24.53,37.77,28.42c20.44,3.89,45.95,9.54,45.95,39.72c0,25.12-17.33,37.77-46.92,37.77
		c-22.58,0-48.67-7.59-52.18-38.74L626.18,179.01z"/>
	<path class="st3" d="M737.92,82.05h89.56v10.51h-78.46v48.67h61.91v10.71h-61.91v55.88h78.66v10.51h-89.76V82.05z"/>
	<path class="st3" d="M864.85,99.38h-0.39c0,0.19,0.58,15.57,0.58,32.32v86.64h-11.1V82.05h11.29l85.86,117.98h0.2
		c0-0.2-0.39-15.58-0.39-31.74V82.05H962v136.29h-11.29L864.85,99.38z"/>
</g>
</svg>
