<?xml version="1.0" encoding="utf-8"?>
<!-- Generator: Adobe Illustrator 24.2.1, SVG Export Plug-In . SVG Version: 6.00 Build 0)  -->
<svg version="1.1"
	 id="svg2" inkscape:version="0.92.2 (5c3e80d, 2017-08-06)" sodipodi:docname="Mr. Boom.svg" xmlns:cc="http://creativecommons.org/ns#" xmlns:dc="http://purl.org/dc/elements/1.1/" xmlns:inkscape="http://www.inkscape.org/namespaces/inkscape" xmlns:rdf="http://www.w3.org/1999/02/22-rdf-syntax-ns#" xmlns:sodipodi="http://sodipodi.sourceforge.net/DTD/sodipodi-0.dtd" xmlns:svg="http://www.w3.org/2000/svg"
	 xmlns="http://www.w3.org/2000/svg" xmlns:xlink="http://www.w3.org/1999/xlink" x="0px" y="0px" viewBox="0 0 256 83.76"
	 style="enable-background:new 0 0 256 83.76;" xml:space="preserve">
<style type="text/css">
	.st0{fill:#191919;}
	.st1{fill:#FFFFFF;}
</style>
<sodipodi:namedview  bordercolor="#666666" borderopacity="1" gridtolerance="10" guidetolerance="10" id="namedview286" inkscape:current-layer="svg2" inkscape:cx="192.58051" inkscape:cy="206.10605" inkscape:pagecheckerboard="true" inkscape:pageopacity="0" inkscape:pageshadow="2" inkscape:window-height="705" inkscape:window-maximized="1" inkscape:window-width="1024" inkscape:window-x="-8" inkscape:window-y="-8" inkscape:zoom="0.69140623" objecttolerance="10" pagecolor="#ffffff" showgrid="true">
	<inkscape:grid  color="#3f3fff" empspacing="32" id="grid1074" opacity="0" type="xygrid"></inkscape:grid>
</sodipodi:namedview>
<g id="g1675">
	<g id="g1620">
		<path id="path566" inkscape:connector-curvature="0" class="st0" d="M100.23,5.78L100.23,5.78c-0.77,0-1.56,0.01-2.36,0.04
			l-3.98,0.13l-1.75,3.57L86.9,20.26c-0.63,0.22-1.32,0.48-2.04,0.77v-1.99h-6.61h-6.61h-4.09l-1.83,3.66l-2.1,4.19
			c-1.51-0.77-3.24-1.24-5.21-1.24c-3.92,0-7.45,1.95-10.16,4.11c-3.53-2.74-6.7-4.12-9.45-4.12c-0.33,0-0.66,0.02-0.97,0.05
			C29.4,26.64,13.89,47.81,5.93,69.25c-1.13,3.04,0.02,6.42,2.8,8.23l1.64,1.07h1.96h13.02h4.68l1.56-4.41
			c0.26-0.73,0.53-1.47,0.8-2.21h6.19h3.82l1.91-3.31c0.62-1.07,1.27-2.19,1.95-3.3h5.55h13.23h4.42L70,64l7.12,1.23
			c0.19,0.03,4.68,0.8,11.39,0.8c11.27,0,26.91-2.05,40.97-11.14c3.23,3.42,8.06,6.4,14.67,6.61c0.23,0.01,0.47,0.01,0.71,0.01
			c6.55,0,12.72-2.97,17.17-5.85c3.11,4.54,8.06,9.38,15.15,9.65c0.28,0.01,0.56,0.02,0.84,0.02c4.28,0,8.77-1.22,12.63-2.69v2.18
			l6.1,0.48l0.12,0.01l-0.01,0.01h0.14l6.36,0.5l3.79,0.29l0.55-0.79h2.79h12.63l-2.86,6.61h10.06h6.61h4.14l1.81-3.72
			c0.24-0.5,5.91-12.24,7.22-21.84c0.43-3.17,1.23-9.06-2.5-13.33c-2.37-2.71-5.91-4.09-10.53-4.09l-0.18,0l-1.54,0.01L234,29.66
			l-2.48,1.24c-3.13-2.56-7.77-5.46-12.8-5.46c-1.14,0-2.26,0.15-3.33,0.44c-2.09,0.57-4.25,1.44-6.27,2.4
			c-0.4-0.78-0.87-1.56-1.44-2.31c-3.48-4.6-9.2-6.93-17.01-6.93c-7.55,0-13.73,1.19-18.4,3.55c-4.01-4.65-10.81-9.92-21.13-10.16
			c-0.16,0-0.33,0-0.49,0h0c-6.42,0-11.61,2.83-15.66,6.78C129.92,12.81,118.02,5.78,100.23,5.78"/>
		<path id="path570" inkscape:connector-curvature="0" class="st1" d="M187.41,44.16c-2.67,3.51-6.14,5.26-7.75,3.9
			c-1.61-1.35-0.74-5.29,1.93-8.79c2.67-3.51,6.14-5.26,7.75-3.91C190.95,36.71,190.08,40.65,187.41,44.16 M151.37,41.27
			c-2.67,3.51-6.14,5.26-7.75,3.9c-1.61-1.35-0.74-5.29,1.93-8.8c2.67-3.51,6.14-5.26,7.75-3.9
			C154.91,33.83,154.05,37.77,151.37,41.27 M116.41,27.73c-0.69,2.69-12.91,2.74-12.91,2.74l1.14-6.76
			C111.68,22.24,117.1,25.04,116.41,27.73 M114.45,44.95c-1.19,5.43-18.7,3.06-18.7,3.06l2.63-7.84
			C98.38,40.17,115.64,39.52,114.45,44.95 M236.95,35.57l-6.61,3.31c0,0-7.33-8.22-13.23-6.61c-5.9,1.6-13.23,6.61-13.23,6.61
			s3.73-13.23-13.23-13.23c-16.96,0-19.84,6.61-19.84,6.61s-5.65-12.9-19.84-13.23c-14.18-0.32-19.84,19.63-19.84,19.63l-6.89-6.41
			c0,0,7.19-4.02,6.89-6.61c-0.3-2.59-10.44-13.98-33.06-13.23l-6.46,13.23c0,0-10.13,3.14-13.38,6.61v-6.61h-6.61l-6.61,13.23
			c0,0-1.84-6.61-6.61-6.61c-4.77,0-9.92,6.61-9.92,6.61s-6.8-6.96-9.92-6.61c-3.12,0.35-17.52,15.23-26.45,39.29
			c-0.06,0.16,0.04,0.28,0.21,0.39h13.02c0,0,7.52-21.25,10.6-21.58c3.08-0.32-3.64,14.96-3.64,14.96h6.27
			c0,0,10.26-17.82,12.92-18.33c2.65-0.51,0.31,11.72,0.31,11.72h13.23c0,0,11.11-26.89,22.78-25.39l-9.55,25.39
			c0,0,30.53,5.29,52.9-13.23c0,0,3.36,9.08,13.23,9.41c9.87,0.32,19.84-9.26,19.84-9.26s4.59,12.75,13.23,13.08
			c8.63,0.32,19.84-6.61,19.84-6.61v6.61l6.61,0.51c0,0,10.03-14.52,13.23-13.74c3.19,0.78-6.61,13.23-6.61,13.23h13.54
			c0,0,2.31-12.02,8.86-10.35c0,0,0.89,8.98-2.56,16.96h6.61c0,0,5.44-11.18,6.61-19.84C244.31,39.99,244.34,35.52,236.95,35.57"/>
	</g>
</g>
</svg>
