<?xml version="1.0" encoding="utf-8"?>
<!-- Generator: Adobe Illustrator 24.2.1, SVG Export Plug-In . SVG Version: 6.00 Build 0)  -->
<svg version="1.1" id="Layer_2_1_" xmlns="http://www.w3.org/2000/svg" xmlns:xlink="http://www.w3.org/1999/xlink" x="0px" y="0px"
	 viewBox="0 0 256 256" style="enable-background:new 0 0 256 256;" xml:space="preserve">
<style type="text/css">
	.st0{fill:#FFCC00;stroke:#000000;stroke-width:4.7747;stroke-linecap:round;stroke-linejoin:round;}
	.st1{fill:#0000FF;}
	.st2{fill:#FFFFFF;}
</style>
<g>
	<polygon class="st0" points="60.21,30.05 24.58,65.64 24.55,126.28 67.4,169.18 128.04,169.21 163.68,133.62 	"/>
	<polygon points="231.42,130.08 231.45,74.72 192.32,35.55 136.96,35.52 97.79,74.65 97.78,105.58 131.88,105.6 193.63,167.85 	"/>
	<g>
		<path d="M69.16,139.2c4.09,2.61,8.44,2.57,12.69,2.51c7.06-0.08,13.85-2.3,18.76-7.96c3.93-5.74,4.04-9.32,6.37-15.82
			c1.36-3.8,3.01-5.95,3.01-5.95s1.37,5.13,1.21,11.19c-0.11,4.04-0.83,8.33-3.33,12.4c-4.84,7.86-9.37,10.88-12.7,11.49
			c-3.33,0.6-12.7,1.81-18.75-0.91C71.71,144.03,69.16,139.2,69.16,139.2z M69.16,81.9L74,74.64h6.05c0,0,5.14,7.56,5.14,8.77
			c0,1.21-3.93,6.95-3.93,6.95l-7.86-0.3L69.16,81.9z M51.78,104.06c-3.18-0.71-6.05-3.63-6.05-3.63l1.21-3.63l3.63-2.42
			c0,0,3.63,0.3,4.84,1.21c1.21,0.91,2.42,4.84,2.42,4.84l-2.72,2.42C55.11,102.84,54.5,104.66,51.78,104.06z"/>
	</g>
	<path class="st1" d="M157.37,88.62l-8.08,3.2l-8.46-6.84l1.3-12.16l7.83-2.01l8.71,5.65L157.37,88.62z M166.89,66.53
		c0,0-1.01-4.76-0.19-5.02s2.42-5.69,2.42-5.69l5.91,1.3l2.55,5.54l-4.78,5.17L166.89,66.53z M185.9,132.23l-5.16-4.87l-2.5-11.75
		l12.37-5.99l1.49-7.14l-1.56-10.3l16.85-3.76l4.55,19.67l-1.73,8.33l-7.83,2.01l-2.48,11.9L185.9,132.23z"/>
</g>
<g>
	<g>
		<path d="M105.96,213.97c-2,1.53-4.65,2.3-7.96,2.3h-2.12c-1.01,0-1.74-0.14-2.2-0.42c-0.45-0.28-0.76-0.64-0.93-1.07
			c-0.17-0.44-0.25-1.63-0.25-3.58v-9.99c1.69,0,2.98,0.22,3.87,0.67c0.89,0.44,1.67,1.31,2.34,2.6c0.67,1.29,1.11,2.95,1.32,4.97h1
			v-18.58h-1c-0.28,2.76-0.93,4.84-1.94,6.25c-1.01,1.41-2.64,2.12-4.89,2.12h-0.71V184.8h3.64c2.69,0,4.52,0.16,5.49,0.47
			c1.68,0.52,2.97,1.34,3.89,2.46c0.92,1.12,1.63,2.96,2.13,5.52h1v-10.51H79v1.01c0.2-0.03,0.39-0.06,0.61-0.09h0.56
			c1.15,0,2.05,0.25,2.71,0.74c0.47,0.34,0.79,0.81,0.97,1.43c0.09,0.37,0.13,1.36,0.13,2.98v23.35c0,1.8-0.1,2.9-0.29,3.33
			c-0.24,0.6-0.59,1.02-1.04,1.27c-0.63,0.37-1.45,0.55-2.48,0.55H79v0.92h30.63l1.6-11.27h-0.96
			C109.39,210.1,107.96,212.44,105.96,213.97z"/>
		<path d="M66.04,183.69c1.98-0.03,3.39,0.46,4.23,1.47c0.61,0.75,0.92,2.2,0.92,4.34v15.22l-17.43-21.96H41.18v0.92
			c1.08,0.04,1.91,0.21,2.49,0.51c0.58,0.3,1.24,0.93,1.99,1.89l0.76,0.94v25.03c0,1.91-0.38,3.26-1.15,4.05
			c-0.77,0.8-2.13,1.2-4.08,1.22v0.92h12.6v-0.92h-0.84c-1.2,0-2.27-0.36-3.2-1.09c-0.93-0.72-1.4-2.12-1.4-4.19v-22.58l23.89,29.57
			h0.88v-29.55c0-1.68,0.14-2.87,0.43-3.57c0.29-0.69,0.69-1.19,1.2-1.5c0.44-0.26,1.26-0.48,2.41-0.66v-1.01H66.04V183.69z"/>
		<path d="M131.57,182.25c-10.77,0-18.59,7.46-18.59,18.49c0,10.72,7.56,18.28,18.28,18.28c10.72,0,18.38-7.56,18.38-18.33
			C149.64,189.96,141.97,182.25,131.57,182.25z M131.36,217.3c-5.9,0-9.22-5.44-9.22-16.36c0-10.87,3.26-16.98,8.96-16.98
			c6.06,0,9.37,6.06,9.37,17.09C140.47,211.71,137.31,217.3,131.36,217.3z"/>
	</g>
	<g>
		<g>
			<path d="M186.62,212.24v-7.19l-2.49,2.9c-1.76,2.04-3.43,3.49-4.96,4.3c-1.48,0.78-3.15,1.18-4.95,1.18
				c-2.15,0-3.91-0.52-5.2-1.53c-1.32-1.03-2.32-2.62-2.96-4.72c-0.69-2.24-1.04-4.77-1.04-7.53c0-2.75,0.47-5.28,1.4-7.51
				c0.68-1.65,1.73-2.94,3.2-3.96c1.46-1.01,3.02-1.5,4.77-1.5c2.1,0,3.94,0.67,5.61,2.03c1.66,1.36,2.82,3.38,3.44,6.01l0.26,1.09
				h3.46v-10.47v-3.64h-3.57l-0.17,1.22c-0.1,0.69-0.28,0.92-0.33,0.97c-0.12,0.12-0.21,0.14-0.32,0.15
				c-0.08-0.01-0.57-0.09-2.3-0.76c-2.7-1.05-5.3-1.58-7.75-1.58c-3.33,0-6.52,0.83-9.47,2.48c-2.97,1.65-5.36,4.01-7.1,7
				c-1.74,2.99-2.63,6.2-2.63,9.53c0,3.17,0.8,6.21,2.38,9.01c1.59,2.84,3.89,5.04,6.82,6.56c2.88,1.49,6.21,2.24,9.89,2.24
				c2.82,0,5.33-0.47,7.48-1.4c2.14-0.93,4.21-2.43,6.15-4.46L186.62,212.24z"/>
		</g>
		<path class="st2" d="M185.74,194.39h-0.92c-0.7-2.95-2.01-5.21-3.92-6.78c-1.91-1.57-4.08-2.36-6.51-2.36
			c-2.03,0-3.88,0.58-5.57,1.75c-1.69,1.17-2.93,2.69-3.71,4.58c-1,2.41-1.51,5.1-1.51,8.05c0,2.91,0.37,5.56,1.1,7.95
			c0.73,2.39,1.88,4.19,3.44,5.42c1.56,1.22,3.59,1.83,6.08,1.83c2.04,0,3.91-0.45,5.61-1.34c1.7-0.9,3.49-2.44,5.37-4.63v2.81
			c-1.82,1.9-3.72,3.28-5.69,4.14c-1.97,0.85-4.28,1.28-6.91,1.28c-3.47,0-6.55-0.7-9.24-2.09c-2.69-1.39-4.77-3.39-6.23-5.99
			c-1.46-2.6-2.19-5.38-2.19-8.32c0-3.1,0.81-6.04,2.43-8.82c1.62-2.78,3.81-4.94,6.57-6.47c2.76-1.53,5.68-2.3,8.78-2.3
			c2.28,0,4.7,0.49,7.24,1.48c1.47,0.57,2.4,0.86,2.8,0.86c0.51,0,0.95-0.19,1.33-0.56c0.38-0.37,0.62-0.97,0.73-1.78h0.92V194.39z"
			/>
		<path d="M221.99,190.27c-1.64-2.88-4.07-5.49-7.23-6.9c-2.54-1.13-5.88-1.67-9.95-1.67l-14.65,0h-1.42v3.71
			c1.77,0.06,3.92,0.14,4.05,0.21c0.36,0.21,0.45,0.37,0.47,0.42c0.03,0.09,0.16,1.38,0.16,3.37v21.41c0,1.78-0.08,2.36-0.12,2.51
			c-0.1,0.21-0.27,0.39-0.52,0.54c-0.16,0.09-0.55,0.25-1.44,0.25h-2.49v3.68h15.96c2.2,0,3.8-0.1,4.87-0.31
			c2.31-0.44,4.32-1.07,5.95-1.89c1.67-0.83,3.16-1.95,4.44-3.33c1.28-1.38,2.34-3.14,3.14-5.24c0.79-2.08,1.2-4.7,1.2-7.15
			C224.41,196.33,223.6,193.1,221.99,190.27z M210.15,210.96c-1.36,1.47-3.31,2.19-5.98,2.19c-0.95,0-1.32-0.14-1.41-0.18
			c-0.01-0.01-0.02-0.01-0.03-0.01c-0.03-0.15-0.11-0.63-0.11-1.92v-24.72c2.52,0.07,3.83,0.35,4.48,0.58
			c1.6,0.58,2.9,2.11,3.97,3.79c1.43,2.27,2.15,5.42,2.15,9.35C213.24,204.87,212.2,208.76,210.15,210.96z"/>
		<path class="st2" d="M220.76,190.97c-1.49-2.62-3.69-5.02-6.58-6.31c-2.36-1.06-5.49-1.58-9.37-1.58h-14.54v0.84h1.08
			c0.91,0,1.63,0.16,2.16,0.47c0.53,0.31,0.89,0.68,1.06,1.1c0.17,0.42,0.26,2.23,0.26,3.91v21.41c0,1.69-0.07,2.71-0.22,3.05
			c-0.24,0.52-0.61,0.92-1.11,1.22c-0.5,0.3-1.22,0.45-2.16,0.45h-1.08v0.84h14.54c2.09,0,3.62-0.1,4.6-0.29
			c2.2-0.42,4.07-1,5.59-1.76c1.52-0.76,2.87-1.77,4.04-3.02c1.17-1.26,2.12-2.85,2.85-4.77c0.74-1.93,1.1-4.36,1.1-6.65
			C222.99,196.56,222.25,193.59,220.76,190.97z M211.5,211.83c-1.69,1.82-4.13,2.73-7.32,2.73c-0.98,0-1.72-0.12-2.24-0.36
			c-0.36-0.16-0.62-0.39-0.77-0.7c-0.15-0.3-0.23-1.13-0.23-2.47v-26.16c3.2-0.02,5.48,0.22,6.86,0.72c1.95,0.7,3.55,2.47,4.79,4.42
			c1.57,2.5,2.35,5.83,2.35,10.01C214.94,205.21,213.79,209.36,211.5,211.83z"/>
	</g>
</g>
</svg>
