<?xml version="1.0" encoding="utf-8"?>
<!-- Generator: Adobe Illustrator 24.2.1, SVG Export Plug-In . SVG Version: 6.00 Build 0)  -->
<svg version="1.1" id="Layer_1" xmlns="http://www.w3.org/2000/svg" xmlns:xlink="http://www.w3.org/1999/xlink" x="0px" y="0px"
	 viewBox="0 0 500 70" style="enable-background:new 0 0 500 70;" xml:space="preserve">
<style type="text/css">
	.st0{fill:#FFFFFF;stroke:#231F20;stroke-width:2;stroke-miterlimit:10;}
</style>
<path class="st0" d="M420.88,4.56l0,60h-18v-30C402.88,10.68,420.88,4.56,420.88,4.56z M7.25,34.56v30h18v-32c0-5.52,4.48-10,10-10
	h10.5c1.93,0,3.5,1.57,3.5,3.5v38.5h18v-60h-30C20.68,4.56,7.25,17.99,7.25,34.56z M462.12,4.56c16.57,0,30,13.43,30,30v30h-18
	v-9.18c0-1.93-1.57-3.5-3.5-3.5h-17c-1.93,0-3.5,1.57-3.5,3.5v9.18h-18v-60H462.12z M474.12,34.38v-1.82c0-5.52-4.48-10-10-10h-10.5
	c-1.93,0-3.5,1.57-3.5,3.5v8.32c0,1.93,1.57,3.5,3.5,3.5h17C472.55,37.88,474.12,36.32,474.12,34.38z M201.94,4.56v18h32
	c5.52,0,10,4.48,10,10v32h18v-30c0-16.57-13.43-30-30-30H201.94z M132.15,22.56v-18h-60v30c0,16.57,13.43,30,30,30h30v-17h-38.5
	c-1.93,0-3.5-1.57-3.5-3.5v-0.5h42v-17h-42v-4H132.15z M361.65,4.62c16.57,0,30,13.43,30,30v17.32h-38.5c-1.93,0-3.5,1.57-3.5,3.5
	v9.18h-18v-60H361.65z M373.65,34.44v-1.82c0-5.52-4.48-10-10-10h-10.5c-1.93,0-3.5,1.57-3.5,3.5v8.32c0,1.93,1.57,3.5,3.5,3.5h17
	C372.08,37.94,373.65,36.37,373.65,34.44z M326.76,34.56c0,16.57-13.43,30-30,30s-30-13.43-30-30s13.43-30,30-30
	S326.76,17.99,326.76,34.56z M309.57,34.56c0-7.07-5.73-12.81-12.81-12.81s-12.81,5.73-12.81,12.81c0,7.07,5.73,12.81,12.81,12.81
	S309.57,41.63,309.57,34.56z M197.04,22.56v-18h-30c-16.57,0-30,13.43-30,30v9h42v0.5c0,1.93-1.57,3.5-3.5,3.5h-38.5v17h30
	c16.57,0,30-13.43,30-30v-8h-42v-4H197.04z"/>
</svg>
