<svg xmlns="http://www.w3.org/2000/svg" viewBox="0 0 270 60">
  <path d="m35.1 37.5-19-29.9H5.2v48h11V26.2l19.1 29.4h10.8v-48h-11v29.9zm95.7-29.9-10.7 27.9-10.6-27.9H97.9l-4.4 48h11l2.3-28.8L117 55.4h6.2l10.3-28.6 2.2 28.8h11l-4.3-48h-11.6zm117.9-.8c-9.7 0-19.5 7.6-19.5 24.9s9 24.8 19.5 24.8S268 49 268 31.7s-9.8-24.8-19.4-24.8Zm0 40.2c-6 0-8.5-6.8-8.5-15.2s2.5-15.3 8.5-15.3 8.4 6.9 8.4 15.3-2.5 15.2-8.4 15.2Zm-26.4-25c0-12.2-10.5-14.3-15.8-14.3h-17v48h11v-19l14.5 19h14l-16.5-20s9.8-2.7 9.8-13.7Zm-17.6 6.9h-4.3V16.5h4.3s6 0 6 6.2-6 6.2-6 6.2Zm-125.9 9c0 4.3-2 7.8-7.7 7.8s-7.8-3.5-7.8-7.8V7.6H52.4v31.8c0 8.3 4 17 18.7 17S90 47.7 90 39.4V7.6H79v30.3Zm99.5-8.1s4.1-3.5 4.1-9.1c0-4.4-3-13.8-16-13.8s-15.6 10.6-15.6 10.6l8.7 4s.8-6 7.1-6c2.4 0 5.8 1.5 5.8 5.5 0 7-8 5.7-8 5.7V34c2-.6 8.9-.4 8.9 6.8 0 2.7-1 6.2-6.7 6.2-7.9 0-8-7.4-8-7.4l-10 5.2s2.8 11.7 18.1 11.7c8.4 0 17.5-5.4 17.5-15.5 0-8.4-6-11.2-6-11.2Z" style="fill:#4ab5ff;stroke-width:0"/>
  <path d="M246.3 55.1c-5.8 0-10.8-2.2-14.4-6.3-4-4.5-6-11-6-19.5 0-17.8 10.2-25.8 20.4-25.8s20.5 8 20.5 25.8c0 8.4-2 15-6 19.6a19 19 0 0 1-14.5 6.2Zm0-49.6c-4.9 0-9.3 2-12.6 5.6-3.8 4.2-5.8 10.5-5.8 18.2s1.9 14.1 5.5 18.2c3.2 3.7 7.7 5.6 13 5.6 11.5 0 18.4-8.9 18.4-23.8 0-7.7-2-14-5.9-18.2a16.8 16.8 0 0 0-12.6-5.6Zm0 40.1c-5.9 0-9.4-6-9.4-16.2s3.4-16.2 9.4-16.2 9.5 5.9 9.5 16.2-3.6 16.2-9.5 16.2Zm0-30.4c-6.7 0-7.4 10-7.4 14.2 0 3.3.5 14.2 7.4 14.2s7.5-10.9 7.5-14.2c0-4.3-.8-14.2-7.5-14.2Zm-17.5 39.1h-16.6l-13.1-17v17h-12.9v-50h17.9c8.2 0 16.9 4 16.9 15.3a15 15 0 0 1-9.2 14.2l17 20.5Zm-15.6-2h11.3l-16.1-19.4 1.5-.5c.3 0 9-2.7 9-12.8 0-12.3-11.3-13.3-14.8-13.3h-15.9v46h8.9v-21l16 21Zm-10.9-24.8h-5.2V13.1h5.2c2.5 0 7.1 1.5 7.1 7.2s-4.6 7.2-7 7.2Zm-3.2-2h3.2c.6 0 5.1-.2 5.1-5.2s-4.5-5.2-5-5.2H199v10.4ZM68.8 55C51.6 55 49 43.9 49 37V4.2h13v31.3c0 3.1 1.1 6.8 6.8 6.8 4.4 0 6.6-2.3 6.6-6.8V4.2h13.1V37c0 6.8-2.6 18-19.7 18ZM51 6.3V37c0 7.3 3.1 16 17.8 16s17.7-8.7 17.7-16V6.2h-9v29.3c0 5.6-3.2 8.8-8.7 8.8s-8.9-3.2-8.9-8.8V6.2H51Zm113.4 48.8a20 20 0 0 1-15.6-6.2c-2.8-3-3.6-6.1-3.6-6.3l-.2-.7 12.2-6.3v1.6c0 .3.3 6.4 7 6.4 4 0 5.7-1.6 5.7-5.1 0-2.2-.7-3.9-2-4.9a7.2 7.2 0 0 0-5.6-1l-1.3.3v-9.7l1.2.2s3.5.5 5.4-1.2c1-.8 1.5-2 1.5-3.6 0-3.4-3-4.4-4.8-4.4a5.8 5.8 0 0 0-6.1 5l-.2 1.4-1.3-.6-9.4-4.3.1-.8c0-.1 2.9-11.4 16.6-11.4s17 9.7 17 14.8a14 14 0 0 1-3.5 9c1.9 1.3 5.4 4.7 5.4 11.3 0 10.7-9.5 16.5-18.5 16.5Zm-17-12.2c.9 2.5 4.7 10.3 17 10.3 8 0 16.5-5.1 16.5-14.6 0-7.5-5.2-10.1-5.4-10.2l-1.4-.7 1.2-1s3.8-3.3 3.8-8.4c0-.5-.2-12.8-15-12.8-10.2 0-13.6 6.8-14.5 9l6.9 3.2c.8-2.4 3-5.5 7.8-5.5 3.3 0 6.8 2.2 6.8 6.4 0 2.3-.8 4-2.2 5.2a8.9 8.9 0 0 1-5.9 1.7v5c1.7-.2 4.1.1 6 1.5 1.4 1 2.9 3 2.9 6.5 0 4.6-2.7 7.1-7.7 7.1a8.2 8.2 0 0 1-8.8-6.8l-8 4.1ZM31.7 4.2v27.5L14.2 4.2H2v50h12.9v-27l17.6 27h12.3v-50h-13Zm11 48h-9.2l-19-29.1h-1.7v29.1h-9v-46h9.3l19 29.8h1.6V6.2h9v46Zm98.3-48h-13.2l-10.1 26.1-9.9-26H94.6l-4.5 50h13l2-25.1 8.8 24.8h7.7l8.9-24.8 1.9 25h13l-4.4-50Zm-9 19.5h-1.7L120.2 52h-4.9l-10-28.2h-1.8l-2.3 28.5h-9l4.2-46h10l11.3 29.6L129 6.3h10l4.2 46h-9L132 23.8Z" style="fill:#fff;stroke-width:0"/>
</svg>
