<svg xmlns="http://www.w3.org/2000/svg" viewBox="0 0 960 540">
  <path d="M290 0h670v540H290z" style="fill:#125175"/>
  <path d="M287.9 540H0V0h785l-37.8 164.5-283.7 214.8L287.9 540z" style="fill:#2674a4"/>
  <path d="M751.7 0s-4.5 72-53 110.6c-51.7 41.2-125 36.2-181.1 71.5-81.1 48.8-46 174.2-131.8 253.7a319 319 0 0 1-125.3 73.4c-47.6 15.6-114 13.6-146.6 30.8h208s36-63.6 83-100.2c42.2-32.9 144.8-64.4 224.3-100.3 34.7-15.7 98.1-46.2 138.3-114 36.4-61.4 51.2-158 59-185.8C834.4 11.9 839.2 0 839.2 0h-87.5Z" style="fill:#05283d"/>
  <path d="m294.1 290.4-28.6-44.9h-16.2v72h16.4v-44.2l28.7 44.2h16.2v-72h-16.5v44.9zm143.6-44.9-16.2 41.8-15.8-41.8h-17.4l-6.6 72.1h16.5l3.5-43.3 15.2 42.9h9.4l15.4-42.9 3.3 43.3h16.6l-6.5-72.1h-17.4zm176.8-1.1c-14.5 0-29.2 11.3-29.2 37.2s13.4 37.2 29.2 37.2 29.2-11.2 29.2-37.2-14.7-37.2-29.2-37.2Zm0 60.2c-8.9 0-12.7-10.3-12.7-22.9s3.8-22.8 12.7-22.8 12.7 10.2 12.7 22.8-3.8 22.9-12.7 22.9ZM575 267c0-18.2-15.8-21.4-23.8-21.4h-25.4v72h16.3V289l22 28.6h21l-24.9-29.9s14.8-4.1 14.8-20.6Zm-26.5 10.4h-6.4v-18.6h6.4s9.2 0 9.2 9.3-9.2 9.3-9.2 9.3Zm-188.8 13.5c0 6.5-3 11.7-11.5 11.7s-11.8-5.2-11.8-11.7v-45.4h-16.3v47.7c0 12.5 6 25.5 28 25.5s28.2-13 28.2-25.5v-47.7h-16.6v45.4Zm149.2-12.1s6.2-5.2 6.2-13.7c0-6.5-4.4-20.7-24-20.7s-23.5 16-23.5 16l13.1 5.9s1.2-8.8 10.7-8.8c3.6 0 8.7 2 8.7 8 0 10.7-12 8.7-12 8.7V285c3-.8 13.3-.5 13.3 10.3 0 4-1.5 9.2-10 9.2-11.9 0-12-11-12-11l-15.1 7.8s4.3 17.6 27.3 17.6c12.6 0 26.2-8.2 26.2-23.3 0-12.6-9-16.8-9-16.8Z" style="fill:#4ab5ff"/>
  <path d="M611 316.8c-8.8 0-16.3-3.3-21.7-9.4-6-6.9-9-16.7-9-29.4 0-26.7 15.4-38.7 30.7-38.7s30.7 12 30.7 38.7c0 12.7-3 22.6-9 29.4a28 28 0 0 1-21.7 9.4Zm0-74.5c-7.3 0-14 3-19 8.4-5.7 6.4-8.7 15.8-8.7 27.3s2.8 21.2 8.3 27.4a25 25 0 0 0 19.4 8.4c17.3 0 27.7-13.4 27.7-35.8 0-11.5-3-21-8.8-27.3a25.2 25.2 0 0 0-19-8.4Zm0 60.2c-9 0-14.2-9-14.2-24.3s5.2-24.4 14.2-24.4 14.1 9 14.1 24.4-5.3 24.3-14.1 24.3Zm0-45.6c-10.1 0-11.2 14.9-11.2 21.3 0 5 .8 21.4 11.2 21.4s11.1-16.4 11.1-21.4c0-6.4-1-21.3-11.1-21.3Zm-26.3 58.6h-25l-19.6-25.6v25.6h-19.3v-75h26.8c12.3 0 25.3 6.1 25.3 23 0 13.6-9.4 19.4-13.7 21.3l25.5 30.7Zm-23.5-3h17l-24.1-29.1 2.2-.7c.5-.1 13.6-4 13.6-19.2 0-18.5-17-20-22.3-20h-23.8v69H537v-31.4l24.1 31.4ZM545 275.4h-8v-21.6h7.9c3.7 0 10.6 2.2 10.6 10.8s-7 10.8-10.6 10.8Zm-4.9-3h4.9c.8 0 7.6-.3 7.6-7.8s-6.8-7.8-7.6-7.8h-5v15.6Zm-195.5 44.3c-25.7 0-29.6-17-29.6-27v-49.2h19.3v46.8c0 4.7 1.8 10.3 10.3 10.3 6.7 0 10-3.5 10-10.3v-46.9h19.6v49.2c0 10.1-3.9 27.1-29.6 27.1ZM318 243.4v46.2c0 11 4.6 24.1 26.6 24.1s26.6-13.1 26.6-24v-46.2h-13.6v43.8c0 8.4-4.7 13.3-13 13.3s-13.2-4.9-13.2-13.3v-43.9H318Zm170 73.4a30 30 0 0 1-23.4-9.3 23.3 23.3 0 0 1-5.3-9.4l-.3-1.2 18.3-9.4v2.4c0 .4.3 9.6 10.5 9.6 5.8 0 8.6-2.5 8.6-7.7 0-3.3-1-5.7-3.1-7.3-3-2.1-7-2-8.4-1.5l-1.9.5V269l1.7.3s5.3.8 8.3-1.7c1.4-1.2 2-3 2-5.5 0-5.2-4.5-6.6-7.1-6.6a9 9 0 0 0-9.2 7.6l-.3 2-1.8-.9-14.2-6.5.2-1.2c0-.1 4.3-17 25-17s25.5 14.5 25.5 22.2c0 6.5-3.4 11.2-5.4 13.4 2.9 2 8.1 7.1 8.1 17 0 16.1-14.3 24.8-27.7 24.8Zm-25.5-18.3c1.4 3.7 7.1 15.3 25.6 15.3 12 0 24.7-7.6 24.7-21.8 0-11.3-7.8-15.2-8.1-15.4l-2-1 1.7-1.5s5.7-5 5.7-12.5c0-.8-.3-19.2-22.6-19.2-15.2 0-20.3 10-21.6 13.6l10.3 4.6c1.2-3.5 4.5-8.2 11.7-8.2 5 0 10.2 3.3 10.2 9.6 0 3.4-1.1 6-3.2 7.8a13.3 13.3 0 0 1-8.9 2.5v7.4c2.6-.2 6.2.3 9 2.4 2 1.5 4.4 4.4 4.4 9.7 0 6.9-4.1 10.7-11.6 10.7-9.6 0-12.3-6.7-13.1-10.3l-12.2 6.3ZM289 240.4v41.3l-26.2-41.2h-18.6v75h19.4v-40.6l26.5 40.6h18.5v-75H289Zm16.6 72h-13.9l-28.5-43.7h-2.6v43.7h-13.4v-69h14l28.3 44.6h2.5v-44.6h13.6v69Zm147.3-72h-19.8L418 279.6l-14.8-39h-19.8l-6.9 75H396l3-37.7 13.3 37.3h11.5l13.3-37.3 3 37.7h19.6l-6.8-75Zm-13.4 29.3H437l-15.2 42.4h-7.3l-15-42.4h-2.7l-3.4 42.8h-13.5l6.3-69h15l16.9 44.4 17.2-44.4h15l6.2 69h-13.6l-3.3-42.8Z" style="fill:#fff"/>
</svg>