<?xml version="1.0" encoding="utf-8"?>
<!-- Generator: Adobe Illustrator 24.2.1, SVG Export Plug-In . SVG Version: 6.00 Build 0)  -->
<svg version="1.1" id="Layer_1" xmlns="http://www.w3.org/2000/svg" xmlns:xlink="http://www.w3.org/1999/xlink" x="0px" y="0px"
	 viewBox="0 0 180 45" style="enable-background:new 0 0 180 45;" xml:space="preserve">
<style type="text/css">
	.st0{fill:#FFFFFF;}
	.st1{fill:#231F20;}
</style>
<g id="Fills">
	<polygon class="st0" points="5.41,7.05 5.41,28.53 5.87,33.94 10.06,33.71 12.21,31.69 12.07,25.83 12.65,21.41 20.82,33.32 
		25.85,32.76 28,30.24 27.45,18.52 28.01,4.49 22.53,5.01 20.13,7.38 20.41,16.59 13.05,4.49 9.12,4.79 	"/>
	<polygon class="st0" points="30.06,33.43 32.65,33.65 37.35,33.32 41.24,31.41 43.88,26.47 47.77,33.62 53.71,32.88 56.29,30.47 
		52.35,24.88 49.35,19 56.76,5.97 55.86,5.24 50.74,4.49 47.24,6.23 43.41,11.19 38.51,5.22 33.94,5.53 30.73,7.71 38.05,20.88 
		33.59,27.41 	"/>
	<polygon class="st0" points="79.89,4.49 60.19,5.05 59.35,7.38 59.79,33.32 61.71,33.94 69.94,33.32 75.18,33.65 79.25,32.88 
		81.35,29.94 80.88,26.07 78.4,26.47 66.76,26.53 66.71,22.5 77.54,22.24 79.89,19.41 79.54,14.11 66.24,16.11 66.82,11.45 
		71.29,11.18 77.54,11.71 79.54,8.88 	"/>
	<path class="st0" d="M87.29,33.65l-4.12-0.25V14.9l3.76-2.59L90,12.67v1.81l4.18-1.78c0,0,3.19-1.22,5.48,1.07
		c2.29,2.3,2.05,7.22,2.05,7.22l0.24,8.94l-2.29,3.12l-4.24,0.33L95.29,22c0,0-0.2-4.11-3.66-4.11C90,17.88,90,22,90,22l-0.44,9.58
		L87.29,33.65z"/>
	<path class="st0" d="M121.35,11.97l-2.04,1.89c0,0-2.8-1.59-4.26-1.59s-4.15,0.03-5.52,1.67c-3.35,3.34-4.47,6.83-4.47,10.95
		c0,4.13,1.12,5.71,2.35,7.24c1.24,1.53,4.59,1.59,6.15,1.53s4.5-3.33,4.5-3.33l-0.29,5.8l-2.71,1.72c0,0-0.82-0.36-1.89-0.96
		s-0.65-2.55-0.65-2.55h-4.46l-2.3,1.66c0,5.24,5.1,6.35,7.79,6.35s5.92-1.6,7.79-3.59c1.88-1.99,2.84-6.41,3.17-11.02
		c0.33-4.6,0.54-15.78,0.54-15.78h-3.7V11.97z M116.18,29.06c0,0-3.52-0.81-3.52-5.14s2.39-5.88,2.39-5.88
		c1.54-0.21,3.6,2.29,3.77,6.07C119,27.88,116.18,29.06,116.18,29.06z"/>
	<polygon class="st0" points="127.71,6.53 131.1,5.06 133.67,5.06 133.67,9.94 131.76,11.45 127.41,12.08 	"/>
	<polygon class="st0" points="128.94,13.04 133.67,12.71 134.23,30.59 132.12,33.13 127.76,34.02 127.76,14.48 	"/>
	<path class="st0" d="M137.06,14.89l3.82-2.59l3.12,0.37v1.74c0,0,3.29-2.11,5.24-2.11s5.59,0.03,6.18,5.22s0.59,12.8,0.59,12.8
		l-2.27,2.81l-4.14,0.18l-0.53-11.69c0,0-0.35-3.39-2.81-3.6c-2.45-0.21-2.49,3.97-2.49,3.97l-0.23,9.58l-2.6,2.07l-3.88-0.33
		L137.06,14.89L137.06,14.89z"/>
	<path class="st0" d="M171.53,27.08c0,0-0.76,1.65-3.15,1.5c-2.38-0.15-2.51-3.71-2.51-3.71l9.85-0.35l2.4-2.03
		c0,0-0.42-3.69-1.59-6.38s-4.65-3.45-8.96-3.45c-7.54,0-8.57,7.03-8.99,9.33c-0.41,2.29-0.38,5.46,1.47,8.7
		c2.18,3.81,4.64,2.63,8.21,2.63c1.6,0,4.79-0.93,6.49-2.18c1.71-1.25,1.71-4.74,1.71-4.74l-3.53-0.33L171.53,27.08z M167.86,17.52
		c0.96-0.05,2.32,2.48,2.32,2.48h-3.21C166.96,20,166.9,17.57,167.86,17.52z"/>
	<path class="st0" d="M101.62,40.55H3.36C2.62,40.55,2,39.94,2,39.19l0,0c0-0.75,0.61-1.36,1.36-1.36h98.26
		c0.75,0,1.36,0.61,1.36,1.36l0,0C102.98,39.94,102.37,40.55,101.62,40.55z"/>
	<path class="st0" d="M175.84,40.55h-48.26c-0.75,0-1.36-0.61-1.36-1.36l0,0c0-0.75,0.61-1.36,1.36-1.36h48.26
		c0.75,0,1.36,0.61,1.36,1.36l0,0C177.2,39.94,176.59,40.55,175.84,40.55z"/>
</g>
<g id="Strokes">
	<g>
		<path class="st1" d="M27.34,31.69c-0.18,0.37-0.55,0.85-1.06,1.41c-0.26,0.18-0.55,0.26-0.84,0.26c-0.11,0-0.36-0.07-0.51-0.07
			c-0.04,0-0.58,0.07-1.64,0.22c-1.06,0.11-1.6,0.18-1.68,0.18c-0.69,0-1.09-0.04-1.17-0.11c-0.47-0.41-1.06-1.15-1.82-2.22
			c-0.62-0.92-1.28-1.81-1.9-2.74C15.88,27.36,14.64,25.47,13,23c-0.22,1.11-0.33,2.11-0.33,3v2.15c0,0.04,0.04,0.56,0.07,1.55
			s0.07,1.52,0.07,1.59c0,0.41-0.26,0.92-0.73,1.48c-0.47,0.55-0.95,0.92-1.49,1.11c-0.84,0.33-2.11,0.52-3.75,0.52H6.01
			c-0.4,0-0.58,0-0.62-0.04c-0.15-0.04-0.22-0.22-0.22-0.52c0-0.11,0-0.3,0.04-0.52c0.04-0.48,0.04-1.44-0.07-2.81
			c-0.11-1.07-0.18-2.18-0.29-3.26l0.18-6.18L4.92,9.19c0-0.41-0.22-1.52-0.22-1.67c0-0.04,0.07-0.15,0.22-0.3
			c-0.11-0.1-0.14-0.21-0.11-0.4C5.5,6.34,6.16,5.9,6.85,5.42C7.69,4.86,8.38,4.49,9,4.31c0.4-0.11,1.68-0.19,3.86-0.19
			c0.36,0,0.62,0.07,0.73,0.19c0.04,0.04,0.4,0.67,1.09,1.81c2.11,3.48,3.75,6.33,4.96,8.55v-5c-0.07-1.07,0-1.92,0.25-2.48
			c0.4-0.92,1.17-1.78,2.22-2.63c0.11-0.07,0.58-0.15,1.42-0.18c0.62-0.04,1.6-0.07,2.88-0.11c0.26-0.04,1.2-0.37,1.31-0.37
			c0.47,0,0.73,0.3,0.73,0.89l-0.55,7.4v10.29c0,0.11,0.18,0.81,0.22,1.11c-0.04,0.78,0,2,0.04,3.66c0,0.11,0.07,0.59,0.18,1.44
			s0.18,1.29,0.18,1.37C28.54,30.47,27.82,31.14,27.34,31.69z M25.15,25.77l-0.44-9.51l0.18-8.99c-0.11,0-0.4-0.07-0.51-0.07
			c-0.04,0-1.2,0.15-3.43,0.48c-0.04,0.44-0.11,1.11-0.22,2c0,2.52-0.07,3.63-0.07,3.29l0.62,9.36c0-0.26-0.04,0.52-0.11,2.4
			c-0.22,0.26-0.44,0.37-0.66,0.37c-0.25,0-0.4-0.11-0.47-0.3c-0.36-1-0.95-2.33-1.75-4c-0.8-1.11-1.75-2.48-2.88-4.11
			c-0.44-0.78-1.09-1.92-1.93-3.44c-0.55-0.7-1.2-1.59-1.97-2.66C11.15,9.85,10.6,8.74,9.87,7.3C9.4,7.23,8.93,7.19,8.38,7.19H7.69
			C7.29,7.23,7,7.23,6.85,7.23C6.6,7.31,6.27,7.31,5.87,7.19v19.98l0.4,4.03v2.22h1.79c0.15,0,0.98-0.07,1.09-0.07
			c0.15,0,0.47-0.07,0.58-0.07L9.66,20.44c-0.07-0.92-0.15-1.85-0.22-2.74c-0.07-0.7-0.11-1.07-0.11-1.11
			c0-0.93,0.29-1.41,0.87-1.41c0.18,0,0.29,0,0.33,0.04c0.15,0.22,0.29,0.55,0.44,0.96c0.18,0.59,0.33,0.92,0.36,1.04
			c1.17,2.59,2.15,4.55,2.99,5.88c1.71,2.74,3.24,5,4.67,6.77c0.44,0.63,0.87,1.29,1.28,1.92c0.51,0.67,1.09,1,1.71,1
			s1.6-0.11,2.99-0.33L25.15,25.77z M11.63,4.94C10.24,4.9,8.75,5.42,7.18,6.45c0.36,0,0.95,0.04,1.75,0.11
			c0.8,0.04,1.2,0.07,1.2,0.07c-0.04,0,0.66-0.55,2.08-1.7L11.63,4.94L11.63,4.94z M12.07,21.29c0-0.07-0.18-0.44-0.55-1.11
			c-0.44-0.81-0.73-1.33-0.84-1.59v11.88c-0.04,0.26,0.04,0.96,0.18,2.04c0.58-0.63,0.88-0.96,0.88-1v-6.29L12.07,21.29z
			 M20.2,21.29c-0.04-0.19-0.04-0.85-0.04-2.07c0-0.85-0.11-1.55-0.33-2.04c-0.73-1.85-1.9-4.11-3.5-6.81
			c-1.42-2.37-2.52-4-3.21-4.85c-1.39,1.04-2.08,1.63-2.08,1.74s0.22,0.59,0.62,1.44c0.44,0.85,0.8,1.52,1.13,2
			c0.51,0.63,1.13,1.48,1.86,2.52c0.8,1.44,2.37,3.89,4.74,7.29c0.26,0.41,0.51,0.89,0.69,1.37L20.2,21.29z M23.84,5.16
			c-0.88,0.11-1.71,0.67-2.48,1.63h1.24c0.8,0.04,1.64-0.11,2.52-0.48c0.25-0.11,0.73-0.52,1.49-1.3
			C25.7,5.05,24.75,5.12,23.84,5.16z M27.01,20.52v-3.07c0,0.04,0.04-0.3,0.07-1.07c0.04-0.67,0.07-1.15,0.04-1.44
			c-0.15-1.37-0.07-4.44,0.25-9.21c-0.36,0.26-0.84,0.67-1.42,1.18c-0.04,1.15-0.07,1.96-0.07,2.52c0.04,0.78,0.04,1.55,0.07,2.33
			c0.04,1.07,0,1.92-0.11,2.55L26.17,25v6.7c0.33-0.48,0.69-0.92,1.09-1.29c0.11-0.11,0.18-0.41,0.18-0.89L27.01,20.52z"/>
		<path class="st1" d="M56.68,7.19c-0.74,1.52-1.55,3.03-2.48,4.55c-0.63,1.04-1.29,2.07-1.92,3.11c-0.41,0.63-0.78,1.26-1.15,1.89
			c-0.7,1.18-1.07,1.92-1.07,2.18c0,0.11,0.11,0.44,0.37,1c0.44,0.96,1.11,2.26,2.03,3.85c1.15,2,2.14,3.48,2.96,4.44
			c0.33,0.41,0.59,0.96,0.74,1.67c0.26,0,0.44,0.04,0.59,0.11v0.52c0,0.19-0.92,1.22-2.77,3.18c0,0-0.26-0.04-0.78-0.07
			c-0.48-0.04-0.81-0.04-1,0c-0.55,0.04-1.37,0.15-2.51,0.37l-1.66,0.33c-0.33,0-0.55-0.07-0.67-0.26
			c-0.33-0.74-0.89-1.85-1.66-3.29c-0.48-0.74-1.11-1.78-1.96-3.15c-0.41,0.63-0.96,1.59-1.63,2.81c-0.07,0.33-0.22,0.7-0.48,1.15
			c-0.78,0.56-2.22,1.26-4.25,2.15c-0.26,0.11-0.63,0.18-1.07,0.18c-0.11,0-0.96-0.07-1.11-0.07l-4.1,0.41
			c-1.29,0-1.92-0.18-1.92-0.55c0-0.11,0.74-1.22,2.25-3.37c0.48-0.85,1.22-2.15,2.22-3.81c0.7-0.81,1.37-1.63,2.07-2.48
			c1.22-1.52,1.85-2.55,1.85-3.04c0-0.07-0.37-0.74-1.07-1.96c-0.7-1.26-1.26-2.22-1.7-2.89c-2.33-3.44-3.88-6.29-4.73-8.51
			c0.3-0.11,0.96-0.59,1.96-1.37c0.85-0.63,1.55-1,2.03-1.11c0.55-0.04,1.33-0.07,2.33-0.11c0.26-0.04,0.63-0.07,1.11-0.19
			c0.52-0.11,0.81-0.15,0.85-0.15c-0.04,0,0.18,0.04,0.59,0.11c0.7,0.89,1.44,1.78,2.14,2.66c0.85,1.07,1.55,2.11,2.11,3.03
			c0.52-0.41,1.4-1.37,2.66-2.96c0.18-0.44,0.55-0.96,1.03-1.59c0.55-0.37,1.33-0.78,2.4-1.26c1-0.44,1.55-0.67,1.66-0.67
			c0.22,0,2,0.3,5.28,0.85c0.11,0.04,0.33,0.15,0.67,0.37c0.33,0.18,0.52,0.37,0.52,0.52C57.42,5.75,57.16,6.2,56.68,7.19z
			 M52.87,32.69c-1.52-1.78-2.99-3.77-4.36-5.99c-1.37-2.33-2.73-4.63-4.1-6.92c0.22-0.44,0.59-1.07,1.07-1.85
			c0.37-0.37,0.81-0.85,1.33-1.44c0.22-0.33,0.52-0.74,0.89-1.22l4.88-7.21l-4.73-1.33c-0.41,0.18-0.96,1.04-1.52,1.74
			c-0.7,0.81-1.63,1.89-2.77,3.26c-0.37,0.55-0.74,1.07-1.11,1.63c-0.63,0.92-1.11,1.37-1.37,1.37s-1-0.96-2.22-2.89
			c-1.48-2.37-2.33-3.7-2.59-4.03h-3.81c-0.18,0-0.52,0.07-1,0.18c0.59,1.74,1.37,3.37,2.33,4.88l5.06,7.92
			c-0.41,1.07-1.59,2.81-3.58,5.22c-0.7,0.81-1.18,1.48-1.44,2.04c-0.44,0.92-0.89,1.74-1.37,2.44c-0.41,0.56-0.96,1.44-1.74,2.63
			c0.48,0.11,0.81,0.18,0.92,0.18c2.33,0,2.96,0,1.96,0.04c1.33-0.04,2.25-0.22,2.77-0.55c0.96-0.59,2.03-1.85,3.22-3.74l2.66-4.66
			c0.15-0.26,0.37-0.37,0.67-0.37c0.18,0,0.41,0.26,0.59,0.78c0.11,0.3,0.26,0.59,0.37,0.89c0.18,0.11,0.41,0.26,0.67,0.48
			c-0.04,0.11-0.04,0.19-0.04,0.3c0,0.41,0.26,1.04,0.81,1.89c0.78,1.18,1.22,1.85,1.33,2.04c0.55,1.07,1.07,2.07,1.59,2.92
			L52.87,32.69z M36.83,5.68c-1.88,0-3.25,0.48-4.18,1.44h3.55c0.11,0,0.59-0.48,1.37-1.44H36.83z M40.34,8.12
			c-0.3-0.41-0.92-1.11-1.85-2.04c-0.33,0.52-0.74,1-1.15,1.41c0.44,0.56,1.11,1.52,1.96,2.96s1.52,2.41,1.92,2.89
			c0.85-1.22,1.26-1.81,1.26-1.81C42.49,11.23,41.78,10.08,40.34,8.12z M42.71,25.7l-4.66,6.66c0.92-0.33,2.07-0.67,2.48-1.22
			c0.48-0.63,1.07-1.55,1.74-2.78c0.59-1.07,0.89-1.63,0.89-1.74C43.15,26.47,42.74,25.81,42.71,25.7z M53.98,7.9
			c-1.37,1.96-3.4,4.88-6.1,8.7c-0.52,0.55-1.15,1.41-1.92,2.55h0.3c0.59-0.11,1.48-0.33,2.62-0.59c0.48-0.89,1.07-1.96,1.77-3.22
			c1.37-2.15,2.99-4.92,4.88-8.29C55.05,7.27,54.53,7.56,53.98,7.9z M54.27,28.58c-0.67-0.92-1.03-1.44-1.15-1.59
			c-0.63-1-1.52-2.52-2.66-4.51c-0.33-0.74-0.85-1.78-1.55-3.07c-0.59,0.11-1.59,0.33-2.96,0.67c2.81,5.29,5.54,9.36,8.17,12.17
			c0.33-0.37,0.81-0.89,1.4-1.52C55.35,30.43,55.31,29.95,54.27,28.58z M53.39,5.31c-0.89-0.11-1.77-0.19-2.66-0.26l-1.88,1
			l4.21,1.26c1.4-0.74,2.33-1.26,2.81-1.59C55.27,5.53,54.46,5.42,53.39,5.31z"/>
		<path class="st1" d="M79.73,33.21c-0.18,0.26-0.36,0.41-0.55,0.41c-0.15,0-0.58-0.07-0.73-0.07c-0.58,0-2.15,0.59-3.75,0.59
			l-4.23-0.41c-1.79,0-3.53,0.11-5.25,0.3s-2.84,0.26-3.46,0.26c-0.26,0-0.73-0.07-1.42-0.18c-0.8-0.15-1.2-0.3-1.24-0.41
			c-0.07-0.26-0.11-0.67-0.11-1.15l-0.25-15.91c0.04-0.52,0.07-1.29,0.18-2.29l-0.07-7.51c0.18-0.11,0.4-0.55,0.66-1.3
			c0.22-0.63,0.44-0.92,0.69-0.92c0.07,0,0.58,0.04,1.57,0.11c0.98,0.04,1.49,0.07,1.57,0.07l7.8-0.3l0.26,0.07l6.09-0.67
			c0.11,0,1.06,0.07,1.2,0.07c0.11,0,0.62-0.07,1.57-0.26c0.22,0.33,0.33,0.55,0.33,0.67c0,0.04-0.07,0.48-0.18,1.33
			c-0.15,0.93-0.22,1.63-0.26,2.04c0.04,0.3,0.04,0.74,0,1.33c-0.18,0.18-0.47,0.48-0.84,0.89c-1.17,1.59-1.89,2.41-2.22,2.41
			c-0.11,0-0.47-0.22-0.62-0.22c-2.66-0.3-4.63-0.44-5.87-0.44c0.11,0-0.91,0.11-3.1,0.33c-0.25,0.33-0.51,1.41-0.8,3.29
			c0.15,0.07,0.4,0.11,0.8,0.11c0.26,0,1.93-0.26,5.03-0.78s5.5-0.78,7.22-0.78c0.4,0,0.62,0.18,0.62,0.52
			c0-0.11-0.07,0.04-0.22,0.37v3v1.81c-0.4,0.48-0.76,1-1.17,1.52c-0.47,0.63-0.77,1.18-0.87,1.59c-0.47,0-1.17-0.04-2.15-0.07
			c-0.95-0.04-1.42-0.07-1.39-0.07l-5.72,0.22c-0.04,0.04-0.51,0.07-1.49,0.11c-0.04,0.18-0.07,0.55-0.18,1.11
			c-0.11,0.52-0.15,0.89-0.15,1.15c0,0.81,0.25,1.22,0.8,1.22c-0.07,0,0.58-0.04,1.97-0.15c1.42-0.11,2.44-0.18,3.13-0.18
			c0.36,0,0.98,0,1.89-0.04c0.91-0.04,1.39-0.04,1.39-0.04c0.07,0,0.4,0.04,0.98,0.11c0.62,0.04,0.95,0.07,1.02,0.07
			s0.51-0.11,1.35-0.3c0.84-0.18,1.31-0.3,1.39-0.3c0.18,0,0.36,0.11,0.51,0.3c0.11,1.29,0.15,2.37,0.15,3.18
			c0,0.92,0.18,1.15,0.18,1.18C81.77,30.21,81.08,31.21,79.73,33.21z M78.16,29.32h-0.33c0.11,0-1.57,0.41-4.45,0.41
			c-0.07,0-0.44-0.04-1.13-0.11c-0.69-0.11-1.06-0.15-1.13-0.15H68.5c-0.07,0-0.44,0-1.06-0.04c-0.62-0.04-0.98-0.04-1.02-0.04
			c-0.07,0-0.47,0.04-1.17,0.11c-0.69,0.07-1.06,0.11-1.13,0.11c-0.33,0-0.55-0.11-0.62-0.37c-0.04-0.07-0.04-0.37-0.04-0.89
			c0-0.96,0.15-3.07,0.44-6.33c0.25-0.18,0.51-0.3,0.77-0.3c0.07,0,0.66,0.04,1.75,0.07c1.13,0.04,1.71,0.07,1.75,0.07
			c0.07,0,0.66-0.04,1.71-0.07c1.09-0.04,1.68-0.07,1.71-0.07c0.07,0,0.58-0.04,1.57-0.07c0.98-0.07,1.53-0.11,1.6-0.11
			c0.04,0,0.33,0.04,0.87,0.11c0.55,0.07,0.98,0.11,1.31,0.15c0.11-1.55,0.22-2.7,0.4-3.48l-13.59-0.26c-0.26,0-0.77-0.33-0.77-0.63
			c0,0.18,0.22-0.85,0.62-3.07c0.07-0.48,0.18-1.22,0.36-2.22c0.04-0.15,0.11-0.26,0.29-0.33c1.35-0.63,3.68-0.93,7.03-0.93
			l5.07,0.22c0-0.26,0.11-0.81,0.33-1.67c0.22-0.85,0.33-1.26,0.33-1.26c0-0.11-0.07-0.3-0.18-0.55L69.3,7.45
			c-0.07,0-0.33,0-0.77-0.04c-0.44-0.04-0.69-0.04-0.76-0.04s-0.8,0.11-2.15,0.3c-1.35,0.18-2.04,0.3-2.11,0.3H62.2h-2.41V20.7
			l0.15,5.88v3.33c0,0.07,0,0.37,0.04,0.89c0.04,0.48,0.04,0.78,0.04,0.81c0,0.85,0.04,1.37,0.15,1.48c0.11,0.18,0.58,0.3,1.35,0.3
			c0.07,0,0.66-0.04,1.79-0.11c1.13-0.11,1.71-0.15,1.75-0.15l3.61-0.33c0.07,0,1.09,0.07,3.03,0.22c1.93,0.11,2.95,0.18,2.99,0.18
			c0.07,0,0.58-0.07,1.53-0.22c1.13-0.18,1.9-0.3,2.37-0.33c0-0.18,0.07-0.67,0.07-0.78C78.63,31.84,78.49,30.99,78.16,29.32z
			 M79.03,4.79h-1.64l-7.22,0.63l-9.55,0.11c-0.18,0.11-0.29,0.33-0.33,0.67l-0.11,0.67c1.71,0.19,2.48,0.3,2.33,0.3
			c0.07,0,0.8-0.11,2.15-0.3c1.35-0.18,2.08-0.3,2.15-0.3c-0.04,0,0.51,0.04,1.68,0.07c1.17,0.04,2.04,0.07,2.62,0.07
			c0.26,0,0.95,0,2.08-0.04h2.04c0.33,0.04,0.77,0.07,1.31,0.15c0.55,0.04,0.84,0.07,0.88,0.07c0.22,0,0.55-0.33,0.95-1L79.03,4.79z
			 M66.21,12.19c-0.69,0-1.17,0.55-1.39,1.63c-0.15,0.92-0.29,1.85-0.47,2.78c0.33-0.19,0.77-0.41,1.35-0.74
			c0.04-0.37,0.07-0.85,0.15-1.41c0-0.22,0.07-0.55,0.18-1.04s0.18-0.7,0.18-0.74V12.19z M66.21,22.74
			c-0.25,0.07-0.66,0.07-1.28-0.04c-0.07,0.78-0.18,2.52-0.29,5.29c0.47-0.44,0.95-0.96,1.46-1.55c0.15-0.63,0.18-1.67,0.11-3.18
			V22.74z M78.63,14.82c-1.42,0-3.68,0.26-6.85,0.78c-3.17,0.48-4.67,0.74-4.52,0.74c-0.15,0-0.47-0.07-0.58-0.07
			c0.07,0-0.36,0.3-1.35,0.89c1.02,0.11,1.68,0.18,1.97,0.18l10.13,0.07c0.15-0.18,0.66-1.07,1.53-2.59H78.63z M72.51,26.77
			c-0.07,0-0.66,0.07-1.71,0.22c-1.06,0.11-1.6,0.18-1.68,0.18H67.7c-0.15,0-0.69-0.22-0.8-0.22s-0.58,0.52-1.42,1.52
			c-0.18,0.04,0.47,0.04,2.04,0.07c2.11,0.04,3.57,0.11,4.37,0.22c0.62,0.11,1.28,0.15,1.9,0.15c1.2,0,2.66-0.18,4.34-0.52
			c0.26-0.04,0.55-0.26,0.84-0.67c0.18-0.26,0.4-0.56,0.58-0.85L72.51,26.77z M77.54,10.64c0.47-0.41,0.98-1.04,1.57-1.89
			c0.07-0.33,0.11-0.74,0.11-1.26c0-0.63,0-1.07,0.04-1.26C78.2,8.16,77.65,9.64,77.54,10.64z M79.18,16.45
			c-0.47,0.52-0.76,1.26-0.87,2.18c-0.04,0.63-0.11,1.29-0.15,1.96c0.29-0.3,0.62-0.7,0.95-1.18c0.11-0.48,0.15-1.15,0.07-2.04
			C79.18,17.37,79.18,16.45,79.18,16.45z M80.53,28.51c-0.04-0.59-0.07-1.04-0.07-1.33c-0.87,0.85-1.31,1.52-1.31,1.96
			c0,0.19,0.07,0.63,0.22,1.26c0.18,0.63,0.22,1.11,0.18,1.37c0.62-0.78,0.95-1.33,1.06-1.63c0.04-0.07,0.04-0.3,0.04-0.7
			C80.64,29.4,80.6,29.1,80.53,28.51z"/>
		<path class="st1" d="M102.36,30.1c0,0.18-0.5,0.92-1.48,2.15c-0.11,0.11-0.29,0.26-0.51,0.48c0,0.15-0.04,0.37-0.11,0.63
			c-0.11,0.18-1.01,0.33-2.7,0.48c-0.32,0.04-1.41,0.3-1.55,0.3h-0.68c-0.29,0-0.47-0.85-0.43-1.26c0.14-1.18,0.18-2.37,0.14-3.51
			c-0.11-1.81-0.14-2.74-0.14-2.78v-2c0-4.22-1.08-6.29-3.28-6.18C91,19,90.61,19.7,90.46,20.55c-0.04,0.7-0.11,1.37-0.14,2.07
			c0.04,0.33,0.04,0.89,0,1.63c-0.07,1.07-0.18,2.7-0.36,4.88c0,0.33,0.18,1.41,0.18,1.81s-0.11,0.78-0.29,1.04
			c-0.11,0.15-0.5,0.55-1.19,1.18c-0.79,0.7-1.3,1.07-1.55,1.07c-0.14,0-0.29-0.18-0.4-0.18c-0.54,0-1.84,0.26-2.38,0.26
			c-0.58,0-1.51-0.33-1.51-0.78V15.71c-0.4-0.26-0.58-0.44-0.58-0.55c0-0.56,1.59-1.63,4.76-3.18c0.07,0,0.36,0.04,0.83,0.07
			c0.47,0.04,0.76,0.07,0.83,0.07c0.04,0,0.25-0.04,0.65-0.07c0.4-0.04,0.65-0.07,0.68-0.07c0.4,0,0.58,0.11,0.58,0.37
			c0,0.15-0.18,0.89-0.14,1.18c-0.04,0.04,0,0.07,0.14,0.07c0.11,0,0.79-0.44,0.94-0.44c0.65-0.26,1.3-0.48,1.98-0.7
			c0.83-0.26,1.51-0.41,2.05-0.41c0.11,0,0.72,0.15,0.97,0.15c2.05-0.07,3.57,0.92,4.54,2.96c0.65,1.37,1.01,3.11,1.05,5.18
			L102.36,30.1z M99.65,29.06v-6.55c0-0.15-0.22-0.92-0.22-1.22c0-0.41,0-0.96-0.04-1.7c-0.04-0.33-0.25-1.04-0.61-2.07
			c-0.11-0.41-0.29-0.89-0.61-1.48c-1.4-1.37-2.88-2.04-4.43-2.04c-2.09,0-3.93,0.96-5.52,2.92c-0.11,0.11-0.29,0.18-0.54,0.18
			c-0.4,0-0.58-0.22-0.61-0.7v-1.18C87.04,15.11,87.04,15,87,14.89h-0.4c-0.14,0-0.68,0.3-0.83,0.3c-1.41,0.26-2.09,0.41-2.05,0.41
			c-0.07,0.44-0.11,1.26-0.11,2.44v11.4v0.74v0.78c0,0.48,0.07,1.48,0.07,1.96c0.65,0.26,1.08,0.41,1.3,0.41
			c0.79,0,1.41-0.04,1.8-0.15c0-0.33,0.07-1.33,0.22-3.07c0.04-1.22,0.11-3.03,0.29-5.44c0.11-0.85,0.18-1.67,0.25-2.52
			c0.14-1.04,0.36-1.81,0.61-2.37c0.61-1.33,1.95-2.37,2.96-2.37c2.05,0,3.46,0.78,4.18,2.33c0.47,1,0.68,2.66,0.68,4.96v1.29
			c0,0.67,0,1.18,0.04,1.59v2.55v2.07c0,0.15,0.07,0.63,0.07,0.78h0.65c0.32,0.04,1.19-0.11,2.6-0.41L99.65,29.06z M87.76,12.97
			c-0.51,0.15-0.79,0.11-0.9-0.11l-2.23,1.55h0.83c0.14,0,0.68-0.3,0.83-0.3c0.25,0,0.61-0.04,1.05-0.15c0,0,0.47-0.37,1.37-1.07
			C88.3,12.89,87.98,12.93,87.76,12.97z M88.41,23.33c-0.11,0.74-0.22,2.26-0.36,4.51c-0.18,2.07-0.25,3.18-0.22,3.33v1.41
			c0.83-0.48,1.26-0.89,1.26-1.15v-1.96l0.32-5.48v-2.63c0-0.04,0.07-0.63,0.22-1.81C89.09,20.03,88.66,21.29,88.41,23.33z
			 M89.45,13.52c-0.18,0.11-0.65,0.44-1.33,0.96l0.07,0.78c0.32-0.22,0.68-0.44,1.01-0.7c0.25-0.19,0.36-0.41,0.36-0.67
			C89.56,13.71,89.45,13.52,89.45,13.52z M101.17,21.77c-0.22-3.22-0.54-5.33-0.94-6.29c-0.76-1.74-2.31-2.63-4.69-2.63
			c-0.18,0-0.5,0.07-0.9,0.22c0.68,0.15,1.51,0.48,2.45,0.96c1.12,0.63,1.87,1.22,2.24,1.81c0.86,1.48,1.37,3.4,1.37,5.77v7.33
			c0,0.04-0.04,0.33-0.07,0.92c-0.04,0.56-0.07,1-0.07,1.26c0.4-0.59,0.65-1,0.72-1.26c0.04-0.11,0.04-0.44,0.04-1L101.17,21.77z"/>
		<path class="st1" d="M125.14,20.29v2.92c0,0.07-0.04,0.48-0.07,1.18c-0.04,0.81-0.07,1.41-0.07,1.74
			c-0.14,3.96-0.61,6.99-1.37,9.18c0,0.11-0.04,0.26-0.07,0.48c-0.11,0.41-0.32,0.89-0.58,1.52c-0.14,0.37-0.43,0.85-0.86,1.48
			c-0.61,0.92-1.11,1.37-1.51,1.37c-0.07,0-0.11,0-0.11-0.04s-0.04-0.07-0.11-0.07c-0.04,0-0.25,0.15-0.58,0.44
			c-0.43,0.33-0.72,0.52-0.86,0.63c-1.69,1.07-3.6,1.59-5.72,1.59c-1.15,0-2.44-0.26-3.88-0.74c-1.62-0.55-2.7-1.22-3.2-2
			c-0.04-0.11-0.22-0.67-0.54-1.7c-0.32-1-0.47-1.67-0.47-2c0-0.3,0.07-0.48,0.22-0.59c0.47-0.41,1.29-0.96,2.41-1.67
			c0.29-0.11,0.68-0.18,1.19-0.18h1.22l0.14-0.11c-0.47-0.07-1.08-0.22-1.91-0.41c-0.54-0.26-1.19-0.78-1.91-1.63
			c-0.68-0.85-1.12-1.63-1.29-2.29c-0.4-1.55-0.61-2.41-0.65-2.55c0.04,0.04,0.04-0.67,0.04-2.04c0-4.33,1.44-7.92,4.31-10.77
			c0.04-0.07,0.04-0.18,0.07-0.33c0.32-0.26,0.86-0.63,1.62-1.07c1.55-0.52,2.73-0.78,3.56-0.78c0.58,0,1.65,0.22,3.24,0.63
			c0.11,0.04,0.36,0.15,0.75,0.41c0.43,0.26,0.68,0.37,0.72,0.37c0.11,0,0.47-0.22,1.04-0.63c0.58-0.41,0.9-0.7,1.01-0.89
			c0.25-0.11,0.54-0.19,0.83-0.19c0.11,0,0.54,0,1.29-0.04c0.76-0.04,1.19-0.07,1.22-0.07c0.58,0,0.93,0.18,1.11,0.52
			c0.11,0.19,0.14,0.59,0.14,1.18L125.14,20.29z M122.4,16.67l-0.43-2.22h-2.48c-0.18,0.26-0.29,0.67-0.29,1.18
			c0.04,1,0.04,1.41,0.07,1.18c-0.04,0.26-0.18,0.37-0.5,0.37c-0.39,0-0.79-0.3-1.19-0.89c-0.58-0.81-1.04-1.37-1.44-1.63
			c-0.79-0.59-1.83-0.89-3.09-0.89c-1.33,0-2.34,0.18-3.02,0.52c-0.9,0.48-1.87,1.7-2.91,3.7s-1.55,3.52-1.55,4.55v3.81
			c0,0.7,0.25,1.74,0.72,3.11c0.18,0.52,0.79,1.33,1.8,2.41c0.25,0.3,0.5,0.48,0.72,0.52c1.8,0.48,3.16,0.7,4.13,0.7
			c0.76,0,1.55-0.3,2.3-0.89c0.4-0.33,0.93-0.89,1.62-1.67c0.54-0.59,0.9-0.89,1.12-0.89c0.14,0,0.32,0.11,0.5,0.33v2.89
			c0.04,0.74-0.07,1.81-0.25,3.22c-0.18,0.48-1.01,1.07-2.55,1.81c-1.19,0.55-2.37,0.81-3.52,0.81h-0.25c-0.47,0-0.75-0.3-0.9-0.92
			c-0.25-1-0.36-1.52-0.36-1.55c-1.62,0.26-2.59,0.41-2.95,0.41c-0.58,0-0.97-0.04-1.22-0.07c0,0.04-0.04,0.11-0.11,0.22
			c0.07,0.22,0.14,0.52,0.22,0.92c0.11,1.18,0.75,2.11,1.91,2.74c0.61,0.37,1.69,0.74,3.16,1.07c0.54,0.11,1.12,0.18,1.76,0.18
			c1.8,0,3.49-0.48,5.03-1.48c1.87-1.22,2.88-2.85,2.98-4.96c0-0.22,0.07-0.55,0.18-1.04c0.14-0.48,0.22-0.74,0.22-0.78v-2.78
			c0,0.07,0.04-0.44,0.11-1.59s0.11-2,0.07-2.48c0-0.85,0.11-2.15,0.32-3.89c0.25-1.74,0.36-2.81,0.36-3.26
			C122.69,18.52,122.58,17.59,122.4,16.67z M108.96,34.69c-0.97,0.11-1.65,0.44-2.01,1.04c-0.04,0.04,0.29,0.04,0.97,0.04
			c0.83,0,1.65-0.15,2.48-0.44c0.14-0.04,0.43-0.33,0.9-0.81C110.5,34.58,109.71,34.65,108.96,34.69z M117.84,28.29
			c-1.11,1.37-2.44,2.04-4.06,2.04c-1.33,0-2.37-0.63-3.09-1.92c-0.54-1-0.83-2.15-0.83-3.44c0-1.44,0.25-2.85,0.79-4.29
			c0.79-2.11,1.98-3.14,3.52-3.14c2.62,0,4.21,1.59,4.82,4.77c0.22,1.07,0.32,1.7,0.32,1.89C119.31,25.7,118.81,27.07,117.84,28.29z
			 M112.77,26.58c-0.43-1-0.65-1.89-0.65-2.7c0-1.78,0.61-3.59,1.8-5.44c-0.97,0.41-1.76,1.29-2.3,2.7
			c-0.47,1.15-0.72,2.41-0.72,3.77c0,0.92,0.18,1.78,0.54,2.59c0.5,1.22,1.29,1.81,2.37,1.81c0.32,0,0.65-0.07,1.04-0.22
			C114.03,28.62,113.31,27.77,112.77,26.58z M112.08,35.09c-0.4,0.26-0.61,0.48-0.61,0.59c0-0.04,0.11,0.19,0.29,0.63
			c0.07,0.33,0.18,0.81,0.36,1.52c0.61-0.11,1.11-0.26,1.44-0.41C112.7,37.5,112.19,36.72,112.08,35.09z M116.4,13.08
			c-0.86-0.26-1.65-0.37-2.37-0.37c-0.4,0-0.83,0.07-1.37,0.18c2.09-0.18,3.92,0.67,5.5,2.63c0-0.44,0.07-0.89,0.25-1.37
			C118.02,13.74,117.37,13.37,116.4,13.08z M113.02,34.17v0.7c-0.04,0.78,0.36,1.78,1.08,1.78c0.14,0,0.9-0.07,1.04-0.07
			c0.11,0,0.22,0.11,0.39,0.33c0.07-0.04,0.43-0.26,1.12-0.67c0.4-0.26,0.65-0.44,0.68-0.63c0.14-0.55,0.22-1.92,0.18-4.18
			C116.04,33.1,114.53,34.02,113.02,34.17z M117.33,20.29c-0.04-0.07-0.18-0.33-0.47-0.74c-0.25-0.41-0.47-0.63-0.58-0.63
			c-0.07,0-0.11,0-0.11,0.04S116.13,19,116.06,19c0.07,0-0.25-0.18-1.01-0.55c-0.58,0.63-1.04,1.52-1.4,2.66
			c-0.32,1.04-0.5,1.96-0.5,2.74c0,0.59,0.22,1.41,0.68,2.48c0.54,1.33,1.22,2,1.98,2h0.58c0.39,0,0.79-0.59,1.26-1.81
			c0.4-1.07,0.61-1.89,0.61-2.41C118.27,23.55,117.95,22.26,117.33,20.29z M123.2,12.3c-1.33-0.04-2.37,0.41-3.16,1.29h1.98
			c0.22,0,0.47-0.11,0.75-0.37c0.54-0.44,0.97-0.74,1.22-0.92H123.2z M122.15,36.98v-0.22h-0.14v0.22H122.15z M124.53,13.04
			c-0.25,0.18-0.54,0.37-0.83,0.55c-0.47,0.33-0.68,0.67-0.68,0.93c0,0.11,0.11,0.81,0.32,2.04c0.22,1.22,0.32,2.37,0.32,3.37
			l-0.65,5.77v2.18l-0.32,5.25c0,0.78-0.18,2-0.54,3.59c0.58-1.15,1.04-2.96,1.44-5.48c0.4-2.33,0.58-4.4,0.58-6.25v-3.92
			L124.53,13.04z"/>
		<path class="st1" d="M134.19,6.34c-0.04,0.48-0.04,1.33-0.04,2.48c0,0.7-0.04,1.15-0.07,1.3c-0.15,0.04-0.37,0.15-0.67,0.33
			c-0.3,0.41-0.78,0.89-1.41,1.48c-0.19,0.11-0.78,0.22-1.86,0.37c-1.75,0.26-2.6,0.37-2.53,0.37c-0.41,0-0.63-0.15-0.63-0.44V8.34
			c0,0.04,0.04-0.19,0.07-0.63c0.04-0.48,0.07-0.78,0.04-0.96c0.71-0.78,1.71-1.37,3.05-1.81c1.12-0.41,2.19-0.59,3.27-0.59
			c0.56,0,0.82,0.55,0.82,1.63C134.23,5.79,134.23,5.94,134.19,6.34z M134.71,30.47c0,0.11-0.26,0.56-0.78,1.3s-0.97,1.29-1.38,1.63
			c-0.19,0.11-0.85,0.26-2.08,0.44c-0.33,0.04-0.89,0.15-1.6,0.33s-1.12,0.26-1.15,0.26c-0.37,0-0.56-0.11-0.56-0.37l0.3-5.99v-7.51
			c0-0.04-0.04-0.7-0.15-2.07c-0.11-1.37-0.15-2.37-0.15-3.07c0-0.15-0.19-0.67-0.19-0.81c0-0.15,0.26-0.48,0.78-0.96
			c0.56-0.52,0.89-0.81,1.08-0.85c1.53-0.33,3.05-0.52,4.58-0.52c0.63,0,0.97,0.74,0.97,2.18v2.07c0,0.11,0.15,0.63,0.15,0.78
			c0,0.56-0.04,1.37-0.07,2.48c-0.04,1.11-0.07,1.67-0.07,1.63L134.71,30.47z M128.13,7.53c0,0.44,0,1.15-0.04,2.11
			c-0.04,0.92-0.04,1.63-0.04,2.07c0.04-0.04,0.15-0.07,0.26-0.07c0.59,0,1.41-0.11,2.49-0.33c0.07-0.92,0.19-2.26,0.3-4
			C131.06,7.31,130.1,7.38,128.13,7.53z M131.51,16.89c-0.04-0.78-0.04-1.67-0.33-2c-0.33,0.15-0.89,0.26-1.64,0.33
			c-0.86,0.11-1.3,0.15-1.34,0.15l0.3,5.88v7.58c0,0.07-0.04,0.44-0.11,1.15c-0.07,0.67-0.11,1.04-0.11,1.11v2.22l0.82-0.07
			c0.04,0,0.41-0.07,1.08-0.18c0.71-0.11,1.19-0.19,1.49-0.22c0-0.81,0.04-1.67,0.11-2.55L131.51,16.89z M131.25,13.37
			c0.04,0-0.71,0.11-2.16,0.33c-0.22,0.04-0.45,0.26-0.67,0.67c0.15,0,0.63,0.11,0.74,0.11c0.07,0,0.48-0.11,1.23-0.3
			c0.78-0.22,1.19-0.33,1.27-0.33c0.11,0,0.11,0.07,0.26,0.07s0.3-0.18,0.48-0.55C132.4,13.37,131.25,13.37,131.25,13.37z
			 M130.88,5.82c-0.71,0.19-1.26,0.41-1.67,0.7c1-0.07,1.49-0.11,1.49-0.11c0.74,0,1.3-0.56,1.93-1
			C131.51,5.68,130.92,5.79,130.88,5.82z M133.18,6.27c-0.56,0.26-0.89,0.48-0.93,0.63c-0.26,1.15-0.37,2.18-0.33,3.03v0.74
			c0.56-0.48,0.89-0.78,1-0.96c0.19-0.26,0.26-0.74,0.26-1.37V6.27z M133.52,25.7v-5.18V19.3c0.04-0.81,0.04-1.44,0-1.85
			c-0.04-1.44-0.07-2.66-0.19-3.66c-0.63,0.7-0.93,1.11-0.93,1.22c0,0.07,0.04,0.67,0.07,1.78c0.04,1.07,0.07,1.67,0.07,1.7v1.96
			c0,0.33,0.04,0.63,0.15,0.89l-0.07,5.22c0.11,2.63,0.19,4.33,0.19,5.03c0.22-0.26,0.52-0.67,0.86-1.22L133.52,25.7z"/>
		<path class="st1" d="M156.47,30.1c0,0.18-0.51,0.92-1.5,2.15c-0.11,0.11-0.29,0.26-0.51,0.48c0,0.15-0.04,0.37-0.11,0.63
			c-0.11,0.18-1.03,0.33-2.75,0.48c-0.33,0.04-1.43,0.3-1.58,0.3h-0.7c-0.29,0-0.48-0.85-0.44-1.26c0.15-1.18,0.18-2.37,0.15-3.51
			c-0.11-1.81-0.15-2.74-0.15-2.78v-2c0-4.22-1.1-6.29-3.33-6.18c-0.62,0.59-1.03,1.29-1.17,2.15c-0.04,0.7-0.11,1.37-0.15,2.07
			c0.04,0.33,0.04,0.89,0,1.63c-0.07,1.07-0.18,2.7-0.37,4.88c0,0.33,0.18,1.41,0.18,1.81s-0.11,0.78-0.29,1.04
			c-0.11,0.15-0.51,0.55-1.21,1.18c-0.81,0.7-1.32,1.07-1.58,1.07c-0.15,0-0.29-0.18-0.4-0.18c-0.55,0-1.87,0.26-2.42,0.26
			c-0.59,0-1.54-0.33-1.54-0.78V15.71c-0.4-0.26-0.59-0.44-0.59-0.55c0-0.56,1.61-1.63,4.84-3.18c0.07,0,0.37,0.04,0.84,0.07
			c0.48,0.04,0.77,0.07,0.84,0.07c0.04,0,0.26-0.04,0.66-0.07s0.66-0.07,0.7-0.07c0.4,0,0.59,0.11,0.59,0.37
			c0,0.15-0.18,0.89-0.15,1.18c-0.04,0.04,0,0.07,0.15,0.07c0.11,0,0.81-0.44,0.95-0.44c0.66-0.26,1.32-0.48,2.02-0.7
			c0.84-0.26,1.54-0.41,2.09-0.41c0.11,0,0.73,0.15,0.99,0.15c2.09-0.07,3.63,0.92,4.62,2.96c0.66,1.37,1.03,3.11,1.06,5.18
			L156.47,30.1z M153.73,29.06v-6.55c0-0.15-0.22-0.92-0.22-1.22c0-0.41,0-0.96-0.04-1.7c-0.04-0.33-0.26-1.04-0.62-2.07
			c-0.11-0.41-0.29-0.89-0.62-1.48c-1.43-1.37-2.93-2.04-4.51-2.04c-2.13,0-3.99,0.96-5.61,2.92c-0.11,0.11-0.29,0.18-0.55,0.18
			c-0.4,0-0.59-0.22-0.62-0.7v-1.18c-0.04-0.11-0.04-0.22-0.07-0.33h-0.4c-0.15,0-0.7,0.3-0.84,0.3c-1.43,0.26-2.13,0.41-2.09,0.41
			c-0.07,0.44-0.11,1.26-0.11,2.44v11.4v0.74v0.78c0,0.48,0.07,1.48,0.07,1.96c0.66,0.26,1.1,0.41,1.32,0.41
			c0.81,0,1.43-0.04,1.83-0.15c0-0.33,0.07-1.33,0.22-3.07c0.04-1.22,0.11-3.03,0.29-5.44c0.11-0.85,0.18-1.67,0.26-2.52
			c0.15-1.04,0.37-1.81,0.62-2.37c0.62-1.33,1.98-2.37,3-2.37c2.09,0,3.52,0.78,4.25,2.33c0.48,1,0.7,2.66,0.7,4.96v1.29
			c0,0.67,0,1.18,0.04,1.59v2.55v2.07c0,0.15,0.07,0.63,0.07,0.78h0.66c0.33,0.04,1.21-0.11,2.64-0.41L153.73,29.06z M141.63,12.97
			c-0.51,0.15-0.81,0.11-0.92-0.11l-2.27,1.55h0.84c0.15,0,0.7-0.3,0.84-0.3c0.26,0,0.62-0.04,1.06-0.15c0,0,0.48-0.37,1.39-1.07
			C142.18,12.89,141.85,12.93,141.63,12.97z M142.29,23.33c-0.11,0.74-0.22,2.26-0.37,4.51c-0.18,2.07-0.26,3.18-0.22,3.33v1.41
			c0.84-0.48,1.28-0.89,1.28-1.15v-1.96l0.33-5.48v-2.63c0-0.04,0.07-0.63,0.22-1.81C142.99,20.03,142.55,21.29,142.29,23.33z
			 M143.36,13.52c-0.18,0.11-0.66,0.44-1.36,0.96l0.07,0.78c0.33-0.22,0.7-0.44,1.03-0.7c0.26-0.19,0.37-0.41,0.37-0.67
			C143.46,13.71,143.36,13.52,143.36,13.52z M155.26,21.77c-0.22-3.22-0.55-5.33-0.95-6.29c-0.77-1.74-2.35-2.63-4.76-2.63
			c-0.18,0-0.51,0.07-0.92,0.22c0.7,0.15,1.54,0.48,2.49,0.96c1.14,0.63,1.91,1.22,2.27,1.81c0.88,1.48,1.39,3.4,1.39,5.77v7.33
			c0,0.04-0.04,0.33-0.07,0.92c-0.04,0.56-0.07,1-0.07,1.26c0.4-0.59,0.66-1,0.73-1.26c0.04-0.11,0.04-0.44,0.04-1L155.26,21.77z"/>
		<path class="st1" d="M177.62,23.48c-0.36,0.26-0.72,0.56-1.08,0.85c-0.11,0.18-0.29,0.52-0.57,0.92h-3.52
			c-0.14,0-0.93-0.19-1.08-0.19c-2.19,0-3.8,0.07-4.85,0.19c-0.04,0.04-0.07,0.07-0.07,0.18c0,0.56,0.29,1.15,0.83,1.78
			c0.54,0.63,1.08,0.96,1.58,0.96c0.07,0,0.43-0.07,1.11-0.26c0.18-0.26,0.43-0.63,0.83-1.04c1.47-0.92,2.3-1.37,2.48-1.37
			l0.32,0.11c0.61,0.04,1.22,0.04,1.83,0.07c0.72,0.04,1.26,0.3,1.62,0.74c-0.18,0.81-0.47,2-0.93,3.55
			c-0.36,0.85-0.86,1.41-1.47,1.67c-1.11,0.55-2.19,1.07-3.3,1.59c-0.93,0.41-2.01,0.63-3.19,0.63c-0.04,0-0.54,0.04-1.51,0.07
			c-0.93,0.04-1.44,0.07-1.51,0.07c-2.05,0-3.48-0.37-4.24-1.11c-1.18-1.15-1.97-2.44-2.44-3.92c-0.32-1.18-0.5-2.7-0.5-4.55
			c0-3.48,0.75-6.29,2.23-8.47c1.76-2.59,4.42-3.88,7.97-3.88c1.04,0,2.26,0.18,3.73,0.55c1.47,0.33,2.51,0.74,3.12,1.18
			c1.33,0.96,2.23,2.63,2.69,5c0.11,0.41,0.29,1.11,0.54,2.18c0.25,0.93,0.36,1.41,0.36,1.48
			C178.59,22.59,178.27,22.92,177.62,23.48z M174.82,20.89c-0.25-1.44-0.68-2.63-1.33-3.59c-1.51-2.29-3.77-3.44-6.82-3.44
			c-1.26,0-2.3,0.59-3.34,1.15c-1.11,0.48-1.9,1.04-2.37,1.63c-0.68,0.85-1.11,1.85-1.36,2.96c-0.36,1.48-0.54,3-0.54,4.59
			c0,1.29,0.14,2.7,0.4,4.22c0.04,0.18,0.22,0.7,0.61,1.48c1.04,2.18,2.51,3.26,4.41,3.26c0.07,0,0.57,0,1.51-0.04
			c0.97-0.04,1.47-0.07,1.51-0.07c0.97,0,2.05-0.18,3.19-0.55c1.51-0.52,2.41-1.22,2.66-2.15c0.11-0.33,0.61-1.29,0.61-1.44v-0.44
			c-0.97-0.3-1.79-0.44-2.48-0.44c-0.18,0-0.57,0.37-1.22,1.11c-0.65,0.7-1.36,1.07-2.19,1.07c-1.04,0-2.08-0.44-3.09-1.29
			c-1.01-0.89-1.65-1.96-1.94-3.26c-0.04-0.15-0.4-0.52-0.4-0.63c0-0.26,0.18-0.44,0.54-0.48c3.09-0.3,5.1-0.44,6.03-0.44
			c0.07,0,0.75,0.04,2.08,0.15c1.33,0.07,2.05,0.11,2.12,0.11c0.47,0,1.08-0.07,1.83-0.19C175.11,23.07,174.97,21.96,174.82,20.89z
			 M170.62,22.51c-0.4,0.11-0.61,0.15-0.68,0.15c-0.11,0-0.79-0.07-0.97-0.07c-1.54,0.07-2.84,0.07-3.84,0.04
			c-0.11,0-0.72-0.15-0.86-0.15c-0.11,0-0.83,0.15-0.93,0.15c-0.07,0-0.11-0.3-0.11-0.85c0-0.11,0.04-0.22,0.14-0.37
			c0.11-0.74,0.5-1.67,1.18-2.74c0.83-1.26,1.58-1.89,2.26-1.89c0.47,0,1.01,0.15,1.65,0.48c1.33,0.59,1.69,1.18,2.44,2.66
			c0.11,0.33,0.22,1.11,0.36,2.37C171.23,22.33,171.02,22.4,170.62,22.51z M165.42,25.33c-0.47,0.11-0.9,0.11-1.22,0v0.44
			c0,0.33,0.25,0.85,0.75,1.55c0.54,0.7,1.01,1.15,1.47,1.41c0.14,0.07,0.61,0.18,1.44,0.33C166.57,28.36,165.74,27.14,165.42,25.33
			z M164.77,20.77c0.47-0.15,0.93-0.37,1.44-0.67c0-0.04,0.25-0.78,0.75-2.29C166.14,18.07,165.17,19.55,164.77,20.77z
			 M169.87,20.55c-0.14,0-0.54-0.07-0.68-0.07c-0.75,0-1.51,0.07-2.26,0.26c-0.11,0.04-0.65,0.33-1.65,0.89h4.59L169.87,20.55
			L169.87,20.55z M167.97,18.04c-0.47,0.81-0.68,1.37-0.68,1.67c0.54,0,1.76-0.07,2.19-0.07C169.37,19.07,168.51,18.3,167.97,18.04z
			 M176.62,18.48c-0.18-0.41-0.36-0.92-0.57-1.59c-0.11-0.33-0.4-0.81-0.83-1.37c-0.4-0.56-0.75-0.93-1.04-1.04
			c-0.5-0.26-1.22-0.59-2.19-0.93c-1.83-0.41-2.98-0.59-3.52-0.52h-0.61c0.4,0.11,0.93,0.22,1.65,0.37c0.29,0.04,0.72,0.11,1.29,0.3
			c0.36,0.19,0.97,0.59,1.87,1.29c0.47,0.33,1.04,0.89,1.76,1.67c1.15,1.74,1.8,4,1.9,6.73c0.79-0.67,1.19-1,1.19-1.04
			C177.52,22.51,177.23,21.22,176.62,18.48z M174.07,26.51c-0.07,0-0.18,0-0.32,0.04c-0.14,0.04-0.25,0.04-0.32,0
			c-0.11-0.11-0.22-0.15-0.29-0.15c-0.04,0-0.36,0.22-0.97,0.67c0.25,0.04,0.68,0.11,1.29,0.26c0.61,0.11,0.93,0.18,0.97,0.18
			c0.14,0,0.9-0.78,1.01-0.81C174.75,26.58,174.32,26.51,174.07,26.51z M175.72,27.66c-0.25,0.26-0.47,0.59-0.61,1
			c-0.36,1-0.61,1.7-0.75,2.04c0.18-0.11,0.47-0.48,0.83-1.11c0.36-0.67,0.54-1.18,0.54-1.59L175.72,27.66L175.72,27.66z"/>
	</g>
	<g>
		<path class="st1" d="M101.62,41.05H3.36c-1.02,0-1.86-0.83-1.86-1.86c0-1.02,0.83-1.86,1.86-1.86h98.26
			c1.02,0,1.86,0.83,1.86,1.86C103.48,40.22,102.65,41.05,101.62,41.05z M3.36,38.33c-0.47,0-0.86,0.39-0.86,0.86
			s0.39,0.86,0.86,0.86h98.26c0.47,0,0.86-0.39,0.86-0.86s-0.39-0.86-0.86-0.86H3.36z"/>
	</g>
	<g>
		<path class="st1" d="M175.84,41.05h-48.26c-1.02,0-1.86-0.83-1.86-1.86c0-1.02,0.83-1.86,1.86-1.86h48.26
			c1.03,0,1.86,0.83,1.86,1.86C177.7,40.22,176.87,41.05,175.84,41.05z M127.59,38.33c-0.47,0-0.86,0.39-0.86,0.86
			s0.39,0.86,0.86,0.86h48.26c0.47,0,0.86-0.39,0.86-0.86s-0.39-0.86-0.86-0.86H127.59z"/>
	</g>
</g>
</svg>
