<?xml version="1.0" encoding="utf-8"?>
<!-- Generator: Adobe Illustrator 24.2.1, SVG Export Plug-In . SVG Version: 6.00 Build 0)  -->
<svg version="1.1" id="SVG" xmlns="http://www.w3.org/2000/svg" xmlns:xlink="http://www.w3.org/1999/xlink" x="0px" y="0px"
	 viewBox="0 0 360 86" style="enable-background:new 0 0 360 86;" xml:space="preserve">
<style type="text/css">
	.st0{fill:#86222C;}
	.st1{fill:#197E3B;}
	.st2{fill:#6F582B;}
	.st3{fill:#31517B;}
	.st4{fill:#FF4557;}
	.st5{fill:#33FC7B;}
	.st6{fill:#71ABFF;}
	.st7{fill:#EAB75F;}
</style>
<g id="Base">
	<path class="st0" d="M20.61,6.35h52.74V16.9H83.9v50.81H73.35v12.49H20.61V67.71H10.06V16.9h10.55V6.35z M65.82,12.47H28.24V73
		h37.59V12.47z"/>
	<path class="st1" d="M121.24,6.35h40.06v11.24h10.55v5.65h-10.55v11.12h-11.12v11.29h-11.29v11.33h-11.06v15.85h44.41v7.37h-61.9
		V62.06h10.9V50.59h11.06V39.29h11.35l0-11.03l11.12,0V12.12h-26.93v11.12h-17.5v-5.29h10.9V6.35z"/>
	<path class="st2" d="M188.01,43.27V6.35h73.84v5.27v0.67h-56.44V40h33.88v5.55h-33.88v27.28h56.44V79h-73.84V43.27z"/>
	<path class="st3" d="M275.93,43.27V6.35h18.1V16.9h11.55v11.92h14.55V16.9h11.55V6.35h18.1v36.92v35.32h-18.1V32.94h-15.55v12.15
		h-6.55V32.94h-15.55v45.65h-18.1V43.27z"/>
</g>
<g id="Strips">
	<path class="st4" d="M73.75,13.75H20.13c-0.66,0-1.19-0.53-1.19-1.19v-1.02c0-0.66,0.53-1.19,1.19-1.19h53.62
		c0.66,0,1.19,0.53,1.19,1.19v1.02C74.94,13.21,74.41,13.75,73.75,13.75z"/>
	<path class="st4" d="M73.75,8.2H20.13c-0.66,0-1.19-0.53-1.19-1.19V5.99c0-0.66,0.53-1.19,1.19-1.19h53.62
		c0.66,0,1.19,0.53,1.19,1.19v1.02C74.94,7.67,74.41,8.2,73.75,8.2z"/>
	<path class="st4" d="M29.24,19.29H8.62c-0.66,0-1.19-0.53-1.19-1.19v-1.02c0-0.66,0.53-1.19,1.19-1.19h20.62
		c0.66,0,1.19,0.53,1.19,1.19v1.02C30.43,18.76,29.89,19.29,29.24,19.29z"/>
	<path class="st4" d="M29.24,24.84H8.62c-0.66,0-1.19-0.53-1.19-1.19v-1.02c0-0.66,0.53-1.19,1.19-1.19h20.62
		c0.66,0,1.19,0.53,1.19,1.19v1.02C30.43,24.3,29.89,24.84,29.24,24.84z"/>
	<path class="st4" d="M29.24,30.38H8.62c-0.66,0-1.19-0.53-1.19-1.19v-1.02c0-0.66,0.53-1.19,1.19-1.19h20.62
		c0.66,0,1.19,0.53,1.19,1.19v1.02C30.43,29.85,29.89,30.38,29.24,30.38z"/>
	<path class="st4" d="M29.24,35.93H8.62c-0.66,0-1.19-0.53-1.19-1.19v-1.02c0-0.66,0.53-1.19,1.19-1.19h20.62
		c0.66,0,1.19,0.53,1.19,1.19v1.02C30.43,35.39,29.89,35.93,29.24,35.93z"/>
	<path class="st4" d="M29.24,41.47H8.62c-0.66,0-1.19-0.53-1.19-1.19v-1.02c0-0.66,0.53-1.19,1.19-1.19h20.62
		c0.66,0,1.19,0.53,1.19,1.19v1.02C30.43,40.94,29.89,41.47,29.24,41.47z"/>
	<path class="st4" d="M29.24,47.02H8.62c-0.66,0-1.19-0.53-1.19-1.19v-1.02c0-0.66,0.53-1.19,1.19-1.19h20.62
		c0.66,0,1.19,0.53,1.19,1.19v1.02C30.43,46.48,29.89,47.02,29.24,47.02z"/>
	<path class="st4" d="M29.24,52.56H8.62c-0.66,0-1.19-0.53-1.19-1.19v-1.02c0-0.66,0.53-1.19,1.19-1.19h20.62
		c0.66,0,1.19,0.53,1.19,1.19v1.02C30.43,52.03,29.89,52.56,29.24,52.56z"/>
	<path class="st4" d="M29.24,58.11H8.62c-0.66,0-1.19-0.53-1.19-1.19V55.9c0-0.66,0.53-1.19,1.19-1.19h20.62
		c0.66,0,1.19,0.53,1.19,1.19v1.02C30.43,57.57,29.89,58.11,29.24,58.11z"/>
	<path class="st4" d="M29.24,63.65H8.62c-0.66,0-1.19-0.53-1.19-1.19v-1.02c0-0.66,0.53-1.19,1.19-1.19h20.62
		c0.66,0,1.19,0.53,1.19,1.19v1.02C30.43,63.12,29.89,63.65,29.24,63.65z"/>
	<path class="st4" d="M29.24,69.2H8.62c-0.66,0-1.19-0.53-1.19-1.19v-1.02c0-0.66,0.53-1.19,1.19-1.19h20.62
		c0.66,0,1.19,0.53,1.19,1.19v1.02C30.43,68.67,29.89,69.2,29.24,69.2z"/>
	<path class="st4" d="M73.75,80.29H20.13c-0.66,0-1.19-0.53-1.19-1.19v-1.02c0-0.66,0.53-1.19,1.19-1.19h53.62
		c0.66,0,1.19,0.53,1.19,1.19v1.02C74.94,79.76,74.41,80.29,73.75,80.29z"/>
	<path class="st4" d="M73.75,74.74H20.13c-0.66,0-1.19-0.53-1.19-1.19v-1.02c0-0.66,0.53-1.19,1.19-1.19h53.62
		c0.66,0,1.19,0.53,1.19,1.19v1.02C74.94,74.21,74.41,74.74,73.75,74.74z"/>
	<path class="st4" d="M84.88,19.29H64.26c-0.66,0-1.19-0.53-1.19-1.19v-1.02c0-0.66,0.53-1.19,1.19-1.19h20.62
		c0.66,0,1.19,0.53,1.19,1.19v1.02C86.07,18.76,85.54,19.29,84.88,19.29z"/>
	<path class="st4" d="M84.88,24.84H64.26c-0.66,0-1.19-0.53-1.19-1.19v-1.02c0-0.66,0.53-1.19,1.19-1.19h20.62
		c0.66,0,1.19,0.53,1.19,1.19v1.02C86.07,24.3,85.54,24.84,84.88,24.84z"/>
	<path class="st4" d="M84.88,30.38H64.26c-0.66,0-1.19-0.53-1.19-1.19v-1.02c0-0.66,0.53-1.19,1.19-1.19h20.62
		c0.66,0,1.19,0.53,1.19,1.19v1.02C86.07,29.85,85.54,30.38,84.88,30.38z"/>
	<path class="st4" d="M84.88,35.93H64.26c-0.66,0-1.19-0.53-1.19-1.19v-1.02c0-0.66,0.53-1.19,1.19-1.19h20.62
		c0.66,0,1.19,0.53,1.19,1.19v1.02C86.07,35.39,85.54,35.93,84.88,35.93z"/>
	<path class="st4" d="M84.88,41.47H64.26c-0.66,0-1.19-0.53-1.19-1.19v-1.02c0-0.66,0.53-1.19,1.19-1.19h20.62
		c0.66,0,1.19,0.53,1.19,1.19v1.02C86.07,40.94,85.54,41.47,84.88,41.47z"/>
	<path class="st4" d="M84.88,47.02H64.26c-0.66,0-1.19-0.53-1.19-1.19v-1.02c0-0.66,0.53-1.19,1.19-1.19h20.62
		c0.66,0,1.19,0.53,1.19,1.19v1.02C86.07,46.48,85.54,47.02,84.88,47.02z"/>
	<path class="st4" d="M84.88,52.56H64.26c-0.66,0-1.19-0.53-1.19-1.19v-1.02c0-0.66,0.53-1.19,1.19-1.19h20.62
		c0.66,0,1.19,0.53,1.19,1.19v1.02C86.07,52.03,85.54,52.56,84.88,52.56z"/>
	<path class="st4" d="M84.88,58.11H64.26c-0.66,0-1.19-0.53-1.19-1.19V55.9c0-0.66,0.53-1.19,1.19-1.19h20.62
		c0.66,0,1.19,0.53,1.19,1.19v1.02C86.07,57.57,85.54,58.11,84.88,58.11z"/>
	<path class="st4" d="M84.88,63.65H64.26c-0.66,0-1.19-0.53-1.19-1.19v-1.02c0-0.66,0.53-1.19,1.19-1.19h20.62
		c0.66,0,1.19,0.53,1.19,1.19v1.02C86.07,63.12,85.54,63.65,84.88,63.65z"/>
	<path class="st4" d="M84.88,69.2H64.26c-0.66,0-1.19-0.53-1.19-1.19v-1.02c0-0.66,0.53-1.19,1.19-1.19h20.62
		c0.66,0,1.19,0.53,1.19,1.19v1.02C86.07,68.67,85.54,69.2,84.88,69.2z"/>
	<path class="st5" d="M162.32,13.75h-42.52c-0.66,0-1.19-0.53-1.19-1.19v-1.02c0-0.66,0.53-1.19,1.19-1.19h42.52
		c0.66,0,1.19,0.53,1.19,1.19v1.02C163.52,13.21,162.98,13.75,162.32,13.75z"/>
	<path class="st5" d="M162.32,8.2h-42.52c-0.66,0-1.19-0.53-1.19-1.19V5.99c0-0.66,0.53-1.19,1.19-1.19h42.52
		c0.66,0,1.19,0.53,1.19,1.19v1.02C163.52,7.67,162.98,8.2,162.32,8.2z"/>
	<path class="st5" d="M129.27,19.29h-20.62c-0.66,0-1.19-0.53-1.19-1.19v-1.02c0-0.66,0.53-1.19,1.19-1.19h20.62
		c0.66,0,1.19,0.53,1.19,1.19v1.02C130.46,18.76,129.93,19.29,129.27,19.29z"/>
	<path class="st5" d="M129.27,24.84h-20.62c-0.66,0-1.19-0.53-1.19-1.19v-1.02c0-0.66,0.53-1.19,1.19-1.19h20.62
		c0.66,0,1.19,0.53,1.19,1.19v1.02C130.46,24.3,129.93,24.84,129.27,24.84z"/>
	<path class="st5" d="M129.27,63.65h-20.62c-0.66,0-1.19-0.53-1.19-1.19v-1.02c0-0.66,0.53-1.19,1.19-1.19h20.62
		c0.66,0,1.19,0.53,1.19,1.19v1.02C130.46,63.12,129.93,63.65,129.27,63.65z"/>
	<path class="st5" d="M129.27,69.2h-20.62c-0.66,0-1.19-0.53-1.19-1.19v-1.02c0-0.66,0.53-1.19,1.19-1.19h20.62
		c0.66,0,1.19,0.53,1.19,1.19v1.02C130.46,68.67,129.93,69.2,129.27,69.2z"/>
	<path class="st5" d="M173.61,80.29h-64.96c-0.66,0-1.19-0.53-1.19-1.19v-1.02c0-0.66,0.53-1.19,1.19-1.19h64.96
		c0.66,0,1.19,0.53,1.19,1.19v1.02C174.8,79.76,174.27,80.29,173.61,80.29z"/>
	<path class="st5" d="M173.61,74.74h-64.96c-0.66,0-1.19-0.53-1.19-1.19v-1.02c0-0.66,0.53-1.19,1.19-1.19h64.96
		c0.66,0,1.19,0.53,1.19,1.19v1.02C174.8,74.21,174.27,74.74,173.61,74.74z"/>
	<path class="st5" d="M173.61,19.29h-20.62c-0.66,0-1.19-0.53-1.19-1.19v-1.02c0-0.66,0.53-1.19,1.19-1.19h20.62
		c0.66,0,1.19,0.53,1.19,1.19v1.02C174.8,18.76,174.27,19.29,173.61,19.29z"/>
	<path class="st5" d="M173.61,24.84h-20.62c-0.66,0-1.19-0.53-1.19-1.19v-1.02c0-0.66,0.53-1.19,1.19-1.19h20.62
		c0.66,0,1.19,0.53,1.19,1.19v1.02C174.8,24.3,174.27,24.84,173.61,24.84z"/>
	<path class="st5" d="M162.91,30.38h-20.62c-0.66,0-1.19-0.53-1.19-1.19v-1.02c0-0.66,0.53-1.19,1.19-1.19h20.62
		c0.66,0,1.19,0.53,1.19,1.19v1.02C164.1,29.85,163.57,30.38,162.91,30.38z"/>
	<path class="st5" d="M162.91,35.93h-20.62c-0.66,0-1.19-0.53-1.19-1.19v-1.02c0-0.66,0.53-1.19,1.19-1.19h20.62
		c0.66,0,1.19,0.53,1.19,1.19v1.02C164.1,35.39,163.57,35.93,162.91,35.93z"/>
	<path class="st5" d="M151.65,41.47h-20.62c-0.66,0-1.19-0.53-1.19-1.19v-1.02c0-0.66,0.53-1.19,1.19-1.19h20.62
		c0.66,0,1.19,0.53,1.19,1.19v1.02C152.84,40.94,152.31,41.47,151.65,41.47z"/>
	<path class="st5" d="M151.65,47.02h-20.62c-0.66,0-1.19-0.53-1.19-1.19v-1.02c0-0.66,0.53-1.19,1.19-1.19h20.62
		c0.66,0,1.19,0.53,1.19,1.19v1.02C152.84,46.48,152.31,47.02,151.65,47.02z"/>
	<path class="st5" d="M140.43,52.56h-20.62c-0.66,0-1.19-0.53-1.19-1.19v-1.02c0-0.66,0.53-1.19,1.19-1.19h20.62
		c0.66,0,1.19,0.53,1.19,1.19v1.02C141.62,52.03,141.09,52.56,140.43,52.56z"/>
	<path class="st5" d="M140.43,58.11h-20.62c-0.66,0-1.19-0.53-1.19-1.19V55.9c0-0.66,0.53-1.19,1.19-1.19h20.62
		c0.66,0,1.19,0.53,1.19,1.19v1.02C141.62,57.57,141.09,58.11,140.43,58.11z"/>
	<path class="st6" d="M295.53,13.75h-20.68c-0.66,0-1.19-0.53-1.19-1.19v-1.02c0-0.66,0.53-1.19,1.19-1.19h20.68
		c0.66,0,1.19,0.53,1.19,1.19v1.02C296.72,13.21,296.19,13.75,295.53,13.75z"/>
	<path class="st6" d="M295.53,8.2h-20.68c-0.66,0-1.19-0.53-1.19-1.19V5.99c0-0.66,0.53-1.19,1.19-1.19h20.68
		c0.66,0,1.19,0.53,1.19,1.19v1.02C296.72,7.67,296.19,8.2,295.53,8.2z"/>
	<path class="st6" d="M295.53,80.29h-20.68c-0.66,0-1.19-0.53-1.19-1.19v-1.02c0-0.66,0.53-1.19,1.19-1.19h20.68
		c0.66,0,1.19,0.53,1.19,1.19v1.02C296.72,79.76,296.19,80.29,295.53,80.29z"/>
	<path class="st6" d="M295.53,74.74h-20.68c-0.66,0-1.19-0.53-1.19-1.19v-1.02c0-0.66,0.53-1.19,1.19-1.19h20.68
		c0.66,0,1.19,0.53,1.19,1.19v1.02C296.72,74.21,296.19,74.74,295.53,74.74z"/>
	<path class="st6" d="M306.59,19.29h-31.73c-0.66,0-1.19-0.53-1.19-1.19v-1.02c0-0.66,0.53-1.19,1.19-1.19h31.73
		c0.66,0,1.19,0.53,1.19,1.19v1.02C307.78,18.76,307.25,19.29,306.59,19.29z"/>
	<path class="st6" d="M306.59,24.84h-31.73c-0.66,0-1.19-0.53-1.19-1.19v-1.02c0-0.66,0.53-1.19,1.19-1.19h31.73
		c0.66,0,1.19,0.53,1.19,1.19v1.02C307.78,24.3,307.25,24.84,306.59,24.84z"/>
	<path class="st6" d="M295.53,41.47h-20.67c-0.66,0-1.19-0.53-1.19-1.19v-1.02c0-0.66,0.53-1.19,1.19-1.19h20.67
		c0.66,0,1.19,0.53,1.19,1.19v1.02C296.72,40.94,296.19,41.47,295.53,41.47z"/>
	<path class="st6" d="M295.53,47.02h-20.67c-0.66,0-1.19-0.53-1.19-1.19v-1.02c0-0.66,0.53-1.19,1.19-1.19h20.67
		c0.66,0,1.19,0.53,1.19,1.19v1.02C296.72,46.48,296.19,47.02,295.53,47.02z"/>
	<path class="st6" d="M295.48,52.56h-20.62c-0.66,0-1.19-0.53-1.19-1.19v-1.02c0-0.66,0.53-1.19,1.19-1.19h20.62
		c0.66,0,1.19,0.53,1.19,1.19v1.02C296.67,52.03,296.14,52.56,295.48,52.56z"/>
	<path class="st6" d="M295.48,58.11h-20.62c-0.66,0-1.19-0.53-1.19-1.19V55.9c0-0.66,0.53-1.19,1.19-1.19h20.62
		c0.66,0,1.19,0.53,1.19,1.19v1.02C296.67,57.57,296.14,58.11,295.48,58.11z"/>
	<path class="st6" d="M295.48,63.65h-20.62c-0.66,0-1.19-0.53-1.19-1.19v-1.02c0-0.66,0.53-1.19,1.19-1.19h20.62
		c0.66,0,1.19,0.53,1.19,1.19v1.02C296.67,63.12,296.14,63.65,295.48,63.65z"/>
	<path class="st6" d="M295.48,69.2h-20.62c-0.66,0-1.19-0.53-1.19-1.19v-1.02c0-0.66,0.53-1.19,1.19-1.19h20.62
		c0.66,0,1.19,0.53,1.19,1.19v1.02C296.67,68.67,296.14,69.2,295.48,69.2z"/>
	<path class="st6" d="M351.18,13.75H330.5c-0.66,0-1.19-0.53-1.19-1.19v-1.02c0-0.66,0.53-1.19,1.19-1.19h20.68
		c0.66,0,1.19,0.53,1.19,1.19v1.02C352.37,13.21,351.84,13.75,351.18,13.75z"/>
	<path class="st6" d="M351.18,8.2H330.5c-0.66,0-1.19-0.53-1.19-1.19V5.99c0-0.66,0.53-1.19,1.19-1.19h20.68
		c0.66,0,1.19,0.53,1.19,1.19v1.02C352.37,7.67,351.84,8.2,351.18,8.2z"/>
	<path class="st6" d="M351.18,80.29H330.5c-0.66,0-1.19-0.53-1.19-1.19v-1.02c0-0.66,0.53-1.19,1.19-1.19h20.68
		c0.66,0,1.19,0.53,1.19,1.19v1.02C352.37,79.76,351.84,80.29,351.18,80.29z"/>
	<path class="st6" d="M351.18,74.74H330.5c-0.66,0-1.19-0.53-1.19-1.19v-1.02c0-0.66,0.53-1.19,1.19-1.19h20.68
		c0.66,0,1.19,0.53,1.19,1.19v1.02C352.37,74.21,351.84,74.74,351.18,74.74z"/>
	<path class="st6" d="M351.13,19.29h-31.95c-0.66,0-1.19-0.53-1.19-1.19v-1.02c0-0.66,0.53-1.19,1.19-1.19h31.95
		c0.66,0,1.19,0.53,1.19,1.19v1.02C352.32,18.76,351.79,19.29,351.13,19.29z"/>
	<path class="st6" d="M351.13,24.84h-31.95c-0.66,0-1.19-0.53-1.19-1.19v-1.02c0-0.66,0.53-1.19,1.19-1.19h31.95
		c0.66,0,1.19,0.53,1.19,1.19v1.02C352.32,24.3,351.79,24.84,351.13,24.84z"/>
	<path class="st6" d="M351.18,41.47h-20.67c-0.66,0-1.19-0.53-1.19-1.19v-1.02c0-0.66,0.53-1.19,1.19-1.19h20.67
		c0.66,0,1.19,0.53,1.19,1.19v1.02C352.37,40.94,351.84,41.47,351.18,41.47z"/>
	<path class="st6" d="M351.18,47.02h-20.67c-0.66,0-1.19-0.53-1.19-1.19v-1.02c0-0.66,0.53-1.19,1.19-1.19h20.67
		c0.66,0,1.19,0.53,1.19,1.19v1.02C352.37,46.48,351.84,47.02,351.18,47.02z"/>
	<path class="st6" d="M351.13,52.56h-20.62c-0.66,0-1.19-0.53-1.19-1.19v-1.02c0-0.66,0.53-1.19,1.19-1.19h20.62
		c0.66,0,1.19,0.53,1.19,1.19v1.02C352.32,52.03,351.79,52.56,351.13,52.56z"/>
	<path class="st6" d="M351.13,58.11h-20.62c-0.66,0-1.19-0.53-1.19-1.19V55.9c0-0.66,0.53-1.19,1.19-1.19h20.62
		c0.66,0,1.19,0.53,1.19,1.19v1.02C352.32,57.57,351.79,58.11,351.13,58.11z"/>
	<path class="st6" d="M351.13,63.65h-20.62c-0.66,0-1.19-0.53-1.19-1.19v-1.02c0-0.66,0.53-1.19,1.19-1.19h20.62
		c0.66,0,1.19,0.53,1.19,1.19v1.02C352.32,63.12,351.79,63.65,351.13,63.65z"/>
	<path class="st6" d="M351.13,69.2h-20.62c-0.66,0-1.19-0.53-1.19-1.19v-1.02c0-0.66,0.53-1.19,1.19-1.19h20.62
		c0.66,0,1.19,0.53,1.19,1.19v1.02C352.32,68.67,351.79,69.2,351.13,69.2z"/>
	<path class="st6" d="M316.8,41.47h-7.83c-0.66,0-1.19-0.53-1.19-1.19v-1.02c0-0.66,0.53-1.19,1.19-1.19h7.83
		c0.66,0,1.19,0.53,1.19,1.19v1.02C317.99,40.94,317.45,41.47,316.8,41.47z"/>
	<path class="st6" d="M316.8,47.02h-7.83c-0.66,0-1.19-0.53-1.19-1.19v-1.02c0-0.66,0.53-1.19,1.19-1.19h7.83
		c0.66,0,1.19,0.53,1.19,1.19v1.02C317.99,46.48,317.45,47.02,316.8,47.02z"/>
	<path class="st6" d="M351.12,32.53h-76.2c-0.69,0-1.25,0.51-1.25,1.13v1.13c0,0.63,0.56,1.13,1.25,1.13h20.55
		c0.69,0,1.25-0.51,1.25-1.13v-0.74h11.06v0.74c0,0.63,0.56,1.13,1.25,1.13h7.71c0.69,0,1.25-0.51,1.25-1.13v-0.74h11.33v0.74
		c0,0.63,0.56,1.13,1.25,1.13h20.55c0.69,0,1.25-0.51,1.25-1.13v-1.13C352.37,33.03,351.81,32.53,351.12,32.53z"/>
	<path class="st6" d="M351.12,26.98h-31.95c-0.58,0-1.04,0.36-1.19,0.84h-10.21c-0.14-0.48-0.61-0.84-1.19-0.84h-31.67
		c-0.69,0-1.25,0.51-1.25,1.13v1.13c0,0.63,0.56,1.13,1.25,1.13h76.2c0.69,0,1.25-0.51,1.25-1.13v-1.13
		C352.37,27.49,351.81,26.98,351.12,26.98z"/>
	<path class="st7" d="M262.3,13.75h-76c-0.66,0-1.19-0.53-1.19-1.19v-1.02c0-0.66,0.53-1.19,1.19-1.19h76
		c0.66,0,1.19,0.53,1.19,1.19v1.02C263.49,13.21,262.95,13.75,262.3,13.75z"/>
	<path class="st7" d="M262.3,8.2h-76c-0.66,0-1.19-0.53-1.19-1.19V5.99c0-0.66,0.53-1.19,1.19-1.19h76c0.66,0,1.19,0.53,1.19,1.19
		v1.02C263.49,7.67,262.95,8.2,262.3,8.2z"/>
	<path class="st7" d="M206.88,19.29h-20.62c-0.66,0-1.19-0.53-1.19-1.19v-1.02c0-0.66,0.53-1.19,1.19-1.19h20.62
		c0.66,0,1.19,0.53,1.19,1.19v1.02C208.07,18.76,207.54,19.29,206.88,19.29z"/>
	<path class="st7" d="M206.88,24.84h-20.62c-0.66,0-1.19-0.53-1.19-1.19v-1.02c0-0.66,0.53-1.19,1.19-1.19h20.62
		c0.66,0,1.19,0.53,1.19,1.19v1.02C208.07,24.3,207.54,24.84,206.88,24.84z"/>
	<path class="st7" d="M206.88,30.38h-20.62c-0.66,0-1.19-0.53-1.19-1.19v-1.02c0-0.66,0.53-1.19,1.19-1.19h20.62
		c0.66,0,1.19,0.53,1.19,1.19v1.02C208.07,29.85,207.54,30.38,206.88,30.38z"/>
	<path class="st7" d="M206.88,35.93h-20.62c-0.66,0-1.19-0.53-1.19-1.19v-1.02c0-0.66,0.53-1.19,1.19-1.19h20.62
		c0.66,0,1.19,0.53,1.19,1.19v1.02C208.07,35.39,207.54,35.93,206.88,35.93z"/>
	<path class="st7" d="M240.65,41.47h-54.38c-0.66,0-1.19-0.53-1.19-1.19v-1.02c0-0.66,0.53-1.19,1.19-1.19h54.38
		c0.66,0,1.19,0.53,1.19,1.19v1.02C241.84,40.94,241.31,41.47,240.65,41.47z"/>
	<path class="st7" d="M240.65,47.02h-54.38c-0.66,0-1.19-0.53-1.19-1.19v-1.02c0-0.66,0.53-1.19,1.19-1.19h54.38
		c0.66,0,1.19,0.53,1.19,1.19v1.02C241.84,46.48,241.31,47.02,240.65,47.02z"/>
	<path class="st7" d="M206.88,52.56h-20.62c-0.66,0-1.19-0.53-1.19-1.19v-1.02c0-0.66,0.53-1.19,1.19-1.19h20.62
		c0.66,0,1.19,0.53,1.19,1.19v1.02C208.07,52.03,207.54,52.56,206.88,52.56z"/>
	<path class="st7" d="M206.88,58.11h-20.62c-0.66,0-1.19-0.53-1.19-1.19V55.9c0-0.66,0.53-1.19,1.19-1.19h20.62
		c0.66,0,1.19,0.53,1.19,1.19v1.02C208.07,57.57,207.54,58.11,206.88,58.11z"/>
	<path class="st7" d="M206.88,63.65h-20.62c-0.66,0-1.19-0.53-1.19-1.19v-1.02c0-0.66,0.53-1.19,1.19-1.19h20.62
		c0.66,0,1.19,0.53,1.19,1.19v1.02C208.07,63.12,207.54,63.65,206.88,63.65z"/>
	<path class="st7" d="M206.88,69.2h-20.62c-0.66,0-1.19-0.53-1.19-1.19v-1.02c0-0.66,0.53-1.19,1.19-1.19h20.62
		c0.66,0,1.19,0.53,1.19,1.19v1.02C208.07,68.67,207.54,69.2,206.88,69.2z"/>
	<path class="st7" d="M262.3,80.29h-76c-0.66,0-1.19-0.53-1.19-1.19v-1.02c0-0.66,0.53-1.19,1.19-1.19h76
		c0.66,0,1.19,0.53,1.19,1.19v1.02C263.49,79.76,262.95,80.29,262.3,80.29z"/>
	<path class="st7" d="M262.3,74.74h-76c-0.66,0-1.19-0.53-1.19-1.19v-1.02c0-0.66,0.53-1.19,1.19-1.19h76
		c0.66,0,1.19,0.53,1.19,1.19v1.02C263.49,74.21,262.95,74.74,262.3,74.74z"/>
</g>
</svg>
