<svg id="Layer_1" data-name="Layer 1" xmlns="http://www.w3.org/2000/svg" xmlns:xlink="http://www.w3.org/1999/xlink" viewBox="0 0 330.98 172.81"><defs><style>.cls-1{fill:#231f20;}.cls-2{fill:#f57e25;}.cls-3{fill:url(#linear-gradient);}.cls-4{fill:url(#linear-gradient-2);}.cls-5{fill:url(#linear-gradient-3);}.cls-6{fill:url(#linear-gradient-4);}.cls-7{fill:url(#linear-gradient-5);}.cls-8{fill:url(#linear-gradient-6);}</style><linearGradient id="linear-gradient" x1="92.46" y1="167.74" x2="92.46" y2="94.33" gradientUnits="userSpaceOnUse"><stop offset="0" stop-color="#fdd55f"/><stop offset="1" stop-color="#f89333"/></linearGradient><linearGradient id="linear-gradient-2" x1="127.69" y1="152.69" x2="127.69" y2="79.28" xlink:href="#linear-gradient"/><linearGradient id="linear-gradient-3" x1="177.19" y1="152.69" x2="177.19" y2="79.28" xlink:href="#linear-gradient"/><linearGradient id="linear-gradient-4" x1="234.1" y1="152.69" x2="234.1" y2="79.28" xlink:href="#linear-gradient"/><linearGradient id="linear-gradient-5" x1="219.5" y1="167.74" x2="219.5" y2="94.33" xlink:href="#linear-gradient"/><linearGradient id="linear-gradient-6" x1="266.68" y1="167.74" x2="266.68" y2="94.33" xlink:href="#linear-gradient"/></defs><path class="cls-1" d="M339.84,21.13c-2.21-3.85-7.82-6.06-13.64-6.06H292.88a15.59,15.59,0,0,0-8.58,2.72,9.65,9.65,0,0,0-6.84-2.72H239.3a17.21,17.21,0,0,0-11.84,5.4,9.18,9.18,0,0,0-1.27-1.95c-3-3.47-7.4-3.47-9.77-3.47H165.09a11.74,11.74,0,0,0-8.79,3.85,11.18,11.18,0,0,0-.92,1.14c-2.46-2.83-6.08-5-9.24-5H93.37a8.4,8.4,0,0,0-6.79,3.61,8.6,8.6,0,0,0-.49.78c-3.63-3.92-8.29-4.38-12.6-4.38H22.08c-3.72,0-8,1.64-10,4.5A11.2,11.2,0,0,0,11,29.88v.06a58,58,0,0,0,3.88,7.32l87.44,150.6H244S333.45,44.05,338.38,35.6C342.45,28.63,341.42,23.89,339.84,21.13Z" transform="translate(-10.25 -15.05)"/><path class="cls-2" d="M73.49,23.07H24.08c-3.91,0-5.69,3.36-4.44,6.71A64.51,64.51,0,0,0,23.56,37l84.28,147.84H134.2S88.32,41.92,84.31,30.3C82,23.6,78.67,23.07,73.49,23.07ZM76.65,80c-1.49,0-3.93.07-5.39,0-1.66,0-2-.45-2.65-1.75L54.24,49.44A1.83,1.83,0,0,1,56,46.63l5.71,0a3.67,3.67,0,0,1,3.72,2.54L77.67,77.36C78.36,78.93,77.3,80,76.65,80Z" transform="translate(-10.25 -15.05)"/><path class="cls-2" d="M197,81.24c-2.68,0-4.75-1.59-4.6-3.58l.23-3.2H214.8l2.35-12.21.86-5.7a3,3,0,0,0-2.72-3.43H199.66c-3,0-5.37-1.9-5.19-4.46l.21-2.91h19.69c2.52,0,5.77-1.43,6.57-6l1.41-8.68c1.34-8.58-2.47-8-7.76-8h-49.5c-3.92,0-6.7,3.5-6.24,8.57l11.88,153.23h23.35L213.63,81.24Z" transform="translate(-10.25 -15.05)"/><path class="cls-2" d="M128.7,81.18c-1.09,0-1.44-.11-1.64-.75l-1.25-5.5c-.29-1-.17-.83,1.32-.83h19.44c3.88,0,9.72-.15,9-8.41-.79-8.92-3.29-37.19-3.29-37.19-.18-1.92-4-5.44-6.13-5.44H93.37c-2.18,0-3.38,3.54-2.75,5.48l4.45,13.89c.81,2.39,3.57,3.33,5.58,3.33h31.44l.51,2.86c.43,2.44-1.56,4.51-4.46,4.51H104.41c-3.06-.18-5.37,1.68-4,6.08h0l37.8,125.65h28.17l-9.5-103.68Z" transform="translate(-10.25 -15.05)"/><path class="cls-2" d="M324.2,23.07H292.88c-6,0-10.35,6.86-10.35,6.86s-.51-6.86-5.07-6.86H239.3c-3.91,0-8.3,3.35-9.64,6.7-.73,1.87-31.29,155.09-31.29,155.09h10.79l42-135.42a4.36,4.36,0,0,1,3.95-2.81s7.58,0,7.74.18L216.12,184.86h9.23l62-135.42a5.28,5.28,0,0,1,4.37-2.81H300L230.92,184.86h7.69S325.24,43.07,330.2,34.57C335.51,25.48,329.38,23.07,324.2,23.07Z" transform="translate(-10.25 -15.05)"/><path class="cls-3" d="M56.23,94.33l41.85,73.41H128.7c-5.71-17.76-15-46.63-23.61-73.41Z" transform="translate(-10.25 -15.05)"/><polygon class="cls-4" points="100.78 79.28 122.86 152.69 154.61 152.69 147.88 79.28 100.78 79.28"/><polygon class="cls-5" points="153.46 79.28 159.15 152.69 187.06 152.69 200.91 79.28 153.46 79.28"/><polygon class="cls-6" points="236.48 79.28 211.65 152.69 222.94 152.69 256.55 79.28 236.48 79.28"/><path class="cls-7" d="M216.49,94.33c-5.38,26.77-11.15,55.64-14.7,73.41h12.67L237.2,94.33Z" transform="translate(-10.25 -15.05)"/><path class="cls-8" d="M276.18,94.33l-36.7,73.41h9.58c10.92-17.88,28.67-46.94,44.82-73.41Z" transform="translate(-10.25 -15.05)"/></svg>