<svg xmlns="http://www.w3.org/2000/svg" viewBox="0 0 210 90" style="enable-background:new 0 0 210 90" xml:space="preserve">
  <style>
    .st1{fill:#7f8dc1}
  </style>
  <g id="svg1">
    <linearGradient id="SVGID_1_" gradientUnits="userSpaceOnUse" x1="66.28" y1="17.41" x2="159.28" y2="95.44">
      <stop offset=".51" style="stop-color:#a6afd5"/>
      <stop offset=".6" style="stop-color:#cacfe2"/>
      <stop offset=".68" style="stop-color:#e2e4ea"/>
      <stop offset=".73" style="stop-color:#eaebed"/>
      <stop offset=".78" style="stop-color:#e1e3ea"/>
      <stop offset=".86" style="stop-color:#c7cde1"/>
      <stop offset=".94" style="stop-color:#a6afd5"/>
    </linearGradient>
    <path d="M146.05 87.48h16.86s43.14-37.87 43.14-63.07c0-21.98-27.79-20.72-27.79-20.72-28.75 0-63.79 14.13-90.57 27.95C39.81 56.37 7.48 87.48 7.48 87.48s80.78-59.85 136.48-59.85c15.79 0 25.77 5.11 25.77 17.95.01 19.57-23.68 41.9-23.68 41.9z" style="fill:url(#SVGID_1_)"/>
  </g>
  <g id="svg2">
    <path class="st1" d="M74.22 58.43c-6.05 0-8.5 3.54-8.5 3.54l.05-13.91h-6.64l-.05 32.38c1.45.53 3.63.96 5.58 1.29 1.95.33 3.41.5 5.36.5 14.07 0 15.84-10.76 15.84-13.13 0-2.12-.63-10.67-11.64-10.67zm4.05 15.71c-.64 1.29-3.84 4.46-8.57 4.46-2.56 0-4.23-1.4-4.23-1.4V71c0-5.85 5.34-8.41 6.8-8.41 2.27 0 4.18.85 5.29 2.12 1.12 1.27 1.67 2.97 1.67 5.1 0 1.6-.32 3.05-.96 4.33zM99.22 58.43c-12.16 0-12.86 9.55-12.86 11.86s-.51 11.94 14.13 11.94c3.4 0 7.2-.72 10.06-1.74l-.73-3.72s-3.06 1.53-8.1 1.53c-9.36 0-8.94-5.69-9.08-7.96h18.93c0-2.42 1.14-11.91-12.35-11.91zm-6.58 9.28a6.2 6.2 0 0 1 1.94-4.22 6.37 6.37 0 0 1 4.44-1.51c1.97 0 3.51.52 4.62 1.55a5.43 5.43 0 0 1 1.66 4.18H92.64zM130.26 58.74c-.86-.2-1.7-.31-2.53-.31-3.42 0-7.09 5.01-7.09 5.01v-4.48h-6.03l-.05 22.75h6.23l.05-10.05c0-1.6-.14-2.99.46-4.16a6.24 6.24 0 0 1 2.48-2.67c1.06-.61 2.28-1.85 3.67-1.85.73 0 1.52.1 2.38.31l.43-4.55zM182.86 60.55c-1.62-1.47-4.28-2.12-7.34-2.12-6.53 0-9.35 4.07-9.35 4.07v-3.54h-6.04l-.05 22.75h6.2V70.47c.03-2.51.71-4.4 2.03-5.69 1.32-1.28 3.08-1.92 5.29-1.92 4.2 0 5.18 1.65 5.18 4.94v13.91h6.15l.05-14.4c-.01-2.97-.5-5.29-2.12-6.76zM48.35 52.59c-2.81-1.36-6.32-2.03-10.54-2.03-3.96 0-7.36.72-10.21 2.14-2.85 1.43-4.99 3.35-6.44 5.75S19 63.51 19 66.4c0 3.04.67 5.74 2 8.12a13.9 13.9 0 0 0 6.19 5.65c2.79 1.39 6.34 2.08 10.63 2.08 4.25 0 7.78-.7 10.6-2.1a14.03 14.03 0 0 0 6.21-5.66c1.33-2.38 2-5.07 2-8.07 0-3.09-.68-5.83-2.03-8.2a13.8 13.8 0 0 0-6.25-5.63zm.16 19.86a9.4 9.4 0 0 1-3.99 4.1 13.85 13.85 0 0 1-6.71 1.48c-2.68 0-4.92-.49-6.71-1.48a9.34 9.34 0 0 1-3.99-4.1 13.43 13.43 0 0 1-1.3-6.05c0-2.28.45-4.3 1.36-6.05a9.7 9.7 0 0 1 4.05-4.1 13.57 13.57 0 0 1 6.59-1.48c2.6 0 4.8.49 6.59 1.48a9.7 9.7 0 0 1 4.05 4.1 12.94 12.94 0 0 1 1.36 6.05c0 2.28-.43 4.3-1.3 6.05zM150.52 59.66a18.19 18.19 0 0 0-7.67-1.47c-2.67 0-5.09.52-7.25 1.56a12.16 12.16 0 0 0-5.05 4.35 11.47 11.47 0 0 0-1.82 6.4c0 2.47.57 4.6 1.71 6.4a10.9 10.9 0 0 0 4.86 4.12c2.1.95 4.62 1.43 7.54 1.43 2.85 0 5.34-.52 7.46-1.56a11.92 11.92 0 0 0 4.92-4.28 11.09 11.09 0 0 0 1.74-6.11c0-2.56-.54-4.76-1.63-6.6a10.47 10.47 0 0 0-4.81-4.24zm-1.79 16.41c-1.33 1.33-3.29 1.99-5.88 1.99s-4.55-.66-5.88-1.99-1.99-3.16-1.99-5.5c0-1.67.32-3.12.97-4.33a6.5 6.5 0 0 1 2.74-2.75 8.83 8.83 0 0 1 4.16-.93c2.62 0 4.59.69 5.91 2.06 1.31 1.37 1.97 3.36 1.97 5.95 0 2.34-.67 4.17-2 5.5z"/>
  </g>
  <path class="st1" d="M76.84 14.18h-5.59L73.2 5.7H25.68l-5 21.91h18.95l1.24-5.47H29.69l.66-3.01h11.19l1.13-4.93H31.49l.67-3.01H49.9l-3.74 16.45h7.77l3.73-16.45h6.54l-3.74 16.45h7.77l1.9-8.49h5.59l-1.93 8.49h7.77l5-21.92h-7.77z" id="svg3"/>
</svg>
