<svg xmlns="http://www.w3.org/2000/svg" viewBox="0 0 330 70" style="enable-background:new 0 0 330 70" xml:space="preserve">
  <style>
    .st0{fill:#383e55}
  </style>
  <g id="svg1">
    <path class="st0" d="M201.95 24.87c-6.77 0-9.51 3.97-9.51 3.97l.06-15.58h-7.44L185 49.5c1.62.59 4.07 1.07 6.25 1.44 2.18.37 3.82.56 6 .56 15.75 0 17.73-12.05 17.73-14.69 0-2.37-.7-11.94-13.03-11.94zm4.53 17.58c-.71 1.44-4.29 4.99-9.6 4.99a7.97 7.97 0 0 1-4.74-1.56v-6.94c0-6.55 5.98-9.42 7.61-9.42 2.54 0 4.68.96 5.93 2.38s1.87 3.32 1.87 5.71c0 1.79-.36 3.41-1.07 4.84zM229.94 24.87c-13.61 0-14.39 10.69-14.39 13.27s-.57 13.37 15.82 13.37c3.81 0 8.06-.81 11.26-1.95l-.82-4.17s-3.42 1.71-9.07 1.71c-10.47 0-10.01-6.37-10.17-8.91h21.19c0-2.71 1.27-13.32-13.82-13.32zm-7.37 10.38a7 7 0 0 1 2.17-4.73 7.15 7.15 0 0 1 4.97-1.69c2.21 0 3.93.58 5.17 1.74a6.1 6.1 0 0 1 1.86 4.68h-14.17zM264.69 25.21c-.96-.23-1.9-.34-2.83-.34-3.83 0-7.94 5.61-7.94 5.61v-5.02h-6.75l-.06 25.47h6.98l.05-11.26c0-1.79-.15-3.35.51-4.65a7.05 7.05 0 0 1 2.77-2.99c1.18-.69 2.55-2.07 4.11-2.07.81 0 1.7.12 2.66.34l.5-5.09zM323.57 27.24c-1.82-1.65-4.79-2.37-8.22-2.37-7.31 0-10.47 4.55-10.47 4.55v-3.97h-6.76l-.06 25.47H305V38.34c.04-2.81.8-4.93 2.27-6.37 1.47-1.44 3.45-2.15 5.92-2.15 4.7 0 5.8 1.85 5.8 5.53v15.58h6.88l.06-16.12c0-3.33-.55-5.92-2.36-7.57zM172.99 18.33c-3.15-1.52-7.08-2.28-11.8-2.28-4.43 0-8.24.8-11.43 2.4a17.09 17.09 0 0 0-7.21 6.44 16.92 16.92 0 0 0-2.42 8.89c0 3.4.75 6.43 2.24 9.09a15.57 15.57 0 0 0 6.93 6.32c3.13 1.55 7.09 2.33 11.9 2.33 4.76 0 8.71-.78 11.86-2.35a15.75 15.75 0 0 0 6.96-6.34 18.17 18.17 0 0 0 2.24-9.04c0-3.46-.76-6.52-2.27-9.18a15.5 15.5 0 0 0-7-6.28zm.18 22.23a10.42 10.42 0 0 1-4.47 4.59c-2.01 1.1-4.51 1.65-7.51 1.65s-5.51-.55-7.51-1.65a10.48 10.48 0 0 1-4.47-4.59 15.08 15.08 0 0 1-1.46-6.77c0-2.56.51-4.81 1.52-6.77a10.84 10.84 0 0 1 4.53-4.59 15.2 15.2 0 0 1 7.38-1.65c2.91 0 5.37.55 7.38 1.65a10.78 10.78 0 0 1 4.53 4.59 14.58 14.58 0 0 1 1.52 6.77c.01 2.55-.47 4.81-1.44 6.77zM287.37 26.24a20.31 20.31 0 0 0-8.59-1.65c-2.99 0-5.7.58-8.11 1.75a13.7 13.7 0 0 0-5.66 4.87 12.8 12.8 0 0 0-2.04 7.16c0 2.76.64 5.15 1.92 7.16a12.28 12.28 0 0 0 5.45 4.62 20.3 20.3 0 0 0 8.44 1.6c3.19 0 5.97-.58 8.35-1.75a13.4 13.4 0 0 0 5.51-4.79 12.41 12.41 0 0 0 1.95-6.84c0-2.86-.61-5.32-1.83-7.39a11.76 11.76 0 0 0-5.39-4.74zm-2.01 18.37c-1.49 1.49-3.69 2.23-6.58 2.23-2.9 0-5.09-.74-6.58-2.23-1.49-1.49-2.23-3.54-2.23-6.16 0-1.87.36-3.49 1.09-4.85a7.24 7.24 0 0 1 3.07-3.08 9.83 9.83 0 0 1 4.66-1.04c2.94 0 5.14.77 6.61 2.3 1.47 1.54 2.2 3.76 2.2 6.67 0 2.62-.75 4.67-2.24 6.16z"/>
  </g>
  <g id="svg2">
    <linearGradient id="SVGID_1_" gradientUnits="userSpaceOnUse" x1="41.19" y1="12.09" x2="102.01" y2="63.13">
      <stop offset=".51" style="stop-color:#a6afd5"/>
      <stop offset=".6" style="stop-color:#cacfe2"/>
      <stop offset=".68" style="stop-color:#e2e4ea"/>
      <stop offset=".73" style="stop-color:#eaebed"/>
      <stop offset=".78" style="stop-color:#e1e3ea"/>
      <stop offset=".86" style="stop-color:#c7cde1"/>
      <stop offset=".94" style="stop-color:#a6afd5"/>
    </linearGradient>
    <path d="M128.17 9.78c-7.37-4.97-21.91-4.9-42.41 1.4-2 .86-9.34 2.42-26.31 10.06s-32.92 17.65-38.7 22C10 50.78 4.05 56.32 4.05 56.32s29.72-17.18 37.67-21.1 15.06-7.25 31.63-12.56c-.14-.12 19.76-4.83 19.76-4.83 7.3-1.07 13.75-.93 17.96 1.4 16.84 9.28-17.62 37.15-17.62 37.15h8.11s17.43-12.99 21.88-18.86c4.47-5.91 14.94-20.85 4.73-27.74z" style="fill:url(#SVGID_1_)"/>
    <path class="st0" d="M85.77 15.49C79.25 10.52 70.38 8 59.39 8c-6.11 0-11.56.74-16.2 2.19a30.34 30.34 0 0 0-9.49 4.88 26.68 26.68 0 0 0-6.78 7.37c-2.19 3.66-3.28 8.3-3.28 13.79 0 8.63 3.12 15.2 9.51 20.1 6.47 4.95 15.36 7.44 26.47 7.44 10.94 0 19.79-2.52 26.26-7.47 6.42-4.92 9.51-11.58 9.51-20.34-.04-8.84-3.18-15.55-9.62-20.47zM75.18 51.97c-4.09 3.62-9.37 5.45-15.67 5.45-6.3 0-11.58-1.83-15.75-5.47-4.21-3.69-6.35-9.11-6.35-16.13 0-7.11 2.09-12.53 6.18-16.15 4.04-3.54 9.39-5.35 15.89-5.35s11.82 1.78 15.82 5.3c4.07 3.57 6.11 8.97 6.11 16.05.05 7.17-2.06 12.64-6.23 16.3z"/>
  </g>
</svg>
