<?xml version="1.0" encoding="utf-8"?>
<!-- Generator: Adobe Illustrator 24.2.1, SVG Export Plug-In . SVG Version: 6.00 Build 0)  -->
<svg version="1.1" id="Layer_1" xmlns="http://www.w3.org/2000/svg" xmlns:xlink="http://www.w3.org/1999/xlink" x="0px" y="0px"
	 viewBox="0 0 327.15 368.35" style="enable-background:new 0 0 327.15 368.35;" xml:space="preserve">
<style type="text/css">
	.st0{fill:#FFFFFF;}
	.st1{fill:#888888;}
	.st2{fill:url(#SVGID_1_);}
	.st3{fill:#0000A0;}
	.st4{fill:#FF0000;}
</style>
<path class="st0" d="M83.68,319.51v0.13c6.01,0.11,10.46,1.31,13.32,3.59c2.87,2.28,4.3,5.04,4.3,8.27c0,3.61-1.63,6.59-4.89,8.93
	c-3.26,2.35-7.6,3.52-13.01,3.52c-4.68,0-8.29-0.94-10.85-2.8c-2.56-1.87-3.84-3.99-3.84-6.39c0-1.59,0.57-2.87,1.72-3.85
	c1.15-0.97,2.52-1.45,4.13-1.45c1.5,0,2.8,0.43,3.87,1.27c1.08,0.85,1.61,1.98,1.61,3.37c0,1.86-1.25,3.42-3.74,4.68
	c-0.49,0.24-0.74,0.52-0.74,0.83c0,0.57,0.7,1.08,2.11,1.51c1.4,0.43,2.82,0.64,4.29,0.64c4.81,0,7.21-3.53,7.21-10.59
	c0-6.99-2.89-10.49-8.66-10.49l-4.79,0.2c-0.97,0-1.46-0.36-1.46-1.07c0-0.82,0.51-1.23,1.53-1.23l3.49,0.13
	c3.56,0,5.94-0.79,7.15-2.38c1.22-1.58,1.82-3.83,1.82-6.76c0-3.01-0.46-5.22-1.37-6.64c-0.92-1.42-2.49-2.13-4.71-2.13
	c-1.21,0-2.35,0.2-3.41,0.61c-1.06,0.41-1.6,0.8-1.6,1.2c0,0.37,0.35,0.76,1.05,1.15c1.83,1.17,2.76,2.43,2.76,3.8
	c0,1.34-0.51,2.4-1.54,3.2c-1.03,0.79-2.18,1.19-3.47,1.19c-1.48,0-2.8-0.45-3.97-1.36c-1.16-0.91-1.75-2.03-1.75-3.38
	c0-2.29,1.29-4.28,3.88-5.95c2.59-1.68,5.9-2.52,9.96-2.52c4.48,0,8.26,0.95,11.33,2.85c3.08,1.89,4.62,4.32,4.62,7.29
	C100.01,314.76,94.57,318.29,83.68,319.51z"/>
<path class="st0" d="M217.18,320.87c0-6.83-0.14-11.32-0.42-13.49c-0.29-2.18-1.01-3.92-2.19-5.25c-1.18-1.33-3.11-1.99-5.8-1.99
	c-2.27,0-4.08,0.54-5.43,1.61c-1.35,1.08-2.19,2.8-2.52,5.17c-0.33,2.37-0.5,7-0.5,13.89c0,6.82,0.14,11.33,0.43,13.54
	c0.28,2.2,1.04,3.96,2.26,5.27c1.22,1.31,3.15,1.96,5.77,1.96c2.18,0,3.95-0.52,5.32-1.57c1.37-1.06,2.23-2.76,2.57-5.13
	C217.01,332.48,217.18,327.82,217.18,320.87z M186.48,320.68c0-6.67,2.2-12.12,6.6-16.36c4.4-4.24,9.68-6.36,15.83-6.36
	c5.71,0,10.83,1.99,15.34,5.98c4.51,3.99,6.76,9.66,6.76,17.01c0,6.89-2.13,12.41-6.39,16.57c-4.27,4.15-9.48,6.23-15.63,6.23
	c-6.65,0-12.07-2.21-16.24-6.61C188.57,332.72,186.48,327.24,186.48,320.68z"/>
<g>
	<path class="st1" d="M127.86,228.55c0-3.46,15.99-6.27,35.71-6.27s35.71,2.8,35.71,6.27c0,3.46-15.99,6.27-35.71,6.27
		S127.86,232.02,127.86,228.55z"/>
	
		<radialGradient id="SVGID_1_" cx="167.7721" cy="213.2225" r="36.6576" gradientTransform="matrix(1 0 0 -1 0 376.7059)" gradientUnits="userSpaceOnUse">
		<stop  offset="0.5225" style="stop-color:#FFE41B"/>
		<stop  offset="0.8933" style="stop-color:#716A13"/>
		<stop  offset="1" style="stop-color:#49482E"/>
	</radialGradient>
	<path class="st2" d="M133.22,169.48c0-16.81,13.59-30.43,30.36-30.43c16.77,0,30.36,13.62,30.36,30.43
		c0,16.81-13.59,30.43-30.36,30.43C146.81,199.91,133.22,186.29,133.22,169.48z"/>
	<path class="st3" d="M135.3,90.12c-4.47,2.98-5.66,20.29-5.66,20.29s1.19,17.31,5.66,20.29c4.46,2.99,28.27,4.78,28.27,4.78
		s23.81-1.79,28.27-4.78c4.47-2.98,5.66-20.29,5.66-20.29s-1.19-17.31-5.66-20.29c-4.46-2.99-28.27-4.78-28.27-4.78
		S139.77,87.13,135.3,90.12z"/>
	<polygon class="st4" points="163.58,12.09 199.14,47.74 163.58,83.39 128.02,47.74 	"/>
</g>
<rect x="5.02" y="282.44" width="314.94" height="82"/>
<g>
	<path class="st0" d="M21.87,323.42c0-2.89,0.56-5.67,1.68-8.33c1.12-2.66,2.75-5.1,4.89-7.32c2.29-2.31,4.72-4.03,7.28-5.15
		s5.37-1.68,8.42-1.68c3.06,0,5.88,0.56,8.45,1.68c2.57,1.12,5,2.84,7.29,5.15c2.16,2.22,3.8,4.67,4.94,7.34
		c1.13,2.67,1.7,5.44,1.7,8.31c0,2.94-0.57,5.75-1.7,8.42c-1.13,2.68-2.78,5.12-4.94,7.32c-2.22,2.29-4.63,3.99-7.22,5.1
		c-2.59,1.11-5.43,1.67-8.51,1.67c-3.06,0-5.88-0.56-8.45-1.67s-4.99-2.81-7.25-5.1c-2.14-2.2-3.77-4.65-4.89-7.34
		C22.43,329.14,21.87,326.34,21.87,323.42z M34.76,323.42c0,5.53,0.09,9.34,0.27,11.42c0.18,2.08,0.51,3.63,0.99,4.65
		c0.69,1.58,1.67,2.71,2.94,3.4c1.27,0.69,3,1.04,5.17,1.04c2.2,0,3.93-0.35,5.21-1.04c1.27-0.69,2.25-1.83,2.94-3.4
		c0.5-1.1,0.84-2.75,1.03-4.96c0.19-2.2,0.29-5.91,0.29-11.11c0-5.18-0.1-8.88-0.29-11.08c-0.19-2.2-0.54-3.86-1.03-4.96
		c-0.69-1.58-1.67-2.71-2.94-3.4c-1.27-0.69-3.01-1.04-5.21-1.04c-2.18,0-3.9,0.35-5.17,1.04c-1.27,0.69-2.25,1.83-2.94,3.4
		c-0.47,1.02-0.8,2.56-0.99,4.65C34.86,314.12,34.76,317.91,34.76,323.42z"/>
	<path class="st0" d="M85.59,342.79h5.25v-39.01h-5.25v-1.98h22.32c6.07,0,10.58,0.9,13.54,2.71c2.96,1.8,4.44,4.57,4.44,8.31
		c0,3.91-1.53,6.84-4.58,8.8s-7.64,2.93-13.75,2.93h-5.83v18.24h6.12v2.14H85.59V342.79z M101.72,303.79v19.05h6.06
		c2.44,0,4.06-0.52,4.84-1.56c0.79-1.04,1.18-3.81,1.18-8.33c0-4.08-0.39-6.63-1.18-7.65c-0.79-1.02-2.5-1.52-5.13-1.52H101.72z"/>
	<path class="st0" d="M143.02,344.93v-2.14h5.25v-39.01h-4.5v-1.98h35.96l0.13,11.34h-2.17c-1.47-3.67-2.96-6.15-4.47-7.44
		c-1.51-1.29-3.71-1.93-6.61-1.93h-7.45v17.72c0.17,0.02,0.37,0.04,0.6,0.05c0.23,0.01,0.53,0.02,0.92,0.02
		c2.35,0,4.14-0.62,5.35-1.86s2-3.26,2.37-6.04h2.17v18.4h-2.17c-0.24-2.98-0.97-5.12-2.2-6.41s-3.15-1.94-5.77-1.94h-1.26v19.08
		h7.22c3.56,0,6.35-0.94,8.36-2.82c2.01-1.88,3.59-5.02,4.73-9.43h2.04l-0.45,14.38H143.02z"/>
	<path class="st0" d="M200.58,342.79h5.12v-39.01h-5.12v-1.98h24.1c4.97,0,8.77,0.81,11.42,2.43c2.65,1.62,3.97,3.95,3.97,7
		c0,3.09-1.24,5.54-3.73,7.35c-2.48,1.81-6.02,2.83-10.59,3.05v0.55c4.69,0.63,8,2.09,9.94,4.39c1.94,2.3,2.92,5.97,2.92,11
		c0,2.07,0.21,3.44,0.62,4.1s1.13,0.99,2.17,0.99c0.41,0,0.86-0.05,1.34-0.15s1.01-0.24,1.57-0.44l0.68,1.78
		c-1.43,0.65-2.79,1.14-4.1,1.49c-1.31,0.35-2.45,0.52-3.42,0.52c-1.79,0-3.42-0.27-4.88-0.81c-1.46-0.54-2.62-1.3-3.48-2.27
		c-1.68-1.88-2.61-5.38-2.79-10.5c-0.02-0.69-0.04-1.21-0.06-1.56c-0.13-2.98-0.83-5.05-2.11-6.22c-1.27-1.17-3.42-1.75-6.45-1.75
		h-1.13v20.02h5.64v2.14h-21.64V342.79z M216.58,320.63h5.44c2.46,0,4.13-0.51,5.01-1.54c0.87-1.03,1.31-3.2,1.31-6.53
		c0-4.19-0.36-6.7-1.09-7.53s-2.47-1.25-5.23-1.25h-5.44V320.63z"/>
	<path class="st0" d="M259.79,344.93v-2.14h2.66c0.71,0,1.31-0.24,1.78-0.71s0.96-1.34,1.46-2.59l14.81-38.55h2.59l16.2,41.86h3.82
		v2.14h-20.9v-2.14h5.25l-3.79-10.08h-13.12l-2.85,7.35c-0.06,0.13-0.11,0.33-0.15,0.6c-0.03,0.27-0.05,0.59-0.05,0.96
		c0,0.37,0.17,0.65,0.5,0.86c0.33,0.21,0.8,0.31,1.41,0.31h3.86v2.14H259.79z M271.26,330.61h11.7l-5.7-15.13L271.26,330.61z"/>
</g>
</svg>
