<svg xmlns="http://www.w3.org/2000/svg" xmlns:xlink="http://www.w3.org/1999/xlink" viewBox="0 0 256 256" style="enable-background:new 0 0 256 256" xml:space="preserve">
  <style>
    .st10{fill:#fff}
  </style>
  <circle cx="128.29" cy="127.5" r="105.76" style="fill:#455565" id="Layer_3"/>
  <g id="Layer_4">
    <radialGradient id="SVGID_1_" cx="128.29" cy="127.5" r="115" gradientTransform="rotate(45 89.82 111.56) scale(1 .75)" gradientUnits="userSpaceOnUse">
      <stop offset=".78" style="stop-color:#fff"/>
      <stop offset=".96" style="stop-color:#92979d"/>
    </radialGradient>
    <circle cx="128.29" cy="127.5" r="115" style="fill:url(#SVGID_1_)"/>
    <circle cx="128.29" cy="127.5" r="115" style="fill:none;stroke:#454545;stroke-width:.8762;stroke-miterlimit:125.8052"/>
    <defs>
      <filter id="Adobe_OpacityMaskFilter" filterUnits="userSpaceOnUse" x="12.85" y="12.06" width="230.88" height="230.88">
        <feColorMatrix values="-1 0 0 0 1 0 -1 0 0 1 0 0 -1 0 1 0 0 0 1 0" color-interpolation-filters="sRGB" result="source"/>
      </filter>
    </defs>
    <mask maskUnits="userSpaceOnUse" x="12.85" y="12.06" width="230.88" height="230.88" id="SVGID_2_">
      <g style="filter:url(#Adobe_OpacityMaskFilter)">
        <image style="overflow:visible" width="236" height="235" xlink:href="15185EEB.jpg" transform="translate(10 10)"/>
      </g>
    </mask>
    <g style="mask:url(#SVGID_2_)">
      <circle cx="128.29" cy="127.5" r="115" style="fill:#999"/>
      <circle cx="128.29" cy="127.5" r="115" style="fill:none;stroke:#999;stroke-width:.8762;stroke-miterlimit:125.8052"/>
    </g>
    <g>
      <defs>
        <circle id="SVGID_3_" cx="128.29" cy="127.5" r="90.61"/>
      </defs>
      <clipPath id="SVGID_4_">
        <use xlink:href="#SVGID_3_" style="overflow:visible"/>
      </clipPath>
      <circle cx="128.06" cy="128.04" r="96.87" style="clip-path:url(#SVGID_4_)"/>
      <radialGradient id="SVGID_5_" cx="72.96" cy="46.47" r="62.29" gradientUnits="userSpaceOnUse">
        <stop offset="0" style="stop-color:#fff"/>
        <stop offset=".43" style="stop-color:#7090b9"/>
        <stop offset=".71" style="stop-color:#455565"/>
        <stop offset="1" style="stop-color:#000"/>
      </radialGradient>
      <circle cx="72.96" cy="46.47" r="62.29" style="clip-path:url(#SVGID_4_);fill:url(#SVGID_5_)"/>
      <radialGradient id="SVGID_6_" cx="195.77" cy="204.98" r="96.38" gradientUnits="userSpaceOnUse">
        <stop offset="0" style="stop-color:#fff"/>
        <stop offset=".44" style="stop-color:#7090b9"/>
        <stop offset=".72" style="stop-color:#455565"/>
        <stop offset="1" style="stop-color:#000"/>
      </radialGradient>
      <circle cx="195.77" cy="204.98" r="96.38" style="clip-path:url(#SVGID_4_);fill:url(#SVGID_6_)"/>
    </g>
    <g>
      <path class="st10" d="M76.54 56.44a95.96 95.96 0 0 1 76.41-16.11 90.92 90.92 0 0 0-77.92 13.9c-23.37 16.88-37.36 42.8-38.41 69.45C39.1 98.29 53.4 73.16 76.54 56.44"/>
      <path d="M207.88 83.87c7.42 13.35 10.76 28.37 10.74 43.63 0 49.78-40.43 90.14-90.31 90.14a90.07 90.07 0 0 1-61.3-23.96v.12c31.74 29.99 80.45 34.73 116.05 8.92 37.4-27.12 47.68-78.41 24.82-118.85m-79.57-46.51c27.97 0 53.81 12.69 70.37 32.62C167.69 32.3 112.4 24.12 73.57 52.29 35.35 80 25.8 132.95 50.6 173.77A89.4 89.4 0 0 1 38 127.5c0-49.78 40.44-90.14 90.31-90.14"/>
    </g>
    <g>
      <path class="st10" d="M169.6 84.77v66.18c0 6.83-1.95 10.15-5.96 10.15-2.86 0-5.05-.71-5.05-9.65V84.77h-12.93v65.68c0 13.64 4.76 20.27 14.55 20.27 3.95 0 8-.4 10.85-4.55.18.58.41 1.15.69 1.69 1.21 2.32 3.05 2.32 4.68 2.31h6.27v-85.4h-13.1zM118.44 84.27a13.36 13.36 0 0 0-11.28 6.52c-2.82-5.73-7.5-6.52-11.31-6.52-4 0-7.39 1.69-9.9 4.78-.14-.96-.54-2.67-1.66-3.49-1.09-.8-1.7-.8-3.16-.79h-7.24v85.4h13.06l.01-65.43c0-8.53 2.25-10.23 5.89-10.23 2.19 0 5.12.72 5.12 6.97v68.69h12.84v-65.43c0-8.53 2.25-10.23 5.88-10.23 2.2 0 5.12.72 5.12 6.97v68.69h12.85V105c-.01-13.75-5.47-20.73-16.22-20.73z"/>
    </g>
  </g>
</svg>
