<?xml version="1.0" encoding="utf-8"?>
<!-- Generator: Adobe Illustrator 24.2.1, SVG Export Plug-In . SVG Version: 6.00 Build 0)  -->
<svg version="1.1" id="Layer_1" xmlns="http://www.w3.org/2000/svg" xmlns:xlink="http://www.w3.org/1999/xlink" x="0px" y="0px"
	 viewBox="0 0 328.5 304.4" style="enable-background:new 0 0 328.5 304.4;" xml:space="preserve">
<style type="text/css">
	.st0{fill:#FFC001;}
	.st1{fill:#0070BA;}
	.st2{fill:#011DA9;}
	.st3{fill:#069330;}
	.st4{fill:#FE2015;}
	.st5{fill:#0124A6;}
	.st6{fill:#FF2D1E;}
	.st7{fill:#0222A9;}
</style>
<rect x="-227.3" y="126.7" class="st0" width="98.8" height="32.6"/>
<path class="st1" d="M155.5,85l34.4-13.3V223l-37,14.9v-88.6L100,252.6l-32.8-42L66.8,119l34.9-13.7l-1.6,79L155.5,85z"/>
<path class="st2" d="M243.8,212.4V119l34.9-13.4v146.9l-34.9,14.7l0,0l-51.2-67v88.6l-37,15.6V153.1l37-14.1L243.8,212.4z"/>
<path class="st3" d="M102.2,105.6L102.2,105.6l-33.9,61.7l30.6,19.1L155.5,85l-34.4-13.4L102.2,105.6z"/>
<path class="st3" d="M182.7,135.2L182.7,135.2l26.2-29.6l34.9,13.4v93.3L192.5,139L182.7,135.2z"/>
<path class="st4" d="M192.5,236.8l10.5,14.7l40.8,15.7l0,0l-51.2-67L192.5,236.8z"/>
<path class="st0" d="M118.7,139l37-14.1l37,14.1l0,0l-37,14.1L118.7,139z"/>
<path class="st0" d="M243.8,92.2l34.9,13.4L243.8,119l-34.9-13.4l0,0L243.8,92.2z"/>
<path class="st0" d="M67.3,92.2l34.9,13.4L67.3,119l-34.9-13.4l0,0L67.3,92.2z"/>
<path class="st0" d="M155.5,58.3l-34.4,13.3L155.5,85l34.4-13.3l0,0L155.5,58.3z"/>
<g>
	<path class="st5" d="M0,46.4V13.7h15.9c4.7,0,8.1,0.9,10.4,2.6s3.4,4.4,3.4,8c0,3.6-1.1,6.3-3.4,8.2s-5.6,2.8-10,2.8h-4v11.1H0z
		 M12.3,21v6.8c0.1,0,0.3,0,0.4,0c0.1,0,0.3,0,0.6,0c1.3,0,2.3-0.3,3-0.9c0.7-0.6,1-1.5,1-2.7c0-1.1-0.3-1.9-1-2.5
		C15.6,21.3,14.5,21,13,21H12.3z"/>
	<path class="st5" d="M31.1,30.2c0.3-2.3,1.3-4.1,3.2-5.3c1.9-1.2,4.6-1.8,7.9-1.8c2,0,3.8,0.2,5.4,0.6s2.8,0.9,3.8,1.6
		c0.9,0.7,1.6,1.6,2,2.7c0.4,1.1,0.6,2.8,0.6,5v13.5h-9.6l-0.3-2.3c-0.8,0.9-1.7,1.7-2.8,2.1S38.9,47,37.3,47c-2.2,0-4-0.6-5.3-1.9
		c-1.3-1.3-1.9-3-1.9-5.2c0-2.9,1-4.9,3.1-6.2c2.1-1.2,5.6-1.8,10.5-1.8h0.3v-1.4c0-0.8-0.2-1.4-0.5-1.8c-0.3-0.4-0.8-0.5-1.5-0.5
		c-0.7,0-1.2,0.2-1.6,0.5c-0.3,0.3-0.5,0.9-0.6,1.6L31.1,30.2z M44.1,36.3h-1.4c-1.1,0-1.9,0.2-2.5,0.7c-0.6,0.5-0.9,1.1-0.9,2
		c0,0.7,0.2,1.3,0.6,1.8c0.4,0.4,1,0.7,1.7,0.7c0.8,0,1.4-0.3,1.8-0.8s0.6-1.4,0.6-2.5V36.3z"/>
	<path class="st5" d="M69.8,26.1l1.2-1.1c0.8-0.8,1.5-1.3,2-1.5s1.1-0.3,1.8-0.3c0.5,0,0.9,0.1,1.4,0.2s0.8,0.3,1.2,0.5v8.5
		c-0.8-0.2-1.5-0.4-2.2-0.5c-0.7-0.1-1.3-0.2-1.8-0.2c-1.1,0-1.9,0.4-2.4,1.1c-0.5,0.7-0.8,1.9-0.8,3.5v10.3H59.3V23.6h10.5V26.1z"
		/>
	<path class="st5" d="M80.9,30.2c0.3-2.3,1.3-4.1,3.2-5.3c1.9-1.2,4.6-1.8,7.9-1.8c2,0,3.8,0.2,5.4,0.6c1.6,0.4,2.8,0.9,3.8,1.6
		c0.9,0.7,1.6,1.6,2,2.7c0.4,1.1,0.6,2.8,0.6,5v13.5h-9.6l-0.3-2.3c-0.8,0.9-1.7,1.7-2.8,2.1S88.6,47,87,47c-2.2,0-4-0.6-5.3-1.9
		c-1.3-1.3-1.9-3-1.9-5.2c0-2.9,1-4.9,3.1-6.2s5.6-1.8,10.5-1.8h0.3v-1.4c0-0.8-0.2-1.4-0.5-1.8c-0.3-0.4-0.8-0.5-1.5-0.5
		c-0.7,0-1.2,0.2-1.6,0.5c-0.3,0.3-0.5,0.9-0.6,1.6L80.9,30.2z M93.8,36.3h-1.4c-1.1,0-1.9,0.2-2.5,0.7S89,38.1,89,39
		c0,0.7,0.2,1.3,0.6,1.8c0.4,0.4,1,0.7,1.7,0.7c0.8,0,1.4-0.3,1.8-0.8c0.4-0.5,0.6-1.4,0.6-2.5V36.3z"/>
	<path class="st5" d="M133.7,37.7v8.7h-24.5V13.8h12.6v24H133.7z"/>
	<path class="st5" d="M162.3,37.7v8.7h-24.5V13.8h12.6v24H162.3z"/>
	<path class="st5" d="M166.4,46.4V13.7h24.5v8.4h-12.1v3.5h11.3v8.4h-11.3v3.9h12.5v8.5H166.4z"/>
	<path class="st5" d="M196.7,46.4V13.7h10.9v32.7H196.7z"/>
	<path class="st6" d="M240.1,26.3v20.1h-10.3V13.7H245l7,19.6V13.7h10.3v32.7h-15.2L240.1,26.3z"/>
	<path class="st6" d="M278.8,28.3c0.8-0.8,1.7-1.4,2.8-1.8s2.2-0.6,3.6-0.6c3,0,5.4,0.9,7.1,2.6c1.8,1.7,2.7,4,2.7,6.9
		c0,3.5-1.2,6.4-3.5,8.4c-2.3,2.1-5.5,3.1-9.4,3.1c-4.7,0-8.2-1.3-10.5-4c-2.3-2.7-3.5-6.6-3.5-11.9c0-5.6,1.2-9.8,3.7-12.6
		s6.1-4.3,10.9-4.3c3.4,0,6.1,0.8,8.1,2.4s3,3.8,3,6.5v0.4h-9.6c-0.1-0.8-0.3-1.3-0.7-1.7c-0.4-0.4-0.9-0.6-1.5-0.6
		c-1.1,0-1.9,0.5-2.4,1.6C279,23.9,278.8,25.7,278.8,28.3z M279.5,35.8c0,1.3,0.2,2.2,0.6,2.8c0.4,0.6,0.9,0.9,1.7,0.9
		c0.8,0,1.4-0.3,1.8-1c0.4-0.7,0.7-1.6,0.7-2.8c0-1.2-0.2-2.1-0.6-2.6c-0.4-0.5-1-0.8-1.8-0.8c-0.8,0-1.3,0.3-1.7,0.9
		C279.7,33.7,279.5,34.6,279.5,35.8z"/>
	<path class="st6" d="M298.2,41.2v-9.5l10.2-16.9h16.4v18h3.8v8.5h-3.8v5.2H313v-5.2H298.2z M307.2,32.8h6V22.3L307.2,32.8z"/>
</g>
<polygon class="st0" points="67.3,92.2 192.7,139 155.7,153.1 32.4,105.6 "/>
<path class="st7" d="M100,252.6V147.3l-32.7-13.6v133.6l0,0L100,252.6z"/>
<polygon class="st0" points="102.2,172.3 138.2,185.8 137.3,212.7 67.3,185.8 "/>
<polygon class="st3" points="120.8,142.8 120.7,289.6 155.5,304.4 155.7,156.2 "/>
<path class="st6" d="M155.7,153.1L32.4,105.6l-0.2,146.9l34.9,14.7l0.1-56.6l88.5,36.5V153.1z M121.1,206.5l-53.9-20.7l0.1-43.2
	l53.3,20.5L121.1,206.5z"/>
<g>
	<path class="st6" d="M-217,6.9V27h-10.3V-5.7h15.2l7,19.6V-5.7h10.3V27H-210L-217,6.9z"/>
	<path class="st6" d="M-178.3,8.9c0.8-0.8,1.7-1.4,2.8-1.8s2.2-0.6,3.6-0.6c3,0,5.4,0.9,7.1,2.6s2.7,4,2.7,6.9
		c0,3.5-1.2,6.4-3.5,8.4s-5.5,3.1-9.4,3.1c-4.7,0-8.2-1.3-10.5-4c-2.3-2.7-3.5-6.6-3.5-11.9c0-5.6,1.2-9.8,3.7-12.6
		c2.5-2.9,6.1-4.3,10.9-4.3c3.4,0,6.1,0.8,8.1,2.4c2,1.6,3,3.8,3,6.5V4h-9.6c-0.1-0.8-0.3-1.3-0.7-1.7s-0.9-0.6-1.5-0.6
		c-1.1,0-1.9,0.5-2.4,1.6S-178.3,6.3-178.3,8.9z M-177.6,16.3c0,1.3,0.2,2.2,0.6,2.8s0.9,0.9,1.7,0.9c0.8,0,1.4-0.3,1.8-1
		c0.4-0.7,0.7-1.6,0.7-2.8c0-1.2-0.2-2.1-0.6-2.6c-0.4-0.5-1-0.8-1.8-0.8c-0.8,0-1.3,0.3-1.7,0.9C-177.4,14.3-177.6,15.1-177.6,16.3
		z"/>
	<path class="st6" d="M-158.9,21.8v-9.5l10.2-16.9h16.4v18h3.8v8.5h-3.8V27h-11.7v-5.2H-158.9z M-149.9,13.3h6V2.9L-149.9,13.3z"/>
</g>
<g>
	<path class="st0" d="M-268.2-88.2c0,0,0,0.1,0.1,0.1C-268.1-88.2-268.2-88.3-268.2-88.2z"/>
	<path class="st0" d="M-268.1-88.1c1.6,4.5-0.1,115-0.1,115h33.6v-39.1h106v-76C-265.8-86.4-265.4-87.2-268.1-88.1z M-149.5-36.7
		h-85.1v-22.6h85.1V-36.7z"/>
</g>
<g>
	<path class="st6" d="M-217,139.3v20.1h-10.3v-32.7h15.2l7,19.6v-19.6h10.3v32.7H-210L-217,139.3z"/>
	<path class="st6" d="M-178.3,141.3c0.8-0.8,1.7-1.4,2.8-1.8c1-0.4,2.2-0.6,3.6-0.6c3,0,5.4,0.9,7.1,2.6c1.8,1.7,2.7,4,2.7,6.9
		c0,3.5-1.2,6.4-3.5,8.4c-2.3,2.1-5.5,3.1-9.4,3.1c-4.7,0-8.2-1.3-10.5-4c-2.3-2.7-3.5-6.6-3.5-11.9c0-5.6,1.2-9.8,3.7-12.6
		c2.5-2.9,6.1-4.3,10.9-4.3c3.4,0,6.1,0.8,8.1,2.4c2,1.6,3,3.8,3,6.5v0.4h-9.6c-0.1-0.8-0.3-1.3-0.7-1.7c-0.4-0.4-0.9-0.6-1.5-0.6
		c-1.1,0-1.9,0.5-2.4,1.6C-178.1,136.8-178.3,138.7-178.3,141.3z M-177.6,148.7c0,1.3,0.2,2.2,0.6,2.8c0.4,0.6,0.9,0.9,1.7,0.9
		s1.4-0.3,1.8-1c0.4-0.7,0.7-1.6,0.7-2.8c0-1.2-0.2-2.1-0.6-2.6s-1-0.8-1.8-0.8c-0.8,0-1.3,0.3-1.7,0.9
		C-177.4,146.7-177.6,147.6-177.6,148.7z"/>
	<path class="st6" d="M-158.9,154.2v-9.5l10.2-16.9h16.4v18h3.8v8.5h-3.8v5.2h-11.7v-5.2H-158.9z M-149.9,145.7h6v-10.4
		L-149.9,145.7z"/>
</g>
<g>
	<path class="st0" d="M-268.2,44.2c0,0,0,0.1,0.1,0.1C-268.1,44.2-268.2,44.2-268.2,44.2z"/>
	<path class="st0" d="M-268.1,44.3c1.6,4.5-0.1,115-0.1,115h33.6v-39.1h106v-76C-265.8,46-265.4,45.2-268.1,44.3z M-149.5,95.7
		h-85.1V73.1h85.1V95.7z"/>
</g>
<rect x="-270.4" y="223.6" class="st0" width="35.8" height="35.8"/>
<rect x="-227.3" y="223.6" class="st0" width="35.8" height="35.8"/>
<rect x="-184.6" y="223.6" class="st0" width="35.8" height="35.8"/>
<rect x="-141.6" y="223.6" class="st0" width="35.8" height="35.8"/>
<rect x="-270.7" y="267.2" class="st0" width="35.8" height="35.8"/>
<rect x="-141.9" y="267.2" class="st0" width="35.8" height="35.8"/>
<rect x="-271.3" y="310.8" class="st0" width="35.8" height="35.8"/>
<rect x="-228.2" y="310.8" class="st0" width="35.8" height="35.8"/>
<rect x="-185.5" y="310.8" class="st0" width="35.8" height="35.8"/>
<rect x="-142.5" y="310.8" class="st0" width="35.8" height="35.8"/>
<rect x="-271.6" y="354.5" class="st0" width="35.8" height="35.8"/>
<rect x="-228.6" y="354.5" class="st0" width="35.8" height="35.8"/>
<rect x="-185.9" y="354.5" class="st0" width="35.8" height="35.8"/>
<rect x="-142.8" y="354.5" class="st0" width="35.8" height="35.8"/>
<path class="st6" d="M-216.7,368.3v20.1H-227v-32.7h15.2l7,19.6v-19.6h10.3v32.7h-15.2L-216.7,368.3z"/>
<path class="st6" d="M-170.6,370.3c0.8-0.8,1.7-1.4,2.8-1.8c1-0.4,2.2-0.6,3.6-0.6c3,0,5.4,0.9,7.1,2.6s2.7,4,2.7,6.9
	c0,3.5-1.2,6.4-3.5,8.4c-2.3,2.1-5.5,3.1-9.4,3.1c-4.7,0-8.2-1.3-10.5-4s-3.5-6.6-3.5-11.9c0-5.6,1.2-9.8,3.7-12.6
	c2.5-2.9,6.1-4.3,10.9-4.3c3.4,0,6.1,0.8,8.1,2.4c2,1.6,3,3.8,3,6.5v0.4h-9.6c-0.1-0.8-0.3-1.3-0.7-1.7s-0.9-0.6-1.5-0.6
	c-1.1,0-1.9,0.5-2.4,1.6S-170.6,367.7-170.6,370.3z M-169.9,377.7c0,1.3,0.2,2.2,0.6,2.8c0.4,0.6,0.9,0.9,1.7,0.9s1.4-0.3,1.8-1
	c0.4-0.7,0.7-1.6,0.7-2.8c0-1.2-0.2-2.1-0.6-2.6c-0.4-0.5-1-0.8-1.8-0.8c-0.8,0-1.3,0.3-1.7,0.9
	C-169.7,375.7-169.9,376.6-169.9,377.7z"/>
<path class="st6" d="M-140.1,383.2v-9.5l10.2-16.9h16.4v18h3.8v8.5h-3.8v5.2h-11.7v-5.2H-140.1z M-131.1,374.8h6v-10.4L-131.1,374.8
	z"/>
<rect x="-270.4" y="408.2" class="st0" width="164.2" height="35.8"/>
<rect x="-270.7" y="451.8" class="st0" width="35.8" height="79.4"/>
<rect x="-141.9" y="451.8" class="st0" width="35.8" height="79.4"/>
<rect x="-228.2" y="495.5" class="st0" width="78.1" height="35.8"/>
<rect x="-271.6" y="539.1" class="st0" width="35.8" height="35.8"/>
<rect x="-228.6" y="539.1" class="st0" width="35.8" height="35.8"/>
<rect x="-185.9" y="539.1" class="st0" width="35.8" height="35.8"/>
<rect x="-142.8" y="539.1" class="st0" width="35.8" height="35.8"/>
<path class="st6" d="M-216.7,552.9V573H-227v-32.7h15.2l7,19.6v-19.6h10.3V573h-15.2L-216.7,552.9z"/>
<path class="st6" d="M-170.6,554.9c0.8-0.8,1.7-1.4,2.8-1.8c1-0.4,2.2-0.6,3.6-0.6c3,0,5.4,0.9,7.1,2.6c1.8,1.7,2.7,4,2.7,6.9
	c0,3.5-1.2,6.4-3.5,8.4c-2.3,2.1-5.5,3.1-9.4,3.1c-4.7,0-8.2-1.3-10.5-4c-2.3-2.7-3.5-6.6-3.5-11.9c0-5.6,1.2-9.8,3.7-12.6
	c2.5-2.9,6.1-4.3,10.9-4.3c3.4,0,6.1,0.8,8.1,2.4s3,3.8,3,6.5v0.4h-9.6c-0.1-0.8-0.3-1.3-0.7-1.7c-0.4-0.4-0.9-0.6-1.5-0.6
	c-1.1,0-1.9,0.5-2.4,1.6S-170.6,552.3-170.6,554.9z M-169.9,562.4c0,1.3,0.2,2.2,0.6,2.8c0.4,0.6,0.9,0.9,1.7,0.9s1.4-0.3,1.8-1
	c0.4-0.7,0.7-1.6,0.7-2.8c0-1.2-0.2-2.1-0.6-2.6c-0.4-0.5-1-0.8-1.8-0.8c-0.8,0-1.3,0.3-1.7,0.9
	C-169.7,560.3-169.9,561.2-169.9,562.4z"/>
<path class="st6" d="M-140.1,567.9v-9.5l10.2-16.9h16.4v18h3.8v8.5h-3.8v5.2h-11.7v-5.2H-140.1z M-131.1,559.4h6v-10.4L-131.1,559.4
	z"/>
</svg>
