<?xml version="1.0" encoding="utf-8"?>
<!-- Generator: Adobe Illustrator 25.2.3, SVG Export Plug-In . SVG Version: 6.00 Build 0)  -->
<svg version="1.1" xmlns="http://www.w3.org/2000/svg" xmlns:xlink="http://www.w3.org/1999/xlink" x="0px" y="0px"
	 viewBox="0 0 2500 2500" style="enable-background:new 0 0 2500 2500;" xml:space="preserve">
<style type="text/css">
	.st0{fill:#D9D9D9;}
	.st1{fill-rule:evenodd;clip-rule:evenodd;}
	.st2{fill-rule:evenodd;clip-rule:evenodd;fill:#FFFFFF;}
	.st3{fill:#FFFFFF;}
</style>
<g id="Layer_1">
</g>
<g id="Layer_1_copy">
</g>
<g id="Layer_2">
	<path class="st0" d="M0,1430.12c0,132.99,114,335.81,789.01,335.81c708.52,0,1706.99-305.39,1706.99-657.72
		c0-244.21-299.47-341.33-950.31-320.38C920.57,807.94,0,1091.01,0,1430.12z"/>
	<g>
		<path d="M780.9,1737.47c-25.22,0-50.03-0.36-74.37-1.09l0.9-29.99c67.14,2,138.04,1.21,210.73-2.37
			c306.08-15.07,628.13-75.36,906.82-169.76c277.11-93.86,477.47-209.75,564.17-326.3c42.74-57.46,54.48-110.92,34.88-158.9
			c-17.42-42.66-58.85-80.54-123.13-112.59c-66.16-32.99-153.26-58.12-258.9-74.69l4.65-29.64
			c108.68,17.05,198.72,43.12,267.64,77.48c70.99,35.4,117.25,78.49,137.51,128.09c11.77,28.8,14.47,59.42,8.02,91
			c-6.44,31.55-22.12,64.24-46.6,97.15c-90.3,121.39-295.79,241.01-578.61,336.81c-136.79,46.33-284.44,84.69-438.87,114
			c-159.85,30.34-320.04,49.62-476.1,57.31C872.48,1736.31,826.06,1737.47,780.9,1737.47z"/>
	</g>
	<g>
		<path class="st1" d="M1382.76,1082.11c11.8-4.38,169.1-63.83,169.1-63.83c16.88-6.94,13.57-45.67,13.57-53.52
			c0-118.25-97.66-172.67-167.14-146.17l-163.25,59.69c-95.97,38.08-194.36,93.67-215.73,265.57v331.46
			c0,204.33,150.63,167.28,209.91,144.12c40.47-15.81,182.67-66.88,268.85-97.7c40.73-14.57,67.73-53.35,67.26-96.6l-1.81-168.04
			c0,0-2.45-23.66-15.55-18.54l-163.29,63.82c-15.55,6.19-25.25,8.75-25.25,28.83c0,20.07,1.44,36.53-26.23,46.32
			c0,0-77.27,28.18-86.51,31.91s-24.3,5.28-24.3-23.68v-287.19c0-13.89,4.86-19.94,22.36-26.76c17.5-6.83,92.34-33.98,92.34-33.98
			c14.44-4.89,25.25-5.28,25.25,11.32v17.49C1362.34,1090.46,1370.98,1086.47,1382.76,1082.11L1382.76,1082.11z"/>
		<path class="st1" d="M805.54,1032.77l-334.76,120.89c-9.05,3.27-15.09,11.86-15.09,21.49v706.81c0,10.03,9.92,17.05,19.37,13.71
			l165.58-58.4c9.14-3.22,15.25-11.86,15.25-21.54v-178.51c0-15.56,12.64-20.4,31.11-27.2l130.21-48.59
			c103.25-45.44,172.97-129.24,172.97-270.15v-141.88C990.18,1033.76,877.95,1008.97,805.54,1032.77z M789.01,1368.03
			c0,14.21-14.68,25.88-31.09,31.58l-75.31,26.72c-17.36,6.2-24.3,6.55-24.3-12.64v-132.64l0,0c0-7.76,4.86-12.15,19.93-18.94
			l78.22-29.65c24.79-9.49,32.55-6.2,32.55,17.97V1368.03z"/>
		<path class="st1" d="M2021.98,1108.68l-207.01,73.49c-19.77,0.95-24.27-28.36-4.3-40.41l179.5-64.95c0,0,17.19-7.63,17.19-17.2
			V881.75c0-20.83-6.44-17.82-18.91-13.74l-171.76,57.21c-17.29,1.73-25.67-25.33-6.01-36.94l226.63-82.11c4.22-1.6,7-5.64,7-10.15
			V604.24c0-11.67-11.65-19.76-22.58-15.68l-412.12,150.25c-14.18,5.14-17.19,15.15-17.19,25.75v682.23
			c0,29.54,8.79,35.99,27.49,29.22l417.32-154.78c4.26-1.58,7.08-5.64,7.08-10.18v-186.61
			C2044.31,1112.89,2032.88,1104.81,2021.98,1108.68z"/>
	</g>
	<g>
		<path d="M381.12,1699.34c-90.73-20.05-165.73-47.36-222.92-81.17c-59.03-34.89-97.63-75.86-114.75-121.77
			c-10.69-28.69-12.76-58.96-6.14-89.99c6.63-31.07,22.07-63.06,45.9-95.09c66.43-89.3,197.66-177.91,379.51-256.24
			c174.39-75.12,387.41-137.84,616.01-181.4l5.61,29.47c-226.49,43.15-437.34,105.21-609.76,179.48
			c-177.01,76.25-304.03,161.52-367.31,246.59c-41.61,55.94-53.63,108.66-35.72,156.69c29.94,80.31,142.18,145.71,316.03,184.13
			L381.12,1699.34z"/>
	</g>
	<path class="st2" d="M1989.39,1266.37c0,10.09-2.46,9.23-10.3,12.03c-7.85,2.79-305.89,109.96-305.89,109.96
		c-13.09,4.53-18.9,2.91-18.9-15.44V812.69c0-12.14,2.68-21.05,12.34-24.27l298.15-112.15c20.95-7.08,24.59,5.83,24.59,19.9v48.1
		c0,12.89-2.47,10.63-15.46,15.47l-228.57,83.89c-16,5.9-13.74,8.9-13.74,15.44v144.34c0,17.19,2.37,21.17,20.63,13.74l166.7-59.81
		c22.14-7.92,27.51-1.06,27.51,8.61v48.13c0,11.07-11.6,15.35-20.63,18.88c0,0-179.9,64.76-185.59,66.71
		c-5.7,1.93-8.59,2.26-8.59,17.18v146.06c0,20.52,5.59,17.51,20.63,12.03l218.24-79.04c16.44-5.9,18.9,1.07,18.9,18.91V1266.37z"/>
	<g>
		<path class="st0" d="M2094.79,979.19l-125.52,71.01l-415.14,234.86c-1.88,1.05-3.13,1.55-3.86,1.78c-0.8-0.32-1.78-0.76-2.69-1.2
			l-151.61-109.35l-51.26-36.97l20.66,59.73l61.11,176.69c1.26,3.75,1.03,6.34-0.7,7.92l-1.22,0.8l-1.51,1.52l-339.34,343.76
			l-102.52,103.86l126.69-72.45l432.27-247.21l0.07-0.04l0.07-0.04c1.09-0.64,2.33-1.36,3.33-1.91
			c17.7,12.16,103.3,77.64,156.29,118.51l59.08,45.58l-28.37-69.02l-72.93-177.45c-1.38-3.34-2.02-5.33-2.3-6.51l337.94-341.38
			L2094.79,979.19L2094.79,979.19z"/>
	</g>
	<path class="st3" d="M1979.12,1067.61l-339.33,342.78c-7.62,7.64-4.3,17.84-0.6,26.79l72.93,177.45
		c0,0-155.46-119.93-161.61-121.92c-2.46-0.79-4.51-1.2-6.36-1.27c-4.78-0.19-8.24,1.83-13.93,5.15l-432.28,247.21l339.34-343.76
		c0,0,15.18-9.91,8.13-30.76l-61.13-176.76l152.86,110.26c0,0,7.7,4.11,11.61,4.26c4.59,0.18,9.47-1.33,15.2-4.54L1979.12,1067.61"
		/>
</g>
</svg>
