<?xml version="1.0" encoding="utf-8"?>
<!-- Generator: Adobe Illustrator 24.2.1, SVG Export Plug-In . SVG Version: 6.00 Build 0)  -->
<svg version="1.1" xmlns="http://www.w3.org/2000/svg" xmlns:xlink="http://www.w3.org/1999/xlink" x="0px" y="0px"
	 viewBox="0 0 675 225" style="enable-background:new 0 0 675 225;" xml:space="preserve">
<style type="text/css">
	.st0{fill:#2D2D2D;}
	.st1{filter:url(#AI_GaussianBlur_4);}
	.st2{fill:#040404;}
	.st3{fill:#040404;filter:url(#AI_GaussianBlur_7);}
	.st4{fill:#5F0006;}
	.st5{fill:#FFC500;}
	.st6{fill:#FFFFFF;}
	.st7{fill:#E9002D;}
	.st8{fill:#1E3C2F;}
	.st9{fill:#23A569;}
	.st10{fill:#8A0017;}
	.st11{fill:#FD912D;}
	.st12{fill:#001F48;}
	.st13{fill:#004DB5;}
</style>
<filter  id="AI_GaussianBlur_7">
	<feGaussianBlur  stdDeviation="7"></feGaussianBlur>
</filter>
<filter  id="AI_GaussianBlur_4">
	<feGaussianBlur  stdDeviation="4"></feGaussianBlur>
</filter>
<g id="Background">
	<rect class="st0" width="675" height="225"/>
</g>
<g id="Shadows4">
	<g class="st1">
		<path class="st2" d="M639.85,198.97l-12-7.53c-68.43-23.25-130.92-68.27-147.05-80.4c11.98-9.12,41.69-30.69,75.99-47.84
			c31.62-15.81,71.06-26.82,71.06-26.82s-14.79-9.53-18.56-9.53s-36.26,10-62.62,22.47c-9.72,4.6-35.76,17.09-75.56,54.12
			c-11.46-9.9-36.4-35.57-37.85-72.47l-27.29-4.47c0,0,0,15.76,0,21.41c0,5.65,1.65,17.65,20.24,36.71
			c13.42,13.76,28.31,23.47,35.55,27.81c-37.73,37.69-57.91,76.66-57.91,76.66l11.76-10.12c0,0,5.65-10.35,16.94-25.18
			c8.86-11.63,30.03-28.61,38.74-35.39c14.55,9.7,57.83,37.8,97.03,55.86C611.74,194.27,639.85,198.97,639.85,198.97z"/>
	</g>
	<path class="st3" d="M377.18,96.16h30.14c5.27,0,9.54-4.27,9.54-9.54v0c0-5.27-4.27-9.54-9.54-9.54h-30.58
		c-13.61,0-24.65,11.03-24.65,24.65v3.55c0,13.23,10.73,23.96,23.96,23.96h15.71c3.59,0,6.5,2.91,6.5,6.5v0c0,3.59-2.91,6.5-6.5,6.5
		h-30.14c-3.38,0-6.35,1.77-8.04,4.42c-1.69-2.65-4.65-4.41-8.03-4.41h-33.35c-5.26,0-9.53-4.27-9.53-9.53v-27.06
		c0-5.26,4.27-9.53,9.53-9.53h33.35c5.26,0,9.53-4.27,9.53-9.53v0c0-5.26-4.27-9.53-9.53-9.53h-35.74
		c-14.21,0-25.74,11.52-25.74,25.74v-0.24c0-14.08-11.42-25.5-25.5-25.5h-35.79c-5.39,0-9.76,4.37-9.76,9.76v89.41
		c0,5.39,4.37,9.76,9.76,9.76s9.76-4.37,9.76-9.76l0.24-15.41h25.79c14.08,0,25.5-11.42,25.5-25.5v0.24
		c0,14.21,11.52,25.74,25.74,25.74h35.74c3.38,0,6.34-1.76,8.03-4.41c1.69,2.65,4.66,4.41,8.04,4.41h30.49
		c13.66,0,24.74-11.07,24.74-24.74v-1.69c0-13.66-11.07-24.74-24.74-24.74h-14.94c-3.59,0-6.5-2.91-6.5-6.5v-1
		C370.68,99.07,373.59,96.16,377.18,96.16z M265.03,133.47c0,4.86-3.94,8.79-8.79,8.79h-23.44V96.15h23.44
		c4.86,0,8.79,3.94,8.79,8.79V133.47z"/>
</g>
<g id="Shapes">
	<path class="st4" d="M94.28,35.62h32.32c4.61,0,8.34,3.73,8.34,8.34v27.87c0,4.77-1.5,11.04-4.29,14.91l-14.92,19.5
		c-2.6,3.6-7.97,3.6-10.57,0l-14.92-19.5c-2.79-3.87-4.29-10.14-4.29-14.91V43.96C85.94,39.35,89.67,35.62,94.28,35.62z"/>
	<g>
		<path class="st5" d="M409.97,22.5c0,0,0,15.76,0,21.41s1.65,17.65,20.24,36.71c18.59,19.06,40,30.35,40,30.35
			s54.12,37.18,102.12,59.29c43.42,20.01,71.53,24.71,71.53,24.71l-12-7.53c-79.54-27.03-151.07-83.47-151.07-83.47
			s-41.64-29-43.52-77L409.97,22.5z"/>
		<path class="st5" d="M613.29,22.85c3.76,0,18.56,9.53,18.56,9.53s-39.43,11.01-71.06,26.82c-44.71,22.35-81.65,52.24-81.65,52.24
			s-31.29,23.53-42.59,38.35c-11.29,14.82-16.94,25.18-16.94,25.18l-11.76,10.12c0,0,22.35-43.18,64-82.59s68.84-52.45,78.82-57.18
			C577.03,32.85,609.53,22.85,613.29,22.85z"/>
	</g>
	<path class="st6" d="M262.59,73.09h-35.79c-5.39,0-9.76,4.37-9.76,9.76v89.41c0,5.39,4.37,9.76,9.76,9.76s9.76-4.37,9.76-9.76
		l0.24-15.41h25.79c14.08,0,25.5-11.42,25.5-25.5V98.59C288.09,84.51,276.67,73.09,262.59,73.09z M269.03,129.47
		c0,4.86-3.94,8.79-8.79,8.79h-23.44V92.15h23.44c4.86,0,8.79,3.94,8.79,8.79V129.47z"/>
	<path class="st6" d="M306.68,128.74v-27.06c0-5.26,4.27-9.53,9.53-9.53h33.35c5.26,0,9.53-4.27,9.53-9.53v0
		c0-5.26-4.27-9.53-9.53-9.53h-35.74c-14.21,0-25.74,11.52-25.74,25.74v32.76c0,14.21,11.52,25.74,25.74,25.74h35.74
		c5.26,0,9.53-4.27,9.53-9.53v0c0-5.26-4.27-9.53-9.53-9.53h-33.35C310.94,138.26,306.68,134,306.68,128.74z"/>
	<path class="st6" d="M374.68,99.66v-1c0-3.59,2.91-6.5,6.5-6.5h30.14c5.27,0,9.54-4.27,9.54-9.54v0c0-5.27-4.27-9.54-9.54-9.54
		h-30.58c-13.61,0-24.65,11.03-24.65,24.65v3.55c0,13.23,10.73,23.96,23.96,23.96h15.71c3.59,0,6.5,2.91,6.5,6.5v0
		c0,3.59-2.91,6.5-6.5,6.5h-30.14c-5.27,0-9.54,4.27-9.54,9.54v0c0,5.27,4.27,9.54,9.54,9.54h30.49c13.66,0,24.74-11.07,24.74-24.74
		v-1.69c0-13.66-11.07-24.74-24.74-24.74h-14.94C377.59,106.16,374.68,103.25,374.68,99.66z"/>
	<polygon class="st7" points="98.68,49.09 122.21,49.09 122.21,76.15 110.44,92.15 98.68,76.15 	"/>
	<path class="st8" d="M126.6,193.99H94.28c-4.61,0-8.34-3.73-8.34-8.34v-27.87c0-4.77,1.5-11.04,4.29-14.91l14.92-19.5
		c2.6-3.6,7.97-3.6,10.57,0l14.92,19.5c2.79,3.87,4.29,10.14,4.29,14.91v27.87C134.94,190.25,131.21,193.99,126.6,193.99z"/>
	<polygon class="st9" points="122.21,180.51 98.68,180.51 98.68,153.46 110.44,137.46 122.21,153.46 	"/>
	<path class="st10" d="M189.63,99.04v32.32c0,4.61-3.73,8.34-8.34,8.34h-27.87c-4.77,0-11.04-1.5-14.91-4.29L119,120.49
		c-3.6-2.6-3.6-7.97,0-10.57L138.51,95c3.87-2.79,10.14-4.29,14.91-4.29h27.87C185.89,90.71,189.63,94.44,189.63,99.04z"/>
	<polygon class="st11" points="176.15,103.44 176.15,126.97 149.1,126.97 133.1,115.21 149.1,103.44 	"/>
	<path class="st12" d="M31.26,131.37V99.04c0-4.61,3.73-8.34,8.34-8.34h27.87c4.77,0,11.04,1.5,14.91,4.29l19.5,14.92
		c3.6,2.6,3.6,7.97,0,10.57l-19.5,14.92c-3.87,2.79-10.14,4.29-14.91,4.29H39.6C34.99,139.71,31.26,135.97,31.26,131.37z"/>
	<polygon class="st13" points="44.73,126.97 44.73,103.44 71.79,103.44 87.79,115.21 71.79,126.97 	"/>
</g>
</svg>
