<?xml version="1.0" encoding="utf-8"?>
<!-- Generator: Adobe Illustrator 25.0.0, SVG Export Plug-In . SVG Version: 6.00 Build 0)  -->
<svg version="1.1" xmlns="http://www.w3.org/2000/svg" xmlns:xlink="http://www.w3.org/1999/xlink" x="0px" y="0px"
	 viewBox="0 0 480 140" style="enable-background:new 0 0 480 140;" xml:space="preserve">
<style type="text/css">
	.st0{fill:#2078CA;}
	.st1{fill:url(#SVGID_1_);}
	.st2{fill:#FFFFFF;}
	.st3{fill:url(#SVGID_2_);}
	.st4{fill:url(#SVGID_3_);}
	.st5{fill:url(#SVGID_4_);}
	.st6{fill:url(#SVGID_5_);}
	.st7{fill:url(#SVGID_6_);}
	.st8{fill:url(#SVGID_7_);}
	.st9{fill:#0094FF;}
	.st10{fill:url(#SVGID_8_);}
	.st11{fill:#43B0FF;}
	.st12{fill:#49A0E5;}
	.st13{fill:#0F9AFF;}
	.st14{fill:url(#SVGID_9_);}
	.st15{fill:url(#SVGID_10_);}
	.st16{fill:url(#SVGID_11_);}
	.st17{fill:url(#SVGID_12_);}
	.st18{fill:url(#SVGID_13_);}
	.st19{fill:url(#SVGID_14_);}
	.st20{fill:url(#SVGID_15_);}
	.st21{fill:url(#SVGID_16_);}
	.st22{fill:url(#SVGID_17_);}
	.st23{fill:url(#SVGID_18_);}
	.st24{fill:url(#SVGID_19_);}
	.st25{fill:url(#SVGID_20_);}
	.st26{fill:url(#SVGID_21_);}
	.st27{fill:url(#SVGID_22_);}
	.st28{fill:url(#SVGID_23_);}
	.st29{fill:url(#SVGID_24_);}
	.st30{fill:url(#SVGID_25_);}
	.st31{fill:url(#SVGID_26_);}
	.st32{fill:url(#SVGID_27_);}
	.st33{fill:url(#SVGID_28_);}
</style>
<g id="Layer_1">
	<rect class="st0" width="480" height="140"/>
</g>
<g id="Layer_2">
	<g>
		<g>
			<path class="st2" d="M76.06,61.5c1.08,0,2.11,0.21,3.06,0.58V12.82H73v49.25C73.95,61.71,74.98,61.5,76.06,61.5z"/>
			<path class="st2" d="M83.83,66.56l34.83-34.83l-4.33-4.33L79.5,62.23C81.43,63.09,82.97,64.63,83.83,66.56z"/>
			<path class="st2" d="M72.62,62.23L37.79,27.41l-4.33,4.33l34.83,34.83C69.15,64.63,70.69,63.09,72.62,62.23z"/>
			<path class="st2" d="M67.56,70c0-1.08,0.21-2.11,0.58-3.06H18.88v6.12h49.25C67.77,72.11,67.56,71.08,67.56,70z"/>
			<path class="st2" d="M79.5,77.77l34.83,34.83l4.33-4.33L83.83,73.44C82.97,75.37,81.43,76.91,79.5,77.77z"/>
			<path class="st2" d="M83.98,66.94c0.37,0.95,0.58,1.98,0.58,3.06s-0.21,2.11-0.58,3.06h49.25v-6.12H83.98z"/>
			<path class="st2" d="M76.06,78.5c-1.08,0-2.11-0.21-3.06-0.58v49.25h6.12V77.92C78.17,78.29,77.14,78.5,76.06,78.5z"/>
			<path class="st2" d="M68.29,73.44l-34.83,34.83l4.33,4.33l34.82-34.82C70.69,76.91,69.15,75.37,68.29,73.44z"/>
		</g>
		<g>
			<linearGradient id="SVGID_1_" gradientUnits="userSpaceOnUse" x1="176.0294" y1="88" x2="176.0294" y2="50.2353">
				<stop  offset="0" style="stop-color:#C3CBD5"/>
				<stop  offset="1" style="stop-color:#FFFFFF"/>
			</linearGradient>
			<path class="st1" d="M147,88V57.97c0-3.88,3.15-7.74,7.03-7.74h44c3.88,0,7.03,3.86,7.03,7.74v13.47c0,3.88-3.15,6.5-7.03,6.5
				h-31.79l4.76-7.71h18.71l0.35-12.26H162L161.65,88H147z"/>
			<linearGradient id="SVGID_2_" gradientUnits="userSpaceOnUse" x1="237.5882" y1="88" x2="237.5882" y2="50.2353">
				<stop  offset="0" style="stop-color:#C3CBD5"/>
				<stop  offset="1" style="stop-color:#FFFFFF"/>
			</linearGradient>
			<path class="st3" d="M261.71,79.75V88h-42.47c-3.18,0-5.76-2.58-5.76-5.76V56.47c0-3.18,2.58-6.24,5.76-6.24h42.47l-5.18,7.74
				h-27.76v21.78H261.71z"/>
			<linearGradient id="SVGID_3_" gradientUnits="userSpaceOnUse" x1="299.1176" y1="88" x2="299.1176" y2="50.2353">
				<stop  offset="0" style="stop-color:#C3CBD5"/>
				<stop  offset="1" style="stop-color:#FFFFFF"/>
			</linearGradient>
			<path class="st4" d="M270.29,79.75h42.94v-6.34h-36.71c-3.44,0-6.24-2.79-6.24-6.24v-9.2c0-3.44,2.79-7.74,6.24-7.74h51.41
				l-5.06,7.74h-37.41v7.44h36.24c3.44,0,6.24,2.79,6.24,6.24v10.12c0,3.44-2.79,6.24-6.24,6.24h-51.41V79.75z"/>
			<linearGradient id="SVGID_4_" gradientUnits="userSpaceOnUse" x1="432.2941" y1="88" x2="432.2941" y2="50.2353">
				<stop  offset="0" style="stop-color:#C3CBD5"/>
				<stop  offset="1" style="stop-color:#FFFFFF"/>
			</linearGradient>
			<path class="st5" d="M461.12,79.75h-42.94v-6.34h36.71c3.44,0,6.24-2.79,6.24-6.24v-9.2c0-3.44-2.79-7.74-6.24-7.74h-51.41
				l5.06,7.74h37.41v7.44h-36.24c-3.44,0-6.24,2.79-6.24,6.24V88h57.65V79.75z"/>
			<g>
				<radialGradient id="SVGID_5_" cx="365.5882" cy="69.1176" r="24.5745" gradientUnits="userSpaceOnUse">
					<stop  offset="0.3797" style="stop-color:#53B7FF"/>
					<stop  offset="0.9572" style="stop-color:#27A4FF"/>
				</radialGradient>
				<polygon class="st6" points="336.41,50.24 352.88,50.24 365.59,63.53 378.53,50.24 394.76,50.24 394.76,57.97 386.18,57.97 
					375.35,69.29 385.94,79.75 394.76,79.75 394.76,88 378.76,88 365.59,74.71 352.88,88 336.41,88 336.41,79.75 345.82,79.75 
					356.06,69.29 345.71,57.97 336.41,57.97 				"/>
				<linearGradient id="SVGID_6_" gradientUnits="userSpaceOnUse" x1="347.6765" y1="81.0588" x2="347.6765" y2="56.6703">
					<stop  offset="0.0909" style="stop-color:#199EFF"/>
					<stop  offset="0.8235" style="stop-color:#199EFF;stop-opacity:0"/>
				</linearGradient>
				<polygon class="st7" points="347.59,56.67 336.41,56.67 336.41,57.97 346.94,57.97 357.53,69.29 347.24,79.75 336.41,79.75 
					336.41,81.06 347.59,81.06 358.94,69.29 				"/>
				<polygon class="st9" points="352.88,88 351.18,88 365.59,73.44 380.29,88 378.76,88 365.59,74.71 				"/>
				<linearGradient id="SVGID_7_" gradientUnits="userSpaceOnUse" x1="383.5" y1="81.0589" x2="383.5" y2="56.6704">
					<stop  offset="0.0909" style="stop-color:#199EFF"/>
					<stop  offset="0.8235" style="stop-color:#199EFF;stop-opacity:0"/>
				</linearGradient>
				<polygon class="st8" points="383.59,56.67 394.76,56.67 394.76,57.97 384.24,57.97 373.65,69.29 383.94,79.75 394.76,79.75 
					394.76,81.06 383.59,81.06 372.24,69.29 				"/>
				<polygon class="st11" points="352.18,51.29 336.41,51.29 336.41,50.24 352.88,50.24 				"/>
				<polygon class="st11" points="394.76,51.29 379.32,51.29 378.53,50.24 394.76,50.24 				"/>
				<polygon class="st12" points="365.59,64.93 352.18,51.29 352.88,50.24 365.59,63.53 378.53,50.24 379.3,51.27 				"/>
				<polygon class="st13" points="394.76,51.29 379.34,51.29 379.3,51.27 379.27,51.29 365.59,64.93 352.18,51.29 336.41,51.29 
					336.41,52.41 351.71,52.41 365.59,65.99 379.77,52.41 394.76,52.41 				"/>
			</g>
		</g>
		<linearGradient id="SVGID_8_" gradientUnits="userSpaceOnUse" x1="303.7809" y1="105.0461" x2="303.7809" y2="93.7754">
			<stop  offset="0" style="stop-color:#C3CBD5"/>
			<stop  offset="1" style="stop-color:#FFFFFF"/>
		</linearGradient>
		<path class="st10" d="M300.75,93.78h3.26c1.63,0,2.8,1.39,2.8,3.53c0,2.14-1.18,3.58-2.8,3.58H302v4.17h-1.25V93.78z
			 M303.81,99.51c1.07,0,1.73-0.85,1.73-2.2c0-1.36-0.66-2.16-1.72-2.16H302v4.36H303.81z"/>
		<linearGradient id="SVGID_9_" gradientUnits="userSpaceOnUse" x1="325.5288" y1="105.0461" x2="325.5288" y2="93.7754">
			<stop  offset="0" style="stop-color:#C3CBD5"/>
			<stop  offset="1" style="stop-color:#FFFFFF"/>
		</linearGradient>
		<path class="st14" d="M324.91,100.27l-2.99-6.5h1.42l1.65,3.7c0.28,0.62,0.54,1.42,0.54,1.42h0.03c0,0,0.27-0.78,0.54-1.42
			l1.63-3.7h1.42l-2.98,6.5v4.77h-1.25V100.27z"/>
		<linearGradient id="SVGID_10_" gradientUnits="userSpaceOnUse" x1="332.3294" y1="105.2377" x2="332.3294" y2="93.5838">
			<stop  offset="0" style="stop-color:#C3CBD5"/>
			<stop  offset="1" style="stop-color:#FFFFFF"/>
		</linearGradient>
		<path class="st15" d="M330.14,102.56c0,0,0.95,1.21,2.27,1.21c0.83,0,1.54-0.59,1.54-1.66c0-2.44-4.32-1.92-4.32-5.38
			c0-1.76,1.2-3.15,2.88-3.15c1.65,0,2.53,1.13,2.53,1.13l-0.57,1.31c0,0-0.82-0.97-1.96-0.97c-0.95,0-1.62,0.75-1.62,1.64
			c0,2.33,4.32,1.71,4.32,5.36c0,1.74-1.06,3.18-2.83,3.18c-1.9,0-2.96-1.48-2.96-1.48L330.14,102.56z"/>
		<linearGradient id="SVGID_11_" gradientUnits="userSpaceOnUse" x1="340.0948" y1="105.0461" x2="340.0948" y2="93.7754">
			<stop  offset="0" style="stop-color:#C3CBD5"/>
			<stop  offset="1" style="stop-color:#FFFFFF"/>
		</linearGradient>
		<path class="st16" d="M339.47,95.15h-3.06v-1.37h7.37v1.37h-3.06v9.9h-1.25V95.15z"/>
		<linearGradient id="SVGID_12_" gradientUnits="userSpaceOnUse" x1="353.8109" y1="105.0461" x2="353.8109" y2="93.7754">
			<stop  offset="0" style="stop-color:#C3CBD5"/>
			<stop  offset="1" style="stop-color:#FFFFFF"/>
		</linearGradient>
		<path class="st17" d="M353.19,95.15h-3.06v-1.37h7.37v1.37h-3.06v9.9h-1.25V95.15z"/>
		<linearGradient id="SVGID_13_" gradientUnits="userSpaceOnUse" x1="359.5294" y1="105.0461" x2="359.5294" y2="93.7754">
			<stop  offset="0" style="stop-color:#C3CBD5"/>
			<stop  offset="1" style="stop-color:#FFFFFF"/>
		</linearGradient>
		<path class="st18" d="M358.9,93.78h1.25v5.63v5.64h-1.25V99.4V93.78z"/>
		<linearGradient id="SVGID_14_" gradientUnits="userSpaceOnUse" x1="366.0294" y1="105.2377" x2="366.0294" y2="93.5838">
			<stop  offset="0" style="stop-color:#C3CBD5"/>
			<stop  offset="1" style="stop-color:#FFFFFF"/>
		</linearGradient>
		<path class="st19" d="M366.04,93.58c2.34,0,4.15,2.51,4.15,5.75c0,3.32-1.81,5.91-4.15,5.91c-2.34,0-4.16-2.59-4.16-5.91
			C361.87,96.09,363.7,93.58,366.04,93.58z M366.04,103.79c1.65,0,2.98-1.92,2.98-4.45c0-2.46-1.33-4.31-2.98-4.31
			c-1.65,0-2.99,1.85-2.99,4.31C363.04,101.87,364.38,103.79,366.04,103.79z"/>
		<linearGradient id="SVGID_15_" gradientUnits="userSpaceOnUse" x1="375.481" y1="105.0461" x2="375.481" y2="93.7754">
			<stop  offset="0" style="stop-color:#C3CBD5"/>
			<stop  offset="1" style="stop-color:#FFFFFF"/>
		</linearGradient>
		<path class="st20" d="M371.91,93.78h1.24l3.97,7.33c0.33,0.61,0.75,1.63,0.75,1.63h0.03c0,0-0.09-1.01-0.09-1.63v-7.33h1.25v11.27
			h-1.23l-3.98-7.31c-0.33-0.62-0.75-1.64-0.75-1.64h-0.03c0,0,0.09,1.01,0.09,1.64v7.31h-1.25V93.78z"/>
		<linearGradient id="SVGID_16_" gradientUnits="userSpaceOnUse" x1="387.4164" y1="105.0461" x2="387.4164" y2="93.5838">
			<stop  offset="0" style="stop-color:#C3CBD5"/>
			<stop  offset="1" style="stop-color:#FFFFFF"/>
		</linearGradient>
		<path class="st21" d="M383.98,103.29c0,0,4.6-3.7,4.6-6.35c0-1.12-0.83-1.92-1.99-1.92c-1.46,0-2.62,0-2.62,0v-1.44
			c0,0,0.24,0,2.73,0c2.03,0,3.49,1.29,3.49,3.24c0,3.7-4.8,6.85-4.8,6.85h5.48v1.37h-6.9
			C383.93,104.74,383.98,103.29,383.98,103.29z"/>
		<linearGradient id="SVGID_17_" gradientUnits="userSpaceOnUse" x1="399.0775" y1="105.0461" x2="399.0775" y2="93.7754">
			<stop  offset="0" style="stop-color:#C3CBD5"/>
			<stop  offset="1" style="stop-color:#FFFFFF"/>
		</linearGradient>
		<path class="st22" d="M396.43,93.78h5.29v1.37h-4.04V98h3.2v1.37h-3.2v4.3h4.04v1.37h-5.29V93.78z"/>
		<linearGradient id="SVGID_18_" gradientUnits="userSpaceOnUse" x1="407.5846" y1="105.0461" x2="407.5846" y2="93.7754">
			<stop  offset="0" style="stop-color:#C3CBD5"/>
			<stop  offset="1" style="stop-color:#FFFFFF"/>
		</linearGradient>
		<path class="st23" d="M403.35,93.78h1.34l2.85,6.72h0.03l2.87-6.72h1.39v11.27h-1.39v-8.76l-2.32,5.84H407l-2.31-5.87v8.8h-1.34
			V93.78z"/>
		<linearGradient id="SVGID_19_" gradientUnits="userSpaceOnUse" x1="417.0294" y1="105.2377" x2="417.0294" y2="93.7754">
			<stop  offset="0" style="stop-color:#C3CBD5"/>
			<stop  offset="1" style="stop-color:#FFFFFF"/>
		</linearGradient>
		<path class="st24" d="M413.52,93.78h1.25v7.28c0,1.72,0.88,2.73,2.25,2.73c1.38,0,2.27-1.01,2.27-2.76v-7.25h1.25v7.28
			c0,2.51-1.43,4.18-3.51,4.18s-3.51-1.68-3.51-4.18V93.78z"/>
		<linearGradient id="SVGID_20_" gradientUnits="userSpaceOnUse" x1="424.8294" y1="105.0461" x2="424.8294" y2="93.7754">
			<stop  offset="0" style="stop-color:#C3CBD5"/>
			<stop  offset="1" style="stop-color:#FFFFFF"/>
		</linearGradient>
		<path class="st25" d="M422.21,93.78h1.39v9.9h3.85v1.37h-5.24V93.78z"/>
		<linearGradient id="SVGID_21_" gradientUnits="userSpaceOnUse" x1="439.9294" y1="105.0461" x2="439.9294" y2="93.7754">
			<stop  offset="0" style="stop-color:#C3CBD5"/>
			<stop  offset="1" style="stop-color:#FFFFFF"/>
		</linearGradient>
		<path class="st26" d="M439.3,95.15h-3.06v-1.37h7.37v1.37h-3.06v9.9h-1.25V95.15z"/>
		<linearGradient id="SVGID_22_" gradientUnits="userSpaceOnUse" x1="448.1294" y1="105.2941" x2="448.1294" y2="93.5274">
			<stop  offset="0" style="stop-color:#C3CBD5"/>
			<stop  offset="1" style="stop-color:#FFFFFF"/>
		</linearGradient>
		<path class="st27" d="M448.14,93.53c2.34,0,4.15,2.53,4.15,5.8c0,3.35-1.81,5.96-4.15,5.96c-2.34,0-4.16-2.61-4.16-5.96
			C443.97,96.06,445.8,93.53,448.14,93.53z M448.14,103.83c1.65,0,2.98-1.93,2.98-4.5c0-2.48-1.33-4.35-2.98-4.35
			c-1.65,0-2.99,1.87-2.99,4.35C445.14,101.89,446.48,103.83,448.14,103.83z"/>
		<linearGradient id="SVGID_23_" gradientUnits="userSpaceOnUse" x1="457.523" y1="105.0461" x2="457.523" y2="93.7754">
			<stop  offset="0" style="stop-color:#C3CBD5"/>
			<stop  offset="1" style="stop-color:#FFFFFF"/>
		</linearGradient>
		<path class="st28" d="M453.93,93.78h3.04c1.04,0,1.48,0.1,1.86,0.26c1.01,0.43,1.67,1.56,1.67,3.05c0,1.44-0.7,2.65-1.79,3.05
			v0.03c0,0,0.11,0.14,0.3,0.51l2.11,4.37h-1.58l-2.1-4.49h-2.12v4.49h-1.39V93.78z M457.32,99.19c1.08,0,1.76-0.78,1.76-2.04
			c0-0.83-0.28-1.42-0.79-1.74c-0.27-0.16-0.59-0.26-1.36-0.26h-1.6v4.04H457.32z"/>
		<linearGradient id="SVGID_24_" gradientUnits="userSpaceOnUse" x1="318.3314" y1="105.0461" x2="318.3314" y2="93.7754">
			<stop  offset="0" style="stop-color:#C3CBD5"/>
			<stop  offset="1" style="stop-color:#FFFFFF"/>
		</linearGradient>
		<path class="st29" d="M321.14,105.05h1.42l-3.51-11.27h-1.44l-3.51,11.27h1.41l0.93-2.97h3.77L321.14,105.05z M316.82,100.88
			l1.51-4.81l1.5,4.81H316.82z"/>
		<linearGradient id="SVGID_25_" gradientUnits="userSpaceOnUse" x1="346.9112" y1="105.0461" x2="346.9112" y2="93.7754">
			<stop  offset="0" style="stop-color:#C3CBD5"/>
			<stop  offset="1" style="stop-color:#FFFFFF"/>
		</linearGradient>
		<path class="st30" d="M349.72,105.05h1.42l-3.51-11.27h-1.44l-3.51,11.27h1.41l0.93-2.97h3.77L349.72,105.05z M345.4,100.88
			l1.51-4.81l1.5,4.81H345.4z"/>
		<linearGradient id="SVGID_26_" gradientUnits="userSpaceOnUse" x1="433.0294" y1="105.0461" x2="433.0294" y2="93.7754">
			<stop  offset="0" style="stop-color:#C3CBD5"/>
			<stop  offset="1" style="stop-color:#FFFFFF"/>
		</linearGradient>
		<path class="st31" d="M435.83,105.05h1.42l-3.51-11.27h-1.44l-3.51,11.27h1.41l0.93-2.97h3.77L435.83,105.05z M431.52,100.88
			l1.51-4.81l1.5,4.81H431.52z"/>
		<linearGradient id="SVGID_27_" gradientUnits="userSpaceOnUse" x1="310.4149" y1="105.0461" x2="310.4149" y2="93.7754">
			<stop  offset="0" style="stop-color:#C3CBD5"/>
			<stop  offset="1" style="stop-color:#FFFFFF"/>
		</linearGradient>
		<path class="st32" d="M307.79,93.78h1.39v9.9h3.85v1.37h-5.24V93.78z"/>
	</g>
</g>
</svg>
