<?xml version="1.0" encoding="utf-8"?>
<svg version="1.1" id="Layer_1" xmlns="http://www.w3.org/2000/svg" xmlns:xlink="http://www.w3.org/1999/xlink" x="0px" y="0px"
	 viewBox="0 0 294 112" style="enable-background:new 0 0 294 112;" xml:space="preserve">
<style type="text/css">
	.st0{fill:#FFF1E8;}
	.st1{fill:#FFEC27;}
	.st2{fill:#FFA300;}
	.st3{fill:#FF004D;}
	.st4{fill:#FFCCAA;}
	.st5{fill:#FF77A8;}
	.st6{fill:#83769C;}
	.st7{fill:#00E436;}
	.st8{fill:#29ADFF;}
</style>
<g>
	<g>
		<polygon class="st0" points="283,27 267,10.5 251,27 267,43 		"/>
		<polygon class="st1" points="255,31 247,31 247,27 247,23 255,23 255,27 		"/>
		<polygon class="st2" points="263,23 255,23 255,19 255,15 263,15 263,19 		"/>
		<polygon class="st3" points="271,15 263,15 263,10.5 263,6 271,6 271,10.5 		"/>
		<polygon class="st4" points="271,23 279,23 279,19 279,15 271,15 271,19 		"/>
		<polygon class="st5" points="279,31 287,31 287,27.35 287,23 279,23 279,27 		"/>
		<polygon class="st6" points="279,31 271,31 271,35 271,39 279,39 279,35 		"/>
		<polygon class="st7" points="263,31 255,31 255,35 255,39 263,39 263,35 		"/>
		<polygon class="st8" points="271,39 263,39 263,43 263,47 271,47 271,43 		"/>
	</g>
	<g>
		<path class="st0" d="M15,40h-1v1h-1v1h-1v1h-1v1h-1v1H9v1H8v1H7v32h16V63h24V39H15V40z M23,51v-4h8v4v4h-8V51z"/>
		<polygon class="st0" points="55,47 63,47 63,71 55,71 55,79 87,79 87,71 79,71 79,47 87,47 87,39 55,39 		"/>
		<polygon class="st0" points="103,40 102,40 102,41 101,41 101,42 100,42 100,43 99,43 99,44 98,44 98,45 97,45 97,46 96,46 96,47 
			95,47 95,79 127,79 127,71 111,71 111,47 127,47 127,39 103,39 		"/>
		<path class="st0" d="M143,40h-1v1h-1v1h-1v1h-1v1h-1v1h-1v1h-1v1h-1v32h32v-1h1v-1h1v-1h1v-1h1v-1h1v-1h1v-1h1v-1h1V39h-32V40z
			 M151,59V47h8v12v12h-8V59z"/>
		<polygon class="st0" points="183,59 183,63 199,63 199,59.38 199,55 183,55 		"/>
		<path class="st0" d="M215,39v9h-1v1h-1v1h-1v1h-1v1h-1v1h-1v1h-1v1h-1v1v23h40V39H215z M239,67v4h-16v-4v-4h16V67z M239,51v4h-16
			v-4v-4h16V51z"/>
	</g>
	<g>
		<polygon class="st0" points="34,96 33,96 33,105 35,105 35,101 41,101 41,99 35,99 35,97 43,97 43,95 34,95 		"/>
		<path class="st0" d="M54,95h-8v1h-1v9h2v-4h6v4h2v-9h-1V95z M53,98v1h-6v-1v-1h6V98z"/>
		<polygon class="st0" points="65,101 64,101 64,100 63,100 63,99 62,99 62,98 61,98 61,97 60,97 60,96 59,96 59,95 57,95 57,105 
			59,105 59,99 60,99 60,100 61,100 61,101 62,101 62,102 63,102 63,103 64,103 64,104 65,104 65,105 67,105 67,95 65,95 		"/>
		<polygon class="st0" points="69,97 73,97 73,105 75,105 75,97 79,97 79,95 69,95 		"/>
		<path class="st0" d="M81,105h2v-4h6v4h2V95H81V105z M83,98v-1h6v1v1h-6V98z"/>
		<polygon class="st0" points="95,96 94,96 94,97 93,97 93,99 94,99 94,100 95,100 95,101 100,101 100,103 93,103 93,105 101,105 
			101,104 102,104 102,103 103,103 103,101 102,101 102,100 101,100 101,99 96,99 96,97 103,97 103,95 95,95 		"/>
		<polygon class="st0" points="113,98 112,98 112,99 108,99 108,98 107,98 107,95 105,95 105,99 106,99 106,100 107,100 107,101 
			109,101 109,105 111,105 111,101 113,101 113,100 114,100 114,99 115,99 115,95 113,95 		"/>
		<polygon class="st0" points="131,96 130,96 130,97 129,97 129,103 130,103 130,104 131,104 131,105 139,105 139,103 132,103 
			132,102 131,102 131,98 132,98 132,97 139,97 139,95 131,95 		"/>
		<path class="st0" d="M150,96h-1v-1h-6v1h-1v1h-1v6h1v1h1v1h6v-1h1v-1h1v-6h-1V96z M149,102h-1v1h-4v-1h-1v-4h1v-1h4v1h1V102z"/>
		<polygon class="st0" points="161,101 160,101 160,100 159,100 159,99 158,99 158,98 157,98 157,97 156,97 156,96 155,96 155,95 
			153,95 153,105 155,105 155,99 156,99 156,100 157,100 157,101 158,101 158,102 159,102 159,103 160,103 160,104 161,104 161,105 
			163,105 163,95 161,95 		"/>
		<polygon class="st0" points="167,96 166,96 166,97 165,97 165,99 166,99 166,100 167,100 167,101 172,101 172,103 165,103 
			165,105 173,105 173,104 174,104 174,103 175,103 175,101 174,101 174,100 173,100 173,99 168,99 168,97 175,97 175,95 167,95 		
			"/>
		<path class="st0" d="M186,96h-1v-1h-6v1h-1v1h-1v6h1v1h1v1h6v-1h1v-1h1v-6h-1V96z M185,102h-1v1h-4v-1h-1v-4h1v-1h4v1h1V102z"/>
		<polygon class="st0" points="192,102 191,102 191,95 189,95 189,104 190,104 190,105 191,105 192,105 199,105 199,103 192,103 		
			"/>
		<polygon class="st0" points="211,97 211,95 202,95 202,96 201,96 201,104 202,104 202,105 211,105 211,103 203,103 203,101 
			207,101 207,99 203,99 203,97 		"/>
	</g>
</g>
</svg>
