<?xml version="1.0" encoding="UTF-8" standalone="no"?>
<svg
   xmlns:dc="http://purl.org/dc/elements/1.1/"
   xmlns:cc="http://creativecommons.org/ns#"
   xmlns:rdf="http://www.w3.org/1999/02/22-rdf-syntax-ns#"
   xmlns:svg="http://www.w3.org/2000/svg"
   xmlns="http://www.w3.org/2000/svg"
   xmlns:sodipodi="http://sodipodi.sourceforge.net/DTD/sodipodi-0.dtd"
   xmlns:inkscape="http://www.inkscape.org/namespaces/inkscape"
   inkscape:version="1.0.1 (3bc2e813f5, 2020-09-07)"
   sodipodi:docname="Play - Eng - 2.svg"
   xml:space="preserve"
   style="enable-background:new 0 0 800 256;"
   viewBox="0 0 800 256"
   y="0px"
   x="0px"
   id="svg145"
   version="1.1"
   inkscape:export-filename="D:\PROJECTS\rearchs\retroarch-assets-master-MINE\src\core_logos\Play - Eng - 2.png"
   inkscape:export-xdpi="96"
   inkscape:export-ydpi="96"><metadata
   id="metadata534"><rdf:RDF><cc:Work
       rdf:about=""><dc:format>image/svg+xml</dc:format><dc:type
         rdf:resource="http://purl.org/dc/dcmitype/StillImage" /></cc:Work></rdf:RDF></metadata><defs
   id="defs532"><linearGradient
     id="block2_1_"
     gradientUnits="userSpaceOnUse"
     x1="94.672401"
     y1="3.6041999"
     x2="161.33611"
     y2="252.39619"
     gradientTransform="matrix(1,0,0,-1,0,256)"><stop
       offset="0"
       style="stop-color:#2F4F4E"
       id="stop368" /><stop
       offset="1"
       style="stop-color:#80827D"
       id="stop370" /></linearGradient><linearGradient
     id="block1_1_"
     gradientUnits="userSpaceOnUse"
     x1="128"
     y1="24"
     x2="128"
     y2="232"
     gradientTransform="matrix(1,0,0,-1,0,256)"><stop
       offset="0"
       style="stop-color:#4058DE"
       id="stop375" /><stop
       offset="1"
       style="stop-color:#DCD9FF"
       id="stop377" /></linearGradient><filter
     style="color-interpolation-filters:sRGB"
     inkscape:label="Drop Shadow"
     id="filter413"
     width="2.3"
     height="1.4"
     x="-0.5"
     y="-0.2"><feFlood
       flood-opacity="1"
       flood-color="rgb(33,33,69)"
       result="flood"
       id="feFlood403" /><feComposite
       in="flood"
       in2="SourceGraphic"
       operator="in"
       result="composite1"
       id="feComposite405" /><feGaussianBlur
       in="composite1"
       stdDeviation="10"
       result="blur"
       id="feGaussianBlur407" /><feOffset
       dx="10"
       dy="9"
       result="offset"
       id="feOffset409" /><feComposite
       in="SourceGraphic"
       in2="offset"
       operator="over"
       result="composite2"
       id="feComposite411" /></filter><filter
     inkscape:label="Button"
     inkscape:menu="Bevels"
     inkscape:menu-tooltip="Soft bevel, slightly depressed middle"
     style="color-interpolation-filters:sRGB;"
     id="filter178"><feGaussianBlur
       stdDeviation="2.3"
       in="SourceAlpha"
       result="result0"
       id="feGaussianBlur152" /><feMorphology
       in="SourceAlpha"
       radius="6.6"
       result="result1"
       id="feMorphology154" /><feGaussianBlur
       stdDeviation="8.9"
       in="result1"
       id="feGaussianBlur156" /><feColorMatrix
       values="1 0 0 0 0 0 1 0 0 0 0 0 1 0 0 0 0 0 0.3 0 "
       result="result91"
       id="feColorMatrix158"
       type="matrix" /><feComposite
       in="result0"
       operator="out"
       result="result2"
       in2="result91"
       id="feComposite160" /><feGaussianBlur
       stdDeviation="1.7"
       result="result4"
       id="feGaussianBlur162" /><feDiffuseLighting
       surfaceScale="5"
       id="feDiffuseLighting166"
       lighting-color="rgb(255,255,255)"
       diffuseConstant="0.75242718446601931"><feDistantLight
         azimuth="225"
         elevation="45"
         id="feDistantLight164" /></feDiffuseLighting><feBlend
       in2="SourceGraphic"
       mode="multiply"
       id="feBlend168" /><feComposite
       in2="SourceAlpha"
       operator="in"
       result="result3"
       id="feComposite170" /><feSpecularLighting
       in="result4"
       surfaceScale="-2.7644710578842315"
       specularExponent="23.113320079522861"
       id="feSpecularLighting174"
       specularConstant="1.4314115308151094"
       kernelUnitLength="0.01"
       lighting-color="rgb(186,189,182)"><feDistantLight
         id="feDistantLight188"
         azimuth="89"
         elevation="45" /></feSpecularLighting><feComposite
       in2="result3"
       operator="atop"
       id="feComposite176" /></filter><filter
     style="color-interpolation-filters:sRGB"
     inkscape:label="Drop Shadow"
     id="filter200"
     width="2.3"
     height="1.4"
     x="-0.5"
     y="-0.2"><feFlood
       flood-opacity="0.53280318091451295"
       flood-color="rgb(33,33,69)"
       result="flood"
       id="feFlood190" /><feComposite
       in="flood"
       in2="SourceGraphic"
       operator="in"
       result="composite1"
       id="feComposite192" /><feGaussianBlur
       in="composite1"
       stdDeviation="7.5"
       result="blur"
       id="feGaussianBlur194" /><feOffset
       dx="0"
       dy="20"
       result="offset"
       id="feOffset196" /><feComposite
       in="SourceGraphic"
       in2="offset"
       operator="over"
       result="composite2"
       id="feComposite198" /></filter></defs><sodipodi:namedview
   inkscape:current-layer="svg145"
   inkscape:window-maximized="1"
   inkscape:window-y="-8"
   inkscape:window-x="1912"
   inkscape:cy="134.82552"
   inkscape:cx="418.30474"
   inkscape:zoom="1.0824912"
   showgrid="false"
   id="namedview530"
   inkscape:window-height="1017"
   inkscape:window-width="1920"
   inkscape:pageshadow="2"
   inkscape:pageopacity="0"
   guidetolerance="10"
   gridtolerance="10"
   objecttolerance="10"
   borderopacity="1"
   bordercolor="#666666"
   pagecolor="#ffffff"
   inkscape:document-rotation="0" />
<style
   id="style496"
   type="text/css">
	.st0{fill:url(#block2_1_);}
	.st1{fill:url(#block1_1_);}
	.st2{fill:#FFFFFF;}
	.st3{fill:#020202;}
</style>



<g
   id="g527"
   style="filter:url(#filter200)"
   transform="matrix(0.93446805,0,0,0.92294348,22.835772,7.291964)">
	<path
   id="path515"
   d="m 349.6,69.2 c -4.4,-3 -9.2,-4.4 -14.6,-4.4 h -51.4 v 114.1 c 0,3.8 2.5,5.7 7.5,5.7 5.3,0 8,-1.9 8,-5.7 v -40.5 h 41.1 c 4.7,0 8.8,-1.4 12.1,-4.2 3.3,-2.8 5,-6.4 5,-10.8 V 82.2 c 0,-5.2 -2.6,-9.5 -7.7,-13 z m -7.4,50.9 c 0,1.2 -0.6,2.1 -1.8,2.7 -1.2,0.6 -3,0.9 -5.5,0.9 H 299.2 V 80.1 h 34.2 c 2.4,0 4.4,0.3 6.2,0.8 1.8,0.5 2.7,1.6 2.7,3.3 v 35.9 z"
   class="st3"
   style="filter:url(#filter178)" />
	<path
   id="path517"
   d="M 452.6,169.5 H 438.4 V 71.2 c 0,-1.5 -0.4,-3 -1.3,-4.4 -0.9,-1.4 -2,-2 -3.5,-2 h -29.5 c -1.3,0 -2.4,0.5 -3.2,1.6 -0.8,1.1 -1.3,2.8 -1.3,5.3 0,2.3 0.3,4.1 1,5.6 0.6,1.5 1.8,2.2 3.5,2.2 h 17.8 v 89.9 h -17.4 c -2.4,0 -4,0.7 -5,2 -0.9,1.3 -1.4,3.2 -1.4,5.7 0,2 0.5,3.7 1.5,5.1 1,1.4 2.5,2 4.5,2 h 48.5 c 2.5,0 4.2,-0.6 5.2,-1.7 1,-1.1 1.5,-2.9 1.5,-5.4 0,-2.1 -0.6,-3.9 -1.7,-5.4 -1.1,-1.5 -2.8,-2.2 -5,-2.2 z"
   class="st3"
   style="filter:url(#filter178)" />
	<path
   id="path519"
   d="m 556.6,98.2 h -34.8 c -4.3,0 -6.4,2.4 -6.4,7.3 0,2 0.5,3.9 1.5,5.6 1,1.7 2.3,2.6 4,2.6 h 31.3 c 1.8,0 3.6,0.8 5.3,2.5 1.8,1.7 2.7,3.4 2.7,5.2 v 11.2 H 514 c -4.1,0 -7.5,1.9 -10,5.7 -2.6,3.8 -3.8,7.8 -3.8,12.1 v 15.3 c 0,5 2,9.3 6,13.1 4,3.7 8.4,5.6 13.4,5.6 h 31.1 c 2.1,0 4,-0.6 5.7,-1.7 1.7,-1.1 3.3,-2.6 4.8,-4.5 0.8,0.9 1.8,2.1 2.8,3.5 1.8,2.1 3.6,3.1 5.5,3.1 2,0 3.6,-0.5 4.6,-1.6 1.1,-1.1 1.6,-2.7 1.6,-4.8 v -58.3 c 0,-5.4 -1.9,-10.4 -5.7,-14.9 -3.8,-4.7 -8.3,-7 -13.4,-7 z m 4.5,63.5 c 0,1.7 -0.7,3.2 -2,4.7 -1.4,1.5 -2.8,2.2 -4.2,2.2 H 521 c -1.8,0 -3.3,-0.7 -4.4,-2.1 -1.2,-1.4 -1.8,-3 -1.8,-4.8 v -9.1 c 0,-1.7 0.8,-3.2 2.5,-4.6 1.7,-1.4 3.2,-2.1 4.6,-2.1 H 555 c 1.7,0 3.1,0.7 4.4,2 1.2,1.4 1.9,2.9 1.9,4.7 v 9.1 z"
   class="st3"
   style="filter:url(#filter178)" />
	<path
   id="path521"
   d="m 684.3,96.3 c -1.9,0 -3.7,0.4 -5.2,1.3 -1.6,0.8 -2.3,2 -2.3,3.6 l 0.2,20.3 -19,48.2 -27.1,-47.2 -0.1,-20.2 c 0,-3.9 -2.7,-5.9 -8.2,-5.9 -1.9,0 -3.6,0.5 -5.2,1.6 -1.6,1.1 -2.4,2.5 -2.4,4.3 v 21.3 l 29.5,56.3 8.9,4.5 -8.5,22.6 h -17.1 c -1.4,0 -3,0.6 -4.7,1.8 -1.7,1.2 -2.6,2.8 -2.6,5 0,5 2.4,7.5 7.3,7.5 H 653 c 0.8,0 1.5,-0.5 2.1,-1.6 0.1,-0.5 0.3,-0.9 0.5,-1.2 L 691.9,122 v -20.6 c -0.1,-3.5 -2.6,-5.1 -7.6,-5.1 z"
   class="st3"
   style="filter:url(#filter178)" />
	<path
   id="path523"
   d="m 767.4,164.1 c -1.1,-1.1 -2.2,-1.6 -3.6,-1.6 h -9.9 c -1.8,0 -3.3,0.5 -4.4,1.4 -1.2,1 -1.8,2.2 -1.8,3.7 v 12.1 c 0,1.4 0.6,2.5 2,3.3 1.3,0.8 2.7,1.2 4.3,1.2 h 9.9 c 1.3,0 2.5,-0.5 3.6,-1.4 1.1,-0.9 1.6,-2 1.6,-3 v -12.1 c -0.1,-1.3 -0.6,-2.5 -1.7,-3.6 z"
   class="st3"
   style="filter:url(#filter178)" />
	<path
   id="path525"
   d="m 752.4,136.2 c 1,1.5 2.5,2.3 4.5,2.3 3.2,0 5.3,-1.3 6.2,-3.9 0.4,-0.8 0.6,-2.2 0.7,-4.3 l 4.6,-60.1 c 0,-2.4 -1.1,-4.1 -3.4,-5.2 -2.2,-1.1 -5,-1.6 -8.2,-1.6 -2.5,0 -4.9,0.8 -7.1,2.3 -2.2,1.5 -3.4,3.1 -3.4,4.8 l 4.4,59.7 c 0.2,2.5 0.7,4.5 1.7,6 z"
   class="st3"
   style="filter:url(#filter178)" />
</g>
<g
   transform="matrix(0.93446805,0,0,0.92294348,22.883696,7.343915)"
   id="Back2"><linearGradient
     id="linearGradient275"
     gradientUnits="userSpaceOnUse"
     x1="94.672401"
     y1="3.6041999"
     x2="161.33611"
     y2="252.39619"
     gradientTransform="matrix(1,0,0,-1,0,256)"><stop
       offset="0"
       style="stop-color:#2F4F4E"
       id="stop271" /><stop
       offset="1"
       style="stop-color:#80827D"
       id="stop273" /></linearGradient><path
     style="fill:url(#block2_1_)"
     id="block2"
     class="st0"
     d="M 200.47,240.5 H 55.53 C 33.52,240.5 15.5,222.49 15.5,200.47 V 55.53 C 15.5,33.52 33.51,15.5 55.53,15.5 h 144.95 c 22.01,0 40.03,18.01 40.03,40.03 v 144.95 c -0.01,22.01 -18.02,40.02 -40.04,40.02 z" /></g><g
   transform="matrix(0.93446805,0,0,0.92294348,22.883696,7.343915)"
   id="Back1"
   style="filter:url(#filter413)"><linearGradient
     id="linearGradient283"
     gradientUnits="userSpaceOnUse"
     x1="128"
     y1="24"
     x2="128"
     y2="232"
     gradientTransform="matrix(1,0,0,-1,0,256)"><stop
       offset="0"
       style="stop-color:#4058DE"
       id="stop279" /><stop
       offset="1"
       style="stop-color:#DCD9FF"
       id="stop281" /></linearGradient><path
     style="fill:url(#block1_1_)"
     id="block1"
     class="st1"
     d="M 201,232 H 55 C 37.95,232 24,218.05 24,201 V 55 C 24,37.95 37.95,24 55,24 h 146 c 17.05,0 31,13.95 31,31 v 146 c 0,17.05 -13.95,31 -31,31 z" /></g><g
   id="ENG"
   style="filter:url(#filter413)"
   transform="matrix(0.93446805,0,0,0.92294348,22.323015,7.343915)"><circle
     id="exclaim2"
     class="st2"
     cx="128"
     cy="181.11"
     r="19.5"
     style="fill:#ffffff" /><path
     id="exclaim1"
     class="st2"
     d="m 123.21,149.46 c 0.17,0.89 0.95,1.54 1.86,1.54 h 5.86 c 0.91,0 1.69,-0.65 1.86,-1.54 l 14.04,-71.85 c 0.42,-1.59 0.67,-3.26 0.67,-4.98 0,-10.77 -8.73,-19.5 -19.5,-19.5 -10.77,0 -19.5,8.73 -19.5,19.5 0,1.72 0.25,3.39 0.67,4.98 z"
     inkscape:connector-curvature="0"
     style="fill:#ffffff" /></g></svg>
