<?xml version="1.0" encoding="utf-8"?>
<!-- Generator: Adobe Illustrator 25.0.0, SVG Export Plug-In . SVG Version: 6.00 Build 0)  -->
<svg version="1.1" id="Layer_2_copy" xmlns="http://www.w3.org/2000/svg" xmlns:xlink="http://www.w3.org/1999/xlink" x="0px"
	 y="0px" viewBox="0 0 560 110" style="enable-background:new 0 0 560 110;" xml:space="preserve">
<style type="text/css">
	.st0{fill:#2A2829;}
	.st1{fill:#D5D2CD;}
	.st2{fill:#DBBE1A;}
</style>
<g>
	<path class="st0" d="M336.04,34.48c-3.36,0-6.53,0.57-9.42,1.64c-1.21-0.49-2.53-0.76-3.92-0.76h-11.4c-3.56,0-6.7,1.78-8.6,4.49
		c-4.86-2.81-10.75-4.37-17.36-4.37c-8.59,0-15.98,2.65-21.46,7.24c-4.53-5.66-11.19-7.24-17.18-7.24c-4.25,0-8.2,0.99-11.66,2.85
		c-3.25-1.85-7.06-2.85-11.24-2.85c-3.18,0-6.18,0.53-8.92,1.54c-1.15-0.44-2.41-0.68-3.71-0.68h-10.79c-1.26,0-2.46,0.23-3.58,0.64
		c1.31-2.75,1.43-6.04,0.03-9.01l-3.62-7.68c-1.22-2.59-3.45-4.57-6.16-5.48c-2.72-0.91-5.69-0.67-8.22,0.66l-19.98,10.5
		c-3.82,2.01-5.9,6.05-5.58,10.12h-11.92v-6.48c0-5.8-4.7-10.5-10.5-10.5h-12.05c-5.8,0-10.5,4.7-10.5,10.5v9.72
		c-4.62-2.49-10.12-3.86-16.24-3.86c-5.46,0-10.42,1.1-14.71,3.1c-3.29-8.38-11.69-16.46-31.8-16.46H29.06
		c-5.8,0-10.5,4.7-10.5,10.5v51.74c0,5.8,4.7,10.5,10.5,10.5h13.82c5.8,0,10.5-4.7,10.5-10.5v-7.88c3.09-0.36,5.97-1.06,8.6-2.05
		c3.53,12.88,14.92,21.29,30.08,21.29c6.88,0,12.98-1.73,17.92-4.82c1.87,2.9,5.12,4.82,8.82,4.82h12.05c1.77,0,3.43-0.44,4.89-1.21
		c1.48,0.78,3.15,1.21,4.88,1.21h14.59c2.89,0,5.61-1.19,7.57-3.23c4.34,2.07,9.34,3.23,14.8,3.23c6.06,0,11.62-0.99,16.55-2.94
		c1.75,1.3,3.9,2.07,6.25,2.07h11.84c2.11,0,4.08-0.62,5.72-1.7c1.65,1.07,3.61,1.7,5.72,1.7h11.84c2.11,0,4.08-0.62,5.72-1.7
		c1.65,1.07,3.61,1.7,5.72,1.7h11.84c3.36,0,6.34-1.58,8.27-4.04c5.03,3.14,11.25,4.9,18.27,4.9c6.84,0,12.92-1.68,17.87-4.67
		c1.93,2.32,4.83,3.8,8.09,3.8h12.51c2.58,0,4.95-0.93,6.78-2.48c1.83,1.55,4.19,2.48,6.77,2.48h12.51c5.8,0,10.5-4.7,10.5-10.5
		V60.35C360.37,45.12,350.36,34.48,336.04,34.48z"/>
	<path class="st0" d="M539.16,59.6c1.42-2.43,2.25-5.25,2.25-8.27c0-9.09-7.4-16.49-16.49-16.49c-4.65,0-8.84,1.94-11.84,5.04
		c-3-3.11-7.21-5.06-11.86-5.06h-24.59c-4.66,0-8.87,1.95-11.87,5.07c-3-3.11-7.2-5.05-11.85-5.05c-4.53,0-8.65,1.84-11.63,4.81
		c-2.99-2.98-7.11-4.83-11.65-4.83h-49.18c-9.1,0-16.5,7.4-16.5,16.5v27c0,9.1,7.4,16.5,16.5,16.5c4.88,0,9.27-2.13,12.29-5.51
		c3.02,3.38,7.41,5.51,12.29,5.51c4.88,0,9.27-2.13,12.29-5.51c3.02,3.38,7.42,5.51,12.29,5.51c4.54,0,8.66-1.85,11.65-4.83
		c2.99,2.98,7.11,4.83,11.65,4.83c4.65,0,8.85-1.94,11.85-5.05c3,3.11,7.2,5.05,11.85,5.05c4.88,0,9.27-2.13,12.29-5.51
		c3.02,3.38,7.42,5.51,12.29,5.51c4.65,0,8.86-1.95,11.86-5.06c3,3.11,7.21,5.06,11.86,5.06c9.1,0,16.5-7.4,16.5-16.5V67.92
		C541.44,64.88,540.6,62.05,539.16,59.6z"/>
</g>
<g>
	<path class="st1" d="M45.55,32.63H29.06v51.74h13.82V66.28h5.35c12.93,0,20.58-6.23,20.58-16.68
		C68.81,37.96,61.38,32.63,45.55,32.63z M46.44,56.49h-3.57V42.41h3.57c4.75,0,8.54,1.7,8.54,6.97
		C54.99,54.79,51.2,56.49,46.44,56.49z"/>
	<path class="st1" d="M92.07,45.98c-11.77,0-20.74,7.2-20.74,19.66c0,12.39,8.97,19.59,20.74,19.59c11.77,0,20.74-7.2,20.74-19.59
		C112.81,53.18,103.84,45.98,92.07,45.98z M92.07,76.15c-5.68,0-8.01-4.97-8.01-10.51c0-5.62,2.33-10.58,8.01-10.58
		c5.68,0,8.01,4.97,8.01,10.58C100.07,71.18,97.75,76.15,92.07,76.15z"/>
	<polygon class="st1" points="154.21,46.6 141.03,46.6 130.99,62.84 130.86,62.84 130.86,29.63 118.81,29.63 118.81,85.23 
		130.86,85.23 130.86,66.1 130.99,66.1 140.63,85.23 155.22,85.23 142.1,64.32 	"/>
	<path class="st1" d="M175.93,45.98c-11.16,0-19.21,7.2-19.21,19.59c0,12.38,9.02,19.66,20.87,19.66c4.61,0,9.16-0.72,13.15-2.38
		v-9.14c-3.72,2.09-7.57,2.88-10.95,2.88c-6.06,0-9.85-2.02-10.54-7.2h24.79v-2.38C194.04,55.85,189.22,45.98,175.93,45.98z
		 M169.11,62.04c0.28-4.32,2.41-7.85,6.89-7.85c4.96,0,6.89,3.53,6.89,7.85H169.11z"/>
	<polygon class="st1" points="187.34,32.45 183.72,24.77 163.73,35.27 166.95,42.16 	"/>
	<path class="st1" d="M246.7,45.98c-4.87,0-9.41,2.16-12.17,7.2c-1.84-4.9-5.86-7.2-10.73-7.2c-5.4,0-10.13,2.38-12.5,7.78h-0.13
		v-6.91h-10.79v37.52h11.84V68.52c0-8.06,2.5-11.74,6.71-11.74c3.36,0,4.74,3.17,4.74,7.42v20.16h11.84V68.52
		c0-8.06,2.5-11.74,6.71-11.74c3.36,0,4.74,3.17,4.74,7.42v20.16h11.84V62.26C258.81,52.1,256.57,45.98,246.7,45.98z"/>
	<path class="st1" d="M285.34,45.98c-11.99,0-21.11,7.2-21.11,19.66c0,12.39,9.13,19.59,21.11,19.59s21.11-7.2,21.11-19.59
		C306.45,53.18,297.32,45.98,285.34,45.98z M285.34,76.15c-5.78,0-8.15-4.97-8.15-10.51c0-5.62,2.37-10.58,8.15-10.58
		s8.15,4.97,8.15,10.58C293.49,71.18,291.12,76.15,285.34,76.15z"/>
	<path class="st1" d="M336.04,44.98c-5.7,0-10.7,2.44-13.2,7.98h-0.14v-7.09h-11.4v38.5h12.51V68.11c0-8.28,2.64-12.04,7.78-12.04
		c3.41,0,5.77,2.44,5.77,9.68v18.62h12.51V60.35C349.87,52.37,345.91,44.98,336.04,44.98z"/>
</g>
<g>
	<path class="st2" d="M429.63,45.33h-49.18c-3.31,0-6,2.69-6,6v27c0,3.31,2.69,6,6,6s6-2.69,6-6v-21h12.59v21c0,3.31,2.69,6,6,6
		s6-2.69,6-6v-21h12.59v21c0,3.31,2.69,6,6,6s6-2.69,6-6v-27C435.63,48.02,432.94,45.33,429.63,45.33z"/>
	<path class="st2" d="M452.92,61.92c-3.31,0-6,2.69-6,6v10.41c0,3.31,2.69,6,6,6s6-2.69,6-6V67.92
		C458.92,64.61,456.24,61.92,452.92,61.92z"/>
	<circle class="st2" cx="452.91" cy="51.33" r="5.99"/>
	<path class="st2" d="M524.94,61.92c-3.31,0-6,2.69-6,6v10.41c0,3.31,2.69,6,6,6s6-2.69,6-6V67.92
		C530.94,64.61,528.25,61.92,524.94,61.92z"/>
	<circle class="st2" cx="524.92" cy="51.33" r="5.99"/>
	<path class="st2" d="M501.22,45.33h-24.59c-3.31,0-6,2.69-6,6v27c0,3.31,2.69,6,6,6s6-2.69,6-6v-21h12.59v21c0,3.31,2.69,6,6,6
		s6-2.69,6-6v-27C507.22,48.02,504.53,45.33,501.22,45.33z"/>
</g>
</svg>
