<svg xmlns="http://www.w3.org/2000/svg" viewBox="0 0 256 64" style="enable-background:new 0 0 256 64" xml:space="preserve">
  <path d="M66.8 13.6a18.3 18.3 0 1 0 0 36.6 18.3 18.3 0 0 0 0-36.6zm0 30a11.7 11.7 0 1 1 0-23.4 11.7 11.7 0 0 1 0 23.5zM186.3 13.6a18.3 18.3 0 1 0 0 36.6 18.3 18.3 0 0 0 0-36.6zm0 30a11.7 11.7 0 1 1 0-23.4 11.7 11.7 0 0 1 0 23.5z"/>
  <path style="fill:#3acfa3" d="m186.3 26.3-18.3 29h36.6z"/>
  <path d="M21.5 49.4V13.6h8c5 0 7.3.9 9.6 2.6s3.5 4.3 3.5 7.8c0 3.3-1.1 6-3.4 7.8a11.2 11.2 0 0 1-8.2 2.8h-2v14.8h-7.5zM29 29h.9c1.9 0 3.3-.4 4.3-1.3s1.4-2 1.4-3.7c0-1.7-.5-3-1.4-3.8S32 19.1 30 19.1H29v10zM95.8 49.4V20.2h-7.4v-6.6h22.3v6.6h-7.4v29.2h-7.5zM111.9 49.4 122 13.6h9.2l9.7 35.8h-8l-1.5-6.3H121l-1.3 6.3h-8zm10.8-11.9h7.4L126.5 21l-3.8 16.5zM149.5 49.4V20.2h-7.4v-6.6h22.3v6.6H157v29.2h-7.5zM211.7 49.4V13.6h8.1c5 0 7.6.8 9.8 2.4 2.3 1.6 3.4 4.2 3.4 7.7 0 8.2-6.6 10-6.6 10l8.1 15.7h-8.2l-7.1-14.8v14.8h-7.5zm7.5-20.3h1c1.9 0 3.3-.4 4.3-1.3s1.4-2 1.4-3.8c0-1.7-.4-3-1.3-3.7s-2.3-1.2-4.3-1.2h-1.1v10z"/>
</svg>
