<?xml version="1.0" encoding="UTF-8"?>
<svg xmlns="http://www.w3.org/2000/svg" xmlns:xlink="http://www.w3.org/1999/xlink" viewBox="0 0 1416 432">
  <defs>
    <style>
      .cls-1{fill:url(#linear-gradient)}
      .cls-2{fill:url(#linear-gradient-6)}
      .cls-3{fill:url(#linear-gradient-5)}
      .cls-10{filter:url(#dropshadow)}
      .cls-4{fill:#fff}
      .cls-5{fill:url(#linear-gradient-2)}
      .cls-6{fill:url(#linear-gradient-7)}
      .cls-7{fill:url(#linear-gradient-3)}
      .cls-11{filter:url(#dropshadow-2)}
      .cls-8{fill:url(#linear-gradient-8)}
      .cls-9{fill:url(#linear-gradient-4)}
    </style>
    <filter id="dropshadow">
      <feGaussianBlur in="SourceAlpha" stdDeviation="4"/>
      <feOffset dx="0" dy="8"/>
      <feComponentTransfer>
        <feFuncA slope="0.2" type="linear"/>
      </feComponentTransfer>
      <feMerge>
        <feMergeNode/>
        <feMergeNode in="SourceGraphic"/>
      </feMerge>
    </filter>
    <filter id="dropshadow-2" data-name="dropshadow">
      <feGaussianBlur in="SourceAlpha" stdDeviation="4"/>
      <feOffset dx="0" dy="8"/>
      <feComponentTransfer>
        <feFuncA slope="0.2" type="linear"/>
      </feComponentTransfer>
      <feMerge>
        <feMergeNode/>
        <feMergeNode in="SourceGraphic"/>
      </feMerge>
    </filter>
    <linearGradient id="linear-gradient" x1="535.54" y1="410.16" x2="536.29" y2="410.16" gradientTransform="translate(-42652.48 -40558.24) rotate(80.99) scale(87.68 -87.72)" gradientUnits="userSpaceOnUse">
      <stop offset="0" stop-color="#eca600"/>
      <stop offset="1" stop-color="#ffdc88"/>
    </linearGradient>
    <linearGradient id="linear-gradient-2" y1="410.48" y2="410.48" gradientTransform="translate(-42764.28 -40540.53) rotate(80.99) scale(87.68 -87.72)" xlink:href="#linear-gradient"/>
    <linearGradient id="linear-gradient-3" x1="535.54" y1="410.1" x2="536.29" y2="410.1" gradientTransform="translate(-42630.87 -40561.66) rotate(80.99) scale(87.68 -87.72)" xlink:href="#linear-gradient"/>
    <linearGradient id="linear-gradient-4" y1="409.77" y2="409.77" gradientTransform="translate(-42517.01 -40579.69) rotate(80.99) scale(87.68 -87.72)" xlink:href="#linear-gradient"/>
    <linearGradient id="linear-gradient-5" x1="212.63" y1="63.11" x2="288.6" y2="367.8" gradientUnits="userSpaceOnUse">
      <stop offset=".64" stop-color="#ffc53e"/>
      <stop offset="1" stop-color="#ea9c2a"/>
    </linearGradient>
    <linearGradient id="linear-gradient-6" x1="115.43" y1="83.71" x2="191.9" y2="390.44" xlink:href="#linear-gradient-5"/>
    <linearGradient id="linear-gradient-7" x1="207.78" y1="63.81" x2="283.75" y2="368.5" xlink:href="#linear-gradient-5"/>
    <linearGradient id="linear-gradient-8" x1="305.99" y1="40.76" x2="382.47" y2="347.5" xlink:href="#linear-gradient-5"/>
  </defs>
  <g class="cls-10">
    <path class="cls-4" d="M613.63,155.46c0,15.62-2.42,29.3-7.27,41.07-6.63,15.87-16.59,23.8-29.85,23.8h-47.84v-18.37h30.23c8.42,0,14.8-6.02,19.14-18.06,3.06-8.71,4.59-18.45,4.59-29.21s-1.53-20.24-4.59-29.21c-4.35-12.3-10.72-18.44-19.14-18.44h-43.25v200.95h-33.3V88.67h94.16c13.01,0,22.96,8.32,29.85,24.95,4.85,12.54,7.27,26.48,7.27,41.84Z"/>
    <path class="cls-4" d="M765.58,155.46c0,15.62-2.42,29.3-7.27,41.07-6.63,15.87-16.59,23.8-29.85,23.8h-47.84v-18.37h30.23c8.42,0,14.8-6.02,19.14-18.06,3.06-8.71,4.59-18.45,4.59-29.21s-1.53-20.24-4.59-29.21c-4.35-12.3-10.72-18.44-19.14-18.44h-43.25v200.95h-33.3V88.67h94.16c13.01,0,22.96,8.32,29.85,24.95,4.84,12.54,7.27,26.48,7.27,41.84Z"/>
    <path class="cls-4" d="M909.49,242.15c0,15.06-2.68,28.84-8.04,41.34-7.15,16.33-17.35,24.5-30.62,24.5h-79.99v-18.37h62.39c8.67,0,15.31-5.23,19.9-15.69,3.57-8.16,5.36-17.22,5.36-27.17,0-14.03-2.43-23.98-7.27-29.86-4.09-4.84-10.72-7.52-19.9-8.04,1.02,0-9.18,0-30.62,0-13.01,0-22.84-7.04-29.47-21.12-5.36-10.75-8.04-23.42-8.04-38.01s2.68-27.27,8.04-38.78c6.89-14.84,16.71-22.27,29.47-22.27h72.34v18.37h-54.74c-8.17,0-14.42,4.49-18.76,13.46-3.32,7.18-4.98,15.39-4.98,24.62s1.66,17.32,4.98,24.24c4.33,8.98,10.59,13.46,18.76,13.46h35.21c12.5,0,22.06,7.15,28.7,21.43,4.85,10.71,7.28,23.34,7.28,37.89Z"/>
    <path class="cls-4" d="M1052.26,242.15c0,15.06-2.68,28.84-8.04,41.34-7.15,16.33-17.35,24.5-30.62,24.5h-80v-18.37h62.39c8.67,0,15.31-5.23,19.9-15.69,3.57-8.16,5.36-17.22,5.36-27.17,0-14.03-2.43-23.98-7.27-29.86-4.09-4.84-10.72-7.52-19.9-8.04,1.02,0-9.18,0-30.62,0-13.01,0-22.84-7.04-29.47-21.12-5.36-10.75-8.04-23.42-8.04-38.01s2.68-27.27,8.04-38.78c6.89-14.84,16.71-22.27,29.47-22.27h72.34v18.37h-54.73c-8.17,0-14.42,4.49-18.76,13.46-3.32,7.18-4.98,15.39-4.98,24.62s1.66,17.32,4.98,24.24c4.33,8.98,10.59,13.46,18.76,13.46h35.21c12.5,0,22.06,7.15,28.7,21.43,4.85,10.71,7.28,23.34,7.28,37.89Z"/>
    <path class="cls-4" d="M1203.05,155.46c0,15.62-2.42,29.3-7.27,41.07-6.63,15.87-16.59,23.8-29.85,23.8h-47.84v-18.37h30.23c8.42,0,14.8-6.02,19.14-18.06,3.06-8.71,4.59-18.45,4.59-29.21s-1.53-20.24-4.59-29.21c-4.35-12.3-10.72-18.44-19.14-18.44h-43.25v200.95h-33.3V88.67h94.16c13.01,0,22.96,8.32,29.85,24.95,4.85,12.54,7.27,26.48,7.27,41.84Z"/>
    <path class="cls-4" d="M1355,155.46c0,15.62-2.42,29.3-7.27,41.07-6.63,15.87-16.59,23.8-29.85,23.8h-47.84v-18.37h30.23c8.42,0,14.8-6.02,19.14-18.06,3.06-8.71,4.59-18.45,4.59-29.21s-1.53-20.24-4.59-29.21c-4.35-12.3-10.72-18.44-19.14-18.44h-43.25v200.95h-33.3V88.67h94.16c13.01,0,22.96,8.32,29.85,24.95,4.85,12.54,7.27,26.48,7.27,41.84Z"/>
  </g>
  <g class="cls-11">
    <g>
      <polygon class="cls-1" points="271.64 38.44 293.61 134.79 246.83 209.92 172.31 162.42 150.34 66.07 271.64 38.44"/>
      <polygon class="cls-5" points="67.5 197.19 163.89 175.23 239.06 221.98 191.54 296.47 95.14 318.43 67.5 197.19"/>
      <polygon class="cls-7" points="226.83 401.56 204.86 305.21 251.64 230.08 326.16 277.58 348.13 373.93 226.83 401.56"/>
      <polygon class="cls-9" points="432.5 242.46 336.11 264.42 260.94 217.67 308.46 143.18 404.86 121.22 432.5 242.46"/>
      <polygon class="cls-3" points="262.11 54.54 278.93 128.32 241.54 186.63 182.73 150.23 165.91 76.46 262.11 54.54"/>
      <polygon class="cls-2" points="83.61 206.71 157.42 189.9 215.76 227.27 179.34 286.06 105.53 302.87 83.61 206.71"/>
      <polygon class="cls-6" points="236.36 385.46 219.54 311.68 256.93 253.37 315.74 289.77 332.56 363.54 236.36 385.46"/>
      <polygon class="cls-8" points="416.39 232.94 342.58 249.75 284.24 212.38 320.66 153.59 394.47 136.78 416.39 232.94"/>
    </g>
    <polygon class="cls-4" points="183.79 62.66 180.97 81.03 198.71 86.55 180.37 89.55 180.61 108.13 172.09 91.61 154.49 97.58 167.56 84.37 156.45 69.48 173.05 77.83 183.79 62.66"/>
    <polygon class="cls-4" points="301.24 176.47 298.42 194.84 316.17 200.36 297.83 203.36 298.06 221.94 289.54 205.42 271.94 211.39 285.02 198.18 273.91 183.29 290.51 191.64 301.24 176.47"/>
    <polygon class="cls-4" points="249.41 263.28 246.59 281.65 264.34 287.17 246 290.17 246.23 308.75 237.71 292.23 220.11 298.2 233.19 284.99 222.08 270.1 238.68 278.45 249.41 263.28"/>
    <polygon class="cls-4" points="101.26 208.5 98.45 226.87 116.19 232.39 97.85 235.39 98.08 253.97 89.57 237.45 71.97 243.42 85.04 230.21 73.93 215.32 90.53 223.67 101.26 208.5"/>
  </g>
</svg>