<?xml version="1.0" encoding="utf-8"?>
<!-- Generator: Adobe Illustrator 24.2.1, SVG Export Plug-In . SVG Version: 6.00 Build 0)  -->
<svg version="1.1" xmlns="http://www.w3.org/2000/svg" xmlns:xlink="http://www.w3.org/1999/xlink" x="0px" y="0px"
	 viewBox="0 0 240 50" style="enable-background:new 0 0 240 50;" xml:space="preserve">
<style type="text/css">
	.st0{fill:#D83D96;}
</style>
<g id="Layer_2">
</g>
<g id="Layer_1">
	<path class="st0" d="M20.38,3.49h10.34c9.92,0,14.58,3.53,14.58,11.23c0,6.91-4.8,11.03-12.9,11.03h-3.35v11.96h-8.66V3.49z
		 M29.05,19.28h2.24c2.98,0,5.36-1.13,5.36-4.71c0-3.48-2.38-4.61-5.36-4.61h-2.24V19.28z"/>
	<path class="st0" d="M62.88,19.24c-0.92-0.29-1.85-0.29-2.82-0.29c-3.88,0-6.05,2.99-6.05,7.98v10.78h-8.31V12.19h7.57v4.7h0.09
		c1.43-3.23,3.51-5.29,7.11-5.29c0.97,0,1.98,0.15,2.82,0.29L62.88,19.24z"/>
	<path class="st0" d="M62.37,24.65c0-8.3,5.68-13.1,13.14-13.1s13.14,4.8,13.14,13.1c0,8.25-5.68,13.05-13.14,13.05
		S62.37,32.91,62.37,24.65z M80.58,24.65c0-3.74-1.47-7.06-5.07-7.06c-3.6,0-5.07,3.31-5.07,7.06c0,3.7,1.47,7.01,5.07,7.01
		C79.11,31.66,80.58,28.35,80.58,24.65z"/>
	<path class="st0" d="M88.7,28.69c2.24,1.27,5.36,2.25,8.94,2.25c2.75,0,5.36-0.59,5.36-3.33c0-6.37-15.37-2.35-15.37-14.8
		c0-8.24,7.64-10.49,14.16-10.49c3.12,0,6.19,0.49,8.38,1.27l-0.56,7.06c-2.24-1.08-4.75-1.57-7.22-1.57c-2.19,0-5.82,0.2-5.82,3.19
		c0,5.54,15.37,1.81,15.37,14.17c0,8.87-7.08,11.27-14.3,11.27c-3.03,0-6.8-0.49-9.69-1.47L88.7,28.69z"/>
	<path class="st0" d="M110.21,40.15c1.12,0.38,2.14,0.53,3.31,0.53c2.05,0,3.63-1.25,4.24-3.46l-9.83-25.64h9.04l5.22,16.35h0.09
		l4.98-16.35h8.38l-8.9,23.33c-2.38,6.3-4.19,12.41-11.88,12.41c-1.77,0-3.49-0.19-5.22-0.58L110.21,40.15z"/>
	<path class="st0" d="M134.49,30.21c1.92,0.87,4.75,1.73,7.72,1.73c1.69,0,3.33-0.29,3.33-2.02c0-4.23-11.69-1.25-11.69-10.29
		c0-5.77,5.39-8.12,10.14-8.12c2.83,0,5.71,0.34,8.36,1.44l-0.64,6.01c-1.73-1.11-4.34-1.68-6.39-1.68c-1.78,0-3.79,0.34-3.79,1.73
		c0,3.89,12.24,0.82,12.24,10.33c0,6.68-5.71,8.36-11.1,8.36c-3.7,0-6.21-0.38-8.63-1.2L134.49,30.21z"/>
	<path class="st0" d="M152.82,11.58h4.94V5.85l8.24-2.7v8.43h5.87v6.18H166v9.41c0,3.09,0.7,4.66,3.35,4.66
		c0.84,0,1.72-0.2,2.56-0.34l0.28,5.74c-1.58,0.2-3.17,0.49-5.26,0.49c-7.5,0-9.32-3.48-9.32-9.56V17.76h-4.8V11.58z"/>
	<path class="st0" d="M178.85,27.16c0.45,3.45,2.91,4.79,6.84,4.79c2.19,0,4.69-0.53,7.11-1.92v6.09c-2.59,1.1-5.54,1.58-8.54,1.58
		c-7.69,0-13.55-4.84-13.55-13.09s5.23-13.04,12.47-13.04c8.63,0,11.76,6.57,11.76,14v1.58H178.85z M187.7,22.27
		c0-2.88-1.25-5.23-4.47-5.23c-2.91,0-4.29,2.35-4.47,5.23H187.7z"/>
	<path class="st0" d="M195.5,12.12h7.44v4.71h0.09c1.63-3.68,4.9-5.3,8.61-5.3c3.36,0,6.12,1.57,7.39,4.91
		c1.91-3.44,5.03-4.91,8.39-4.91c6.8,0,8.34,4.17,8.34,11.1v15.08h-8.16V23.96c0-2.9-0.95-5.06-3.26-5.06c-2.9,0-4.63,2.5-4.63,8
		v10.8h-8.16V23.96c0-2.9-0.95-5.06-3.26-5.06c-2.9,0-4.62,2.5-4.62,8v10.8h-8.16V12.12z"/>
	<g>
		<path class="st0" d="M5.49,30.2c0.24,0,0.43,0.01,0.55,0.02c0.12,0.02,0.27,0.06,0.44,0.14l9.43,4.19v2.64L6.2,32.74v4.97H3.8
			v-6.02c0-0.45,0.16-0.81,0.49-1.08C4.63,30.34,5.02,30.2,5.49,30.2z"/>
		<path class="st0" d="M12.3,21.54c0.99,0,1.85,0.31,2.56,0.92c0.76,0.66,1.14,1.5,1.14,2.52c0,1.13-0.36,2.05-1.09,2.76
			c-0.73,0.7-1.62,1.06-2.67,1.06c-0.5,0-0.96-0.11-1.39-0.34c-0.43-0.23-0.8-0.53-1.1-0.9c-0.41,0.34-0.82,0.6-1.25,0.78
			c-0.42,0.18-0.87,0.27-1.33,0.27c-0.87,0-1.67-0.34-2.39-1.03c-0.73-0.69-1.09-1.5-1.09-2.43c0-0.91,0.37-1.72,1.11-2.43
			c0.74-0.71,1.58-1.06,2.52-1.06c0.53,0,1.03,0.1,1.48,0.31c0.36,0.16,0.67,0.39,0.92,0.66c0.35-0.36,0.74-0.64,1.18-0.82
			C11.34,21.63,11.81,21.54,12.3,21.54z M12.23,23.85c-0.3,0-0.58,0.13-0.84,0.39c-0.26,0.26-0.39,0.53-0.39,0.82
			c0,0.35,0.12,0.67,0.36,0.94c0.24,0.28,0.53,0.41,0.86,0.41c0.4,0,0.74-0.12,1.03-0.37c0.28-0.25,0.42-0.56,0.42-0.93
			c0-0.35-0.15-0.65-0.45-0.89C12.93,23.97,12.6,23.85,12.23,23.85z M7.46,23.92c-0.34,0-0.65,0.12-0.93,0.35
			c-0.28,0.24-0.42,0.53-0.42,0.87c0,0.35,0.13,0.64,0.38,0.85c0.26,0.21,0.55,0.32,0.89,0.32c0.33,0,0.62-0.1,0.89-0.31
			c0.27-0.21,0.4-0.48,0.4-0.82c0-0.34-0.12-0.64-0.36-0.88C8.08,24.04,7.79,23.92,7.46,23.92z"/>
		<path class="st0" d="M12,12.35c1.12,0,2.08,0.4,2.87,1.2c0.79,0.8,1.19,1.71,1.19,2.73s-0.36,1.91-1.09,2.67
			c-0.8,0.82-1.82,1.24-3.06,1.24H7.66c-1.12,0-2.07-0.39-2.83-1.17c-0.76-0.78-1.15-1.72-1.15-2.8c0-1.07,0.41-1.98,1.22-2.73
			c0.82-0.75,1.79-1.13,2.93-1.13H12z M12,14.74H7.69c-0.39,0-0.74,0.15-1.05,0.44c-0.31,0.29-0.46,0.65-0.46,1.06
			c0,0.46,0.18,0.85,0.54,1.15c0.36,0.31,0.79,0.46,1.29,0.46h3.96c0.44,0,0.82-0.16,1.15-0.48c0.32-0.32,0.49-0.68,0.49-1.07
			c0-0.43-0.15-0.8-0.45-1.11C12.84,14.9,12.46,14.74,12,14.74z"/>
		<path class="st0" d="M12,3.49c1.12,0,2.08,0.4,2.87,1.2c0.79,0.8,1.19,1.71,1.19,2.73s-0.36,1.91-1.09,2.67
			c-0.8,0.82-1.82,1.24-3.06,1.24H7.66c-1.12,0-2.07-0.39-2.83-1.17c-0.76-0.78-1.15-1.72-1.15-2.8c0-1.07,0.41-1.98,1.22-2.73
			C5.72,3.87,6.7,3.49,7.83,3.49H12z M12,5.88H7.69c-0.39,0-0.74,0.15-1.05,0.44C6.33,6.61,6.18,6.97,6.18,7.39
			c0,0.46,0.18,0.85,0.54,1.15C7.08,8.85,7.51,9,8,9h3.96c0.44,0,0.82-0.16,1.15-0.48c0.32-0.32,0.49-0.68,0.49-1.07
			c0-0.43-0.15-0.8-0.45-1.11C12.84,6.04,12.46,5.88,12,5.88z"/>
	</g>
</g>
</svg>
