<?xml version="1.0" encoding="utf-8"?>
<!-- Generator: Adobe Illustrator 25.0.0, SVG Export Plug-In . SVG Version: 6.00 Build 0)  -->
<svg version="1.1"
	 id="Layer_1" xmlns:cc="http://creativecommons.org/ns#" xmlns:dc="http://purl.org/dc/elements/1.1/" xmlns:rdf="http://www.w3.org/1999/02/22-rdf-syntax-ns#" xmlns:svg="http://www.w3.org/2000/svg"
	 xmlns="http://www.w3.org/2000/svg" xmlns:xlink="http://www.w3.org/1999/xlink" x="0px" y="0px" viewBox="0 0 496.24 155.29"
	 style="enable-background:new 0 0 496.24 155.29;" xml:space="preserve">
<style type="text/css">
	.st0{fill:url(#path6207_1_);stroke:#000000;stroke-width:0.4;stroke-linecap:round;stroke-linejoin:round;}
	.st1{stroke:#000000;stroke-width:0.3;stroke-linecap:round;stroke-linejoin:round;}
	.st2{fill:url(#path6202_1_);stroke:#000000;stroke-width:0.4;stroke-linecap:round;stroke-linejoin:round;}
	.st3{fill:url(#path6252_1_);stroke:#000000;stroke-width:0.4;stroke-linecap:round;stroke-linejoin:round;}
	.st4{fill:url(#path6256_1_);stroke:#000000;stroke-width:0.4;stroke-linecap:round;stroke-linejoin:round;}
	.st5{fill:#898989;}
</style>
<g id="g6391" transform="translate(14.125244,36.783706)">
	<g id="g6240" transform="translate(-662.69325,86.796992)">
		
			<linearGradient id="path6207_1_" gradientUnits="userSpaceOnUse" x1="1361.0627" y1="27.2649" x2="1361.0627" y2="71.725" gradientTransform="matrix(1 0 0 -1 -648.568 41.1252)">
			<stop  offset="0" style="stop-color:#279E64"/>
			<stop  offset="1" style="stop-color:#146DAF"/>
		</linearGradient>
		<path id="path6207" class="st0" d="M683.43-34.22l37.66,53.88h20.47L703.9-34.22H683.43z"/>
		<path id="path6218" class="st1" d="M702.04-34.22l37.66,53.88h1.86L703.9-34.22H702.04z"/>
		
			<linearGradient id="path6202_1_" gradientUnits="userSpaceOnUse" x1="1427.0627" y1="24.0277" x2="1427.0627" y2="152.0228" gradientTransform="matrix(1 0 0 -1 -648.568 41.1252)">
			<stop  offset="0" style="stop-color:#E5E975"/>
			<stop  offset="1" style="stop-color:#E13E28"/>
		</linearGradient>
		<path id="path6202" class="st2" d="M815.37-115.1L721.15,19.65h20.47l94.22-134.75H815.37z"/>
		<path id="path6216" class="st1" d="M833.98-115.1L739.76,19.65h1.86l94.22-134.75H833.98z"/>
	</g>
	<g id="g6250" transform="translate(-686.39837,86.796992)">
		
			<linearGradient id="path6252_1_" gradientUnits="userSpaceOnUse" x1="1384.7679" y1="27.2649" x2="1384.7679" y2="71.725" gradientTransform="matrix(1 0 0 -1 -672.2731 41.1252)">
			<stop  offset="0" style="stop-color:#279E64"/>
			<stop  offset="1" style="stop-color:#146DAF"/>
		</linearGradient>
		<path id="path6252" class="st3" d="M683.43-34.22l37.66,53.88h20.47L703.9-34.22H683.43z"/>
		<path id="path6254" class="st1" d="M702.04-34.22l37.66,53.88h1.86L703.9-34.22H702.04z"/>
		
			<linearGradient id="path6256_1_" gradientUnits="userSpaceOnUse" x1="1450.7679" y1="24.0277" x2="1450.7679" y2="152.0228" gradientTransform="matrix(1 0 0 -1 -672.2731 41.1252)">
			<stop  offset="0" style="stop-color:#E5E975"/>
			<stop  offset="1" style="stop-color:#E13E28"/>
		</linearGradient>
		<path id="path6256" class="st4" d="M815.37-115.1L721.15,19.65h20.47l94.22-134.75H815.37z"/>
		<path id="path6258" class="st1" d="M833.98-115.1L739.76,19.65h1.86l94.22-134.75H833.98z"/>
	</g>
</g>
<g>
	<path class="st5" d="M157.98,137.65l25.85-69.26h-6.45c-1.41,0-5.52-8-5.52-8h56.72c0,0,11.85,1.21,16.65,5.12
		c4.8,3.9,7.35,14.74,4.27,23.18c-3.06,8.41-8.41,14.55-16.04,18.44c-7.63,3.88-12.85,5.82-26.31,5.82h-16.01l-8.26,22.71l4.03,0.81
		c0,0,4.37,7.18,3.88,8.51l0,0c-0.29,0.8-1.06,1.34-1.91,1.34h-39.87c-1.41,0-5.41-7.75-5.41-7.75L157.98,137.65z M194.64,103.35
		c0,0,19.13,0.7,22.08-7.41c2.98-8.18,6.57-20.89,6.15-23.6c-0.43-2.72-2.77-4.07-7.03-4.07h-8.44L194.64,103.35z"/>
	<path d="M153.89,134.46l25.56-70.24c0.43-1.17-0.44-2.42-1.69-2.42h-3.96c-1.41,0-2.4-1.4-1.91-2.73v0
		c0.29-0.8,1.06-1.34,1.91-1.34h14.39h33.09c13.46,0,17.26,1.95,22.06,5.85c4.8,3.9,5.66,10.08,2.59,18.52
		c-3.06,8.41-8.41,14.55-16.04,18.44c-7.63,3.88-12.85,5.82-26.31,5.82h-16.01l-9.77,26.85c-0.43,1.18,0.45,2.44,1.71,2.44h5.81
		c1.41,0,2.4,1.4,1.91,2.73l0,0c-0.29,0.8-1.06,1.34-1.91,1.34h-15.35h-24.52c-1.41,0-2.4-1.4-1.91-2.73v0
		c0.29-0.8,1.06-1.34,1.91-1.34h6.75C152.94,135.65,153.63,135.17,153.89,134.46z M189,102.4h3.11c4.26,0,12.92-1.36,15.32-4.07
		c2.4-2.72,5.08-8.13,8.03-16.23c2.98-8.18,4.25-13.63,3.83-16.34c-0.43-2.72-2.77-4.07-7.03-4.07h-8.44L189,102.4z"/>
</g>
<g>
	<path class="st5" d="M257.96,69.77c0,0-1.7-1.2-4.41-1.35c-0.76-0.04-4.1-6.73-4.1-6.73l25.06-3.73l3.89,7.86
		c-0.45,1.22-2.22,2.55-3.63,2.71c-2.35,0.27-4.35,0.91-6,1.92c-2.25,1.38-3.88,3.44-4.88,6.19l-16.55,45.47
		c-1.09,3-2.58,7.91-1.74,10.44c0.75,2.26,3.92,5.45,3.92,5.45l22.26-0.94l8.98-14.96l17.94-53.72h-6.4c-0.86,0-4.58-7.14-4.58-7.14
		l25.18-0.85l17.84-2.66c0,0,3.76,7.12,3.47,7.92l0,0c-0.55,1.5-2.3,2.73-3.9,2.73h-5.74c-0.48,0-0.9,0.3-1.06,0.74l-18.21,50.04
		c-3.64,9.99-9.17,17.29-16.59,21.88c-7.42,4.6-12.05,6.9-24.53,6.9c-12.93,0-16.03-2.21-19.95-6.62
		c-3.92-4.41-8.71-10.51-4.94-20.88L257.96,69.77z"/>
	<path d="M255.9,70.06c1-2.75,0.9-4.82-0.29-6.19c-1.04-1.2-2.92-1.88-5.63-2.03c-0.76-0.04-1.05-0.58-0.78-1.33l0.02-0.04
		c0.48-1.33,1.53-2.73,3.9-2.73c4.8,0,4.63,0.56,8.86,0.56c4.23,0,5.97-0.56,11.97-0.56c1.04,0,0.88,1.51,0.88,1.51
		c-0.45,1.22-2.22,2.55-3.63,2.71c-2.35,0.27-4.35,0.91-6,1.92c-2.25,1.38-3.88,3.44-4.88,6.19l-16.55,45.47
		c-2.18,5.99-2.27,10.75-0.25,14.28c2.01,3.52,5.85,5.29,11.51,5.29c5.32,0,9.71-1.54,13.18-4.61c3.47-3.07,6.47-8.06,8.98-14.96
		l19-52.2c0.27-0.74-0.28-1.52-1.06-1.52h-6.4c-0.86,0-1.23-0.54-0.94-1.34v0c0.48-1.33,1.33-2.73,3.9-2.73
		c10.25,0,9.62,0.86,17.11,0.86c7.49,0,12.02-0.86,20.89-0.86c0.98,0,1.23,0.54,0.94,1.34l0,0c-0.55,1.5-2.3,2.73-3.9,2.73h-5.74
		c-0.48,0-0.9,0.3-1.06,0.74l-18.21,50.04c-3.64,9.99-9.17,17.29-16.59,21.88c-7.42,4.6-12.05,6.9-24.53,6.9
		c-12.93,0-16.03-2.21-19.95-6.62c-3.92-4.41-3.99-11.8-0.22-22.17L255.9,70.06z"/>
</g>
<g>
	<path class="st5" d="M304.14,135.41l43.61-60.69l16.27-10.41l6.73-3.92c0,0,4.14,6.14,4.15,8.87l0.18,66.39l2.62,1.41
		c0,0,3.94,6.58,3.46,7.91l0,0c-0.29,0.8-0.36,1.34-1.91,1.34c-10.31,0-9.19-1.14-18.3-1.14s-8.4,1.14-19.61,1.14
		c-0.8,0-1.4-0.35-1.74-0.87c-0.34-0.52-3.89-6.03-3.89-7.83s10.32,0.08,10.32,0.08c1.09,0,2.33-1.65,2.35-2.74l1.4-14.82H325.4
		l-11.31,15.38l1.74,1.56c0,0,3.03,5.48,3.34,5.98s0.41,1.14,0.19,1.76c0,0-0.63,1.5-1.97,1.5c-4.51,0-3.69-0.61-9.03-0.61
		c-5.35,0-3.88,0.61-9.21,0.61c-0.67,0-1.33-0.22-1.66-0.92c-0.14-0.29-3.39-6.29-3.39-6.29L304.14,135.41z M332.06,110.99
		l17.76,0.38l0.59-25.73h0.08L332.06,110.99z"/>
	<path d="M307,127.4l49.43-67.63c0.93-1.28,2.42-2.03,4-2.03h5.92c2.73,0,4.95,2.21,4.96,4.95l0.18,71.02
		c0,1.08,0.88,1.95,1.96,1.95h2.21c1.41,0,2.4,1.4,1.91,2.73l0,0c-0.29,0.8-0.36,1.34-1.91,1.34c-10.31,0-9.19-1.14-18.3-1.14
		c-9.1,0-8.4,1.14-19.61,1.14c-1.6,0-2.4-1.4-1.91-2.73l0,0c0.29-0.8,1.06-1.34,1.91-1.34h6.06c1.09,0,1.98-0.87,2-1.96l0.39-20.15
		h-24.37l-10.07,13.85c-2.06,2.75-2.67,4.82-1.83,6.19c0.61,1.01,2.01,1.65,4.17,1.92c1.31,0.16,2.14,1.48,1.69,2.71
		c0,0-0.63,1.5-1.97,1.5c-4.51,0-3.69-0.61-9.03-0.61s-3.88,0.61-9.21,0.61c-0.96,0-1.88-0.45-1.88-2.08c0-1.31,0.89-1.98,1.64-2.06
		c1.84-0.2,3.64-0.88,5.4-2.03C302.85,132.2,304.94,130.15,307,127.4z M325.04,109.13h21.2l0.59-30.08h0.08L325.04,109.13z"/>
</g>
<g>
	<path class="st5" d="M379.36,137.77l14.99-1.06l25.49-68.32h-6.01c-1.41,0-6-8-6-8h36.98l32.32-0.94c0,0,4.38,7.52,3.83,9.03
		l-3.84,10.54l-4.85,13.33c-0.3,0.82-1.08,1.37-1.95,1.37l0,0c-1.2,0-5.58-8.1-5.58-8.1s2.83-8.35,0.52-11.43
		c-2.84-3.79-8.24-5.68-16.2-5.68h-4.1c-1,0-1.9,0.63-2.24,1.57l-9.18,25.21l9.3,3.65L451.93,81c0,0,4.13,6.91,3.72,8.04
		l-5.78,15.87l-6.17,16.94c-0.28,0.76-1,1.26-1.81,1.26l0,0c-1.12,0-5.41-7.94-5.41-7.94l2.06-4.65c0,0-4.13-3.65-9.25-3.65
		l-10.43,28.65c0,0,2.36,2.46,4.01,2.46l10.69-1.64c7.54,0,4.39,3.77,9.93-0.23c5.38-3.87,16.45-26.42,16.45-26.42l3.36,6.29
		c0,0,0.67,1.25,0.39,1.96l-5.03,12.91l-5.3,13.47c-0.47,1.19-1.61,1.97-2.89,1.97h-35.55h-29.98
		C383.56,146.31,379.36,137.77,379.36,137.77z"/>
	<path d="M379.48,136.99L379.48,136.99c0.29-0.8,1.06-1.34,1.91-1.34h5.67c1.41,0,2.67-0.88,3.16-2.21l24.43-67.13
		c0.8-2.19-0.82-4.51-3.16-4.51h-1.74c-1.41,0-2.4-1.4-1.91-2.73v0c0.29-0.8,1.06-1.34,1.91-1.34h31.47h33.23
		c2.15,0,3.65,2.14,2.92,4.16l-3.84,10.54l-4.85,13.33c-0.3,0.82-1.08,1.37-1.95,1.37l0,0c-1.2,0-2.16-1.02-2.07-2.22
		c0.62-8.07-0.38-13.84-2.99-17.31c-2.84-3.79-8.24-5.68-16.2-5.68h-4.1c-1,0-1.9,0.63-2.24,1.57l-11.8,32.42h0.62
		c4.3,0,8.07-1.19,11.31-3.56c3.08-2.26,6.32-6.06,9.7-11.39c0.32-0.5,0.88-0.82,1.47-0.82l0,0c1.21,0,2.05,1.2,1.64,2.34
		l-5.78,15.87l-6.17,16.94c-0.28,0.76-1,1.26-1.81,1.26l0,0c-1.12,0-1.99-0.96-1.91-2.07c0.35-4.87-0.12-8.38-1.44-10.52
		c-1.49-2.43-4.36-3.65-8.62-3.65h-0.62l-11.66,32.03c-0.57,1.55,0.59,3.2,2.24,3.2h4c7.54,0,14.08-2,19.63-6
		c5.38-3.87,11.01-10.48,16.91-19.82c0.34-0.54,0.93-0.87,1.57-0.87l0,0c1.3,0,2.2,1.31,1.73,2.53l-5.03,12.91l-5.3,13.47
		c-0.47,1.19-1.61,1.97-2.89,1.97h-35.55h-29.98C379.98,139.72,379,138.32,379.48,136.99z"/>
</g>
</svg>
