<svg xmlns="http://www.w3.org/2000/svg" viewBox="0 0 350 100">
  <defs>
    <style>
      .cls-1{fill:#000}
    </style>
  </defs>
  <path d="M269.2 28.3c-.8-1-1.7-2.4-3.3-3.4-1.7-1-3.8-.8-3.8-.8l-3-2.1s-4-1.4-9.9-1.4-12.9 2.5-16.4 3.6a21.4 21.4 0 0 0-8.4 4.7c-.8 1.3-1.6 2-1.6 5.7s3 7.4 6.2 10.2c3.3 2.8 8.2 5.6 8.2 5.6s-5 5-7 7.4c-2.2 2.4-3.5 4-3.5 6.9s1.4 5.8 3.6 6.6c2.1 1 10.2 1.8 11.3 1.8l8.9-.7c6-.6 9.2-4 9.2-4l1.4-1.5-.1-1.4h1l-.8-2.5-1.2-3s-1-2.3-4-5c-3.1-2.6-9-5.7-9-5.7s3.7-2.7 6-3.9c2.3-1.2 3.3-2.2 3.3-2.2l2.1-.7 2.4-1.7c1-.7 2.3-2 3-3 .6-1.2 1.2-3.2 2.7-4.7 1.5-1.6 3.4-3.8 2.7-4.8Zm-18.4 29c1.4 1 2.8 1.7 2.8 3.6s-1.6 4-3.6 5.4c-2 1.4-5 2.4-8.9 3-3.8.4-4.3 0-6.4 0s-5-1.1-5-4 .6-1.9 1.6-3.7a40 40 0 0 1 9.2-9.6s2 1.8 5 2.6c2.8.7 4 1.5 5.3 2.6Zm8.4-21.8a92.8 92.8 0 0 1-8.6 6.4l-7.2 5h-2.8s-3-3.3-4.7-3.7l-2.9-.8s-1.5-3-3.1-2.9c-1-2.2-1.5-2-.8-3.3.8-1.4.9-3.6 3.4-5 2.6-1.4 7-3.8 10.1-4.7 3-.9 6.2-1.6 8.2-1.6s2 .6 2 .6l1 .8s1.3-.4 2.7-.4 5.6 2.8 5.6 5-1 3-3 4.6Z" class="cls-1"/>
  <path d="m259.3 40.4-.2-1c2.3-.4 7-2.9 7.5-3.8l1-1.3c.9-1 2-2 2-3.4 0-1.7-2.7-2.4-2.7-2.4l.2-1c.2 0 3.5 1 3.5 3.4 0 1.7-1.3 3-2.2 4l-1 1.2c-.7 1.4-5.8 4-8.1 4.3ZM309 60.1c2.2-2.2 4-3.6 5-5.3l3.2-5.5 1-1s.5-5.4-7.9-5.4-14.4 4.7-14.7 4.8c0 0 1 1.3 1.8 1.6s-3.1.8-4 1c-.9 0 .3-2 .3-2s2-4.5 2.6-6.4c.6-1.9 4-9 4-9s3.5-6.3 4.2-8c.8-1.8 1.8-4.8 2.7-6s.2-1.9-.2-1.5c-.3.4-1 0-2.1.6a6.8 6.8 0 0 0-3.3 3.7c-1 2.3-4.5 6.7-5.8 8.8-1.3 2.2-1.4 4.2-1.9 5.3s-2 5.1-3.4 7.1-1.9 3.8-3.3 8.2c-1.4 4.4-3.4 11-3.4 12.5s.8 2.4.8 2.4-2.3 2-2 3.4c.2 1.5 4.4 3.7 6.9 3.7s5.8-1.1 8.6-2.8c1.7-1 4.3-3.4 6.6-5.7l4 3.6c2.4 2.1 4.2 3.3 6 3.3s3.5-2 3.5-2L309 60Zm-8.6 1.4-5.2 4.3s-3 2.4-4.3 2.4-2.5-1.9-2.5-1.9.6-4.2 1.4-6.6c.7-2.4 2-5.8 2-5.8s-.4-1.4-.3-1.9c.1-.5.8-.7.8-.7l1.1.6s.9 2.5 2.2 3.4 5.3 5.4 5.3 5.4l-.5.8Zm4.9-4.7s-3.6-2.9-5-6c0 0 6.3-3.5 9.4-3.5S313 49 313 49l-1.8 2-1.9 1.1-4 4.8ZM106.6 24c1.8 1.4 3.5 3.3 4.5 7s2.7 6.9 2.7 6.9 1 1.9 1.3 3.6 1.6 4 1.6 4l-8.7 9.7A1296 1296 0 0 0 97 68v2.2l2.5 3s2-.8 2.7-2.3 4.8-6.4 8.6-10.4 8-8 8-8l1.2 2.7s.5 3.5 1.3 4.3.8 3 .8 3 1.2 3 2.6 5.2 2.8 5 5.4 5.5 3.4 1 3.4 1 1.3-2 3.2-2.6 3.2-1.5 4.1-1.9 2.2-2.3 3-3 2-.9 2-.9-.7-.6-1.4-1.6-.4-.4-1.7-.5-4.1 2.1-5.8 2.6-2 1.1-4.1 1.1-3.8-1.5-4.3-3.7-4.6-12-4.7-13l-.6-3s1.6-1.2 2.6-2.4 2-2.9 4.7-4.5 8.7-5.2 10.2-5.7.9.8.9.8l-2.4 3.1s.6.3 1.3 0 2.5-1.4 3.4-3.6 1.2-4.4 1.9-4.8 1.1-1.2 0-2.4-2.2-1.2-3.7-1.2-5 1.3-6.7 2.7-6.4 4.5-7.8 6-5.9 5.4-5.9 5.4L116 25.5c-.7-1.8-1.8-4.7-4-5s-9-.5-11.3 0-3.4.7-5 .7l-4.1-.2s-.6 1.4 2.8 1.6 10.7.1 12 1.3ZM38.8 63.7H37c-.9 0-1.4-.3-2 0s-1.3 1.6-1.4 2.5 1.3 1.2 1 2.4-.3.6-1 1.8-2 6.5-2 9.4-.9 6 0 4.3 7-17.7 7-19v-1.4Zm166-14.4h-3.2l-3.4-2-2.6.3s-3.3-1.7-11-1.7-19 5-19 5l-.3 2.7-.2 1-1.8-4c-.3-1.1.8-1.9 1-3.6s3.6-6.3 5.1-8.3c1.5-2.1 1.9-2.9 1.9-2.9s1.7-.4 2.3-1.5a83 83 0 0 1 5.3-6.4s1.9-1 3.8-3.3c2-2.2 3-4 3-4l4.2-3.8s-1.4-.9-5.2.6A60.6 60.6 0 0 0 168 31.3c-5.5 6.2-8.2 12.5-8.2 12.5s-1.7.9-1.7 5c0 2.8 1.7 5.2 3 9 1.4 3.8 4 7.8 6.9 10.4 2.8 2.7 7.4 4.6 9.6 4.6h3.4l1.6 1.5s10.5-3.6 12.5-4.8c1.5-.9 6.6-6.4 6.6-6.4l2.6-1.7.3-1.3s3-1.2 3-3.8-2.7-7-2.7-7Zm-5.5 9.5-1 .3a35 35 0 0 0-4.3 6.5l-1 .2c-.9.2-1.6 1.1-1.6 1.1s-2-.6-4-.6-5.9 3.3-5.9 3.3-2.4.3-5.7-1.6c-3.2-1.8-5.4-4.9-6.8-5.7-2-1.1-2.3-4.1-2.3-4.1l-1.3-2.8h.5l1.2.5s13.3-4.1 18.2-4.1 9 1.3 10.8 2.2c1.9 1 2.8 1.7 3.6 2.3s-.4 2.5-.4 2.5ZM75.8 36.2c-2.2-2.1-3-3.2-6-4.9s-6-1.8-8.3-3.4-2.8-2.5-3.6-3c-.7-.5-1.5-.5-2.6-2s-2.8-2.6-6-2.6-5.6 3-5.6 5c0 1.5.3 3.1.2 4.4-.1 1.6-2.6 7.2-1.9 7.4.8.3 5.7-.1 5.7-.1s.5-3.4 1-5c0-.2 1-2 1.7-2.2s.5-1.7 2.6-1c2.2.6 2 1.5 4.7 2.4l5 1.6s-.2 1.2 1.6 2.2l2.8 1.9c1.2.9 2.3 1.8 2.8 2.5 1 1.2 1.7 1.7 1.7 4s-2.2 5.8-3.2 6.6c-1.2 1-2.8 3.4-5.5 4.8-2.8 1.4-8.6 4.4-10 4.5-1 .1-2.2 1.1-2.5 1.3s-3 .1-4.2-.8c-1.3-.8-2.5-2.2-3.3-1.7l-1.2 1.5c-.3.7-.4 1.5-.2 2.1.4-.5.6-1 1-1.2 0 0 .3-.3.8-.3s7.1 2 8.7 2 5.8-1 8.5-1.5c3.4-.6 6.6-2.4 8-3 1.4-.6 1-1.8 2-2l3-1 1.9-1c1-.7 2-1.4 2.2-2 .5-1.2 1-6.4 1.4-7.1.5-.8.7-2.2.8-3 .1-1-2-3.2-4-5.4Z" class="cls-1"/>
</svg>