<svg xmlns="http://www.w3.org/2000/svg" viewBox="0 0 256 256">
  <defs>
    <linearGradient id="linear-gradient" x1="128" x2="128" y1="255.7" y2="-.3" gradientUnits="userSpaceOnUse">
      <stop offset="0" stop-color="#222"/>
      <stop offset="1" stop-color="#444345"/>
    </linearGradient>
    <style>
      .cls-3{fill:none;stroke:#fff;stroke-width:2.5px}
    </style>
  </defs>
  <rect width="256" height="256" y="-.3" rx="45" ry="45" style="fill:url(#linear-gradient)"/>
  <path d="M102.2 144.2H83l11.6-12.9 7.6 12.9zm19.9-32.7h19.2l-11.7 13-7.5-13z" class="cls-3"/>
  <path d="m48.2 137.8-3.7 6.4h-25l18.3-32.7h77l19.7 32.7h-25l-16.3-26.9H78.3l-11.4 20.5H48.2z" class="cls-3"/>
  <path d="M50.8 133h11.9l8.5-15.7H59.6L50.8 133z" class="cls-3"/>
  <path d="M153.9 145.5c-5.9 0-9.4-.8-11-2.4-1.6-1.6-1.8-4.8-.7-9.8l2.5-11.4c1-4.6 2.5-7.6 4.7-9.1 2.2-1.6 5.9-2.3 11.3-2.3s8.8.5 10.6 1.6c1.8 1.2 2.3 3.4 1.6 6.5l-.4 1.8h-5.3l.2-.6.4-1.1c.3-1.5.1-2.6-.6-3-.8-.6-2.6-.8-5.6-.8a23 23 0 0 0-8.7 1c-1.1.5-2 2-2.5 4.4l-1.1 5.5.4-.3c2.3-1.3 5.6-2 10.2-2 5 0 8.3.8 9.7 2.2 1.5 1.5 1.8 4.3.9 8.5-1 4.6-2.6 7.6-4.8 9.1-2.2 1.5-6 2.2-11.8 2.2Zm3.6-17.6c-4.9 0-7 .6-7.8 1-1.1.6-2 2-2.4 4.1-1 4.6-.6 6.3 0 6.9.5.5 2.3 1.2 7.6 1.2s7.1-.5 7.9-1c.7-.4 1.7-1.7 2.5-5.3.8-4 .4-5.3-.1-5.8-.8-.7-3.5-1-7.7-1Zm27.7 17.6c-6.2 0-10-.6-11.5-1.8-1.7-1.3-2-4-1.1-8.1.6-3.1 1.5-5.2 2.7-6.3.7-.8 1.7-1.3 3-1.8l.6-.2-.6-.2c-.9-.4-1.5-1-1.8-1.6-.6-1-.6-3 0-5.8.8-3.7 2.3-6.2 4.4-7.5 2-1.1 5.7-1.7 11-1.7 6 0 9.7.6 11.2 1.7 1.6 1.1 2 3.7 1 7.7-.5 2.7-1.4 4.5-2.5 5.6-.6.7-1.5 1.2-2.5 1.6l-.6.2.6.3c1 .4 1.7 1 2.1 1.6.7 1 .7 3 0 5.8-.8 4.3-2.4 7.1-4.6 8.5-2 1.4-5.8 2-11.4 2Zm2.6-15.8c-5 0-7 .5-7.8.9-1.2.7-1.8 2.9-2.2 4.6-.7 3-.4 4.3 0 4.8s1.3 1 4.2 1h8.6c1.7-.1 3-.7 3.8-1.4.4-.6 1.2-1.8 1.8-4.8.5-2.3.3-3.6-.6-4.2-1-.6-3.5-1-7.8-1Zm3.2-14.8c-5.3 0-7 .5-7.5.7-.4.3-1.3 1.2-2 4.5-.5 2.4-.3 3.9.5 4.4.6.4 2.6.8 8.7.8 4 0 5.6-.5 6.2-1 .6-.4 1.5-1.5 2.2-4.6.3-1.5.5-3.5-.4-4-.8-.6-3.5-.8-7.7-.8Zm35.1 30.3-13.5-15.5h-2.8l-3.3 15.5h-5.3l7.4-34.4h5.3l-3.1 14.5h2.8l18.2-14.5h7.1l-21 16.6 15.7 17.8h-7.5z" style="fill:#fff"/>
</svg>