<?xml version="1.0" encoding="utf-8"?>
<!-- Generator: Adobe Illustrator 25.0.0, SVG Export Plug-In . SVG Version: 6.00 Build 0)  -->
<svg version="1.1" id="Layer_1" xmlns="http://www.w3.org/2000/svg" xmlns:xlink="http://www.w3.org/1999/xlink" x="0px" y="0px"
	 viewBox="0 0 525 160" style="enable-background:new 0 0 525 160;" xml:space="preserve">
<style type="text/css">
	.st0{fill:#332920;}
	.st1{fill:#B8B1A4;}
	.st2{fill:#CD511D;}
</style>
<g id="Layer_1_1_">
	<rect class="st0" width="525" height="160"/>
</g>
<g id="Layer_2_1_">
	<g>
		<g>
			<g>
				<path class="st1" d="M139.53,137.94c27.61,0,35-23,35-33.77s0-80.23,0-80.23h-22.51v75.91c0,0,0.35,14.2-12.49,14.2
					s-12.49-14.2-12.49-14.2V23.94h-22.51c0,0,0,69.46,0,80.23C104.53,114.93,111.92,137.94,139.53,137.94z"/>
			</g>
			<g>
				<path class="st1" d="M221.37,23.94h-10.49c-26.33,0-30.76,36.39-30.76,47.16s0,66.84,0,66.84h22.13c0,0,0-24.06,0-44.44
					s0.12-47.11,13.87-47.11c11.25,0,13.37,17.88,13.77,35.54h-22.42v22.41h22.51c0,17.19,0,33.59,0,33.59h22.13
					c0,0,0-56.06,0-66.84C252.12,60.33,247.7,23.94,221.37,23.94z"/>
			</g>
			<g>
				<polygon class="st1" points="320.21,23.94 343.21,23.94 343.21,86.76 343.21,137.94 320.21,137.94 320.21,86.76 				"/>
			</g>
			<g>
				<path class="st1" d="M313.39,23.94v22.28c0,0-23.14-2.13-23.14,13.98s23.14,20.38,23.14,44.32s-25.38,33.42-56,33.42v-22.99
					c3.08,0,33.07-1.1,33.07-13.07s-22.93-16.87-22.93-40.33C267.52,35.72,282.35,23.94,313.39,23.94z"/>
			</g>
			<g>
				<g>
					<path class="st1" d="M102.24,124.67l-8.76-10.27c3.88-9.46,5.96-21,5.96-33.46c0-32.03-12.05-58-36.5-58s-36.5,25.97-36.5,58
						s13.7,58,36.5,58c8.06,0,14.98-3.26,20.57-8.88l6.09,7.29L102.24,124.67z M62.95,114.04c-7.96,0-14.41-14.82-14.41-33.1
						s6.45-33.1,14.41-33.1s14.41,14.82,14.41,33.1c0,4.68-0.42,9.13-1.19,13.16l-5.76-6.75L58.24,99.79l9.98,11.95
						C66.59,113.22,64.81,114.04,62.95,114.04z"/>
				</g>
			</g>
			<g>
				<path class="st2" d="M400.07,106.86c-2.1,4.34-6.54,7.35-11.69,7.35s-9.59-3-11.69-7.35h-23.02c0.45,3.55,1.42,6.93,2.85,10.06
					h63.72c1.43-3.13,2.4-6.52,2.85-10.06H400.07z"/>
				<path class="st2" d="M401.38,101.2c0,1.09-0.15,2.14-0.4,3.15h22.35c0.03-0.64,0.05-1.27,0.05-1.92c0-2.81-0.34-5.53-0.96-8.14
					h-23.04C400.64,96.3,401.38,98.66,401.38,101.2z"/>
				<path class="st2" d="M357.77,119.42c2.15,3.86,5,7.28,8.39,10.06h44.43c3.39-2.79,6.24-6.2,8.39-10.06H357.77z"/>
				<path class="st2" d="M398.38,56.94c0,4.74-3.3,8.7-7.73,9.73h28.74c0.97-3.07,1.49-6.34,1.49-9.73c0-0.11-0.01-0.22-0.01-0.33
					h-22.51C398.36,56.72,398.38,56.83,398.38,56.94z"/>
				<path class="st2" d="M359.75,41.54H417c-2.1-3.9-4.99-7.32-8.43-10.06h-40.39C364.74,34.22,361.85,37.64,359.75,41.54z"/>
				<path class="st2" d="M404.95,28.98c-4.85-2.88-10.52-4.54-16.57-4.54c-6.05,0-11.72,1.66-16.57,4.54H404.95z"/>
				<path class="st2" d="M358.54,44.04c-1.35,3.13-2.23,6.51-2.53,10.06h22.78c1.22-4.14,5.05-7.17,9.59-7.17s8.37,3.03,9.59,7.17
					h22.78c-0.31-3.55-1.18-6.93-2.53-10.06C418.22,44.04,358.54,44.04,358.54,44.04z"/>
				<path class="st2" d="M378.38,56.94c0-0.11,0.01-0.22,0.02-0.33h-22.51c0,0.11-0.01,0.22-0.01,0.33c0,3.39,0.53,6.66,1.5,9.73
					h28.74C381.68,65.64,378.38,61.68,378.38,56.94z"/>
				<path class="st2" d="M369.62,131.98c5.42,3.45,11.85,5.46,18.76,5.46s13.33-2.01,18.76-5.46H369.62z"/>
				<path class="st2" d="M360.16,81.73c-2.22,3.02-3.97,6.41-5.13,10.06h24.39c2.33-2.22,5.48-3.59,8.95-3.59s6.62,1.37,8.95,3.59
					h24.39c-1.17-3.65-2.91-7.04-5.13-10.06H360.16z"/>
				<path class="st2" d="M418.48,69.17h-60.2c1.29,3.16,3.06,6.08,5.23,8.65c-0.45,0.46-0.89,0.93-1.32,1.41h52.38
					c-0.43-0.48-0.86-0.95-1.31-1.41C415.42,75.25,417.19,72.33,418.48,69.17z"/>
				<path class="st2" d="M375.38,101.2c0-2.54,0.74-4.91,2-6.91h-23.04c-0.62,2.61-0.96,5.34-0.96,8.14c0,0.64,0.02,1.28,0.05,1.92
					h22.35C375.53,103.35,375.38,102.29,375.38,101.2z"/>
			</g>
			<g>
				<path class="st2" d="M475.25,106.86c-2.1,4.34-6.54,7.35-11.69,7.35s-9.59-3-11.69-7.35h-23.02c0.45,3.55,1.42,6.93,2.85,10.06
					h63.72c1.43-3.13,2.4-6.52,2.85-10.06H475.25z"/>
				<path class="st2" d="M476.55,101.2c0,1.09-0.15,2.14-0.4,3.15h22.35c0.03-0.64,0.05-1.27,0.05-1.92c0-2.81-0.34-5.53-0.96-8.14
					h-23.04C475.81,96.3,476.55,98.66,476.55,101.2z"/>
				<path class="st2" d="M432.95,119.42c2.15,3.86,5,7.28,8.39,10.06h44.43c3.39-2.79,6.24-6.2,8.39-10.06H432.95z"/>
				<path class="st2" d="M473.55,56.94c0,4.74-3.3,8.7-7.73,9.73h28.74c0.97-3.07,1.49-6.34,1.49-9.73c0-0.11-0.01-0.22-0.01-0.33
					h-22.51C473.54,56.72,473.55,56.83,473.55,56.94z"/>
				<path class="st2" d="M434.93,41.54h57.26c-2.1-3.9-4.99-7.32-8.43-10.06h-40.39C439.91,34.22,437.03,37.64,434.93,41.54z"/>
				<path class="st2" d="M480.13,28.98c-4.85-2.88-10.52-4.54-16.57-4.54c-6.05,0-11.72,1.66-16.57,4.54H480.13z"/>
				<path class="st2" d="M433.72,44.04c-1.35,3.13-2.23,6.51-2.53,10.06h22.78c1.22-4.14,5.05-7.17,9.59-7.17s8.37,3.03,9.59,7.17
					h22.78c-0.31-3.55-1.18-6.93-2.53-10.06C493.4,44.04,433.72,44.04,433.72,44.04z"/>
				<path class="st2" d="M453.55,56.94c0-0.11,0.01-0.22,0.02-0.33h-22.51c0,0.11-0.01,0.22-0.01,0.33c0,3.39,0.53,6.66,1.5,9.73
					h28.74C456.86,65.64,453.55,61.68,453.55,56.94z"/>
				<path class="st2" d="M444.8,131.98c5.42,3.45,11.85,5.46,18.76,5.46s13.33-2.01,18.76-5.46H444.8z"/>
				<path class="st2" d="M435.34,81.73c-2.22,3.02-3.97,6.41-5.13,10.06h24.39c2.33-2.22,5.48-3.59,8.95-3.59s6.62,1.37,8.95,3.59
					h24.39c-1.17-3.65-2.91-7.04-5.13-10.06H435.34z"/>
				<path class="st2" d="M493.66,69.17h-60.2c1.29,3.16,3.06,6.08,5.23,8.65c-0.45,0.46-0.89,0.93-1.32,1.41h52.38
					c-0.43-0.48-0.86-0.95-1.31-1.41C490.6,75.25,492.37,72.33,493.66,69.17z"/>
				<path class="st2" d="M450.55,101.2c0-2.54,0.74-4.91,2-6.91h-23.04c-0.62,2.61-0.96,5.34-0.96,8.14c0,0.64,0.02,1.28,0.05,1.92
					h22.35C450.7,103.35,450.55,102.29,450.55,101.2z"/>
			</g>
		</g>
	</g>
</g>
</svg>
