<?xml version="1.0" encoding="utf-8"?>
<!-- Generator: Adobe Illustrator 25.0.0, SVG Export Plug-In . SVG Version: 6.00 Build 0)  -->
<svg version="1.1" xmlns="http://www.w3.org/2000/svg" xmlns:xlink="http://www.w3.org/1999/xlink" x="0px" y="0px"
	 viewBox="0 0 372.71 155.76" style="enable-background:new 0 0 372.71 155.76;" xml:space="preserve">
<style type="text/css">
	.st0{fill:url(#SVGID_1_);}
	.st1{fill:url(#SVGID_2_);}
	.st2{filter:url(#dropshad);}
	.st3{fill:#FF0000;}
	.st4{fill:#FFFFFF;}
</style>
<filter  height="200%" id="dropshad" width="200%" x="-50%" y="-50%">
	<feOffset  dx="0" dy="0" in="SourceAlpha" result="offOut"></feOffset>
	<feGaussianBlur  in="offOut" result="blurOut" stdDeviation="2"></feGaussianBlur>
	<feBlend  in="SourceGraphic" in2="blurOut" mode="normal"></feBlend>
</filter>
<g id="Layer_4">
	<linearGradient id="SVGID_1_" gradientUnits="userSpaceOnUse" x1="186.3529" y1="155.7647" x2="186.3529" y2="-9.094947e-13">
		<stop  offset="0.15" style="stop-color:#808080"/>
		<stop  offset="0.85" style="stop-color:#F5F4F5"/>
	</linearGradient>
	<path class="st0" d="M348.46,155.76H24.24C10.85,155.76,0,144.91,0,131.52V24.24C0,10.85,10.85,0,24.24,0h324.22
		c13.39,0,24.24,10.85,24.24,24.24v107.28C372.71,144.91,361.85,155.76,348.46,155.76z"/>
	<linearGradient id="SVGID_2_" gradientUnits="userSpaceOnUse" x1="186.3529" y1="150.1176" x2="186.3529" y2="5.6471">
		<stop  offset="0.15" style="stop-color:#F5F4F5"/>
		<stop  offset="0.85" style="stop-color:#808080"/>
	</linearGradient>
	<path class="st1" d="M347,150.12H25.71c-11.02,0-19.95-8.93-19.95-19.95V25.6c0-11.02,8.93-19.95,19.95-19.95H347
		c11.02,0,19.95,8.93,19.95,19.95v104.56C366.95,141.18,358.02,150.12,347,150.12z"/>
</g>
<g id="Layer_2">
	<g class="st2">
		<g>
			<path class="st3" d="M188.39,46.61l-42.67,60.46h6.98l13.87-19.77h26.52l4.68,19.77h6.42l-14.36-60.46H188.39z M171.11,81.03
				l15.36-21.74l5.16,21.81L171.11,81.03z"/>
			<path class="st3" d="M257.8,45.09c-24.58,0-41.38,19.98-41.38,39.34c0,12.22,7.24,23.99,26.1,23.99
				c17.8,0,28.96-12.14,28.96-12.14l-3.91-3.55c0,0-10.81,9.76-22.98,9.76c-4.92,0-21.63-1.43-21.63-19.72
				c0-16.18,16.3-32.29,33.5-32.29c12.37,0,19.11,10.71,19.11,10.71l5.35-3.8C280.91,57.39,275.41,45.09,257.8,45.09z"/>
			<polygon class="st3" points="328.47,52.41 329.96,46.18 295.52,46.18 280.91,106.99 315.39,106.99 316.83,100.8 288.54,100.8 
				294.14,77.42 322.41,77.42 323.96,71.33 295.69,71.33 300.21,52.41 			"/>
			<path class="st3" d="M150.13,58.63c0-12.11-10.64-11.19-17.03-11.37h-11.22l-1.77,5.18h11.14c4.66,0,7.83,0.56,9.5,1.68
				c2.18,1.42,3.09,3.71,2.75,6.85c-0.3,2.79-1.39,5.15-3.27,7.08c-1.88,1.93-4.22,3.22-7.01,3.88c-1.67,0.41-5.15,0.61-10.43,0.61
				l-7.81,0.06l-1.46,5.82l3.77,0.05l15.04,28.61h7.55l-15.6-28.61C138.96,78.47,150.13,71.89,150.13,58.63z"/>
		</g>
		<g>
			<path class="st4" d="M56.51,113.56c-6.37-0.04-10.84-2.06-12.57-3l16.87-57.75c2.37,0.93,7.49,2.66,13.01,2.7l0.1,0
				c4.52,0,10.25-2.06,16.31-4.23c7.12-2.56,15.19-5.46,22.57-5.46c5.15,0,7.27,1.42,7.97,2.08l-14.77,57.58
				c-1.92-0.65-5.73-1.64-11.15-1.67h-0.11c-4.82,0-10.46,2.12-16.44,4.36c-7.06,2.65-14.35,5.39-21.61,5.39L56.51,113.56z"/>
			<path class="st3" d="M112.81,47.11c3.7,0,5.62,0.76,6.52,1.3l-14.23,55.45c-2.23-0.62-5.7-1.31-10.23-1.34l-0.12,0
				c-5.05,0-10.8,2.16-16.89,4.45c-6.95,2.61-14.14,5.31-21.16,5.31l-0.18,0c-5.17-0.04-9.02-1.43-11.04-2.38l16.19-55.4
				c2.77,0.98,7.32,2.27,12.16,2.3l0.11,0c4.75,0,10.58-2.09,16.75-4.31C97.7,49.97,105.66,47.11,112.81,47.11 M112.81,44.55
				c-13.89,0-29.38,9.69-38.88,9.69c-0.03,0-0.06,0-0.1,0c-7.21-0.05-13.85-3.16-13.85-3.16l-17.55,60.09c0,0,5.29,3.62,14.07,3.68
				c0.07,0,0.14,0,0.2,0c13.84,0,28.06-9.76,38.05-9.76c0.04,0,0.07,0,0.1,0c7.74,0.05,12.04,2.11,12.04,2.11l15.29-59.61
				C122.19,47.59,120.55,44.55,112.81,44.55L112.81,44.55z"/>
			<g>
				<path class="st3" d="M120.76,47.85l-2.71,10.66c0,0-2.92-1.79-11.47-1.79l2.53-11.02C109.11,45.7,117.37,44.65,120.76,47.85z"/>
				<path class="st3" d="M106.57,56.72l-2.74,11.84c-4.51,0-12.01,2.48-12.01,2.48l2.77-10.8C94.6,60.24,101.02,56.72,106.57,56.72z
					"/>
				<path class="st3" d="M114.91,70.18c0,0-3.54-1.62-11.07-1.62l-2.79,11.24c8.57,0,10.79,2.49,10.79,2.49L114.91,70.18z"/>
				<path class="st3" d="M101.05,79.79l-2.72,11.43c-6.8-1.02-12.58,2.49-12.58,2.49l3.02-11.42
					C88.76,82.29,94.51,79.79,101.05,79.79z"/>
				<path class="st3" d="M109.29,93.71l-3.24,11.62c0,0-4.47-2.19-10.55-2.19l2.83-11.92C103.43,91.22,109.29,93.71,109.29,93.71z"
					/>
				<path class="st3" d="M85.74,93.71l-3.19,13.11l-12.98,4.24l2.83-11.47C80.63,96.38,85.74,93.71,85.74,93.71z"/>
				<path class="st3" d="M88.76,82.29c0,0-8.11,4.82-13.07,5.93l3.03-11.51c4.13-1.28,13.12-5.66,13.12-5.66L88.76,82.29z"/>
				<path class="st3" d="M56.21,113.68c-5.64,0-12.33-3.37-12.33-3.37l3.37-11.21c0,0,6.81,2.2,12.07,2.48L56.21,113.68z"/>
				<path class="st3" d="M75.69,88.21L72.4,99.59c-5.31,2.12-13.08,1.99-13.08,1.99l3.48-12.11C62.8,89.47,69.8,90.09,75.69,88.21z"
					/>
				<path class="st3" d="M78.72,76.7l3.37-11.81c0,0-7.35,2.26-13.14,1.87l-2.89,10.76C66.06,77.52,72.27,78.55,78.72,76.7z"/>
				<path class="st3" d="M94.6,60.24l2.99-11.3l-12.69,4.29L82.08,64.9C88.57,63.66,94.6,60.24,94.6,60.24z"/>
				<path class="st3" d="M72.27,55.38l-3.32,11.39c-7.56-0.46-11.41-3.31-11.41-3.31l2.94-10.86C60.48,52.6,64.96,54.54,72.27,55.38
					z"/>
				<path class="st3" d="M66.06,77.52L62.8,89.47c0,0-7.31-0.48-12.25-2.32l3.62-12.06C54.17,75.1,57.38,75.99,66.06,77.52z"/>
			</g>
		</g>
	</g>
</g>
</svg>
