<?xml version="1.0" encoding="utf-8"?>
<!-- Generator: Adobe Illustrator 25.0.1, SVG Export Plug-In . SVG Version: 6.00 Build 0)  -->
<svg version="1.1" xmlns="http://www.w3.org/2000/svg" xmlns:xlink="http://www.w3.org/1999/xlink" x="0px" y="0px"
	 viewBox="0 0 372.71 155.76" style="enable-background:new 0 0 372.71 155.76;" xml:space="preserve">
<style type="text/css">
	.st0{fill:#A40202;}
	.st1{fill:#E69A9A;}
</style>
<g id="Layer_1">
	<rect class="st0" width="372.71" height="155.76"/>
</g>
<g id="Layer_2">
	<g>
		<g>
			<g>
				<path class="st1" d="M186.92,43.57l-42.67,60.46h6.98l13.87-19.77h26.52l4.68,19.77h6.42l-14.36-60.46H186.92z M169.63,77.99
					l15.36-21.74l5.16,21.81L169.63,77.99z"/>
				<path class="st1" d="M256.32,42.05c-24.58,0-41.38,19.98-41.38,39.34c0,12.22,7.24,23.99,26.1,23.99
					c17.8,0,28.96-12.14,28.96-12.14l-3.91-3.55c0,0-10.81,9.76-22.98,9.76c-4.92,0-21.63-1.43-21.63-19.72
					c0-16.18,16.3-32.29,33.5-32.29c12.37,0,19.11,10.71,19.11,10.71l5.35-3.8C279.43,54.35,273.94,42.05,256.32,42.05z"/>
				<polygon class="st1" points="327,49.37 328.49,43.14 294.04,43.14 279.43,103.95 313.91,103.95 315.35,97.76 287.07,97.76 
					292.66,74.38 320.94,74.38 322.48,68.29 294.21,68.29 298.74,49.37 				"/>
				<path class="st1" d="M148.65,55.59c0-12.11-10.64-11.19-17.03-11.37l-10.45,0.02l-1.9,5.16h10.51c4.66,0,7.83,0.56,9.5,1.68
					c2.18,1.42,3.09,3.71,2.75,6.85c-0.3,2.79-1.39,5.15-3.27,7.08c-1.88,1.93-4.22,3.22-7.01,3.88c-1.67,0.41-5.15,0.61-10.43,0.61
					l-6.96,0.06l-1.46,5.82l2.92,0.05l15.04,28.61h7.55l-15.6-28.61C137.49,75.43,148.65,68.85,148.65,55.59z"/>
			</g>
		</g>
		<g>
			<g>
				<path class="st1" d="M68.3,113.71c-10.78,0-23.09-7.09-23.61-7.4l-0.48-0.28l0.12-0.54l14.3-61.9l0.91,0.63
					c0.11,0.07,10.67,7.28,22.87,7.28c5.97,0,11.5-1.66,17.36-3.41c6.32-1.89,12.86-3.85,20.44-3.85h0.95l-14.51,60.54h-0.59
					c-6.96,0-13.96,2.44-20.73,4.8C79.24,111.71,73.48,113.71,68.3,113.71z M45.93,105.29c2.38,1.31,13.16,6.92,22.37,6.92
					c4.92,0,10.57-1.97,16.54-4.05c6.7-2.33,13.62-4.75,20.63-4.88l13.79-57.53c-6.97,0.16-13.11,1.99-19.06,3.77
					c-5.97,1.79-11.6,3.47-17.79,3.47c-10.7,0-19.92-5.16-22.8-6.95L45.93,105.29z"/>
			</g>
			<path class="st1" d="M107.36,46.59l-2.71,11.22c0,0-5.21,1.27-13.06,4.69l2.62-12.2L107.36,46.59z"/>
			<path class="st1" d="M81.72,52.24l-2.95,12.25c-6,0-11.41-2.71-11.41-2.71l2.61-11.72C69.97,50.06,74.43,52.23,81.72,52.24z"/>
			<polygon class="st1" points="64.54,73.93 67.36,61.78 56.33,56.93 53.44,69.46 			"/>
			<path class="st1" d="M78.77,64.49c4.82,0,12.82-1.99,12.82-1.99l-2.82,12.34c0,0-6.12,1.58-13.18,1.58L78.77,64.49z"/>
			<path class="st1" d="M104.66,57.81l-3.06,12.56c0,0,7.5-2.57,13.15-2.57l2.89-12.07C110.54,55.73,104.66,57.81,104.66,57.81z"/>
			<path class="st1" d="M111.83,79.98c-8.06,0-13.18,2.15-13.18,2.15l-2.94,12.85c0,0,5.73-2.43,13.1-2.43L111.83,79.98z"/>
			<path class="st1" d="M92.93,106.28l2.78-11.29c0,0-6.68,1.47-12.98,4.09l-2.86,11.56L92.93,106.28z"/>
			<path class="st1" d="M98.66,82.14l-13.18,4.71l3.29-12c5.76-2.82,12.82-4.47,12.82-4.47L98.66,82.14z"/>
			<path class="st1" d="M75.6,76.42l-2.71,12.31c-6.24,0-11.41-2.59-11.41-2.59l3.06-12.21C64.54,73.93,72.18,76.42,75.6,76.42z"/>
			<path class="st1" d="M85.48,86.84l-2.74,12.24c0,0-5.73,1.76-12.44,1.76l2.59-12.12C77.89,88.73,85.48,86.84,85.48,86.84z"/>
			<polygon class="st1" points="58.54,98.14 61.48,86.14 50.7,81.33 47.93,93.77 			"/>
			<path class="st1" d="M70.3,100.84l-3.18,12.12c-6.12,0-11.42-2.56-11.42-2.56l2.83-12.27C58.54,98.14,66.18,100.84,70.3,100.84z"
				/>
		</g>
	</g>
	<g>
		<g>
			<polygon class="st1" points="294.11,116.32 294.11,122.11 293.21,122.11 293.21,115.43 314.85,115.43 314.85,110.53 
				293.21,110.53 293.21,109.64 315.75,109.64 315.75,116.32 			"/>
			<g>
				<g>
					<polygon class="st1" points="243.42,109.64 265.96,109.64 265.96,116.32 244.32,116.32 244.32,122.11 243.42,122.11 
						243.42,115.43 265.07,115.43 265.07,110.53 243.42,110.53 					"/>
					<polygon class="st1" points="277.45,109.64 277.45,121.22 265.96,121.22 265.96,122.11 278.39,122.11 278.39,110.53 
						289.89,110.53 289.89,109.64 					"/>
				</g>
			</g>
		</g>
	</g>
</g>
</svg>
