<?xml version="1.0" encoding="utf-8"?>
<!-- Generator: Adobe Illustrator 24.2.1, SVG Export Plug-In . SVG Version: 6.00 Build 0)  -->
<svg version="1.1" id="Layer_1" xmlns="http://www.w3.org/2000/svg" xmlns:xlink="http://www.w3.org/1999/xlink" x="0px" y="0px"
	 viewBox="0 0 900 256" style="enable-background:new 0 0 900 256;" xml:space="preserve">
<style type="text/css">
	.st0{fill:url(#SVGID_1_);}
	.st1{fill:#FFFFFF;}
</style>
<g id="Fill">
	
		<radialGradient id="SVGID_1_" cx="306.5913" cy="256" r="415.8695" gradientTransform="matrix(3.3203 0 0 -0.9444 -1041.1406 241.7778)" gradientUnits="userSpaceOnUse">
		<stop  offset="0" style="stop-color:#814A9D"/>
		<stop  offset="0.2833" style="stop-color:#6A5BA7"/>
		<stop  offset="0.4979" style="stop-color:#5963AD"/>
		<stop  offset="0.5741" style="stop-color:#5768B0"/>
		<stop  offset="0.7044" style="stop-color:#5376BA"/>
		<stop  offset="0.8719" style="stop-color:#488ECC"/>
		<stop  offset="0.9441" style="stop-color:#409AD5"/>
	</radialGradient>
	<rect y="0" class="st0" width="900" height="256"/>
</g>
<g>
	<path class="st1" d="M182.34,173.87V145.6c0-7.2-4.06-12.3-9.82-12.3H71.76v-13.09l100.11-0.13c7.07,0,10.47-5.37,10.47-12.43
		c0-7.2-3.4-12.43-10.47-12.43H71.76V82h106.39c18.06,0,26.83,11.26,26.83,25.65c0,7.59-2.49,14.13-7.46,18.85
		c4.58,4.58,7.46,11.39,7.46,19.11v28.27H182.34z"/>
	<path class="st1" d="M246.97,174h-21.72v-27.35c0-15.44,9.68-27.48,23.29-27.48h77.08c7.59,0,10.73-4.58,10.73-12.43
		c0-6.02-3.14-12.04-10.73-12.04H225.25V82h105.87c19.24,0,26.83,11.26,26.83,24.73c0,15.44-7.59,26.04-26.83,26.04h-73.55
		c-6.02,0-10.6,4.97-10.6,12.83V174z"/>
	<path class="st1" d="M410.8,161.17h100.38v12.69H403.61c-17.54,0-25.39-9.68-25.39-25.39v-41.35c0-13.35,7.85-24.86,25.39-24.86
		h107.57v12.69H410.8c-7.59,0-10.99,6.28-10.99,12.17v41.35C399.81,156.46,403.21,161.17,410.8,161.17z"/>
	<path class="st1" d="M531.45,173.87v-12.69h50.25c7.59,0,10.73-4.71,10.73-12.56v-41.22c0-13.48,7.72-25.26,26.96-25.26h55.75
		v12.83h-50.25c-7.59,0-10.6,6.28-10.6,12.43v41.22c0,15.57-7.72,25.26-27.09,25.26H531.45z"/>
	<path class="st1" d="M695.67,160.91h99.59c7.07,0,10.34-5.5,10.34-12.43v-1.18c0-4.58-1.18-14-10.34-14.13h-99.59v-13.09h99.59
		c7.2,0,10.34-5.1,10.34-12.3c0-7.33-3.27-12.3-10.34-12.3h-99.59V82.39h105.74c18.06,0,26.83,10.73,26.83,25.39
		c0,7.33-2.62,13.87-7.46,18.71c4.58,5.1,7.46,13.09,7.46,20.81v1.18c0,13.61-8.77,25.39-26.83,25.39H695.67V160.91z"/>
</g>
</svg>
