<!DOCTYPE svg PUBLIC "-//W3C//DTD SVG 1.1//EN" "http://www.w3.org/Graphics/SVG/1.1/DTD/svg11.dtd">
<svg xmlns="http://www.w3.org/2000/svg" xml:space="preserve" width="5.61111in" height="0.84722in" version="1.1" viewBox="0 0 5611 847" xmlns:xlink="http://www.w3.org/1999/xlink">
 <defs>
  <style type="text/css">
   <![CDATA[
    .fil0 {fill:#00468d}
   ]]>
  </style>
 </defs>
 <g id="Layer_x0020_1">
  <metadata id="CorelCorpID_0Corel-Layer"/>
  <g id="_162410264">
   <path class="fil0" d="M672 118c-13,-16 -28,-31 -47,-43 -19,-13 -39,-23 -61,-32 -22,-9 -45,-15 -68,-19 -24,-4 -47,-7 -70,-7 -44,0 -85,6 -123,18 -39,12 -72,30 -101,52 -29,23 -52,50 -68,82 -17,32 -25,68 -25,108 0,32 5,59 15,82 10,23 23,42 40,58 17,16 36,30 59,41 23,11 47,21 73,30 37,13 67,27 89,43 22,16 33,38 33,65 0,17 -4,32 -11,44 -7,12 -16,22 -28,30 -12,8 -25,13 -41,17 -15,3 -31,5 -47,5 -31,0 -62,-7 -92,-22 -30,-15 -53,-34 -69,-58l-137 111c16,20 34,38 57,53 22,16 46,28 72,38 26,10 53,18 81,23 28,5 56,8 84,8 38,0 76,-5 114,-14 39,-10 73,-25 104,-46 31,-21 56,-48 76,-82 20,-33 29,-74 29,-121 0,-30 -5,-56 -14,-79 -10,-23 -24,-44 -42,-63 -19,-19 -41,-35 -68,-49 -27,-14 -57,-28 -91,-39 -31,-11 -55,-23 -73,-36 -17,-13 -26,-31 -26,-53 0,-17 4,-31 12,-43 8,-12 17,-22 29,-29 11,-8 24,-13 38,-17 14,-3 27,-5 40,-5 27,0 52,5 74,16 22,10 41,26 56,46l126 -111z"/>
  </g>
  <g id="_162410336">
   <path class="fil0" d="M1410 825l-149 -787 -180 0 -501 787 211 0 94 -157 303 0 27 157 194 0zm-240 -306l0 0 -206 0 164 -279 41 279z"/>
  </g>
  <g id="_162410360">
   <polygon class="fil0" points="2375,825 2514,38 2240,38 1974,548 1970,548 1879,38 1620,38 1481,825 1654,825 1749,261 1753,261 1858,825 1988,825 2293,261 2298,261 2194,825 "/>
  </g>
  <g id="_162411008">
   <polygon class="fil0" points="3075,825 3103,666 2745,666 2774,497 3085,497 3112,348 2801,348 2828,196 3154,196 3182,38 2679,38 2540,825 "/>
  </g>
  <g id="_162410912">
   <path class="fil0" d="M3331 38l-139 787 313 0c49,0 94,-5 136,-16 41,-10 77,-26 107,-46 30,-20 53,-46 69,-76 17,-30 25,-66 25,-106 0,-47 -14,-85 -41,-114 -27,-29 -61,-47 -101,-54l0 -2c50,-13 90,-36 121,-70 31,-34 47,-78 47,-131 0,-32 -7,-59 -21,-81 -14,-22 -31,-40 -53,-53 -22,-14 -46,-24 -74,-29 -27,-6 -55,-9 -82,-9l-308 0zm250 149l0 0c30,0 56,6 76,17 20,11 30,29 30,55 0,18 -4,34 -12,46 -8,13 -18,22 -29,30 -12,7 -25,13 -39,15 -14,3 -28,4 -42,4l-113 0 29 -168 101 0zm-34 301l0 0c36,0 63,7 82,21 19,14 29,34 29,59 0,20 -4,37 -13,51 -9,14 -20,25 -34,33 -14,8 -31,14 -49,18 -19,4 -38,6 -59,6l-108 0 32 -188 120 0z"/>
  </g>
  <g id="_162410624">
   <path class="fil0" d="M4234 55c-57,25 -106,59 -147,102 -41,43 -74,94 -97,152 -23,58 -34,121 -34,187 0,53 9,100 26,143 17,43 43,80 76,110 33,30 73,54 121,70 47,16 101,24 161,24 68,0 131,-12 187,-37 57,-25 105,-59 146,-102 41,-43 72,-94 95,-152 23,-58 34,-121 34,-187 0,-53 -9,-100 -26,-143 -17,-43 -42,-80 -75,-110 -33,-30 -72,-54 -119,-70 -47,-16 -100,-24 -159,-24 -68,0 -131,12 -187,37zm29 607l0 0c-25,-10 -46,-24 -63,-42 -17,-18 -30,-39 -39,-63 -9,-24 -13,-50 -13,-77 0,-38 6,-74 18,-110 12,-36 30,-67 52,-95 23,-28 50,-50 82,-67 32,-17 68,-26 108,-26 32,0 60,5 86,16 25,10 46,24 63,42 17,18 29,39 38,63 9,24 13,50 13,77 0,38 -6,75 -18,111 -12,36 -29,68 -51,96 -22,28 -49,50 -82,67 -32,17 -69,25 -109,25 -33,0 -61,-5 -86,-16z"/>
  </g>
  <g id="_162410864">
   <polygon class="fil0" points="5607,38 5383,38 5157,336 5045,38 4839,38 5040,490 4981,825 5165,825 5225,490 "/>
  </g>
 </g>
</svg>