<?xml version="1.0" encoding="utf-8"?>
<!-- Generator: Adobe Illustrator 25.0.0, SVG Export Plug-In . SVG Version: 6.00 Build 0)  -->
<svg version="1.1" xmlns="http://www.w3.org/2000/svg" xmlns:xlink="http://www.w3.org/1999/xlink" x="0px" y="0px"
	 viewBox="0 0 256 256" style="enable-background:new 0 0 256 256;" xml:space="preserve">
<style type="text/css">
	.st0{fill:#FFFFFF;}
	.st1{fill:none;stroke:#BFBFBF;stroke-width:2;stroke-miterlimit:10;}
	.st2{fill:#993333;}
	.st3{fill:#415289;}
</style>
<g id="Layer_1_1_">
	<rect x="0" y="0" class="st0" width="256" height="256"/>
</g>
<g id="Layer_2_1_">
	<g>
		<line class="st1" x1="0" y1="42.44" x2="256" y2="42.44"/>
		<line class="st1" x1="0" y1="85.58" x2="256" y2="85.58"/>
		<line class="st1" x1="0" y1="128.73" x2="256" y2="128.73"/>
		<line class="st1" x1="0" y1="171.88" x2="256" y2="171.88"/>
		<line class="st1" x1="0" y1="215.02" x2="256" y2="215.02"/>
	</g>
	<g>
		<line class="st1" x1="214.28" y1="0" x2="214.28" y2="256"/>
		<line class="st1" x1="171.13" y1="0" x2="171.13" y2="256"/>
		<line class="st1" x1="127.99" y1="0" x2="127.99" y2="256"/>
		<line class="st1" x1="84.84" y1="0" x2="84.84" y2="256"/>
		<line class="st1" x1="41.69" y1="0" x2="41.69" y2="256"/>
	</g>
</g>
<g id="Layer_3">
	<g>
		<path class="st2" d="M124.21,147.36c-3.48,4.09-9.14,8.62-16.99,13.59c-7.44,4.69-15.84,9.12-25.18,13.29
			c-0.18,0.08-0.3,0.14-0.36,0.18c-1.3,3.38-2.25,6.02-2.87,7.93c-0.08,0.24-0.21,0.81-0.38,1.73c-0.15,0.72-0.33,1.25-0.52,1.61
			c-0.26,0.44-0.82,0.88-1.69,1.34c-0.86,0.46-1.65,0.74-2.37,0.86c-1.35,0.24-1.96-0.26-1.84-1.49c0.07-0.83,0.32-1.83,0.73-2.98
			c0.38-1.03,1.26-3.46,2.66-7.27l4.52-12.46c0.54-1.55,1.33-3.73,2.37-6.56c0.7-1.91,1.34-3.58,1.92-5.01
			c-1.84,0.28-2.35-0.91-1.52-3.58c0.56-1.71,1.26-2.96,2.11-3.75c0.85-0.79,2.15-1.43,3.9-1.91c6.37-1.75,12.61-3.04,18.72-3.87
			c5.57-0.75,9.83-1.09,12.78-1.01c1.7,0.04,3.16,0.24,4.4,0.6c1.89,0.56,2.5,2.09,1.85,4.59
			C126.06,144.66,125.31,146.05,124.21,147.36z M90.49,150.64c-0.71,1.71-2.37,6.12-4.95,13.23c-0.09,0.16-0.26,0.54-0.52,1.13
			c-0.25,0.6-0.41,0.97-0.46,1.13c2.39-0.99,4.77-1.97,7.15-2.92c3.93-1.71,7.66-3.64,11.18-5.78c4.85-2.94,9.53-6.42,14.06-10.43
			c-0.07-0.04-0.18-0.06-0.34-0.06C109.71,146.86,101.01,148.1,90.49,150.64z"/>
		<path class="st2" d="M142.44,181.61c-0.84,0.87-10.08,5.1-21.17,6.34c-0.69,0.16-1.58,0.34-2.68,0.54
			c-1.46,0.2-1.82-1.05-1.1-3.75c1.42-5.36,3.27-11.52,5.53-18.47c2.32-7.15,5.45-12.67,7.11-16.57c0.46-1.43,0.9-2.46,1.3-3.1
			c0.69-1.03,1.64-1.69,2.84-1.97c1.8-0.4,2.67-0.2,2.61,0.6c-0.11,1.07-0.34,2.09-0.69,3.04c-5.05,13.71-9.56,23.98-11.27,30.81
			c10.27-1.15,18.13-4.49,18.96-4.49c0.87,0,1.02,1.07,0.44,3.22C143.91,179.47,143.28,180.74,142.44,181.61z"/>
		<path class="st2" d="M197.85,145.1c-0.43,0.83-0.68,1.37-0.76,1.61c-0.66,1.67-1.39,3.6-2.18,5.78c-0.7,1.91-6.61,18.32-8.56,24.2
			c0,0-2.05,7.54-2.54,9.05c-0.26,0.44-0.81,0.87-1.65,1.31c-0.84,0.44-1.59,0.72-2.27,0.83c-0.67,0.12-1.27,0.05-1.78-0.21
			c-0.51-0.26-0.74-0.61-0.67-1.04c0.02-0.32,1.4-4.42,2.65-7.92l-22.06,8.58c-0.37,0.16-0.69,0.24-0.97,0.24
			c-1.15,0-1.27-1.73-0.34-5.18c0.27-1.07,0.99-3.22,2.15-6.44c2.6-7.39,5.71-15,9.32-22.83c1.79-3.93,3.11-6.52,3.95-7.75
			c0.39-0.83,1.02-1.91,1.88-3.22c0.42-0.44,1.21-0.66,2.36-0.66c1.23,0,1.97,0.41,2.23,1.22c0.25,0.81,0.12,1.84-0.4,3.07
			c-0.56,0.75-6,10.59-9.8,20.08c-2.02,5.01-3.47,8.84-4.33,11.5l19.26-7.68c0.31-0.95,4.72-13.49,6.06-17.23
			c0.65-1.87,1.33-3.68,2.06-5.42c0.31-0.83,0.82-1.97,1.52-3.4c0.44-0.75,1.73-1.17,3.86-1.25c1.2-0.04,1.74,0.4,1.6,1.31
			C198.35,144.03,198.16,144.5,197.85,145.1z"/>
		<path class="st2" d="M208.83,157.81c0.59-0.92,1.73-1.98,3.42-3.2c1.56-1.15,3.1-2.07,4.61-2.75c2.48-1.11,5.37-2.16,8.67-3.15
			c3.99-1.18,7.06-1.77,9.23-1.77c2.93,0,3.97,1.23,3.13,3.69c-0.35,1.02-1.01,2.1-1.99,3.25c-0.98,1.15-1.84,1.77-2.6,1.87
			c-0.79,0.1-1.29-0.2-1.51-0.89c-0.19-0.36-0.26-0.69-0.23-0.98c-2.02-0.03-4.2,0.25-6.54,0.84c-0.41,0.1-2.39,0.69-5.93,1.77
			c-2.7,0.95-4.31,1.84-4.83,2.66c-0.24,0.69,0.17,1.23,1.2,1.62c4.16,1.64,6.74,2.61,7.74,2.9c5.66,1.57,9.06,3.62,10.2,6.15
			c0.83,1.8,0.93,3.64,0.29,5.51c-1.02,2.98-3.46,5.56-7.34,7.72c-5.28,2.95-11.03,4.57-17.27,4.87c-2.73,0.13-4.84-0.2-6.33-0.98
			c-2.49-1.28-3.23-3.41-2.21-6.39c0.49-1.44,1.8-3.39,3.91-5.85c0.51-0.59,0.92-0.98,1.23-1.18c0.5-0.36,0.98-0.54,1.42-0.54
			c0.48,0,0.78,0.23,0.9,0.69c0.27,0.72,0.2,1.69-0.22,2.9c-0.28,0.82-0.7,1.34-1.26,1.57c-0.32,0.13-0.52,0.31-0.6,0.54
			c-0.18,0.52,0.08,0.98,0.77,1.38c1.22,0.66,3.04,0.92,5.47,0.79c2.32-0.13,4.84-0.56,7.57-1.28c1.07-0.3,1.95-0.57,2.66-0.84
			l2.2-0.98c1.43-0.66,2.43-1.41,2.99-2.26c0.29-0.46-0.1-0.98-1.18-1.55c-1.08-0.57-2.16-1.16-3.25-1.75
			c-1.09-0.59-2.28-1.07-3.57-1.43c-6.07-1.71-9.77-3.67-11.11-5.9c-0.97-1.71-1.15-3.44-0.55-5.21
			C208.16,159.01,208.46,158.4,208.83,157.81z"/>
		<path class="st3" d="M38.26,76.38c-1.7,0-3.25,0.29-4.64,0.87c-1.39,0.58-2.58,1.39-3.55,2.43c-0.98,1.04-1.73,2.27-2.27,3.71
			c-0.54,1.43-0.81,3-0.81,4.7c0,1.79,0.31,3.34,0.93,4.67c0.62,1.33,1.42,2.47,2.4,3.43c0.98,0.96,2.07,1.71,3.27,2.27
			c1.2,0.56,2.39,0.94,3.55,1.15c1.12,0.21,2.35,0.49,3.68,0.84c1.33,0.35,2.55,0.87,3.68,1.56c1.12,0.69,2.06,1.61,2.8,2.77
			c0.75,1.16,1.12,2.64,1.12,4.42c0,1.58-0.25,2.96-0.75,4.14c-0.5,1.18-1.18,2.17-2.06,2.96c-0.87,0.79-1.88,1.38-3.02,1.78
			c-1.14,0.39-2.36,0.59-3.64,0.59H17.83v-8.29H38.2c0.33,0,0.59-0.11,0.78-0.34c0.19-0.23,0.28-0.47,0.28-0.72
			c0-0.58-0.25-0.98-0.75-1.18c-0.12-0.04-0.62-0.15-1.49-0.31c-0.87-0.17-1.86-0.37-2.96-0.62c-1.1-0.25-2.19-0.53-3.27-0.84
			c-1.08-0.31-1.91-0.63-2.49-0.97c-1.2-0.66-2.39-1.49-3.55-2.49c-1.16-1-2.19-2.19-3.08-3.58c-0.89-1.39-1.61-3.01-2.15-4.86
			c-0.54-1.85-0.81-3.98-0.81-6.39c0-2.78,0.51-5.4,1.53-7.85c1.02-2.45,2.4-4.57,4.14-6.35c1.74-1.79,3.81-3.2,6.2-4.24
			c2.39-1.04,4.95-1.56,7.69-1.56h20.62v8.29H38.26z M38.58,86.97c-0.33,0-0.59,0.1-0.78,0.31c-0.19,0.21-0.28,0.46-0.28,0.75
			c0,0.25,0.06,0.49,0.19,0.72c0.12,0.23,0.31,0.36,0.56,0.4c0.12,0.04,0.61,0.16,1.46,0.34c0.85,0.19,1.82,0.4,2.9,0.65
			c1.08,0.25,2.17,0.53,3.27,0.84c1.1,0.31,1.94,0.61,2.52,0.9c1.25,0.71,2.47,1.56,3.68,2.55c1.2,1,2.28,2.19,3.24,3.58
			c0.96,1.39,1.72,3.01,2.3,4.86c0.58,1.85,0.87,3.96,0.87,6.32c0,2.83-0.51,5.45-1.53,7.88c-1.02,2.43-2.4,4.54-4.14,6.32
			c-1.74,1.79-3.81,3.2-6.2,4.24c-2.39,1.04-4.95,1.56-7.69,1.56H17.83v-8.29h21.12c1.74,0,3.33-0.29,4.77-0.87
			c1.43-0.58,2.67-1.39,3.71-2.43c1.04-1.04,1.84-2.27,2.4-3.71c0.56-1.43,0.84-3,0.84-4.7c0-2.16-0.39-3.92-1.18-5.29
			c-0.79-1.37-1.77-2.46-2.93-3.27c-1.16-0.81-2.42-1.41-3.77-1.81c-1.35-0.39-2.59-0.72-3.71-0.97c-1.25-0.25-2.46-0.59-3.64-1.03
			c-1.18-0.44-2.23-1.03-3.15-1.78c-0.91-0.75-1.65-1.68-2.21-2.8c-0.56-1.12-0.84-2.51-0.84-4.17c0-1.58,0.23-2.96,0.69-4.14
			c0.46-1.18,1.09-2.17,1.9-2.96c0.81-0.79,1.76-1.38,2.87-1.78c1.1-0.39,2.29-0.59,3.58-0.59h20.62v8.29L38.58,86.97z"/>
		<path class="st3" d="M104.43,101.86L95.52,78c-0.17-0.41-0.52-0.79-1.06-1.12c-0.54-0.33-1.14-0.5-1.81-0.5
			c-0.58,0-1.18,0.17-1.81,0.5c-0.62,0.33-1,0.71-1.12,1.12l-17.94,51.21H63.5l19.25-54.32c0.33-0.87,0.77-1.71,1.31-2.52
			c0.54-0.81,1.21-1.54,2.02-2.18c0.81-0.64,1.75-1.15,2.83-1.53c1.08-0.37,2.33-0.56,3.74-0.56c1.41,0,2.64,0.19,3.68,0.56
			c1.04,0.37,1.95,0.88,2.74,1.53c0.79,0.64,1.46,1.37,2.02,2.18c0.56,0.81,1.05,1.65,1.46,2.52l1.87,3.74l1.87-3.74
			c0.46-0.87,0.97-1.71,1.53-2.52c0.56-0.81,1.22-1.54,1.99-2.18c0.77-0.64,1.67-1.15,2.71-1.53c1.04-0.37,2.26-0.56,3.68-0.56
			c1.37,0,2.61,0.19,3.71,0.56c1.1,0.37,2.06,0.88,2.87,1.53c0.81,0.64,1.49,1.37,2.06,2.18c0.56,0.81,0.99,1.65,1.28,2.52
			l19.25,54.32h-8.29L119.13,78c-0.12-0.41-0.5-0.79-1.12-1.12c-0.62-0.33-1.23-0.5-1.81-0.5c-0.66,0-1.27,0.17-1.81,0.5
			c-0.54,0.33-0.89,0.71-1.06,1.12L104.43,101.86z M104.43,129.21l-11.77-31.4l-10.34,31.4h-8.29L91.1,79.56
			c0.08-0.25,0.29-0.47,0.62-0.65c0.33-0.19,0.64-0.28,0.93-0.28c0.29,0,0.59,0.09,0.9,0.28c0.31,0.19,0.51,0.4,0.59,0.65
			l10.28,28.35l10.28-28.35c0.08-0.25,0.28-0.47,0.59-0.65c0.31-0.19,0.61-0.28,0.9-0.28c0.29,0,0.6,0.09,0.93,0.28
			c0.33,0.19,0.54,0.4,0.62,0.65l17.07,49.65h-7.97l-10.65-31.4L104.43,129.21z"/>
		<path class="st3" d="M173.82,76.38c-1.7,0-3.25,0.29-4.64,0.87c-1.39,0.58-2.58,1.39-3.55,2.43c-0.98,1.04-1.73,2.27-2.27,3.71
			c-0.54,1.43-0.81,3-0.81,4.7c0,1.79,0.31,3.34,0.93,4.67c0.62,1.33,1.42,2.47,2.4,3.43c0.98,0.96,2.07,1.71,3.27,2.27
			c1.2,0.56,2.39,0.94,3.55,1.15c1.12,0.21,2.35,0.49,3.68,0.84c1.33,0.35,2.55,0.87,3.68,1.56c1.12,0.69,2.06,1.61,2.8,2.77
			c0.75,1.16,1.12,2.64,1.12,4.42c0,1.58-0.25,2.96-0.75,4.14c-0.5,1.18-1.18,2.17-2.06,2.96c-0.87,0.79-1.88,1.38-3.02,1.78
			c-1.14,0.39-2.36,0.59-3.64,0.59h-21.12v-8.29h20.37c0.33,0,0.59-0.11,0.78-0.34c0.19-0.23,0.28-0.47,0.28-0.72
			c0-0.58-0.25-0.98-0.75-1.18c-0.12-0.04-0.62-0.15-1.49-0.31c-0.87-0.17-1.86-0.37-2.96-0.62c-1.1-0.25-2.19-0.53-3.27-0.84
			c-1.08-0.31-1.91-0.63-2.49-0.97c-1.2-0.66-2.39-1.49-3.55-2.49c-1.16-1-2.19-2.19-3.08-3.58c-0.89-1.39-1.61-3.01-2.15-4.86
			c-0.54-1.85-0.81-3.98-0.81-6.39c0-2.78,0.51-5.4,1.53-7.85c1.02-2.45,2.4-4.57,4.14-6.35c1.74-1.79,3.81-3.2,6.2-4.24
			c2.39-1.04,4.95-1.56,7.69-1.56h20.62v8.29H173.82z M174.13,86.97c-0.33,0-0.59,0.1-0.78,0.31c-0.19,0.21-0.28,0.46-0.28,0.75
			c0,0.25,0.06,0.49,0.19,0.72c0.12,0.23,0.31,0.36,0.56,0.4c0.12,0.04,0.61,0.16,1.46,0.34c0.85,0.19,1.82,0.4,2.9,0.65
			c1.08,0.25,2.17,0.53,3.27,0.84c1.1,0.31,1.94,0.61,2.52,0.9c1.25,0.71,2.47,1.56,3.68,2.55c1.2,1,2.28,2.19,3.24,3.58
			c0.96,1.39,1.72,3.01,2.3,4.86c0.58,1.85,0.87,3.96,0.87,6.32c0,2.83-0.51,5.45-1.53,7.88c-1.02,2.43-2.4,4.54-4.14,6.32
			c-1.74,1.79-3.81,3.2-6.2,4.24c-2.39,1.04-4.95,1.56-7.69,1.56h-21.12v-8.29h21.12c1.74,0,3.33-0.29,4.77-0.87
			c1.43-0.58,2.67-1.39,3.71-2.43c1.04-1.04,1.84-2.27,2.4-3.71c0.56-1.43,0.84-3,0.84-4.7c0-2.16-0.39-3.92-1.18-5.29
			c-0.79-1.37-1.77-2.46-2.93-3.27c-1.16-0.81-2.42-1.41-3.77-1.81c-1.35-0.39-2.59-0.72-3.71-0.97c-1.25-0.25-2.46-0.59-3.64-1.03
			c-1.18-0.44-2.23-1.03-3.15-1.78c-0.91-0.75-1.65-1.68-2.21-2.8c-0.56-1.12-0.84-2.51-0.84-4.17c0-1.58,0.23-2.96,0.69-4.14
			c0.46-1.18,1.09-2.17,1.9-2.96c0.81-0.79,1.76-1.38,2.87-1.78c1.1-0.39,2.29-0.59,3.58-0.59h20.62v8.29L174.13,86.97z"/>
	</g>
</g>
</svg>
