<?xml version="1.0" encoding="utf-8"?>
<!-- Generator: Adobe Illustrator 25.0.0, SVG Export Plug-In . SVG Version: 6.00 Build 0)  -->
<svg version="1.1" xmlns="http://www.w3.org/2000/svg" xmlns:xlink="http://www.w3.org/1999/xlink" x="0px" y="0px"
	 viewBox="0 0 256 256" style="enable-background:new 0 0 256 256;" xml:space="preserve">
<style type="text/css">
	.st0{fill:#FFFFFF;}
	.st1{fill:none;stroke:#BFBFBF;stroke-width:2;stroke-miterlimit:10;}
	.st2{fill:#4152AB;}
	.st3{fill:#EB2D15;}
	.st4{fill:none;stroke:#4152AB;stroke-width:3;stroke-miterlimit:10;}
</style>
<g id="Layer_1_1_">
	<rect x="0" y="0" class="st0" width="256" height="256"/>
</g>
<g id="Layer_2_1_">
	<g>
		<line class="st1" x1="0" y1="42.44" x2="256" y2="42.44"/>
		<line class="st1" x1="0" y1="85.58" x2="256" y2="85.58"/>
		<line class="st1" x1="0" y1="128.73" x2="256" y2="128.73"/>
		<line class="st1" x1="0" y1="171.88" x2="256" y2="171.88"/>
		<line class="st1" x1="0" y1="215.02" x2="256" y2="215.02"/>
	</g>
	<g>
		<line class="st1" x1="214.28" y1="0" x2="214.28" y2="256"/>
		<line class="st1" x1="171.13" y1="0" x2="171.13" y2="256"/>
		<line class="st1" x1="127.99" y1="0" x2="127.99" y2="256"/>
		<line class="st1" x1="84.84" y1="0" x2="84.84" y2="256"/>
		<line class="st1" x1="41.69" y1="0" x2="41.69" y2="256"/>
	</g>
</g>
<g id="Layer_3">
	<g>
		<path class="st2" d="M78.56,74.71c-1.36,0-2.6,0.23-3.71,0.7c-1.11,0.47-2.06,1.11-2.84,1.94c-0.78,0.83-1.39,1.82-1.82,2.96
			c-0.43,1.14-0.65,2.4-0.65,3.76c0,1.43,0.25,2.67,0.75,3.73c0.5,1.06,1.14,1.97,1.92,2.74c0.78,0.76,1.65,1.37,2.61,1.82
			c0.96,0.45,1.91,0.76,2.84,0.92c0.9,0.17,1.87,0.39,2.94,0.67c1.06,0.28,2.04,0.7,2.94,1.24c0.9,0.55,1.64,1.29,2.24,2.22
			c0.6,0.93,0.9,2.11,0.9,3.53c0,1.26-0.2,2.36-0.6,3.31c-0.4,0.95-0.95,1.73-1.64,2.36c-0.7,0.63-1.5,1.1-2.41,1.42
			c-0.91,0.32-1.88,0.47-2.91,0.47H62.23v-6.62h16.28c0.27,0,0.47-0.09,0.62-0.27c0.15-0.18,0.22-0.37,0.22-0.57
			c0-0.46-0.2-0.78-0.6-0.95c-0.1-0.03-0.5-0.12-1.19-0.25c-0.7-0.13-1.49-0.3-2.36-0.5c-0.88-0.2-1.75-0.42-2.61-0.67
			c-0.86-0.25-1.53-0.51-1.99-0.77c-0.96-0.53-1.91-1.19-2.84-1.99c-0.93-0.8-1.75-1.75-2.46-2.86c-0.71-1.11-1.29-2.41-1.72-3.88
			c-0.43-1.48-0.65-3.18-0.65-5.1c0-2.22,0.41-4.31,1.22-6.27c0.81-1.96,1.92-3.65,3.31-5.08c1.39-1.43,3.04-2.56,4.95-3.39
			c1.91-0.83,3.96-1.24,6.15-1.24h16.48v6.62H78.56z M78.81,83.18c-0.27,0-0.47,0.08-0.62,0.25c-0.15,0.17-0.22,0.37-0.22,0.6
			c0,0.2,0.05,0.39,0.15,0.57c0.1,0.18,0.25,0.29,0.45,0.32c0.1,0.03,0.49,0.12,1.17,0.27c0.68,0.15,1.45,0.32,2.31,0.52
			c0.86,0.2,1.73,0.42,2.61,0.67c0.88,0.25,1.55,0.49,2.02,0.72c1,0.56,1.97,1.24,2.94,2.04c0.96,0.8,1.83,1.75,2.59,2.86
			c0.76,1.11,1.38,2.41,1.84,3.88c0.46,1.48,0.7,3.16,0.7,5.05c0,2.26-0.41,4.36-1.22,6.3c-0.81,1.94-1.92,3.63-3.31,5.05
			c-1.39,1.43-3.05,2.56-4.95,3.38c-1.91,0.83-3.96,1.24-6.15,1.24H62.23v-6.62h16.88c1.39,0,2.66-0.23,3.81-0.7
			c1.14-0.46,2.13-1.11,2.96-1.94c0.83-0.83,1.47-1.82,1.92-2.96c0.45-1.14,0.67-2.4,0.67-3.76c0-1.72-0.32-3.14-0.95-4.23
			c-0.63-1.1-1.41-1.97-2.34-2.61c-0.93-0.65-1.93-1.13-3.01-1.44c-1.08-0.31-2.07-0.57-2.96-0.77c-1-0.2-1.97-0.47-2.91-0.82
			c-0.95-0.35-1.78-0.82-2.51-1.42c-0.73-0.6-1.32-1.34-1.77-2.24c-0.45-0.9-0.67-2.01-0.67-3.34c0-1.26,0.18-2.36,0.55-3.31
			c0.36-0.95,0.87-1.73,1.52-2.36c0.65-0.63,1.41-1.1,2.29-1.42c0.88-0.31,1.83-0.47,2.86-0.47h16.48v6.62L78.81,83.18z"/>
		<path class="st2" d="M125.84,95.08l-7.12-19.07c-0.13-0.33-0.42-0.63-0.85-0.9c-0.43-0.27-0.91-0.4-1.44-0.4
			c-0.47,0-0.95,0.13-1.44,0.4c-0.5,0.27-0.8,0.56-0.9,0.9l-14.34,40.92h-6.62l15.38-43.41c0.26-0.7,0.61-1.37,1.05-2.02
			c0.43-0.65,0.97-1.23,1.62-1.74c0.65-0.51,1.4-0.92,2.27-1.22c0.86-0.3,1.86-0.45,2.99-0.45c1.13,0,2.11,0.15,2.94,0.45
			c0.83,0.3,1.56,0.71,2.19,1.22c0.63,0.52,1.17,1.1,1.62,1.74c0.45,0.65,0.84,1.32,1.17,2.02l1.49,2.99l1.49-2.99
			c0.37-0.7,0.77-1.37,1.22-2.02s0.98-1.23,1.59-1.74c0.61-0.51,1.34-0.92,2.17-1.22c0.83-0.3,1.81-0.45,2.94-0.45
			c1.1,0,2.08,0.15,2.96,0.45c0.88,0.3,1.64,0.71,2.29,1.22c0.65,0.52,1.19,1.1,1.64,1.74s0.79,1.32,1.02,2.02l15.38,43.41h-6.62
			l-14.34-40.92c-0.1-0.33-0.4-0.63-0.9-0.9c-0.5-0.27-0.98-0.4-1.44-0.4c-0.53,0-1.01,0.13-1.44,0.4c-0.43,0.27-0.71,0.56-0.85,0.9
			L125.84,95.08z M125.84,116.93l-9.41-25.09l-8.26,25.09h-6.62l13.64-39.68c0.07-0.2,0.23-0.37,0.5-0.52
			c0.27-0.15,0.51-0.22,0.75-0.22c0.23,0,0.47,0.07,0.72,0.22c0.25,0.15,0.41,0.32,0.47,0.52l8.21,22.65l8.21-22.65
			c0.07-0.2,0.22-0.37,0.47-0.52c0.25-0.15,0.49-0.22,0.72-0.22c0.23,0,0.48,0.07,0.75,0.22c0.27,0.15,0.43,0.32,0.5,0.52
			l13.64,39.68h-6.37l-8.51-25.09L125.84,116.93z"/>
		<path class="st2" d="M177.29,74.71c-1.36,0-2.6,0.23-3.71,0.7c-1.11,0.47-2.06,1.11-2.84,1.94c-0.78,0.83-1.39,1.82-1.82,2.96
			c-0.43,1.14-0.65,2.4-0.65,3.76c0,1.43,0.25,2.67,0.75,3.73c0.5,1.06,1.14,1.97,1.92,2.74c0.78,0.76,1.65,1.37,2.61,1.82
			c0.96,0.45,1.91,0.76,2.84,0.92c0.9,0.17,1.87,0.39,2.94,0.67c1.06,0.28,2.04,0.7,2.94,1.24c0.9,0.55,1.64,1.29,2.24,2.22
			c0.6,0.93,0.9,2.11,0.9,3.53c0,1.26-0.2,2.36-0.6,3.31c-0.4,0.95-0.95,1.73-1.64,2.36c-0.7,0.63-1.5,1.1-2.41,1.42
			c-0.91,0.32-1.88,0.47-2.91,0.47h-16.88v-6.62h16.28c0.27,0,0.47-0.09,0.62-0.27c0.15-0.18,0.22-0.37,0.22-0.57
			c0-0.46-0.2-0.78-0.6-0.95c-0.1-0.03-0.5-0.12-1.19-0.25c-0.7-0.13-1.49-0.3-2.36-0.5c-0.88-0.2-1.75-0.42-2.61-0.67
			c-0.86-0.25-1.53-0.51-1.99-0.77c-0.96-0.53-1.91-1.19-2.84-1.99c-0.93-0.8-1.75-1.75-2.46-2.86c-0.71-1.11-1.29-2.41-1.72-3.88
			c-0.43-1.48-0.65-3.18-0.65-5.1c0-2.22,0.41-4.31,1.22-6.27c0.81-1.96,1.92-3.65,3.31-5.08c1.39-1.43,3.04-2.56,4.95-3.39
			c1.91-0.83,3.96-1.24,6.15-1.24h16.48v6.62H177.29z M177.54,83.18c-0.27,0-0.47,0.08-0.62,0.25c-0.15,0.17-0.22,0.37-0.22,0.6
			c0,0.2,0.05,0.39,0.15,0.57c0.1,0.18,0.25,0.29,0.45,0.32c0.1,0.03,0.49,0.12,1.17,0.27c0.68,0.15,1.45,0.32,2.31,0.52
			c0.86,0.2,1.73,0.42,2.61,0.67c0.88,0.25,1.55,0.49,2.02,0.72c1,0.56,1.97,1.24,2.94,2.04c0.96,0.8,1.83,1.75,2.59,2.86
			c0.76,1.11,1.38,2.41,1.84,3.88c0.46,1.48,0.7,3.16,0.7,5.05c0,2.26-0.41,4.36-1.22,6.3c-0.81,1.94-1.92,3.63-3.31,5.05
			c-1.39,1.43-3.05,2.56-4.95,3.38c-1.91,0.83-3.96,1.24-6.15,1.24h-16.88v-6.62h16.88c1.39,0,2.66-0.23,3.81-0.7
			c1.14-0.46,2.13-1.11,2.96-1.94c0.83-0.83,1.47-1.82,1.92-2.96s0.67-2.4,0.67-3.76c0-1.72-0.32-3.14-0.95-4.23
			c-0.63-1.1-1.41-1.97-2.34-2.61c-0.93-0.65-1.93-1.13-3.01-1.44c-1.08-0.31-2.07-0.57-2.96-0.77c-1-0.2-1.97-0.47-2.91-0.82
			s-1.78-0.82-2.51-1.42c-0.73-0.6-1.32-1.34-1.77-2.24c-0.45-0.9-0.67-2.01-0.67-3.34c0-1.26,0.18-2.36,0.55-3.31
			c0.36-0.95,0.87-1.73,1.52-2.36c0.65-0.63,1.41-1.1,2.29-1.42c0.88-0.31,1.83-0.47,2.86-0.47h16.48v6.62L177.54,83.18z"/>
	</g>
	<g>
		<g>
			<path class="st3" d="M38.73,146.67h-6.06v14.03c0,3.89-0.13,4.85,8.1,5.36v1.09H19.53v-1.09c7.14-0.51,6.95-1.53,6.95-5.36
				v-29.66c0-3.76,0.19-4.85-6.95-5.36v-1.08h20.1c11.61,0,16.97,4.53,16.97,10.72C56.59,142.14,50.79,146.67,38.73,146.67z
				 M39.37,125.87c-5.61,0-6.7,0.64-6.7,3.7v15.82h5.93c6.76,0,10.97-1.72,10.97-9.83C49.58,129.06,46.2,125.87,39.37,125.87z"/>
			<path class="st3" d="M54.98,167.15v-1.09c5.87-0.51,6.12-1.59,6.12-4.78v-30.62c0-4.02,0-4.59-6.12-4.98v-1.08
				c4.27-0.13,8.74-0.45,12.06-0.83v37.51c0,3.19,0.32,4.27,6.19,4.78v1.09H54.98z"/>
			<path class="st3" d="M98.57,167.78v-9.12c-2.74,6-6.51,9.31-11.99,9.31c-6.51,0-8.74-4.21-8.74-11.48v-13.27
				c0-4.02-0.06-4.53-6.57-4.91v-1.02c5.23-0.13,9.82-0.45,12.5-0.77v21.5c0,5.17,1.28,8.1,4.47,8.1c4.4,0,10.33-4.91,10.33-16.78
				v-6.12c0-4.02-0.13-4.53-6.38-4.91v-1.02c4.79-0.13,9.06-0.38,12.31-0.77v24.75c0,3.19,0.26,4.27,6.12,4.78v1.09
				C104.82,167.4,100.74,167.53,98.57,167.78z"/>
			<path class="st3" d="M126.71,167.98c-2.55,0-5.42-0.83-7.46-2.17c-1.21-0.83-2.17-1.6-2.62-1.6c-0.64,0-0.89,1.28-1.59,3.57
				h-1.09v-13.65h1.09c2.3,8.36,6.32,12.57,11.74,12.57c4.21,0,7.14-2.68,7.14-6.12c0-2.49-1.79-4.15-5.23-5.29
				c-8.04-2.68-13.84-4.02-13.84-10.02c0-4.4,4.27-8.74,10.78-8.74c5.3,0,7.72,2.62,8.49,2.62c0.64,0,0.89-0.76,1.34-2.17h1.02
				v11.16h-1.02c-1.02-6.7-4.79-10.34-9.95-10.34c-3.13,0-5.87,1.98-5.87,4.72c0,5.04,10.91,5.55,15.5,8.74
				c2.3,1.59,3.57,3.95,3.57,6.83C138.71,163.25,133.79,167.98,126.71,167.98z"/>
		</g>
		<g>
			<path class="st2" d="M193.86,146.54v-1.08h-19.78v1.08c6.89,0.51,6.63,1.53,6.63,5.3v2.68c0,8.29-4.27,12.18-11.16,12.18
				c-8.1,0-12.12-6.95-12.12-20.8c0-13.91,4.21-20.86,12.63-20.86c6.95,0,11.23,4.85,14.29,15.69h1.08l-0.13-16.52h-1.09
				c-0.77,2.49-1.53,4.08-2.36,4.08c-0.96,0-1.91-0.83-3.25-1.79c-2.55-1.79-5.49-2.74-8.55-2.74c-10.33,0-19.65,10.91-19.65,22.26
				c0,11.04,8.99,21.95,19.26,21.95c3.7,0,7.46-1.6,9.7-3.95c1.59-1.66,2.62-2.68,3.32-2.68c1.53,0,2.23,2.36,3.13,6.25h1.08v-15.76
				C186.91,148.07,186.72,147.05,193.86,146.54z"/>
			<path class="st2" d="M226.52,158.66l-10.08-15.56l3.7-5.8c5.36-8.36,9.19-10.72,14.35-11.61v-1.08h-18.37v1.08
				c3.96,0.26,6.25,1.21,6.25,3.13c0,2.11-1.47,4.21-3.32,7.02l-3.7,5.68l-6.38-9.82c-0.83-1.28-1.72-2.42-1.72-3.76
				c0-1.21,2.1-1.79,5.23-2.23v-1.08h-19.46v1.08c4.91,0.57,5.93,1.6,8.74,6l9.12,14.23l-6.44,9.38
				c-4.34,6.32-6.89,9.57-13.33,10.78v1.09h18.95v-1.09c-4.34-0.25-6.7-1.34-6.7-3.57c0-2.17,1.09-4.15,2.68-6.44l5.87-8.55
				l7.85,11.93c1.66,2.55,2.04,4.15,2.04,4.27c0,1.85-2.87,1.91-5.68,2.36v1.09h20.35v-1.09
				C231.49,165.62,230.35,164.53,226.52,158.66z"/>
		</g>
	</g>
	<line class="st4" x1="19.21" y1="174.34" x2="236.79" y2="174.34"/>
</g>
</svg>
