<?xml version="1.0" encoding="utf-8"?>
<!-- Generator: Adobe Illustrator 25.0.1, SVG Export Plug-In . SVG Version: 6.00 Build 0)  -->
<svg version="1.1" xmlns="http://www.w3.org/2000/svg" xmlns:xlink="http://www.w3.org/1999/xlink" x="0px" y="0px"
	 viewBox="0 0 640 225" style="enable-background:new 0 0 640 225;" xml:space="preserve">
<style type="text/css">
	.st0{fill:url(#SVGID_1_);}
	.st1{fill:#000200;}
	.st2{fill:#FD8E00;}
</style>
<g id="Layer_1">
	<linearGradient id="SVGID_1_" gradientUnits="userSpaceOnUse" x1="320" y1="225" x2="320" y2="-9.094947e-13">
		<stop  offset="0" style="stop-color:#F4AABB"/>
		<stop  offset="1" style="stop-color:#5FCEF9"/>
	</linearGradient>
	<rect class="st0" width="640" height="225"/>
</g>
<g id="Layer_2">
	<g>
		<g>
			<g>
				<path class="st1" d="M455.83,70.45h2.39V134c0,7.21-1.75,13.07-5.24,17.58c-3.57,4.51-9.61,6.8-18.11,6.88
					c-7.88-0.08-13.64-2.33-17.29-6.76c-3.65-4.38-5.44-9.96-5.36-16.74v-5.17h2.39v5.18c0.08,14.09,6.83,21.14,20.26,21.14
					c6.83,0.08,12.03-1.65,15.6-5.18c3.57-3.61,5.36-9.85,5.36-18.72V70.45z"/>
				<path class="st1" d="M549.72,70.45h4.03v85.94h-2.43V73.38h-0.24l-36.78,83.01h-2.67l-36.72-83.01h-0.24v83.01h-2.44V70.45h3.97
					l36.66,82.89h0.24L549.72,70.45z"/>
				<path class="st1" d="M568.69,154.05h55.56v2.35h-58v-44.84V70.45h57.53v2.35h-55.09v37.69h51.83v2.34h-51.83V154.05z"/>
			</g>
		</g>
		<g>
			<g>
				<g>
					<path class="st1" d="M54.79,103.53H38.11c-3.49,0-5.29-2.44-5.29-7.33v-0.78c0-5,1.8-7.44,5.29-7.44h32.35V69.86H32.42
						c-9.68,0-16.67,5.67-16.67,16.78v17.44c0,11.11,6.99,17.66,16.67,17.66h16.67c3.49,0,5.29,2.44,5.29,7.33v1.89
						c0,5-1.8,7.44-5.29,7.44H16.75v18.11h38.04c9.68,0,16.67-5.67,16.67-16.78v-18.55C71.46,110.08,64.47,103.53,54.79,103.53z"/>
					<path class="st1" d="M197.6,133.43c0,5.04-2.4,7.06-5.66,7.06h-10.93c-4.03,0-6.42-2.02-6.42-7.06V91.5h-14.86v47.65
						c0,11.44,7.28,17.38,16.39,17.38h19.94c9.11,0,16.39-5.94,16.39-17.38V91.5H197.6V133.43z"/>
					<polygon class="st1" points="224.68,156.52 240.69,156.52 240.69,124.01 240.69,91.5 224.68,91.5 224.68,124.01 					"/>
					<path class="st1" d="M286.68,108.88v47.65h14.68V114.7c0-5.16,2.37-7.06,6.35-7.06h5.78V91.5h-10.61
						C293.88,91.5,286.68,97.44,286.68,108.88z"/>
					<path class="st1" d="M358.42,91.5h-20.87c-9.4,0-16.91,5.16-16.91,16.59v30.6c0,11.66,7.32,17.83,16.72,17.83h36v-16.03h-29.08
						c-4.85,0-8.11,0-8.11-3.14l38.67-15.36v-13.45C374.84,97.1,367.82,91.5,358.42,91.5z M335.87,121.21v-5.38
						c0-4.6,0.79-8.18,7.32-8.18h11.47c4.45,0,4.85,1.57,4.85,4.04L335.87,121.21z"/>
					<polygon class="st1" points="384.58,69.86 384.58,113.42 384.58,156.52 400.58,156.52 400.58,113.42 400.58,69.86 					"/>
					<path class="st1" d="M252.65,108.88v47.65h14.68V114.7c0-5.16,2.37-7.06,6.35-7.06h5.78V91.5h-10.61
						C259.85,91.5,252.65,97.44,252.65,108.88z"/>
				</g>
			</g>
			<g>
				<path class="st1" d="M159,159.29c0,0,1.16,2.39,1.16,9.21s-5.18,13.18-5.18,13.18s0.65-8.88-1.65-11.53
					c0,6.35-4.12,11.21-8.12,11.21s-7.65-8.56-7.65-18.44c0-5.74,1.97-15.97-4.62-21.61c-5.43-4.66-17.97-5.74-17.97-5.74
					s7.76,12.47,7.76,19.76s-9.18,16.71-9.18,30.35c0,13.65,12,26.12,28,26.12s26.5-13.68,26.5-27.18
					C168.08,171.68,159,159.29,159,159.29z"/>
				<path class="st1" d="M113.81,157.91c1.76,0,3.76,2.59,3.76,2.59s0.94-2.71,0.94-5.06c0-2.35-3.47-12.92-5.59-12.92h-1.69
					c-3.54,0-7.54-0.11-7.54-7V117.5c0-5,2.42-7,5.58-7h10.61c3.91,0,6.23,2,6.23,7v15l1.71,0.68c2.14,0.91,5.82,2.7,8.33,5.08
					c3.72,3.53,5.18,6.12,5.29,9.76c0.32,10.29,1.65,19.06,1.65,19.06l6.94-14.35c0,0-1.95,0.94-4.35,0.94c0-2.59,2.47-8.59,2.47-12
					c0-3.41,0.41-19.97,0.41-19.97s-6.62,14.29-7.12,6.79c-0.27-4.11,4.82-15.53,4.82-20s-8-13.09-8-19.97
					c0,4.71-2.4,10.41-2.4,10.41s-0.95-1.03-2.04-1.74c0,0-1.04-2.91-1.68-4.94c-1.18-3.76-4.94-5.65-7.29-5.65
					c-2.35,0-5.65-2.59-5.65-2.59s0,0,0,2.35c0,2.35,1.82,4.24,1.82,5.41s-0.66,2.82-0.66,2.82l-3.75-7.29l-1.88,4.24l-4.71-8.94
					c0,0-2.74,11.12-4,11.12s-3.24-3.62-9.79-3.62c0,0,1.59,1.68,1.59,4.06v2.04c-0.35,0.17-0.69,0.36-1.03,0.55
					c-0.16,0.09-0.34,0.19-0.53,0.31c0,0,0,0,0,0c-2.08,1.25-5.58,4.26-6.62,10.55c-0.24,1.31-0.37,2.71-0.37,4.21v3.5
					c-2.19-0.34-1.41-19.4-1.41-19.4s-4.59,9.35-4.59,20.91c0,9.62,7.12,20.62,5.82,21.97c-1.29,1.35-6.35-6.68-6.35-6.68
					s1.43,11.59,5.29,16.82c4,5.41,10.71,11.76,10.71,11.76l0-3.17c0,0,3.2,0.41,4.88,0.41c1.68,0,5.15,0,5.15,0l5.74,7.24
					C114.52,165.21,112.05,157.91,113.81,157.91z"/>
			</g>
			<path class="st2" d="M232.68,63.96c-5.54,0-10.14,4.6-10.14,10.14c0,5.54,4.6,10.14,10.14,10.14c5.54,0,10.14-4.6,10.14-10.14
				C242.82,68.56,238.22,63.96,232.68,63.96z"/>
		</g>
	</g>
</g>
</svg>
