<?xml version="1.0" encoding="utf-8"?>
<!-- Generator: Adobe Illustrator 24.2.1, SVG Export Plug-In . SVG Version: 6.00 Build 0)  -->
<svg version="1.1" id="Layer_1" xmlns="http://www.w3.org/2000/svg" xmlns:xlink="http://www.w3.org/1999/xlink" x="0px" y="0px"
	 viewBox="0 0 200 50" style="enable-background:new 0 0 200 50;" xml:space="preserve">
<style type="text/css">
	.st0{fill:#ED1C24;}
</style>
<g>
	<path class="st0" d="M27.27,35.75c0,3.46-1.32,6.52-3.97,9.17c-2.65,2.65-5.7,3.97-9.17,3.97s-6.49-1.32-9.08-3.97
		c-2.59-2.65-3.94-5.7-4.06-9.17h7.17c0.2,1.59,0.86,2.99,1.97,4.18c1.11,1.19,2.45,1.79,4,1.79c1.79,0,3.26-0.76,4.42-2.27
		c1.03-1.39,1.55-3.02,1.55-4.9c0-1.55-0.61-2.94-1.82-4.15c-1.21-1.21-2.6-1.82-4.15-1.82c-3.46,0-6.52-1.32-9.17-3.97
		C2.32,21.97,1,18.91,1,15.45v-1.19c0-3.46,1.32-6.52,3.97-9.17c2.65-2.65,5.7-3.97,9.17-3.97s6.49,1.32,9.08,3.97
		c2.59,2.65,3.94,5.7,4.06,9.17h-7.16c-0.2-1.59-0.86-2.99-1.97-4.18c-1.12-1.19-2.45-1.79-4-1.79c-1.79,0-3.23,0.73-4.33,2.18
		c-1.1,1.45-1.64,3.12-1.64,4.99c0,1.55,0.61,2.94,1.82,4.15c1.21,1.21,2.6,1.82,4.15,1.82c3.46,0,6.52,1.32,9.17,3.97
		c2.65,2.65,3.97,5.7,3.97,9.17V35.75z"/>
	<path class="st0" d="M56.42,8.28h-9.55v40.6h-7.16V8.28h-9.55V1.12h26.27V8.28z"/>
	<path class="st0" d="M83.99,48.88H65.48c-1.27,0-2.39-0.48-3.34-1.43s-1.43-2.07-1.43-3.34V5.89c0-1.27,0.48-2.39,1.43-3.34
		s2.07-1.43,3.34-1.43h18.51v7.17H67.87v13.14h10.15v7.17H67.87v13.14h16.12V48.88z"/>
	<path class="st0" d="M112.55,48.88H94.04c-1.27,0-2.39-0.48-3.34-1.43c-0.96-0.96-1.43-2.07-1.43-3.34V1.12h7.17v40.6h16.12V48.88z
		"/>
	<path class="st0" d="M140.31,48.88H121.8c-1.27,0-2.39-0.48-3.34-1.43s-1.43-2.07-1.43-3.34V1.12h7.17v40.6h16.12V48.88z"/>
	<path class="st0" d="M179.5,48.88h-7.38l-3.01-10.75h-13.4l-3.03,10.75h-7.44l12.12-42.99c0.91-3.18,2.61-4.78,5.07-4.78
		c2.51,0,4.2,1.59,5.07,4.78L179.5,48.88z M167.1,30.97l-4.67-16.66l-4.64,16.66H167.1z"/>
	<g>
		<path class="st0" d="M197.53,48.88c-0.27,0-0.91-0.16-2.06-1.23c-0.99-0.91-1.97-1.84-2.95-2.76c-1.11-1.05-1.97-1.54-2.7-1.54
			c-0.44,0-0.86,0.18-1.22,0.53c-0.37,0.35-0.56,0.82-0.56,1.34c0,0.55,0.19,1.02,0.58,1.41c0.26,0.26,0.56,0.43,0.9,0.51v1.71
			c-0.77-0.11-1.44-0.46-2.03-1.07c-0.72-0.75-1.08-1.6-1.08-2.6c0-1,0.35-1.81,1.07-2.5c0.73-0.69,1.55-1.03,2.52-1.03
			c1.02,0,2.05,0.5,3.06,1.47c1.12,1.08,2.19,2.12,3.21,3.12l0.89,0.87l0.04-5.47h1.57v6.52c0,0.11-0.13,0.26-0.36,0.41
			C198.11,48.78,197.81,48.88,197.53,48.88"/>
		<path class="st0" d="M194.7,38.91c-0.23,0-0.87-0.11-2.59-0.87c-1.36-0.6-2.72-1.23-4.02-1.89c-0.97-0.49-1.45-0.74-1.68-0.86
			v-1.97l4.86,2.32V34.8c0-1.19,0.34-2.14,1.04-2.91c0.69-0.75,1.54-1.12,2.61-1.12c1.17,0,2.12,0.41,2.91,1.27
			c0.8,0.86,1.18,1.87,1.18,3.07c0,1.08-0.42,1.96-1.28,2.69C196.84,38.55,195.85,38.91,194.7,38.91 M195.01,32.53
			c-0.65,0-1.21,0.23-1.68,0.67c-0.47,0.45-0.71,1-0.71,1.63c0,0.63,0.26,1.17,0.77,1.62c0.49,0.43,1.02,0.65,1.57,0.65
			c0.7,0,1.25-0.22,1.66-0.64c0.4-0.42,0.6-0.97,0.6-1.65c0-0.7-0.23-1.26-0.68-1.68C196.12,32.74,195.6,32.53,195.01,32.53"/>
		<path class="st0" d="M192.79,28.67c-1.82,0-3.33-0.62-4.59-1.9c-1.27-1.28-1.89-2.74-1.89-4.46c0-1.68,0.62-3.12,1.89-4.41
			c1.27-1.28,2.7-1.9,4.36-1.9c1.66,0,3.1,0.56,4.4,1.72c1.29,1.14,1.91,2.58,1.91,4.4c0,1.79-0.55,3.3-1.69,4.62
			C196.06,28.03,194.62,28.67,192.79,28.67 M192.56,17.75c-1.16,0-2.21,0.45-3.12,1.35c-0.91,0.9-1.37,1.95-1.37,3.12
			c0,1.33,0.48,2.46,1.44,3.36c0.95,0.89,2.05,1.34,3.28,1.34c1.3,0,2.38-0.47,3.22-1.4c0.82-0.91,1.23-2.02,1.23-3.28
			c0-1.22-0.44-2.29-1.3-3.16C195.07,18.2,193.94,17.75,192.56,17.75"/>
		<path class="st0" d="M192.79,13.79c-1.82,0-3.33-0.62-4.59-1.9c-1.27-1.28-1.89-2.74-1.89-4.46c0-1.68,0.62-3.12,1.89-4.41
			c1.27-1.28,2.7-1.9,4.36-1.9c1.66,0,3.1,0.56,4.4,1.72c1.29,1.14,1.91,2.58,1.91,4.4c0,1.79-0.55,3.3-1.69,4.63
			C196.06,13.16,194.62,13.79,192.79,13.79 M192.56,2.88c-1.16,0-2.21,0.45-3.12,1.35c-0.91,0.9-1.37,1.95-1.37,3.12
			c0,1.33,0.48,2.46,1.44,3.36c0.95,0.89,2.05,1.34,3.28,1.34c1.3,0,2.38-0.47,3.22-1.4c0.82-0.91,1.23-2.02,1.23-3.28
			c0-1.22-0.44-2.29-1.3-3.16C195.07,3.32,193.94,2.88,192.56,2.88"/>
	</g>
</g>
</svg>
