<svg version="1.1" id="Layer_1" xmlns="http://www.w3.org/2000/svg" x="0" y="0" viewBox="0 0 264 64" style="enable-background:new 0 0 264 64" xml:space="preserve">
  <style>
    .st0,.st1{stroke:#fff;stroke-miterlimit:10}.st1{fill:#960606}
  </style>
  <path class="st0" d="M31 37.1c0 1.8-.2 3.4-.9 4.8s-1.6 2.6-2.8 3.6a12 12 0 0 1-4.1 2.2 17.4 17.4 0 0 1-8.7.4 19.7 19.7 0 0 1-5.1-1.8l-1.2-.8-.5-1c-.2-.3-.2-.8-.2-1.4V42l.2-.7.3-.4h.5c.2 0 .6.1 1.1.4a18.1 18.1 0 0 0 4.8 2.2 13 13 0 0 0 7 .1c.9-.3 1.6-.7 2.3-1.2.7-.6 1.2-1.2 1.5-2 .4-.8.6-1.7.6-2.7 0-1.1-.3-2-.8-2.8a7.5 7.5 0 0 0-2-2 17 17 0 0 0-2.7-1.7 344.3 344.3 0 0 0-6.4-3.1c-1-.6-2-1.3-2.7-2.2-.8-.8-1.5-1.8-2-2.9a9.8 9.8 0 0 1-.8-4c0-1.6.3-3 1-4.3a8.7 8.7 0 0 1 2.4-3.2c1-.8 2.2-1.5 3.7-1.9a15.7 15.7 0 0 1 12.8 1.7l.4.4.1.5.1.6v.9a9 9 0 0 1-.1 1.6c0 .2-.2.4-.3.5h-.3c-.3 0-.6 0-1-.3a25.8 25.8 0 0 0-4.2-2 10.3 10.3 0 0 0-5.8 0 6 6 0 0 0-2 1.2c-.5.5-1 1-1.2 1.7l-.3 2c0 1.2.2 2 .7 2.9.5.7 1.1 1.4 2 2 .8.6 1.7 1.1 2.8 1.6l3.2 1.5c1 .5 2.1 1 3.2 1.7 1 .6 2 1.3 2.8 2.1.8.9 1.4 1.8 2 3 .4 1 .7 2.4.7 3.9zM60 47.1v.4l-.4.3-.7.2a7.8 7.8 0 0 1-2.8-.2.7.7 0 0 1-.4-.3v-3.9c-1.6 1.7-3 2.9-4.6 3.7-1.5.7-3 1.1-4.5 1.1-1.8 0-3.3-.3-4.5-.9a7.8 7.8 0 0 1-3-2.4c-.7-1-1.2-2.2-1.5-3.5-.4-1.4-.5-3-.5-5V20l.5-.3.7-.1h2.4l.8.1.4.3v16c0 1.5.2 2.8.4 3.7a7 7 0 0 0 1 2.4c.5.7 1.1 1.2 1.8 1.6.7.3 1.6.5 2.5.5 1.2 0 2.5-.4 3.7-1.3 1.2-.9 2.5-2.1 3.8-3.8V20.4l.1-.4.4-.3.8-.1a12.7 12.7 0 0 1 2.4 0l.7.1.4.3.2.4v26.7zM93 33.4c0 2.3-.2 4.4-.7 6.3-.5 1.8-1.3 3.4-2.2 4.7a9.9 9.9 0 0 1-3.6 3 11.2 11.2 0 0 1-7.2.8 12 12 0 0 1-3.9-2l-2-1.8v13.3l-.1.4-.4.3-.7.2a10 10 0 0 1-3.2-.2c-.2 0-.3-.2-.4-.3V20l.4-.3.7-.1a9.4 9.4 0 0 1 2 0l.7.1.3.3.1.4V24a28 28 0 0 1 4.6-3.7 10.5 10.5 0 0 1 9.9 0c1.3.7 2.4 1.7 3.3 3 .8 1.3 1.5 2.8 1.9 4.6.4 1.7.6 3.5.6 5.5zm-5 .5-.3-4c-.2-1.2-.6-2.3-1-3.3-.6-1-1.3-1.8-2.1-2.4a6.3 6.3 0 0 0-5-.6 8 8 0 0 0-2 .9l-2 1.6c-.7.6-1.4 1.5-2.2 2.4v10.6c1.4 1.7 2.7 3 3.9 3.8 1.2.9 2.5 1.3 3.8 1.3 1.2 0 2.3-.3 3.2-.9.8-.5 1.6-1.3 2.1-2.3.6-1 1-2.1 1.2-3.3.3-1.3.4-2.5.4-3.8zM120 47.1c0 .3-.2.5-.3.6l-.7.2-1.2.1h-1.2l-.7-.3-.2-.6v-2.6a13.3 13.3 0 0 1-4 2.9c-1.3.7-2.9 1-4.5 1-1.4 0-2.6-.1-3.8-.5a8.2 8.2 0 0 1-2.9-1.6 7.2 7.2 0 0 1-1.9-2.6c-.4-1-.6-2.1-.6-3.4a8 8 0 0 1 1-4c.5-1 1.4-2 2.6-2.7 1.1-.7 2.5-1.2 4.2-1.6 1.6-.4 3.5-.6 5.6-.6h3.6v-2c0-1 0-2-.3-2.8s-.6-1.4-1-2c-.5-.5-1.1-.9-2-1.1a11.3 11.3 0 0 0-6.1 0 17.1 17.1 0 0 0-4.2 1.9c-.5.3-.9.4-1.1.4h-.4l-.3-.4-.2-.7-.1-.8.1-1.1c0-.3.2-.6.5-.9l1.4-.9a20.3 20.3 0 0 1 8-2c2 0 3.6.3 5 .7a8 8 0 0 1 3.2 2c.9.8 1.5 1.8 1.8 3 .4 1.3.6 2.8.6 4.4v18zM115 35H111c-1.4 0-2.5 0-3.5.3-1 .2-1.8.6-2.5 1a4.2 4.2 0 0 0-1.9 3.8c0 1.3.5 2.5 1.3 3.3 1 .8 2.1 1.2 3.7 1.2 1.3 0 2.5-.3 3.6-1 1-.6 2.2-1.6 3.4-3V35z"/>
  <path class="st1" d="m126.8 47.9 11.5-42.6h17.3l-1.2 4.8h-9.6l-3.6 13.5h9.5l-1.3 4.7h-9.5l-5.3 19.5h-7.8zM143.6 47.9l21-42.6h7.7l-2 42.6H163l.6-7h-8.7l-3.1 7h-8.2zM164 36l1.5-18.9-8.4 18.9h7zM184 5.3h7.3l-9.8 36.4v.1c0 .4.2.7.5 1 .4.2.8.3 1.3.3h4.1c1.6 0 2.5-.5 2.7-1.5l10-36.2h7.5L196.9 44c-.3 1.1-1 2-2.4 2.8a9.4 9.4 0 0 1-4.6 1h-10.7c-1.5 0-2.8-.3-4-1-1-.8-1.6-1.7-1.6-2.8v-.7l10.3-38zM204.2 32.5h7.4l-2.4 9.1v.2c0 .3.2.6.5.9.4.2.8.3 1.3.3h4.1c.7 0 1.3 0 1.8-.4.6-.3.9-.6 1-1l1.6-6 .1-.6c0-.8-.5-1.8-1.6-3l-3.8-4.7-4-5a7.2 7.2 0 0 1-1.7-4.4v-.3c0-.3 0-.7.2-1l1.9-7.4c.3-1.1 1.1-2 2.5-2.8a9 9 0 0 1 4.5-1h10.6a7 7 0 0 1 4 1c1.2.8 1.8 1.7 1.8 2.9l-.1.6-2.8 10.4h-7.5l2.4-8.8v-.2c0-.3-.1-.6-.5-.8-.4-.3-.9-.4-1.4-.4h-4c-.7 0-1.3.2-1.8.5-.5.2-.8.5-.9 1l-1.3 4.7-.1 1c0 1.4.7 2.9 2 4.4 5.1 5.5 7.8 8.6 8 9.3.8 1 1.2 2 1.2 3.1l-.3 1.7-2.3 8.2c-.3 1-1.1 2-2.4 2.8a9.4 9.4 0 0 1-4.6 1h-10.7c-1.5 0-2.8-.3-4-1-1-.8-1.5-1.7-1.5-2.8v-.7l2.8-10.8zM231.8 47.9 242.1 10h-5.4l1.3-4.8h18.5l-1.4 4.8h-5.3L239.6 48h-7.8z"/>
</svg>
