<svg xmlns="http://www.w3.org/2000/svg" viewBox="0 0 400 141.6" style="enable-background:new 0 0 400 141.6" xml:space="preserve">
  <style>
    .st0{fill:#3868a8}.st3,.st4,.st5{fill:#04d8f7;stroke:#000;stroke-width:2;stroke-miterlimit:10}.st4,.st5{fill:#03c802}.st5{fill:#f6c729}
  </style>
  <g id="svg1">
    <path class="st0" d="m137.6 54.1 8.5-10.6v-5.3l-16.5-12.9 5.1-6 7.7 1.1 2.6-6.1-14.6-1.5-10.1 11.6 11.9 11.1-1.8 11.4-12 4.7v2.5zM148.3 13.5h10.4c1 0 1.9.8 1.9 1.8v25.1h5.8V15.6c0-.6.6-1.2 1.2-1.2h5.1c.7 0 1.2.6 1.2 1.2V47l-6.8 6.4h-11.5l-7.3-9.3V13.5zM180 53.2V12.6h18.6l10.2 12v10.8c0 5.6-16.7 11.4-16.7 11.4v6.4h-12z"/>
    <path class="st0" d="m206.4 20.2 22-5.9v7.9l-8.9 3.3v4.7l8.9-1.1v6.7l-9.4 4.1 1.7 4.7 11.8-5 4.5 7.3-27.5 8.5z"/>
    <path class="st0" d="M247 54.7h-10.8V15.3l2.2-2.3h19.2l5.6 6.4v13.8l-5.4 4.3 12.7 16.6h-13.2L247 44.6zM117.4 81.7l-10.2-9.4H80l-3.3 3.2v56.8h16v-14.5l15 13.7h19.5l-9.8-49.8zm-28.5 21.7.7-18h11.3l4.8 7.6L89 103.4z"/>
    <path class="st0" d="m143.6 67.2-29.6.5-11 10.7 6.6 43.1 14.8 7.7 20.2-2.2 12.8-14.2v-34l-13.8-11.6zM132.9 107l-9.3-8.1 14-15 7 7.7L133 107zM245.3 131.4h-11.6l-11.9-56.8 17.7-3.1 7.6 29.4 7.4-17.3 6.4 12.2L271.7 72l15.3 9.8-18.5 48.6-10-.2-5.8-13.4z"/>
    <path class="st0" d="m307.7 71.9 19 57.9-24.4 1.6v-11.2l-17.9-4.8-2.5 7.1-14.5-3.7 22.5-46.9z"/>
    <path class="st0" d="M341.8 132.8h-16.1V75.2l2.8-3.3h30.4l6.8 8.8V102l-8.8 7 19.7 22.9h-20.2L341.8 118z"/>
    <path id="path3992_00000167391130643845728210000007806271522101469841_" class="st0" d="m39.4 64.5-6.3 62.2 23.9 3 13.8-5.7 2-16-6.8-8.5 7.7-3 2.1-19.7-10-8.8-26.4-3.5zm23.2 18-.2 3-7.3 5.2-3.2-.4.9-8.8 9.8 1zM49 113.3l1.2-8.8 3.2.4 5.9 6.8-.5 3-9.8-1.4z"/>
    <path class="st0" d="m181.4 130.9 12-16.2v-8.1l-23.2-19.7 7.2-9.1 10.9 1.7 3.7-9.3-20.8-2.3L157 85.5l16.9 17-2.6 17.4-17 7.1v3.9z"/>
  </g>
  <g id="svg2" inkscape:version="0.47 r22583" sodipodi:docname="draw1.svg" xmlns:cc="http://creativecommons.org/ns#" xmlns:dc="http://purl.org/dc/elements/1.1/" xmlns:inkscape="http://www.inkscape.org/namespaces/inkscape" xmlns:rdf="http://www.w3.org/1999/02/22-rdf-syntax-ns#" xmlns:sodipodi="http://sodipodi.sourceforge.net/DTD/sodipodi-0.dtd" xmlns:svg="http://www.w3.org/2000/svg">
    <path d="M143.2 63.8H119l-11 10.7v42.4l12.9 7.3 20.8-2 12.7-14.3V77l-11.2-13.2zm-12 36.5-8.2-6.7 7.2-7.6 7.3 5.7-6.3 8.6z" style="fill:#f73738;stroke:#000;stroke-width:2;stroke-miterlimit:4.1"/>
    <path style="fill:#f73738;stroke:#000;stroke-width:2;stroke-miterlimit:10" d="m135.7 50.5 8.5-10.6v-5.3l-15.9-12.5 3.8-3.8h7.6l4.5-7.6h-17l-8.7 10.1v3.7l11 11.6v3.2l-3.6 3.1-4.8.3-4.5 5.7v2.1z"/>
    <path class="st3" d="M146 10.7h9.8c1 0 1.8.8 1.8 1.8v24.2h6.6V13.4c0-.6.6-1.2 1.2-1.2h5.1c.7 0 1.2.6 1.2 1.2v27.8l-6.8 8.4h-13l-5.8-9.3V10.7zM201.4 17l20.6-4.8v8l-8.8 3.6v3.8l8.8-1V33l-9.4 4 1.7 4.6 11.9-4.8 4.4 7-27.5 8.3z"/>
    <path class="st4" d="m250.8 34.9 5.4-4.3V16.8L250 9.4h-18.5l-2.2 2.2v39.5H240V41l10.3 9.5h13.2l-12.7-15.6zm-10.5-6v-8.5h7.7l-7.7 8.6z"/>
    <path class="st5" d="M193.7 10h-17.6v40.5h12v-7S204 38.3 204 32.7V21.9l-10.2-12zM187 32.3v-8.6h7.7l-7.7 8.6zM102 103.5l8-6.2V77.4l-9.3-10.7H73.6L70.3 70v56.9h16v-14.6l15 13.8h19.5L102 103.5zm-15.4-8.6V82.5H98L86.6 95z"/>
    <path class="st3" d="m317 122.2-16.7-55.5h-12.9l-28.6 45.5 17 4 2.3-7.3 15.5 4.7v11.2l23.4-2.6zm-35.2-27.7 9-10.5 1 12.5-10-2z"/>
    <path class="st5" d="M240.1 124.8h-11.3l-11.6-56 17.3-3.1 7.3 29 7.2-17.1 6.3 12.1 10.5-23.5 14.9 9.7-18 47.9-9.7-.2-5.7-13.2z"/>
    <path class="st4" d="m347.8 102.8 8.8-7v-20l-9-10h-28.3l-2.7 3.2v57.6h16v-14.8l14.7 14h20.2l-19.7-23zM333 95.2v-14h11.4l-11.4 14z"/>
    <path id="path3992_00000183933378031673700480000009948780362275029660_" d="M36.4 59.6 30 121.7l23.8 3 13.9-5.6 2-16-6.9-8.5 7.7-3 2.2-19.8-10-8.7-26.4-3.5zm23.2 17.9-.3 3-7.3 5.3-3.2-.4 1-8.9 9.8 1zm-13.8 30.9 1.3-8.8 3.2.4 5.8 6.8-.5 3-9.8-1.4z" style="fill:#04d8f7;stroke:#000;stroke-width:2;stroke-miterlimit:4.1"/>
    <path class="st4" d="m178.8 125.4 12.1-16.2v-8.1L168.4 82l5.3-5.7h10.7l6.5-11.6h-24.1L154.4 80v5.8l15.6 17.6v4.9l-5.1 4.6-6.7.6-6.4 8.7v3.2z"/>
  </g>
</svg>
