<?xml version="1.0" encoding="UTF-8"?>
<svg xmlns="http://www.w3.org/2000/svg" viewBox="0 0 400 140">
  <defs>
    <style>
      .cls-1, .cls-2, .cls-3, .cls-4, .cls-5, .cls-6{stroke:#000;stroke-width:2px}
      .cls-1, .cls-6{fill:#f73738}
      .cls-2, .cls-3{fill:#04d8f7}
      .cls-2, .cls-6{stroke-miterlimit:4.1}
      .cls-4{fill:#f6c729}
      .cls-7{fill:#3868a8}
      .cls-5{fill:#03c802}
    </style>
  </defs>
  <g id="svg1">
    <path class="cls-7" d="M137.6,53.3l8.5-10.6v-5.3l-16.5-12.9,5.1-6,7.7,1.1,2.6-6.1-14.6-1.5-10.1,11.6,11.9,11.1-1.8,11.4-12,4.7v2.5h19.2ZM148.3,12.7h10.4c1,0,1.9.8,1.9,1.8v25.1h5.8V14.8c0-.6.6-1.2,1.2-1.2h5.1c.7,0,1.2.6,1.2,1.2v31.4l-6.8,6.4h-11.5l-7.3-9.3V12.7h0ZM180,52.4V11.8h18.6l10.2,12v10.8c0,5.6-16.7,11.4-16.7,11.4v6.4h-12.1Z"/>
    <path class="cls-7" d="M206.4,19.4l22-5.9v7.9l-8.9,3.3v4.7l8.9-1.1v6.7l-9.4,4.1,1.7,4.7,11.8-5,4.5,7.3-27.5,8.5-3.1-35.2Z"/>
    <path class="cls-7" d="M247,53.9h-10.8V14.5l2.2-2.3h19.2l5.6,6.4v13.8l-5.4,4.3,12.7,16.6h-13.2l-10.3-9.5v10.1ZM117.4,80.9l-10.2-9.4h-27.2l-3.3,3.2v56.8h16v-14.5l15,13.7h19.5l-9.8-49.8h0ZM88.9,102.6l.7-18h11.3l4.8,7.6-16.7,10.4h-.1Z"/>
    <path class="cls-7" d="M143.6,66.4l-29.6.5-11,10.7,6.6,43.1,14.8,7.7,20.2-2.2,12.8-14.2v-34s-13.8-11.6-13.8-11.6ZM132.9,106.2l-9.3-8.1,14-15,7,7.7-11.6,15.4h-.1ZM245.3,130.6h-11.6l-11.9-56.8,17.7-3.1,7.6,29.4,7.4-17.3,6.4,12.2,10.8-23.8,15.3,9.8-18.5,48.6-10-.2-5.8-13.4-7.4,14.6Z"/>
    <path class="cls-7" d="M307.7,71.1l19,57.9-24.4,1.6v-11.2l-17.9-4.8-2.5,7.1-14.5-3.7,22.5-46.9h17.8Z"/>
    <path class="cls-7" d="M341.8,132h-16.1v-57.6l2.8-3.3h30.4l6.8,8.8v21.3l-8.8,7,19.7,22.9h-20.2l-14.6-13.9v14.8Z"/>
    <path id="path3992" class="cls-7" d="M39.4,63.7l-6.3,62.2,23.9,3,13.8-5.7,2-16-6.8-8.5,7.7-3,2.1-19.7-10-8.8s-26.4-3.5-26.4-3.5ZM62.6,81.7l-.2,3-7.3,5.2-3.2-.4.9-8.8s9.8,1,9.8,1ZM49,112.5l1.2-8.8,3.2.4,5.9,6.8-.5,3s-9.8-1.4-9.8-1.4Z"/>
    <path class="cls-7" d="M181.4,130.1l12-16.2v-8.1l-23.2-19.7,7.2-9.1,10.9,1.7,3.7-9.3-20.8-2.3-14.2,17.6,16.9,17-2.6,17.4-17,7.1v3.9h27.1Z"/>
  </g>
  <g id="svg2">
    <path class="cls-6" d="M143.2,63h-24.2l-11,10.7v42.4l12.9,7.3,20.8-2,12.7-14.3v-30.9l-11.2-13.2ZM131.2,99.5l-8.2-6.7,7.2-7.6,7.3,5.7-6.3,8.6Z"/>
    <path class="cls-1" d="M135.7,49.7l8.5-10.6v-5.3l-15.9-12.5,3.8-3.8h7.6l4.5-7.6h-17l-8.7,10.1v3.7l11,11.6v3.2l-3.6,3.1-4.8.3-4.5,5.7v2.1h19.1Z"/>
    <path class="cls-3" d="M155.8,9.9c1,0,1.8.8,1.8,1.8v24.2h6.6V12.6c0-.6.6-1.2,1.2-1.2h5.1c.7,0,1.2.6,1.2,1.2v27.8l-6.8,8.4h-13l-5.8-9.3V9.9h9.7ZM201.4,16.2l20.6-4.8v8l-8.8,3.6v3.8l8.8-1v6.4l-9.4,4,1.7,4.6,11.9-4.8,4.4,7-27.5,8.3-1.7-35.1Z"/>
    <path class="cls-5" d="M250.8,34.1l5.4-4.3v-13.8l-6.2-7.4h-18.5l-2.2,2.2v39.5h10.7v-10.1l10.3,9.5h13.2l-12.7-15.6ZM240.3,28.1v-8.5h7.7l-7.7,8.6v-.1Z"/>
    <path class="cls-4" d="M176.1,9.2v40.5h12v-7s15.9-5.2,15.9-10.8v-10.8l-10.2-12-17.7.1ZM187,31.5v-8.6h7.7l-7.7,8.6ZM102,102.7l8-6.2v-19.9l-9.3-10.7h-27.1l-3.3,3.3v56.9h16v-14.6l15,13.8h19.5l-18.8-22.6ZM86.6,94.1v-12.4h11.4l-11.4,12.5v-.1Z"/>
    <path class="cls-3" d="M317,121.4l-16.7-55.5h-12.9l-28.6,45.5,17,4,2.3-7.3,15.5,4.7v11.2l23.4-2.6h0ZM281.8,93.7l9-10.5,1,12.5-10-2Z"/>
    <path class="cls-4" d="M240.1,124h-11.3l-11.6-56,17.3-3.1,7.3,29,7.2-17.1,6.3,12.1,10.5-23.5,14.9,9.7-18,47.9-9.7-.2-5.7-13.2-7.2,14.4Z"/>
    <path class="cls-5" d="M347.8,102l8.8-7v-20l-9-10h-28.3l-2.7,3.2v57.6h16v-14.8l14.7,14h20.2s-19.7-23-19.7-23ZM333,94.4v-14h11.4l-11.4,14Z"/>
    <path id="path3992-2" data-name="path3992" class="cls-2" d="M30,120.9l23.8,3,13.9-5.6,2-16-6.9-8.5,7.7-3,2.2-19.8-10-8.7-26.4-3.5-6.3,62.1ZM59.6,76.7l-.3,3-7.3,5.3-3.2-.4,1-8.9,9.8,1ZM45.8,107.6l1.3-8.8,3.2.4,5.8,6.8-.5,3-9.8-1.4Z"/>
    <path class="cls-5" d="M178.8,124.6l12.1-16.2v-8.1l-22.5-19.1,5.3-5.7h10.7l6.5-11.6h-24.1l-12.4,15.3v5.8l15.6,17.6v4.9l-5.1,4.6-6.7.6-6.4,8.7v3.2h27Z"/>
  </g>
</svg>