<?xml version="1.0" encoding="UTF-8"?>
<svg xmlns="http://www.w3.org/2000/svg" viewBox="0 0 400 140">
  <defs>
    <style>
      .cls-1{fill:#f73738}
      .cls-1, .cls-2, .cls-3, .cls-4{stroke:#000;stroke-width:2px}
      .cls-2{fill:#04d8f7}
      .cls-3{fill:#f6c729}
      .cls-5{fill:#3868a8}
      .cls-4{fill:#03c802}
    </style>
  </defs>
  <g id="svg1">
    <path class="cls-5" d="M137.9,53.3l8.5-10.6v-5.3l-16.4-12.9,5.1-6,7.7,1.1,2.6-6.1-14.7-1.5-10,11.6,11.9,11.1-1.8,11.4-12,4.7v2.5h19.1ZM148.6,12.7h10.5c1,0,1.8.9,1.8,1.8v25.1h5.9V14.8c0-.6.5-1.2,1.2-1.2h5c.7,0,1.3.6,1.3,1.2v31.3l-6.9,6.4h-11.4l-7.3-9.3V12.7h-.1ZM180.4,52.4V11.8h18.6l10.2,12v10.8c0,5.6-16.6,11.4-16.6,11.4v6.4h-12.2Z"/>
    <path class="cls-5" d="M206.8,19.4l21.9-5.9v7.9l-8.8,3.3v4.7l8.8-1.1v6.7l-9.3,4.1,1.6,4.7,11.9-5,4.4,7.3-27.5,8.5-3-35.2Z"/>
    <path class="cls-5" d="M247.4,53.9h-10.9V14.5l2.3-2.3h19.1l5.6,6.4v13.8l-5.4,4.3,12.8,16.6h-13.3l-10.2-9.5v10.1ZM25.3,131.6l-15.2-1,8.6-57.1,13.3-.5,5.9,13.7,10.9-15.1h10.5l15.8,51.3-16.1,7.2-11.2-26.5-10.4,19.3-8-13.4-4.1,22.1Z"/>
    <path class="cls-5" d="M109.5,128l-20.2-54.2-8.6,2-28.7,45.4,12.1,2.3,5-6.8,21.1,4.5v11.4l19.3-4.5v-.1ZM87.7,102.6l-9.7-4.7,6.3-9.3,9.5,6.8-6.2,7.2h.1ZM142.2,105.1l8.8-6.1v-19l-10.2-9.4h-27.2l-3.3,3.2v56.8h16v-14.6l15,13.7h19.5l-18.8-24.6h.2ZM122.6,101.6l.7-18h11.3l4.8,7.6-16.8,10.4Z"/>
    <path class="cls-5" d="M157,74.8l-1.1,53.6h19.4v-52l-5.1-4.7-13.2,3.1Z"/>
    <path class="cls-5" d="M206.2,75l-29.5.6-11,10,6.5,39.9,14.8,7.1,21.2-2,11.9-13.2v-31.5l-13.9-10.8v-.1ZM195.6,112l-9.4-7.5,14-14,7.1,7.3-11.7,14.2h0ZM258.7,130.6h-11.7l-11.9-56.8,17.7-3.1,7.6,29.4,7.4-17.3,6.4,12.2,10.9-23.8,15.2,9.8-18.5,48.6-10-.2-5.8-13.4-7.3,14.6Z"/>
    <path class="cls-5" d="M321,71.1l19.1,57.9-24.4,1.6v-11.2l-17.9-4.8-2.5,7.1-14.5-3.7,22.4-46.9h17.8Z"/>
    <path class="cls-5" d="M355.1,132h-16v-57.6l2.7-3.3h30.4l6.9,8.8v21.3l-8.9,7,19.8,22.9h-20.3l-14.6-13.9v14.8Z"/>
  </g>
  <g id="svg2">
    <path class="cls-1" d="M135.7,50.5l8.5-10.6v-5.3l-15.9-12.5,3.8-3.8h7.6l4.5-7.6h-17l-8.7,10.1v3.7l11,11.6v3.2l-3.6,3.1-4.8.3-4.5,5.7v2.1h19.1Z"/>
    <path class="cls-2" d="M146,10.7h9.8c1,0,1.8.8,1.8,1.8v24.2h6.6V13.4c0-.6.6-1.2,1.2-1.2h5.1c.7,0,1.2.6,1.2,1.2v27.8l-6.8,8.4h-13l-5.8-9.3-.1-29.6ZM201.4,17l20.6-4.8v8l-8.8,3.6v3.8l8.8-1v6.4l-9.4,4,1.7,4.6,11.9-4.8,4.4,7-27.5,8.3-1.7-35.1Z"/>
    <path class="cls-4" d="M250.8,34.9l5.4-4.3v-13.8l-6.2-7.4h-18.5l-2.2,2.2v39.5h10.7v-10.1l10.3,9.5h13.2l-12.7-15.6ZM240.3,28.9v-8.5h7.7l-7.7,8.6v-.1Z"/>
    <path class="cls-3" d="M193.7,10h-17.6v40.5h12v-7s15.9-5.2,15.9-10.8v-10.8l-10.3-11.9ZM187,32.3v-8.6h7.7l-7.7,8.6Z"/>
    <path class="cls-2" d="M112.5,122l-20.2-53.2h-13.3l-25,47.4,13.1,2.4,5-6.8,17.1,3.5v11.4l23.3-4.5v-.2ZM74.8,97.8l8.6-10.8,2.3,11.3-10.9-.5Z"/>
    <path class="cls-3" d="M140.2,101.5l8-6.2v-19.9l-9.3-10.7h-27.2l-3.3,3.2v56.9h16v-14.6l15,13.8h19.5l-18.7-22.5ZM124.7,92.9v-12.4h11.4l-11.4,12.5v-.1Z"/>
    <path class="cls-4" d="M204,70.6h-24.3l-11,10v39.3l12.9,6.7,20.8-1.8,12.7-13.3v-28.5l-11.1-12.4ZM191.9,104.5l-8.2-6.3,7.2-7,7.3,5.2-6.3,8v.1Z"/>
    <path class="cls-2" d="M327.6,122.2l-16.7-55.5h-12.9l-28.7,45.5,17,4,2.4-7.3,15.5,4.7v11.2l23.4-2.6h0ZM292.3,94.5l9.1-10.5,1,12.5-10.1-2Z"/>
    <path class="cls-4" d="M28,125.8l-15.9-1,7.4-56.3,14-.5,5.8,13.5,10.7-14.9h10.3l15.4,50.7-15.8,7-9.9-24.1-10.2,18.1-7.8-13.3-4,20.8Z"/>
    <path class="cls-1" d="M155.6,68.8l-1.1,53.5h17.2l-1.9-53.5h-14.2Z"/>
    <path class="cls-3" d="M250.7,124.8h-11.3l-11.6-56,17.2-3.1,7.4,29,7.2-17.1,6.3,12.1,10.5-23.5,14.9,9.7-18,47.9-9.7-.2-5.7-13.2-7.2,14.4Z"/>
    <path class="cls-4" d="M367.2,95.8v-20l-9-10h-28.2l-2.7,3.2v57.6h16v-14.8l14.7,14h20l-19.8-23,9-7ZM343.6,95.2v-14h11.5l-11.5,14Z"/>
  </g>
</svg>