<svg xmlns="http://www.w3.org/2000/svg" viewBox="0 0 400 140" style="enable-background:new 0 0 400 140" xml:space="preserve">
  <style>
    .st0{fill:#3868a8}.st1,.st2,.st3,.st4{fill:#f73738;stroke:#000;stroke-width:2;stroke-miterlimit:10}.st2,.st3,.st4{fill:#04d8f7}.st3,.st4{fill:#03c802}.st4{fill:#f6c729}
  </style>
  <g id="svg1" inkscape:version="0.47 r22583" sodipodi:docname="draw1.svg" xmlns:cc="http://creativecommons.org/ns#" xmlns:dc="http://purl.org/dc/elements/1.1/" xmlns:inkscape="http://www.inkscape.org/namespaces/inkscape" xmlns:rdf="http://www.w3.org/1999/02/22-rdf-syntax-ns#" xmlns:sodipodi="http://sodipodi.sourceforge.net/DTD/sodipodi-0.dtd" xmlns:svg="http://www.w3.org/2000/svg">
    <path class="st0" d="m137.9 53.3 8.5-10.6v-5.3L130 24.5l5.1-6 7.7 1.1 2.6-6.1-14.7-1.5-10 11.6 11.9 11.1-1.8 11.4-12 4.7v2.5zM148.6 12.7h10.5c1 0 1.8.9 1.8 1.8v25.1h5.9V14.8c0-.6.5-1.2 1.2-1.2h5c.7 0 1.3.6 1.3 1.2v31.3l-6.9 6.4H156l-7.3-9.3V12.7zM180.4 52.4V11.8H199l10.2 12v10.8c0 5.6-16.6 11.4-16.6 11.4v6.4h-12z"/>
    <path class="st0" d="m206.8 19.4 21.9-5.9v7.9l-8.8 3.3v4.7l8.8-1.1V35l-9.3 4.1 1.6 4.7 11.9-5 4.4 7.3-27.5 8.5z"/>
    <path class="st0" d="M247.4 53.9h-10.9V14.5l2.3-2.3h19.1l5.6 6.4v13.8l-5.4 4.3 12.8 16.6h-13.3l-10.2-9.5zM25.3 131.6l-15.2-1 8.6-57.1L32 73l5.9 13.7 10.9-15.1h10.5l15.8 51.3-16.1 7.2-11.2-26.5-10.4 19.3-8-13.4z"/>
    <path class="st0" d="M109.5 128 89.3 73.8l-8.6 2L52 121.2l12.1 2.3 5-6.8 21.1 4.5v11.4l19.3-4.5zm-21.8-25.4L78 97.9l6.3-9.3 9.5 6.8-6.2 7.2zM142.2 105.1 151 99V80l-10.2-9.4h-27.2l-3.3 3.2v56.8h16V116l15 13.7h19.5L142 105.1zm-19.6-3.5.7-18h11.3l4.8 7.6-16.8 10.4z"/>
    <path class="st0" d="m157 74.8-1.1 53.6h19.4v-52l-5.1-4.7z"/>
    <path class="st0" d="m206.2 75-29.5.6-11 10 6.5 39.9 14.8 7.1 21.2-2 11.9-13.2V85.9l-13.9-10.8zm-10.6 37-9.4-7.5 14-14 7.1 7.3-11.7 14.2zM258.7 130.6H247l-11.9-56.8 17.7-3.1 7.6 29.4 7.4-17.3 6.4 12.2 10.9-23.8 15.2 9.8-18.5 48.6-10-.2L266 116z"/>
    <path class="st0" d="m321 71.1 19.1 57.9-24.4 1.6v-11.2l-17.9-4.8-2.5 7.1-14.5-3.7 22.4-46.9z"/>
    <path class="st0" d="M355.1 132h-16V74.4l2.7-3.3h30.4l6.9 8.8v21.3l-8.9 7 19.8 22.9h-20.3l-14.6-13.9z"/>
  </g>
  <g id="svg2">
    <path class="st1" d="m135.7 50.5 8.5-10.6v-5.3l-15.9-12.5 3.8-3.8h7.6l4.5-7.6h-17l-8.7 10.1v3.7l11 11.6v3.2l-3.6 3.1-4.8.3-4.5 5.7v2.1z"/>
    <path class="st2" d="M146 10.7h9.8c1 0 1.8.8 1.8 1.8v24.2h6.6V13.4c0-.6.6-1.2 1.2-1.2h5.1c.7 0 1.2.6 1.2 1.2v27.8l-6.8 8.4h-13l-5.8-9.3V10.7zM201.4 17l20.6-4.8v8l-8.8 3.6v3.8l8.8-1V33l-9.4 4 1.7 4.6 11.9-4.8 4.4 7-27.5 8.3z"/>
    <path class="st3" d="m250.8 34.9 5.4-4.3V16.8L250 9.4h-18.5l-2.2 2.2v39.5H240V41l10.3 9.5h13.2l-12.7-15.6zm-10.5-6v-8.5h7.7l-7.7 8.6z"/>
    <path class="st4" d="M193.7 10h-17.6v40.5h12v-7S204 38.3 204 32.7V21.9l-10.2-12zM187 32.3v-8.6h7.7l-7.7 8.6z"/>
    <path class="st2" d="M112.5 122 92.3 68.8H79l-25 47.4 13.1 2.4 5-6.8 17.1 3.5v11.4l23.3-4.5zM74.8 97.8l8.6-10.8 2.3 11.3-10.9-.5z"/>
    <path class="st4" d="m140.2 101.5 8-6.2V75.4l-9.3-10.7h-27.2l-3.3 3.2v56.9h16v-14.6l15 13.8h19.5L140 101.5zm-15.5-8.6V80.5h11.4L124.7 93z"/>
    <path class="st3" d="M204 70.6h-24.3l-11 10v39.3l12.9 6.7 20.8-1.8 12.7-13.3V83l-11.2-12.3zm-12.1 33.9-8.2-6.3 7.2-7 7.3 5.2-6.3 8z"/>
    <path class="st2" d="m327.6 122.2-16.7-55.5H298l-28.7 45.5 17 4 2.4-7.3 15.5 4.7v11.2l23.4-2.6zm-35.3-27.7 9.1-10.5 1 12.5-10-2z"/>
    <path class="st3" d="m28 125.8-15.9-1 7.4-56.3 14-.5 5.8 13.5L50 66.6h10.3l15.4 50.7-15.8 7-9.9-24.1-10.2 18.1L32 105z"/>
    <path class="st1" d="m155.6 68.8-1.1 53.5h17.2l-1.9-53.5z"/>
    <path class="st4" d="M250.7 124.8h-11.3l-11.6-56 17.2-3.1 7.4 29 7.2-17.1 6.3 12.1 10.5-23.5 14.9 9.7-18 47.9-9.7-.2-5.7-13.2z"/>
    <path class="st3" d="m358.4 102.8 8.8-7v-20l-9-10H330l-2.7 3.2v57.6h16v-14.8l14.7 14H378l-19.8-23zm-14.8-7.6v-14h11.5l-11.5 14z"/>
  </g>
</svg>
