<svg xmlns="http://www.w3.org/2000/svg" viewBox="0 0 567 175">
  <defs>
    <style>
	.cls-3{fill:#999}
	.cls-4{fill:#333232}
	.cls-5{fill:#ff6700}
	.cls-6{fill:#ba2c00}
	.cls-7{fill:#e6e6e6}
	.cls-10{fill:#ff4200}
	.cls-11{fill:#b3b3b3}
	.cls-14{fill:#fafafa}
	.cls-15{fill:#d9d9d9}
	.cls-16{fill:#e23a05}
	.cls-18{fill:#f2f2f2}
    </style>
  </defs>
  <path d="M170.08 99.25c0 4.35-.71 8.3-2.12 11.86s-3.55 5.34-6.41 5.34h-23.57v-4.29h19.29c1.8-.23 2.96-1.72 3.49-4.46s.79-5.55.79-8.41-.36-5.32-1.07-7.46-1.8-3.22-3.26-3.22l-12.86-.04c-2.83 0-4.96-1.43-6.39-4.29s-2.14-6.43-2.14-10.72.71-7.86 2.14-10.72 3.56-4.29 6.39-4.29l23.62-.04v4.33h-19.33c-1.43 0-2.49 1.07-3.17 3.22s-1.03 4.63-1.03 7.46.34 5.41 1.03 7.55 1.76 3.22 3.21 3.22h12.82c2.89.03 5.04 1.47 6.45 4.33s2.12 6.41 2.12 10.64Zm33.75-9.82-6.43 27.03h-12.86l-10.72-45.04h8.57l8.57 36.04 8.57-36.04h8.57l8.57 36.04 8.57-36.04h8.57l-10.72 45.04h-12.86l-6.43-27.03Zm69.68-5.15-.04 32.17h-27.82c-2.86 0-5-1.07-6.43-3.22s-2.14-5.36-2.14-9.65.71-7.5 2.14-9.63 3.56-3.2 6.39-3.2h15l.04 4.25h-10.72c-1.4.03-2.46.75-3.17 2.17s-1.09 3.55-1.11 6.41c0 2.86.36 5 1.07 6.43s1.79 2.14 3.21 2.14h14.96l.04-27.88c0-2.86-.36-5-1.07-6.43s-1.79-2.14-3.21-2.14h-15v-4.29h19.29c2.86 0 5 1.07 6.43 3.22s2.14 5.36 2.14 9.65Zm34.57 2.15c0-2.89-.36-5.4-1.07-7.53s-2.49-3.2-5.31-3.2h-12.9v40.75h-8.57V71.41h27.9c2.83 0 4.96 1.43 6.41 4.29a18.87 18.87 0 0 1 2.16 8.54l-.04 32.22h-8.57V86.43Zm48.88 12.82c0 4.35-.71 8.3-2.12 11.86s-3.55 5.34-6.41 5.34h-23.57v-4.29h19.29c1.8-.23 2.96-1.72 3.49-4.46s.79-5.55.79-8.41-.36-5.32-1.07-7.46-1.8-3.22-3.26-3.22l-12.86-.04c-2.83 0-4.96-1.43-6.39-4.29s-2.14-6.43-2.14-10.72.71-7.86 2.14-10.72 3.56-4.29 6.39-4.29l23.62-.04v4.33h-19.33c-1.43 0-2.49 1.07-3.17 3.22s-1.03 4.63-1.03 7.46.34 5.41 1.03 7.55 1.76 3.22 3.21 3.22h12.82c2.89.03 5.04 1.47 6.45 4.33s2.12 6.41 2.12 10.64Zm23.57-27.84v4.29H372v25.78c0 2.83.34 5.32 1.03 7.46s1.74 3.22 3.17 3.22h4.33v4.33l-8.61-.04c-2.83 0-4.96-1.43-6.39-4.29s-2.14-6.43-2.14-10.72V58.58l8.57-.04v12.87h8.57Zm42.33 12.87-.04 32.17H395c-2.86 0-5-1.07-6.43-3.22s-2.14-5.36-2.14-9.65.71-7.5 2.14-9.63 3.56-3.2 6.39-3.2h15L410 95h-10.72c-1.4.03-2.46.75-3.17 2.17s-1.09 3.55-1.11 6.41c0 2.86.36 5 1.07 6.43s1.79 2.14 3.21 2.14h14.96l.04-27.88c0-2.86-.36-5-1.07-6.43s-1.79-2.14-3.21-2.14h-15v-4.29h19.29c2.86 0 5 1.07 6.43 3.22s2.14 5.36 2.14 9.65Zm23.71-12.87v4.29h-8.53v25.78c0 2.83.34 5.32 1.03 7.46s1.74 3.22 3.17 3.22h4.33v4.33l-8.61-.04c-2.83 0-4.96-1.43-6.39-4.29-1.43-2.86-2.14-6.43-2.14-10.72V58.58l8.57-.04v12.87h8.57Zm15.05-4.29h-8.57l-.04-8.58h8.61v8.58Zm0 49.34h-8.57V71.42l8.57.04v45Zm43.1-12.83c0 2.83-.71 5.68-2.14 8.54s-3.56 4.29-6.39 4.29h-19.33c-2.83 0-4.96-1.43-6.41-4.29a18.87 18.87 0 0 1-2.16-8.54V84.28c0-2.83.72-5.68 2.16-8.56 1.44-2.87 3.58-4.31 6.41-4.31h19.29c2.86 0 5 1.44 6.43 4.31s2.14 5.74 2.14 8.6v19.3Zm-8.57-2.19V86.43c0-2.86-.36-5.36-1.07-7.51s-2.5-3.22-5.36-3.22h-6.43c-2.86 0-4.64 1.08-5.34 3.24s-1.05 4.67-1.05 7.53v14.97c0 2.89.36 5.4 1.07 7.53s2.49 3.2 5.31 3.2l6.43-.04c2.86 0 4.64-1.07 5.36-3.2s1.07-4.63 1.07-7.49Zm43.07-15.01c0-2.89-.36-5.4-1.07-7.53s-2.49-3.2-5.31-3.2h-12.9v40.75h-8.57V71.41h27.9c2.83 0 4.96 1.43 6.41 4.29s2.16 5.71 2.16 8.54l-.04 32.22h-8.57V86.43Z" style="stroke-width:0"/>
  <path d="m27.86 50.39 10.8 6.2-10.8 6.2-10.8-6.2 10.8-6.2z" class="cls-18"/>
  <path d="m17.06 56.59 10.8 6.2v13.3l-10.8-6.2v-13.3Z" class="cls-11"/>
  <path d="m17.06 56.59 10.8 6.2v13.3l-10.8-19.5Z" class="cls-3"/>
  <path d="M27.86 62.79v13.3l10.8-6.2v-13.3l-10.8 6.2Z" class="cls-14"/>
  <path d="M38.66 56.59h-21.6l10.8 6.2v13.2l10.8-19.4z" class="cls-15"/>
  <path d="m70.26 132.39-7.1-4.1v16.2" style="stroke-width:0;fill:#cc861f"/>
  <path d="m42.36 164.79 28-16.2 14 8.1-27.8 16.2-14.2-8.1Z" style="fill:#9fa4a5;stroke-width:0"/>
  <path d="M77.26 128.29v16.2l-7 4.1v-16.2l7-4.1Z" class="cls-10"/>
  <path d="M70.26 148.59v-16.2l-7-4.1v21.6l14.1 10.8 6.9-4v-2.9l-14-5.2z" class="cls-6"/>
  <path d="m77.36 160.69 6.9-4v-2.9l-6.9 4.1v2.8Z" class="cls-6"/>
  <path d="m63.26 152.59 14.1 8.1v-2.8l-14.1-8v2.7z" class="cls-16"/>
  <path d="m77.26 144.49 6.9 4.1-6.9 4.1-7.1-4.1 7.1-4.1Z" class="cls-5"/>
  <path d="M84.26 148.59v5.3l-6.9 4v-5.2l6.9-4.1Z" class="cls-16"/>
  <path d="m49.36 144.59-7-4.1v21.6l14.1 10.8 6.9-4v-2.9l-14-5.3v-16.1z" class="cls-6"/>
  <path d="M63.36 160.79v5.3l-6.9 4v-5.2l6.9-4.1Z" class="cls-16"/>
  <path d="M56.36 140.49v16.2l-7.1 4.1v-16.2l7.1-4.1Z" class="cls-10"/>
  <path d="m42.36 164.79 14.1 8.1v-2.8l-14.1-8v2.7z" class="cls-16"/>
  <path d="m56.36 156.69 6.9 4.1-6.9 4.1-7.1-4.1 7.1-4.1Z" class="cls-5"/>
  <path d="m49.36 144.59-7-4.1" style="fill:none;stroke-width:0"/>
  <path d="m42.36 157.89 7-13.3-7-4.1v17.4z" class="cls-16"/>
  <path d="m15.06 83.39 38.4-22.1 38.3 22.1-38.3 22.1-38.4-22.1Z" class="cls-18"/>
  <path d="m53.46 105.49 38.3-22.1v46.9l-38.3 22.2v-47Z" class="cls-14"/>
  <path d="m15.06 83.39 38.4 22.1v47l-38.4-22.2v-46.9Z" class="cls-11"/>
  <path d="M91.76 83.39h-76.7l23.6 27.4 14.8 41.7 38.3-69.1z" class="cls-15"/>
  <path d="m15.06 83.39 38.4 22.1v47l-38.4-69.1Z" class="cls-3"/>
  <path d="m66.76 68.99 10.8-6.2v28.7l-10.8 6.3v-28.8Z" class="cls-14"/>
  <path d="M66.76 97.79v-28.8l10.8-6.2-10.8 35Z" style="fill:#ccc;stroke-width:0"/>
  <path d="m55.96 62.79 10.8 6.2v28.8l-10.8-6.2v-28.8Z" class="cls-3"/>
  <path d="m55.96 62.79 10.8 6.2v28.8l-10.8-35Z" class="cls-3"/>
  <path d="m73.56 36.69 29.6-17.1v36.2l-29.6 17.1v-36.2Z" class="cls-7"/>
  <path d="M73.56 72.89v-36.2l29.6-17.1-29.6 53.3Z" class="cls-15"/>
  <path d="m43.96 19.59 29.6 17.1v36.2l-29.6-17.1v-36.2Z" class="cls-11"/>
  <path d="m43.96 19.59 29.6 17.1v36.2l-29.6-53.3Z" class="cls-3"/>
  <path d="m43.96 19.59 29.6-17.1 29.6 17.1-29.6 17.1-29.6-17.1Z" class="cls-18"/>
  <path d="m103.16 19.59-29.6 17.1-29.6-17.1h59.2Z" class="cls-7"/>
  <path d="m77.56 70.59 21.6-12.5v-4.4l-21.6 16.9Z" class="cls-4"/>
  <path d="M92.76 39.99v7.3l-8.8 5.1v-7.3l-6.4 3.7v21.8l21.6-12.5v-21.8l-6.4 3.7z" style="fill:#070606;stroke-width:0"/>
  <path d="m77.56 56.09 6.3-3.7v-7.3l-6.3 11Zm15.2-8.8 6.4-3.7v-7.3l-6.4 11Z" class="cls-4"/>
  <path d="m77.56 60.49 21.6-12.5v-4.4l-21.6 16.9Z" class="cls-4"/>
  <path d="M80.46 58.79v6.8l-2.9 1.7 2.9-8.5zm18.7-10.8v5.7l-2.9 1.7 2.9-7.4zm-21.6 22.6 21.6-12.5v-4.4l-21.6 16.9Z" class="cls-4"/>
  <path d="M97.96 68.89v6.8l17.5-10.1v-6.8l-17.5 10.1Z" style="fill:#ff8b00;stroke-width:0"/>
  <path d="m115.46 58.79-17.5 10.1v6.8l17.5-16.9Z" class="cls-5"/>
  <path d="m80.46 58.79 17.5-10.1 17.5 10.1-17.5 10.1-17.5-10.1Z" class="cls-5"/>
  <path d="m115.46 58.79-17.5 10.1-17.5-10.1h35Z" class="cls-10"/>
  <path d="M97.96 68.89v6.8l-17.5-10.1v-6.8l17.5 10.1Z" class="cls-6"/>
  <path d="m80.46 58.79 17.5 10.1v6.8l-17.5-16.9Z" class="cls-6"/>
</svg>