<?xml version="1.0" encoding="utf-8"?>
<!-- Generator: Adobe Illustrator 25.2.3, SVG Export Plug-In . SVG Version: 6.00 Build 0)  -->
<svg version="1.1" id="Layer_1" xmlns="http://www.w3.org/2000/svg" xmlns:xlink="http://www.w3.org/1999/xlink" x="0px" y="0px"
	 viewBox="0 0 130 190" style="enable-background:new 0 0 130 190;" xml:space="preserve">
<style type="text/css">
	.st0{fill:#F2F2F2;}
	.st1{fill:#B3B3B3;}
	.st2{fill:#999999;}
	.st3{fill:#FAFAFA;}
	.st4{fill:#D9D9D9;}
	.st5{fill:#CC861F;}
	.st6{fill:#9FA4A5;}
	.st7{fill:#FF4200;}
	.st8{fill:#BA2C00;}
	.st9{fill:#E23A05;}
	.st10{fill:#FF6700;}
	.st11{fill:none;}
	.st12{fill:#CCCCCC;}
	.st13{fill:#E6E6E6;}
	.st14{fill:#333232;}
	.st15{fill:#070606;}
	.st16{fill:#FF8B00;}
</style>
<g>
	<g>
		<polygon class="st0" points="27.6,57.7 38.4,63.9 27.6,70.1 16.8,63.9 		"/>
		<path class="st1" d="M16.8,63.9l10.8,6.2v13.3l-10.8-6.2C16.8,77.2,16.8,63.9,16.8,63.9z"/>
		<path class="st2" d="M16.8,63.9l10.8,6.2v13.3L16.8,63.9z"/>
		<path class="st3" d="M27.6,70.1c0,0,0,13.2,0,13.3l10.8-6.2V63.9L27.6,70.1z"/>
		<polygon class="st4" points="38.4,63.9 16.8,63.9 27.6,70.1 27.6,83.3 		"/>
	</g>
	<path class="st5" d="M70,139.7l-7.1-4.1v16.2"/>
	<g>
		<g>
			<path class="st6" d="M42.1,172.1l28-16.2l14,8.1l-27.8,16.2L42.1,172.1z"/>
		</g>
		<g>
			<path class="st7" d="M77,135.6v16.2l-7,4.1v-16.2L77,135.6z"/>
			<polygon class="st8" points="70,155.9 70,139.7 63,135.6 63,157.2 77.1,168 84,164 84,161.1 			"/>
			<path class="st8" d="M77.1,168l6.9-4v-2.9l-6.9,4.1V168z"/>
			<polygon class="st9" points="63,159.9 77.1,168 77.1,165.2 63,157.2 			"/>
			<path class="st10" d="M77,151.8l6.9,4.1L77,160l-7.1-4.1L77,151.8z"/>
			<path class="st9" d="M84,155.9v5.3l-6.9,4V160L84,155.9z"/>
		</g>
		<g>
			<polygon class="st8" points="49.1,151.9 42.1,147.8 42.1,169.4 56.2,180.2 63.1,176.2 63.1,173.3 49.1,168 			"/>
			<path class="st9" d="M63.1,168.1v5.3l-6.9,4v-5.2L63.1,168.1z"/>
			<path class="st7" d="M56.1,147.8V164l-7.1,4.1v-16.2L56.1,147.8z"/>
			<polygon class="st9" points="42.1,172.1 56.2,180.2 56.2,177.4 42.1,169.4 			"/>
			<path class="st10" d="M56.1,164l6.9,4.1l-6.9,4.1l-7.1-4.1L56.1,164z"/>
			<line class="st11" x1="49.1" y1="151.9" x2="42.1" y2="147.8"/>
		</g>
		<polygon class="st9" points="42.1,165.2 49.1,151.9 42.1,147.8 		"/>
	</g>
	<g>
		<path class="st0" d="M14.8,90.7l38.4-22.1l38.3,22.1l-38.3,22.1L14.8,90.7z"/>
		<path class="st3" d="M53.2,112.8l38.3-22.1v46.9l-38.3,22.2V112.8z"/>
		<path class="st1" d="M14.8,90.7l38.4,22.1v47l-38.4-22.2C14.8,137.6,14.8,90.7,14.8,90.7z"/>
		<polygon class="st4" points="91.5,90.7 14.8,90.7 38.4,118.1 53.2,159.8 		"/>
		<path class="st2" d="M14.8,90.7l38.4,22.1v47L14.8,90.7z"/>
	</g>
	<g>
		<path class="st3" d="M66.5,76.3l10.8-6.2v28.7l-10.8,6.3C66.5,105,66.5,76.3,66.5,76.3z"/>
		<path class="st12" d="M66.5,105.1V76.3l10.8-6.2L66.5,105.1z"/>
		<path class="st2" d="M55.7,70.1l10.8,6.2v28.8l-10.8-6.2C55.7,98.9,55.7,70.1,55.7,70.1z"/>
		<path class="st2" d="M55.7,70.1l10.8,6.2v28.8L55.7,70.1z"/>
	</g>
	<g>
		<g>
			<path class="st13" d="M73.3,44l29.6-17.1v36.2L73.3,80.2V44z"/>
			<path class="st4" d="M73.3,80.2V44l29.6-17.1L73.3,80.2z"/>
			<path class="st1" d="M43.7,26.9L73.3,44v36.2L43.7,63.1V26.9z"/>
			<path class="st2" d="M43.7,26.9L73.3,44v36.2L43.7,26.9z"/>
			<path class="st0" d="M43.7,26.9L73.3,9.8l29.6,17.1L73.3,44L43.7,26.9z"/>
			<path class="st13" d="M102.9,26.9L73.3,44L43.7,26.9H102.9z"/>
			<g>
				<path class="st14" d="M77.3,77.9l21.6-12.5V61L77.3,77.9z"/>
			</g>
			<polygon class="st15" points="92.5,47.3 92.5,54.6 83.7,59.7 83.7,52.4 77.3,56.1 77.3,63.4 77.3,77.9 98.9,65.4 98.9,50.9 
				98.9,43.6 			"/>
			<g>
				<path class="st14" d="M77.3,63.4l6.3-3.7v-7.3L77.3,63.4z M92.5,54.6l6.4-3.7v-7.3L92.5,54.6z"/>
				<g>
					<path class="st14" d="M77.3,67.8l21.6-12.5v-4.4L77.3,67.8z"/>
				</g>
				<polygon class="st14" points="80.2,66.1 80.2,72.9 77.3,74.6 				"/>
				<polygon class="st14" points="98.9,55.3 98.9,61 96,62.7 				"/>
				<g>
					<path class="st14" d="M77.3,77.9l21.6-12.5V61L77.3,77.9z"/>
				</g>
			</g>
		</g>
		<g>
			<path class="st16" d="M97.7,76.2V83l17.5-10.1v-6.8L97.7,76.2z"/>
			<path class="st10" d="M115.2,66.1L97.7,76.2V83L115.2,66.1z"/>
			<path class="st10" d="M80.2,66.1L97.7,56l17.5,10.1L97.7,76.2L80.2,66.1z"/>
			<path class="st7" d="M115.2,66.1L97.7,76.2L80.2,66.1H115.2z"/>
			<path class="st8" d="M97.7,76.2V83L80.2,72.9v-6.8L97.7,76.2z"/>
			<path class="st8" d="M80.2,66.1l17.5,10.1V83L80.2,66.1z"/>
		</g>
	</g>
</g>
</svg>
