<?xml version="1.0" encoding="utf-8"?>
<!-- Generator: Adobe Illustrator 25.0.1, SVG Export Plug-In . SVG Version: 6.00 Build 0)  -->
<svg version="1.1"
	 id="svg8" xmlns:cc="http://creativecommons.org/ns#" xmlns:dc="http://purl.org/dc/elements/1.1/" xmlns:inkscape="http://www.inkscape.org/namespaces/inkscape" xmlns:rdf="http://www.w3.org/1999/02/22-rdf-syntax-ns#" xmlns:sodipodi="http://sodipodi.sourceforge.net/DTD/sodipodi-0.dtd" xmlns:svg="http://www.w3.org/2000/svg"
	 xmlns="http://www.w3.org/2000/svg" xmlns:xlink="http://www.w3.org/1999/xlink" x="0px" y="0px" viewBox="0 0 1169.55 135.53"
	 style="enable-background:new 0 0 1169.55 135.53;" xml:space="preserve">
<path d="M1138.21,56.61l11.97,4.49V36.22l-53.62-20.11v0l-4.8-1.8v-0.02l-0.02,0.01l-0.02-0.01v0l0,0v0.02l-58.43,21.91V61.1
	l11.97-4.49v18.9v0l-11.97-4.49V95.9l58.43,21.91v0.02l0.02-0.01l0.02,0.01v0v-0.02l58.43-21.91V71.02l-11.97,4.49V56.61
	L1138.21,56.61z M1072.9,85.87V46.24l18.82-7.06l18.83,7.06v39.63l-18.82,7.06L1072.9,85.87z M1146.48,38.78v16.98l-49.93-18.71
	V20.06L1146.48,38.78z M1036.96,76.36l49.93,18.72v16.99l-49.93-18.72V76.36z"/>
<polygon points="218.3,22.31 218.3,54.56 156.37,54.56 156.37,22.31 21.28,22.31 21.28,45.25 61.35,45.25 61.35,112.31 90.1,112.31 
	90.1,45.25 127.63,45.25 127.63,112.31 156.37,112.31 156.37,79.8 218.3,79.8 218.3,112.31 247.04,112.31 247.04,22.31 "/>
<path id="path858" inkscape:connector-curvature="0" d="M423.1,21.31c-37.36,0-45.67,0.94-52.49,6.16
	c-6.83,5.22-8.84,14.33-8.84,39.24c0,26.25,1.87,35.09,8.84,40.44c6.83,5.22,15.13,6.16,52.76,6.16c36.96,0,45.4-0.94,52.23-6.16
	c6.83-5.22,8.84-14.19,8.84-39.91c0-25.58-2.01-34.55-8.84-39.77C468.76,22.25,460.46,21.31,423.1,21.31z M423.1,44.48
	c24.91,0,27.85,0.4,30.93,4.02c2.41,2.95,3.21,8.03,3.21,21.29c0,10.85-0.94,14.73-4.02,17.14c-3.62,2.68-8.03,3.21-29.86,3.21
	c-22.5,0-26.78-0.4-30.4-3.21c-3.21-2.54-4.02-6.16-4.02-17.28c0-11.38,0.54-16.47,2.14-19.55
	C393.77,44.88,396.31,44.48,423.1,44.48L423.1,44.48z"/>
<path id="path864" inkscape:connector-curvature="0" d="M687.48,21.31c-37.36,0-45.67,0.94-52.49,6.16
	c-6.83,5.22-8.84,14.33-8.84,39.24c0,26.25,1.87,35.09,8.84,40.44c6.83,5.22,15.13,6.16,52.76,6.16c36.96,0,45.4-0.94,52.23-6.16
	c6.83-5.22,8.84-14.19,8.84-39.91c0-25.58-2.01-34.55-8.84-39.77C733.15,22.25,724.84,21.31,687.48,21.31L687.48,21.31z
	 M687.48,44.48c24.91,0,27.85,0.4,30.93,4.02c2.41,2.95,3.21,8.03,3.21,21.29c0,10.85-0.94,14.73-4.02,17.14
	c-3.62,2.68-8.03,3.21-29.86,3.21c-22.5,0-26.78-0.4-30.4-3.21c-3.21-2.54-4.02-6.16-4.02-17.28c0-11.38,0.54-16.47,2.14-19.55
	C658.15,44.88,660.7,44.48,687.48,44.48L687.48,44.48z"/>
<path d="M492.63,22.31h71.6c13.54,0,25.64,1.62,33.03,4.59c13.33,5.26,20.1,14.98,20.1,29.01l-0.2,10.66
	c0,22.13-1.23,27.12-8.82,34.68c-8.41,7.96-21.95,11.06-46.16,11.06h-69.54V22.31z M559.1,89.64c9.44,0,13.54-1.35,17.03-5.26
	c2.87-3.1,3.69-4.31,3.69-16.59c0-10.66-1.03-15.79-3.69-18.49c-2.87-3.1-7.59-4.32-17.03-4.32h-29.75v44.65H559.1z"/>
<path d="M758.13,22.31h69.13c19.69,0,28.51,1.22,36.52,5.26c8.82,4.32,12.1,10.66,12.1,22.8c0,13.09-2.46,19.16-9.23,22.67
	c-3.49,1.89-6.77,2.7-16.41,4.32v0.94c16.82,0.54,25.03,6.48,24.62,17.54v16.46h-37.34v-10.8c0.41-8.37-4.51-12.14-15.39-11.87
	h-27.28v22.68h-36.72V22.31z M823.98,68.06c12.1,0,14.36-0.13,14.36-12.28c0-8.91-2.67-10.8-16.21-10.8h-27.28v23.07H823.98z"/>
<path d="M922.15,58.34h58.26v16.6h-58.26v14.7h63.59v22.68H885.43v-90h99.08v22.67h-62.36V58.34z"/>
<path d="M292.63,58.34h58.26v16.6h-58.26v14.7h63.59v22.68H255.91v-90H355v22.67h-62.36V58.34z"/>
</svg>
