<?xml version="1.0" encoding="utf-8"?>
<!-- Generator: Adobe Illustrator 25.0.1, SVG Export Plug-In . SVG Version: 6.00 Build 0)  -->
<svg version="1.1" xmlns="http://www.w3.org/2000/svg" xmlns:xlink="http://www.w3.org/1999/xlink" x="0px" y="0px"
	 viewBox="0 0 332 152" style="enable-background:new 0 0 332 152;" xml:space="preserve">
<style type="text/css">
	.st0{fill:#323B57;}
	.st1{fill:#F3F3F3;}
	.st2{fill:#25366D;}
	.st3{fill:#509FD8;}
	.st4{fill:#1A1C2C;}
</style>
<g id="Layer_2">
	<rect class="st0" width="332" height="152"/>
</g>
<g id="Layer_1">
	<g>
		<polygon class="st1" points="180,28 180,16 176,16 176,12 128,12 128,16 124,16 124,72 128,72 128,76 148,76 148,72 152,72 
			152,76 172,76 172,72 176,72 176,68 180,68 180,52 184,52 184,48 188,48 188,28 		"/>
		<rect x="131.82" y="16" class="st2" width="40" height="5"/>
		<polygon class="st3" points="171.82,20 127.82,20 127.82,64 132,66 168,66 171.82,64 174,60 174,24 		"/>
		<polygon class="st1" points="132,48 132,28 136,26 164,26 168,28 168,48 		"/>
		<rect x="156" y="66" class="st4" width="11.82" height="6"/>
		<rect x="131.82" y="66" class="st4" width="12.18" height="6"/>
		<rect x="127.82" y="64" class="st2" width="44" height="4"/>
		<g>
			<rect x="179.82" y="32" class="st4" width="4" height="12"/>
			<polygon class="st4" points="175.82,20 171.82,20 171.82,64 175.82,64 175.82,48 179.82,48 179.82,44 175.82,44 			"/>
		</g>
		<g>
			<rect x="143.82" y="56" class="st1" width="12" height="4"/>
			<rect x="139.82" y="52" class="st1" width="4" height="4"/>
			<rect x="155.82" y="52" class="st1" width="4" height="4"/>
		</g>
		
			<rect x="135.82" y="36" transform="matrix(-1.836970e-16 1 -1 -1.836970e-16 179.8235 -103.8235)" class="st4" width="12" height="4"/>
		
			<rect x="151.82" y="36" transform="matrix(-1.836970e-16 1 -1 -1.836970e-16 195.8235 -119.8235)" class="st4" width="12" height="4"/>
		<rect x="132" y="24" class="st2" width="36" height="4"/>
	</g>
	<g>
		<polygon class="st1" points="140,108 140,104 136,104 136,92 140,92 140,88 124,88 124,92 128,92 128,104 124,104 124,108 		"/>
		<polygon class="st1" points="160,108 160,104 152,104 152,92 160,92 160,88 148,88 148,92 144,92 144,104 148,104 148,108 		"/>
		<rect x="160" y="92" class="st1" width="4" height="4"/>
		<rect x="160" y="100" class="st1" width="4" height="4"/>
		<polygon class="st1" points="100,88 100,92 104,92 104,108 112,108 112,92 116,92 116,88 		"/>
		<rect x="172" y="96" class="st1" width="12" height="4"/>
		<polygon class="st1" points="208,108 208,104 200,104 200,100 208,100 208,96 200,96 200,92 208,92 208,88 196,88 196,92 192,92 
			192,96 196,96 196,100 192,100 192,104 196,104 196,108 		"/>
		<rect x="208" y="92" class="st1" width="4" height="4"/>
		<rect x="208" y="100" class="st1" width="4" height="4"/>
		<polygon class="st1" points="232,100 232,104 236,104 236,100 236,96 236,92 232,92 232,96 		"/>
		<polygon class="st1" points="232,108 232,104 224,104 224,92 232,92 232,88 220,88 220,92 216,92 216,104 220,104 220,108 		"/>
		<polygon class="st1" points="24,120 24,116 16,116 16,120 12,120 12,124 16,124 16,132 20,132 20,136 32,136 32,132 24,132 
			24,124 32,124 32,120 		"/>
		<polygon class="st1" points="52,124 40,124 40,128 44,128 44,132 40,132 40,136 56,136 56,132 52,132 		"/>
		<rect x="44" y="116" class="st1" width="8" height="4"/>
		<polygon class="st1" points="60,120 60,136 68,136 68,124 76,124 76,120 		"/>
		<rect x="76" y="124" class="st1" width="4" height="12"/>
		<rect x="84" y="120" class="st1" width="4" height="8"/>
		<polygon class="st1" points="96,120 96,128 88,128 88,132 96,132 96,136 88,136 88,140 100,140 100,136 104,136 104,120 		"/>
		<polygon class="st1" points="136,120 136,124 132,124 132,132 136,132 136,136 152,136 152,132 144,132 144,124 152,124 152,120 
					"/>
		<polygon class="st1" points="164,132 164,124 172,124 172,120 160,120 160,124 156,124 156,132 160,132 160,136 172,136 172,132 
					"/>
		<rect x="172" y="124" class="st1" width="4" height="8"/>
		<polygon class="st1" points="196,120 192,120 192,124 188,124 188,120 180,120 180,136 184,136 184,128 188,128 188,136 192,136 
			192,128 196,128 196,136 200,136 200,124 196,124 		"/>
		<polygon class="st1" points="212,132 212,124 220,124 220,120 204,120 204,140 212,140 212,136 220,136 220,132 		"/>
		<rect x="220" y="124" class="st1" width="4" height="8"/>
		<rect x="228" y="120" class="st1" width="4" height="12"/>
		<polygon class="st1" points="240,120 240,132 232,132 232,136 248,136 248,120 		"/>
		<polygon class="st1" points="264,120 264,116 256,116 256,120 252,120 252,124 256,124 256,132 260,132 260,136 272,136 272,132 
			264,132 264,124 272,124 272,120 		"/>
		<polygon class="st1" points="292,120 280,120 280,124 276,124 276,132 280,132 280,136 292,136 292,132 288,132 288,128 284,128 
			284,124 288,124 288,128 296,128 296,124 292,124 		"/>
		<polygon class="st1" points="300,120 300,136 308,136 308,124 316,124 316,120 		"/>
		<rect x="316" y="124" class="st1" width="4" height="4"/>
	</g>
</g>
</svg>
