<svg xmlns="http://www.w3.org/2000/svg" viewBox="0 0 64 64">
  <path d="M0 0h64v64H0z" style="fill:#151513"/>
  <path d="M16 45.5H9L3.1 10.2h6.6l4 26.7L27 10.2h6.5L15.9 45.5Z" style="fill:#5fd38d"/>
  <path d="m28 38.8 4.4-.6c.1 1.4.5 2.4 1 3s1 .7 1.9.7c1 0 2-.4 2.6-1.2.7-.7 1-1.8 1-3 0-1-.2-2-.8-2.5a3.5 3.5 0 0 0-3-1L36 30h.5c1.2 0 2.2-.3 2.8-1s1-1.7 1-2.9c0-.8-.2-1.5-.7-2s-1-.7-1.7-.7-1.3.3-1.8.8-1 1.5-1.3 2.8l-4.2-1a9.6 9.6 0 0 1 2.3-4.4c1.4-1.6 3.2-2.3 5.3-2.3s3.9.6 5 2 1.7 3 1.7 4.8a6.6 6.6 0 0 1-4 6.2c1 .5 1.7 1.3 2.2 2.2s.7 2 .7 3c0 1.9-.7 3.7-1.9 5.3a8 8 0 0 1-6.6 3.3c-2 0-3.6-.6-5-1.9s-2-3-2.3-5.4Zm22.6-11.2-4.6-.8a9.5 9.5 0 0 1 2.6-5.6 7 7 0 0 1 5-2c2.3 0 4 .7 5.3 2s1.9 3 1.9 5.1c0 1-.2 2-.6 3.1s-1 2.2-1.9 3.3l-3.1 3.5-3 3L51 41h8.3l-.9 4.7H43.8c.2-1.2.5-2.5 1-3.6s1.3-2.3 2-3.3 2.3-2.6 4.5-4.9l3-3.3c.8-1 1.3-1.7 1.6-2.4s.4-1.3.4-1.9c0-.8-.3-1.5-.7-2.1s-1.1-.8-1.8-.8-1.4.3-2 .9a7 7 0 0 0-1.2 3.3Z" style="fill:#80b3ff"/>
  <path d="M61.4 57.2H1.5l1.1-6h59.9l-1.1 6z" style="fill:#6f0"/>
</svg>