<?xml version="1.0" encoding="utf-8"?>
<!-- Generator: Adobe Illustrator 24.2.1, SVG Export Plug-In . SVG Version: 6.00 Build 0)  -->
<svg version="1.1" id="Layer_2_1_" xmlns="http://www.w3.org/2000/svg" xmlns:xlink="http://www.w3.org/1999/xlink" x="0px" y="0px"
	 viewBox="0 0 300 60" style="enable-background:new 0 0 300 60;" xml:space="preserve">
<style type="text/css">
	.st0{fill:#492E81;}
	.st1{fill:#FFFFFF;}
</style>
<path class="st0" d="M145.79,14.06h152.5l-28.15,45.53c0,0-230.11,0-236.97,0S4.29,57.24,4.29,32.49s22.83-30.9,30.82-30.9
	c4.2,0,97.5,0,97.5,0L145.79,14.06z"/>
<g>
	<polygon class="st1" points="55.55,9 45.63,32.43 41.2,9 32.27,9 40.93,51.91 46.53,51.91 64.84,9 	"/>
	<path class="st1" d="M108.52,8.54L89.93,51.19h8.84l5.73-13.01h10.45l2.32,13.01h9.38l-7.13-42.64h-11V8.54z M107.97,30.32
		l3.98-9.03l1.61,9.03H107.97z"/>
	<polygon class="st1" points="168.44,39.8 145.88,22.1 139.65,22.1 139.65,51.19 147.5,51.19 147.59,33.57 169.34,51.19 
		176.29,51.19 176.29,22.1 168.44,22.1 	"/>
	<polygon class="st1" points="187.39,39.89 201.2,39.89 201.2,33.12 187.48,33.12 187.48,28.78 210.4,28.78 210.4,22.1 179.09,22.1 
		179.09,51.19 211.39,51.19 211.39,44.86 187.39,44.86 	"/>
	<polygon class="st1" points="245.09,22.1 240.9,22.1 234.62,22.1 229.28,29.44 223.94,22.1 213.47,22.1 224.05,36.64 213.47,51.19 
		223.94,51.19 229.28,43.84 234.62,51.19 245.09,51.19 234.51,36.64 243.11,24.82 246.41,28.87 264.27,28.87 251.01,51.19 
		259.58,51.19 271.94,28.96 279.61,28.96 285.12,22.1 	"/>
	<path class="st1" d="M88.67,29.41c0,0,4.78-3.16,4.78-9.58C93.45,11.07,84.25,9,81.9,9S66.65,9,66.65,9l-6.77,42.19
		c0,0,10.92,0,19.67,0c8.12,0,13.36-7.86,13.36-13.01C92.91,33.48,88.67,29.41,88.67,29.41z M78.43,43.21c-2.44,0-8.23,0-8.23,0
		l1.37-8.54c0,0,6.66,0,8.08,0c1.42,0,4.33,0.95,4.33,4C83.98,41.72,80.86,43.21,78.43,43.21z M78.92,25.71c-1.8,0-5.92,0-5.92,0
		l1.22-7.59c0,0,3.66,0,5.29,0c1.62,0,4.47,0.09,4.47,3.34S80.73,25.71,78.92,25.71z"/>
</g>
</svg>
