<?xml version="1.0" encoding="utf-8"?>
<!-- Generator: Adobe Illustrator 24.2.1, SVG Export Plug-In . SVG Version: 6.00 Build 0)  -->
<svg version="1.1" xmlns="http://www.w3.org/2000/svg" xmlns:xlink="http://www.w3.org/1999/xlink" x="0px" y="0px"
	 viewBox="0 0 285.76 90.71" style="enable-background:new 0 0 285.76 90.71;" xml:space="preserve">
<style type="text/css">
	.st0{fill:#464646;}
</style>
<g id="Layer_1">
	<path class="st0" d="M174.09,36.39c-10.39,10.4-10.39,27.25,0,37.65c10.4,10.39,27.25,10.39,37.65,0
		c8.99-8.99,10.2-22.82,3.65-33.11l-14.32,14.32c-0.01,2.08-0.8,4.15-2.39,5.73c-3.18,3.18-8.35,3.18-11.53,0
		c-3.18-3.18-3.18-8.35,0-11.53c3.18-3.18,8.35-3.18,11.53,0l0.24,0.26l13.07-13.07l-0.25-0.26C201.34,26,184.49,26,174.09,36.39z"
		/>
	<path d="M70.35,81.74L134.7,8.49h-26.85L66.71,50.36c-1.26,1.28-3.29,1.28-4.55,0c-1.26-1.28-1.26-3.35,0-4.63L98.75,8.49H6
		L70.35,81.74z"/>
	<path class="st0" d="M232.24,55.1l-22.28,26.2h18.21l17.35-17.66c1.01-1.02,2.64-1.02,3.64,0c1.01,1.02,1.01,2.68,0,3.71
		L235.44,81.3h41.37l-22.28-26.2l22.28-26.2H258.6l-17.35,17.66c-1.01,1.03-2.64,1.03-3.64,0c-1.01-1.02-1.01-2.68,0-3.71
		l13.71-13.96h-41.37L232.24,55.1z"/>
	<path class="st0" d="M117.03,36.39c-10.39,10.4-10.39,27.25,0,37.65c10.4,10.39,27.25,10.39,37.65,0
		c8.99-8.99,10.2-22.82,3.65-33.11l-14.32,14.32c-0.01,2.08-0.8,4.15-2.39,5.73c-2.61,2.61-6.55,3.08-9.64,1.41l24.28-24.28
		c-0.42-0.5-3.09-3.15-3.9-3.79C141.92,26.05,126.69,26.74,117.03,36.39z M128.34,58.36c-1.23-2.96-0.65-6.5,1.76-8.91
		c2.41-2.41,5.95-2.99,8.91-1.76L128.34,58.36z"/>
</g>
<g id="Layer_2">
</g>
</svg>
