<?xml version="1.0" encoding="utf-8"?>
<!-- Generator: Adobe Illustrator 24.2.1, SVG Export Plug-In . SVG Version: 6.00 Build 0)  -->
<svg version="1.1" xmlns="http://www.w3.org/2000/svg" xmlns:xlink="http://www.w3.org/1999/xlink" x="0px" y="0px"
	 viewBox="0 0 258.94 83.18" style="enable-background:new 0 0 258.94 83.18;" xml:space="preserve">
<style type="text/css">
	.st0{fill:#1052A0;}
	.st1{fill:#FFFFFF;}
</style>
<g id="Layer_2">
</g>
<g id="Layer_3">
	<path class="st0" d="M237.26,41.24L249.56,23c2.14-3.07,2.36-8.01-1.36-11.72c-2.03-2.03-4.7-2.45-6.58-2.45c0,0-22.94,0-24.11,0
		c-2.93,0-6.11,4.11-6.11,4.11s-2.49-4.11-6.12-4.11c-3.63,0-23.69,0-23.69,0c-4.95,0-6.24,2.47-6.24,2.47s-9.07-4.19-19.29-4.19
		c-10.23,0-20.9,8.08-20.9,8.08s-2.76-7.07-11.61-7.07H14.2c0,0-3.61,0.3-6.27,4.78c-2.67,4.48,0.47,8.09,0.47,8.09l32.89,48.26
		c0,0,2.36,4.5,7.74,4.5c5.38,0,8.39-4.5,8.39-4.5l17.12-24.45h1.28c0,0,0,17.74,0,18.66c0,0.92-0.71,9.66,9.68,9.66s29.3,0,39.34,0
		s10.32-7.08,10.32-7.08s7.1,9.01,23.22,9.01c9.04,0,15.92-4.31,15.92-4.31s1.05,2.95,6.88,2.95c5.83,0,20.51,0,24.11,0
		c3.6,0,6.12-4.11,6.12-4.11s0.84,4.11,6.11,4.11c5.28,0,13.5,0,24.12,0c10.62,0,10.06-11.11,7.92-14.17L237.26,41.24z"/>
	<path class="st1" d="M156.84,34.77c2.83,0,5.57,1.71,6.78,4.22c0,0,0.95,2.11,3.14,0c2.18-2.11,11.74-11.9,11.74-11.9
		s1.31-1.25-0.18-2.74c-5.02-6.36-12.81-9.81-21.56-9.81c-15.14,0-26.77,11.6-26.77,26.7c0,15.11,11.63,26.7,26.77,26.7
		c8.69,0,15.68-3.42,21.29-9.77c0.03-0.03,1.25-0.95,0.01-2.27c-1.23-1.32-11.97-12.41-11.97-12.41s-1.26-1.67-2.5-0.02
		c-1.24,1.65-2.71,4.16-7.03,4.16c-3.74,0-5.92-3.16-5.92-6.72C150.64,37.37,153.1,34.77,156.84,34.77z M156.76,51.22
		c3.25,0,6.15-1.55,7.98-3.95l9.61,9.58c-4.31,4.83-10.59,7.87-17.59,7.87c-13,0-23.54-10.51-23.54-23.48
		c0-12.97,10.54-23.48,23.54-23.48c7.01,0,13.31,3.06,17.63,7.92l-9.2,10.16c-1.78-2.77-4.88-4.56-8.43-4.56
		c-5.52,0-9.99,4.46-9.99,9.97C146.77,46.75,151.24,51.22,156.76,51.22z"/>
	<path class="st1" d="M127.85,49.93h-21.4c-0.53,0-0.97-0.43-0.97-0.97c0-0.53,0.43-0.96,0.97-0.96h5.22h2.1
		c1.28,0,2.04-0.76,2.04-2.04V35.88c0-1.28-0.76-2.04-2.04-2.04h-2.1h-5.22c-0.53,0-0.97-0.43-0.97-0.96s0.43-0.97,0.97-0.97h20.1
		c2.44,0,2.16-3.24,2.16-3.97c0-0.73-1.3-8.18-1.3-8.18c0,0.15-0.28-3.93-3.3-3.93H87.5c-2.99,0-3.95,0.95-3.95,3.93v42.32
		c0,2.98,0.96,3.93,3.95,3.93h37.9c3.02,0,3.3-4.09,3.3-3.93c0,0,1.29-7.45,1.29-8.18C130,53.17,130.29,49.93,127.85,49.93z
		 M126.14,54.63c-0.32,1.97-0.72,4.28-0.72,4.28c0-0.13-0.24,3.34-2.81,3.34H90.39c-2.54,0-3.35-0.8-3.35-3.34V22.29
		c0-2.54,0.81-3.35,3.35-3.35h30.93c2.56,0,2.8,3.47,2.8,3.35c0,0,0.4,2.95,0.72,4.91c0.09,0.54-0.1,1.49-1.29,1.49h-19.52
		c-0.98,0-1.77,0.79-1.77,1.77v4.82c0,0.98,0.79,1.77,1.77,1.77h6.61c1.07,0,1.93,0.87,1.93,1.93v3.86c0,1.07-0.86,1.93-1.93,1.93
		h-6.61c-0.98,0-1.77,0.79-1.77,1.77v4.83c0,0.98,0.79,1.77,1.77,1.77h20.82C126.03,53.15,126.22,54.09,126.14,54.63z"/>
	<path class="st1" d="M82.16,16.23c-0.45-0.44-1.83-0.4-1.83-0.4H59.05c0,0-1.25,0.55-1.81,1.11c-0.57,0.57-1.52,1.98-1.52,1.98
		l-6.68,8.48l-6.66-8.48c0,0-0.96-1.42-1.52-1.98c-0.56-0.56-1.8-1.11-1.8-1.11H17.76c0,0-1.38-0.04-1.82,0.4
		c-0.87,0.86,0.89,2.79,0.89,2.79l29.95,44.42c0,0,1.09,1.62,1.88,2.32c0.11,0.1,0.57,0.18,0.76,0c0.79-0.7,1.88-2.32,1.88-2.32
		l29.95-44.42C81.26,19.02,83.02,17.09,82.16,16.23z M75.14,21.65L50.97,58.12c0,0-0.92,1.38-1.6,1.97c-0.16,0.16-0.55,0.09-0.64,0
		c-0.67-0.59-1.6-1.97-1.6-1.97L22.96,21.65c0,0-1.5-1.64-0.76-2.37c0.38-0.38,1.55-0.35,1.55-0.35h13.58c0,0,1.06,0.47,1.54,0.95
		c0.48,0.48,1.29,1.68,1.29,1.68l8.88,11.71l8.9-11.71c0,0,0.82-1.21,1.29-1.68c0.48-0.48,1.54-0.95,1.54-0.95h13.58
		c0,0,1.17-0.03,1.55,0.35C76.64,20.02,75.14,21.65,75.14,21.65z"/>
	<g>
		<path class="st1" d="M228.81,41.24l14.99-22.22c0,0,0.96-1.28-0.54-2.78c-0.44-0.44-1.68-0.41-1.68-0.41s-21.69,0-22.58,0
			s-1.81,1.11-1.81,1.11l-5.79,7.48l-5.8-7.48c0,0-1.1-1.11-2.4-1.11c-1.3,0-21.98,0-21.98,0s-1.24-0.03-1.68,0.41
			c-1.5,1.49-0.54,2.78-0.54,2.78l14.99,22.22l-14.99,22.22c0,0-0.96,1.28,0.54,2.78c0.45,0.45,1.68,0.41,1.68,0.41h22.57
			c0,0,1.25-0.55,1.81-1.11c0.57-0.56,1.52-1.98,1.52-1.98l4.28-5.49l4.27,5.49c0,0,0.96,1.42,1.52,1.98
			c0.56,0.56,1.81,1.11,1.81,1.11h22.58c0,0,1.24,0.03,1.68-0.41c1.5-1.49,0.54-2.78,0.54-2.78L228.81,41.24z M235.87,62.8h-0.17
			h-14.7h-0.17c0,0-1.06-0.47-1.54-0.95c-0.48-0.48-1.29-1.68-1.29-1.68l-6.87-9.01l-6.87,9.01c0,0-0.82,1.21-1.29,1.68
			c-0.48,0.48-1.54,0.95-1.54,0.95h-0.17h-14.7h-0.17c-2.15-0.09-1.12-1.96-0.74-2.54l12.68-19.06c0,0-12.19-18.07-12.73-18.9
			c-0.54-0.82-1-2.71,1.05-2.71c2.9,0,13.68,0,14.78,0c1.1,0,2.83,2.63,2.83,2.63l6.87,9.02l6.87-9.02c0,0,1.67-2.63,2.83-2.63
			c1.16,0,12.32,0,15.03,0c2.72,0,1.28,2.01,0.79,2.71s-12.73,18.9-12.73,18.9l12.68,19.06C236.99,60.84,238.02,62.7,235.87,62.8z"
			/>
	</g>
</g>
</svg>
