<?xml version="1.0" encoding="utf-8"?>
<!-- Generator: Adobe Illustrator 24.2.1, SVG Export Plug-In . SVG Version: 6.00 Build 0)  -->
<svg version="1.1"
	 id="vice" xmlns:cc="http://creativecommons.org/ns#" xmlns:dc="http://purl.org/dc/elements/1.1/" xmlns:inkscape="http://www.inkscape.org/namespaces/inkscape" xmlns:rdf="http://www.w3.org/1999/02/22-rdf-syntax-ns#" xmlns:sodipodi="http://sodipodi.sourceforge.net/DTD/sodipodi-0.dtd" xmlns:svg="http://www.w3.org/2000/svg"
	 xmlns="http://www.w3.org/2000/svg" xmlns:xlink="http://www.w3.org/1999/xlink" x="0px" y="0px" viewBox="0 0 240.9 64"
	 style="enable-background:new 0 0 240.9 64;" xml:space="preserve">
<style type="text/css">
	.st0{fill:#01276A;}
	.st1{fill:#FF0000;}
</style>
<sodipodi:namedview  bordercolor="#666666" borderlayer="false" borderopacity="1.0" height="989px" id="base" inkscape:current-layer="layer1" inkscape:cx="375" inkscape:cy="520" inkscape:document-units="px" inkscape:guide-bbox="true" inkscape:pageopacity="0.0" inkscape:pageshadow="2" inkscape:window-height="962" inkscape:window-maximized="1" inkscape:window-width="1280" inkscape:window-x="-8" inkscape:window-y="-8" inkscape:zoom="0.35" pagecolor="#ffffff" showgrid="false" showguides="true">
	</sodipodi:namedview>
<path id="path3002" inkscape:connector-curvature="0" class="st0" d="M33.4,11C19.7,11,8.6,20.7,8.6,32.8
	c0,12.1,11.1,21.8,24.8,21.8c2.6,0,5.2-0.4,7.6-1V42.7c-2.1,1.1-4.5,1.7-7,1.7c-7.5,0-13.6-5.2-13.6-11.6s6.1-11.6,13.6-11.6
	c2.6,0,5,0.6,7,1.7V12C38.5,11.3,36,11,33.4,11z"/>
<polygon id="polygon9367" class="st0" points="41.1,24.5 59.6,24.5 51.4,32.1 41.1,32.1 "/>
<polygon id="polygon9369" class="st1" points="41.1,41.2 59.6,41.2 51.4,33.6 41.1,33.6 "/>
<g>
	<path class="st0" d="M69.9,7.7h14.3l11.2,39.5h0.1l11.2-39.5h13.8l-17.1,50.3H86.8L69.9,7.7z"/>
	<path class="st0" d="M126.5,7.7h13.4v25.1v25.1h-13.4V32.8V7.7z"/>
	<path class="st0" d="M191.8,56.8c-3.8,0.9-8.1,2-14.9,2c-13.4,0-28.9-6.8-28.9-25.8c0-17.5,12.2-26.2,28.8-26.2
		c5.1,0,10.1,1.2,14.9,2.6l-1.1,10.9c-4.3-2.4-8.5-3.5-13.1-3.5c-9.5,0-15.7,6.9-15.7,16.3c0,9.9,7,15.8,16.8,15.8
		c4.4,0,8.9-1.2,12.5-2.6L191.8,56.8z"/>
	<path class="st0" d="M197.6,7.7H233v9.5h-22v10.4h20.8V37H211v11.4h22.8v9.5h-36.2V7.7z"/>
</g>
</svg>
