<?xml version="1.0" encoding="UTF-8"?>
<svg xmlns="http://www.w3.org/2000/svg" viewBox="0 0 128 32">
  <defs>
    <style>
      .cls-1{fill:#000}
      .cls-2{fill:#6f0}
      .cls-3{fill:#0ff}
      .cls-4{fill:#5fd38d}
      .cls-5{fill:#80b3ff}
    </style>
  </defs>
  <rect class="cls-1" width="128" height="32"/>
  <g>
    <path class="cls-4" d="M29.27,21.9h-3.82l-3.12-17.38h3.57l2.21,13.15,7.2-13.15h3.55l-9.58,17.38Z"/>
    <g>
      <path class="cls-3" d="M38.52,12.43h2.58l-2,9.54h-2.58l2-9.54ZM39.27,8.8h2.58l-.49,2.34h-2.58l.49-2.34Z"/>
      <path class="cls-3" d="M43.43,12.43h2.41l-.39,1.85c.9-1.38,1.87-2.08,2.92-2.08.37,0,.77.09,1.2.28l-.99,2.11c-.23-.08-.48-.13-.75-.13-.44,0-.89.17-1.35.5s-.82.78-1.07,1.34-.51,1.45-.76,2.66l-.63,2.99h-2.58l2-9.54Z"/>
      <path class="cls-3" d="M55.17,18.38l2.51.4c-.41,1.11-1.02,1.96-1.83,2.54s-1.75.87-2.81.87c-1.22,0-2.18-.36-2.89-1.09s-1.07-1.72-1.07-2.99c0-1.04.22-2.02.65-2.94s1.08-1.65,1.95-2.18,1.82-.8,2.86-.8c1.13,0,2.03.29,2.7.88s1.05,1.36,1.13,2.32l-2.45.26c-.06-.53-.22-.93-.49-1.18s-.62-.38-1.05-.38c-.5,0-.96.19-1.39.56s-.76.93-.99,1.67-.35,1.43-.35,2.08c0,.56.14,1,.41,1.3s.62.46,1.03.46.81-.15,1.2-.45.68-.75.9-1.35Z"/>
      <path class="cls-3" d="M59.26,18.01c0-1.77.5-3.18,1.5-4.23s2.31-1.58,3.93-1.58c1.41,0,2.51.39,3.3,1.16s1.19,1.82,1.19,3.13c0,1.55-.49,2.88-1.48,4.01s-2.31,1.69-3.97,1.69c-.9,0-1.7-.18-2.39-.54s-1.21-.87-1.55-1.53-.51-1.37-.51-2.12ZM66.61,16.17c0-.61-.18-1.1-.53-1.47s-.82-.55-1.38-.55-1.05.17-1.48.52-.77.84-1.01,1.5-.36,1.26-.36,1.81c0,.68.19,1.23.56,1.63s.84.6,1.4.6c.71,0,1.3-.3,1.78-.91.68-.86,1.02-1.9,1.02-3.13Z"/>
      <path class="cls-3" d="M72.03,12.43h2.44l-.25,1.24c.61-.53,1.18-.9,1.71-1.13s1.09-.34,1.68-.34c.78,0,1.4.22,1.86.67s.68,1.05.68,1.79c0,.34-.1.97-.3,1.91l-1.12,5.4h-2.58l1.13-5.42c.17-.81.25-1.29.25-1.45,0-.33-.1-.59-.29-.78s-.47-.28-.81-.28c-.38,0-.8.16-1.26.48s-.82.74-1.09,1.26c-.19.37-.41,1.13-.65,2.27l-.82,3.92h-2.58l2-9.54Z"/>
    </g>
    <path class="cls-5" d="M81.69,17.36l3.26-.39c.13.92.38,1.57.73,1.92s.82.53,1.41.53c.77,0,1.42-.26,1.93-.78s.76-1.19.76-2c0-.71-.21-1.27-.62-1.69s-.96-.62-1.66-.62c-.17,0-.36.02-.55.05l.59-2.83c.12.02.23.02.34.02.91,0,1.6-.23,2.07-.69s.71-1.09.71-1.88c0-.56-.16-1-.48-1.33s-.74-.49-1.26-.49c-.49,0-.93.18-1.32.54s-.7.97-.92,1.84l-3.11-.62c.4-1.28.94-2.26,1.65-2.95,1.07-1.03,2.38-1.54,3.94-1.54s2.81.44,3.64,1.33,1.24,1.95,1.24,3.2c0,.9-.26,1.72-.79,2.44s-1.26,1.26-2.18,1.6c.74.39,1.28.89,1.62,1.51s.52,1.26.52,1.93c0,1.28-.45,2.46-1.36,3.53-1.24,1.47-2.84,2.21-4.8,2.21-1.47,0-2.68-.42-3.63-1.26s-1.53-2.03-1.74-3.57Z"/>
    <path class="cls-5" d="M99.22,9.94l-3.33-.5c.27-1.61.9-2.85,1.88-3.71s2.22-1.29,3.69-1.29c1.62,0,2.89.44,3.82,1.32s1.39,1.99,1.39,3.34c0,.69-.14,1.38-.43,2.07s-.75,1.42-1.4,2.18c-.47.54-1.23,1.3-2.29,2.28s-1.76,1.66-2.1,2.02-.67.74-.99,1.14h6.02l-.64,3.11h-10.56c.11-.85.36-1.67.75-2.44s.88-1.49,1.46-2.15,1.66-1.74,3.21-3.21c1.17-1.12,1.91-1.85,2.22-2.19.55-.62.93-1.15,1.14-1.6s.31-.86.31-1.22c0-.58-.17-1.06-.52-1.42s-.78-.55-1.31-.55-1.01.2-1.41.61-.71,1.14-.91,2.21Z"/>
  </g>
  <polygon class="cls-2" points="108.52 27.41 18.99 27.41 19.51 24.46 109.04 24.46 108.52 27.41"/>
</svg>