<?xml version="1.0" encoding="utf-8"?>
<!-- Generator: Adobe Illustrator 24.2.1, SVG Export Plug-In . SVG Version: 6.00 Build 0)  -->
<svg version="1.1" id="Layer_1" xmlns="http://www.w3.org/2000/svg" xmlns:xlink="http://www.w3.org/1999/xlink" x="0px" y="0px"
	 viewBox="0 0 600 300" style="enable-background:new 0 0 600 300;" xml:space="preserve">
<style type="text/css">
	.st0{fill:#BA0000;}
	.st1{fill:none;stroke:#0696F1;stroke-width:4;stroke-miterlimit:10;}
</style>
<g>
	<path class="st0" d="M554.85,235.72c0,0,2.75,2.54,3.6,4.3c0.85,1.76,3.81,1.21,3.81,1.21s3.39,1.91,4.24,1.91
		s-5.93-7.41-6.99-8.26c-1.06-0.85-3.6,0-3.6,0v-2.75h-2.96C552.1,234.24,554.85,235.72,554.85,235.72z"/>
	<path class="st0" d="M577.51,248.43c-1.48-0.64-7.37-5.8-8.05-4.24c-0.64,1.48,3.39,4.45,5.36,5.27c1.97,0.82,4.59,1.93,5.23,1.51
		C580.69,250.55,578.99,249.06,577.51,248.43z"/>
	<path class="st0" d="M583.23,252.45c-1.91,0-1.91,0-1.91,0s2.75,2.33,3.81,1.69C586.19,253.51,585.13,252.45,583.23,252.45z"/>
	<path class="st0" d="M567.77,253.35c0,0-2.75-3.23-4.66-0.9c0,0,2.54,1.69,3.46,2.55c0.92,0.86,2.82,1.9,2.82,1.9
		s2.4,1.69,3.67,1.48s0.85-1.48,0-2.33C572.22,255.2,567.77,253.35,567.77,253.35z"/>
	<path class="st0" d="M558.03,247.48c-0.13-1.98-7.41-5.19-7.41-5.19S558.16,249.46,558.03,247.48z"/>
	<path class="st0" d="M124.54,111.58c0.84-0.51,8.77-2.99,8.85-3.08c0.8-0.79-0.4-2.73,0.29-3.16c0.74-0.46,2.29-0.25,2.9-0.61
		c3.06-1.84,7.66-1.92,10.64-3.78c0.91-0.58,1.78-2.08,2.72-2.46c1.94-0.77,4.32-0.74,6.42-1.58c1.08-0.44,1.38-2.15,2.02-2.9
		c1.22-1.43,2.59-1.74,4.04-2.9c2.08-1.67-7.99,0.33-4.31-3.35c3.53-3.53,17.79-2.14,19.17-3.52l0.26-0.44
		c0.96-0.96,3.34,0.19,3.34-2.46v-0.88c-0.11-0.08-9.17,0.89-9.84,1.05c-5.91,1.48-13.53,0.79-19.07,2.46
		c-2.4,0.72-14.75,2.66-15.66,3.57l-2.19,1.53c-10.28,2.05-20.66,3.21-30.95,4.92c-5.1,0.85-12.54,1.08-16.99,2.57
		c-4.06,1.36-10.61,1.67-14.65,2.8c-3.18,0.89-12.13-1.03-14.94,0.18c-0.65,0.27-1.31,3.44-0.88,3.87c0.38,0.39,1.55,0.29,2.02,0.62
		c0.41,0.29,1.15,0.65,0.88,1.31c-0.36,0.89-3.98-0.17-4.92,1.41c-1.15,1.91,2.91,4.56,3.61,5.72c1.07,1.78-3.14,2.58-2.2,4.92h0.44
		h1.31c0.88,0,1.62,0.28,2.2,1.15l0.77,0.61c1.68,2.38,40.81-4.22,40.81-4.22S89.2,212.46,42.97,217.6
		c-10.55,1.17-21.75-12.38-22.51-12.66c-0.7-0.26-2.05-0.32-2.5,0.01c-0.45,0.34-0.95,2.46,0.44,4.04
		c5.26,5.98,20.91,18.83,36.52,18.45c48.53-1.17,68.04-114.98,68.04-114.98C123.68,112.63,124.02,111.9,124.54,111.58z"/>
	<path class="st0" d="M181.33,104.98c-0.43-0.42-0.18-4.4-0.27-4.49l-2.11-1.84c-0.81-0.82-6.61,2.64-8.96,2.64
		c-5.13,0-3.87,1.67-6.42,4.22c-0.13,0.14-0.39-0.13-0.53-0.26c-0.55-0.56-0.53-0.58-0.53-1.58v-0.79c-0.39-0.2-2.4,0.64-2.64,0.79
		c-1.41,0.93-2.64,4.32-3.42,5.88c-1.49,2.98-3.79,5.29-5.36,8.44c-0.63,1.27-1.3,5.86-2.11,6.68c-3.9,3.89-10.93,15.45-13.27,20.13
		c-0.27,0.53-1.32,4.22-1.32,4.22c-1.12,1.12-6.38,10.27-6.85,11.69c-0.22,0.67-4.2,2.29-5.01,2.64c-0.79,0.34-1.85,0.18-2.46,0.79
		c-0.38,0.38-0.16,0.39-0.16,0.4c0,0.01-0.07,0.03-0.37,0.13v0.26c0,4.93,3.43,1.5,4.57,2.64c0.22,0.22-0.1,2.41-0.26,2.73
		c-4.06,8.11-7.54,16.54-12.75,24.35c-0.31,0.46-0.28,1.08-0.53,1.58c-1.82,3.64-4.66,7.65-6.15,10.63c-0.57,1.14-0.67,2.4-1.32,3.7
		c-0.07,0.14-0.35,2.45-0.53,2.11c0,3.11-3.25,8.63-2.11,10.9c0.34,0.68,0.15-0.54,0.53-0.79c0.82-0.56,2.07-1,2.64-1.85
		c0.49-0.73,1.51-5.58,1.85-5.8c1.22-0.82,1.93-2.48,1.93-0.27c0,1.02,0.05,1.69-0.27,2.64c-0.13,0.4,0.13,0.93,0,1.32l-0.35,0.79
		v0.53v0.79l0.35-0.53l0.27-0.53c0.15-0.3,0.05-0.63,0.26-1.05c0.39-0.79,0.11-0.6,0.09-0.62c0-0.01,0.08-0.08,0.44-0.44
		c0.65-0.65,0.14-1.99,0.79-2.64c0.3-0.3,1.75-2.8,2.11-3.52l1.58-2.9c0.25-0.51,0.42-1.42,0.79-1.05c1.89,1.89,1.43,6.88,0.53,9.58
		c-0.08,0.25-0.65,1.72-0.53,1.84c0.18,0.18,0.31-0.41,0.53-0.53c2.48-1.24,0.66-3.91,1.32-4.57c2.53-2.53,2.92-7.14,5.54-9.76
		c4.39-4.39,12.61-32.74,16.79-36.92c3.32-3.32,21.21-7.15,24.61-10.55c2.21-2.21,2.11,3.98,2.11,4.75c0,2.15-0.13,18.97,0,19.33
		c0.57,1.71,1.57,2.69,2.11,4.31c0.84,2.52-0.76,12.42,1.93,15.12c0.39,0.39,0.24-0.51,0.27-0.53c0.33-0.34,1.31-2.69,1.31-3.26
		c0-0.56,0.13-1.98,0.53-1.58c0.3,0.3,2.64,8.54,2.9,8.79c0.56,0.56-0.09,1.67,0.26,2.38c0.19,0.37,0.72,0.69,0.79,0.79
		c0.11,0.17,0.18,0.71,0.26,0.53c0.57-1.14,0.36-2.83,1.05-4.23c0.58-1.15,0.55-3.8,1.32-4.57c1.2-1.2,2.96,3.05,3.16,3.26
		c0.2,0.2,1.11,1,1.32,0.79v-5.36c0-8.39,0-54.59,0.26-55.12c0.38-0.76,2.2-28.86,2.2-32.09
		C184.06,106.08,183.39,107.04,181.33,104.98z M163.31,133.98c-0.51,2.51,0.32,10.38-0.18,11.53c-0.53,1.24-2.7,1.86-4.95,3.08
		c-3.05,1.67-6.52,3.8-8.59,4.22c-1.16,0.23-0.98,2.64-4.57,2.64l-0.09-0.22l-0.08-0.04c0-2.64,5.98-11.09,6.95-14.95v-0.09
		c0.65-0.32,0.84-2.47,1.05-2.64c1.73-1.29,4.51-7.41,7.12-10.02l2.81-2.73c0.19-0.19,0.6-0.37,0.79-0.18
		C164.03,125.04,163.47,133.18,163.31,133.98z"/>
	<path class="st0" d="M252.19,198.43c-0.84-2.53-1.58-4.96-1.58-7.83c0-1.92,0.18-16.25,0.61-16.79c0.06-0.07,1.23-5.36,1.23-5.8
		c0-0.34,3.2-12.81,3.61-13.63c0.84-1.69-0.2-5.34,1.23-6.77v-2.37c0-3.02-2.85-0.2-5.45-1.5c-0.7-0.35-1.12-1.66-2.11-1.49
		c-1.19,0.2-1.85,1.8-2.99,2.37l-3.35,1.5l-0.18,0.35c-0.06,0.13-0.3,0.05-0.44,0.08c-6.1,1.53-14.39,5.38-18.99,9.06
		c-1.61,1.29-2.76,5.58-4.31,6.5c-0.73,0.44-1.9,1.64-2.46,2.2c-0.13,0.13-0.82,0.56-0.7,0.79c0.52,1.04,5-1.71,5.72-2.11
		c2.69-1.49,5.4-2.69,8.09-4.22c0.77-0.44,5.96,0.37,7.83-0.88c0.16-0.11,1.59,0.18,1.67,0.27l0.35,0.35
		c1.23,1.23-0.32,4.66-1.05,6.85c-0.89,2.64-2.88,16.54-0.62,17.67c0.42,0.2,1.24,3.69,0.18,4.39c-2,1.34-4.23,2.02-6.24,3.16
		c-0.84,0.48-6.76-0.44-7.82-0.44c-1.5,0-3.11-0.77-4.31-0.97c-1.51-0.25-2.47-1.62-3.69-2.11c-8.84-3.54-14.6-14.63-14.6-24.35
		v-0.53c0-14.72,14.43-34.26,28.22-38.86h0.08c2.9-0.72,5.68-2.94,8.44-4.04c2.35-0.94,5.11,0,7.56-0.61
		c3.28-0.82,2.96-2.58,1.5-4.05c-0.98-0.98,2.46-1.95,2.46-3.34h-0.35c-0.21-0.1-0.68,0.01-0.88-0.08c-0.85-0.43-2.27-0.42-2.9-0.79
		c-1.1-0.66-3.97-5.48-4.22-6.5h-0.7c-0.54,0-1.37,0.15-1.85-0.08c-0.9-0.46-2.17-1.8-2.81-2.29c-0.42-0.32-0.08,0.3-0.53,0
		c-0.45-0.3-1.06-0.26-1.58-0.44h-0.18c-0.42-0.11-0.93,0.29-1.23,0.44c-1.83,0.92-4.37,1.25-6.42,1.94c-2.9,0.96-5.27,1.46-8,2.54
		c-2.29,0.92-4.41,3.98-6.33,5.62c-13.43,11.52-24.35,30.95-22.88,50.64c0.45,6.03,2.48,15.74,2.48,15.74
		c0.97,1.93,2.33,4.87,2.9,6.86c0.2,0.68,11.94,11.17,13.1,12.04c2.03,1.52,5.65,1.26,7.56,3.16c1.31,1.3,15.94,1.43,17.34-0.44
		c1.22-1.63,3.79-3.97,5.51-4.83c1.84-0.92,1.71-4.89,4.04-3.96c0.15,0.06,4.61,7.73,9.23,9.06c0.2,0.06,0.93,1.45,1.5,0.88
		c0.11-0.11-0.18-0.13-0.18-0.44C252.72,199.89,252.36,198.94,252.19,198.43z"/>
	<path class="st0" d="M398.11,108.59c0.22-0.45,0.84-0.61,1.05-1.05c0.03-0.05,0.22-1.98-0.35-1.41v-1.76h-0.7
		c0-0.12,0.2-1.6-0.35-1.05v-0.71c-1.32,0-3.06-0.7-4.57-0.7c-0.17,0-3.14-0.38-2.81-0.7h-0.7c0.37-0.37-0.94-0.94-1.41-0.7v-0.7
		l-0.35-0.35h-1.05c0.29-0.29-0.98-0.98-1.05-1.05c-0.56-0.56-0.31-1.86-1.05-2.11c-0.68-0.22-1.61,0.86-2.11,0.35
		c0.63,1.89-1.93,1.41-2.46,2.46c-1.02,2.04,0.31,5-0.7,7.04l-3.52,3.16c-0.1,0.1-0.1,0.25,0,0.35c-1.18,0-3.32,2.24-3.52,2.11
		c0.19,0.18-0.16,0.52-0.35,0.7c-0.65,0.65-2.3,1.43-2.81,2.46c-1.06,2.12-4.16,4.11-5.27,6.33c-1.83,3.66-6.1,10.09-9.84,11.96
		c-0.66,0.33-1.92,3.97-2.81,3.52c0.2,0.61-2.66,3.22-3.17,4.22c-1.18,2.36-4.95,9.54-6.33,11.6c-0.72,1.09-3.11,1.93-2.81,2.82
		c-0.01-0.01-3.78,2.35-3.52,3.16c-0.55-0.27-5.82,4.06-6.33,4.57c-1.04,1.04-5.17,0.84-5.63,1.76c-0.32,0.65,1.92,3.9,1.06,5.62
		c-0.56,1.12-2.47,1.57-2.47,2.81h1.76c1.76,0,2.78-1.05,4.22-1.05c0.23,0,0.58-0.12,0.35,0.35c-0.83,1.66-10.55,16.29-11.26,16.53
		c-0.46,0.16-4.21-0.34-4.22-0.35c-0.42-0.41-0.64-1.82-1.05-1.41c0-0.79-0.1-6.84,0-7.04c1.79-3.58,1.7-8.32,3.52-11.95
		c2.41-4.82,7.33-18.55,9.5-21.8c0.56-0.84,1.36-1.24,1.05-2.46h0.35c1.55-5.74,5.17-11.28,7.03-16.88
		c0.46-1.39,2.35-6.92,3.16-7.73l1.41-1.05c-0.18-0.55,1.41-3.16,0.7-3.87c-0.11-0.11-1.31-1.15-1.05-1.41h-0.7l-0.35-0.35v-0.7
		c-1.16,1.15,0.99-6.62-0.35-5.27c0-2.84-5.78-2.46-8.09-2.46l-0.35-0.35v-0.7c-0.27,0.26-0.69-0.36-1.05-0.36
		c-0.77,0-3.75,0.04-4.23,0.36c-2.3,1.53-7.31,14.35-9.49,16.52l-1.05,2.81c-0.3,0.6-1.48,1.13-1.05,1.76h-0.35
		c1.03,3.09-1.85,5.41-3.16,7.39c-0.25,0.37-2.11,11.67-2.11,13.36h-0.7c0,0.32-0.37,1.75-0.7,1.41c0.38,1.53-2.01,4.63-2.46,5.98
		c-4.8,14.38-3.23,9.21-13.37,19.34c-1.86,1.86-3.31,4.79-5.62,6.33c-1.17,0.78-2.15,1.1-3.16,2.11c-0.1,0.1-0.1,0.26,0,0.35h-0.7
		c0.51,0.51-2.57,1.31-2.11,1.76c-0.16-0.06-4.47,4.44-7.74,2.81c-4.39-2.19,4.01-18.2,3.52-19.69c0.02,0.03,0.98-0.9,1.41-1.76
		c0.95-1.91,0.59-5.29,1.76-7.03c2.71-4.06,5.63-5.74,5.63-11.61l0.35-0.7h0.7c-0.02-0.04,0.7-1.44,0.7-2.11
		c0.1,0.1,0.25,0.1,0.35,0l1.76-1.76c1.87-1.87,2-5.4,3.16-7.73c0.6-1.19,2.62-2.07,3.16-3.16c0.49-0.99-0.43-4.07,0.35-5.63
		c0.12-0.23,0.75-1.71,1.05-1.41c-0.24-0.72,6.35-9.45,5.98-10.19h0.7c-0.41-0.82,3.16-7.12,3.16-7.38h-0.7v-0.7
		c-0.52,0.51-1.85-1.85-2.11-2.12c-0.1-0.09-0.26-0.09-0.35,0v-0.7h-0.7c0.46-0.46-0.35-0.35-0.35-0.35
		c-0.03-0.02-0.25-2.21-0.71-1.76c0-0.79-1.11-3.35-1.05-3.52h-0.7c1.34-2.66-4.16-1.89-5.62-1.41c-0.79,0.27-2.63,2.47-3.16,2.11
		h-0.35c0.47,0.47-0.35,0.35-0.35,0.35c-0.32,0.32-1.51,1.36-1.76,2.11c-0.42,1.24-4.99,6.5-4.22,8.8c-0.08-0.08-0.93,0.57-1.05,0.7
		c-0.86,0.86-1.65,3.35-2.46,4.57c-0.72,1.08-4.96,12.41-5.63,14.41c-0.14,0.44,0.18,1.75,0,2.12c-1.37,2.75-3.17,5.65-4.57,8.44
		c-2.02,4.06-3.5,11.23-5.98,16.17c-1.62,3.25-3.52,11.61-4.57,18.29c-0.53,3.33,0,8.61,0,11.61c0,1.06-0.01,4.19,0.35,4.92
		c0.15,0.3,0.82,1.64,1.05,1.41c-0.37,1.12,1.69,1.69,2.11,2.11c0.08,0.08,0.82,1.88,1.05,2.11c0.02,0.02,1.03,0.38,0.7,0.7
		c3.35-1.12,8.18,1.58,12.66-1.41c0.94-0.63,7.94-4.97,8.09-4.92l1.05-1.41c1.01-1.53,2.97-2.44,3.87-4.22
		c0.87-1.74,4.59-7.74,6.33-7.74c-2.87,0.41-0.7,16.98-0.7,18.99h0.7c0,0.77,0.46,3.63,1.41,3.16c-0.26,0.79,1.8,2.02,2.46,2.46
		c4.1,2.73,10.05-4.02,11.61-2.46c0.25,0.25-1.53,3.3-1.76,4.22c-0.21,0.83-5.47,12.5-6.33,13.37c-0.88,0.88-3.52,4.2-3.52,5.62
		c0,0.96-0.15,1.25,0.35,1.76c0,0-0.11,0.82,0.36,0.35v0.7c0.41-0.41,1.38,1.73,1.41,1.76c0.66,0.67,4.68-1.09,4.22-2.46
		c0.42,0.42,0.63-1.27,1.05-1.41c1.62-0.54,2,1.29,2.46,1.05c1.65-0.82,4.92-6,4.92-2.11h0.7v-0.7c0.21,0.11,1.26-0.6,1.41-0.7
		c0.94-0.62,6.01-8.2,6.68-10.19c0.24-0.7,2.07-3.02,2.46-2.82v-0.7c0.32,0.32,0.68-0.68,0.71-0.7c0.27-0.27,1.16-0.65,1.76-1.05
		c0.24-0.16,0.32-0.54,0.7-0.35c-0.29-0.84,0.42-1.83,1.05-2.46c4.32-4.32,13.79-24.43,17.23-31.29c0.23-0.44,5.03-7.08,5.63-7.38
		l3.87-0.35c0.25,0,1.36-0.39,1.05-0.7c0.59,0.2,9-6.69,11.95-6.69c-0.21-0.2,1.15-0.98,1.41-1.05c1.3-0.32,2.57-1.05,3.87-1.05
		v-0.7c0.43,0,2.93-1.29,3.52-0.7c1.38,1.39-1.41,12.54-1.41,12.66c0,1.05,1.06,4.91,1.05,4.92h0.71c0,4.9,0.7,9.72,0.7,14.77v1.41
		c0.13,0.13,1.97-0.14,2.11,0c1.94,1.94,0.32,10.52,3.16,13.36c0.1,0.1,0,0.22,0,0.35c0,0.79,0.38,1.05,1.05,1.05
		c0,1.29-0.09,1.49-0.7,2.11c-0.09,0.08,0.35,1.11,0.35,1.76c0.89-0.44,0.66,1.02,0.7,1.05c1.13,1.14-0.04,3.6-0.7,4.93
		c-0.01,0.02-0.24,2.34,0.35,1.76c-0.41,1.24,0.7,0.47,0.7,1.76h0.7c-0.15,0.15,0.89,0.89,1.05,1.41c0.32,0.96,0.7,1.83,0.7,2.81
		h0.35v1.05h0.7l0.35,0.7v0.7c0.75,0.75,0.82-2.21,0.35-3.16c-0.72-1.43,0.35-4.97,0.35-6.68c0-2.26,1.05-12.63,1.41-13.72
		c1.52-4.57,0.94-29.35,1.41-31.29c1.76-7.38,2.81-20.92,2.81-30.24c0-6.23,0.98-13.77,2.46-19.69
		C397.17,113.06,397.34,110.14,398.11,108.59z M375.52,127.4c-0.44,2.17-1.41,3.22-1.41,5.63c0,4.5-1.06,4-4.39,4.83
		c-3.35,0.84-7.19,6.07-10.11,6.07c0.12,0,0.87-2.68,1.31-3.43c1.86-3.08,3.79-6.95,5.89-9.75
		C368.63,128.33,377.62,116.88,375.52,127.4z"/>
	<path class="st0" d="M420.71,203c0.06-0.09-0.01-0.32-0.12-0.59c-0.29,0.75-0.42,1.47-0.47,2.17
		C420.35,204.08,420.4,203.46,420.71,203z"/>
	<path class="st0" d="M417.28,207.84c-0.26,0.62,0.25,3.54-0.26,4.04c-0.53,0.53-2.43,2.4-2.9,3.08c-0.27,0.38-0.43,1.22,0,1.41
		c0.25,0.11,2.58,0.75,2.9,0.61c0.89-0.38,0.79-3.02,0.79-4.3c0-0.11-0.08-0.2,0-0.27c3.26-2.45,2.1-4.91,2.32-7.83
		c-0.07,0.16-0.17,0.31-0.3,0.44C419.48,205.37,417.46,207.41,417.28,207.84z"/>
	<polygon class="st0" points="396.79,226.98 396.72,226.91 396.71,226.91 	"/>
	<path class="st0" d="M442.59,129.77c2.39-0.72,2.22,2.14,2.9,1.76c0.06-0.93,0.79-1.54,1.14-2.28c3.49-7.57,4.95-8.61,14.5-8.61
		c0.22,0,0.27,0,0.28-0.01c0.01-0.03-0.18-0.15,0.25-0.51c0.11-0.09,2.32,0,2.64,0h0.79c0.27,0.55,2.9,2.06,4.04,2.55
		c0.1,0.04,0.23-0.09,0.27,0c0.18,0.42-0.11,0.69,0.53,0.88l4.04,1.41c0.32,0.75,1.38,2.62,1.93,3.16c0.18,0.18-0.11,2.1-0.27,2.29
		c-3.16,3.69-7.92,12.32-11.07,16.52c-0.46,0.61-1.52,0.27-2.29,0.27c-4.93,0-6.93-1.1-9.15-4.04c-0.04-0.06-1.69-1.38-2.29-0.79
		c-0.38,0.38-0.36,1.08-0.79,1.41c-1.01,0.76-1.15,1.57-1.15,3.16l0.79,0.27c-0.39,0.29,0.42,0.99,0.88,1.14
		c0.74,0.25,4.27,3.38,3.69,3.96c-3.92,3.92-5.93-2.52-8.26,2.9c-0.38,0.87-1.2,2.14-0.53,2.81c0.42,0.41,12.21,7.95,13.36,8.52
		c0.61,0.31,14.82,16.45,15.12,17.15c0.04,0.09,0.17-0.05,0.26,0l0.88,0.53c4.39,1.31,7.19,5.65,12.49,7.99l0.61,0.88
		c0.63,0.73,2.88,1.12,3.43,1.67c1.35,1.36,2.53,3.06,4.57,5.1c4.11,4.11,11.14,12.07,16.18,14.6c6.5,3.25,20.02,16.55,24.79,18.46
		c0.18,0.07,6.78,6.44,6.86,6.59c0.1,0.21,0.72,0.6,0.88,0.53c0.43-0.18,0-0.94,0-1.41c0-1.15-1.93-1.08-2.29-2.28
		c-0.03-0.1,0.09-0.23,0-0.26c-0.89-0.39-10.81-10.53-10.81-10.55c-0.18-0.55-0.5-2.06-0.88-2.54c-0.94-1.23-4.56-2.95-5.98-3.43
		c-0.91-0.3-3.23-4.11-3.69-4.57c-5.13-5.12-12.79-12.28-19.43-15.12c-0.59-0.25-0.84-1.47-1.67-1.14
		c-0.19-1.24-2.99-3.56-4.31-4.49c-0.13-0.09-0.22-0.55-0.53-0.35c-1.9-4.3-6.66-6.19-9.41-9.41l-3.16-0.79
		c-0.12-0.07,0.08-0.25,0-0.35c-1.08-1.43-1.55-2.69-3.07-4.23c-3.68-3.67-8.44-6.42-11.43-9.4c-1.52-1.52-4.44-3.62-5.72-5.1
		c-1.23-1.44-2.79-2.76-4.22-4.04c-0.58-0.52-0.88-1.45-0.88-2.29c0-0.84-0.06-0.76-0.26-1.41l-0.35-0.88l-0.25-0.25
		c0.34,0.2,0.45,0.2,0.48,0.19c0,0.03,0.01,0.14,0.13,0.41l0.53,1.15c0.28,0.67,1.07,0.98,1.67,1.41c1.01,0.7,2.42,1.15,2.9,2.28
		c0.91,2.14,4.22,1.93,4.84,2.54c0.89,0.9,3.38,3.43,4.57,3.43c-0.26,0.26,0.7,0.69,0.88,0.79l1.41,0.89c0.28,0.14,2.16-0.12,2.29,0
		c0.57,0.57,2.13,2.38,2.29,2.9c0.12,0.41,1.33,1.09,1.15,1.41h0.79c-0.38,0.58,1.38,1.73,1.76,1.93c0.46,0.25,0.66,1.36,0.79,1.5
		c1.05,1.05,2.3,1.58,3.16,2.81l0.61,0.88c0.35,0.49,2.1,1.35,2.28,1.67c1.99,3.47,4.09,3.09,5.36,4.57
		c1.92,2.24,3.13,5.55,6.24,7.73c2.14,1.5,5.67,2.72,7.73,3.96c0.8,0.48,8.16,7.61,8.26,7.64c2.81,1,13.87,9.43,14.77,11.69
		c0.8,2.01,16.88,11.21,16.18,13.52c0.33-0.35-0.24-3.73-0.56-4.04c-3.24-3.24-21.21-20.18-22.4-21.96
		c-0.73-1.1-3.42-3.68-4.57-4.57c-0.23-0.18-1.94-1.44-1.76-1.76c-7.28-3.22-15.4-14.78-23.29-17.94c-0.13-0.05-0.28,0.11-0.35,0
		c-1.74-2.6-4.78-5.13-6.77-7.12c-2.85-2.84-4.58-8.28-8-11.69c-0.46-0.46-6.6-6.05-6.6-6.24h0.62l1.14-0.27
		c1.31-0.56,2.43-1.54,3.43-2.55c1.12-1.12,5.98-3.62,7.38-4.04c0.6-0.18,1.16-2.19,1.41-2.55c1.39-1.98,4.43-2.51,6.24-5.1
		c2.93-4.19,4.91-7.28,6.35-11.94c0.56-1.82-0.44-5,0.25-6.61c-0.11-0.67,0.59-3.03,0.26-3.69c-0.65-1.29,0.5-3.28-0.53-4.31
		c-0.7-0.7-1.78-1.64-2.29-2.81c-0.13-0.31-0.68-2.19-0.88-2.28c-1.56-0.78-2.68-2.19-3.42-3.69c-0.22-0.44-3.98-1.03-3.96-2.54
		c-0.5,0.28-2.19-2.19-2.29-2.29c-1.63-1.63-2.88-1.63-5.1-2.9c-1.33-0.76-20.25-3.68-21.98-2.81c-1.06,0.53-2.52,2.34-3.96,3.16
		c-2.3,1.31-14.25-0.11-18.81,3.07l-0.88,0.62c-0.71,0.5-2.34,0.46-3.16,0.79c-1.04,0.42-1.33,1.48-2.29,1.76
		c-4.46,1.34-8.56,2.78-12.75,4.57c-1.03,0.44-1.53,0.58-2.29,1.14c-1.19,0.89-4.56,1.76-5.98,2.28c-0.47,0.18-1.86,0.98-2.03,1.15
		c-0.52,0.52,0.04,0.25-0.61,0.53c0.89,2.98-5.37,6.77-7.12,8.53c-0.25,0.25-0.98,3.85-0.53,4.3c0.01,0.02,1.14,0.34,0.88,0.53
		c1.04-0.32,0.56,0.02,1.14,0.35c2.33,1.33,2.32,2.06,4.23,3.96c0.11,0.11,2.78,0.2,2.9,0.27c0.94,0.53,0.63,0.01,1.41,0.35
		c0.09,0.04,1,0.94,1.15,0.79c-0.64,2.76,7.98,0.9,8.26,0.62c0.91-0.91,1.92-0.81,2.81-1.41c0.51-0.34,1.86-2.19,2.29-1.76
		c0.34,0.34-0.7,5.43-0.88,5.71c-1.51,2.53-1.66,6.61-2.28,7.65c-1.14,1.91-2.22,3.99-3.07,5.98c-0.83,1.94,0.71,4.52-0.88,6.59
		l-0.88,1.15c-0.78,1.01-4.87,14.6-5.98,17.4c-0.6,1.51,0.74,4.66,0,7.12c-0.41,1.38-1.72,1.43-2.54,2.81
		c-0.26,0.43-0.25,0.99-0.53,1.41c-0.43,0.65-0.44,2.01-0.62,2.29c-1.04,1.57-0.85,2.74-1.67,4.57c-0.3,0.66-1.43,0.99-1.76,1.76
		c-0.42,0.98,0.26,2.73,0.61,3.34c0.2,0.34-1.03,0.77-1.14,0.88c-0.14,0.13,0.18,3.61,0,4.04c-1.72,4.02-8.77,13.74-5.46,17.06
		c0.34,0.34-1.14,2.65-1.14,3.95v1.76c0,0.11-0.04,0.32,0.06,0.32l0.21,0.21c0.13-0.04,0.25-0.09,0.34,0c1.29,1.29-0.7,2.17,2.55,0
		c1.17-0.77,1.53,1.25,2.02,0.88v-1.67c0.58-1.93,1.45-2.59,1.94-4.04c0.12-0.37,0.14-3.21,0.26-3.43c2.74-4.79,3.25,2.25,4.57,1.5
		c1.01-0.58,3.07-7.12,4.84-8.88c0.03-0.03,3.65-9.51,4.31-10.81c0.27-0.54,1.68-2.89,2.28-2.28c0.08,0.08-0.09,2.73,0,2.81
		c0.05,0.05,0.52,0.84,0.76,1.43c0.04-0.1,0.07-0.2,0.12-0.29c0.85-1.99,1.72-2.61,2.55-5.1c0.86-2.59,1.58-12.68,2.02-13.71
		c1.27-2.97,1.93-5.29,1.93-9.06c0-0.3-0.2-0.67,0-0.88c2.95-2.96,4.7-23.61,8.53-29.36l4.04-5.1
		C440.36,138.18,442.1,129.92,442.59,129.77z M456.31,155.44v-0.04C456.31,155.42,456.31,155.44,456.31,155.44L456.31,155.44z"/>
	<path class="st0" d="M437.67,165.73c2.43,1.62,5.34,1.27,8.7,2.11c0.1,0.03,0.19-0.07,0.26,0c0.62,0.62,2.46,4,2.55,4.04
		c4.11,2.05,7.03,5.36,10.29,8.61l0.53,0.53c1.16,1.16,4.5,6.44,4.65,6.5l2.38,1.41c0.11,0.11,0.31-0.07,0.44,0
		c0.28,0.14,1.05,0.64,0.96,0.7h0.7c0.18,2.05,18.28,15.43,21.1,18.81c0.44,0.52,1.24,0.57,1.84,0.88c4.5,2.24,7.57,5.81,11.52,7.29
		c0.66,0.25,6.97,7.32,9.58,8.88c1.08,0.65,2.45,2.71,3.52,3.78c0.04,0.03,2.49,1.05,3.08,1.41c0.05,0.03,1.29,0.06,1.41,0.26
		c1.93,3.22,15.88,10,17.58,14.24c0.16,0.4,0.75,0.48,1.19,0.57c0.29,0.82,0.83,1.86,1.76,2.39c1.69,0.96,4.24,2.85,6.14,4.97
		c1.91,2.12,5.72,3.81,8.15,5.95c2.44,2.14,7.09,4.85,7.09,4.85s-1.06-3.81-5.72-7.2s-8.47-7.41-10.66-8.57
		c-0.89-0.47-2.23-1.15-3.51-1.8c-1.9-1.59-4.69-3.16-5.16-3.27c-0.21-0.06-0.37-0.03-0.53-0.18c-1.14-0.95-2.97-3.63-4.39-4.49
		c-0.65-0.39-1.31-1.3-1.67-1.67c-0.07-0.08-0.19-0.08-0.27,0c-0.02-0.99-0.44-0.77-1.14-1.15c-3.26-1.78-10.11-10.57-12.4-13.63
		c-1.19-1.58-4.91-2.99-6.6-4.22c-0.72-0.53-0.77-1.65-1.41-2.28c-3.07-3.08-13.03-8.14-16.44-9.85c-0.75-0.37-0.62-1.79-1.41-2.11
		c-1.31-0.52-1.63-2.2-2.55-2.81c-0.71-0.48-7.67-6.81-9.14-7.73c-0.38-0.24-1-0.28-1.15-0.7c-0.24-0.73-1.43-2.78-1.93-3.08
		c-2.22-1.34-3.27-1.24-5.1-3.07c-0.18-0.18-1.01-2.28-1.23-2.81c-0.18-0.44-1.6-1.33-2.11-1.58c-1.36-0.68-6.81-7.51-8.44-9.15
		c-0.66-0.66-1.66-2.09-2.11-2.81c-0.13-0.2,0.05-0.63-0.18-0.7c-4.2-1.4-7.99-6.37-11.26-8c-2.35-1.17-4.58-0.86-7.03-1.84
		c-0.68-0.27-1.44,0.27-2.38-0.27l0.04,0.03l-0.04,0.24c0.23,0.15-0.82,0.25-0.96,0.44c-0.11,0.14,0,0.27,0,0.44v0.26
		C436.27,162.08,436.82,165.16,437.67,165.73z"/>
	<path class="st0" d="M554.32,269.29c-2.06-1.75-5.24-5.24-8.26-7.04c-0.6-0.36-1.43-0.88-2.37-1.48v-0.27
		c0-0.68-0.22-0.72-0.53-1.23c-0.31-0.51-0.56-0.6-0.88-1.15c-0.64-1.07-2.9-0.51-3.34-1.67c-0.38-0.99-1.28-1.47-1.94-2.32
		l0.09,0.03c-0.08-0.08-0.16-0.15-0.24-0.23c-0.01-0.01-0.02-0.02-0.02-0.03c-0.05-0.08-0.14-0.16-0.24-0.22
		c-5.08-4.91-12.66-9.69-19.63-16.66c-1.58-1.58-5.41-2.15-7.03-3.78c-0.65-0.65-1.61-0.27-1.93-1.15
		c-0.02-0.05-3.03-2.75-3.52-3.08c-0.77-0.51-2.17-3.13-2.81-3.52c-0.83-0.5-2.95-1.25-3.52-2.11c-0.21-0.32-0.97,0.17-1.14-0.18
		c-0.21-0.41-5.55-4.88-6.07-5.19c-0.37-0.22-0.6-2.44-0.97-2.81c-1.01-1.01-3.17-2.21-4.48-3.52c-0.21-0.21-3.85-0.81-4.39-1.14
		c-1.43-0.86-2.19-3.33-3.35-4.49c-3.03-3.03-17.52-16.06-18.98-18.99c-1.81-3.63-0.3-5.65-3.96-8.7c-2.52-2.1-5.52-2.71-8.7-3.52
		c-0.83-0.2-4.7-3.56-5.8-4.22h-3.34c-0.1,0.04-0.69,0.65-0.88,0.53c0,0.25-0.07,1.3,0,1.41c0.92,1.38,3.85,1.91,4.92,2.99
		c0.89,0.89,1.55,3.3,2.99,4.75c0.12,0.13,5.27,1.32,5.62,1.85c1.12,1.68,0.76,2.69,1.67,4.22c0.66,1.11,2.77,0.91,3.26,2.11
		c0.81,2.03,15.29,17.61,18.1,18.55c0.16,0.05,0.08,0.32,0.18,0.44c6.07,7.28,9.1,6.22,13.89,9.41v0.18c0,0.63,2.59,4.55,2.99,4.75
		c3.71,1.86,7.04,5.58,10.55,7.91c0.12,0.08,0.17,0.1,0.19,0.09c0.01,0.03,0.03,0.08,0.07,0.17c0.06,0.11,13.7,10.74,14.33,10.99
		c1.21,0.48,1.72,0.84,2.54,1.67c0.11,0.11,0.39-0.13,0.44,0c0.69,1.72,7.93,5.74,9.67,7.47c2.1,2.1,4.2,3.52,6.77,4.49
		c0.27,0.1,1.02,0.6,1.79,1.16c0,0,0,0,0,0c-0.46-0.31-0.39-0.26,0.04,0.03c0.19,0.14,0.38,0.28,0.57,0.41
		c2.37,1.82,6.88,6.27,8.37,7.73c1.62,1.59,9.91,7.42,11.34,8.69c1.43,1.27,3.34,2.06,5.24,3.49c1.91,1.43,3.34,3.02,3.97,2.38
		c0,0-4.13-5.24-5.08-6.35S556.39,271.03,554.32,269.29z"/>
	<path class="st0" d="M568.49,268.81c0.51,0.79,2.16-0.06,1.72-0.79C568.78,265.63,567.98,268.02,568.49,268.81z"/>
</g>
<g>
	<path class="st1" d="M67.97,57.06v2.1c-0.19,2.58-1.03,3.92-3.2,4.88l-1.13,0.48c-2.07,0.86-2.54,1.91-2.54,6.22v9.38
		c0,7.37-1.41,8.71-9.21,8.71H38.27c-8.65,0-10.15-1.34-10.15-9.09v-8.42v-2.1c0-3.16-0.66-4.02-3.67-5.26
		c-2.73-1.15-3.2-2.1-3.2-7.65V34.58c0-7.85,1.32-9.57,7.71-9.57c5.83,0,7.14,1.82,7.14,9.66v38.37c0,6.51,0.94,7.75,5.83,7.75h4.7
		c5.36,0,6.49-1.15,6.49-6.41V62.9c0-4.88,0.47-5.84,3.1-6.89c3.2-1.15,3.76-2.39,3.76-8.04v-17.6c0-4.02,1.13-5.64,4.04-5.64
		c2.63,0,3.95,1.72,3.95,5.17V57.06z"/>
	<path class="st1" d="M90.68,82.13c0,4.69-2.26,6.7-7.33,6.7c-5.17,0-7.33-1.91-7.33-6.7V29.6c0-3.35,1.22-4.88,4.04-4.88
		c2.63,0,3.76,1.53,3.76,5.07v12.15c0,5.65,0.38,6.6,2.82,7.65l0.94,0.38c2.35,1.05,3.1,2.2,3.1,5.36v2.87V82.13z"/>
	<path class="st1" d="M147.16,83.85c0,3.92-1.22,5.65-4.04,5.65c-2.73,0-3.95-1.72-3.95-5.74V66.54c0-7.46-0.85-8.52-7.24-8.52
		h-11.94c-5.64,0-6.67,1.15-6.67,7.18v14.93c0,6.7-1.6,8.71-7.14,8.71c-5.73,0-7.61-2.01-7.61-7.75V34.77c0-8.23,1.41-9.76,9.3-9.76
		h22.93c7.9,0,9.49,1.53,9.49,8.71V43c0,4.78,0.38,5.64,3.1,6.79c3.38,1.34,3.76,2.01,3.76,7.27V83.85z M132.31,41.66
		c0-7.27-0.94-8.52-6.48-8.52h-13.63c-4.89,0-5.73,1.44-5.73,8.9c0,6.51,1.03,7.94,5.73,7.94h13.63
		C131.55,49.98,132.31,48.93,132.31,41.66z"/>
	<path class="st1" d="M186.74,81.08c0,5.74-1.88,7.75-7.42,7.75c-5.45,0-7.33-1.91-7.33-7.75v-39.8c0-7.75-0.38-8.13-8.36-8.13
		h-4.79c-3.85,0-5.55-1.24-5.55-4.11c0-2.77,1.79-4.02,5.73-4.02h34.77c4.7,0,6.2,1.05,6.2,3.92c0,3.25-1.41,4.21-6.86,4.21h-6.77
		c-5.45,0-6.39,1.15-6.39,7.65c0,0.19,0,0.38,0,0.67v3.35c0.09,2.68,0.75,4.02,2.63,4.78l1.13,0.48c2.54,1.05,3.01,2.1,3.01,6.89
		V81.08z"/>
	<path class="st1" d="M253.71,80.22c0,7.56-1.41,8.61-11.37,8.61h-24.53c-9.02,0-10.62-1.34-10.62-9.09V29.89
		c0-3.54,1.22-5.17,3.95-5.17c2.82,0,3.95,1.53,3.95,5.17v10.14v2.68c0,0.19,0,0.29,0,0.38c0,3.92,0.56,5.36,2.26,6.03l1.6,0.77
		c2.63,1.15,2.91,2.01,2.91,9.28v10.91l0.09,3.44c0.09,6.41,1.03,7.18,8.46,7.18h8.55c5.73,0,6.86-1.15,6.86-7.08v-3.35V29.89
		c0-3.64,1.13-5.17,3.95-5.17c2.73,0,3.95,1.53,3.95,5.17V80.22z"/>
	<path class="st1" d="M302.73,66.44c0-7.75-0.75-8.61-7.42-8.61h-11c-6.86,0-7.52,0.77-7.52,8.61v12.25
		c0,8.32-1.32,10.14-7.42,10.14c-6.01,0-7.33-1.72-7.33-10.33V56.97c0-4.98,0.56-6.03,3.76-7.37c2.91-1.15,3.1-1.63,3.1-7.27v-7.85
		c0-8.04,1.41-9.47,9.21-9.47h16.54c7.99,0,9.21,1.34,9.21,9.66v7.46c0,5.84,0.19,6.32,2.54,7.37l1.32,0.57
		c2.54,1.05,2.82,2.01,2.82,10.33v22.01c0,5.55-0.75,7.08-3.85,7.08c-3.1,0-3.95-1.63-3.95-7.08V66.44z M276.89,42.52
		c0,6.51,0.75,7.46,6.67,7.46h5.64c6.11,0,6.67-0.86,6.67-8.52c0-7.27-0.85-8.42-6.39-8.42h-6.02
		C277.64,33.05,276.89,34.2,276.89,42.52z"/>
	<path class="st1" d="M327.51,88.83c-6.86,0-8.46-1.63-8.46-8.61V30.75c0-4.31,1.13-6.03,3.95-6.03c3.1,0,3.95,1.44,3.95,6.41v10.24
		l0.09,2.49c0,4.21,0.38,4.78,3.38,6.03c2.82,1.15,3.38,2.2,3.38,7.27v15.98c0,6.79,0.85,7.65,7.61,7.65h9.68
		c4.7,0,6.39,1.05,6.39,3.92c0,2.97-1.5,4.11-5.64,4.11H327.51z"/>
</g>
</svg>
