<svg version="1.1" id="Layer_1" xmlns="http://www.w3.org/2000/svg" x="0" y="0" viewBox="0 0 400 140" style="enable-background:new 0 0 400 140" xml:space="preserve">
  <style>
    .st0{fill:#638f34}.st1{fill:#d2e6bc}
  </style>
  <g id="Layer_2_00000087405444542303755620000002746935912910512034_">
    <g id="Notch_-_Purple">
      <g id="icon">
        <path id="path71" class="st0" d="M80.6 16.2v.6a12.3 12.3 0 1 1-24.6 0v-.6H14.5v107.6h107.6V16.2H80.6z"/>
        <path id="polygon73" class="st0" d="m94.4 83.6-3.1 14h9.7l-3.6-14z"/>
      </g>
    </g>
  </g>
  <circle id="path128" class="st1" cx="85.1" cy="95.2" r="9"/>
  <path id="rect150" class="st1" d="M38.9 68h10v35h-10z"/>
  <path id="rect150-1" class="st1" d="M25.9 80.2h35v10h-35z"/>
  <circle id="path128-0" class="st1" cx="101.5" cy="75.6" r="9"/>
  <path d="M196.3 92.4h-12.1l-5.3-21.6a38.2 38.2 0 0 1-.5-4.6h-.1a37.2 37.2 0 0 1-.8 4.6L172 92.4H159l-9-37.9h12.5l3.2 22.3.2 2.4.2 2.2h.1l.4-2.3.5-2.5 5.8-22h12.4l4.9 22.3.3 2.3.3 2.2.1-1 .4-3.6 3.3-22.3h11.2l-9.5 37.9zm37.5 0-1.7-7h-11.3l-1.8 7h-12.3l13-37.9H234l12.3 37.9h-12.4zm-7.2-29.6h-.3l-.3 2-3.2 12.5h7.2L227.4 67a34 34 0 0 1-.8-4.2zm50.2 18.1a11 11 0 0 1-2 6.6c-1.3 1.8-3.2 3.2-5.6 4.1s-5.4 1.4-8.8 1.4c-4 0-7.6-.7-10.9-2V80.7c1.6 1.1 3.4 2 5.3 2.8s3.7 1 5.3 1c1.3 0 2.3-.2 3-.6s1-1.1 1-2c0-.6-.2-1.2-.5-1.6A5 5 0 0 0 262 79l-3.8-1.7C252 75 249 71.2 249 66c0-3.7 1.4-6.6 4.2-8.8s6.5-3.3 11.2-3.3a37.1 37.1 0 0 1 10.5 1.5V65a19.5 19.5 0 0 0-9.4-2.6c-1.3 0-2.3.2-3 .7s-1.3 1.1-1.3 2c0 .7.4 1.4 1 2l4 2c3.8 1.5 6.6 3.2 8.2 5.1a10 10 0 0 1 2.4 6.7zm39.3 11.5V71.6c0-2 0-4 .2-6.4v-1.7h-.3c-.5 3-1 5-1.3 6.1l-5.5 22.8h-10.7l-5.9-22.5-1.2-6.4h-.3l.3 11v17.9h-10V54.5h17.1l5.2 20.6.5 2.6.4 3h.1c.2-1.7.5-3.5 1-5.7l4.8-20.5h16.8v37.9h-11.2zM334.8 82v-7.6h14.4V82h-14.4zm45.3-27.5v23.9h5.4v7.5H380v6.5h-9.9v-6.5h-16V78a103 103 0 0 0 15.2-23.6H380zm-10 23.9v-11a61 61 0 0 1-6.6 11h6.7z" style="fill:#f5f6f7"/>
</svg>
