<?xml version="1.0" encoding="utf-8"?>
<!-- Generator: Adobe Illustrator 24.2.1, SVG Export Plug-In . SVG Version: 6.00 Build 0)  -->
<svg version="1.1" id="Layer_1" xmlns="http://www.w3.org/2000/svg" xmlns:xlink="http://www.w3.org/1999/xlink" x="0px" y="0px"
	 viewBox="0 0 165.18 92.82" style="enable-background:new 0 0 165.18 92.82;" xml:space="preserve">
<style type="text/css">
	.st0{fill:url(#SVGID_1_);stroke:#000000;stroke-miterlimit:10;}
	.st1{fill:url(#SVGID_2_);stroke:#000000;stroke-miterlimit:10;}
	.st2{fill:url(#SVGID_3_);stroke:#000000;stroke-miterlimit:10;}
	.st3{fill:url(#SVGID_4_);stroke:#000000;stroke-miterlimit:10;}
	.st4{fill:url(#SVGID_5_);stroke:#000000;stroke-miterlimit:10;}
	.st5{fill:url(#SVGID_6_);stroke:#000000;stroke-miterlimit:10;}
</style>
<g id="Layer_1_1_">
	<g>
		<path d="M80.81,49.46c0,0,3.82-1.57,7.59-4.87c3.76-3.29,7.61-9.9,7.61-11.54c0-1.65,0.82-5.03-4.24-8.91
			c-5.06-3.88-17.64-3.53-25.17-0.71s-12.77,6.41-12.77,6.41l7.35,12.05l3.29-1.76l-6.59,35.41l11.06,4.94l3.88-22.96
			c0,0,4.59,4.26,10.24,9.31c5.65,5.06,16.47,13.65,16.47,13.65l8.82-7.76c0,0-8.35-5.76-14.12-10.47
			C88.47,57.54,80.81,49.46,80.81,49.46z M74.47,44.59l0.77-11.19c0,0,7.46-0.18,7.46,1.94C82.71,37.46,74.47,44.59,74.47,44.59z"/>
		<polygon points="102.42,66.49 104.86,40.64 96.6,36.73 90.42,59.85 		"/>
		<polygon points="110.01,27.76 100.7,25.51 98.5,34.07 107.24,38.12 		"/>
		<path d="M121.22,48.98c0,0-4.68,8.65-5.47,8.65s-1.01-3.82-1.01-7.43c0-3.62,2.38-13.04,3.35-13.04s0.75,4.94,0.75,4.94l8.92-0.44
			c0-7.68-2.13-17.07-8.83-17.07c-6.71,0-9.62,11.87-11.47,19.98c-1.85,8.12-1.68,15.71-1.68,17.12s-0.09,8.38,8.12,8.38
			c8.21,0,16.5-18.26,16.5-18.26L121.22,48.98z"/>
		<path d="M155.05,50.35c-3.97-5.47-8.78-10.45-8.78-10.45s3.62-4.9,6.97-8.29c3.35-3.4,9.71-8.06,9.71-8.06l-7.01-5.72l-11.52,9.22
			l2.74-16.24L138,6.01l-8.44,54.96l8.42,4.06l2.65-16.01l13.94,17.47l8.84-6.28C163.41,60.21,159.02,55.82,155.05,50.35z"/>
	</g>
	<path d="M54.91,36.96l-8.29-7.95l-18.69,18.4L14.37,31.95l-8.41,6.42c0,0,6.23,10.48,13.45,21.41
		C11.85,70.89,3.96,85.25,3.96,85.25l9.41,5.42l14.5-22.57l17.39,20.57l9.29-6.95c0,0-11.23-11.42-19.89-23.91
		C43.32,45.31,54.91,36.96,54.91,36.96z"/>
</g>
<g id="Layer_2_1_">
	<g>
		
			<linearGradient id="SVGID_1_" gradientUnits="userSpaceOnUse" x1="101.8603" y1="56.3222" x2="90.8744" y2="118.6257" gradientTransform="matrix(1 0 0 -1 0 130.3529)">
			<stop  offset="0.22" style="stop-color:#F6EB22"/>
			<stop  offset="0.66" style="stop-color:#D34545"/>
		</linearGradient>
		<polygon class="st0" points="94.48,31.55 104.1,36.32 99.69,59.43 89.7,55.54 		"/>
		
			<linearGradient id="SVGID_2_" gradientUnits="userSpaceOnUse" x1="108.8134" y1="59.8757" x2="98.197" y2="120.0848" gradientTransform="matrix(1 0 0 -1 0 130.3529)">
			<stop  offset="0.22" style="stop-color:#F6EB22"/>
			<stop  offset="0.66" style="stop-color:#D34545"/>
		</linearGradient>
		<polygon class="st1" points="95.46,28.44 97.31,19.73 106.48,23.61 104.72,32.52 		"/>
		
			<linearGradient id="SVGID_3_" gradientUnits="userSpaceOnUse" x1="81.5931" y1="52.1561" x2="70.8918" y2="112.8465" gradientTransform="matrix(1 0 0 -1 0 130.3529)">
			<stop  offset="0.22" style="stop-color:#F6EB22"/>
			<stop  offset="0.66" style="stop-color:#D34545"/>
		</linearGradient>
		<path class="st2" d="M91.01,56.64c-5.76-4.71-12.24-11.29-12.24-11.29s4.12-2.12,7.88-5.41s6.12-8.71,6.12-10.35
			c0-1.65,0.82-4.71-4.24-8.59c-5.06-3.88-15.76-3.65-23.29-0.82s-12.82,7.06-12.82,7.06l5.53,9.06l3.29-1.76l-6.59,35.41
			l11.06,4.94l3.88-22.96c0,0,4.59,4.26,10.24,9.31C85.48,66.3,96.3,74.89,96.3,74.89l8.82-7.76
			C105.13,67.11,96.78,61.35,91.01,56.64z M71.25,38.99l1.41-8.82c0,0,6.82-1.18,6.82,0.94S71.25,38.99,71.25,38.99z"/>
		
			<linearGradient id="SVGID_4_" gradientUnits="userSpaceOnUse" x1="118.4275" y1="60.1849" x2="107.1743" y2="124.005" gradientTransform="matrix(1 0 0 -1 0 130.3529)">
			<stop  offset="0.22" style="stop-color:#F6EB22"/>
			<stop  offset="0.66" style="stop-color:#D34545"/>
		</linearGradient>
		<path class="st3" d="M126.25,37.38l-8.91,0.44c0,0-0.44-3.4-1.41-3.4s-3.26,10.73-3.53,14.34c-0.25,3.39-0.35,4.59,0.63,4.59
			s4.84-8.65,4.84-8.65l9.18,2.82c0,0-8.29,18.26-16.5,18.26s-8.12-6.97-8.12-8.38s-0.18-9,1.68-17.12s4.76-19.24,11.47-19.24
			C122.28,21.05,126.25,29.7,126.25,37.38z"/>
		
			<linearGradient id="SVGID_5_" gradientUnits="userSpaceOnUse" x1="148.6425" y1="69.7159" x2="137.7723" y2="131.364" gradientTransform="matrix(1 0 0 -1 0 130.3529)">
			<stop  offset="0.22" style="stop-color:#F6EB22"/>
			<stop  offset="0.66" style="stop-color:#D34545"/>
		</linearGradient>
		<path class="st4" d="M136.75,58.9l-9.71-3.53l8.12-52.85l9.88,4.24L142.3,23l11.12-10.76l8.38,5.83c0,0-6.35,4.67-9.71,8.06
			c-3.35,3.4-6.97,8.29-6.97,8.29s3.43,4.87,7.4,10.33c3.97,5.47,9.27,10.8,9.27,10.8l-8.91,5.82l-14.03-18.35L136.75,58.9z"/>
	</g>
	
		<linearGradient id="SVGID_6_" gradientUnits="userSpaceOnUse" x1="32.2559" y1="47.1019" x2="21.3543" y2="108.9275" gradientTransform="matrix(1 0 0 -1 0 130.3529)">
		<stop  offset="0.22" style="stop-color:#F6EB22"/>
		<stop  offset="0.66" style="stop-color:#D34545"/>
	</linearGradient>
	<path class="st5" d="M52.79,31.12l-8.29-7.95c0,0-11.13,8.7-18.69,18.4C16.48,29.84,12.25,26.1,12.25,26.1l-8.41,6.42
		c0,0,6.23,10.48,13.45,21.41C9.73,65.04,1.84,79.4,1.84,79.4l9.41,5.42c0,0,7.04-11.4,14.5-22.57
		c7.84,10.02,17.39,20.57,17.39,20.57l9.29-6.95c0,0-11.23-11.42-19.89-23.91C41.2,39.48,52.79,31.12,52.79,31.12z"/>
</g>
</svg>
