<?xml version="1.0" encoding="utf-8"?>
<!-- Generator: Adobe Illustrator 25.0.0, SVG Export Plug-In . SVG Version: 6.00 Build 0)  -->
<svg version="1.1" id="Layer_1" xmlns="http://www.w3.org/2000/svg" xmlns:xlink="http://www.w3.org/1999/xlink" x="0px" y="0px"
	 viewBox="0 0 256 256" style="enable-background:new 0 0 256 256;" xml:space="preserve">
<style type="text/css">
	.st0{fill:#D79988;}
	.st1{fill:url(#SVGID_1_);}
	.st2{fill:url(#SVGID_2_);}
	.st3{fill:#9B391E;}
	.st4{fill:#832E18;}
	.st5{fill:url(#SVGID_3_);}
</style>
<g>
	<path class="st0" d="M88.04,64.07c15.97-8.5,36.61-15.49,59.78-15.49c10.38,0,9.2,6.76-0.02,7.35
		c-15.71,1.02-35.28,8.37-50.87,17.26C84.97,80.01,79.78,68.47,88.04,64.07z"/>
	<g>
		<path d="M211.33,37.81 M228,28.8h-16.67h-40.41h-5.46l-2.53,4.84l-33.19,63.47h-0.69L95.87,33.64l-2.53-4.84h-5.46H47.48H30.81
			l9.13,13.95l61.48,93.97v81.47v9.01h9.01h37.95h9.01v-9.01v-81.47l61.48-93.97L228,28.8L228,28.8z"/>
	</g>
	<radialGradient id="SVGID_1_" cx="133.8693" cy="119.9635" r="86.1562" gradientUnits="userSpaceOnUse">
		<stop  offset="0" style="stop-color:#AAB9FD"/>
		<stop  offset="1" style="stop-color:#060C79"/>
	</radialGradient>
	<polyline class="st1" points="211.33,37.81 148.38,134.03 148.38,218.19 110.43,218.19 110.43,134.03 47.48,37.81 87.88,37.81 
		123.6,106.12 135.21,106.12 170.93,37.81 211.33,37.81 	"/>
	<linearGradient id="SVGID_2_" gradientUnits="userSpaceOnUse" x1="27.5547" y1="147.6533" x2="174.3742" y2="134.8083">
		<stop  offset="0.254" style="stop-color:#D89C8B"/>
		<stop  offset="0.4549" style="stop-color:#E6C0B5"/>
		<stop  offset="0.6898" style="stop-color:#F6E7E3"/>
		<stop  offset="0.7791" style="stop-color:#F5E4E0"/>
		<stop  offset="0.8575" style="stop-color:#F1DBD5"/>
		<stop  offset="0.9317" style="stop-color:#EBCBC3"/>
		<stop  offset="1" style="stop-color:#E3B7AB"/>
	</linearGradient>
	<path class="st2" d="M157.87,165.78c0,0,15.4-3.85,18.92,4.19c3.52,8.04-2.34,16.24-9.46,19.59c-7.12,3.35-25.7,15.4-69.73,15.4
		S28,182.02,28,150.21c0-29.72,20.64-56.11,36.41-70.06l8.45,12.91c-8.05,8.94-22.98,28.19-22.98,47.44
		c0,26.62,23.77,34.66,48.05,34.66C124.72,175.16,157.87,165.78,157.87,165.78z"/>
	<path class="st3" d="M43.1,141.67c0,13.17,7.06,40.57,52.82,40.57c37,0,63.73-10.27,70.49-10.27c2.09,0,4.31,2.01,4.31,4.06
		c0,2.05-0.97,2.95-4.9,5.65c-10.36,7.13-35.63,16.18-62.98,16.18c-45.32,0-67.86-18.08-67.86-48.67
		c0-26.94,19.34-50.32,33.06-63.51l1.05,1.61C57.89,100.43,43.1,121.56,43.1,141.67z"/>
	<g>
		<path class="st4" d="M196.82,116.5c-16.99,0-30.81,15.28-30.81,34.05s13.82,34.05,30.81,34.05s30.81-15.28,30.81-34.05
			S213.81,116.5,196.82,116.5L196.82,116.5z"/>
	</g>
	
		<radialGradient id="SVGID_3_" cx="186.5527" cy="138.4996" r="37.1961" gradientTransform="matrix(6.123234e-17 -1 0.9 5.510911e-17 61.9031 325.0523)" gradientUnits="userSpaceOnUse">
		<stop  offset="0.1032" style="stop-color:#F6D6CE"/>
		<stop  offset="0.1191" style="stop-color:#F3D1C8"/>
		<stop  offset="0.5416" style="stop-color:#B14425"/>
		<stop  offset="0.708" style="stop-color:#AB4123"/>
		<stop  offset="0.9144" style="stop-color:#9B391E"/>
	</radialGradient>
	<path class="st5" d="M196.82,124.09c12.82,0,23.22,11.85,23.22,26.46c0,14.61-10.39,26.46-23.22,26.46
		c-12.82,0-23.22-11.85-23.22-26.46C173.61,135.94,184,124.09,196.82,124.09"/>
</g>
</svg>
