<?xml version="1.0" encoding="utf-8"?>
<!-- Generator: Adobe Illustrator 25.0.0, SVG Export Plug-In . SVG Version: 6.00 Build 0)  -->
<svg version="1.1" xmlns="http://www.w3.org/2000/svg" xmlns:xlink="http://www.w3.org/1999/xlink" x="0px" y="0px"
	 viewBox="0 0 256 256" style="enable-background:new 0 0 256 256;" xml:space="preserve">
<style type="text/css">
	.st0{fill:#B7BEC8;}
	.st1{filter:url(#dropshadow);}
	.st2{fill:#6F7C91;}
	.st3{fill:#DBDEE3;}
</style>
<filter  id="dropshadow">
	<feGaussianBlur  in="SourceAlpha" stdDeviation="3"></feGaussianBlur>
	<feOffset  dx="2" dy="2"></feOffset>
	<feComponentTransfer>
		<feFuncA  slope="0.2" type="linear"></feFuncA>
	</feComponentTransfer>
	<feMerge>
		<feMergeNode></feMergeNode>
		<feMergeNode  in="SourceGraphic"></feMergeNode>
	</feMerge>
</filter>
<g id="Layer_1">
	<rect class="st0" width="256" height="256"/>
</g>
<g id="Layer_2_1_">
	<g class="st1">
		<path class="st2" d="M202.41,93.74V91.5c0,0-6.44-10.68-9.09-12.88c-2.65-2.21-5.74-5.29-14.74-5.29s-14.29,1.23-14.29,1.23
			l1.52,1.95c-17.91,0.77-22.91,6.22-37.88,6.51c-14.96-0.29-19.97-5.74-37.88-6.51l1.52-1.95c0,0-5.29-1.23-14.29-1.23
			s-12.09,3.08-14.74,5.29c-2.65,2.21-9.09,12.88-9.09,12.88v2.24c-2.78,3.11-21.71,25.5-21.71,59.35
			c0,23.91,16.85,29.19,27.1,29.19c18.1,0,33.4-27.02,69.08-27.24c35.68,0.22,50.98,27.24,69.08,27.24c10.25,0,27.1-5.28,27.1-29.19
			C224.12,119.25,205.2,96.85,202.41,93.74z"/>
	</g>
</g>
<g id="Layer_3">
	<path class="st3" d="M189.18,100.91c3.62,0,6.56,2.94,6.56,6.56c0,3.62-2.94,6.56-6.56,6.56c-3.62,0-6.56-2.94-6.56-6.56
		C182.62,103.85,185.55,100.91,189.18,100.91z M172.12,108.21c3.62,0,6.56,2.94,6.56,6.56s-2.94,6.56-6.56,6.56
		c-3.62,0-6.56-2.94-6.56-6.56S168.5,108.21,172.12,108.21z M95.62,133.47h-8.38c-2,0-3.62,1.62-3.62,3.62v8.38h-9v-8.38
		c0-2-1.62-3.62-3.62-3.62h-8.38v-9H71c2,0,3.62-1.62,3.62-3.62v-8.38h9v8.38c0,2,1.62,3.62,3.62,3.62h8.38V133.47z M129.35,152.12
		c-3.97,0-11.74-3.79-11.74-7.15c0-3.35,4.68-4.59,11.74-4.59c7.06,0,11.91,1.24,11.91,3.97S133.32,152.12,129.35,152.12z
		 M149.41,125.32c0-3.62,2.94-6.56,6.56-6.56c3.62,0,6.56,2.94,6.56,6.56c0,3.62-2.94,6.56-6.56,6.56
		C152.35,131.88,149.41,128.95,149.41,125.32z M162.26,155.53c-5.02,0-9.1-4.07-9.1-9.1c0-5.02,4.07-9.1,9.1-9.1
		c5.02,0,9.1,4.07,9.1,9.1C171.35,151.46,167.28,155.53,162.26,155.53z M180.45,142.88c-5.02,0-9.1-4.07-9.1-9.1s4.07-9.1,9.1-9.1
		c5.02,0,9.1,4.07,9.1,9.1S185.47,142.88,180.45,142.88z M202.1,134.37c-5.02,0-9.1-4.07-9.1-9.1c0-5.02,4.07-9.1,9.1-9.1
		c5.02,0,9.1,4.07,9.1,9.1C211.2,130.3,207.13,134.37,202.1,134.37z"/>
</g>
</svg>
